<svg xmlns="http://www.w3.org/2000/svg" version="1.1" viewBox="0 0 888.8 949">
    <defs>
        <style>
            .cls-1, .cls-2, .cls-3, .cls-4, .cls-5, .cls-6 {
            fill: none;
            }

            .cls-2, .cls-3, .cls-4 {
            stroke: #fff;
            }

            .cls-2, .cls-3, .cls-4, .cls-5, .cls-6 {
            stroke-miterlimit: 10;
            }

            .cls-7 {
            fill: #3d3d3d;
            }

            .cls-3 {
            stroke-dasharray: 0 0 5.5 1.8;
            }

            .cls-8 {
            fill: #fff;
            }

            .cls-4 {
            stroke-width: 1.5px;
            }

            .cls-5 {
            stroke: #2196f3;
            }

            .cls-5, .cls-6 {
            stroke-width: 6px;
            }

            .cls-9 {
            fill: #535353;
            }

            .cls-10 {
            display: none;
            }

            .cls-6 {
            stroke: #f44336;
            }
        </style>
    </defs>
    <!-- Generator: Adobe Illustrator 28.6.0, SVG Export Plug-In . SVG Version: 1.2.0 Build 709)  -->
    <g>
        <g id="Layer_1">
            <g id="Layer_1-2" data-name="Layer_1">
                <g id="May_body_merge">
                    <path class="cls-7" d="M845.8,435h-42.7v-35h53v-207h-150v-88h-106.1v-12h-42.9v13h-8V1h-128v106h-185v57h13v7H63.1v28h-6v-14H0v104h57v-14h6v60h186v7h-107v111h7v5h-13v142h106v240h64v109h40l22-26v-7h38v-101h11v-1h152v-20h59v-73h-15v-43h89v-192h-24v-8h142v-14h22v14h46v-43h-42.3ZM763.1,235h-50v93h-13v22h-9v-15h-34v-7h21v-49.9l-15-21v-21h-10v-5h16v-5h2v2h92v7.1h0v-.2h0ZM671.1,141.9v54.1h-2v-3h-48v38h17v5h-39v-94.1h72ZM557.1,236v35h56v57h21.1v7h-64v58h14.9v14.1h-100v-65h-29v-42h36v-51h-27l-15-15v-11.9l14-14.1h57v-41h-14v-3h42v-21h8v93h0ZM278.1,164h35v-22h29v22h135v3h-56v67h-15v10h-3v-16h-76v15h-7v-31h-35v-41h-7v-7h0ZM177.1,458v-5h8v-61h43v22h77.9v-72h-27.9v-7h20v-31h22v-39h7v26h0v23h52l24-23v-15h3v66h-35v143h-4v-27h-75v20h-42v-20h-73ZM578.1,721h-115v-28h-78v7h-100v-193h28v29h54v-29h4v35h77l15,15v106.9h115v57.1h0ZM652.1,486h-24v128h-100v-172h35v22h57v-57h-14v-14.1h85v-15h9v22h67v35h-88v-21h-37v64h10v8h0Z"/>
                </g>
                <g id="Bombsite">
                    <rect class="cls-9" x="63.3" y="170" width="122" height="132.7"/>
                    <rect class="cls-9" x="713" y="235" width="143.7" height="86.5"/>
                    <rect class="cls-7" x="135.7" y="171.5" width="13" height="13.4"/>
                    <polygon class="cls-7" points="114.7 235.9 127.7 235.9 127.7 243.4 132.2 247.9 130.8 249.5 130.7 262.9 117.7 262.9 117.7 252 114 248 114.7 247.2 114.7 235.9"/>
                    <rect class="cls-7" x="735.3" y="264.6" width="13" height="40.8"/>
                    <rect class="cls-7" x="842.2" y="306.4" width="13.2" height="14.2"/>
                    <rect class="cls-7" x="841.9" y="235.4" width="13.3" height="13.3"/>
                    <rect class="cls-7" x="170" y="290.1" width="13.2" height="12.2"/>
                    <rect class="cls-7" x="792.7" y="271" width="13" height="13"/>
                    <rect class="cls-7" x="806.7" y="275" width="13.1" height="13"/>
                </g>
                <g id="Lines">
                    <path class="cls-8" d="M700.8,585.5v13h-11.6v-13h11.6M701.8,584.5h-13.6v15h13.6v-15h0Z"/>
                    <path class="cls-8" d="M687.7,592.5v6h-5.5v-6h5.5M688.7,591.5h-7.5v8h7.5v-8h0Z"/>
                    <path class="cls-8" d="M641.2,543.5v12h-11.6v-12h11.6M642.2,542.5h-13.6v14h13.6v-14h0Z"/>
                    <path class="cls-8" d="M700.8,486.9v6.6h-6.6v-6.6h6.6M701.8,485.9h-8.6v8.6h8.6v-8.6h0Z"/>
                    <path class="cls-8" d="M700.8,486.9v11.6h-11.6v-11.6h11.6M701.8,485.9h-13.6v13.6h13.6v-13.6h0Z"/>
                    <path class="cls-8" d="M855.6,372v26h-26.8v-26h26.8M856.6,371h-28.8v28h28.8v-28h0Z"/>
                    <path class="cls-8" d="M841.9,372v26.5h-13.1v-26.5h13.1M842.9,371h-15.1v28.5h15.1v-28.5h0Z"/>
                    <path class="cls-8" d="M854.8,307v13.1h-12.1v-13.1h12.1M855.8,306h-14.1v15.1h14.1v-15.1h0Z"/>
                    <path class="cls-8" d="M854.8,235.9v12.2h-12.3v-12.2h12.3M855.8,234.9h-14.3v14.2h14.3v-14.2h0Z"/>
                    <path class="cls-8" d="M854.8,214.9v11.1h-13.3v-11.1h13.3M855.8,213.9h-15.3v13.1h15.3v-13.1h0Z"/>
                    <rect class="cls-2" x="806.7" y="275" width="13.1" height="13"/>
                    <rect class="cls-2" x="792.7" y="271" width="13" height="13"/>
                    <path class="cls-8" d="M747.8,265v39.9h-12v-39.9h12M748.8,264h-14v41.9h14v-41.9h0Z"/>
                    <path class="cls-8" d="M661.8,237v11h-29v-11h29M662.8,236h-31v13h31v-13h0Z"/>
                    <path class="cls-8" d="M661.8,249.8v6.2h-7v-6.2h7M662.8,248.8h-9v8.2h9v-8.2h0Z"/>
                    <path class="cls-8" d="M670.4,318.1l5.6,3.7-3.1,4.7-5.6-3.7,3.1-4.7M670.2,316.7l-4.2,6.3,7.3,4.8,4.2-6.3-7.3-4.8h0Z"/>
                    <path class="cls-8" d="M675.1,321.6c1.4,0,2.6,1.2,2.6,2.6s-1.2,2.6-2.6,2.6-2.6-1.2-2.6-2.6,1.2-2.6,2.6-2.6M675.1,320.6c-2,0-3.6,1.6-3.6,3.6s1.6,3.6,3.6,3.6,3.6-1.6,3.6-3.6-1.6-3.6-3.6-3.6h0Z"/>
                    <path class="cls-8" d="M597.8,221v12h-11v-12h11M598.8,220h-13v14h13v-14h0Z"/>
                    <path class="cls-8" d="M484.1,84.2c2.5,0,4.5,2,4.5,4.5s-2,4.5-4.5,4.5-4.5-2-4.5-4.5,2-4.5,4.5-4.5M484.1,83.2c-3,0-5.5,2.4-5.5,5.5s2.4,5.5,5.5,5.5,5.5-2.4,5.5-5.5-2.4-5.5-5.5-5.5h0Z"/>
                    <path class="cls-8" d="M427.2,489.6c2.6,0,4.7,2.1,4.7,4.7s-2.1,4.7-4.7,4.7-4.7-2.1-4.7-4.7,2.1-4.7,4.7-4.7M427.2,488.6c-3.1,0-5.7,2.5-5.7,5.7s2.5,5.7,5.7,5.7,5.7-2.5,5.7-5.7-2.5-5.7-5.7-5.7h0Z"/>
                    <rect class="cls-2" x="420.6" y="528" width="14.1" height="12.6"/>
                    <path class="cls-8" d="M476.2,614.5v12h-11.5v-12h11.5M477.2,613.5h-13.5v14h13.5v-14h0Z"/>
                    <path class="cls-8" d="M615.7,644.6v31.6h-2v-31.6h2M616.7,643.6h-4v33.6h4v-33.6h0Z"/>
                    <path class="cls-8" d="M567.8,794.5v17.6h-23.6v-17.6h23.6M568.8,793.5h-25.6v19.6h25.6v-19.6h0Z"/>
                    <path class="cls-8" d="M354.4,745.7c5.5,0,9.9,4.4,9.9,9.9s-4.4,9.9-9.9,9.9-9.9-4.4-9.9-9.9,4.4-9.9,9.9-9.9M354.4,744.7c-6,0-10.9,4.9-10.9,10.9s4.9,10.9,10.9,10.9,10.9-4.9,10.9-10.9-4.9-10.9-10.9-10.9h0Z"/>
                    <path class="cls-8" d="M289,816.3l6.5,6.5v9.2l-6.5,6.5h-9.2l-6.5-6.5v-9.2l6.5-6.5h9.2M289.4,815.3h-10l-7.1,7.1v10l7.1,7.1h10l7.1-7.1v-10l-7.1-7.1h0Z"/>
                    <path class="cls-8" d="M163.3,513.5v27.9h-25.6v-27.9h25.6M164.3,512.5h-27.6v29.9h27.6v-29.9h0Z"/>
                    <path class="cls-8" d="M219.2,200.5v1h-32v102h32v2H64.2v-2h122v-103h33M220.3,199.5h-35v103H63.2v4h157v-4h-32v-100h32v-3h.1Z"/>
                    <path class="cls-8" d="M184,287.5v13.8h-15.3v-13.8h15.3M185.3,286.3h-17.8v16.3h17.8v-16.3h0Z"/>
                    <path class="cls-8" d="M148.2,171.9v12.4h-12v-12.4h12M149.2,170.9h-14v14.4h14v-14.4h0Z"/>
                    <path class="cls-8" d="M62.2,213.5v45h-3.9v-45h3.9M63.2,212.5h-5.9v47h5.9v-47h0Z"/>
                    <polygon class="cls-2" points="57.2 280 50.7 280 44.8 286.5 44.8 288.5 57.2 288.5 57.2 280"/>
                    <path class="cls-8" d="M127.2,236.5v7.2l.3.3,4.1,4.1-1.1,1.1-.3.3v13h-12v-10.8l-.3-.3-3.3-3.3.3-.3.3-.3v-10.9h12M128.2,235.5h-14v11.5l-1,1,4,4v11.4h14v-13.6l1.8-1.8-4.8-4.8v-7.8h0Z"/>
                    <path class="cls-8" d="M213.7,230.9l6.5,7.9v34.1c0,1.4-1.1,2.5-2.5,2.5h-8c-1.4,0-2.5-1.1-2.5-2.5v-34.1l6.5-7.9M213.7,229.4l-7.5,9.2v34.5c0,1.9,1.6,3.5,3.5,3.5h8c1.9,0,3.5-1.6,3.5-3.5v-34.5h0l-7.5-9.2h0Z"/>
                    <path class="cls-8" d="M297.7,326.2v7.8h-7.8v-1.6c0-3.4,2.8-6.2,6.2-6.2h1.6M298.7,325.2h-2.6c-4,0-7.2,3.2-7.2,7.2v2.6h9.8v-9.8h0Z"/>
                    <rect class="cls-2" x="298.7" y="283.1" width="21.5" height="3"/>
                    <polyline class="cls-2" points="298.8 283.1 285.8 283.1 285.8 233 306.2 233"/>
                    <line class="cls-2" x1="158.8" y1="303" x2="158.8" y2="306"/>
                    <polyline class="cls-2" points="500.8 406.5 500.8 478 463.3 478"/>
                    <polyline class="cls-2" points="462.8 612.1 500.8 612.1 500.8 513 463.3 513"/>
                    <rect class="cls-2" x="528.2" y="614.4" width="13.5" height="12.6"/>
                    <line class="cls-2" x1="663.7" y1="284.5" x2="663.7" y2="327.5"/>
                    <line class="cls-2" x1="626.7" y1="284.5" x2="626.7" y2="327.9"/>
                    <rect class="cls-2" x="503.8" y="407.5" width="12" height="13.5"/>
                    <rect class="cls-2" x="442.6" y="400" width="42.6" height="2.1"/>
                    <rect class="cls-2" x="371.2" y="400" width="41.5" height="2.1"/>
                    <rect class="cls-2" x="392.7" y="402" width="13.1" height="14"/>
                    <rect class="cls-2" x="389.8" y="393" width="14" height="6.9"/>
                    <rect class="cls-2" x="372.2" y="386" width="11.6" height="14"/>
                    <polyline class="cls-2" points="415.7 402 412.7 402 412.7 400 415.7 400"/>
                    <line class="cls-3" x1="417.6" y1="400" x2="438.7" y2="400"/>
                    <polyline class="cls-2" points="439.6 400 442.6 400 442.6 402 439.6 402"/>
                    <line class="cls-3" x1="437.8" y1="402" x2="416.7" y2="402"/>
                    <rect class="cls-8" x="763.6" y="234.1" width="92.2" height=".9"/>
                    <path class="cls-8" d="M173,342.9v13.2h-13.2v-13.2h13.2M174,341.9h-15.2v15.2h15.2v-15.2h0Z"/>
                    <path class="cls-8" d="M173,357.8v5.1h-5.1v-5.1h5.1M174,356.8h-7.1v7.1h7.1v-7.1h0Z"/>
                    <rect class="cls-2" x="328.2" y="301.3" width="39.6" height="11.3"/>
                    <rect class="cls-2" x="477.6" y="285" width="13.6" height="13.6"/>
                    <rect class="cls-2" x="485.2" y="278.9" width="6.1" height="6.1"/>
                    <circle class="cls-2" cx="577.1" cy="341.3" r="5.8"/>
                    <circle class="cls-2" cx="577.1" cy="385.7" r="5.8"/>
                    <rect class="cls-2" x="601.3" y="444.8" width="18" height="17.8"/>
                    <rect class="cls-2" x="593" y="454.3" width="8.3" height="8.3"/>
                    <rect class="cls-2" x="237.2" y="150.6" width="12" height="12"/>
                    <path class="cls-8" d="M883,436c2.1,0,3.9,1.7,3.9,3.9s-1.7,3.9-3.9,3.9-3.9-1.7-3.9-3.9,1.7-3.9,3.9-3.9M883,435c-2.7,0-4.9,2.2-4.9,4.9s2.2,4.9,4.9,4.9,4.9-2.2,4.9-4.9-2.2-4.9-4.9-4.9h0Z"/>
                    <path class="cls-8" d="M700.8,514.3v10h-1v-10h1M701.8,513.3h-3v12h3v-12h0Z"/>
                </g>
                <g id="Outlines">
                    <path class="cls-4" d="M846,434.5h-42.7v-35h53v-207h-150v-88h-106.1v-12h-42.9v13h-8V.5h-128v106h-185v57h13v7H63.3v28h-6v-14H.2v104h57v-14h6v60h186v7h-107v111h7v5h-13v142h106v240h64v109h40l22-26v-7h38v-101h11v-1h152v-20h59v-73h-15v-43h89v-192h-24v-8h142v-14h22v14h46v-43h-42.2ZM763.3,234.5h-50v93h-13v22h-9v-15h-34v-7h21v-49.9l-15-21v-21h-10v-5h16v-5h2v2h92v7.1h0v-.2h0ZM671.2,141.4v54.1h-2v-3h-48v38h17v5h-39v-94.1h72ZM557.3,235.5v35h56v57h21.1v7h-64v58h14.9v14.1h-100v-65h-29v-42h36v-51h-27l-15-15v-11.9l14-14.1h57v-41h-14v-3h42v-21h8v93h0ZM278.2,163.5h35v-22h29v22h135v3h-56v67h-15v10h-3v-16h-76v15h-7v-31h-35v-41h-7v-7h0ZM177.3,457.5v-5h8v-61h43v22h77.9v-72h-27.9v-7h20v-31h22v-39h7v26h0v23h52l24-23v-15h3v66h-35v143h-4v-27h-75v20h-42v-20h-73ZM578.3,720.5h-115v-28h-78v7h-100v-193h28v29h54v-29h4v35h77l15,15v106.9h115v57.1h0ZM652.2,485.5h-24v128h-100v-172h35v22h57v-57h-14v-14.1h85v-15h9v22h67v35h-88v-21h-37v64h10v8h0Z"/>
                </g>
                <g id="callouts_copy">
                    <path class="cls-8" d="M309.9,867.8c0-.2,0-.4.1-.6l2.5-6.8c.3-.7.7-1.1,1.4-1.1s1.2.3,1.5,1.1l2.5,6.8c0,.2.1.4.1.6,0,.5-.4.9-1,.9s-.8-.2-1-.8l-.5-1.5h-3.3l-.5,1.4c-.2.6-.5.9-1,.9s-1-.3-1-.9h.2ZM315.2,864.9l-1.2-3.8h0l-1.2,3.8h2.4Z"/>
                    <path class="cls-8" d="M319.1,863.2h-.4c-.4,0-.7-.3-.7-.7s.3-.7.7-.7h.4v-.8c0-.6.4-1,.9-1s.9.4.9,1v.8h.6c.4,0,.7.3.7.7s-.3.7-.7.7h-.6v3.3c0,.5.2.7.6.7h.1c.5,0,.7.2.7.7s-.5.8-1.3.8h0c-1.2,0-1.9-.6-1.9-1.8v-3.7h0Z"/>
                    <path class="cls-8" d="M323.7,863.2h-.4c-.4,0-.7-.3-.7-.7s.3-.7.7-.7h.4v-.8c0-.6.4-1,.9-1s.9.4.9,1v.8h.6c.4,0,.7.3.7.7s-.3.7-.7.7h-.6v3.3c0,.5.2.7.6.7h.1c.5,0,.7.2.7.7s-.5.8-1.3.8h0c-1.2,0-1.9-.6-1.9-1.8v-3.7h0Z"/>
                    <path class="cls-8" d="M327.5,866.6c0-1.2,1-2,2.6-2.1h1.7v-.5c0-.6-.4-1-1.1-1s-.9.2-1.3.7c-.2.2-.4.3-.7.3-.5,0-.8-.3-.8-.7s0-.3.1-.4c.3-.8,1.4-1.3,2.8-1.3s2.9.9,2.9,2.3v3.9c0,.6-.4.9-.9.9s-.9-.3-.9-.8v-.3h0c-.4.7-1.2,1.2-2.1,1.2-1.3,0-2.3-.8-2.3-2.1h0ZM331.9,866.1v-.5h-1.4c-.7,0-1.1.5-1.1.9s.4.8,1,.8,1.5-.5,1.5-1.2h0Z"/>
                    <path class="cls-8" d="M334.6,865.2c0-2.2,1.3-3.5,3.3-3.5s2.5.7,2.9,1.6c0,.2.1.3.1.5,0,.5-.4.7-.8.7s-.6-.2-.8-.5c-.3-.6-.8-.9-1.3-.9-.9,0-1.5.8-1.5,2.1s.6,2.1,1.5,2.1,1-.3,1.3-.8c.2-.4.5-.5.8-.5s.8.3.8.7,0,.3-.1.5c-.4.9-1.6,1.6-2.9,1.6-2,0-3.4-1.3-3.4-3.5h.1Z"/>
                    <path class="cls-8" d="M342,867.8v-7.5c0-.6.4-1,.9-1s.9.3.9,1v4.2h0l2.5-2.5c.2-.3.5-.4.7-.4.5,0,.8.3.8.8s0,.5-.4.7l-1.7,1.6,1.9,2.4c.2.3.3.4.3.7,0,.5-.4.8-.9.8s-.6,0-.9-.6l-1.8-2.3-.6.5v1.4c0,.6-.4,1-.9,1s-.9-.3-.9-1h0v.2h.1Z"/>
                    <path class="cls-8" d="M348.4,865.2c0-2.2,1.3-3.6,3.3-3.6s3.2,1.3,3.2,3.2-.3.8-.8.8h-3.9c0,1.1.6,1.8,1.5,1.8s1.1-.2,1.6-.8c.2-.2.4-.3.6-.3.4,0,.7.2.7.7s0,.3-.1.5c-.5.8-1.5,1.3-2.8,1.3-2.1,0-3.4-1.3-3.4-3.5h0ZM353.1,864.5c0-.9-.6-1.5-1.4-1.5s-1.4.6-1.5,1.5h2.9Z"/>
                    <path class="cls-8" d="M355.9,867.8v-5.2c0-.6.4-.9.9-.9s.9.3.9.9v.4h0c.2-.8.7-1.3,1.4-1.3s.4,0,.6.2c.2,0,.3.4.3.7s0,.5-.3.7-.4.2-.8.2c-.8,0-1.1.5-1.1,1.3v3c0,.6-.4,1-.9,1s-.9-.3-.9-1h-.1Z"/>
                    <path class="cls-8" d="M363.2,867c0-.2-.1-.3-.1-.5,0-.5.4-.8.8-.8s.6.2.9.6c.3.7,1,1,1.9,1s1.7-.5,1.7-1.2-.4-1-1.6-1.2l-1-.2c-1.8-.4-2.7-1.2-2.7-2.6s1.5-2.8,3.5-2.8,2.9.7,3.4,1.9v.4c0,.5-.3.8-.8.8s-.7-.2-.9-.6c-.3-.7-.9-1-1.7-1s-1.6.4-1.6,1.1.4.9,1.5,1.1l1,.2c1.9.4,2.8,1.2,2.8,2.6s-1.4,2.9-3.7,2.9-3.1-.8-3.5-1.8h.1Z"/>
                    <path class="cls-8" d="M371.4,870v-7.5c0-.6.4-1,.9-1s.9.3.9,1v.4h0c.4-.8,1.1-1.3,2.1-1.3,1.7,0,2.8,1.3,2.8,3.5s-1,3.5-2.8,3.5-1.8-.5-2.1-1.2h0v2.6c0,.6-.4,1-.9,1s-.9-.3-.9-1h0ZM376.2,865.2c0-1.2-.6-2-1.5-2s-1.5.8-1.5,2,.6,2,1.5,2,1.5-.8,1.5-2Z"/>
                    <path class="cls-8" d="M378.8,866.6c0-1.2,1-2,2.6-2.1h1.7v-.5c0-.6-.4-1-1.1-1s-.9.2-1.3.7c-.2.2-.4.3-.7.3-.5,0-.8-.3-.8-.7s0-.3.1-.4c.3-.8,1.4-1.3,2.8-1.3s2.9.9,2.9,2.3v3.9c0,.6-.4.9-.9.9s-.9-.3-.9-.8v-.3h0c-.4.7-1.2,1.2-2.1,1.2-1.3,0-2.3-.8-2.3-2.1h0ZM383.2,866.1v-.5h-1.4c-.7,0-1.1.5-1.1.9s.4.8,1,.8,1.5-.5,1.5-1.2h0Z"/>
                    <path class="cls-8" d="M387.3,867.8l-1.4-4.7c0-.2-.1-.4-.1-.6,0-.5.4-.8.9-.8s.8.3.9.8l1,4.4h0l1-4.3c.1-.5.5-.8,1-.8s.9.3,1,.8l1.1,4.3h0l1-4.4c.1-.5.4-.8.9-.8s.9.3.9.8,0,.3-.1.6l-1.4,4.8c-.2.7-.5,1-1.2,1s-1-.3-1.2-1l-1-4h0l-1,4c-.2.7-.5,1-1.2,1s-1-.3-1.2-1h.1Z"/>
                    <path class="cls-8" d="M396.5,867.8v-5.2c0-.6.3-.9.9-.9s.9.4.9.9v.4h0c.4-.8,1-1.3,2.1-1.3s2.4,1,2.4,2.5v3.5c0,.6-.4,1-.9,1s-.9-.3-.9-1v-3.2c0-.9-.4-1.4-1.2-1.4s-1.4.6-1.4,1.5v3.1c0,.6-.4,1-.9,1s-.9-.3-.9-1h-.1Z"/>
                    <path class="cls-8" d="M190.2,530.4v-5.5c0-.5.3-.8.7-.8h2.3c1.3,0,2.1.7,2.1,1.8s-.6,1.4-1.3,1.5h0c1,0,1.7.8,1.7,1.7s-.9,2-2.4,2h-2.4c-.5,0-.7-.3-.7-.7h0ZM192.8,527.1c.8,0,1.2-.3,1.2-.9s-.4-.9-1.1-.9h-1.2v1.8h1.1ZM193,530.1c.9,0,1.3-.4,1.3-1s-.5-1-1.3-1h-1.2v2h1.3-.1Z"/>
                    <path class="cls-8" d="M198.6,530.4v-5.6c0-.5.3-.8.7-.8s.7.3.7.8v5.2h2.5c.4,0,.7.2.7.6s-.3.6-.7.6h-3.2c-.5,0-.7-.3-.7-.8Z"/>
                    <path class="cls-8" d="M203.6,528.6c0-1.7,1-2.7,2.6-2.7s2.6,1,2.6,2.7-1,2.7-2.6,2.7-2.6-1-2.6-2.7ZM207.4,528.6c0-1-.4-1.6-1.1-1.6s-1.1.6-1.1,1.6.4,1.6,1.1,1.6,1.1-.6,1.1-1.6Z"/>
                    <path class="cls-8" d="M209.6,530.6v-5.8c0-.5.3-.8.7-.8s.7.3.7.8v2.1h0c.3-.6.9-1,1.6-1,1.3,0,2.1,1,2.1,2.7s-.8,2.7-2.1,2.7-1.4-.4-1.6-1h0v.3c0,.5-.3.7-.7.7s-.7-.2-.7-.7h0ZM213.3,528.6c0-1-.4-1.6-1.1-1.6s-1.2.6-1.2,1.6.5,1.5,1.2,1.5,1.1-.6,1.1-1.5Z"/>
                    <path class="cls-8" d="M215.6,530.6v-5.8c0-.5.3-.8.7-.8s.7.3.7.8v2.1h0c.3-.6.9-1,1.6-1,1.3,0,2.1,1,2.1,2.7s-.8,2.7-2.1,2.7-1.4-.4-1.6-1h0v.3c0,.5-.3.7-.7.7s-.7-.2-.7-.7h0ZM219.3,528.6c0-1-.4-1.6-1.1-1.6s-1.2.6-1.2,1.6.5,1.5,1.2,1.5,1.1-.6,1.1-1.5Z"/>
                    <path class="cls-8" d="M221.3,532.5c0-.3.2-.5.5-.5h.2c.2,0,.5,0,.7-.5v-.2l-1.6-4.4v-.4c0-.4.3-.7.7-.7s.6.2.7.6l1.1,3.6h0l1.1-3.6c.1-.4.3-.6.7-.6s.7.3.7.6v.4l-1.6,4.4c-.5,1.3-1.1,1.8-2.2,1.8s-1-.2-1-.7h0v.2h0Z"/>
                    <path class="cls-8" d="M327.1,497.4v-5.1h-1.5c-.4,0-.7-.2-.7-.6s.3-.6.7-.6h4.4c.4,0,.7.2.7.6s-.3.6-.7.6h-1.5v5.1c0,.5-.3.8-.7.8s-.7-.3-.7-.8h0Z"/>
                    <path class="cls-8" d="M331.1,491.5c0-.4.3-.7.8-.7s.8.3.8.7-.3.7-.8.7-.8-.3-.8-.7ZM331.1,497.5v-4c0-.5.3-.8.7-.8s.7.3.7.8v4c0,.5-.3.7-.7.7s-.7-.3-.7-.7Z"/>
                    <path class="cls-8" d="M333.5,497.5v-5.8c0-.5.3-.8.7-.8s.7.3.7.8v5.8c0,.5-.3.7-.7.7s-.7-.2-.7-.7Z"/>
                    <path class="cls-8" d="M335.7,495.5c0-1.7,1-2.8,2.5-2.8s2.5,1,2.5,2.4-.2.6-.6.6h-3c0,.8.5,1.3,1.2,1.3s.9-.2,1.2-.6c.1-.2.3-.2.5-.2.3,0,.6.2.6.5s0,.2-.1.4c-.4.6-1.2,1-2.2,1-1.6,0-2.6-1-2.6-2.7h0ZM339.4,494.9c0-.7-.5-1.1-1.1-1.1s-1.1.5-1.1,1.1h2.2Z"/>
                    <path class="cls-8" d="M341.3,497.2v-.3c0-.3.2-.5.6-.5s.4.1.6.3c.3.4.6.5,1.1.5s.9-.2.9-.6-.2-.4-.7-.5l-.9-.2c-1-.2-1.5-.7-1.5-1.5s.9-1.6,2.2-1.6,1.9.5,2,1.1v.2c0,.3-.2.5-.5.5s-.4,0-.5-.2c-.2-.3-.5-.6-1-.6s-.8.2-.8.6.2.5.7.6l.9.2c1.1.2,1.6.6,1.6,1.4s-.9,1.7-2.3,1.7-2-.4-2.2-1h-.2Z"/>
                    <path class="cls-8" d="M422.1,472.4v-5.6c0-.6.4-1,1-1s.8.2,1,.8l1.8,4.3h0l1.7-4.3c.2-.5.5-.8,1-.8s1,.4,1,1v5.6c0,.4-.2.7-.7.7s-.6-.2-.6-.7v-4.2h0l-1.7,4.3c-.1.3-.3.5-.6.5s-.5-.1-.6-.4l-1.7-4.3h0v4.2c0,.4-.2.7-.6.7s-.7-.2-.7-.7h-.3,0Z"/>
                    <path class="cls-8" d="M430.6,466.3c0-.4.3-.7.8-.7s.8.3.8.7-.3.7-.8.7-.8-.3-.8-.7ZM430.6,472.3v-4c0-.5.3-.8.7-.8s.7.3.7.8v4c0,.5-.3.7-.7.7s-.7-.3-.7-.7Z"/>
                    <path class="cls-8" d="M432.8,470.3c0-1.7.8-2.7,2.1-2.7s1.3.4,1.6,1h0v-2.1c0-.5.3-.8.7-.8s.7.3.7.8v5.8c0,.5-.3.7-.7.7s-.7-.2-.7-.7v-.3h0c-.2.6-.8,1-1.6,1-1.3,0-2.1-1-2.1-2.7h0ZM436.6,470.3c0-1-.5-1.6-1.2-1.6s-1.2.6-1.2,1.6.4,1.5,1.2,1.5,1.2-.6,1.2-1.5Z"/>
                    <path class="cls-8" d="M402.5,373.7v-5.5c0-.5.3-.8.7-.8h2.3c1.3,0,2.1.7,2.1,1.8s-.6,1.4-1.3,1.5h0c1,.1,1.7.8,1.7,1.7s-.9,2-2.4,2h-2.4c-.5,0-.7-.3-.7-.7h0ZM405,370.4c.8,0,1.2-.4,1.2-.9s-.4-.9-1.1-.9h-1.2v1.8h1.1ZM405.2,373.4c.9,0,1.3-.4,1.3-1s-.5-1-1.3-1h-1.2v2h1.2Z"/>
                    <path class="cls-8" d="M408.5,371.9c0-1.7,1-2.7,2.6-2.7s2.6,1,2.6,2.7-1,2.7-2.6,2.7-2.6-1-2.6-2.7ZM412.3,371.9c0-1-.5-1.6-1.1-1.6s-1.1.6-1.1,1.6.4,1.6,1.1,1.6,1.1-.6,1.1-1.6Z"/>
                    <path class="cls-8" d="M414.9,370.3h-.3c-.3,0-.5-.2-.5-.5s.2-.5.5-.5h.3v-.6c0-.5.3-.7.7-.7s.7.3.7.7v.6h.5c.3,0,.5.2.5.5s-.2.5-.5.5h-.5v2.5c0,.4.1.5.4.5h0c.4,0,.5.2.5.5s-.4.6-1,.6h0c-1,0-1.4-.5-1.4-1.4v-2.7h0Z"/>
                    <path class="cls-8" d="M418.4,370.3h-.3c-.3,0-.5-.2-.5-.5s.2-.5.5-.5h.3v-.6c0-.5.3-.7.7-.7s.7.3.7.7v.6h.5c.3,0,.5.2.5.5s-.2.5-.5.5h-.5v2.5c0,.4.1.5.4.5h0c.4,0,.5.2.5.5s-.4.6-1,.6h0c-1,0-1.4-.5-1.4-1.4v-2.7h0Z"/>
                    <path class="cls-8" d="M421.3,371.9c0-1.7,1-2.7,2.6-2.7s2.6,1,2.6,2.7-1,2.7-2.6,2.7-2.6-1-2.6-2.7ZM425,371.9c0-1-.5-1.6-1.1-1.6s-1.1.6-1.1,1.6.4,1.6,1.1,1.6,1.1-.6,1.1-1.6Z"/>
                    <path class="cls-8" d="M427.2,373.9v-4c0-.5.3-.7.7-.7s.7.2.7.7v.3h0c.2-.6.8-1,1.5-1s1.3.4,1.5,1.1h0c.2-.7.9-1.1,1.6-1.1s1.7.7,1.7,1.8v2.9c0,.5-.3.7-.7.7s-.7-.3-.7-.7v-2.6c0-.6-.3-.9-.9-.9s-.9.4-.9,1v2.5c0,.5-.3.7-.7.7s-.7-.3-.7-.7v-2.6c0-.6-.3-.9-.8-.9s-.9.4-.9,1v2.5c0,.5-.3.7-.7.7s-.7-.3-.7-.7h0Z"/>
                    <path class="cls-8" d="M438,373.9v-5.6c0-.6.4-1,1-1s.8.2,1,.8l1.8,4.3h0l1.7-4.3c.2-.5.5-.8,1-.8s1,.4,1,1v5.6c0,.4-.2.7-.7.7s-.6-.2-.6-.7v-4.2h0l-1.7,4.3c-.1.3-.3.5-.6.5s-.5-.1-.6-.4l-1.7-4.3h0v4.2c0,.4-.2.7-.6.7s-.7-.2-.7-.7h-.3Z"/>
                    <path class="cls-8" d="M446.5,367.9c0-.4.3-.7.8-.7s.8.3.8.7-.3.7-.8.7-.8-.3-.8-.7ZM446.5,373.9v-4c0-.5.3-.8.7-.8s.7.3.7.8v4c0,.5-.3.7-.7.7s-.7-.3-.7-.7Z"/>
                    <path class="cls-8" d="M448.7,371.9c0-1.7.8-2.7,2.1-2.7s1.3.4,1.6,1h0v-2.1c0-.5.3-.8.7-.8s.7.3.7.8v5.8c0,.5-.3.7-.7.7s-.7-.2-.7-.7v-.3h0c-.2.6-.8,1-1.6,1-1.3,0-2.1-1-2.1-2.7h0ZM452.5,371.9c0-1-.5-1.6-1.2-1.6s-1.2.6-1.2,1.6.4,1.5,1.2,1.5,1.2-.6,1.2-1.5Z"/>
                    <path class="cls-8" d="M462.1,275.2v-5.6c0-.5.3-.8.7-.8h2.1c1.5,0,2.4,1,2.4,2.4s-1,2.4-2.5,2.4h-1.3v1.5c0,.5-.3.8-.7.8s-.7-.3-.7-.8h0ZM464.5,272.5c.8,0,1.3-.5,1.3-1.2s-.5-1.2-1.3-1.2h-1v2.5h1Z"/>
                    <path class="cls-8" d="M468.1,269.3c0-.4.3-.7.8-.7s.8.3.8.7-.3.7-.8.7-.8-.3-.8-.7ZM468.1,275.2v-4c0-.5.3-.8.7-.8s.7.3.7.8v4c0,.5-.3.7-.7.7s-.7-.3-.7-.7Z"/>
                    <path class="cls-8" d="M470.4,275.3c0-.2,0-.3.2-.5l2.4-3.1h-2.1c-.4,0-.6-.2-.6-.5s.2-.5.6-.5h3c.4,0,.7.2.7.6s0,.4-.2.6l-2.2,2.9h2c.4,0,.6.2.6.5s-.2.5-.6.5h-3.2c-.4,0-.6-.2-.6-.6h0Z"/>
                    <path class="cls-8" d="M475.5,275.3c0-.2,0-.3.2-.5l2.4-3.1h-2.1c-.4,0-.6-.2-.6-.5s.2-.5.6-.5h3c.4,0,.7.2.7.6s0,.4-.2.6l-2.2,2.9h2c.4,0,.6.2.6.5s-.2.5-.6.5h-3.2c-.4,0-.6-.2-.6-.6h0Z"/>
                    <path class="cls-8" d="M480.4,274.4c0-1,.7-1.5,2-1.6h1.3v-.4c0-.5-.3-.8-.9-.8s-.7.1-1,.5c-.2.2-.3.3-.6.3s-.6-.2-.6-.5v-.3c.2-.6,1.1-1,2.2-1s2.2.7,2.2,1.8v3c0,.5-.3.7-.7.7s-.6-.2-.7-.6v-.3h0c-.3.6-1,.9-1.6.9-1,0-1.8-.6-1.8-1.6h.2ZM483.8,274v-.4h-1.1c-.5.1-.8.4-.8.7s.3.6.8.6,1.1-.4,1.1-.9h0Z"/>
                    <path class="cls-8" d="M348.9,271v-5.6c0-.6.4-1,1-1s.8.2,1,.8l1.8,4.3h0l1.7-4.3c.2-.5.5-.8,1-.8s1,.4,1,1v5.6c0,.4-.2.7-.7.7s-.6-.2-.6-.7v-4.2h0l-1.7,4.3c-.1.3-.3.5-.6.5s-.5-.1-.6-.4l-1.7-4.3h0v4.2c0,.4-.2.7-.6.7s-.7-.2-.7-.7h-.3,0Z"/>
                    <path class="cls-8" d="M357,270.1c0-1,.7-1.5,2-1.6h1.3v-.4c0-.5-.3-.8-.9-.8s-.7.1-1,.5c-.2.2-.3.3-.6.3s-.6-.2-.6-.5v-.3c.2-.6,1.1-1,2.2-1s2.2.7,2.2,1.8v3c0,.5-.3.7-.7.7s-.6-.2-.7-.6v-.3h0c-.3.6-1,.9-1.6.9-1,0-1.8-.6-1.8-1.6h.2ZM360.4,269.7v-.4h-1.1c-.5.1-.8.4-.8.7s.3.6.8.6,1.1-.4,1.1-.9h0Z"/>
                    <path class="cls-8" d="M362.7,271v-4c0-.5.3-.7.7-.7s.7.3.7.7v.3h0c.1-.6.6-1,1.1-1s.3,0,.4.1.2.3.2.5,0,.4-.2.5-.3.2-.6.2c-.6,0-.9.4-.9,1v2.3c0,.5-.3.7-.7.7s-.7-.3-.7-.7h0Z"/>
                    <path class="cls-8" d="M366.4,271v-5.8c0-.5.3-.8.7-.8s.7.3.7.8v3.2h0l1.9-1.9c.2-.2.4-.3.6-.3.4,0,.6.3.6.6s0,.4-.3.5l-1.3,1.3,1.5,1.9c.2.2.2.3.2.5,0,.4-.3.6-.7.6s-.5-.1-.7-.4l-1.3-1.8-.5.4v1.1c0,.5-.3.7-.7.7s-.7-.2-.7-.6h0Z"/>
                    <path class="cls-8" d="M371.3,269c0-1.7,1-2.8,2.5-2.8s2.5,1,2.5,2.4-.2.6-.6.6h-3c0,.8.5,1.3,1.2,1.3s.9-.2,1.2-.6c.1-.2.3-.2.5-.2.3,0,.6.2.6.5s0,.2-.1.4c-.4.6-1.2,1-2.2,1-1.6,0-2.6-1-2.6-2.7h0ZM375,268.4c0-.7-.5-1.1-1.1-1.1s-1.1.5-1.1,1.1h2.2Z"/>
                    <path class="cls-8" d="M377.4,267.5h-.3c-.3,0-.5-.2-.5-.5s.2-.5.5-.5h.3v-.6c0-.5.3-.7.7-.7s.7.3.7.7v.6h.5c.3,0,.5.2.5.5s-.2.5-.5.5h-.5v2.5c0,.4.1.5.4.5h0c.4,0,.5.2.5.5s-.4.6-1,.6h0c-1,0-1.4-.5-1.4-1.4v-2.7h0Z"/>
                    <path class="cls-8" d="M199.7,372.1v-5.5c0-.5.3-.8.7-.8h2.3c1.3,0,2.1.7,2.1,1.8s-.6,1.4-1.3,1.5h0c1,.1,1.7.8,1.7,1.7s-.9,2-2.4,2h-2.4c-.5,0-.7-.3-.7-.7h0ZM202.2,368.7c.8,0,1.2-.4,1.2-.9s-.4-.9-1.1-.9h-1.2v1.8h1.1ZM202.5,371.8c.9,0,1.3-.4,1.3-1s-.5-1-1.3-1h-1.2v2h1.3-.1Z"/>
                    <path class="cls-8" d="M208.1,372.2v-5.6c0-.6.4-1,.9-1s.8.2,1,.8l1.8,4.3h0l1.7-4.3c.2-.5.5-.8,1-.8s.9.4.9,1v5.6c0,.4-.2.7-.7.7s-.6-.2-.6-.7v-4.2h0l-1.7,4.3c-.1.3-.3.5-.6.5s-.5-.1-.6-.4l-1.7-4.3h0v4.2c0,.4-.2.7-.6.7s-.7-.2-.7-.7h0Z"/>
                    <path class="cls-8" d="M216.3,371.4c0-1,.7-1.5,2-1.6h1.3v-.4c0-.5-.3-.8-.9-.8s-.7.1-1,.5c-.2.2-.3.3-.6.3s-.6-.2-.6-.5v-.3c.2-.6,1.1-1,2.2-1s2.2.7,2.2,1.8v3c0,.5-.3.7-.7.7s-.6-.2-.7-.6v-.3h0c-.3.6-.9.9-1.6.9-1,0-1.8-.6-1.8-1.6h.2ZM219.6,370.9v-.4h-1.1c-.5.1-.8.4-.8.7s.3.6.8.6,1.1-.4,1.1-.9h0Z"/>
                    <path class="cls-8" d="M221.9,366.2c0-.4.3-.7.8-.7s.8.3.8.7-.3.7-.8.7-.8-.3-.8-.7ZM222,372.2v-4c0-.5.3-.8.7-.8s.7.3.7.8v4c0,.5-.3.7-.7.7s-.7-.3-.7-.7Z"/>
                    <path class="cls-8" d="M224.4,372.2v-4c0-.4.3-.7.7-.7s.7.3.7.7v.3h0c.3-.6.8-1,1.6-1,1.2,0,1.8.7,1.8,2v2.7c0,.5-.3.7-.7.7s-.7-.2-.7-.7v-2.4c0-.7-.3-1.1-1-1.1s-1,.5-1,1.1v2.4c0,.5-.3.7-.7.7s-.7-.2-.7-.7h0Z"/>
                    <path class="cls-8" d="M4,237.5v-5.5c0-.5.3-.8.7-.8h2.3c1.3,0,2.1.7,2.1,1.8s-.6,1.4-1.3,1.5h0c1,.1,1.7.8,1.7,1.7s-.9,2-2.4,2h-2.4c-.5,0-.7-.3-.7-.8h0ZM6.5,234.1c.8,0,1.2-.4,1.2-.9s-.4-.9-1.1-.9h-1.2v1.8h1.1ZM6.8,237.1c.8,0,1.3-.4,1.3-1s-.5-1-1.3-1h-1.2v2.1h1.3,0Z"/>
                    <path class="cls-8" d="M10.1,235.6c0-1.7,1-2.7,2.6-2.7s2.6,1,2.6,2.7-1,2.7-2.6,2.7-2.6-1-2.6-2.7ZM13.8,235.6c0-1-.4-1.6-1.1-1.6s-1.1.6-1.1,1.6.4,1.6,1.1,1.6,1.1-.6,1.1-1.6Z"/>
                    <path class="cls-8" d="M15.8,236.7c0-.9.7-1.5,2-1.6h1.3v-.4c0-.5-.3-.8-.9-.8s-.7.1-1,.6c-.2.2-.3.3-.6.3s-.6-.2-.6-.6,0-.2,0-.3c.2-.6,1.1-1,2.2-1s2.2.7,2.2,1.8v3c0,.5-.3.7-.7.7s-.6-.2-.7-.6v-.3h0c-.3.6-1,.9-1.6.9-1,0-1.8-.6-1.8-1.6h.2ZM19.2,236.3v-.4h-1.1c-.5.1-.8.4-.8.7s.3.6.8.6,1.1-.4,1.1-.9h0Z"/>
                    <path class="cls-8" d="M21.9,234.1h-.3c-.3,0-.5-.2-.5-.5s.2-.5.5-.5h.3v-.6c0-.5.3-.7.7-.7s.7.3.7.7v.6h.5c.3,0,.5.2.5.5s-.2.5-.5.5h-.5v2.5c0,.4.1.5.4.6h0c.4,0,.5.2.5.5s-.4.6-1,.6h0c-1,0-1.4-.5-1.4-1.4v-2.8h0Z"/>
                    <path class="cls-8" d="M27.1,237.6v-5.7c0-.5.3-.8.7-.8s.7.3.7.8v2.2h3.2v-2.2c0-.5.3-.8.7-.8s.7.3.7.8v5.7c0,.5-.3.8-.7.8s-.7-.3-.7-.8v-2.3h-3.2v2.3c0,.5-.3.8-.7.8s-.7-.3-.7-.8Z"/>
                    <path class="cls-8" d="M34.1,235.6c0-1.7,1-2.7,2.6-2.7s2.6,1,2.6,2.7-1,2.7-2.6,2.7-2.6-1-2.6-2.7ZM37.9,235.6c0-1-.5-1.6-1.1-1.6s-1.2.6-1.2,1.6.4,1.6,1.2,1.6,1.1-.6,1.1-1.6Z"/>
                    <path class="cls-8" d="M40,236.4v-2.7c0-.5.3-.8.7-.8s.7.3.7.8v2.4c0,.7.3,1.1,1,1.1s1-.4,1-1.1v-2.4c0-.5.3-.8.7-.8s.7.3.7.8v4c0,.5-.3.7-.7.7s-.7-.2-.7-.7v-.3h0c-.3.7-.8,1-1.6,1s-1.9-.7-1.8-2h0Z"/>
                    <path class="cls-8" d="M45.7,237.3v-.3c0-.3.2-.6.6-.6s.4.1.6.3c.3.4.6.5,1.1.5s.8-.2.8-.6-.2-.4-.7-.6l-.9-.2c-1-.2-1.5-.7-1.5-1.5s.9-1.6,2.2-1.6,1.9.5,2,1.1v.2c0,.3-.2.5-.5.5s-.4,0-.5-.2c-.2-.3-.5-.6-1-.6s-.8.2-.8.6.2.4.7.6l.9.2c1.1.2,1.6.6,1.6,1.4s-.9,1.7-2.3,1.7-2-.4-2.2-1h0Z"/>
                    <path class="cls-8" d="M50.8,235.6c0-1.7,1-2.8,2.5-2.8s2.5,1,2.5,2.4-.2.6-.6.6h-3c0,.8.5,1.3,1.2,1.3s.9-.2,1.2-.6c.2-.2.3-.2.5-.2.3,0,.6.2.6.5v.4c-.3.6-1.2,1-2.2,1-1.6,0-2.6-1-2.6-2.7h-.1ZM54.4,235.1c0-.7-.5-1.1-1.1-1.1s-1.1.5-1.1,1.1c0,0,2.2,0,2.2,0Z"/>
                    <path class="cls-8" d="M438.6,38.3v-7.2c0-.6.4-1,1-1h2.5c2.8,0,4.4,1.6,4.4,4.5s-1.6,4.6-4.4,4.6h-2.5c-.6,0-1-.4-1-1h0ZM441.9,37.8c1.7,0,2.6-1,2.6-3s-1-3-2.6-3h-1.4v6h1.4Z"/>
                    <path class="cls-8" d="M447.3,36c0-2.2,1.3-3.6,3.3-3.6s3.2,1.3,3.2,3.2-.3.8-.8.8h-3.9c0,1.1.6,1.8,1.5,1.8s1.1-.2,1.6-.8c.2-.2.4-.3.6-.3.4,0,.7.2.7.7s0,.3-.1.5c-.5.8-1.5,1.3-2.8,1.3-2.1,0-3.4-1.3-3.4-3.5h0ZM452,35.2c0-.9-.6-1.5-1.4-1.5s-1.4.6-1.5,1.5h2.9Z"/>
                    <path class="cls-8" d="M455.3,38.5v-4.6h-.4c-.4,0-.7-.2-.7-.7s.3-.7.7-.7h.4v-.5c0-1.4.7-1.9,1.9-2,1,0,1.4.3,1.4.8s-.1.4-.4.5h-.4c-.6,0-.8.2-.8.8v.4h.8c.4,0,.7.2.7.7s-.3.7-.7.7h-.7v4.6c0,.6-.4,1-.9,1s-.9-.3-.9-1h0Z"/>
                    <path class="cls-8" d="M459,36c0-2.2,1.3-3.6,3.3-3.6s3.2,1.3,3.2,3.2-.3.8-.8.8h-3.9c0,1.1.6,1.8,1.5,1.8s1.1-.2,1.6-.8c.2-.2.4-.3.6-.3.4,0,.7.2.7.7s0,.3-.1.5c-.5.8-1.5,1.3-2.8,1.3-2.1,0-3.4-1.3-3.4-3.5h0ZM463.7,35.2c0-.9-.6-1.5-1.4-1.5s-1.4.6-1.5,1.5h2.9Z"/>
                    <path class="cls-8" d="M466.4,38.5v-5.2c0-.6.3-.9.9-.9s.9.4.9.9v.4h0c.4-.8,1-1.3,2.1-1.3s2.4,1,2.4,2.5v3.5c0,.6-.4,1-.9,1s-.9-.3-.9-1v-3.2c0-.9-.4-1.4-1.2-1.4s-1.4.6-1.4,1.5v3.1c0,.6-.4,1-.9,1s-.9-.3-.9-1h-.1Z"/>
                    <path class="cls-8" d="M473.7,35.9c0-2.2,1.1-3.5,2.8-3.5s1.8.5,2.1,1.3h0v-2.7c0-.6.4-1,.9-1s.9.3.9,1v7.5c0,.6-.4.9-.9.9s-.9-.3-.9-.9v-.4h0c-.3.8-1,1.3-2.1,1.3-1.7,0-2.8-1.3-2.8-3.5h0ZM478.6,35.9c0-1.2-.6-2-1.5-2s-1.5.8-1.5,2,.6,2,1.5,2,1.5-.8,1.5-2Z"/>
                    <path class="cls-8" d="M481.4,36c0-2.2,1.3-3.6,3.3-3.6s3.2,1.3,3.2,3.2-.3.8-.8.8h-3.9c0,1.1.6,1.8,1.5,1.8s1.1-.2,1.6-.8c.2-.2.4-.3.6-.3.4,0,.7.2.7.7s0,.3-.1.5c-.5.8-1.5,1.3-2.8,1.3-2.1,0-3.4-1.3-3.4-3.5h0ZM486.1,35.2c0-.9-.6-1.5-1.4-1.5s-1.4.6-1.5,1.5h2.9Z"/>
                    <path class="cls-8" d="M488.9,38.5v-5.2c0-.6.4-.9.9-.9s.9.3.9.9v.4h0c.2-.8.7-1.3,1.4-1.3s.4,0,.6.2c.2,0,.3.4.3.7s0,.5-.3.7-.4.2-.8.2c-.8,0-1.1.5-1.1,1.3v3c0,.6-.4,1-.9,1s-.9-.3-.9-1-.1,0-.1,0Z"/>
                    <path class="cls-8" d="M496.2,37.7c0-.2-.1-.3-.1-.5,0-.5.4-.8.8-.8s.6.2.9.6c.3.7,1,1,1.9,1s1.7-.5,1.7-1.2-.4-1-1.6-1.2l-1-.2c-1.8-.4-2.7-1.2-2.7-2.6s1.5-2.8,3.5-2.8,2.9.7,3.3,1.9v.4c0,.5-.3.8-.8.8s-.7-.2-.9-.6c-.3-.7-.9-1-1.7-1s-1.6.4-1.6,1.1.4.9,1.5,1.1l1,.2c1.9.4,2.8,1.2,2.8,2.6s-1.4,2.9-3.7,2.9-3.1-.8-3.5-1.8h.2Z"/>
                    <path class="cls-8" d="M504.4,40.8v-7.5c0-.6.4-1,.9-1s.9.3.9,1v.4h0c.4-.8,1.1-1.3,2.1-1.3,1.7,0,2.8,1.3,2.8,3.5s-1,3.5-2.8,3.5-1.8-.5-2.1-1.2h0v2.6c0,.6-.4,1-.9,1s-.9-.3-.9-1h0ZM509.2,35.9c0-1.2-.6-2-1.5-2s-1.5.8-1.5,2,.6,2,1.5,2,1.5-.8,1.5-2Z"/>
                    <path class="cls-8" d="M511.8,37.4c0-1.2.9-2,2.6-2.1h1.7v-.5c0-.6-.4-1-1.1-1s-.9.2-1.3.7c-.2.2-.4.3-.7.3-.5,0-.8-.3-.8-.7v-.4c.3-.8,1.4-1.3,2.8-1.3s2.9.9,2.9,2.3v3.9c0,.6-.4.9-.9.9s-.8-.3-.9-.8v-.3h0c-.4.7-1.2,1.2-2.1,1.2-1.3,0-2.3-.8-2.3-2.1h0ZM516.2,36.8v-.5h-1.4c-.7,0-1.1.5-1.1.9s.4.8,1,.8,1.5-.5,1.5-1.2h0Z"/>
                    <path class="cls-8" d="M520.3,38.5l-1.4-4.7v-.6c0-.5.4-.8.9-.8s.8.3.9.8l1,4.4h0l1-4.3c0-.5.5-.8,1-.8s.9.3,1,.8l1.1,4.3h0l1-4.4c0-.5.4-.8.9-.8s.9.3.9.8v.6l-1.4,4.8c-.2.7-.5,1-1.2,1s-1-.3-1.2-1l-1-4h0l-1,4c-.2.7-.5,1-1.2,1s-1-.3-1.3-1.1h0Z"/>
                    <path class="cls-8" d="M529.5,38.5v-5.2c0-.6.3-.9.9-.9s.9.4.9.9v.4h0c.4-.8,1-1.3,2.1-1.3s2.4,1,2.4,2.5v3.5c0,.6-.4,1-.9,1s-.9-.3-.9-1v-3.2c0-.9-.4-1.4-1.2-1.4s-1.4.6-1.4,1.5v3.1c0,.6-.4,1-.9,1s-.9-.3-.9-1h0Z"/>
                    <path class="cls-8" d="M720.7,459v-.5l1.9-5.2c.2-.6.5-.8,1.1-.8s.9.2,1.1.8l1.9,5.2v.5c0,.4-.3.7-.7.7s-.6-.2-.8-.6l-.4-1.1h-2.5l-.4,1.1c0,.5-.4.7-.8.7s-.8-.3-.8-.7h.4ZM724.8,456.8l-.9-2.9h0l-.9,2.9h1.8Z"/>
                    <path class="cls-8" d="M729.8,459v-5.6c0-.6.3-1,1-1s.8.2,1,.8l1.8,4.3h0l1.7-4.3c.2-.5.5-.8,1-.8s1,.4,1,1v5.6c0,.4-.2.7-.7.7s-.7-.2-.7-.7v-4.2h0l-1.7,4.3c0,.3-.3.5-.6.5s-.5-.1-.6-.4l-1.7-4.3h0v4.2c0,.4-.2.7-.7.7s-.7-.2-.7-.7h0Z"/>
                    <path class="cls-8" d="M738,458.1c0-1,.7-1.5,2-1.6h1.3v-.4c0-.5-.3-.8-.9-.8s-.7.1-1,.5c-.2.2-.3.3-.6.3s-.6-.2-.6-.5v-.3c.2-.6,1.1-1,2.2-1s2.2.7,2.2,1.8v3c0,.5-.3.7-.7.7s-.7-.2-.7-.6v-.3h0c-.3.6-1,.9-1.6.9-1,0-1.8-.6-1.8-1.6h.2,0ZM741.4,457.7v-.4h-1.1c-.5.1-.8.4-.8.7s.3.6.8.6,1.1-.4,1.1-.9h0Z"/>
                    <path class="cls-8" d="M743.7,453c0-.4.3-.7.8-.7s.8.3.8.7-.3.7-.8.7-.8-.3-.8-.7ZM743.7,459v-4c0-.5.3-.8.7-.8s.7.3.7.8v4c0,.5-.3.7-.7.7s-.7-.3-.7-.7Z"/>
                    <path class="cls-8" d="M746.1,459v-4c0-.4.3-.7.7-.7s.7.3.7.7v.3h0c.3-.6.8-1,1.6-1,1.2,0,1.8.7,1.8,2v2.7c0,.5-.3.7-.7.7s-.7-.2-.7-.7v-2.4c0-.7-.3-1.1-1-1.1s-1,.5-1,1.1v2.4c0,.5-.3.7-.7.7s-.7-.2-.7-.7h0Z"/>
                    <path class="cls-8" d="M629,364.4v-5.1h-1.5c-.4,0-.7-.2-.7-.6s.3-.6.7-.6h4.4c.4,0,.7.2.7.6s-.3.6-.7.6h-1.5v5.1c0,.5-.3.8-.7.8s-.7-.3-.7-.8h0Z"/>
                    <path class="cls-8" d="M632.5,364.4v-4c0-.5.3-.7.7-.7s.7.3.7.7v.3h0c0-.6.6-1,1.1-1s.3,0,.4.1c0,.1.2.3.2.5s0,.4-.2.5-.3.2-.6.2c-.7,0-.9.4-.9,1v2.3c0,.5-.3.7-.7.7s-.7-.3-.7-.7h0Z"/>
                    <path class="cls-8" d="M635.8,362.5c0-1.7,1-2.8,2.5-2.8s2.5,1,2.5,2.4-.2.6-.6.6h-3c0,.8.5,1.3,1.2,1.3s.9-.2,1.2-.6c.2-.2.3-.2.5-.2.3,0,.6.2.6.5v.4c-.3.6-1.2,1-2.2,1-1.6,0-2.6-1-2.6-2.7h-.1ZM639.5,361.9c0-.7-.5-1.1-1.1-1.1s-1.1.5-1.1,1.1h2.2Z"/>
                    <path class="cls-8" d="M641.4,362.5c0-1.7,1-2.8,2.5-2.8s2.5,1,2.5,2.4-.2.6-.6.6h-3c0,.8.5,1.3,1.2,1.3s.9-.2,1.2-.6c.2-.2.3-.2.5-.2.3,0,.6.2.6.5v.4c-.3.6-1.2,1-2.2,1-1.6,0-2.6-1-2.6-2.7h-.1ZM645,361.9c0-.7-.5-1.1-1.1-1.1s-1.1.5-1.1,1.1h2.2Z"/>
                    <path class="cls-8" d="M644.6,523.2v-.5l1.9-5.2c.2-.6.5-.8,1.1-.8s.9.2,1.1.8l1.9,5.2v.5c0,.4-.3.7-.7.7s-.6-.2-.8-.7l-.4-1.1h-2.5l-.4,1.1c0,.5-.4.7-.8.7s-.8-.3-.8-.7h.4ZM648.6,521l-.9-2.9h0l-.9,2.9h1.8Z"/>
                    <path class="cls-8" d="M653.7,523v-5.6c0-.5.3-.8.7-.8s.7.3.7.8v5.2h2.5c.4,0,.7.2.7.6s-.3.6-.7.6h-3.2c-.5,0-.7-.3-.7-.8Z"/>
                    <path class="cls-8" d="M658.8,521.2c0-1.7,1-2.7,2.6-2.7s2.6,1,2.6,2.7-1,2.7-2.6,2.7-2.6-1-2.6-2.7ZM662.5,521.2c0-1-.5-1.6-1.1-1.6s-1.2.6-1.2,1.6.4,1.6,1.2,1.6,1.1-.6,1.1-1.6Z"/>
                    <path class="cls-8" d="M664.7,523.2v-5.8c0-.5.3-.8.7-.8s.7.3.7.8v2.1h0c.3-.6.9-1,1.6-1,1.3,0,2.1,1,2.1,2.7s-.8,2.7-2.1,2.7-1.3-.4-1.6-1h0v.3c0,.5-.3.7-.7.7s-.7-.2-.7-.7h0ZM668.5,521.2c0-1-.4-1.6-1.2-1.6s-1.2.6-1.2,1.6.5,1.5,1.2,1.5,1.2-.6,1.2-1.5Z"/>
                    <path class="cls-8" d="M670.7,523.2v-5.8c0-.5.3-.8.7-.8s.7.3.7.8v2.1h0c.3-.6.9-1,1.6-1,1.3,0,2.1,1,2.1,2.7s-.8,2.7-2.1,2.7-1.3-.4-1.6-1h0v.3c0,.5-.3.7-.7.7s-.7-.2-.7-.7h0ZM674.4,521.2c0-1-.4-1.6-1.2-1.6s-1.2.6-1.2,1.6.5,1.5,1.2,1.5,1.2-.6,1.2-1.5Z"/>
                    <path class="cls-8" d="M676.4,525c0-.3.2-.5.5-.5h.2c.2,0,.5,0,.7-.5v-.2l-1.6-4.4v-.4c0-.4.3-.7.7-.7s.6.2.7.6l1.1,3.6h0l1.1-3.6c0-.4.3-.6.7-.6s.7.3.7.6v.4l-1.6,4.4c-.5,1.3-1.1,1.8-2.2,1.8s-1-.2-1-.7h0v.2h0Z"/>
                    <path class="cls-8" d="M490.3,642.8v-5.2h-1.5c-.4,0-.7-.2-.7-.6s.3-.6.7-.6h4.4c.4,0,.7.2.7.6s-.3.6-.7.6h-1.5v5.2c0,.5-.3.8-.7.8s-.7-.3-.7-.8h0Z"/>
                    <path class="cls-8" d="M493.1,640.9c0-1.7,1-2.7,2.6-2.7s2.6,1,2.6,2.7-1,2.7-2.6,2.7-2.6-1-2.6-2.7ZM496.9,640.9c0-1-.5-1.6-1.1-1.6s-1.1.6-1.1,1.6.4,1.6,1.1,1.6,1.1-.6,1.1-1.6Z"/>
                    <path class="cls-8" d="M499.1,644.6v-5.7c0-.5.3-.7.7-.7s.7.2.7.7v.3h0c.3-.6.9-1,1.6-1,1.3,0,2.1,1,2.1,2.7s-.8,2.7-2.1,2.7-1.4-.4-1.6-1h0v2c0,.5-.3.7-.7.7s-.7-.2-.7-.7h0ZM502.8,640.9c0-1-.5-1.6-1.2-1.6s-1.2.6-1.2,1.6.5,1.5,1.2,1.5,1.2-.6,1.2-1.5Z"/>
                    <path class="cls-8" d="M506.9,640c0-2.3,1.3-3.6,3.3-3.6s2.3.6,2.8,1.6c0,.2.2.4.2.5,0,.4-.3.6-.7.6s-.5-.2-.7-.5c-.3-.7-.9-1.1-1.6-1.1-1.1,0-1.8.9-1.8,2.4s.7,2.4,1.8,2.4,1.3-.3,1.6-1c.1-.3.3-.5.6-.5s.7.3.7.7v.5c-.4,1-1.5,1.6-2.8,1.6-2.1,0-3.4-1.4-3.4-3.6h0Z"/>
                    <path class="cls-8" d="M513.9,642c0-1,.7-1.5,2-1.6h1.3v-.4c0-.5-.3-.8-.9-.8s-.7,0-1,.5c-.2.2-.3.3-.6.3s-.6-.2-.6-.5v-.3c.2-.6,1.1-1,2.2-1s2.2.7,2.2,1.8v3c0,.5-.3.7-.7.7s-.7-.2-.7-.6v-.3h0c-.3.6-1,.9-1.6.9-1,0-1.8-.6-1.8-1.6h.2,0ZM517.2,641.6v-.4h-1.1c-.5,0-.8.4-.8.7s.3.6.8.6,1.1-.4,1.1-1h0Z"/>
                    <path class="cls-8" d="M519.9,639.3h-.3c-.3,0-.5-.2-.5-.5s.2-.5.5-.5h.3v-.6c0-.5.3-.7.7-.7s.7.3.7.7v.6h.5c.3,0,.5.2.5.5s-.2.5-.5.5h-.5v2.5c0,.4,0,.5.4.5h0c.3,0,.5.2.5.5s-.4.6-1,.6h0c-1,0-1.4-.5-1.4-1.4v-2.8h0Z"/>
                    <path class="cls-8" d="M524,642.9l-1-3.7v-.4c0-.4.3-.6.7-.6s.6.2.7.6l.8,3.4h0l.8-3.3c0-.4.4-.7.8-.7s.7.2.8.7l.8,3.3h0l.8-3.4c0-.4.3-.6.7-.6s.7.2.7.6v.4l-1,3.7c-.2.5-.4.8-.9.8s-.8-.2-.9-.8l-.8-3h0l-.8,3.1c0,.5-.4.8-.9.8s-.8-.2-.9-.8h-.4Z"/>
                    <path class="cls-8" d="M530.7,642c0-1,.7-1.5,2-1.6h1.3v-.4c0-.5-.3-.8-.9-.8s-.7,0-1,.5c-.2.2-.3.3-.6.3s-.6-.2-.6-.5v-.3c.2-.6,1.1-1,2.2-1s2.2.7,2.2,1.8v3c0,.5-.3.7-.7.7s-.7-.2-.7-.6v-.3h0c-.3.6-1,.9-1.6.9-1,0-1.8-.6-1.8-1.6h.2,0ZM534.1,641.6v-.4h-1.1c-.5,0-.8.4-.8.7s.3.6.8.6,1.1-.4,1.1-1h0Z"/>
                    <path class="cls-8" d="M536.4,642.9v-5.8c0-.5.3-.8.7-.8s.7.3.7.8v5.8c0,.5-.3.7-.7.7s-.7-.2-.7-.7Z"/>
                    <path class="cls-8" d="M538.9,642.9v-5.8c0-.5.3-.8.7-.8s.7.3.7.8v3.2h0l1.9-1.9c.2-.2.3-.3.6-.3s.6.3.6.6,0,.3-.3.5l-1.3,1.3,1.5,1.9c.2.2.2.3.2.5,0,.4-.3.6-.7.6s-.5,0-.7-.4l-1.3-1.8-.5.4v1.1c0,.5-.3.7-.7.7s-.7-.2-.7-.7h0Z"/>
                    <path class="cls-8" d="M784.4,215.4v-5.7c0-.5.3-.8.7-.8s.7.3.7.8v2.2h3.2v-2.2c0-.5.3-.8.7-.8s.7.3.7.8v5.7c0,.5-.3.8-.7.8s-.7-.3-.7-.8v-2.3h-3.2v2.3c0,.5-.3.8-.7.8s-.7-.3-.7-.8Z"/>
                    <path class="cls-8" d="M791.4,213.4c0-1.7,1-2.8,2.5-2.8s2.5,1,2.5,2.4-.2.6-.6.6h-3c0,.8.5,1.3,1.2,1.3s.9-.2,1.2-.6c.2-.2.3-.2.5-.2.3,0,.6.2.6.5v.4c-.3.6-1.2,1-2.2,1-1.6,0-2.6-1-2.6-2.7h-.1ZM795,212.9c0-.7-.5-1.1-1.1-1.1s-1.1.5-1.1,1.1h2.2Z"/>
                    <path class="cls-8" d="M796.9,214.5c0-.9.7-1.5,2-1.6h1.3v-.4c0-.5-.3-.8-.9-.8s-.7.1-1,.6c-.2.2-.3.3-.6.3s-.6-.2-.6-.6,0-.2,0-.3c.2-.6,1.1-1,2.2-1s2.2.7,2.2,1.8v3c0,.5-.3.7-.7.7s-.7-.2-.7-.6v-.3h0c-.3.6-1,.9-1.6.9-1,0-1.8-.6-1.8-1.6h.2ZM800.3,214.1v-.4h-1.1c-.5.1-.8.4-.8.7s.3.6.8.6,1.1-.4,1.1-.9h0Z"/>
                    <path class="cls-8" d="M803.7,215.4l-1.4-3.6v-.4c0-.4.3-.6.7-.6s.6.2.7.6l1.1,3.5h0l1.1-3.5c0-.4.3-.6.7-.6s.7.3.7.6v.4l-1.4,3.7c-.2.5-.5.7-1,.7s-.8-.2-1-.7h-.2Z"/>
                    <path class="cls-8" d="M807.5,213.4c0-1.7,1-2.8,2.5-2.8s2.5,1,2.5,2.4-.2.6-.6.6h-3c0,.8.5,1.3,1.2,1.3s.9-.2,1.2-.6c.2-.2.3-.2.5-.2.3,0,.6.2.6.5v.4c-.3.6-1.2,1-2.2,1-1.6,0-2.6-1-2.6-2.7h-.1ZM811.2,212.9c0-.7-.5-1.1-1.1-1.1s-1.1.5-1.1,1.1h2.2Z"/>
                    <path class="cls-8" d="M813.3,215.4v-4c0-.4.3-.7.7-.7s.7.3.7.7v.3h0c.3-.6.8-1,1.6-1,1.2,0,1.8.7,1.8,2v2.7c0,.5-.3.7-.7.7s-.7-.2-.7-.7v-2.4c0-.7-.3-1.1-1-1.1s-1,.5-1,1.1v2.4c0,.5-.3.7-.7.7s-.7-.2-.7-.7h0Z"/>
                    <path class="cls-8" d="M627.1,271.5c0-2.3,1.3-3.6,3.4-3.6s2.4.6,2.8,1.5v.5c0,.4-.3.6-.6.6s-.5-.1-.7-.4c-.3-.6-.9-.9-1.5-.9-1.2,0-1.9.9-1.9,2.4s.7,2.5,1.9,2.5,1.6-.6,1.7-1.5h0c0-.1-1-.1-1-.1-.3,0-.6-.2-.6-.5s.2-.5.6-.5h1.7c.5,0,.7.3.7.8h0c0,1.9-1.1,3.1-3.1,3.1s-3.4-1.4-3.4-3.7h0v-.2h0Z"/>
                    <path class="cls-8" d="M634.2,273.5c0-1,.7-1.5,2-1.6h1.3v-.4c0-.5-.3-.8-.9-.8s-.7.1-1,.5c-.2.2-.3.3-.6.3s-.6-.2-.6-.5v-.3c.2-.6,1.1-1,2.2-1s2.2.7,2.2,1.8v3c0,.5-.3.7-.7.7s-.7-.2-.7-.6v-.3h0c-.3.6-1,.9-1.6.9-1,0-1.8-.6-1.8-1.6h.2,0ZM637.5,273.1v-.4h-1.1c-.5.1-.8.4-.8.7s.3.6.8.6,1.1-.4,1.1-.9h0Z"/>
                    <path class="cls-8" d="M639.9,274.4v-4c0-.5.3-.7.7-.7s.7.3.7.7v.3h0c0-.6.6-1,1.1-1s.3,0,.4.1c0,.1.2.3.2.5s0,.4-.2.5-.3.2-.6.2c-.7,0-.9.4-.9,1v2.3c0,.5-.3.7-.7.7s-.7-.3-.7-.7h0Z"/>
                    <path class="cls-8" d="M643.2,272.4c0-1.7.8-2.7,2.1-2.7s1.3.4,1.6,1h0v-2.1c0-.5.3-.8.7-.8s.7.3.7.8v5.8c0,.5-.3.7-.7.7s-.7-.2-.7-.7v-.3h0c-.2.6-.8,1-1.6,1-1.3,0-2.1-1-2.1-2.7h0ZM646.9,272.4c0-1-.5-1.6-1.2-1.6s-1.2.6-1.2,1.6.4,1.5,1.2,1.5,1.2-.6,1.2-1.5Z"/>
                    <path class="cls-8" d="M649.1,272.4c0-1.7,1-2.8,2.5-2.8s2.5,1,2.5,2.4-.2.6-.6.6h-3c0,.8.5,1.3,1.2,1.3s.9-.2,1.2-.6c.2-.2.3-.2.5-.2.3,0,.6.2.6.5v.4c-.3.6-1.2,1-2.2,1-1.6,0-2.6-1-2.6-2.7h-.1ZM652.8,271.9c0-.7-.5-1.1-1.1-1.1s-1.1.5-1.1,1.1h2.2Z"/>
                    <path class="cls-8" d="M654.8,274.4v-4c0-.4.3-.7.7-.7s.7.3.7.7v.3h0c.3-.6.8-1,1.6-1,1.2,0,1.8.7,1.8,2v2.7c0,.5-.3.7-.7.7s-.7-.2-.7-.7v-2.4c0-.7-.3-1.1-1-1.1s-1,.5-1,1.1v2.4c0,.5-.3.7-.7.7s-.7-.2-.7-.7h0Z"/>
                    <path class="cls-8" d="M482.2,496c0-2.3,1.3-3.6,3.3-3.6s2.3.6,2.8,1.6.1.4.1.5c0,.4-.3.6-.6.6s-.5-.1-.7-.5c-.3-.7-.9-1.1-1.6-1.1-1.1,0-1.8.9-1.8,2.4s.7,2.4,1.8,2.4,1.3-.3,1.6-1c.1-.3.3-.5.6-.5s.7.3.7.6,0,.3-.1.5c-.4,1-1.5,1.6-2.8,1.6-2.1,0-3.4-1.4-3.4-3.6h.1Z"/>
                    <path class="cls-8" d="M489.1,498c0-1,.7-1.5,2-1.6h1.3v-.4c0-.5-.3-.8-.9-.8s-.7.1-1,.5c-.2.2-.3.3-.6.3s-.6-.2-.6-.5v-.3c.2-.6,1.1-1,2.2-1s2.2.7,2.2,1.8v3c0,.5-.3.7-.7.7s-.6-.2-.7-.6v-.3h0c-.3.6-1,.9-1.6.9-1,0-1.8-.6-1.8-1.6h.2ZM492.5,497.6v-.4h-1.1c-.5.1-.8.4-.8.7s.3.6.8.6,1.1-.4,1.1-.9h0Z"/>
                    <path class="cls-8" d="M495.2,495.4h-.3c-.3,0-.5-.2-.5-.5s.2-.5.5-.5h.3v-.6c0-.5.3-.7.7-.7s.7.3.7.7v.6h.5c.3,0,.5.2.5.5s-.2.5-.5.5h-.5v2.5c0,.4.1.5.4.5h0c.4,0,.5.2.5.5s-.4.6-1,.6h0c-1,0-1.4-.5-1.4-1.4v-2.7h0Z"/>
                    <path class="cls-8" d="M499.2,498.9l-1-3.6v-.4c0-.4.3-.6.7-.6s.6.2.7.6l.8,3.4h0l.8-3.3c0-.4.4-.6.8-.6s.7.2.8.6l.8,3.3h0l.8-3.4c0-.4.3-.6.7-.6s.7.2.7.6v.4l-1,3.6c-.1.5-.4.8-.9.8s-.8-.2-.9-.8l-.8-3h0l-.8,3.1c-.1.5-.4.8-.9.8s-.8-.2-.9-.8h-.4Z"/>
                    <path class="cls-8" d="M506,498c0-1,.7-1.5,2-1.6h1.3v-.4c0-.5-.3-.8-.9-.8s-.7.1-1,.5c-.2.2-.3.3-.6.3s-.6-.2-.6-.5v-.3c.2-.6,1.1-1,2.2-1s2.2.7,2.2,1.8v3c0,.5-.3.7-.7.7s-.6-.2-.7-.6v-.3h0c-.3.6-1,.9-1.6.9-1,0-1.8-.6-1.8-1.6h.2ZM509.4,497.6v-.4h-1.1c-.5.1-.8.4-.8.7s.3.6.8.6,1.1-.4,1.1-.9h0Z"/>
                    <path class="cls-8" d="M511.7,498.9v-5.8c0-.5.3-.8.7-.8s.7.3.7.8v5.8c0,.5-.3.7-.7.7s-.7-.2-.7-.7Z"/>
                    <path class="cls-8" d="M514.1,498.9v-5.8c0-.5.3-.8.7-.8s.7.3.7.8v3.2h0l1.9-1.9c.2-.2.3-.3.6-.3s.6.3.6.6,0,.4-.3.5l-1.3,1.3,1.5,1.9c.2.2.2.3.2.5,0,.4-.3.6-.7.6s-.5-.1-.7-.4l-1.3-1.8-.5.4v1.1c0,.5-.3.7-.7.7s-.7-.2-.7-.6h0Z"/>
                    <path class="cls-8" d="M630.2,215.4l-1.5-5.3v-.5c0-.4.3-.7.7-.7s.6.2.7.6l1,4.6h0l1.2-4.5c0-.5.3-.7.8-.7s.6.2.8.6l1.2,4.6h0l1-4.6c0-.4.3-.6.7-.6s.7.2.7.7v.5l-1.5,5.3c-.2.5-.4.7-.8.7s-.7-.2-.9-.8l-1.2-4.2h0l-1.2,4.2c0,.5-.4.8-.9.8s-.7-.2-.9-.8h.1Z"/>
                    <path class="cls-8" d="M638.4,209.4c0-.4.3-.7.8-.7s.8.3.8.7-.3.7-.8.7-.8-.3-.8-.7ZM638.5,215.4v-4c0-.5.3-.8.7-.8s.7.3.7.8v4c0,.5-.3.7-.7.7s-.7-.3-.7-.7Z"/>
                    <path class="cls-8" d="M640.8,215.4v-4c0-.4.3-.7.7-.7s.7.3.7.7v.3h0c.3-.6.8-1,1.6-1,1.2,0,1.8.7,1.8,2v2.7c0,.5-.3.7-.7.7s-.7-.2-.7-.7v-2.4c0-.7-.3-1.1-1-1.1s-1,.5-1,1.1v2.4c0,.5-.3.7-.7.7s-.7-.2-.7-.7h0Z"/>
                    <path class="cls-8" d="M646.4,213.4c0-1.7.8-2.7,2.1-2.7s1.3.4,1.6,1h0v-2.1c0-.5.3-.8.7-.8s.7.3.7.8v5.8c0,.5-.3.7-.7.7s-.7-.2-.7-.7v-.3h0c-.2.6-.8,1-1.6,1-1.3,0-2.1-1-2.1-2.7h0ZM650.2,213.4c0-.9-.5-1.6-1.2-1.6s-1.2.6-1.2,1.6.4,1.6,1.2,1.6,1.2-.6,1.2-1.6Z"/>
                    <path class="cls-8" d="M652.4,213.4c0-1.7,1-2.7,2.6-2.7s2.6,1,2.6,2.7-1,2.7-2.6,2.7-2.6-1-2.6-2.7ZM656.1,213.4c0-1-.5-1.6-1.1-1.6s-1.2.6-1.2,1.6.4,1.6,1.2,1.6,1.1-.6,1.1-1.6Z"/>
                    <path class="cls-8" d="M659.1,215.4l-1-3.6v-.4c0-.4.3-.6.7-.6s.6.2.7.6l.8,3.4h0l.8-3.3c0-.4.4-.6.8-.6s.7.2.8.6l.8,3.3h0l.8-3.4c0-.4.3-.6.7-.6s.7.2.7.6,0,.2,0,.4l-1,3.6c-.2.5-.4.8-.9.8s-.8-.2-.9-.8l-.8-3.1h0l-.8,3.1c0,.5-.4.8-.9.8s-.8-.2-.9-.8h-.4Z"/>
                    <path class="cls-8" d="M857.7,458.9l-1.5-5.3v-.5c0-.4.3-.7.7-.7s.6.2.7.6l1,4.6h0l1.2-4.5c0-.5.3-.7.8-.7s.6.2.8.6l1.2,4.5h0l1-4.6c0-.4.3-.6.7-.6s.7.2.7.7v.5l-1.5,5.3c-.2.5-.4.7-.8.7s-.7-.2-.9-.8l-1.2-4.2h0l-1.2,4.2c0,.5-.4.8-.9.8s-.7-.2-.9-.8h0v.2h.1Z"/>
                    <path class="cls-8" d="M865.9,453c0-.4.3-.7.8-.7s.8.3.8.7-.3.7-.8.7-.8-.3-.8-.7ZM866,459v-4c0-.5.3-.8.7-.8s.7.3.7.8v4c0,.5-.3.7-.7.7s-.7-.3-.7-.7Z"/>
                    <path class="cls-8" d="M868.3,459v-4c0-.4.3-.7.7-.7s.7.3.7.7v.3h0c.3-.6.8-1,1.6-1,1.2,0,1.8.7,1.8,2v2.7c0,.5-.3.7-.7.7s-.7-.2-.7-.7v-2.4c0-.7-.3-1.1-1-1.1s-1,.5-1,1.1v2.4c0,.5-.3.7-.7.7s-.7-.2-.7-.7h0Z"/>
                    <path class="cls-8" d="M873.9,457c0-1.7,1-2.8,2.5-2.8s2.5,1,2.5,2.4-.2.6-.6.6h-3c0,.8.5,1.3,1.2,1.3s.9-.2,1.2-.6c.2-.2.3-.2.5-.2.3,0,.6.2.6.5v.4c-.3.6-1.2,1-2.2,1-1.6,0-2.6-1-2.6-2.7h-.1ZM877.5,456.4c0-.7-.5-1.1-1.1-1.1s-1.1.5-1.1,1.1h2.2Z"/>
                    <path class="cls-8" d="M88,218.2v-16c0-1.4.8-2.2,2.1-2.2h6.8c3.8,0,6.2,2,6.2,5.1s-1.7,4.1-3.8,4.4h0c2.8.3,4.8,2.4,4.8,5.1s-2.7,5.9-7.1,5.9h-6.9c-1.3,0-2.1-.8-2.1-2.2h0ZM95.4,208.6c2.3,0,3.6-1,3.6-2.7s-1.2-2.6-3.1-2.6h-3.5v5.3h3ZM96,217.3c2.5,0,3.8-1.1,3.8-3s-1.4-2.9-3.9-2.9h-3.6v5.9h3.7Z"/>
                    <path class="cls-8" d="M777.5,293.8c-1.1,0-1.8-.6-2.2-1.9l-1.1-3.2h-7.4l-1.1,3.2c-.4,1.3-1,1.9-2.2,1.9s-2.1-.8-2.1-2,0-.8.3-1.4l5.6-15.2c.6-1.7,1.6-2.4,3.3-2.4s2.6.8,3.2,2.4l5.6,15.2c.2.5.3,1,.3,1.4,0,1.2-.8,2-2.2,2h0ZM773.3,285.4l-2.7-8.4h0l-2.7,8.4h5.4Z"/>
                    <path class="cls-8" d="M642.6,652.1c0-2.3,1.3-3.6,3.4-3.6s2.4.6,2.8,1.5v.5c0,.4-.3.6-.6.6s-.5,0-.7-.4c-.3-.6-.9-.9-1.5-.9-1.2,0-1.9.9-1.9,2.4s.7,2.5,1.9,2.5,1.6-.6,1.7-1.5h-1c-.3,0-.6-.2-.6-.5s.2-.5.6-.5h1.7c.5,0,.7.3.7.8h0c0,1.9-1.1,3.1-3.1,3.1s-3.4-1.4-3.4-3.7h0v-.3h0Z"/>
                    <path class="cls-8" d="M649.8,653c0-1.7,1-2.8,2.5-2.8s2.5,1,2.5,2.4-.2.6-.6.6h-3c0,.8.5,1.3,1.2,1.3s.9-.2,1.2-.6c.2-.2.3-.2.5-.2.3,0,.6.2.6.5v.3c-.3.6-1.2,1-2.2,1-1.6,0-2.6-1-2.6-2.7h0v.2h-.1ZM653.4,652.5c0-.7-.5-1.1-1.1-1.1s-1.1.5-1.1,1.1h2.2Z"/>
                    <path class="cls-8" d="M655.5,655v-5.8c0-.5.3-.8.7-.8s.7.3.7.8v5.8c0,.5-.3.7-.7.7s-.7-.2-.7-.7Z"/>
                    <path class="cls-8" d="M657.7,654.1c0-1,.7-1.5,2-1.6h1.3v-.4c0-.5-.3-.8-.9-.8s-.7,0-1,.5c-.2.2-.3.3-.6.3s-.6-.2-.6-.5v-.3c.2-.6,1.1-1,2.2-1s2.2.7,2.2,1.8v3c0,.5-.3.7-.7.7s-.7-.2-.7-.6v-.3h0c-.3.6-1,.9-1.6.9-1,0-1.8-.6-1.8-1.6h.2,0ZM661.1,653.7v-.4h-1.1c-.5,0-.8.4-.8.7s.3.6.8.6,1.1-.4,1.1-1h0Z"/>
                    <path class="cls-8" d="M663.8,651.5h-.3c-.3,0-.5-.2-.5-.5s.2-.5.5-.5h.3v-.6c0-.5.3-.7.7-.7s.7.3.7.7v.6h.5c.3,0,.5.2.5.5s-.2.5-.5.5h-.5v2.5c0,.4,0,.5.4.5h0c.3,0,.5.2.5.5s-.4.6-1,.6h0c-1,0-1.4-.5-1.4-1.4v-2.8h0Z"/>
                    <path class="cls-8" d="M666.7,653c0-1.7,1-2.7,2.6-2.7s2.6,1,2.6,2.7-1,2.7-2.6,2.7-2.6-1-2.6-2.7ZM670.5,653c0-1-.5-1.6-1.1-1.6s-1.2.6-1.2,1.6.5,1.6,1.2,1.6,1.1-.6,1.1-1.6Z"/>
                </g>
            </g>
            <g id="spawn_barrier" class="cls-10">
                <g>
                    <line class="cls-1" x1="250" y1="338" x2="277.6" y2="337.9"/>
                    <line class="cls-5" x1="250" y1="338" x2="277.6" y2="337.9"/>
                    <line class="cls-1" x1="250" y1="338" x2="277.6" y2="337.9"/>
                </g>
                <g>
                    <line class="cls-1" x1="150" y1="455" x2="176.5" y2="455"/>
                    <line class="cls-6" x1="150" y1="455" x2="176.5" y2="455"/>
                    <line class="cls-1" x1="150" y1="455" x2="176.5" y2="455"/>
                </g>
                <g>
                    <line class="cls-1" x1="286.9" y1="479.1" x2="286.9" y2="502.5"/>
                    <line class="cls-6" x1="286.9" y1="479.1" x2="286.9" y2="502.5"/>
                    <line class="cls-1" x1="286.9" y1="479.1" x2="286.9" y2="502.5"/>
                </g>
            </g>
        </g>
    </g>
</svg>