<?xml version="1.0" encoding="UTF-8"?>
<svg xmlns="http://www.w3.org/2000/svg" version="1.1" viewBox="0 0 1084 964.8">
  <defs>
    <style>
      .cls-1 {
        fill: #3d3d3d;
      }

      .cls-2 {
        fill: #7e7f7e;
      }

      .cls-3 {
        fill: #fff;
      }

      .cls-4 {
        fill: #535353;
      }

      .cls-5 {
        display: none;
      }
    </style>
  </defs>
  <!-- Generator: Adobe Illustrator 28.6.0, SVG Export Plug-In . SVG Version: 1.2.0 Build 709)  -->
  <g>
    <g id="Layer_1">
      <g>
        <path class="cls-1" d="M1030,416.1v-116h-66v-33h33v-66h-132v33h-117v-2h2v-62h-2v-2h35v-82h-99V3.1h-198v83h-133v115h33v42h-199.2v33h16.1v16H58.2l-8.3,16v17c0,0-9.9,0-9.9,0v165h99v99H40v50h56.9v41h112.1v48h2v2h-6v40.2l-35,34.8v57h183v-33h99v132h215v-132h66v33h132v-132h-33v-83h33v33h132v-33h17v-33h12v-33h-70v-33h74v-66h-16v-66h16ZM419.1,168l15.7-15.9h282.3v16h2v2h-2v62h2v2h-2v66h-83v-33l-33-33h-99v83h-83v-149.1ZM320,276.1v123h-49c0,0,0-57.3,0-57.3l-19.5-16-.6-33.7v-16c-.1,0,69.1,0,69.1,0h0ZM188,451.9h182v-68.8h-17v-33h116v164.5h-94.3v58.1h-26.4v.4s-127.2,0-127.2,0v16h-33v-137.2ZM246,730.1h-6v-2h2v-56h4v58ZM246,656.1h-4v-9h-95v-8h99v17ZM552,928.2h-67v-66h67v66ZM593.1,738.1h-8v58h-67v-33h-99v33h-107l-16-16.1v-99.9h33v-39.9l21-16.1h60.6v-72.6h54.4v63.2h-16.6v66.7h30.9v-1.3h88.7v-16h17v57h8v17ZM568,432.2v28c-1.8,1.1-3,3-3,5.2s1.2,4.2,3,5.2v31.4c-1.8,1.1-3,3-3,5.2s1.2,4.2,3,5.2v31.3c-1.8,1.1-3,3-3,5.2s1.2,4.2,3,5.2v60h-50.1v-33h19.1v-132h6v-33h-6v-33h-2v-99h33v107h33v-58h184v2h-2v81h-132v58.1h-50v-42h-33ZM785.1,622.1h-2v-16h2v16ZM898.1,581.1h-148v182h-99v-25h-9v-17h9v-24h33v-116h-83v-91h99v-58h50v83h74v-8h8v8h33.3l32.7,33v33ZM915.1,333.1h-83v124h-8v-11l-8-37.3v-73.7h-2v-2h2v-66h99v66ZM997.1,482.1h-66v-66h66v66Z"/>
        <g>
          <polygon class="cls-4" points="39.5 324.9 39.5 308.3 49.4 308.3 49.5 324.9 39.5 324.9"/>
          <path class="cls-3" d="M48.9,308.8v15.6c0,0-8.9,0-8.9,0v-15.6h8.9M49.9,307.8h-10.9v17.6h11v-17.6h-.1Z"/>
        </g>
        <g id="Layer_1-2" data-name="Layer_1">
          <g id="Body_Merge">
            <rect class="cls-2" x="45.8" y="514.2" width="8" height="50"/>
            <polygon class="cls-2" points="865 176.4 874 176.4 874 168.4 874 167.4 874 160.4 808 160.4 808 168.4 865 168.4 865 176.4"/>
          </g>
          <g id="Bombsite">
            <polygon class="cls-4" points="61 309.7 151.1 309.7 151.1 391.4 105.3 391.4 72.1 432 61 432 61 309.7"/>
            <polygon class="cls-4" points="1030.1 349.4 865 349.4 865 397.6 865 416.4 865 466.4 931.2 466.4 931.2 416.4 997 416.4 997 466.4 1014.1 466.4 1014.1 416.4 1030.1 416.4 1030.1 349.4"/>
            <rect class="cls-2" x="81.4" y="358.4" width="15" height="7.3"/>
            <rect class="cls-2" x="73.8" y="359" width="31.5" height="97.9"/>
            <rect class="cls-2" x="882.7" y="384" width="97.8" height="32.8"/>
            <rect class="cls-2" x="915.7" y="416.6" width="15.9" height="32.2"/>
            <rect class="cls-2" x="882.7" y="417" width="32.8" height="14.9"/>
            <rect class="cls-2" x="899.5" y="431.6" width="16" height="8.2"/>
          </g>
          <g id="Lines">
            <rect class="cls-3" x="518" y="796.2" width="1" height="66.3"/>
            <path class="cls-3" d="M181,824.3v29h21v9h-32v-38h11M182,823.3h-13v40h34v-11h-21v-29h0Z"/>
            <path class="cls-3" d="M298.5,782.8l10.1,10.2-22.3,22.3-10.1-10.2,22.3-22.3M298.5,781.2l-23.7,23.7,11.6,11.6,23.7-23.7-11.6-11.6h0Z"/>
            <rect class="cls-3" x="242" y="656.2" width="1" height="16.3"/>
            <rect class="cls-3" x="245.1" y="656.2" width="1" height="16.5"/>
            <path class="cls-3" d="M329.1,648.3v32h-32v-32h32M330.1,647.3h-34v34h34v-34h0Z"/>
            <path class="cls-3" d="M329.1,641.5v5.9h-15v-5.9h15M330.1,640.5h-17v7.9h17v-7.9h0Z"/>
            <rect class="cls-3" x="96.7" y="639.3" width="50.5" height="1"/>
            <path class="cls-3" d="M129.1,623.3v16h-14v-16h14M130.1,622.3h-16v18h16v-18h0Z"/>
            <path class="cls-3" d="M369,326.5v24h-15v-24h15M370,325.5h-17v26h17v-26h0Z"/>
            <path class="cls-3" d="M421.8,144.6l10.4,10.4-10.2,10.2-10.4-10.4,10.2-10.2M421.8,143.2l-11.6,11.6,11.9,11.9,11.6-11.6-11.9-11.9h0Z"/>
            <path class="cls-3" d="M526,3.3v11h-27V3.4h27M527,2.3h-29v13h29V2.3h0Z"/>
            <path class="cls-3" d="M600,3.3v11h-27V3.4h27M601,2.3h-29v13h29V2.3h0Z"/>
            <path class="cls-3" d="M662,3.3v11h-27V3.4h27M663,2.3h-29v13h29V2.3h0Z"/>
            <path class="cls-3" d="M684.1,3.3v9h-6V3.4h6M685.1,2.3h-8v11h8V2.3h0Z"/>
            <path class="cls-3" d="M716,136.4v16h-15v-16h15M717,135.4h-17v18h17v-18h0Z"/>
            <path class="cls-3" d="M700,144.4v8h-7v-8h7M701,143.4h-9v10h9v-10h0Z"/>
            <path class="cls-3" d="M559,268.4v16h-15v-16h15M560,267.4h-17v18h17v-18h0Z"/>
            <path class="cls-3" d="M782,318.4v15h-15v-15h15M783,317.4h-17v17h17v-17h0Z"/>
            <path class="cls-3" d="M766,326.4v7h-7v-7h7M767,325.4h-9v9h9v-9h0Z"/>
            <path class="cls-3" d="M501,466.4v15h-32v-15h32M502,465.4h-34v17h34v-17h0Z"/>
            <path class="cls-3" d="M484,482.4v7h-7v-7h7M485,481.4h-9v9h9v-9h0Z"/>
            <path class="cls-3" d="M476,482.4v16h-7v-16h7M477,481.4h-9v18h9v-18h0Z"/>
            <path class="cls-3" d="M568.1,673.3v7h-15v-7h15M569.1,672.3h-17v9h17v-9h0Z"/>
            <path class="cls-3" d="M584,648.3v16h-15v-16h15M585,647.3h-17v18h17v-18h0Z"/>
            <path class="cls-3" d="M807,797.3v23h-32v-23h32M808,796.3h-34v25h34v-25h0Z"/>
            <path class="cls-3" d="M807,812.3v8h-32v-8h32M808,811.3h-34v10h34v-10h0Z"/>
            <path class="cls-3" d="M997.1,648.3v32.1h-73v-32.1h73M998.1,647.3h-75v34.1h75v-34.1h0Z"/>
            <path class="cls-3" d="M972,648.3v6h-15v-6h15M973,647.3h-17v8h17v-8h0Z"/>
            <path class="cls-3" d="M897,581.3v16h-14v-16h14M898,580.3h-16v18h16v-18h0Z"/>
            <path class="cls-3" d="M1030.1,533.3v15h-32v-15h32M1031.1,532.3h-34v17h34v-17h0Z"/>
            <path class="cls-3" d="M997.1,201.4v32h-32v-32h32M998.1,200.4h-34v34h34v-34h0Z"/>
            <path class="cls-3" d="M652,613.3h-84.2v1h66.2v17h17v16h1v-33h0v-1ZM651,630.3h-16v-16h16v16Z"/>
            <rect class="cls-3" x="782.1" y="581.2" width="1" height="132.2"/>
            <rect class="cls-3" x="931.1" y="647.8" width="1" height="33"/>
            <rect class="cls-3" x="831.1" y="457.1" width="1" height="50.4"/>
            <path class="cls-3" d="M887.5,515.5l10.9,10.9-11.1,11.1-10.8-10.9,11.1-11.1M887.5,514l-12.5,12.5,12.3,12.3,12.5-12.5-12.3-12.3h0Z"/>
            <path class="cls-3" d="M883,383.4h-1v49h17v8h16v9h16.9v-1h-15.9v-31h16.4v-1h-49.4v-32h97v32.1h1v-33.1h-98ZM900,439.4v-7h15v7h-15ZM915.1,417.4v14h-32v-14h32Z"/>
            <rect class="cls-3" x="964.4" y="217.4" width="33.4" height="1"/>
            <rect class="cls-3" x="684.1" y="101.3" width="99.1" height="1"/>
            <rect class="cls-3" x="485.5" y="85.3" width="66.5" height="1"/>
          </g>
          <g id="Outlines">
            <path class="cls-3" d="M53.8,514.2v50h-8v-50h8M54.9,513.2h-10.1v52.1h10.1v-52.1h0Z"/>
            <path class="cls-3" d="M874,160.4v16h-9v-8h-57v-8h66M875.1,159.4h-68.1v10.1h57v8h11.1v-18.1h0Z"/>
          </g>
          <g id="Callouts_copy">
            <path class="cls-3" d="M562.6,900v-.6l2.5-6.8c.3-.7.7-1.1,1.4-1.1s1.2.3,1.5,1.1l2.5,6.8v.6c0,.5-.4.9-1,.9s-.8-.2-1-.8l-.5-1.5h-3.3l-.5,1.4c-.2.6-.5.9-1,.9s-1-.3-1-.9h.4ZM567.9,897l-1.2-3.8h0l-1.2,3.8h2.4Z"/>
            <path class="cls-3" d="M571.8,895.3h-.4c-.4,0-.7-.3-.7-.7s.3-.7.7-.7h.4v-.8c0-.6.3-1,.9-1s.9.4.9,1v.8h.7c.4,0,.7.3.7.7s-.3.7-.7.7h-.7v3.3c0,.5.2.7.6.7h0c.5,0,.7.2.7.7s-.5.8-1.3.8h0c-1.2,0-1.9-.6-1.9-1.8v-3.7h0Z"/>
            <path class="cls-3" d="M576.5,895.3h-.4c-.4,0-.7-.3-.7-.7s.3-.7.7-.7h.4v-.8c0-.6.3-1,.9-1s.9.4.9,1v.8h.7c.4,0,.7.3.7.7s-.3.7-.7.7h-.7v3.3c0,.5.2.7.6.7h0c.5,0,.7.2.7.7s-.5.8-1.3.8h0c-1.2,0-1.9-.6-1.9-1.8v-3.7h0Z"/>
            <path class="cls-3" d="M580.3,898.8c0-1.2,1-2,2.7-2.1h1.7v-.5c0-.6-.4-1-1.1-1s-.9.2-1.3.7c-.2.2-.4.3-.7.3-.5,0-.8-.3-.8-.7v-.4c.3-.8,1.4-1.3,2.8-1.3s2.9.9,2.9,2.3v3.9c0,.6-.4.9-.9.9s-.8-.3-.9-.8v-.3h0c-.4.7-1.2,1.2-2.1,1.2-1.3,0-2.3-.8-2.3-2.1h0ZM584.6,898.2v-.5h-1.4c-.7,0-1.1.5-1.1.9s.4.8,1,.8,1.5-.5,1.5-1.3h0Z"/>
            <path class="cls-3" d="M587.4,897.3c0-2.2,1.3-3.5,3.3-3.5s2.5.7,2.9,1.6v.5c0,.5-.4.7-.8.7s-.6-.2-.8-.5c-.3-.6-.8-.9-1.3-.9-.9,0-1.5.8-1.5,2.1s.6,2.1,1.5,2.1,1-.3,1.3-.8c.2-.4.5-.5.8-.5s.8.3.8.7v.5c-.4.9-1.6,1.6-2.9,1.6-2,0-3.3-1.3-3.3-3.5h0Z"/>
            <path class="cls-3" d="M594.8,900v-7.5c0-.6.4-1,.9-1s.9.3.9,1v4.2h0l2.5-2.5c.2-.3.5-.4.7-.4.5,0,.8.3.8.8s0,.5-.3.7l-1.7,1.6,1.9,2.4c.2.3.3.4.3.7,0,.5-.4.8-.9.8s-.6,0-.9-.6l-1.8-2.3-.6.5v1.4c0,.6-.4,1-.9,1s-.9-.3-.9-1h0v.2h0Z"/>
            <path class="cls-3" d="M601.2,897.3c0-2.2,1.3-3.6,3.3-3.6s3.2,1.3,3.2,3.2-.3.8-.8.8h-3.9c0,1.1.6,1.8,1.5,1.8s1.1-.2,1.6-.8c.2-.2.4-.3.6-.3.4,0,.7.2.7.7v.5c-.5.8-1.5,1.3-2.8,1.3-2.1,0-3.4-1.3-3.4-3.5h0ZM605.9,896.7c0-.9-.6-1.5-1.4-1.5s-1.4.6-1.5,1.5h2.9Z"/>
            <path class="cls-3" d="M608.6,900v-5.2c0-.6.4-.9.9-.9s.9.3.9.9v.4h0c.2-.8.7-1.3,1.4-1.3s.4,0,.6.2c.2,0,.3.4.3.7s0,.5-.3.7-.4.2-.8.2c-.8,0-1.1.5-1.1,1.3v3c0,.6-.4,1-.9,1s-.9-.3-.9-1h-.1Z"/>
            <path class="cls-3" d="M616,899.2v-.5c0-.5.3-.8.8-.8s.7.2.9.6c.3.7,1,1,1.9,1s1.7-.5,1.7-1.2-.4-1-1.6-1.2l-1-.2c-1.8-.4-2.7-1.2-2.7-2.6s1.5-2.8,3.5-2.8,2.9.7,3.3,1.9v.4c0,.5-.3.8-.8.8s-.7-.2-.9-.6c-.3-.7-.9-1-1.7-1s-1.6.4-1.6,1.1.4.9,1.5,1.1l1,.2c1.9.4,2.8,1.2,2.8,2.6s-1.4,2.9-3.7,2.9-3.1-.8-3.5-1.8h0Z"/>
            <path class="cls-3" d="M624.1,902.2v-7.5c0-.6.4-1,.9-1s.9.3.9,1v.4h0c.4-.8,1.1-1.3,2.1-1.3,1.7,0,2.8,1.3,2.8,3.5s-1,3.5-2.8,3.5-1.8-.5-2.1-1.2h0v2.6c0,.6-.4,1-.9,1s-.9-.3-.9-1h0ZM629,897.3c0-1.2-.6-2-1.5-2s-1.5.8-1.5,2,.6,2,1.5,2,1.5-.8,1.5-2Z"/>
            <path class="cls-3" d="M631.6,898.8c0-1.2,1-2,2.7-2.1h1.7v-.5c0-.6-.4-1-1.1-1s-.9.2-1.3.7c-.2.2-.4.3-.7.3-.5,0-.8-.3-.8-.7v-.4c.3-.8,1.4-1.3,2.8-1.3s2.9.9,2.9,2.3v3.9c0,.6-.4.9-.9.9s-.8-.3-.9-.8v-.3h0c-.4.7-1.2,1.2-2.1,1.2-1.3,0-2.3-.8-2.3-2.1h0ZM635.9,898.2v-.5h-1.4c-.7,0-1.1.5-1.1.9s.4.8,1,.8,1.5-.5,1.5-1.3h0Z"/>
            <path class="cls-3" d="M640,900l-1.4-4.7v-.6c0-.5.4-.8.9-.8s.8.3.9.8l1,4.4h0l1-4.3c0-.5.5-.8,1-.8s.9.3,1,.8l1.1,4.3h0l1-4.4c0-.5.4-.8.9-.8s.9.3.9.8v.6l-1.4,4.8c-.2.7-.5,1-1.2,1s-1-.3-1.2-1l-1-4h0l-1,4c-.2.7-.5,1-1.2,1s-1-.3-1.2-1h0Z"/>
            <path class="cls-3" d="M649.2,900v-5.2c0-.6.3-.9.9-.9s.9.4.9.9v.4h0c.4-.8,1-1.3,2.1-1.3s2.4,1,2.4,2.5v3.5c0,.6-.4,1-.9,1s-.9-.3-.9-1v-3.2c0-.9-.4-1.4-1.2-1.4s-1.4.6-1.4,1.5v3.1c0,.6-.4,1-.9,1s-.9-.3-.9-1h0Z"/>
            <path class="cls-3" d="M893.2,236.9v-.4c0-.4.3-.6.7-.6s.5.1.7.4c.2.5.8.8,1.5.8s1.3-.4,1.3-.9-.3-.7-1.2-.9h-.8c-1.4-.4-2.1-1.1-2.1-2.1s1.1-2.1,2.7-2.1,2.3.5,2.6,1.5v.3c0,.4-.2.6-.6.6s-.5-.1-.7-.4c-.2-.5-.7-.8-1.3-.8s-1.2.3-1.2.9.3.7,1.2.9h.7c1.5.4,2.1,1,2.1,2.1s-1.1,2.2-2.8,2.2-2.4-.6-2.7-1.4h-.1Z"/>
            <path class="cls-3" d="M899.3,235.4c0-1.7,1-2.8,2.5-2.8s2.5,1,2.5,2.4-.2.6-.6.6h-3c0,.8.5,1.3,1.2,1.3s.9-.2,1.2-.6c.2-.2.3-.2.5-.2.3,0,.6.2.6.5v.4c-.3.6-1.2,1-2.2,1-1.6,0-2.6-1-2.6-2.7h-.1ZM902.9,234.9c0-.7-.5-1.1-1.1-1.1s-1.1.5-1.1,1.1h2.2Z"/>
            <path class="cls-3" d="M904.8,235.4c0-1.7,1-2.7,2.6-2.7s1.9.5,2.2,1.2v.4c0,.4-.3.6-.6.6s-.5-.1-.6-.4c-.3-.5-.6-.7-1-.7-.7,0-1.2.6-1.2,1.6s.4,1.6,1.2,1.6.8-.2,1-.6c.2-.3.3-.4.7-.4s.6.2.6.6,0,.2,0,.4c-.3.7-1.2,1.2-2.2,1.2-1.6,0-2.6-1-2.6-2.7h-.1Z"/>
            <path class="cls-3" d="M910.5,236.2v-2.7c0-.5.3-.8.7-.8s.7.3.7.8v2.4c0,.7.3,1.1,1,1.1s1-.4,1-1.1v-2.4c0-.5.3-.8.7-.8s.7.3.7.8v4c0,.5-.3.7-.7.7s-.7-.2-.7-.7v-.3h0c-.3.7-.8,1-1.6,1s-1.9-.7-1.9-2h0Z"/>
            <path class="cls-3" d="M916.2,237.4v-4c0-.4.3-.7.7-.7s.7.3.7.7v.3h0c0-.6.6-1,1.1-1s.3,0,.4.1c0,.1.2.3.2.5s0,.4-.2.5-.3.2-.6.2c-.7,0-.9.4-.9,1v2.3c0,.5-.3.7-.7.7s-.7-.3-.7-.7h0Z"/>
            <path class="cls-3" d="M919.9,231.4c0-.4.3-.7.8-.7s.8.3.8.7-.3.7-.8.7-.8-.3-.8-.7ZM919.9,237.4v-4c0-.5.3-.8.7-.8s.7.3.7.8v4c0,.5-.3.7-.7.7s-.7-.3-.7-.7Z"/>
            <path class="cls-3" d="M922.7,233.9h-.3c-.3,0-.5-.2-.5-.5s.2-.5.5-.5h.3v-.6c0-.5.3-.7.7-.7s.7.3.7.7v.6h.5c.3,0,.5.2.5.5s-.2.5-.5.5h-.5v2.5c0,.4,0,.5.4.6h0c.3,0,.5.2.5.5s-.4.6-1,.6h0c-1,0-1.4-.5-1.4-1.4v-2.8h0Z"/>
            <path class="cls-3" d="M925.7,239.4c0-.3.2-.5.5-.5h.2c.2,0,.5-.1.7-.5v-.2l-1.6-4.4v-.4c0-.4.3-.7.7-.7s.6.2.7.6l1.1,3.6h0l1.1-3.6c0-.4.3-.6.7-.6s.7.3.7.6v.4l-1.6,4.4c-.5,1.4-1.1,1.9-2.2,1.9s-1-.2-1-.7h0Z"/>
            <path class="cls-3" d="M751.3,286v-.5l1.9-5.2c.2-.6.5-.8,1.1-.8s.9.2,1.1.8l1.9,5.2v.5c0,.4-.3.7-.7.7s-.6-.2-.8-.6l-.4-1.1h-2.5l-.4,1.1c0,.5-.4.7-.8.7s-.8-.3-.8-.7h.4ZM755.3,283.9l-.9-2.9h0l-.9,2.9h1.9,0Z"/>
            <path class="cls-3" d="M760.4,285.9v-5.6c0-.5.3-.8.7-.8s.7.3.7.8v5.1h2.5c.4,0,.7.2.7.6s-.3.6-.7.6h-3.2c-.5,0-.7-.3-.7-.8h0Z"/>
            <path class="cls-3" d="M765.7,280c0-.4.3-.7.8-.7s.8.3.8.7-.3.7-.8.7-.8-.3-.8-.7ZM765.8,286v-4c0-.5.3-.8.7-.8s.7.3.7.8v4c0,.5-.3.7-.7.7s-.7-.3-.7-.7Z"/>
            <path class="cls-3" d="M768.1,286v-4c0-.4.3-.7.7-.7s.7.3.7.7v.3h0c.3-.6.8-1,1.6-1,1.2,0,1.8.7,1.8,2v2.7c0,.5-.3.7-.7.7s-.7-.2-.7-.7v-2.4c0-.7-.3-1.1-1-1.1s-1,.5-1,1.1v2.4c0,.5-.3.7-.7.7s-.7-.2-.7-.7h0Z"/>
            <path class="cls-3" d="M773.9,286v-5.8c0-.5.3-.8.7-.8s.7.3.7.8v3.2h0l1.9-1.9c.2-.2.3-.3.6-.3s.6.3.6.6,0,.4-.3.5l-1.3,1.3,1.5,1.9c.2.2.2.3.2.5,0,.4-.3.6-.7.6s-.5-.1-.7-.4l-1.3-1.8-.5.4v1.1c0,.5-.3.7-.7.7s-.7-.2-.7-.7h0Z"/>
            <path class="cls-3" d="M545.3,256.9v-5.1h-1.5c-.4,0-.7-.2-.7-.6s.3-.6.7-.6h4.4c.4,0,.7.2.7.6s-.3.6-.7.6h-1.5v5.1c0,.5-.3.8-.7.8s-.7-.3-.7-.8h0Z"/>
            <path class="cls-3" d="M548.2,254.9c0-1.7,1-2.7,2.6-2.7s2.6,1,2.6,2.7-1,2.7-2.6,2.7-2.6-1-2.6-2.7h0ZM551.9,254.9c0-1-.5-1.6-1.1-1.6s-1.2.6-1.2,1.6.4,1.6,1.2,1.6,1.1-.6,1.1-1.6h0Z"/>
            <path class="cls-3" d="M554.1,258.6v-5.7c0-.5.3-.7.7-.7s.7.2.7.7v.3h0c.3-.6.9-1,1.6-1,1.3,0,2.1,1,2.1,2.7s-.8,2.7-2.1,2.7-1.3-.4-1.6-1h0v2c0,.5-.3.7-.7.7s-.7-.2-.7-.7h0ZM557.9,254.9c0-.9-.5-1.6-1.2-1.6s-1.2.6-1.2,1.6.5,1.6,1.2,1.6,1.2-.6,1.2-1.6h0Z"/>
            <path class="cls-3" d="M562.2,257v-5.6c0-.6.3-.9,1-.9s.8.2,1,.8l1.8,4.3h0l1.7-4.3c.2-.5.5-.8,1-.8s1,.4,1,.9v5.6c0,.4-.2.7-.7.7s-.7-.2-.7-.7v-4.2h0l-1.7,4.3c0,.3-.3.5-.6.5s-.5-.1-.6-.4l-1.7-4.3h0v4.2c0,.4-.2.7-.7.7s-.7-.2-.7-.7h0Z"/>
            <path class="cls-3" d="M570.6,250.9c0-.4.3-.7.8-.7s.8.3.8.7-.3.7-.8.7-.8-.3-.8-.7ZM570.7,256.9v-4c0-.5.3-.8.7-.8s.7.3.7.8v4c0,.5-.3.7-.7.7s-.7-.3-.7-.7Z"/>
            <path class="cls-3" d="M572.9,254.9c0-1.7.8-2.7,2.1-2.7s1.3.4,1.6,1h0v-2.1c0-.5.3-.8.7-.8s.7.3.7.8v5.8c0,.5-.3.7-.7.7s-.7-.2-.7-.7v-.3h0c-.2.6-.8,1-1.6,1-1.3,0-2.1-1-2.1-2.7h0ZM576.7,254.9c0-.9-.5-1.6-1.2-1.6s-1.2.6-1.2,1.6.4,1.6,1.2,1.6,1.2-.6,1.2-1.6h0Z"/>
            <path class="cls-3" d="M914,628.7v-.5l1.9-5.2c.2-.6.5-.8,1.1-.8s.9.2,1.1.8l1.9,5.2v.5c0,.4-.3.7-.7.7s-.6-.2-.8-.7l-.4-1.1h-2.5l-.4,1.1c0,.5-.4.7-.8.7s-.8-.3-.8-.7h.4ZM918.1,626.5l-.9-2.9h0l-.9,2.9h1.9,0Z"/>
            <path class="cls-3" d="M923.2,628.7v-5.6c0-.6.3-1,1-1s.8.2,1,.8l1.8,4.3h0l1.7-4.3c.2-.5.5-.8,1-.8s1,.3,1,1v5.6c0,.4-.2.7-.7.7s-.7-.2-.7-.7v-4.2h0l-1.7,4.3c0,.3-.3.5-.6.5s-.5,0-.6-.4l-1.7-4.3h0v4.2c0,.4-.2.7-.7.7s-.7-.2-.7-.7h0Z"/>
            <path class="cls-3" d="M931.4,627.8c0-1,.7-1.5,2-1.6h1.3v-.4c0-.5-.3-.8-.9-.8s-.7,0-1,.5c-.2.2-.3.3-.6.3s-.6-.2-.6-.5v-.3c.2-.6,1.1-1,2.2-1s2.2.7,2.2,1.8v3c0,.5-.3.7-.7.7s-.7-.2-.7-.6v-.3h0c-.3.6-1,.9-1.6.9-1,0-1.8-.6-1.8-1.6h.2,0ZM934.7,627.3v-.4h-1.1c-.5,0-.8.4-.8.7s.3.6.8.6,1.1-.4,1.1-1h0Z"/>
            <path class="cls-3" d="M937,622.7c0-.4.3-.7.8-.7s.8.3.8.7-.3.7-.8.7-.8-.3-.8-.7ZM937.1,628.5v-4c0-.5.3-.8.7-.8s.7.3.7.8v4c0,.5-.3.7-.7.7s-.7-.3-.7-.7Z"/>
            <path class="cls-3" d="M939.4,628.7v-4c0-.4.3-.7.7-.7s.7.3.7.7v.3h0c.3-.7.8-1,1.6-1,1.2,0,1.8.7,1.8,2v2.7c0,.5-.3.7-.7.7s-.7-.2-.7-.7v-2.4c0-.7-.3-1.1-1-1.1s-1,.5-1,1.2v2.4c0,.5-.3.7-.7.7s-.7-.2-.7-.7h0Z"/>
            <path class="cls-3" d="M566.1,516.3c0-2.3,1.3-3.6,3.3-3.6s2.3.6,2.8,1.6c0,.2.2.4.2.5,0,.4-.3.6-.7.6s-.5-.2-.7-.5c-.3-.7-.9-1.1-1.6-1.1-1.1,0-1.8.9-1.8,2.4s.7,2.4,1.8,2.4,1.3-.3,1.6-1c.2-.3.3-.5.7-.5s.7.3.7.7v.5c-.4,1-1.5,1.6-2.8,1.6-2.1,0-3.4-1.4-3.4-3.6h0Z"/>
            <path class="cls-3" d="M573,518.5c0-1,.7-1.5,2-1.6h1.3v-.4c0-.5-.3-.8-.9-.8s-.7,0-1,.5c-.2.2-.3.3-.6.3s-.6-.2-.6-.5v-.3c.2-.6,1.1-1,2.2-1s2.2.7,2.2,1.8v3c0,.5-.3.7-.7.7s-.7-.2-.7-.6v-.3h0c-.3.6-1,.9-1.6.9-1,0-1.8-.6-1.8-1.6h.2,0ZM576.4,518v-.4h-1.1c-.5,0-.8.4-.8.7s.3.6.8.6,1.1-.4,1.1-1h0Z"/>
            <path class="cls-3" d="M579.1,515.8h-.3c-.3,0-.5-.2-.5-.5s.2-.5.5-.5h.3v-.6c0-.5.3-.7.7-.7s.7.3.7.7v.6h.5c.3,0,.5.2.5.5s-.2.5-.5.5h-.5v2.5c0,.4,0,.5.4.5h0c.3,0,.5.2.5.5s-.4.6-1,.6h0c-1,0-1.4-.5-1.4-1.4v-2.8h0Z"/>
            <path class="cls-3" d="M583.1,519.2l-1-3.7v-.4c0-.4.3-.6.7-.6s.6.2.7.6l.8,3.4h0l.8-3.3c0-.4.4-.7.8-.7s.7.2.8.7l.8,3.3h0l.8-3.4c0-.4.3-.6.7-.6s.7.2.7.6v.4l-1,3.7c-.2.5-.4.8-.9.8s-.8-.2-.9-.8l-.8-3h0l-.8,3.1c0,.5-.4.8-.9.8s-.8-.2-.9-.8h-.4,0Z"/>
            <path class="cls-3" d="M589.9,518.5c0-1,.7-1.5,2-1.6h1.3v-.4c0-.5-.3-.8-.9-.8s-.7,0-1,.5c-.2.2-.3.3-.6.3s-.6-.2-.6-.5v-.3c.2-.6,1.1-1,2.2-1s2.2.7,2.2,1.8v3c0,.5-.3.7-.7.7s-.7-.2-.7-.6v-.3h0c-.3.6-1,.9-1.6.9-1,0-1.8-.6-1.8-1.6h.2,0ZM593.3,518v-.4h-1.1c-.5,0-.8.4-.8.7s.3.6.8.6,1.1-.4,1.1-1h0Z"/>
            <path class="cls-3" d="M595.6,519.2v-5.8c0-.5.3-.8.7-.8s.7.3.7.8v5.8c0,.5-.3.7-.7.7s-.7-.2-.7-.7Z"/>
            <path class="cls-3" d="M598,519.2v-5.8c0-.5.3-.8.7-.8s.7.3.7.8v3.2h0l1.9-1.9c.2-.2.3-.3.6-.3s.6.3.6.6,0,.3-.3.5l-1.3,1.3,1.5,1.9c.2.2.2.3.2.5,0,.4-.3.6-.7.6s-.5,0-.7-.4l-1.3-1.8-.5.4v1.1c0,.5-.3.7-.7.7s-.7-.2-.7-.7h0Z"/>
            <path class="cls-3" d="M667.5,455.5l-2-5.3v-.4c0-.4.3-.7.8-.7s.6.2.8.6l1.7,5h0l1.7-5.1c0-.4.3-.6.7-.6s.8.3.8.7,0,.3,0,.4l-2,5.3c-.2.6-.6.9-1.1.9s-.9-.2-1.1-.9h-.3Z"/>
            <path class="cls-3" d="M671.6,453.8c0-1.7,1-2.8,2.5-2.8s2.5,1,2.5,2.4-.2.6-.6.6h-3c0,.8.5,1.3,1.2,1.3s.9-.2,1.2-.6c.2-.2.3-.2.5-.2.3,0,.6.2.6.5v.4c-.3.6-1.2,1-2.2,1-1.6,0-2.6-1-2.6-2.7h-.1ZM675.2,453.1c0-.7-.5-1.1-1.1-1.1s-1.1.5-1.1,1.1h2.2Z"/>
            <path class="cls-3" d="M677.3,455.6v-4c0-.4.3-.7.7-.7s.7.3.7.7v.3h0c.3-.6.8-1,1.6-1,1.2,0,1.8.7,1.8,2v2.7c0,.5-.3.7-.7.7s-.7-.2-.7-.7v-2.4c0-.7-.3-1.1-1-1.1s-1,.5-1,1.1v2.4c0,.5-.3.7-.7.7s-.7-.2-.7-.7h0Z"/>
            <path class="cls-3" d="M683.5,452.1h-.3c-.3,0-.5-.2-.5-.5s.2-.5.5-.5h.3v-.6c0-.5.3-.7.7-.7s.7.3.7.7v.6h.5c.3,0,.5.2.5.5s-.2.5-.5.5h-.5v2.5c0,.4,0,.5.4.5h0c.3,0,.5.2.5.5s-.4.6-1,.6h0c-1,0-1.4-.5-1.4-1.4v-2.8h0Z"/>
            <path class="cls-3" d="M535.3,49.5v-7.2c0-.6.4-1,1-1h2.5c2.8,0,4.4,1.6,4.4,4.5s-1.6,4.6-4.4,4.6h-2.5c-.6,0-1-.4-1-1h0ZM538.6,49c1.7,0,2.6-1,2.6-3s-1-3-2.6-3h-1.3v6h1.3Z"/>
            <path class="cls-3" d="M544,47.2c0-2.2,1.3-3.6,3.3-3.6s3.2,1.3,3.2,3.2-.3.8-.8.8h-3.9c0,1.1.6,1.8,1.5,1.8s1.1-.2,1.6-.8c.2-.2.4-.3.6-.3.4,0,.7.2.7.7v.5c-.5.8-1.5,1.3-2.8,1.3-2.1,0-3.4-1.3-3.4-3.5h0ZM548.7,46.5c0-.9-.6-1.5-1.4-1.5s-1.4.6-1.5,1.5h2.9Z"/>
            <path class="cls-3" d="M552,49.8v-4.6h-.4c-.4,0-.7-.2-.7-.7s.3-.7.7-.7h.4v-.5c0-1.3.7-1.9,1.9-2,1,0,1.4.3,1.4.8s0,.4-.4.5h-.4c-.6,0-.8.2-.8.8v.4h.8c.4,0,.7.2.7.7s-.3.7-.7.7h-.7v4.6c0,.6-.4,1-.9,1s-.9-.3-.9-1h0Z"/>
            <path class="cls-3" d="M555.7,47.2c0-2.2,1.3-3.6,3.3-3.6s3.2,1.3,3.2,3.2-.3.8-.8.8h-3.9c0,1.1.6,1.8,1.5,1.8s1.1-.2,1.6-.8c.2-.2.4-.3.6-.3.4,0,.7.2.7.7v.5c-.5.8-1.5,1.3-2.8,1.3-2.1,0-3.4-1.3-3.4-3.5h0ZM560.4,46.5c0-.9-.6-1.5-1.4-1.5s-1.4.6-1.5,1.5h2.9Z"/>
            <path class="cls-3" d="M563.1,49.8v-5.2c0-.6.3-.9.9-.9s.9.4.9.9v.4h0c.4-.8,1-1.3,2.1-1.3s2.4,1,2.4,2.5v3.5c0,.6-.4,1-.9,1s-.9-.3-.9-1v-3.2c0-.9-.4-1.4-1.2-1.4s-1.4.6-1.4,1.5v3.1c0,.6-.4,1-.9,1s-.9-.3-.9-1h0Z"/>
            <path class="cls-3" d="M570.4,47.2c0-2.2,1.1-3.5,2.8-3.5s1.8.5,2.1,1.3h0v-2.7c0-.6.4-1,.9-1s.9.3.9,1v7.5c0,.6-.4.9-.9.9s-.9-.3-.9-.9v-.4h0c-.3.8-1,1.3-2.1,1.3-1.7,0-2.8-1.3-2.8-3.5h0ZM575.3,47.2c0-1.2-.6-2-1.5-2s-1.5.8-1.5,2,.6,2,1.5,2,1.5-.8,1.5-2Z"/>
            <path class="cls-3" d="M578.1,47.2c0-2.2,1.3-3.6,3.3-3.6s3.2,1.3,3.2,3.2-.3.8-.8.8h-3.9c0,1.1.6,1.8,1.5,1.8s1.1-.2,1.6-.8c.2-.2.4-.3.6-.3.4,0,.7.2.7.7v.5c-.5.8-1.5,1.3-2.8,1.3-2.1,0-3.4-1.3-3.4-3.5h0ZM582.9,46.5c0-.9-.6-1.5-1.4-1.5s-1.4.6-1.5,1.5h2.9Z"/>
            <path class="cls-3" d="M585.6,49.8v-5.2c0-.6.4-.9.9-.9s.9.3.9.9v.4h0c.2-.8.7-1.3,1.4-1.3s.4,0,.6.2c.2,0,.3.4.3.7s0,.5-.3.7-.4.2-.8.2c-.8,0-1.1.5-1.1,1.3v3c0,.6-.4,1-.9,1s-.9-.3-.9-1h-.1Z"/>
            <path class="cls-3" d="M592.9,49v-.5c0-.5.3-.8.8-.8s.7.2.9.6c.3.7,1,1,1.9,1s1.7-.5,1.7-1.2-.4-1-1.6-1.2l-1-.2c-1.8-.4-2.7-1.2-2.7-2.6s1.5-2.8,3.5-2.8,2.9.7,3.3,1.9v.4c0,.5-.3.8-.8.8s-.7-.2-.9-.6c-.3-.7-.9-1-1.7-1s-1.6.4-1.6,1.1.4.9,1.5,1.1l1,.2c1.9.4,2.8,1.2,2.8,2.6s-1.4,2.9-3.7,2.9-3.1-.8-3.5-1.8h0Z"/>
            <path class="cls-3" d="M601.1,52v-7.5c0-.6.4-1,.9-1s.9.3.9,1v.4h0c.4-.8,1.1-1.3,2.1-1.3,1.7,0,2.8,1.3,2.8,3.5s-1,3.5-2.8,3.5-1.8-.5-2.1-1.2h0v2.6c0,.6-.4,1-.9,1s-.9-.3-.9-1h0ZM606,47.2c0-1.2-.6-2-1.5-2s-1.5.8-1.5,2,.6,2,1.5,2,1.5-.8,1.5-2Z"/>
            <path class="cls-3" d="M608.5,48.5c0-1.2,1-2,2.7-2.1h1.7v-.5c0-.6-.4-1-1.1-1s-.9.2-1.3.7c-.2.2-.4.3-.7.3-.5,0-.8-.3-.8-.7v-.4c.3-.8,1.4-1.3,2.8-1.3s2.9.9,2.9,2.3v3.9c0,.6-.4.9-.9.9s-.8-.3-.9-.8v-.3h0c-.4.7-1.2,1.2-2.1,1.2-1.3,0-2.3-.8-2.3-2.1h0ZM612.9,48v-.5h-1.4c-.7,0-1.1.5-1.1.9s.4.8,1,.8,1.5-.5,1.5-1.3h0Z"/>
            <path class="cls-3" d="M617,49.8l-1.4-4.7v-.6c0-.5.4-.8.9-.8s.8.3.9.8l1,4.4h0l1-4.3c0-.5.5-.8,1-.8s.9.3,1,.8l1.1,4.3h0l1-4.4c0-.5.4-.8.9-.8s.9.3.9.8v.6l-1.4,4.8c-.2.7-.5,1-1.2,1s-1-.3-1.2-1l-1-4h0l-1,4c-.2.7-.5,1-1.2,1s-1-.3-1.2-1h0Z"/>
            <path class="cls-3" d="M626.2,49.8v-5.2c0-.6.3-.9.9-.9s.9.4.9.9v.4h0c.4-.8,1-1.3,2.1-1.3s2.4,1,2.4,2.5v3.5c0,.6-.4,1-.9,1s-.9-.3-.9-1v-3.2c0-.9-.4-1.4-1.2-1.4s-1.4.6-1.4,1.5v3.1c0,.6-.4,1-.9,1s-.9-.3-.9-1h0Z"/>
            <path class="cls-3" d="M195.4,262.8v-5.7c0-.5.3-.8.7-.8s.7.3.7.8v2.2h3.2v-2.2c0-.5.3-.8.7-.8s.7.3.7.8v5.7c0,.5-.3.8-.7.8s-.7-.3-.7-.8v-2.3h-3.2v2.3c0,.5-.3.8-.7.8s-.7-.3-.7-.8Z"/>
            <path class="cls-3" d="M202.4,260.9c0-1.7,1-2.8,2.5-2.8s2.5,1,2.5,2.4-.2.6-.6.6h-3c0,.8.5,1.3,1.2,1.3s.9-.2,1.2-.6c.1-.2.3-.2.5-.2.3,0,.6.2.6.5s0,.2-.1.4c-.4.6-1.2,1-2.2,1-1.6,0-2.6-1-2.6-2.7h0ZM206.1,260.2c0-.7-.5-1.1-1.1-1.1s-1.1.5-1.1,1.1h2.2Z"/>
            <path class="cls-3" d="M208,262c0-1,.7-1.5,2-1.6h1.3v-.4c0-.5-.3-.8-.9-.8s-.7.1-1,.5c-.2.2-.3.3-.6.3s-.6-.2-.6-.5v-.3c.2-.6,1.1-1,2.2-1s2.2.7,2.2,1.8v3c0,.5-.3.7-.7.7s-.6-.2-.7-.6v-.3h0c-.3.6-.9.9-1.6.9-1,0-1.8-.6-1.8-1.6h.2ZM211.3,261.5v-.4h-1.1c-.5.1-.8.4-.8.7s.3.6.8.6,1.1-.4,1.1-1h0Z"/>
            <path class="cls-3" d="M214.8,262.9l-1.4-3.6v-.4c0-.4.3-.6.7-.6s.6.2.7.6l1.1,3.5h0l1.1-3.5c.1-.4.3-.6.7-.6s.7.3.7.6v.4l-1.4,3.7c-.2.5-.5.7-1,.7s-.8-.2-1-.7h-.2Z"/>
            <path class="cls-3" d="M218.6,260.9c0-1.7,1-2.8,2.5-2.8s2.5,1,2.5,2.4-.2.6-.6.6h-3c0,.8.5,1.3,1.2,1.3s.9-.2,1.2-.6c.1-.2.3-.2.5-.2.3,0,.6.2.6.5s0,.2-.1.4c-.4.6-1.2,1-2.2,1-1.6,0-2.6-1-2.6-2.7h0ZM222.2,260.2c0-.7-.5-1.1-1.1-1.1s-1.1.5-1.1,1.1h2.2Z"/>
            <path class="cls-3" d="M224.3,262.9v-4c0-.4.3-.7.7-.7s.7.3.7.7v.3h0c.3-.6.8-1,1.6-1,1.2,0,1.8.7,1.8,2v2.7c0,.5-.3.7-.7.7s-.7-.2-.7-.7v-2.4c0-.7-.3-1.1-1-1.1s-1,.5-1,1.1v2.4c0,.5-.3.7-.7.7s-.7-.2-.7-.7h0Z"/>
            <path class="cls-3" d="M489.3,650.8v-5.5c0-.5.3-.8.7-.8h2.3c1.3,0,2.1.7,2.1,1.8s-.6,1.4-1.3,1.5h0c1,0,1.7.8,1.7,1.7s-.9,2-2.4,2h-2.4c-.5,0-.7-.3-.7-.8h0ZM491.8,647.5c.8,0,1.2-.3,1.2-.9s-.4-.9-1.1-.9h-1.2v1.8h1.1ZM492,650.5c.9,0,1.3-.4,1.3-1s-.5-1-1.3-1h-1.2v2h1.3,0Z"/>
            <path class="cls-3" d="M495.4,649c0-1.7,1-2.7,2.6-2.7s2.6,1,2.6,2.7-1,2.7-2.6,2.7-2.6-1-2.6-2.7ZM499.1,649c0-1-.5-1.6-1.1-1.6s-1.1.6-1.1,1.6.4,1.6,1.1,1.6,1.1-.6,1.1-1.6Z"/>
            <path class="cls-3" d="M501.7,647.5h-.3c-.3,0-.5-.2-.5-.5s.2-.5.5-.5h.3v-.6c0-.5.3-.7.7-.7s.7.3.7.7v.6h.5c.3,0,.5.2.5.5s-.2.5-.5.5h-.5v2.5c0,.4.1.5.4.5h0c.4,0,.5.2.5.5s-.4.6-1,.6h0c-1,0-1.4-.5-1.4-1.4v-2.8h0Z"/>
            <path class="cls-3" d="M505.2,647.5h-.3c-.3,0-.5-.2-.5-.5s.2-.5.5-.5h.3v-.6c0-.5.3-.7.7-.7s.7.3.7.7v.6h.5c.3,0,.5.2.5.5s-.2.5-.5.5h-.5v2.5c0,.4.1.5.4.5h0c.4,0,.5.2.5.5s-.4.6-1,.6h0c-1,0-1.4-.5-1.4-1.4v-2.8h0Z"/>
            <path class="cls-3" d="M508.2,649c0-1.7,1-2.7,2.6-2.7s2.6,1,2.6,2.7-1,2.7-2.6,2.7-2.6-1-2.6-2.7h0ZM511.9,649c0-1-.5-1.6-1.1-1.6s-1.1.6-1.1,1.6.4,1.6,1.1,1.6,1.1-.6,1.1-1.6Z"/>
            <path class="cls-3" d="M514.1,651v-4c0-.5.3-.7.7-.7s.7.2.7.7v.3h0c.2-.6.8-1,1.5-1s1.3.4,1.5,1.1h0c.2-.7.9-1.1,1.6-1.1s1.7.7,1.7,1.8v2.9c0,.5-.3.7-.7.7s-.7-.3-.7-.7v-2.6c0-.6-.3-.9-.8-.9s-.9.4-.9,1v2.5c0,.5-.3.7-.7.7s-.7-.3-.7-.7v-2.6c0-.6-.3-.9-.8-.9s-.9.4-.9,1v2.5c0,.5-.3.7-.7.7s-.7-.3-.7-.7h0Z"/>
            <path class="cls-3" d="M524.8,651v-5.6c0-.6.3-1,1-1s.8.2,1,.8l1.8,4.3h0l1.7-4.3c.2-.5.5-.8,1-.8s1,.3,1,1v5.6c0,.4-.2.7-.7.7s-.7-.2-.7-.7v-4.2h0l-1.7,4.3c0,.3-.3.5-.6.5s-.5,0-.6-.4l-1.7-4.3h0v4.2c0,.4-.2.7-.7.7s-.7-.2-.7-.7h0Z"/>
            <path class="cls-3" d="M533.3,645c0-.4.3-.7.8-.7s.8.3.8.7-.3.7-.8.7-.8-.3-.8-.7ZM533.3,651v-4c0-.5.3-.8.7-.8s.7.3.7.8v4c0,.5-.3.7-.7.7s-.7-.3-.7-.7Z"/>
            <path class="cls-3" d="M535.5,649c0-1.7.8-2.7,2.1-2.7s1.3.4,1.6,1h0v-2.1c0-.5.3-.8.7-.8s.7.3.7.8v5.8c0,.5-.3.7-.7.7s-.7-.2-.7-.7v-.3h0c-.2.6-.8,1-1.6,1-1.3,0-2.1-1-2.1-2.7h0ZM539.3,649c0-1-.5-1.6-1.2-1.6s-1.2.6-1.2,1.6.4,1.5,1.2,1.5,1.2-.6,1.2-1.5Z"/>
            <g class="cls-5">
              <path class="cls-3" d="M384.5,664.7v-5.5c0-.5.3-.8.7-.8h2.3c1.3,0,2.1.7,2.1,1.8s-.6,1.4-1.3,1.5h0c1,0,1.7.8,1.7,1.7s-.9,2-2.4,2h-2.4c-.5,0-.7-.3-.7-.8h0ZM387,661.2c.8,0,1.2-.3,1.2-.9s-.4-.9-1.1-.9h-1.2v1.8h1.1ZM387.2,664.3c.9,0,1.3-.4,1.3-1s-.5-1-1.3-1h-1.2v2h1.3,0Z"/>
            </g>
            <g class="cls-5">
              <path class="cls-3" d="M390.6,662.8c0-1.7,1-2.8,2.5-2.8s2.5,1,2.5,2.4-.2.6-.6.6h-3c0,.8.5,1.3,1.2,1.3s.9-.2,1.2-.6c.1-.2.3-.2.5-.2.3,0,.6.2.6.5s0,.2-.1.3c-.4.6-1.2,1-2.2,1-1.6,0-2.6-1-2.6-2.7h0v.2ZM394.2,662.2c0-.7-.5-1.1-1.1-1.1s-1.1.5-1.1,1.1h2.2Z"/>
            </g>
            <g class="cls-5">
              <path class="cls-3" d="M396.3,660.8c0-.4.3-.7.7-.7s.7.3.7.7v.3h0c.3-.7.8-1,1.6-1,1.2,0,1.8.7,1.8,2v2.7c0,.5-.3.7-.7.7s-.7-.2-.7-.7v-2.4c0-.7-.3-1.1-1-1.1s-1,.5-1,1.2v2.4c0,.5-.3.7-.7.7s-.7-.2-.7-.7h0"/>
            </g>
            <g class="cls-5">
              <path class="cls-3" d="M401.9,662.8c0-1.7.8-2.7,2.1-2.7s1.3.4,1.6,1h0v-2.1c0-.5.3-.8.7-.8s.7.3.7.8v5.8c0,.5-.3.7-.7.7s-.7-.2-.7-.7v-.3h0c-.2.6-.8,1-1.6,1-1.3,0-2.1-1-2.1-2.7h0ZM405.7,662.8c0-1-.5-1.6-1.2-1.6s-1.2.6-1.2,1.6.4,1.5,1.2,1.5,1.2-.6,1.2-1.5Z"/>
            </g>
            <path class="cls-3" d="M356.7,301.8v-5.5c0-.5.3-.8.7-.8h2.3c1.3,0,2.1.7,2.1,1.8s-.6,1.4-1.3,1.5h0c1,.1,1.7.8,1.7,1.7s-.9,2-2.4,2h-2.4c-.5,0-.7-.3-.7-.8h0ZM359.2,298.5c.8,0,1.2-.4,1.2-.9s-.4-.9-1.1-.9h-1.2v1.8h1.1ZM359.5,301.5c.9,0,1.3-.4,1.3-1s-.5-1-1.3-1h-1.2v2h1.3,0Z"/>
            <path class="cls-3" d="M365.1,301.8v-5.6c0-.5.3-.8.7-.8s.7.3.7.8v5.1h2.5c.4,0,.7.2.7.6s-.3.6-.7.6h-3.2c-.5,0-.7-.3-.7-.8h0Z"/>
            <path class="cls-3" d="M370.4,295.9c0-.4.3-.7.8-.7s.8.3.8.7-.3.7-.8.7-.8-.3-.8-.7ZM370.4,301.9v-4c0-.5.3-.8.7-.8s.7.3.7.8v4c0,.5-.3.7-.7.7s-.7-.3-.7-.7Z"/>
            <path class="cls-3" d="M372.8,301.9v-4c0-.4.3-.7.7-.7s.7.3.7.7v.3h0c.3-.6.8-1,1.6-1,1.2,0,1.8.7,1.8,2v2.7c0,.5-.3.7-.7.7s-.7-.2-.7-.7v-2.4c0-.7-.3-1.1-1-1.1s-1,.5-1,1.1v2.4c0,.5-.3.7-.7.7s-.7-.2-.7-.7h0Z"/>
            <path class="cls-3" d="M378.6,301.9v-5.8c0-.5.3-.8.7-.8s.7.3.7.8v3.2h0l1.9-1.9c.2-.2.4-.3.6-.3.4,0,.6.3.6.6s0,.4-.3.5l-1.3,1.3,1.5,1.9c.2.2.2.3.2.5,0,.4-.3.6-.7.6s-.5-.1-.7-.4l-1.3-1.8-.5.4v1.1c0,.5-.3.7-.7.7s-.7-.2-.7-.7h0Z"/>
            <path class="cls-3" d="M163.1,380.5v-16c0-1.4.8-2.2,2.1-2.2h6.8c3.8,0,6.2,2,6.2,5.1s-1.7,4.1-3.8,4.4h0c2.8.3,4.8,2.3,4.8,5s-2.7,5.9-7.1,5.9h-6.9c-1.4,0-2.1-.8-2.1-2.2h0ZM170.5,370.9c2.3,0,3.6-1,3.6-2.7s-1.1-2.6-3.1-2.6h-3.5v5.3h3.1-.1ZM171.1,379.6c2.5,0,3.8-1,3.8-3s-1.4-2.9-3.9-2.9h-3.6v5.9h3.7Z"/>
            <path class="cls-3" d="M1011.5,378c-1.1,0-1.8-.6-2.2-1.9l-1.1-3.2h-7.4l-1.1,3.2c-.4,1.3-1,1.9-2.2,1.9s-2.1-.8-2.1-2,0-.8.3-1.4l5.6-15.2c.6-1.7,1.6-2.4,3.3-2.4s2.6.8,3.2,2.4l5.6,15.2c.2.5.3,1,.3,1.4,0,1.2-.8,2-2.2,2h0ZM1007.3,369.6l-2.7-8.4h0l-2.7,8.4h5.5,0Z"/>
            <path class="cls-3" d="M213.8,821.7v-5.5c0-.5.3-.8.7-.8h2.3c1.3,0,2.1.7,2.1,1.8s-.6,1.4-1.3,1.5h0c1,0,1.7.8,1.7,1.7s-.9,2-2.4,2h-2.4c-.5,0-.7-.3-.7-.8h0ZM216.3,818.3c.8,0,1.2-.3,1.2-.9s-.4-.9-1.1-.9h-1.2v1.8h1.1ZM216.5,821.3c.9,0,1.3-.4,1.3-1s-.5-1-1.3-1h-1.2v2h1.3-.1Z"/>
            <path class="cls-3" d="M222.2,821.7v-5.6c0-.5.3-.8.7-.8s.7.3.7.8v5.2h2.5c.4,0,.7.2.7.6s-.3.6-.7.6h-3.2c-.5,0-.7-.3-.7-.8Z"/>
            <path class="cls-3" d="M227.2,819.8c0-1.7,1-2.7,2.6-2.7s2.6,1,2.6,2.7-1,2.7-2.6,2.7-2.6-1-2.6-2.7ZM230.9,819.8c0-1-.4-1.6-1.1-1.6s-1.1.6-1.1,1.6.4,1.6,1.1,1.6,1.1-.6,1.1-1.6Z"/>
            <path class="cls-3" d="M233.2,821.8v-5.8c0-.5.3-.8.7-.8s.7.3.7.8v2.1h0c.3-.6.9-1,1.6-1,1.3,0,2.1,1,2.1,2.7s-.8,2.7-2.1,2.7-1.4-.4-1.6-1h0v.3c0,.5-.3.7-.7.7s-.7-.2-.7-.7h0ZM236.9,819.8c0-1-.4-1.6-1.1-1.6s-1.2.6-1.2,1.6.5,1.5,1.2,1.5,1.1-.6,1.1-1.5Z"/>
            <path class="cls-3" d="M239.1,821.8v-5.8c0-.5.3-.8.7-.8s.7.3.7.8v2.1h0c.3-.6.9-1,1.6-1,1.3,0,2.1,1,2.1,2.7s-.8,2.7-2.1,2.7-1.4-.4-1.6-1h0v.3c0,.5-.3.7-.7.7s-.7-.2-.7-.7h0ZM242.9,819.8c0-1-.4-1.6-1.1-1.6s-1.2.6-1.2,1.6.5,1.5,1.2,1.5,1.1-.6,1.1-1.5Z"/>
            <path class="cls-3" d="M244.9,823.8c0-.3.2-.5.5-.5h.2c.2,0,.5,0,.7-.5v-.2l-1.6-4.4v-.4c0-.4.3-.7.7-.7s.6.2.7.6l1.1,3.6h0l1.1-3.6c.1-.4.3-.6.7-.6s.7.3.7.6v.4l-1.6,4.4c-.5,1.3-1.1,1.8-2.2,1.8s-1-.2-1-.7h0v.2h0Z"/>
            <path class="cls-3" d="M276.8,610.2v-5.5c0-.5.3-.8.7-.8h2.3c1.3,0,2.1.7,2.1,1.8s-.6,1.4-1.3,1.5h0c1,0,1.7.8,1.7,1.7s-.9,2-2.4,2h-2.4c-.5,0-.7-.3-.7-.8h0ZM279.3,606.8c.8,0,1.2-.3,1.2-.9s-.4-.9-1.1-.9h-1.2v1.8h1.1ZM279.5,609.8c.9,0,1.3-.4,1.3-1s-.5-1-1.3-1h-1.2v2h1.3,0Z"/>
            <path class="cls-3" d="M285.2,610.3v-5.6c0-.6.4-1,1-1s.8.2,1,.8l1.8,4.3h0l1.7-4.3c.2-.5.5-.8,1-.8s1,.3,1,1v5.6c0,.4-.2.7-.7.7s-.6-.2-.6-.7v-4.2h0l-1.7,4.3c-.1.3-.3.5-.6.5s-.5,0-.6-.4l-1.7-4.3h0v4.2c0,.4-.2.7-.6.7s-.7-.2-.7-.7h-.3,0Z"/>
            <path class="cls-3" d="M293.4,609.5c0-1,.7-1.5,2-1.6h1.3v-.4c0-.5-.3-.8-.9-.8s-.7,0-1,.5c-.2.2-.3.3-.6.3s-.6-.2-.6-.5v-.3c.2-.6,1.1-1,2.2-1s2.2.7,2.2,1.8v3c0,.5-.3.7-.7.7s-.6-.2-.7-.6v-.3h0c-.3.6-1,.9-1.6.9-1,0-1.8-.6-1.8-1.6h.2ZM296.7,609v-.4h-1.1c-.5,0-.8.4-.8.7s.3.6.8.6,1.1-.4,1.1-1h0Z"/>
            <path class="cls-3" d="M299,604.3c0-.4.3-.7.8-.7s.8.3.8.7-.3.7-.8.7-.8-.3-.8-.7ZM299.1,610.3v-4c0-.5.3-.8.7-.8s.7.3.7.8v4c0,.5-.3.7-.7.7s-.7-.3-.7-.7Z"/>
            <path class="cls-3" d="M301.5,610.3v-4c0-.4.3-.7.7-.7s.7.3.7.7v.3h0c.3-.7.8-1,1.6-1,1.2,0,1.8.7,1.8,2v2.7c0,.5-.3.7-.7.7s-.7-.2-.7-.7v-2.4c0-.7-.3-1.1-1-1.1s-1,.5-1,1.2v2.4c0,.5-.3.7-.7.7s-.7-.2-.7-.7h0Z"/>
            <path class="cls-3" d="M495.3,437.8v-5.6c0-.6.4-1,1-1s.8.2,1,.8l1.8,4.3h0l1.7-4.3c.2-.5.5-.8,1-.8s1,.4,1,1v5.6c0,.4-.2.7-.7.7s-.6-.2-.6-.7v-4.2h0l-1.7,4.3c-.1.3-.3.5-.6.5s-.5-.1-.6-.4l-1.7-4.3h0v4.2c0,.4-.2.7-.6.7s-.7-.2-.7-.7h-.3,0Z"/>
            <path class="cls-3" d="M503.8,431.6c0-.4.3-.7.8-.7s.8.3.8.7-.3.7-.8.7-.8-.3-.8-.7ZM503.9,437.6v-4c0-.5.3-.8.7-.8s.7.3.7.8v4c0,.5-.3.7-.7.7s-.7-.3-.7-.7Z"/>
            <path class="cls-3" d="M506.1,435.6c0-1.7.8-2.7,2.1-2.7s1.3.4,1.6,1h0v-2.1c0-.5.3-.8.7-.8s.7.3.7.8v5.8c0,.5-.3.7-.7.7s-.7-.2-.7-.7v-.3h0c-.2.6-.8,1-1.6,1-1.3,0-2.1-1-2.1-2.7h0ZM509.8,435.6c0-1-.5-1.6-1.2-1.6s-1.2.6-1.2,1.6.4,1.5,1.2,1.5,1.2-.6,1.2-1.5Z"/>
            <path class="cls-3" d="M785.4,781.8v-.5l1.9-5.2c.2-.6.5-.8,1.1-.8s.9.2,1.1.8l1.9,5.2v.5c0,.4-.3.7-.7.7s-.6-.2-.8-.7l-.4-1.1h-2.5l-.4,1.1c0,.5-.4.7-.8.7s-.8-.3-.8-.7h.4ZM789.4,779.5l-.9-2.9h0l-.9,2.9h1.9,0Z"/>
            <path class="cls-3" d="M794.5,781.5v-5.6c0-.5.3-.8.7-.8s.7.3.7.8v5.2h2.5c.4,0,.7.2.7.6s-.3.6-.7.6h-3.2c-.5,0-.7-.3-.7-.8Z"/>
            <path class="cls-3" d="M799.6,779.7c0-1.7,1-2.7,2.6-2.7s2.6,1,2.6,2.7-1,2.7-2.6,2.7-2.6-1-2.6-2.7ZM803.3,779.7c0-1-.5-1.6-1.1-1.6s-1.2.6-1.2,1.6.4,1.6,1.2,1.6,1.1-.6,1.1-1.6Z"/>
            <path class="cls-3" d="M805.5,781.7v-5.8c0-.5.3-.8.7-.8s.7.3.7.8v2.1h0c.3-.6.9-1,1.6-1,1.3,0,2.1,1,2.1,2.7s-.8,2.7-2.1,2.7-1.3-.4-1.6-1h0v.3c0,.5-.3.7-.7.7s-.7-.2-.7-.7h0ZM809.2,779.7c0-1-.4-1.6-1.2-1.6s-1.2.6-1.2,1.6.5,1.5,1.2,1.5,1.2-.6,1.2-1.5Z"/>
            <path class="cls-3" d="M811.5,781.7v-5.8c0-.5.3-.8.7-.8s.7.3.7.8v2.1h0c.3-.6.9-1,1.6-1,1.3,0,2.1,1,2.1,2.7s-.8,2.7-2.1,2.7-1.3-.4-1.6-1h0v.3c0,.5-.3.7-.7.7s-.7-.2-.7-.7h0ZM815.2,779.7c0-1-.4-1.6-1.2-1.6s-1.2.6-1.2,1.6.5,1.5,1.2,1.5,1.2-.6,1.2-1.5Z"/>
            <path class="cls-3" d="M817.2,783.5c0-.3.2-.5.5-.5h.2c.2,0,.5,0,.7-.5v-.2l-1.6-4.4v-.4c0-.4.3-.7.7-.7s.6.2.7.6l1.1,3.6h0l1.1-3.6c0-.4.3-.6.7-.6s.7.3.7.6v.4l-1.6,4.4c-.5,1.3-1.1,1.8-2.2,1.8s-1-.2-1-.7h0v.2h0Z"/>
            <path class="cls-3" d="M769.9,485.4v-5.7c0-.5.3-.8.7-.8s.7.3.7.8v2.2h3.2v-2.2c0-.5.3-.8.7-.8s.7.3.7.8v5.7c0,.5-.3.8-.7.8s-.7-.3-.7-.8v-2.3h-3.2v2.3c0,.5-.3.8-.7.8s-.7-.3-.7-.8Z"/>
            <path class="cls-3" d="M776.9,483.4c0-1.7,1-2.8,2.5-2.8s2.5,1,2.5,2.4-.2.6-.6.6h-3c0,.8.5,1.3,1.2,1.3s.9-.2,1.2-.6c.2-.2.3-.2.5-.2.3,0,.6.2.6.5v.4c-.3.6-1.2,1-2.2,1-1.6,0-2.6-1-2.6-2.7h-.1ZM780.5,482.9c0-.7-.5-1.1-1.1-1.1s-1.1.5-1.1,1.1h2.2Z"/>
            <path class="cls-3" d="M782.4,484.5c0-1,.7-1.5,2-1.6h1.3v-.4c0-.5-.3-.8-.9-.8s-.7.1-1,.5c-.2.2-.3.3-.6.3s-.6-.2-.6-.5v-.3c.2-.6,1.1-1,2.2-1s2.2.7,2.2,1.8v3c0,.5-.3.7-.7.7s-.7-.2-.7-.6v-.3h0c-.3.6-1,.9-1.6.9-1,0-1.8-.6-1.8-1.6h.2,0ZM785.8,484v-.4h-1.1c-.5.1-.8.4-.8.7s.3.6.8.6,1.1-.4,1.1-1h0Z"/>
            <path class="cls-3" d="M789.2,485.4l-1.4-3.6v-.4c0-.4.3-.6.7-.6s.6.2.7.6l1.1,3.5h0l1.1-3.5c0-.4.3-.6.7-.6s.7.3.7.6v.4l-1.4,3.7c-.2.5-.5.7-1,.7s-.8-.2-1-.7h-.2,0Z"/>
            <path class="cls-3" d="M793,483.4c0-1.7,1-2.8,2.5-2.8s2.5,1,2.5,2.4-.2.6-.6.6h-3c0,.8.5,1.3,1.2,1.3s.9-.2,1.2-.6c.2-.2.3-.2.5-.2.3,0,.6.2.6.5v.4c-.3.6-1.2,1-2.2,1-1.6,0-2.6-1-2.6-2.7h-.1ZM796.7,482.9c0-.7-.5-1.1-1.1-1.1s-1.1.5-1.1,1.1h2.2Z"/>
            <path class="cls-3" d="M798.7,485.4v-4c0-.4.3-.7.7-.7s.7.3.7.7v.3h0c.3-.6.8-1,1.6-1,1.2,0,1.8.7,1.8,2v2.7c0,.5-.3.7-.7.7s-.7-.2-.7-.7v-2.4c0-.7-.3-1.1-1-1.1s-1,.5-1,1.1v2.4c0,.5-.3.7-.7.7s-.7-.2-.7-.7h0Z"/>
            <path class="cls-3" d="M111.6,663v-5.8c0-.5.3-.7.7-.7s.5,0,.7.4l3.1,4.3h0v-4c0-.5.3-.7.7-.7s.7.3.7.7v5.8c0,.5-.3.7-.7.7s-.5,0-.7-.4l-3.1-4.3h0v4c0,.5-.3.7-.7.7s-.7-.3-.7-.7h0Z"/>
            <path class="cls-3" d="M118.5,661c0-1.7,1-2.8,2.5-2.8s2.5,1,2.5,2.4-.2.6-.6.6h-3c0,.8.5,1.3,1.2,1.3s.9-.2,1.2-.6c.2-.2.3-.2.5-.2.3,0,.6.2.6.5v.3c-.3.6-1.2,1-2.2,1-1.6,0-2.6-1-2.6-2.7h0v.2h0ZM122.1,660.5c0-.7-.5-1.1-1.1-1.1s-1.1.5-1.1,1.1h2.2Z"/>
            <path class="cls-3" d="M124.1,662.7v-.3c0-.3.2-.5.6-.5s.4,0,.6.3c.3.4.6.5,1.1.5s.9-.2.9-.6-.2-.4-.7-.5l-.9-.2c-1-.2-1.5-.7-1.5-1.5s.9-1.7,2.2-1.7,1.9.5,2.1,1.1v.2c0,.3-.2.5-.6.5s-.4,0-.5-.2c-.2-.3-.5-.6-1-.6s-.8.2-.8.6.2.5.7.6l.9.2c1.1.2,1.6.6,1.6,1.4s-.9,1.7-2.3,1.7-2-.4-2.2-1h-.2Z"/>
            <path class="cls-3" d="M129.8,659.5h-.3c-.3,0-.6-.2-.6-.5s.2-.5.6-.5h.3v-.6c0-.5.3-.7.7-.7s.7.3.7.7v.6h.5c.3,0,.6.2.6.5s-.2.5-.6.5h-.5v2.5c0,.4.1.5.4.5h0c.4,0,.5.2.5.5s-.4.6-1,.6h0c-.9,0-1.4-.5-1.4-1.4v-2.8h.1Z"/>
          </g>
        </g>
        <polygon class="cls-3" points="272 341.7 252.5 324.4 96 324.4 96 359.4 105 359.4 105 456.4 74 456.4 74 359.4 82 359.4 82 324.4 49.9 324.4 49.9 325.4 81 325.4 81 358.4 73 358.4 73 457.4 106 457.4 106 416.1 106 408.4 106 407.4 106 375.4 106 374.4 106 359.4 106 358.4 97 358.4 97 325.4 252 325.4 271.2 342.9 271.2 358.4 271.2 357.4 272 341.7"/>
        <g>
          <rect class="cls-2" x="73.8" y="376.7" width="13.4" height="57.1"/>
          <path class="cls-3" d="M87.7,434.3h-14.4v-58.1h14.4v58.1ZM74.3,433.3h12.4v-56.1h-12.4v56.1Z"/>
        </g>
        <g>
          <rect class="cls-2" x="105.6" y="377.4" width="13.4" height="14.5"/>
          <path class="cls-3" d="M119.5,392.5h-14.4v-15.5h14.4v15.5ZM106.1,391.5h12.4v-13.5h-12.4v13.5Z"/>
        </g>
        <g>
          <rect class="cls-2" x="188.6" y="434.7" width="16.5" height="18"/>
          <path class="cls-3" d="M205.6,453.1h-17.5v-19h17.5v19ZM189.1,452.1h15.5v-17h-15.5v17Z"/>
        </g>
        <g>
          <rect class="cls-2" x="105.6" y="392" width="30.7" height="14.5"/>
          <path class="cls-3" d="M136.8,407h-31.7v-15.5h31.7v15.5ZM106.1,406h29.7v-13.5h-29.7v13.5Z"/>
        </g>
        <g>
          <circle class="cls-2" cx="123.4" cy="387.8" r="3.2"/>
          <path class="cls-3" d="M123.4,391.5c-2,0-3.7-1.7-3.7-3.7s1.7-3.7,3.7-3.7,3.7,1.7,3.7,3.7-1.7,3.7-3.7,3.7ZM123.4,385.1c-1.5,0-2.7,1.2-2.7,2.7s1.2,2.7,2.7,2.7,2.7-1.2,2.7-2.7-1.2-2.7-2.7-2.7Z"/>
        </g>
        <g>
          <circle class="cls-2" cx="123.4" cy="380.6" r="3.2"/>
          <path class="cls-3" d="M123.4,384.3c-2,0-3.7-1.7-3.7-3.7s1.7-3.7,3.7-3.7,3.7,1.7,3.7,3.7-1.7,3.7-3.7,3.7ZM123.4,377.9c-1.5,0-2.7,1.2-2.7,2.7s1.2,2.7,2.7,2.7,2.7-1.2,2.7-2.7-1.2-2.7-2.7-2.7Z"/>
        </g>
        <path class="cls-3" d="M204.5,385.2l-12.8-12.8,12.8-12.8,12.8,12.8-12.8,12.8ZM193.2,372.4l11.4,11.4,11.4-11.4-11.4-11.4-11.4,11.4Z"/>
        <path class="cls-3" d="M222.7,391.3l-12.8-12.8,12.8-12.8,12.8,12.8-12.8,12.8ZM211.4,378.5l11.4,11.4,11.4-11.4-11.4-11.4-11.4,11.4Z"/>
        <path class="cls-3" d="M151.3,308.8v15.6H50.4v-15.6h100.9M152.3,307.8H49.4v17.6h102.9v-17.6h0Z"/>
        <path class="cls-3" d="M119.1,571.8H54.4v-64.4h64.6s0,64.4,0,64.4ZM55.4,570.8h62.6v-62.4h-62.6v62.4Z"/>
        <rect class="cls-3" x="251.1" y="291.6" width="1" height="33.3"/>
        <g>
          <path class="cls-3" d="M601.1,391.5h-33v-107h-33v98.9h2v33h6v33h-6v132h-19.1v33h50.1v-60c-1.8-1.1-3-3-3-5.2s1.2-4.2,3-5.2v-31.3c-1.8-1.1-3-3-3-5.2s1.2-4.2,3-5.2v-31.4c-1.8-1.1-3-3-3-5.2s1.2-4.2,3-5.2v-28h33v42h50v-58h132v-81h2v-2h-184v58ZM602.1,334.5h179.9v80.9h-132v58h-47.9v-42h-35.1v28.5c-1.8,1.3-3,3.5-3,5.8s1.1,4.5,3,5.8v30.2c-1.8,1.3-3,3.5-3,5.8s1.1,4.5,3,5.8v30.2c-1.8,1.3-3,3.5-3,5.8s1.1,4.5,3,5.8v58.4h-48v-30.9h19.1v-132h6v-35.1h-6v-33h-2v-96.9h0c0-.1,30.9-.1,30.9-.1v107h35.1v-58Z"/>
          <path class="cls-3" d="M502.1,234.4h99l33,33v33h83v-66h2v-2h-2v-62h2v-2h-2v-16h-282.3l-15.7,15.9v149.1h83v-83ZM501,316.4h-80.9v-147.6l15.1-15.3h280.8v145.9h-80.9v-32.4l-.3-.3-33-33-.3-.3h-100.5v83h0Z"/>
          <path class="cls-3" d="M251.6,326.1l19.5,16v57.4h49v-123.1h-69.2v16c.1,0,.7,33.7.7,33.7ZM319,277.5v120.9h-46.9c0,0,0-56.7,0-56.7l-.3-.3-19.5-16-.3-.3v-33.7s-.1-13.9-.1-13.9h67.1Z"/>
          <path class="cls-3" d="M816.1,333.5h-2v2h2v73.7l8,37.3v11h8v-124h83v-66h-99v66ZM817.1,268.5h96.9v63.9h-83v124h-5.9v-10.1c0-.1-8-37.3-8-37.3v-140.5Z"/>
          <path class="cls-3" d="M832.1,515.3v-8h-8v8h-74v-83h-50v58h-99v91h83v116h-33v24h-9v17h9v25h99v-182h148v-33l-32.7-33h-33.3ZM897,580.3h-148v182h-96.9v-25h-9v-14.9h9v-24h33v-118.1h-83v-88.9h99v-58h47.9v83h76.1v-8h5.9v8h33.9l32.1,32.4v31.5Z"/>
          <path class="cls-3" d="M242.1,728.3h-2v2h6v-58h-4v56ZM243.1,673.5h1.9v55.9h-1.9v-55.9Z"/>
          <path class="cls-3" d="M1031.1,417.5v-118.1h-66v-30.9h33v-68.1h-134.1v33h-112.9v-63.9h33v-84.1h-99V2.4h-200.1v83h-133v117.1h33v39.9h-199.2v35.1h16.1v13.9H57.8l-.3.3-8.3,16-.3.3v16.4c.1,0-9.9,0-9.9,0v167.1h99v96.9H39v52.1h56.9v41h112.1v47.9h-4v40.8l-34.7,34.5-.3.3v58.5h185.1v-33h96.9v132h217.1v-132h63.9v33h134.1v-134.1h-33v-80.9h30.9v33h134.1v-33h17v-33h12v-35.1h-70v-30.9h74v-68.1h-16v-63.9h16ZM1030,482.4v66h-74v33h70v33h-12v33h-17v33h-132v-33h-33v83h33v132h-132v-33h-66v132h-215v-132h-99v33h-183v-57l35-34.8v-40.2h6v-2h-2v-48h-112.1v-41h-56.9v-50h99v-99H40v-165h10v-17c-.1,0,8.2-16,8.2-16h144.8v-16h-16.1v-33h199.2v-42h-33v-115h133V3.3h198v83h99v82h-35v2h2v62h-2v2h117v-33h132v66h-33v33h66v116h-16v66h16Z"/>
          <path class="cls-3" d="M931.1,482.4h66v-66h-66v66ZM932.1,417.5h63.9v63.9h-63.9v-63.9Z"/>
          <path class="cls-3" d="M147.1,647.3h95v9h4v-17h-99v8ZM148.1,640.5h96.9v14.9h-1.9v-9h-95v-5.9h0Z"/>
          <rect class="cls-3" x="783.1" y="606.3" width="2" height="16"/>
          <path class="cls-3" d="M485.1,928.3h67v-66h-67v66ZM486.1,863.5h64.9v63.9h-64.9v-63.9h0Z"/>
        </g>
        <path class="cls-3" d="M585.1,721.3v-57h-17v16h-100.1c0,0-19,0-19,0v-65.3h16.5v-64.2h-55.4v72.6h-60.3l-20.6,16.3h-.2v1.7h0v38.8h-33v99.9l16,16.1h107v-33h99v33h67v-58h8v-17h-8ZM592,737.3h-8v58h-64.9v-33h-101.1v33h-105.5l-15.4-15.5v-98.5h33v-40.1h0v-.8l20.1-16h60.9v-72.6h53.4v62.2h-16.5v67.3h121.1s0-16,0-16h14.9v57h8v14.9Z"/>
        <path class="cls-3" d="M353,350.4v33h17v68.8h-182v137.2h33v-16h154.2s0-58.8,0-58.8h92.9v-1,1s.9,0,.9,0v-164.2h-116ZM374.2,513.5v58.8h-154.1s0,16,0,16h-30.9v-135.1h182v-70.9h-17v-30.9h113.9v162.1h-93.9Z"/>
        <rect class="cls-3" x="350.7" y="572.7" width="1" height="51.3"/>
        <rect class="cls-3" x="374.2" y="614.1" width="1" height="9.9"/>
        <rect class="cls-3" x="374.2" y="571.8" width="1" height="9.9"/>
      </g>
    </g>
  </g>
</svg>