<?xml version="1.0" encoding="UTF-8" standalone="no"?>
<svg
   version="1.1"
   viewBox="0 0 1084 964.8"
   id="svg186"
   sodipodi:docname="abyssfull.svg"
   inkscape:version="1.4.2 (f4327f4, 2025-05-13)"
   xmlns:inkscape="http://www.inkscape.org/namespaces/inkscape"
   xmlns:sodipodi="http://sodipodi.sourceforge.net/DTD/sodipodi-0.dtd"
   xmlns="http://www.w3.org/2000/svg"
   xmlns:svg="http://www.w3.org/2000/svg">
  <sodipodi:namedview
     id="namedview186"
     pagecolor="#505050"
     bordercolor="#eeeeee"
     borderopacity="1"
     inkscape:showpageshadow="0"
     inkscape:pageopacity="0"
     inkscape:pagecheckerboard="0"
     inkscape:deskcolor="#505050"
     inkscape:zoom="1.1829088"
     inkscape:cx="611.20522"
     inkscape:cy="108.63053"
     inkscape:window-width="1920"
     inkscape:window-height="1009"
     inkscape:window-x="1912"
     inkscape:window-y="-8"
     inkscape:window-maximized="1"
     inkscape:current-layer="g185" />
  <defs
     id="defs1">
    <style
       id="style1">
      .cls-1 {
        fill: #3d3d3d;
      }

      .cls-2 {
        fill: #7e7f7e;
      }

      .cls-3 {
        fill: #fff;
      }

      .cls-4 {
        fill: #535353;
      }

      .cls-5 {
        display: none;
      }
    </style>
  </defs>
  <!-- Generator: Adobe Illustrator 28.6.0, SVG Export Plug-In . SVG Version: 1.2.0 Build 709)  -->
  <g
     id="g186"
     transform="rotate(180,535.05,482.4)">
    <g
       id="Layer_1">
      <g
         id="g185">
        <g
           id="Layer_1-2"
           data-name="Layer_1">
          <g
             id="Callouts_copy">
            <path
               class="cls-3"
               d="m 655.1,894.7 v 0.6 l -2.5,6.8 c -0.3,0.7 -0.7,1.1 -1.4,1.1 -0.7,0 -1.2,-0.3 -1.5,-1.1 l -2.5,-6.8 v -0.6 c 0,-0.5 0.4,-0.9 1,-0.9 0.6,0 0.8,0.2 1,0.8 l 0.5,1.5 h 3.3 l 0.5,-1.4 c 0.2,-0.6 0.5,-0.9 1,-0.9 0.5,0 1,0.3 1,0.9 z m -5.3,3 1.2,3.8 v 0 l 1.2,-3.8 z"
               id="path45" />
            <path
               class="cls-3"
               d="m 645.9,899.4 h 0.4 c 0.4,0 0.7,0.3 0.7,0.7 0,0.4 -0.3,0.7 -0.7,0.7 h -0.4 v 0.8 c 0,0.6 -0.3,1 -0.9,1 -0.6,0 -0.9,-0.4 -0.9,-1 v -0.8 h -0.7 c -0.4,0 -0.7,-0.3 -0.7,-0.7 0,-0.4 0.3,-0.7 0.7,-0.7 h 0.7 v -3.3 c 0,-0.5 -0.2,-0.7 -0.6,-0.7 v 0 c -0.5,0 -0.7,-0.2 -0.7,-0.7 0,-0.5 0.5,-0.8 1.3,-0.8 v 0 c 1.2,0 1.9,0.6 1.9,1.8 v 3.7 0 z"
               id="path46" />
            <path
               class="cls-3"
               d="m 641.2,899.4 h 0.4 c 0.4,0 0.7,0.3 0.7,0.7 0,0.4 -0.3,0.7 -0.7,0.7 h -0.4 v 0.8 c 0,0.6 -0.3,1 -0.9,1 -0.6,0 -0.9,-0.4 -0.9,-1 v -0.8 h -0.7 c -0.4,0 -0.7,-0.3 -0.7,-0.7 0,-0.4 0.3,-0.7 0.7,-0.7 h 0.7 v -3.3 c 0,-0.5 -0.2,-0.7 -0.6,-0.7 v 0 c -0.5,0 -0.7,-0.2 -0.7,-0.7 0,-0.5 0.5,-0.8 1.3,-0.8 v 0 c 1.2,0 1.9,0.6 1.9,1.8 v 3.7 0 z"
               id="path47" />
            <path
               class="cls-3"
               d="m 637.4,895.9 c 0,1.2 -1,2 -2.7,2.1 H 633 v 0.5 c 0,0.6 0.4,1 1.1,1 0.7,0 0.9,-0.2 1.3,-0.7 0.2,-0.2 0.4,-0.3 0.7,-0.3 0.5,0 0.8,0.3 0.8,0.7 v 0.4 c -0.3,0.8 -1.4,1.3 -2.8,1.3 -1.4,0 -2.9,-0.9 -2.9,-2.3 v -3.9 c 0,-0.6 0.4,-0.9 0.9,-0.9 0.5,0 0.8,0.3 0.9,0.8 v 0.3 0 c 0.4,-0.7 1.2,-1.2 2.1,-1.2 1.3,0 2.3,0.8 2.3,2.1 v 0 z m -4.3,0.6 v 0.5 h 1.4 c 0.7,0 1.1,-0.5 1.1,-0.9 0,-0.4 -0.4,-0.8 -1,-0.8 -0.6,0 -1.5,0.5 -1.5,1.3 v 0 z"
               id="path48" />
            <path
               class="cls-3"
               d="m 630.3,897.4 c 0,2.2 -1.3,3.5 -3.3,3.5 -2,0 -2.5,-0.7 -2.9,-1.6 v -0.5 c 0,-0.5 0.4,-0.7 0.8,-0.7 0.4,0 0.6,0.2 0.8,0.5 0.3,0.6 0.8,0.9 1.3,0.9 0.9,0 1.5,-0.8 1.5,-2.1 0,-1.3 -0.6,-2.1 -1.5,-2.1 -0.9,0 -1,0.3 -1.3,0.8 -0.2,0.4 -0.5,0.5 -0.8,0.5 -0.3,0 -0.8,-0.3 -0.8,-0.7 v -0.5 c 0.4,-0.9 1.6,-1.6 2.9,-1.6 2,0 3.3,1.3 3.3,3.5 v 0 z"
               id="path49" />
            <path
               class="cls-3"
               d="m 622.9,894.7 v 7.5 c 0,0.6 -0.4,1 -0.9,1 -0.5,0 -0.9,-0.3 -0.9,-1 v -4.2 0 l -2.5,2.5 c -0.2,0.3 -0.5,0.4 -0.7,0.4 -0.5,0 -0.8,-0.3 -0.8,-0.8 0,-0.5 0,-0.5 0.3,-0.7 l 1.7,-1.6 -1.9,-2.4 c -0.2,-0.3 -0.3,-0.4 -0.3,-0.7 0,-0.5 0.4,-0.8 0.9,-0.8 0.5,0 0.6,0 0.9,0.6 l 1.8,2.3 0.6,-0.5 v -1.4 c 0,-0.6 0.4,-1 0.9,-1 0.5,0 0.9,0.3 0.9,1 v 0 z"
               id="path50" />
            <path
               class="cls-3"
               d="m 616.5,897.4 c 0,2.2 -1.3,3.6 -3.3,3.6 -2,0 -3.2,-1.3 -3.2,-3.2 0,-1.9 0.3,-0.8 0.8,-0.8 h 3.9 c 0,-1.1 -0.6,-1.8 -1.5,-1.8 -0.9,0 -1.1,0.2 -1.6,0.8 -0.2,0.2 -0.4,0.3 -0.6,0.3 -0.4,0 -0.7,-0.2 -0.7,-0.7 v -0.5 c 0.5,-0.8 1.5,-1.3 2.8,-1.3 2.1,0 3.4,1.3 3.4,3.5 v 0 z m -4.7,0.6 c 0,0.9 0.6,1.5 1.4,1.5 0.8,0 1.4,-0.6 1.5,-1.5 z"
               id="path51" />
            <path
               class="cls-3"
               d="m 609.1,894.7 v 5.2 c 0,0.6 -0.4,0.9 -0.9,0.9 -0.5,0 -0.9,-0.3 -0.9,-0.9 v -0.4 0 c -0.2,0.8 -0.7,1.3 -1.4,1.3 -0.7,0 -0.4,0 -0.6,-0.2 -0.2,0 -0.3,-0.4 -0.3,-0.7 0,-0.3 0,-0.5 0.3,-0.7 0.3,-0.2 0.4,-0.2 0.8,-0.2 0.8,0 1.1,-0.5 1.1,-1.3 v -3 c 0,-0.6 0.4,-1 0.9,-1 0.5,0 0.9,0.3 0.9,1 z"
               id="path52" />
            <path
               class="cls-3"
               d="m 601.7,895.5 v 0.5 c 0,0.5 -0.3,0.8 -0.8,0.8 -0.5,0 -0.7,-0.2 -0.9,-0.6 -0.3,-0.7 -1,-1 -1.9,-1 -0.9,0 -1.7,0.5 -1.7,1.2 0,0.7 0.4,1 1.6,1.2 l 1,0.2 c 1.8,0.4 2.7,1.2 2.7,2.6 0,1.4 -1.5,2.8 -3.5,2.8 -2,0 -2.9,-0.7 -3.3,-1.9 v -0.4 c 0,-0.5 0.3,-0.8 0.8,-0.8 0.5,0 0.7,0.2 0.9,0.6 0.3,0.7 0.9,1 1.7,1 0.8,0 1.6,-0.4 1.6,-1.1 0,-0.7 -0.4,-0.9 -1.5,-1.1 l -1,-0.2 c -1.9,-0.4 -2.8,-1.2 -2.8,-2.6 0,-1.4 1.4,-2.9 3.7,-2.9 2.3,0 3.1,0.8 3.5,1.8 v 0 z"
               id="path53" />
            <path
               class="cls-3"
               d="m 593.6,892.5 v 7.5 c 0,0.6 -0.4,1 -0.9,1 -0.5,0 -0.9,-0.3 -0.9,-1 v -0.4 0 c -0.4,0.8 -1.1,1.3 -2.1,1.3 -1.7,0 -2.8,-1.3 -2.8,-3.5 0,-2.2 1,-3.5 2.8,-3.5 1.8,0 1.8,0.5 2.1,1.2 v 0 -2.6 c 0,-0.6 0.4,-1 0.9,-1 0.5,0 0.9,0.3 0.9,1 z m -4.9,4.9 c 0,1.2 0.6,2 1.5,2 0.9,0 1.5,-0.8 1.5,-2 0,-1.2 -0.6,-2 -1.5,-2 -0.9,0 -1.5,0.8 -1.5,2 z"
               id="path54" />
            <path
               class="cls-3"
               d="m 586.1,895.9 c 0,1.2 -1,2 -2.7,2.1 h -1.7 v 0.5 c 0,0.6 0.4,1 1.1,1 0.7,0 0.9,-0.2 1.3,-0.7 0.2,-0.2 0.4,-0.3 0.7,-0.3 0.5,0 0.8,0.3 0.8,0.7 v 0.4 c -0.3,0.8 -1.4,1.3 -2.8,1.3 -1.4,0 -2.9,-0.9 -2.9,-2.3 v -3.9 c 0,-0.6 0.4,-0.9 0.9,-0.9 0.5,0 0.8,0.3 0.9,0.8 v 0.3 0 c 0.4,-0.7 1.2,-1.2 2.1,-1.2 1.3,0 2.3,0.8 2.3,2.1 v 0 z m -4.3,0.6 v 0.5 h 1.4 c 0.7,0 1.1,-0.5 1.1,-0.9 0,-0.4 -0.4,-0.8 -1,-0.8 -0.6,0 -1.5,0.5 -1.5,1.3 v 0 z"
               id="path55" />
            <path
               class="cls-3"
               d="m 577.7,894.7 1.4,4.7 v 0.6 c 0,0.5 -0.4,0.8 -0.9,0.8 -0.5,0 -0.8,-0.3 -0.9,-0.8 l -1,-4.4 v 0 l -1,4.3 c 0,0.5 -0.5,0.8 -1,0.8 -0.5,0 -0.9,-0.3 -1,-0.8 l -1.1,-4.3 v 0 l -1,4.4 c 0,0.5 -0.4,0.8 -0.9,0.8 -0.5,0 -0.9,-0.3 -0.9,-0.8 v -0.6 l 1.4,-4.8 c 0.2,-0.7 0.5,-1 1.2,-1 0.7,0 1,0.3 1.2,1 l 1,4 v 0 l 1,-4 c 0.2,-0.7 0.5,-1 1.2,-1 0.7,0 1,0.3 1.2,1 v 0 z"
               id="path56" />
            <path
               class="cls-3"
               d="m 568.5,894.7 v 5.2 c 0,0.6 -0.3,0.9 -0.9,0.9 -0.6,0 -0.9,-0.4 -0.9,-0.9 v -0.4 0 c -0.4,0.8 -1,1.3 -2.1,1.3 -1.1,0 -2.4,-1 -2.4,-2.5 v -3.5 c 0,-0.6 0.4,-1 0.9,-1 0.5,0 0.9,0.3 0.9,1 v 3.2 c 0,0.9 0.4,1.4 1.2,1.4 0.8,0 1.4,-0.6 1.4,-1.5 v -3.1 c 0,-0.6 0.4,-1 0.9,-1 0.5,0 0.9,0.3 0.9,1 v 0 z"
               id="path57" />
            <path
               class="cls-3"
               d="m 930.5,233.8 v 0.4 c 0,0.4 -0.3,0.6 -0.7,0.6 -0.4,0 -0.5,-0.1 -0.7,-0.4 -0.2,-0.5 -0.8,-0.8 -1.5,-0.8 -0.7,0 -1.3,0.4 -1.3,0.9 0,0.5 0.3,0.7 1.2,0.9 h 0.8 c 1.4,0.4 2.1,1.1 2.1,2.1 0,1 -1.1,2.1 -2.7,2.1 -1.6,0 -2.3,-0.5 -2.6,-1.5 v -0.3 c 0,-0.4 0.2,-0.6 0.6,-0.6 0.4,0 0.5,0.1 0.7,0.4 0.2,0.5 0.7,0.8 1.3,0.8 0.6,0 1.2,-0.3 1.2,-0.9 0,-0.6 -0.3,-0.7 -1.2,-0.9 H 927 c -1.5,-0.4 -2.1,-1 -2.1,-2.1 0,-1.1 1.1,-2.2 2.8,-2.2 1.7,0 2.4,0.6 2.7,1.4 h 0.1 z"
               id="path58" />
            <path
               class="cls-3"
               d="m 924.4,235.3 c 0,1.7 -1,2.8 -2.5,2.8 -1.5,0 -2.5,-1 -2.5,-2.4 0,-1.4 0.2,-0.6 0.6,-0.6 h 3 c 0,-0.8 -0.5,-1.3 -1.2,-1.3 -0.7,0 -0.9,0.2 -1.2,0.6 -0.2,0.2 -0.3,0.2 -0.5,0.2 -0.3,0 -0.6,-0.2 -0.6,-0.5 v -0.4 c 0.3,-0.6 1.2,-1 2.2,-1 1.6,0 2.6,1 2.6,2.7 h 0.1 z m -3.6,0.5 c 0,0.7 0.5,1.1 1.1,1.1 0.6,0 1.1,-0.5 1.1,-1.1 z"
               id="path59" />
            <path
               class="cls-3"
               d="m 918.9,235.3 c 0,1.7 -1,2.7 -2.6,2.7 -1.6,0 -1.9,-0.5 -2.2,-1.2 v -0.4 c 0,-0.4 0.3,-0.6 0.6,-0.6 0.3,0 0.5,0.1 0.6,0.4 0.3,0.5 0.6,0.7 1,0.7 0.7,0 1.2,-0.6 1.2,-1.6 0,-1 -0.4,-1.6 -1.2,-1.6 -0.8,0 -0.8,0.2 -1,0.6 -0.2,0.3 -0.3,0.4 -0.7,0.4 -0.4,0 -0.6,-0.2 -0.6,-0.6 0,-0.4 0,-0.2 0,-0.4 0.3,-0.7 1.2,-1.2 2.2,-1.2 1.6,0 2.6,1 2.6,2.7 h 0.1 z"
               id="path60" />
            <path
               class="cls-3"
               d="m 913.2,234.5 v 2.7 c 0,0.5 -0.3,0.8 -0.7,0.8 -0.4,0 -0.7,-0.3 -0.7,-0.8 v -2.4 c 0,-0.7 -0.3,-1.1 -1,-1.1 -0.7,0 -1,0.4 -1,1.1 v 2.4 c 0,0.5 -0.3,0.8 -0.7,0.8 -0.4,0 -0.7,-0.3 -0.7,-0.8 v -4 c 0,-0.5 0.3,-0.7 0.7,-0.7 0.4,0 0.7,0.2 0.7,0.7 v 0.3 0 c 0.3,-0.7 0.8,-1 1.6,-1 0.8,0 1.9,0.7 1.9,2 v 0 z"
               id="path61" />
            <path
               class="cls-3"
               d="m 907.5,233.3 v 4 c 0,0.4 -0.3,0.7 -0.7,0.7 -0.4,0 -0.7,-0.3 -0.7,-0.7 v -0.3 0 c 0,0.6 -0.6,1 -1.1,1 -0.5,0 -0.3,0 -0.4,-0.1 0,-0.1 -0.2,-0.3 -0.2,-0.5 0,-0.2 0,-0.4 0.2,-0.5 0.2,-0.1 0.3,-0.2 0.6,-0.2 0.7,0 0.9,-0.4 0.9,-1 v -2.3 c 0,-0.5 0.3,-0.7 0.7,-0.7 0.4,0 0.7,0.3 0.7,0.7 v 0 z"
               id="path62" />
            <path
               class="cls-3"
               d="m 903.8,239.3 c 0,0.4 -0.3,0.7 -0.8,0.7 -0.5,0 -0.8,-0.3 -0.8,-0.7 0,-0.4 0.3,-0.7 0.8,-0.7 0.5,0 0.8,0.3 0.8,0.7 z m 0,-6 v 4 c 0,0.5 -0.3,0.8 -0.7,0.8 -0.4,0 -0.7,-0.3 -0.7,-0.8 v -4 c 0,-0.5 0.3,-0.7 0.7,-0.7 0.4,0 0.7,0.3 0.7,0.7 z"
               id="path63" />
            <path
               class="cls-3"
               d="m 901,236.8 h 0.3 c 0.3,0 0.5,0.2 0.5,0.5 0,0.3 -0.2,0.5 -0.5,0.5 H 901 v 0.6 c 0,0.5 -0.3,0.7 -0.7,0.7 -0.4,0 -0.7,-0.3 -0.7,-0.7 v -0.6 h -0.5 c -0.3,0 -0.5,-0.2 -0.5,-0.5 0,-0.3 0.2,-0.5 0.5,-0.5 h 0.5 v -2.5 c 0,-0.4 0,-0.5 -0.4,-0.6 v 0 c -0.3,0 -0.5,-0.2 -0.5,-0.5 0,-0.3 0.4,-0.6 1,-0.6 v 0 c 1,0 1.4,0.5 1.4,1.4 v 2.8 0 z"
               id="path64" />
            <path
               class="cls-3"
               d="m 898,231.3 c 0,0.3 -0.2,0.5 -0.5,0.5 h -0.2 c -0.2,0 -0.5,0.1 -0.7,0.5 v 0.2 l 1.6,4.4 v 0.4 c 0,0.4 -0.3,0.7 -0.7,0.7 -0.4,0 -0.6,-0.2 -0.7,-0.6 l -1.1,-3.6 v 0 l -1.1,3.6 c 0,0.4 -0.3,0.6 -0.7,0.6 -0.4,0 -0.7,-0.3 -0.7,-0.6 V 237 l 1.6,-4.4 c 0.5,-1.4 1.1,-1.9 2.2,-1.9 1.1,0 1,0.2 1,0.7 v 0 z"
               id="path65" />
            <path
               class="cls-3"
               d="m 778.1,280.1 v 0.5 l -1.9,5.2 c -0.2,0.6 -0.5,0.8 -1.1,0.8 -0.6,0 -0.9,-0.2 -1.1,-0.8 l -1.9,-5.2 v -0.5 c 0,-0.4 0.3,-0.7 0.7,-0.7 0.4,0 0.6,0.2 0.8,0.6 l 0.4,1.1 h 2.5 l 0.4,-1.1 c 0,-0.5 0.4,-0.7 0.8,-0.7 0.4,0 0.8,0.3 0.8,0.7 h -0.4 z m -4,2.1 0.9,2.9 v 0 l 0.9,-2.9 H 774 v 0 z"
               id="path66" />
            <path
               class="cls-3"
               d="m 769,280.2 v 5.6 c 0,0.5 -0.3,0.8 -0.7,0.8 -0.4,0 -0.7,-0.3 -0.7,-0.8 v -5.1 h -2.5 c -0.4,0 -0.7,-0.2 -0.7,-0.6 0,-0.4 0.3,-0.6 0.7,-0.6 h 3.2 c 0.5,0 0.7,0.3 0.7,0.8 v 0 z"
               id="path67" />
            <path
               class="cls-3"
               d="m 763.7,286.1 c 0,0.4 -0.3,0.7 -0.8,0.7 -0.5,0 -0.8,-0.3 -0.8,-0.7 0,-0.4 0.3,-0.7 0.8,-0.7 0.5,0 0.8,0.3 0.8,0.7 z m -0.1,-6 v 4 c 0,0.5 -0.3,0.8 -0.7,0.8 -0.4,0 -0.7,-0.3 -0.7,-0.8 v -4 c 0,-0.5 0.3,-0.7 0.7,-0.7 0.4,0 0.7,0.3 0.7,0.7 z"
               id="path68" />
            <path
               class="cls-3"
               d="m 761.3,280.1 v 4 c 0,0.4 -0.3,0.7 -0.7,0.7 -0.4,0 -0.7,-0.3 -0.7,-0.7 v -0.3 0 c -0.3,0.6 -0.8,1 -1.6,1 -1.2,0 -1.8,-0.7 -1.8,-2 v -2.7 c 0,-0.5 0.3,-0.7 0.7,-0.7 0.4,0 0.7,0.2 0.7,0.7 v 2.4 c 0,0.7 0.3,1.1 1,1.1 0.7,0 1,-0.5 1,-1.1 v -2.4 c 0,-0.5 0.3,-0.7 0.7,-0.7 0.4,0 0.7,0.2 0.7,0.7 z"
               id="path69" />
            <path
               class="cls-3"
               d="m 755.5,280.1 v 5.8 c 0,0.5 -0.3,0.8 -0.7,0.8 -0.4,0 -0.7,-0.3 -0.7,-0.8 v -3.2 0 l -1.9,1.9 c -0.2,0.2 -0.3,0.3 -0.6,0.3 -0.3,0 -0.6,-0.3 -0.6,-0.6 0,-0.3 0,-0.4 0.3,-0.5 l 1.3,-1.3 -1.5,-1.9 c -0.2,-0.2 -0.2,-0.3 -0.2,-0.5 0,-0.4 0.3,-0.6 0.7,-0.6 0.4,0 0.5,0.1 0.7,0.4 l 1.3,1.8 0.5,-0.4 v -1.1 c 0,-0.5 0.3,-0.7 0.7,-0.7 0.4,0 0.7,0.2 0.7,0.7 v 0 z"
               id="path70" />
            <path
               class="cls-3"
               d="m 575.8,252.6 v 5.1 h 1.5 c 0.4,0 0.7,0.2 0.7,0.6 0,0.4 -0.3,0.6 -0.7,0.6 h -4.4 c -0.4,0 -0.7,-0.2 -0.7,-0.6 0,-0.4 0.3,-0.6 0.7,-0.6 h 1.5 v -5.1 c 0,-0.5 0.3,-0.8 0.7,-0.8 0.4,0 0.7,0.3 0.7,0.8 z"
               id="path71" />
            <path
               class="cls-3"
               d="m 572.9,254.6 c 0,1.7 -1,2.7 -2.6,2.7 -1.6,0 -2.6,-1 -2.6,-2.7 0,-1.7 1,-2.7 2.6,-2.7 1.6,0 2.6,1 2.6,2.7 z m -3.7,0 c 0,1 0.5,1.6 1.1,1.6 0.6,0 1.2,-0.6 1.2,-1.6 0,-1 -0.4,-1.6 -1.2,-1.6 -0.8,0 -1.1,0.6 -1.1,1.6 z"
               id="path72" />
            <path
               class="cls-3"
               d="m 567,250.9 v 5.7 c 0,0.5 -0.3,0.7 -0.7,0.7 -0.4,0 -0.7,-0.2 -0.7,-0.7 v -0.3 0 c -0.3,0.6 -0.9,1 -1.6,1 -1.3,0 -2.1,-1 -2.1,-2.7 0,-1.7 0.8,-2.7 2.1,-2.7 1.3,0 1.3,0.4 1.6,1 v 0 -2 c 0,-0.5 0.3,-0.7 0.7,-0.7 0.4,0 0.7,0.2 0.7,0.7 z m -3.8,3.7 c 0,0.9 0.5,1.6 1.2,1.6 0.7,0 1.2,-0.6 1.2,-1.6 0,-1 -0.5,-1.6 -1.2,-1.6 -0.7,0 -1.2,0.6 -1.2,1.6 z"
               id="path73" />
            <path
               class="cls-3"
               d="m 558.9,252.5 v 5.6 c 0,0.6 -0.3,0.9 -1,0.9 -0.7,0 -0.8,-0.2 -1,-0.8 l -1.8,-4.3 v 0 l -1.7,4.3 c -0.2,0.5 -0.5,0.8 -1,0.8 -0.5,0 -1,-0.4 -1,-0.9 v -5.6 c 0,-0.4 0.2,-0.7 0.7,-0.7 0.5,0 0.7,0.2 0.7,0.7 v 4.2 0 l 1.7,-4.3 c 0,-0.3 0.3,-0.5 0.6,-0.5 0.3,0 0.5,0.1 0.6,0.4 l 1.7,4.3 v 0 -4.2 c 0,-0.4 0.2,-0.7 0.7,-0.7 0.5,0 0.7,0.2 0.7,0.7 v 0 z"
               id="path74" />
            <path
               class="cls-3"
               d="m 550.5,258.6 c 0,0.4 -0.3,0.7 -0.8,0.7 -0.5,0 -0.8,-0.3 -0.8,-0.7 0,-0.4 0.3,-0.7 0.8,-0.7 0.5,0 0.8,0.3 0.8,0.7 z m -0.1,-6 v 4 c 0,0.5 -0.3,0.8 -0.7,0.8 -0.4,0 -0.7,-0.3 -0.7,-0.8 v -4 c 0,-0.5 0.3,-0.7 0.7,-0.7 0.4,0 0.7,0.3 0.7,0.7 z"
               id="path75" />
            <path
               class="cls-3"
               d="m 548.2,254.6 c 0,1.7 -0.8,2.7 -2.1,2.7 -1.3,0 -1.3,-0.4 -1.6,-1 v 0 2.1 c 0,0.5 -0.3,0.8 -0.7,0.8 -0.4,0 -0.7,-0.3 -0.7,-0.8 v -5.8 c 0,-0.5 0.3,-0.7 0.7,-0.7 0.4,0 0.7,0.2 0.7,0.7 v 0.3 0 c 0.2,-0.6 0.8,-1 1.6,-1 1.3,0 2.1,1 2.1,2.7 z m -3.8,0 c 0,0.9 0.5,1.6 1.2,1.6 0.7,0 1.2,-0.6 1.2,-1.6 0,-1 -0.4,-1.6 -1.2,-1.6 -0.8,0 -1.2,0.6 -1.2,1.6 z"
               id="path76" />
            <path
               class="cls-3"
               d="m 943.8,622.8 v 0.5 l -1.9,5.2 c -0.2,0.6 -0.5,0.8 -1.1,0.8 -0.6,0 -0.9,-0.2 -1.1,-0.8 l -1.9,-5.2 v -0.5 c 0,-0.4 0.3,-0.7 0.7,-0.7 0.4,0 0.6,0.2 0.8,0.7 l 0.4,1.1 h 2.5 l 0.4,-1.1 c 0,-0.5 0.4,-0.7 0.8,-0.7 0.4,0 0.8,0.3 0.8,0.7 z m -4.1,2.2 0.9,2.9 v 0 l 0.9,-2.9 h -1.9 v 0 z"
               id="path77" />
            <path
               class="cls-3"
               d="m 934.6,622.8 v 5.6 c 0,0.6 -0.3,1 -1,1 -0.7,0 -0.8,-0.2 -1,-0.8 l -1.8,-4.3 v 0 l -1.7,4.3 c -0.2,0.5 -0.5,0.8 -1,0.8 -0.5,0 -1,-0.3 -1,-1 v -5.6 c 0,-0.4 0.2,-0.7 0.7,-0.7 0.5,0 0.7,0.2 0.7,0.7 v 4.2 0 l 1.7,-4.3 c 0,-0.3 0.3,-0.5 0.6,-0.5 0.3,0 0.5,0 0.6,0.4 l 1.7,4.3 v 0 -4.2 c 0,-0.4 0.2,-0.7 0.7,-0.7 0.5,0 0.7,0.2 0.7,0.7 v 0 z"
               id="path78" />
            <path
               class="cls-3"
               d="m 926.4,623.7 c 0,1 -0.7,1.5 -2,1.6 h -1.3 v 0.4 c 0,0.5 0.3,0.8 0.9,0.8 0.6,0 0.7,0 1,-0.5 0.2,-0.2 0.3,-0.3 0.6,-0.3 0.3,0 0.6,0.2 0.6,0.5 v 0.3 c -0.2,0.6 -1.1,1 -2.2,1 -1.1,0 -2.2,-0.7 -2.2,-1.8 v -3 c 0,-0.5 0.3,-0.7 0.7,-0.7 0.4,0 0.7,0.2 0.7,0.6 v 0.3 0 c 0.3,-0.6 1,-0.9 1.6,-0.9 1,0 1.8,0.6 1.8,1.6 h -0.2 v 0 z m -3.3,0.5 v 0.4 h 1.1 c 0.5,0 0.8,-0.4 0.8,-0.7 0,-0.3 -0.3,-0.6 -0.8,-0.6 -0.5,0 -1.1,0.4 -1.1,1 v 0 z"
               id="path79" />
            <path
               class="cls-3"
               d="m 920.8,628.8 c 0,0.4 -0.3,0.7 -0.8,0.7 -0.5,0 -0.8,-0.3 -0.8,-0.7 0,-0.4 0.3,-0.7 0.8,-0.7 0.5,0 0.8,0.3 0.8,0.7 z m -0.1,-5.8 v 4 c 0,0.5 -0.3,0.8 -0.7,0.8 -0.4,0 -0.7,-0.3 -0.7,-0.8 v -4 c 0,-0.5 0.3,-0.7 0.7,-0.7 0.4,0 0.7,0.3 0.7,0.7 z"
               id="path80" />
            <path
               class="cls-3"
               d="m 918.4,622.8 v 4 c 0,0.4 -0.3,0.7 -0.7,0.7 -0.4,0 -0.7,-0.3 -0.7,-0.7 v -0.3 0 c -0.3,0.7 -0.8,1 -1.6,1 -1.2,0 -1.8,-0.7 -1.8,-2 v -2.7 c 0,-0.5 0.3,-0.7 0.7,-0.7 0.4,0 0.7,0.2 0.7,0.7 v 2.4 c 0,0.7 0.3,1.1 1,1.1 0.7,0 1,-0.5 1,-1.2 v -2.4 c 0,-0.5 0.3,-0.7 0.7,-0.7 0.4,0 0.7,0.2 0.7,0.7 v 0 z"
               id="path81" />
            <path
               class="cls-3"
               d="m 602.6,516.5 c 0,2.3 -1.3,3.6 -3.3,3.6 -2,0 -2.3,-0.6 -2.8,-1.6 0,-0.2 -0.2,-0.4 -0.2,-0.5 0,-0.4 0.3,-0.6 0.7,-0.6 0.4,0 0.5,0.2 0.7,0.5 0.3,0.7 0.9,1.1 1.6,1.1 1.1,0 1.8,-0.9 1.8,-2.4 0,-1.5 -0.7,-2.4 -1.8,-2.4 -1.1,0 -1.3,0.3 -1.6,1 -0.2,0.3 -0.3,0.5 -0.7,0.5 -0.4,0 -0.7,-0.3 -0.7,-0.7 v -0.5 c 0.4,-1 1.5,-1.6 2.8,-1.6 2.1,0 3.4,1.4 3.4,3.6 v 0 z"
               id="path82" />
            <path
               class="cls-3"
               d="m 595.7,514.3 c 0,1 -0.7,1.5 -2,1.6 h -1.3 v 0.4 c 0,0.5 0.3,0.8 0.9,0.8 0.6,0 0.7,0 1,-0.5 0.2,-0.2 0.3,-0.3 0.6,-0.3 0.3,0 0.6,0.2 0.6,0.5 v 0.3 c -0.2,0.6 -1.1,1 -2.2,1 -1.1,0 -2.2,-0.7 -2.2,-1.8 v -3 c 0,-0.5 0.3,-0.7 0.7,-0.7 0.4,0 0.7,0.2 0.7,0.6 v 0.3 0 c 0.3,-0.6 1,-0.9 1.6,-0.9 1,0 1.8,0.6 1.8,1.6 h -0.2 v 0 z m -3.4,0.5 v 0.4 h 1.1 c 0.5,0 0.8,-0.4 0.8,-0.7 0,-0.3 -0.3,-0.6 -0.8,-0.6 -0.5,0 -1.1,0.4 -1.1,1 v 0 z"
               id="path83" />
            <path
               class="cls-3"
               d="m 589.6,517 h 0.3 c 0.3,0 0.5,0.2 0.5,0.5 0,0.3 -0.2,0.5 -0.5,0.5 h -0.3 v 0.6 c 0,0.5 -0.3,0.7 -0.7,0.7 -0.4,0 -0.7,-0.3 -0.7,-0.7 V 518 h -0.5 c -0.3,0 -0.5,-0.2 -0.5,-0.5 0,-0.3 0.2,-0.5 0.5,-0.5 h 0.5 v -2.5 c 0,-0.4 0,-0.5 -0.4,-0.5 v 0 c -0.3,0 -0.5,-0.2 -0.5,-0.5 0,-0.3 0.4,-0.6 1,-0.6 v 0 c 1,0 1.4,0.5 1.4,1.4 v 2.8 0 z"
               id="path84" />
            <path
               class="cls-3"
               d="m 585.6,513.6 1,3.7 v 0.4 c 0,0.4 -0.3,0.6 -0.7,0.6 -0.4,0 -0.6,-0.2 -0.7,-0.6 l -0.8,-3.4 v 0 l -0.8,3.3 c 0,0.4 -0.4,0.7 -0.8,0.7 -0.4,0 -0.7,-0.2 -0.8,-0.7 l -0.8,-3.3 v 0 l -0.8,3.4 c 0,0.4 -0.3,0.6 -0.7,0.6 -0.4,0 -0.7,-0.2 -0.7,-0.6 v -0.4 l 1,-3.7 c 0.2,-0.5 0.4,-0.8 0.9,-0.8 0.5,0 0.8,0.2 0.9,0.8 l 0.8,3 v 0 l 0.8,-3.1 c 0,-0.5 0.4,-0.8 0.9,-0.8 0.5,0 0.8,0.2 0.9,0.8 h 0.4 v 0 z"
               id="path85" />
            <path
               class="cls-3"
               d="m 578.8,514.3 c 0,1 -0.7,1.5 -2,1.6 h -1.3 v 0.4 c 0,0.5 0.3,0.8 0.9,0.8 0.6,0 0.7,0 1,-0.5 0.2,-0.2 0.3,-0.3 0.6,-0.3 0.3,0 0.6,0.2 0.6,0.5 v 0.3 c -0.2,0.6 -1.1,1 -2.2,1 -1.1,0 -2.2,-0.7 -2.2,-1.8 v -3 c 0,-0.5 0.3,-0.7 0.7,-0.7 0.4,0 0.7,0.2 0.7,0.6 v 0.3 0 c 0.3,-0.6 1,-0.9 1.6,-0.9 1,0 1.8,0.6 1.8,1.6 h -0.2 v 0 z m -3.4,0.5 v 0.4 h 1.1 c 0.5,0 0.8,-0.4 0.8,-0.7 0,-0.3 -0.3,-0.6 -0.8,-0.6 -0.5,0 -1.1,0.4 -1.1,1 v 0 z"
               id="path86" />
            <path
               class="cls-3"
               d="m 573.1,513.6 v 5.8 c 0,0.5 -0.3,0.8 -0.7,0.8 -0.4,0 -0.7,-0.3 -0.7,-0.8 v -5.8 c 0,-0.5 0.3,-0.7 0.7,-0.7 0.4,0 0.7,0.2 0.7,0.7 z"
               id="path87" />
            <path
               class="cls-3"
               d="m 570.7,513.6 v 5.8 c 0,0.5 -0.3,0.8 -0.7,0.8 -0.4,0 -0.7,-0.3 -0.7,-0.8 v -3.2 0 l -1.9,1.9 c -0.2,0.2 -0.3,0.3 -0.6,0.3 -0.3,0 -0.6,-0.3 -0.6,-0.6 0,-0.3 0,-0.3 0.3,-0.5 l 1.3,-1.3 -1.5,-1.9 c -0.2,-0.2 -0.2,-0.3 -0.2,-0.5 0,-0.4 0.3,-0.6 0.7,-0.6 0.4,0 0.5,0 0.7,0.4 l 1.3,1.8 0.5,-0.4 v -1.1 c 0,-0.5 0.3,-0.7 0.7,-0.7 0.4,0 0.7,0.2 0.7,0.7 v 0 z"
               id="path88" />
            <path
               class="cls-3"
               d="m 683.9,449.9 2,5.3 v 0.4 c 0,0.4 -0.3,0.7 -0.8,0.7 -0.5,0 -0.6,-0.2 -0.8,-0.6 l -1.7,-5 v 0 l -1.7,5.1 c 0,0.4 -0.3,0.6 -0.7,0.6 -0.4,0 -0.8,-0.3 -0.8,-0.7 0,-0.4 0,-0.3 0,-0.4 l 2,-5.3 c 0.2,-0.6 0.6,-0.9 1.1,-0.9 0.5,0 0.9,0.2 1.1,0.9 h 0.3 z"
               id="path89" />
            <path
               class="cls-3"
               d="m 679.8,451.6 c 0,1.7 -1,2.8 -2.5,2.8 -1.5,0 -2.5,-1 -2.5,-2.4 0,-1.4 0.2,-0.6 0.6,-0.6 h 3 c 0,-0.8 -0.5,-1.3 -1.2,-1.3 -0.7,0 -0.9,0.2 -1.2,0.6 -0.2,0.2 -0.3,0.2 -0.5,0.2 -0.3,0 -0.6,-0.2 -0.6,-0.5 V 450 c 0.3,-0.6 1.2,-1 2.2,-1 1.6,0 2.6,1 2.6,2.7 h 0.1 z m -3.6,0.7 c 0,0.7 0.5,1.1 1.1,1.1 0.6,0 1.1,-0.5 1.1,-1.1 z"
               id="path90" />
            <path
               class="cls-3"
               d="m 674.1,449.8 v 4 c 0,0.4 -0.3,0.7 -0.7,0.7 -0.4,0 -0.7,-0.3 -0.7,-0.7 v -0.3 0 c -0.3,0.6 -0.8,1 -1.6,1 -1.2,0 -1.8,-0.7 -1.8,-2 v -2.7 c 0,-0.5 0.3,-0.7 0.7,-0.7 0.4,0 0.7,0.2 0.7,0.7 v 2.4 c 0,0.7 0.3,1.1 1,1.1 0.7,0 1,-0.5 1,-1.1 v -2.4 c 0,-0.5 0.3,-0.7 0.7,-0.7 0.4,0 0.7,0.2 0.7,0.7 z"
               id="path91" />
            <path
               class="cls-3"
               d="m 667.9,453.3 h 0.3 c 0.3,0 0.5,0.2 0.5,0.5 0,0.3 -0.2,0.5 -0.5,0.5 h -0.3 v 0.6 c 0,0.5 -0.3,0.7 -0.7,0.7 -0.4,0 -0.7,-0.3 -0.7,-0.7 v -0.6 H 666 c -0.3,0 -0.5,-0.2 -0.5,-0.5 0,-0.3 0.2,-0.5 0.5,-0.5 h 0.5 v -2.5 c 0,-0.4 0,-0.5 -0.4,-0.5 v 0 c -0.3,0 -0.5,-0.2 -0.5,-0.5 0,-0.3 0.4,-0.6 1,-0.6 v 0 c 1,0 1.4,0.5 1.4,1.4 v 2.8 0 z"
               id="path92" />
            <path
               class="cls-3"
               d="M 632.5,44.8 V 52 c 0,0.6 -0.4,1 -1,1 H 629 c -2.8,0 -4.4,-1.6 -4.4,-4.5 0,-2.9 1.6,-4.6 4.4,-4.6 h 2.5 c 0.6,0 1,0.4 1,1 v 0 z m -3.3,0.5 c -1.7,0 -2.6,1 -2.6,3 0,2 1,3 2.6,3 h 1.3 v -6 z"
               id="path93" />
            <path
               class="cls-3"
               d="m 623.8,47.1 c 0,2.2 -1.3,3.6 -3.3,3.6 -2,0 -3.2,-1.3 -3.2,-3.2 0,-1.9 0.3,-0.8 0.8,-0.8 h 3.9 c 0,-1.1 -0.6,-1.8 -1.5,-1.8 -0.9,0 -1.1,0.2 -1.6,0.8 -0.2,0.2 -0.4,0.3 -0.6,0.3 -0.4,0 -0.7,-0.2 -0.7,-0.7 v -0.5 c 0.5,-0.8 1.5,-1.3 2.8,-1.3 2.1,0 3.4,1.3 3.4,3.5 v 0 z m -4.7,0.7 c 0,0.9 0.6,1.5 1.4,1.5 0.8,0 1.4,-0.6 1.5,-1.5 z"
               id="path94" />
            <path
               class="cls-3"
               d="m 615.8,44.5 v 4.6 h 0.4 c 0.4,0 0.7,0.2 0.7,0.7 0,0.5 -0.3,0.7 -0.7,0.7 h -0.4 V 51 c 0,1.3 -0.7,1.9 -1.9,2 -1,0 -1.4,-0.3 -1.4,-0.8 0,-0.5 0,-0.4 0.4,-0.5 h 0.4 c 0.6,0 0.8,-0.2 0.8,-0.8 v -0.4 h -0.8 c -0.4,0 -0.7,-0.2 -0.7,-0.7 0,-0.5 0.3,-0.7 0.7,-0.7 h 0.7 v -4.6 c 0,-0.6 0.4,-1 0.9,-1 0.5,0 0.9,0.3 0.9,1 z"
               id="path95" />
            <path
               class="cls-3"
               d="m 612.1,47.1 c 0,2.2 -1.3,3.6 -3.3,3.6 -2,0 -3.2,-1.3 -3.2,-3.2 0,-1.9 0.3,-0.8 0.8,-0.8 h 3.9 c 0,-1.1 -0.6,-1.8 -1.5,-1.8 -0.9,0 -1.1,0.2 -1.6,0.8 -0.2,0.2 -0.4,0.3 -0.6,0.3 -0.4,0 -0.7,-0.2 -0.7,-0.7 v -0.5 c 0.5,-0.8 1.5,-1.3 2.8,-1.3 2.1,0 3.4,1.3 3.4,3.5 v 0 z m -4.7,0.7 c 0,0.9 0.6,1.5 1.4,1.5 0.8,0 1.4,-0.6 1.5,-1.5 z"
               id="path96" />
            <path
               class="cls-3"
               d="m 604.7,44.5 v 5.2 c 0,0.6 -0.3,0.9 -0.9,0.9 -0.6,0 -0.9,-0.4 -0.9,-0.9 v -0.4 0 c -0.4,0.8 -1,1.3 -2.1,1.3 -1.1,0 -2.4,-1 -2.4,-2.5 v -3.5 c 0,-0.6 0.4,-1 0.9,-1 0.5,0 0.9,0.3 0.9,1 v 3.2 c 0,0.9 0.4,1.4 1.2,1.4 0.8,0 1.4,-0.6 1.4,-1.5 v -3.1 c 0,-0.6 0.4,-1 0.9,-1 0.5,0 0.9,0.3 0.9,1 v 0 z"
               id="path97" />
            <path
               class="cls-3"
               d="m 597.4,47.1 c 0,2.2 -1.1,3.5 -2.8,3.5 -1.7,0 -1.8,-0.5 -2.1,-1.3 v 0 2.7 c 0,0.6 -0.4,1 -0.9,1 -0.5,0 -0.9,-0.3 -0.9,-1 v -7.5 c 0,-0.6 0.4,-0.9 0.9,-0.9 0.5,0 0.9,0.3 0.9,0.9 v 0.4 0 c 0.3,-0.8 1,-1.3 2.1,-1.3 1.7,0 2.8,1.3 2.8,3.5 z m -4.9,0 c 0,1.2 0.6,2 1.5,2 0.9,0 1.5,-0.8 1.5,-2 0,-1.2 -0.6,-2 -1.5,-2 -0.9,0 -1.5,0.8 -1.5,2 z"
               id="path98" />
            <path
               class="cls-3"
               d="m 589.7,47.1 c 0,2.2 -1.3,3.6 -3.3,3.6 -2,0 -3.2,-1.3 -3.2,-3.2 0,-1.9 0.3,-0.8 0.8,-0.8 h 3.9 c 0,-1.1 -0.6,-1.8 -1.5,-1.8 -0.9,0 -1.1,0.2 -1.6,0.8 -0.2,0.2 -0.4,0.3 -0.6,0.3 -0.4,0 -0.7,-0.2 -0.7,-0.7 v -0.5 c 0.5,-0.8 1.5,-1.3 2.8,-1.3 2.1,0 3.4,1.3 3.4,3.5 v 0 z m -4.8,0.7 c 0,0.9 0.6,1.5 1.4,1.5 0.8,0 1.4,-0.6 1.5,-1.5 z"
               id="path99" />
            <path
               class="cls-3"
               d="m 582.2,44.5 v 5.2 c 0,0.6 -0.4,0.9 -0.9,0.9 -0.5,0 -0.9,-0.3 -0.9,-0.9 v -0.4 0 c -0.2,0.8 -0.7,1.3 -1.4,1.3 -0.7,0 -0.4,0 -0.6,-0.2 -0.2,0 -0.3,-0.4 -0.3,-0.7 0,-0.3 0,-0.5 0.3,-0.7 0.3,-0.2 0.4,-0.2 0.8,-0.2 0.8,0 1.1,-0.5 1.1,-1.3 v -3 c 0,-0.6 0.4,-1 0.9,-1 0.5,0 0.9,0.3 0.9,1 z"
               id="path100" />
            <path
               class="cls-3"
               d="m 574.9,45.3 v 0.5 c 0,0.5 -0.3,0.8 -0.8,0.8 -0.5,0 -0.7,-0.2 -0.9,-0.6 -0.3,-0.7 -1,-1 -1.9,-1 -0.9,0 -1.7,0.5 -1.7,1.2 0,0.7 0.4,1 1.6,1.2 l 1,0.2 c 1.8,0.4 2.7,1.2 2.7,2.6 0,1.4 -1.5,2.8 -3.5,2.8 -2,0 -2.9,-0.7 -3.3,-1.9 v -0.4 c 0,-0.5 0.3,-0.8 0.8,-0.8 0.5,0 0.7,0.2 0.9,0.6 0.3,0.7 0.9,1 1.7,1 0.8,0 1.6,-0.4 1.6,-1.1 0,-0.7 -0.4,-0.9 -1.5,-1.1 l -1,-0.2 c -1.9,-0.4 -2.8,-1.2 -2.8,-2.6 0,-1.4 1.4,-2.9 3.7,-2.9 2.3,0 3.1,0.8 3.5,1.8 v 0 z"
               id="path101" />
            <path
               class="cls-3"
               d="m 566.7,42.3 v 7.5 c 0,0.6 -0.4,1 -0.9,1 -0.5,0 -0.9,-0.3 -0.9,-1 v -0.4 0 c -0.4,0.8 -1.1,1.3 -2.1,1.3 -1.7,0 -2.8,-1.3 -2.8,-3.5 0,-2.2 1,-3.5 2.8,-3.5 1.8,0 1.8,0.5 2.1,1.2 v 0 -2.6 c 0,-0.6 0.4,-1 0.9,-1 0.5,0 0.9,0.3 0.9,1 z m -4.9,4.8 c 0,1.2 0.6,2 1.5,2 0.9,0 1.5,-0.8 1.5,-2 0,-1.2 -0.6,-2 -1.5,-2 -0.9,0 -1.5,0.8 -1.5,2 z"
               id="path102" />
            <path
               class="cls-3"
               d="m 559.3,45.8 c 0,1.2 -1,2 -2.7,2.1 h -1.7 v 0.5 c 0,0.6 0.4,1 1.1,1 0.7,0 0.9,-0.2 1.3,-0.7 0.2,-0.2 0.4,-0.3 0.7,-0.3 0.5,0 0.8,0.3 0.8,0.7 v 0.4 c -0.3,0.8 -1.4,1.3 -2.8,1.3 -1.4,0 -2.9,-0.9 -2.9,-2.3 v -3.9 c 0,-0.6 0.4,-0.9 0.9,-0.9 0.5,0 0.8,0.3 0.9,0.8 v 0.3 0 c 0.4,-0.7 1.2,-1.2 2.1,-1.2 1.3,0 2.3,0.8 2.3,2.1 v 0 z m -4.4,0.5 v 0.5 h 1.4 c 0.7,0 1.1,-0.5 1.1,-0.9 0,-0.4 -0.4,-0.8 -1,-0.8 -0.6,0 -1.5,0.5 -1.5,1.3 v 0 z"
               id="path103" />
            <path
               class="cls-3"
               d="m 550.8,44.5 1.4,4.7 v 0.6 c 0,0.5 -0.4,0.8 -0.9,0.8 -0.5,0 -0.8,-0.3 -0.9,-0.8 l -1,-4.4 v 0 l -1,4.3 c 0,0.5 -0.5,0.8 -1,0.8 -0.5,0 -0.9,-0.3 -1,-0.8 l -1.1,-4.3 v 0 l -1,4.4 c 0,0.5 -0.4,0.8 -0.9,0.8 -0.5,0 -0.9,-0.3 -0.9,-0.8 v -0.6 l 1.4,-4.8 c 0.2,-0.7 0.5,-1 1.2,-1 0.7,0 1,0.3 1.2,1 l 1,4 v 0 l 1,-4 c 0.2,-0.7 0.5,-1 1.2,-1 0.7,0 1,0.3 1.2,1 v 0 z"
               id="path104" />
            <path
               class="cls-3"
               d="m 541.6,44.5 v 5.2 c 0,0.6 -0.3,0.9 -0.9,0.9 -0.6,0 -0.9,-0.4 -0.9,-0.9 v -0.4 0 c -0.4,0.8 -1,1.3 -2.1,1.3 -1.1,0 -2.4,-1 -2.4,-2.5 v -3.5 c 0,-0.6 0.4,-1 0.9,-1 0.5,0 0.9,0.3 0.9,1 v 3.2 c 0,0.9 0.4,1.4 1.2,1.4 0.8,0 1.4,-0.6 1.4,-1.5 v -3.1 c 0,-0.6 0.4,-1 0.9,-1 0.5,0 0.9,0.3 0.9,1 v 0 z"
               id="path105" />
            <path
               class="cls-3"
               d="m 229.1,257.2 v 5.7 c 0,0.5 -0.3,0.8 -0.7,0.8 -0.4,0 -0.7,-0.3 -0.7,-0.8 v -2.2 h -3.2 v 2.2 c 0,0.5 -0.3,0.8 -0.7,0.8 -0.4,0 -0.7,-0.3 -0.7,-0.8 v -5.7 c 0,-0.5 0.3,-0.8 0.7,-0.8 0.4,0 0.7,0.3 0.7,0.8 v 2.3 h 3.2 v -2.3 c 0,-0.5 0.3,-0.8 0.7,-0.8 0.4,0 0.7,0.3 0.7,0.8 z"
               id="path106" />
            <path
               class="cls-3"
               d="m 222.1,259.1 c 0,1.7 -1,2.8 -2.5,2.8 -1.5,0 -2.5,-1 -2.5,-2.4 0,-1.4 0.2,-0.6 0.6,-0.6 h 3 c 0,-0.8 -0.5,-1.3 -1.2,-1.3 -0.7,0 -0.9,0.2 -1.2,0.6 -0.1,0.2 -0.3,0.2 -0.5,0.2 -0.3,0 -0.6,-0.2 -0.6,-0.5 0,-0.3 0,-0.2 0.1,-0.4 0.4,-0.6 1.2,-1 2.2,-1 1.6,0 2.6,1 2.6,2.7 v 0 z m -3.7,0.7 c 0,0.7 0.5,1.1 1.1,1.1 0.6,0 1.1,-0.5 1.1,-1.1 z"
               id="path107" />
            <path
               class="cls-3"
               d="m 216.5,258 c 0,1 -0.7,1.5 -2,1.6 h -1.3 v 0.4 c 0,0.5 0.3,0.8 0.9,0.8 0.6,0 0.7,-0.1 1,-0.5 0.2,-0.2 0.3,-0.3 0.6,-0.3 0.3,0 0.6,0.2 0.6,0.5 v 0.3 c -0.2,0.6 -1.1,1 -2.2,1 -1.1,0 -2.2,-0.7 -2.2,-1.8 v -3 c 0,-0.5 0.3,-0.7 0.7,-0.7 0.4,0 0.6,0.2 0.7,0.6 v 0.3 0 c 0.3,-0.6 0.9,-0.9 1.6,-0.9 1,0 1.8,0.6 1.8,1.6 h -0.2 z m -3.3,0.5 v 0.4 h 1.1 c 0.5,-0.1 0.8,-0.4 0.8,-0.7 0,-0.3 -0.3,-0.6 -0.8,-0.6 -0.5,0 -1.1,0.4 -1.1,1 v 0 z"
               id="path108" />
            <path
               class="cls-3"
               d="m 209.7,257.1 1.4,3.6 v 0.4 c 0,0.4 -0.3,0.6 -0.7,0.6 -0.4,0 -0.6,-0.2 -0.7,-0.6 l -1.1,-3.5 v 0 l -1.1,3.5 c -0.1,0.4 -0.3,0.6 -0.7,0.6 -0.4,0 -0.7,-0.3 -0.7,-0.6 v -0.4 l 1.4,-3.7 c 0.2,-0.5 0.5,-0.7 1,-0.7 0.5,0 0.8,0.2 1,0.7 h 0.2 z"
               id="path109" />
            <path
               class="cls-3"
               d="m 205.9,259.1 c 0,1.7 -1,2.8 -2.5,2.8 -1.5,0 -2.5,-1 -2.5,-2.4 0,-1.4 0.2,-0.6 0.6,-0.6 h 3 c 0,-0.8 -0.5,-1.3 -1.2,-1.3 -0.7,0 -0.9,0.2 -1.2,0.6 -0.1,0.2 -0.3,0.2 -0.5,0.2 -0.3,0 -0.6,-0.2 -0.6,-0.5 0,-0.3 0,-0.2 0.1,-0.4 0.4,-0.6 1.2,-1 2.2,-1 1.6,0 2.6,1 2.6,2.7 v 0 z m -3.6,0.7 c 0,0.7 0.5,1.1 1.1,1.1 0.6,0 1.1,-0.5 1.1,-1.1 z"
               id="path110" />
            <path
               class="cls-3"
               d="m 200.2,257.1 v 4 c 0,0.4 -0.3,0.7 -0.7,0.7 -0.4,0 -0.7,-0.3 -0.7,-0.7 v -0.3 0 c -0.3,0.6 -0.8,1 -1.6,1 -1.2,0 -1.8,-0.7 -1.8,-2 v -2.7 c 0,-0.5 0.3,-0.7 0.7,-0.7 0.4,0 0.7,0.2 0.7,0.7 v 2.4 c 0,0.7 0.3,1.1 1,1.1 0.7,0 1,-0.5 1,-1.1 v -2.4 c 0,-0.5 0.3,-0.7 0.7,-0.7 0.4,0 0.7,0.2 0.7,0.7 z"
               id="path111" />
            <path
               class="cls-3"
               d="m 540.6,645.3 v 5.5 c 0,0.5 -0.3,0.8 -0.7,0.8 h -2.3 c -1.3,0 -2.1,-0.7 -2.1,-1.8 0,-1.1 0.6,-1.4 1.3,-1.5 v 0 c -1,0 -1.7,-0.8 -1.7,-1.7 0,-0.9 0.9,-2 2.4,-2 h 2.4 c 0.5,0 0.7,0.3 0.7,0.8 v 0 z m -2.5,3.3 c -0.8,0 -1.2,0.3 -1.2,0.9 0,0.6 0.4,0.9 1.1,0.9 h 1.2 v -1.8 z m -0.2,-3 c -0.9,0 -1.3,0.4 -1.3,1 0,0.6 0.5,1 1.3,1 h 1.2 v -2 h -1.3 v 0 z"
               id="path112" />
            <path
               class="cls-3"
               d="m 534.5,647.1 c 0,1.7 -1,2.7 -2.6,2.7 -1.6,0 -2.6,-1 -2.6,-2.7 0,-1.7 1,-2.7 2.6,-2.7 1.6,0 2.6,1 2.6,2.7 z m -3.7,0 c 0,1 0.5,1.6 1.1,1.6 0.6,0 1.1,-0.6 1.1,-1.6 0,-1 -0.4,-1.6 -1.1,-1.6 -0.7,0 -1.1,0.6 -1.1,1.6 z"
               id="path113" />
            <path
               class="cls-3"
               d="m 528.2,648.6 h 0.3 c 0.3,0 0.5,0.2 0.5,0.5 0,0.3 -0.2,0.5 -0.5,0.5 h -0.3 v 0.6 c 0,0.5 -0.3,0.7 -0.7,0.7 -0.4,0 -0.7,-0.3 -0.7,-0.7 v -0.6 h -0.5 c -0.3,0 -0.5,-0.2 -0.5,-0.5 0,-0.3 0.2,-0.5 0.5,-0.5 h 0.5 v -2.5 c 0,-0.4 -0.1,-0.5 -0.4,-0.5 v 0 c -0.4,0 -0.5,-0.2 -0.5,-0.5 0,-0.3 0.4,-0.6 1,-0.6 v 0 c 1,0 1.4,0.5 1.4,1.4 v 2.8 0 z"
               id="path114" />
            <path
               class="cls-3"
               d="m 524.7,648.6 h 0.3 c 0.3,0 0.5,0.2 0.5,0.5 0,0.3 -0.2,0.5 -0.5,0.5 h -0.3 v 0.6 c 0,0.5 -0.3,0.7 -0.7,0.7 -0.4,0 -0.7,-0.3 -0.7,-0.7 v -0.6 h -0.5 c -0.3,0 -0.5,-0.2 -0.5,-0.5 0,-0.3 0.2,-0.5 0.5,-0.5 h 0.5 v -2.5 c 0,-0.4 -0.1,-0.5 -0.4,-0.5 v 0 c -0.4,0 -0.5,-0.2 -0.5,-0.5 0,-0.3 0.4,-0.6 1,-0.6 v 0 c 1,0 1.4,0.5 1.4,1.4 v 2.8 0 z"
               id="path115" />
            <path
               class="cls-3"
               d="m 521.7,647.1 c 0,1.7 -1,2.7 -2.6,2.7 -1.6,0 -2.6,-1 -2.6,-2.7 0,-1.7 1,-2.7 2.6,-2.7 1.6,0 2.6,1 2.6,2.7 z m -3.7,0 c 0,1 0.5,1.6 1.1,1.6 0.6,0 1.1,-0.6 1.1,-1.6 0,-1 -0.4,-1.6 -1.1,-1.6 -0.7,0 -1.1,0.6 -1.1,1.6 z"
               id="path116" />
            <path
               class="cls-3"
               d="m 515.8,645.1 v 4 c 0,0.5 -0.3,0.7 -0.7,0.7 -0.4,0 -0.7,-0.2 -0.7,-0.7 v -0.3 0 c -0.2,0.6 -0.8,1 -1.5,1 -0.7,0 -1.3,-0.4 -1.5,-1.1 v 0 c -0.2,0.7 -0.9,1.1 -1.6,1.1 -0.7,0 -1.7,-0.7 -1.7,-1.8 v -2.9 c 0,-0.5 0.3,-0.7 0.7,-0.7 0.4,0 0.7,0.3 0.7,0.7 v 2.6 c 0,0.6 0.3,0.9 0.8,0.9 0.5,0 0.9,-0.4 0.9,-1 v -2.5 c 0,-0.5 0.3,-0.7 0.7,-0.7 0.4,0 0.7,0.3 0.7,0.7 v 2.6 c 0,0.6 0.3,0.9 0.8,0.9 0.5,0 0.9,-0.4 0.9,-1 v -2.5 c 0,-0.5 0.3,-0.7 0.7,-0.7 0.4,0 0.7,0.3 0.7,0.7 v 0 z"
               id="path117" />
            <path
               class="cls-3"
               d="m 505.1,645.1 v 5.6 c 0,0.6 -0.3,1 -1,1 -0.7,0 -0.8,-0.2 -1,-0.8 l -1.8,-4.3 v 0 l -1.7,4.3 c -0.2,0.5 -0.5,0.8 -1,0.8 -0.5,0 -1,-0.3 -1,-1 v -5.6 c 0,-0.4 0.2,-0.7 0.7,-0.7 0.5,0 0.7,0.2 0.7,0.7 v 4.2 0 l 1.7,-4.3 c 0,-0.3 0.3,-0.5 0.6,-0.5 0.3,0 0.5,0 0.6,0.4 l 1.7,4.3 v 0 -4.2 c 0,-0.4 0.2,-0.7 0.7,-0.7 0.5,0 0.7,0.2 0.7,0.7 v 0 z"
               id="path118" />
            <path
               class="cls-3"
               d="m 496.6,651.1 c 0,0.4 -0.3,0.7 -0.8,0.7 -0.5,0 -0.8,-0.3 -0.8,-0.7 0,-0.4 0.3,-0.7 0.8,-0.7 0.5,0 0.8,0.3 0.8,0.7 z m 0,-6 v 4 c 0,0.5 -0.3,0.8 -0.7,0.8 -0.4,0 -0.7,-0.3 -0.7,-0.8 v -4 c 0,-0.5 0.3,-0.7 0.7,-0.7 0.4,0 0.7,0.3 0.7,0.7 z"
               id="path119" />
            <path
               class="cls-3"
               d="m 494.4,647.1 c 0,1.7 -0.8,2.7 -2.1,2.7 -1.3,0 -1.3,-0.4 -1.6,-1 v 0 2.1 c 0,0.5 -0.3,0.8 -0.7,0.8 -0.4,0 -0.7,-0.3 -0.7,-0.8 v -5.8 c 0,-0.5 0.3,-0.7 0.7,-0.7 0.4,0 0.7,0.2 0.7,0.7 v 0.3 0 c 0.2,-0.6 0.8,-1 1.6,-1 1.3,0 2.1,1 2.1,2.7 z m -3.8,0 c 0,1 0.5,1.6 1.2,1.6 0.7,0 1.2,-0.6 1.2,-1.6 0,-1 -0.4,-1.5 -1.2,-1.5 -0.8,0 -1.2,0.6 -1.2,1.5 z"
               id="path120" />
            <g
               class="cls-5"
               id="g121">
              <path
                 class="cls-3"
                 d="m 384.5,664.7 v -5.5 c 0,-0.5 0.3,-0.8 0.7,-0.8 h 2.3 c 1.3,0 2.1,0.7 2.1,1.8 0,1.1 -0.6,1.4 -1.3,1.5 v 0 c 1,0 1.7,0.8 1.7,1.7 0,0.9 -0.9,2 -2.4,2 h -2.4 c -0.5,0 -0.7,-0.3 -0.7,-0.8 v 0 z m 2.5,-3.5 c 0.8,0 1.2,-0.3 1.2,-0.9 0,-0.6 -0.4,-0.9 -1.1,-0.9 h -1.2 v 1.8 z m 0.2,3.1 c 0.9,0 1.3,-0.4 1.3,-1 0,-0.6 -0.5,-1 -1.3,-1 H 386 v 2 h 1.3 v 0 z"
                 id="path121" />
            </g>
            <g
               class="cls-5"
               id="g122">
              <path
                 class="cls-3"
                 d="m 390.6,662.8 c 0,-1.7 1,-2.8 2.5,-2.8 1.5,0 2.5,1 2.5,2.4 0,1.4 -0.2,0.6 -0.6,0.6 h -3 c 0,0.8 0.5,1.3 1.2,1.3 0.7,0 0.9,-0.2 1.2,-0.6 0.1,-0.2 0.3,-0.2 0.5,-0.2 0.3,0 0.6,0.2 0.6,0.5 0,0.3 0,0.2 -0.1,0.3 -0.4,0.6 -1.2,1 -2.2,1 -1.6,0 -2.6,-1 -2.6,-2.7 v 0 z m 3.6,-0.6 c 0,-0.7 -0.5,-1.1 -1.1,-1.1 -0.6,0 -1.1,0.5 -1.1,1.1 z"
                 id="path122" />
            </g>
            <g
               class="cls-5"
               id="g123">
              <path
                 class="cls-3"
                 d="m 396.3,660.8 c 0,-0.4 0.3,-0.7 0.7,-0.7 0.4,0 0.7,0.3 0.7,0.7 v 0.3 0 c 0.3,-0.7 0.8,-1 1.6,-1 1.2,0 1.8,0.7 1.8,2 v 2.7 c 0,0.5 -0.3,0.7 -0.7,0.7 -0.4,0 -0.7,-0.2 -0.7,-0.7 v -2.4 c 0,-0.7 -0.3,-1.1 -1,-1.1 -0.7,0 -1,0.5 -1,1.2 v 2.4 c 0,0.5 -0.3,0.7 -0.7,0.7 -0.4,0 -0.7,-0.2 -0.7,-0.7 v 0"
                 id="path123" />
            </g>
            <g
               class="cls-5"
               id="g124">
              <path
                 class="cls-3"
                 d="m 401.9,662.8 c 0,-1.7 0.8,-2.7 2.1,-2.7 1.3,0 1.3,0.4 1.6,1 v 0 -2.1 c 0,-0.5 0.3,-0.8 0.7,-0.8 0.4,0 0.7,0.3 0.7,0.8 v 5.8 c 0,0.5 -0.3,0.7 -0.7,0.7 -0.4,0 -0.7,-0.2 -0.7,-0.7 v -0.3 0 c -0.2,0.6 -0.8,1 -1.6,1 -1.3,0 -2.1,-1 -2.1,-2.7 z m 3.8,0 c 0,-1 -0.5,-1.6 -1.2,-1.6 -0.7,0 -1.2,0.6 -1.2,1.6 0,1 0.4,1.5 1.2,1.5 0.8,0 1.2,-0.6 1.2,-1.5 z"
                 id="path124" />
            </g>
            <path
               class="cls-3"
               d="m 383.2,296 v 5.5 c 0,0.5 -0.3,0.8 -0.7,0.8 h -2.3 c -1.3,0 -2.1,-0.7 -2.1,-1.8 0,-1.1 0.6,-1.4 1.3,-1.5 v 0 c -1,-0.1 -1.7,-0.8 -1.7,-1.7 0,-0.9 0.9,-2 2.4,-2 h 2.4 c 0.5,0 0.7,0.3 0.7,0.8 v 0 z m -2.5,3.3 c -0.8,0 -1.2,0.4 -1.2,0.9 0,0.5 0.4,0.9 1.1,0.9 h 1.2 v -1.8 z m -0.3,-3 c -0.9,0 -1.3,0.4 -1.3,1 0,0.6 0.5,1 1.3,1 h 1.2 v -2 h -1.3 v 0 z"
               id="path125" />
            <path
               class="cls-3"
               d="m 374.8,296 v 5.6 c 0,0.5 -0.3,0.8 -0.7,0.8 -0.4,0 -0.7,-0.3 -0.7,-0.8 v -5.1 h -2.5 c -0.4,0 -0.7,-0.2 -0.7,-0.6 0,-0.4 0.3,-0.6 0.7,-0.6 h 3.2 c 0.5,0 0.7,0.3 0.7,0.8 v 0 z"
               id="path126" />
            <path
               class="cls-3"
               d="m 369.5,301.9 c 0,0.4 -0.3,0.7 -0.8,0.7 -0.5,0 -0.8,-0.3 -0.8,-0.7 0,-0.4 0.3,-0.7 0.8,-0.7 0.5,0 0.8,0.3 0.8,0.7 z m 0,-6 v 4 c 0,0.5 -0.3,0.8 -0.7,0.8 -0.4,0 -0.7,-0.3 -0.7,-0.8 v -4 c 0,-0.5 0.3,-0.7 0.7,-0.7 0.4,0 0.7,0.3 0.7,0.7 z"
               id="path127" />
            <path
               class="cls-3"
               d="m 367.1,295.9 v 4 c 0,0.4 -0.3,0.7 -0.7,0.7 -0.4,0 -0.7,-0.3 -0.7,-0.7 v -0.3 0 c -0.3,0.6 -0.8,1 -1.6,1 -1.2,0 -1.8,-0.7 -1.8,-2 v -2.7 c 0,-0.5 0.3,-0.7 0.7,-0.7 0.4,0 0.7,0.2 0.7,0.7 v 2.4 c 0,0.7 0.3,1.1 1,1.1 0.7,0 1,-0.5 1,-1.1 v -2.4 c 0,-0.5 0.3,-0.7 0.7,-0.7 0.4,0 0.7,0.2 0.7,0.7 z"
               id="path128" />
            <path
               class="cls-3"
               d="m 361.3,295.9 v 5.8 c 0,0.5 -0.3,0.8 -0.7,0.8 -0.4,0 -0.7,-0.3 -0.7,-0.8 v -3.2 0 l -1.9,1.9 c -0.2,0.2 -0.4,0.3 -0.6,0.3 -0.4,0 -0.6,-0.3 -0.6,-0.6 0,-0.3 0,-0.4 0.3,-0.5 l 1.3,-1.3 -1.5,-1.9 c -0.2,-0.2 -0.2,-0.3 -0.2,-0.5 0,-0.4 0.3,-0.6 0.7,-0.6 0.4,0 0.5,0.1 0.7,0.4 l 1.3,1.8 0.5,-0.4 V 296 c 0,-0.5 0.3,-0.7 0.7,-0.7 0.4,0 0.7,0.2 0.7,0.7 v 0 z"
               id="path129" />
            <path
               class="cls-3"
               d="m 249.7,817.8 v 5.5 c 0,0.5 -0.3,0.8 -0.7,0.8 h -2.3 c -1.3,0 -2.1,-0.7 -2.1,-1.8 0,-1.1 0.6,-1.4 1.3,-1.5 v 0 c -1,0 -1.7,-0.8 -1.7,-1.7 0,-0.9 0.9,-2 2.4,-2 h 2.4 c 0.5,0 0.7,0.3 0.7,0.8 v 0 z m -2.5,3.4 c -0.8,0 -1.2,0.3 -1.2,0.9 0,0.6 0.4,0.9 1.1,0.9 h 1.2 v -1.8 z m -0.2,-3 c -0.9,0 -1.3,0.4 -1.3,1 0,0.6 0.5,1 1.3,1 h 1.2 v -2 h -1.3 z"
               id="path132" />
            <path
               class="cls-3"
               d="m 241.3,817.8 v 5.6 c 0,0.5 -0.3,0.8 -0.7,0.8 -0.4,0 -0.7,-0.3 -0.7,-0.8 v -5.2 h -2.5 c -0.4,0 -0.7,-0.2 -0.7,-0.6 0,-0.4 0.3,-0.6 0.7,-0.6 h 3.2 c 0.5,0 0.7,0.3 0.7,0.8 z"
               id="path133" />
            <path
               class="cls-3"
               d="m 236.3,819.7 c 0,1.7 -1,2.7 -2.6,2.7 -1.6,0 -2.6,-1 -2.6,-2.7 0,-1.7 1,-2.7 2.6,-2.7 1.6,0 2.6,1 2.6,2.7 z m -3.7,0 c 0,1 0.4,1.6 1.1,1.6 0.7,0 1.1,-0.6 1.1,-1.6 0,-1 -0.4,-1.6 -1.1,-1.6 -0.7,0 -1.1,0.6 -1.1,1.6 z"
               id="path134" />
            <path
               class="cls-3"
               d="m 230.3,817.7 v 5.8 c 0,0.5 -0.3,0.8 -0.7,0.8 -0.4,0 -0.7,-0.3 -0.7,-0.8 v -2.1 0 c -0.3,0.6 -0.9,1 -1.6,1 -1.3,0 -2.1,-1 -2.1,-2.7 0,-1.7 0.8,-2.7 2.1,-2.7 1.3,0 1.4,0.4 1.6,1 v 0 -0.3 c 0,-0.5 0.3,-0.7 0.7,-0.7 0.4,0 0.7,0.2 0.7,0.7 z m -3.7,2 c 0,1 0.4,1.6 1.1,1.6 0.7,0 1.2,-0.6 1.2,-1.6 0,-1 -0.5,-1.5 -1.2,-1.5 -0.7,0 -1.1,0.6 -1.1,1.5 z"
               id="path135" />
            <path
               class="cls-3"
               d="m 224.4,817.7 v 5.8 c 0,0.5 -0.3,0.8 -0.7,0.8 -0.4,0 -0.7,-0.3 -0.7,-0.8 v -2.1 0 c -0.3,0.6 -0.9,1 -1.6,1 -1.3,0 -2.1,-1 -2.1,-2.7 0,-1.7 0.8,-2.7 2.1,-2.7 1.3,0 1.4,0.4 1.6,1 v 0 -0.3 c 0,-0.5 0.3,-0.7 0.7,-0.7 0.4,0 0.7,0.2 0.7,0.7 z m -3.8,2 c 0,1 0.4,1.6 1.1,1.6 0.7,0 1.2,-0.6 1.2,-1.6 0,-1 -0.5,-1.5 -1.2,-1.5 -0.7,0 -1.1,0.6 -1.1,1.5 z"
               id="path136" />
            <path
               class="cls-3"
               d="m 218.6,815.7 c 0,0.3 -0.2,0.5 -0.5,0.5 h -0.2 c -0.2,0 -0.5,0 -0.7,0.5 v 0.2 l 1.6,4.4 v 0.4 c 0,0.4 -0.3,0.7 -0.7,0.7 -0.4,0 -0.6,-0.2 -0.7,-0.6 l -1.1,-3.6 v 0 l -1.1,3.6 c -0.1,0.4 -0.3,0.6 -0.7,0.6 -0.4,0 -0.7,-0.3 -0.7,-0.6 v -0.4 l 1.6,-4.4 c 0.5,-1.3 1.1,-1.8 2.2,-1.8 1.1,0 1,0.2 1,0.7 v 0 z"
               id="path137" />
            <path
               class="cls-3"
               d="m 306.3,604.6 v 5.5 c 0,0.5 -0.3,0.8 -0.7,0.8 h -2.3 c -1.3,0 -2.1,-0.7 -2.1,-1.8 0,-1.1 0.6,-1.4 1.3,-1.5 v 0 c -1,0 -1.7,-0.8 -1.7,-1.7 0,-0.9 0.9,-2 2.4,-2 h 2.4 c 0.5,0 0.7,0.3 0.7,0.8 v 0 z m -2.5,3.4 c -0.8,0 -1.2,0.3 -1.2,0.9 0,0.6 0.4,0.9 1.1,0.9 h 1.2 V 608 Z m -0.2,-3 c -0.9,0 -1.3,0.4 -1.3,1 0,0.6 0.5,1 1.3,1 h 1.2 v -2 h -1.3 v 0 z"
               id="path138" />
            <path
               class="cls-3"
               d="m 297.9,604.5 v 5.6 c 0,0.6 -0.4,1 -1,1 -0.6,0 -0.8,-0.2 -1,-0.8 l -1.8,-4.3 v 0 l -1.7,4.3 c -0.2,0.5 -0.5,0.8 -1,0.8 -0.5,0 -1,-0.3 -1,-1 v -5.6 c 0,-0.4 0.2,-0.7 0.7,-0.7 0.5,0 0.6,0.2 0.6,0.7 v 4.2 0 l 1.7,-4.3 c 0.1,-0.3 0.3,-0.5 0.6,-0.5 0.3,0 0.5,0 0.6,0.4 l 1.7,4.3 v 0 -4.2 c 0,-0.4 0.2,-0.7 0.6,-0.7 0.4,0 0.7,0.2 0.7,0.7 h 0.3 v 0 z"
               id="path139" />
            <path
               class="cls-3"
               d="m 289.7,605.3 c 0,1 -0.7,1.5 -2,1.6 h -1.3 v 0.4 c 0,0.5 0.3,0.8 0.9,0.8 0.6,0 0.7,0 1,-0.5 0.2,-0.2 0.3,-0.3 0.6,-0.3 0.3,0 0.6,0.2 0.6,0.5 v 0.3 c -0.2,0.6 -1.1,1 -2.2,1 -1.1,0 -2.2,-0.7 -2.2,-1.8 v -3 c 0,-0.5 0.3,-0.7 0.7,-0.7 0.4,0 0.6,0.2 0.7,0.6 v 0.3 0 c 0.3,-0.6 1,-0.9 1.6,-0.9 1,0 1.8,0.6 1.8,1.6 h -0.2 z m -3.3,0.5 v 0.4 h 1.1 c 0.5,0 0.8,-0.4 0.8,-0.7 0,-0.3 -0.3,-0.6 -0.8,-0.6 -0.5,0 -1.1,0.4 -1.1,1 v 0 z"
               id="path140" />
            <path
               class="cls-3"
               d="m 284.1,610.5 c 0,0.4 -0.3,0.7 -0.8,0.7 -0.5,0 -0.8,-0.3 -0.8,-0.7 0,-0.4 0.3,-0.7 0.8,-0.7 0.5,0 0.8,0.3 0.8,0.7 z m -0.1,-6 v 4 c 0,0.5 -0.3,0.8 -0.7,0.8 -0.4,0 -0.7,-0.3 -0.7,-0.8 v -4 c 0,-0.5 0.3,-0.7 0.7,-0.7 0.4,0 0.7,0.3 0.7,0.7 z"
               id="path141" />
            <path
               class="cls-3"
               d="m 281.6,604.5 v 4 c 0,0.4 -0.3,0.7 -0.7,0.7 -0.4,0 -0.7,-0.3 -0.7,-0.7 v -0.3 0 c -0.3,0.7 -0.8,1 -1.6,1 -1.2,0 -1.8,-0.7 -1.8,-2 v -2.7 c 0,-0.5 0.3,-0.7 0.7,-0.7 0.4,0 0.7,0.2 0.7,0.7 v 2.4 c 0,0.7 0.3,1.1 1,1.1 0.7,0 1,-0.5 1,-1.2 v -2.4 c 0,-0.5 0.3,-0.7 0.7,-0.7 0.4,0 0.7,0.2 0.7,0.7 v 0 z"
               id="path142" />
            <path
               class="cls-3"
               d="m 511.2,431.7 v 5.6 c 0,0.6 -0.4,1 -1,1 -0.6,0 -0.8,-0.2 -1,-0.8 l -1.8,-4.3 v 0 l -1.7,4.3 c -0.2,0.5 -0.5,0.8 -1,0.8 -0.5,0 -1,-0.4 -1,-1 v -5.6 c 0,-0.4 0.2,-0.7 0.7,-0.7 0.5,0 0.6,0.2 0.6,0.7 v 4.2 0 l 1.7,-4.3 c 0.1,-0.3 0.3,-0.5 0.6,-0.5 0.3,0 0.5,0.1 0.6,0.4 l 1.7,4.3 v 0 -4.2 c 0,-0.4 0.2,-0.7 0.6,-0.7 0.4,0 0.7,0.2 0.7,0.7 h 0.3 v 0 z"
               id="path143" />
            <path
               class="cls-3"
               d="m 502.7,437.9 c 0,0.4 -0.3,0.7 -0.8,0.7 -0.5,0 -0.8,-0.3 -0.8,-0.7 0,-0.4 0.3,-0.7 0.8,-0.7 0.5,0 0.8,0.3 0.8,0.7 z m -0.1,-6 v 4 c 0,0.5 -0.3,0.8 -0.7,0.8 -0.4,0 -0.7,-0.3 -0.7,-0.8 v -4 c 0,-0.5 0.3,-0.7 0.7,-0.7 0.4,0 0.7,0.3 0.7,0.7 z"
               id="path144" />
            <path
               class="cls-3"
               d="m 500.4,433.9 c 0,1.7 -0.8,2.7 -2.1,2.7 -1.3,0 -1.3,-0.4 -1.6,-1 v 0 2.1 c 0,0.5 -0.3,0.8 -0.7,0.8 -0.4,0 -0.7,-0.3 -0.7,-0.8 v -5.8 c 0,-0.5 0.3,-0.7 0.7,-0.7 0.4,0 0.7,0.2 0.7,0.7 v 0.3 0 c 0.2,-0.6 0.8,-1 1.6,-1 1.3,0 2.1,1 2.1,2.7 z m -3.7,0 c 0,1 0.5,1.6 1.2,1.6 0.7,0 1.2,-0.6 1.2,-1.6 0,-1 -0.4,-1.5 -1.2,-1.5 -0.8,0 -1.2,0.6 -1.2,1.5 z"
               id="path145" />
            <path
               class="cls-3"
               d="m 821.6,777.3 v 0.5 l -1.9,5.2 c -0.2,0.6 -0.5,0.8 -1.1,0.8 -0.6,0 -0.9,-0.2 -1.1,-0.8 l -1.9,-5.2 v -0.5 c 0,-0.4 0.3,-0.7 0.7,-0.7 0.4,0 0.6,0.2 0.8,0.7 l 0.4,1.1 h 2.5 l 0.4,-1.1 c 0,-0.5 0.4,-0.7 0.8,-0.7 0.4,0 0.8,0.3 0.8,0.7 z m -4,2.3 0.9,2.9 v 0 l 0.9,-2.9 h -1.9 v 0 z"
               id="path146" />
            <path
               class="cls-3"
               d="m 812.5,777.6 v 5.6 c 0,0.5 -0.3,0.8 -0.7,0.8 -0.4,0 -0.7,-0.3 -0.7,-0.8 V 778 h -2.5 c -0.4,0 -0.7,-0.2 -0.7,-0.6 0,-0.4 0.3,-0.6 0.7,-0.6 h 3.2 c 0.5,0 0.7,0.3 0.7,0.8 z"
               id="path147" />
            <path
               class="cls-3"
               d="m 807.4,779.4 c 0,1.7 -1,2.7 -2.6,2.7 -1.6,0 -2.6,-1 -2.6,-2.7 0,-1.7 1,-2.7 2.6,-2.7 1.6,0 2.6,1 2.6,2.7 z m -3.7,0 c 0,1 0.5,1.6 1.1,1.6 0.6,0 1.2,-0.6 1.2,-1.6 0,-1 -0.4,-1.6 -1.2,-1.6 -0.8,0 -1.1,0.6 -1.1,1.6 z"
               id="path148" />
            <path
               class="cls-3"
               d="m 801.5,777.4 v 5.8 c 0,0.5 -0.3,0.8 -0.7,0.8 -0.4,0 -0.7,-0.3 -0.7,-0.8 v -2.1 0 c -0.3,0.6 -0.9,1 -1.6,1 -1.3,0 -2.1,-1 -2.1,-2.7 0,-1.7 0.8,-2.7 2.1,-2.7 1.3,0 1.3,0.4 1.6,1 v 0 -0.3 c 0,-0.5 0.3,-0.7 0.7,-0.7 0.4,0 0.7,0.2 0.7,0.7 z m -3.7,2 c 0,1 0.4,1.6 1.2,1.6 0.8,0 1.2,-0.6 1.2,-1.6 0,-1 -0.5,-1.5 -1.2,-1.5 -0.7,0 -1.2,0.6 -1.2,1.5 z"
               id="path149" />
            <path
               class="cls-3"
               d="m 795.5,777.4 v 5.8 c 0,0.5 -0.3,0.8 -0.7,0.8 -0.4,0 -0.7,-0.3 -0.7,-0.8 v -2.1 0 c -0.3,0.6 -0.9,1 -1.6,1 -1.3,0 -2.1,-1 -2.1,-2.7 0,-1.7 0.8,-2.7 2.1,-2.7 1.3,0 1.3,0.4 1.6,1 v 0 -0.3 c 0,-0.5 0.3,-0.7 0.7,-0.7 0.4,0 0.7,0.2 0.7,0.7 z m -3.7,2 c 0,1 0.4,1.6 1.2,1.6 0.8,0 1.2,-0.6 1.2,-1.6 0,-1 -0.5,-1.5 -1.2,-1.5 -0.7,0 -1.2,0.6 -1.2,1.5 z"
               id="path150" />
            <path
               class="cls-3"
               d="m 789.8,775.6 c 0,0.3 -0.2,0.5 -0.5,0.5 h -0.2 c -0.2,0 -0.5,0 -0.7,0.5 v 0.2 l 1.6,4.4 v 0.4 c 0,0.4 -0.3,0.7 -0.7,0.7 -0.4,0 -0.6,-0.2 -0.7,-0.6 l -1.1,-3.6 v 0 l -1.1,3.6 c 0,0.4 -0.3,0.6 -0.7,0.6 -0.4,0 -0.7,-0.3 -0.7,-0.6 v -0.4 l 1.6,-4.4 c 0.5,-1.3 1.1,-1.8 2.2,-1.8 1.1,0 1,0.2 1,0.7 v 0 z"
               id="path151" />
            <path
               class="cls-3"
               d="m 803.5,479.7 v 5.7 c 0,0.5 -0.3,0.8 -0.7,0.8 -0.4,0 -0.7,-0.3 -0.7,-0.8 v -2.2 h -3.2 v 2.2 c 0,0.5 -0.3,0.8 -0.7,0.8 -0.4,0 -0.7,-0.3 -0.7,-0.8 v -5.7 c 0,-0.5 0.3,-0.8 0.7,-0.8 0.4,0 0.7,0.3 0.7,0.8 v 2.3 h 3.2 v -2.3 c 0,-0.5 0.3,-0.8 0.7,-0.8 0.4,0 0.7,0.3 0.7,0.8 z"
               id="path152" />
            <path
               class="cls-3"
               d="m 796.5,481.7 c 0,1.7 -1,2.8 -2.5,2.8 -1.5,0 -2.5,-1 -2.5,-2.4 0,-1.4 0.2,-0.6 0.6,-0.6 h 3 c 0,-0.8 -0.5,-1.3 -1.2,-1.3 -0.7,0 -0.9,0.2 -1.2,0.6 -0.2,0.2 -0.3,0.2 -0.5,0.2 -0.3,0 -0.6,-0.2 -0.6,-0.5 v -0.4 c 0.3,-0.6 1.2,-1 2.2,-1 1.6,0 2.6,1 2.6,2.7 h 0.1 z m -3.6,0.5 c 0,0.7 0.5,1.1 1.1,1.1 0.6,0 1.1,-0.5 1.1,-1.1 z"
               id="path153" />
            <path
               class="cls-3"
               d="m 791,480.6 c 0,1 -0.7,1.5 -2,1.6 h -1.3 v 0.4 c 0,0.5 0.3,0.8 0.9,0.8 0.6,0 0.7,-0.1 1,-0.5 0.2,-0.2 0.3,-0.3 0.6,-0.3 0.3,0 0.6,0.2 0.6,0.5 v 0.3 c -0.2,0.6 -1.1,1 -2.2,1 -1.1,0 -2.2,-0.7 -2.2,-1.8 v -3 c 0,-0.5 0.3,-0.7 0.7,-0.7 0.4,0 0.7,0.2 0.7,0.6 v 0.3 0 c 0.3,-0.6 1,-0.9 1.6,-0.9 1,0 1.8,0.6 1.8,1.6 H 791 v 0 z m -3.4,0.5 v 0.4 h 1.1 c 0.5,-0.1 0.8,-0.4 0.8,-0.7 0,-0.3 -0.3,-0.6 -0.8,-0.6 -0.5,0 -1.1,0.4 -1.1,1 v 0 z"
               id="path154" />
            <path
               class="cls-3"
               d="m 784.2,479.7 1.4,3.6 v 0.4 c 0,0.4 -0.3,0.6 -0.7,0.6 -0.4,0 -0.6,-0.2 -0.7,-0.6 l -1.1,-3.5 v 0 l -1.1,3.5 c 0,0.4 -0.3,0.6 -0.7,0.6 -0.4,0 -0.7,-0.3 -0.7,-0.6 v -0.4 l 1.4,-3.7 c 0.2,-0.5 0.5,-0.7 1,-0.7 0.5,0 0.8,0.2 1,0.7 h 0.2 v 0 z"
               id="path155" />
            <path
               class="cls-3"
               d="m 780.4,481.7 c 0,1.7 -1,2.8 -2.5,2.8 -1.5,0 -2.5,-1 -2.5,-2.4 0,-1.4 0.2,-0.6 0.6,-0.6 h 3 c 0,-0.8 -0.5,-1.3 -1.2,-1.3 -0.7,0 -0.9,0.2 -1.2,0.6 -0.2,0.2 -0.3,0.2 -0.5,0.2 -0.3,0 -0.6,-0.2 -0.6,-0.5 v -0.4 c 0.3,-0.6 1.2,-1 2.2,-1 1.6,0 2.6,1 2.6,2.7 h 0.1 z m -3.7,0.5 c 0,0.7 0.5,1.1 1.1,1.1 0.6,0 1.1,-0.5 1.1,-1.1 z"
               id="path156" />
            <path
               class="cls-3"
               d="m 774.7,479.7 v 4 c 0,0.4 -0.3,0.7 -0.7,0.7 -0.4,0 -0.7,-0.3 -0.7,-0.7 v -0.3 0 c -0.3,0.6 -0.8,1 -1.6,1 -1.2,0 -1.8,-0.7 -1.8,-2 v -2.7 c 0,-0.5 0.3,-0.7 0.7,-0.7 0.4,0 0.7,0.2 0.7,0.7 v 2.4 c 0,0.7 0.3,1.1 1,1.1 0.7,0 1,-0.5 1,-1.1 v -2.4 c 0,-0.5 0.3,-0.7 0.7,-0.7 0.4,0 0.7,0.2 0.7,0.7 z"
               id="path157" />
            <path
               class="cls-3"
               d="m 132.3,657.2 v 5.8 c 0,0.5 -0.3,0.7 -0.7,0.7 -0.4,0 -0.5,0 -0.7,-0.4 l -3.1,-4.3 v 0 4 c 0,0.5 -0.3,0.7 -0.7,0.7 -0.4,0 -0.7,-0.3 -0.7,-0.7 v -5.8 c 0,-0.5 0.3,-0.7 0.7,-0.7 0.4,0 0.5,0 0.7,0.4 l 3.1,4.3 v 0 -4 c 0,-0.5 0.3,-0.7 0.7,-0.7 0.4,0 0.7,0.3 0.7,0.7 z"
               id="path158" />
            <path
               class="cls-3"
               d="m 125.4,659.2 c 0,1.7 -1,2.8 -2.5,2.8 -1.5,0 -2.5,-1 -2.5,-2.4 0,-1.4 0.2,-0.6 0.6,-0.6 h 3 c 0,-0.8 -0.5,-1.3 -1.2,-1.3 -0.7,0 -0.9,0.2 -1.2,0.6 -0.2,0.2 -0.3,0.2 -0.5,0.2 -0.3,0 -0.6,-0.2 -0.6,-0.5 v -0.3 c 0.3,-0.6 1.2,-1 2.2,-1 1.6,0 2.6,1 2.6,2.7 v 0 -0.2 0 z m -3.6,0.5 c 0,0.7 0.5,1.1 1.1,1.1 0.6,0 1.1,-0.5 1.1,-1.1 z"
               id="path159" />
            <path
               class="cls-3"
               d="m 119.8,657.5 v 0.3 c 0,0.3 -0.2,0.5 -0.6,0.5 -0.4,0 -0.4,0 -0.6,-0.3 -0.3,-0.4 -0.6,-0.5 -1.1,-0.5 -0.5,0 -0.9,0.2 -0.9,0.6 0,0.4 0.2,0.4 0.7,0.5 l 0.9,0.2 c 1,0.2 1.5,0.7 1.5,1.5 0,0.8 -0.9,1.7 -2.2,1.7 -1.3,0 -1.9,-0.5 -2.1,-1.1 v -0.2 c 0,-0.3 0.2,-0.5 0.6,-0.5 0.4,0 0.4,0 0.5,0.2 0.2,0.3 0.5,0.6 1,0.6 0.5,0 0.8,-0.2 0.8,-0.6 0,-0.4 -0.2,-0.5 -0.7,-0.6 l -0.9,-0.2 c -1.1,-0.2 -1.6,-0.6 -1.6,-1.4 0,-0.8 0.9,-1.7 2.3,-1.7 1.4,0 2,0.4 2.2,1 z"
               id="path160" />
            <path
               class="cls-3"
               d="m 114.1,660.7 h 0.3 c 0.3,0 0.6,0.2 0.6,0.5 0,0.3 -0.2,0.5 -0.6,0.5 h -0.3 v 0.6 c 0,0.5 -0.3,0.7 -0.7,0.7 -0.4,0 -0.7,-0.3 -0.7,-0.7 v -0.6 h -0.5 c -0.3,0 -0.6,-0.2 -0.6,-0.5 0,-0.3 0.2,-0.5 0.6,-0.5 h 0.5 v -2.5 c 0,-0.4 -0.1,-0.5 -0.4,-0.5 v 0 c -0.4,0 -0.5,-0.2 -0.5,-0.5 0,-0.3 0.4,-0.6 1,-0.6 v 0 c 0.9,0 1.4,0.5 1.4,1.4 v 2.8 h -0.1 z"
               id="path161" />
          </g>
        </g>
      </g>
    </g>
  </g>
</svg>
