<?xml version="1.0" encoding="UTF-8" standalone="no"?>
<svg
   version="1.1"
   viewBox="0 0 1084 964.8"
   id="svg186"
   sodipodi:docname="abyss.svg"
   inkscape:version="1.4.2 (f4327f4, 2025-05-13)"
   xmlns:inkscape="http://www.inkscape.org/namespaces/inkscape"
   xmlns:sodipodi="http://sodipodi.sourceforge.net/DTD/sodipodi-0.dtd"
   xmlns="http://www.w3.org/2000/svg"
   xmlns:svg="http://www.w3.org/2000/svg">
  <sodipodi:namedview
     id="namedview186"
     pagecolor="#505050"
     bordercolor="#eeeeee"
     borderopacity="1"
     inkscape:showpageshadow="0"
     inkscape:pageopacity="0"
     inkscape:pagecheckerboard="0"
     inkscape:deskcolor="#505050"
     inkscape:zoom="0.8364428"
     inkscape:cx="541.57917"
     inkscape:cy="482.39999"
     inkscape:window-width="1920"
     inkscape:window-height="1009"
     inkscape:window-x="1912"
     inkscape:window-y="-8"
     inkscape:window-maximized="1"
     inkscape:current-layer="Layer_1-2" />
  <defs
     id="defs1">
    <style
       id="style1">
      .cls-1 {
        fill: #3d3d3d;
      }

      .cls-2 {
        fill: #7e7f7e;
      }

      .cls-3 {
        fill: #fff;
      }

      .cls-4 {
        fill: #535353;
      }

      .cls-5 {
        display: none;
      }
    </style>
  </defs>
  <!-- Generator: Adobe Illustrator 28.6.0, SVG Export Plug-In . SVG Version: 1.2.0 Build 709)  -->
  <g
     id="g186"
     transform="rotate(180,535.05,482.4)">
    <g
       id="Layer_1">
      <g
         id="g185">
        <path
           class="cls-1"
           d="m 1030,416.1 v -116 h -66 v -33 h 33 v -66 H 865 v 33 H 748 v -2 h 2 v -62 h -2 v -2 h 35 v -82 H 684 V 3.1 H 486 v 83 H 353 v 115 h 33 v 42 H 186.8 v 33 h 16.1 v 16 H 58.2 l -8.3,16 v 17 c 0,0 -9.9,0 -9.9,0 v 165 h 99 v 99 H 40 v 50 h 56.9 v 41 H 209 v 48 h 2 v 2 h -6 v 40.2 l -35,34.8 v 57 h 183 v -33 h 99 v 132 h 215 v -132 h 66 v 33 h 132 v -132 h -33 v -83 h 33 v 33 h 132 v -33 h 17 v -33 h 12 v -33 h -70 v -33 h 74 v -66 h -16 v -66 z M 419.1,168 434.8,152.1 h 282.3 v 16 h 2 v 2 h -2 v 62 h 2 v 2 h -2 v 66 h -83 v -33 l -33,-33 h -99 v 83 h -83 z M 320,276.1 v 123 h -49 c 0,0 0,-57.3 0,-57.3 l -19.5,-16 -0.6,-33.7 v -16 c -0.1,0 69.1,0 69.1,0 z M 188,451.9 h 182 v -68.8 h -17 v -33 h 116 v 164.5 h -94.3 v 58.1 h -26.4 v 0.4 c 0,0 -127.2,0 -127.2,0 v 16 h -33 V 451.9 Z m 58,278.2 h -6 v -2 h 2 v -56 h 4 z m 0,-74 h -4 v -9 h -95 v -8 h 99 z m 306,272.1 h -67 v -66 h 67 z m 41.1,-190.1 h -8 v 58 h -67 v -33 h -99 v 33 h -107 l -16,-16.1 v -99.9 h 33 v -39.9 l 21,-16.1 h 60.6 v -72.6 h 54.4 v 63.2 h -16.6 v 66.7 h 30.9 v -1.3 h 88.7 v -16 h 17 v 57 h 8 z M 568,432.2 v 28 c -1.8,1.1 -3,3 -3,5.2 0,2.2 1.2,4.2 3,5.2 V 502 c -1.8,1.1 -3,3 -3,5.2 0,2.2 1.2,4.2 3,5.2 v 31.3 c -1.8,1.1 -3,3 -3,5.2 0,2.2 1.2,4.2 3,5.2 v 60 h -50.1 v -33 H 537 v -132 h 6 v -33 h -6 v -33 h -2 v -99 h 33 v 107 h 33 v -58 h 184 v 2 h -2 v 81 H 651 v 58.1 h -50 v -42 z m 217.1,189.9 h -2 v -16 h 2 z m 113,-41 h -148 v 182 h -99 v -25 h -9 v -17 h 9 v -24 h 33 v -116 h -83 v -91 h 99 v -58 h 50 v 83 h 74 v -8 h 8 v 8 h 33.3 l 32.7,33 z m 17,-248 h -83 v 124 h -8 v -11 l -8,-37.3 v -73.7 h -2 v -2 h 2 v -66 h 99 z m 82,149 h -66 v -66 h 66 z"
           id="path1" />
        <g
           id="g2">
          <polygon
             class="cls-4"
             points="49.4,308.3 49.5,324.9 39.5,324.9 39.5,308.3 "
             id="polygon1" />
          <path
             class="cls-3"
             d="m 48.9,308.8 v 15.6 c 0,0 -8.9,0 -8.9,0 v -15.6 h 8.9 m 1,-1 H 39 v 17.6 h 11 v -17.6 z"
             id="path2" />
        </g>
        <g
           id="Layer_1-2"
           data-name="Layer_1">
          <g
             id="Body_Merge">
            <rect
               class="cls-2"
               x="45.799999"
               y="514.20001"
               width="8"
               height="50"
               id="rect2" />
            <polygon
               class="cls-2"
               points="874,168.4 874,167.4 874,160.4 808,160.4 808,168.4 865,168.4 865,176.4 874,176.4 "
               id="polygon2" />
          </g>
          <g
             id="Bombsite">
            <polygon
               class="cls-4"
               points="151.1,391.4 105.3,391.4 72.1,432 61,432 61,309.7 151.1,309.7 "
               id="polygon3" />
            <polygon
               class="cls-4"
               points="865,397.6 865,416.4 865,466.4 931.2,466.4 931.2,416.4 997,416.4 997,466.4 1014.1,466.4 1014.1,416.4 1030.1,416.4 1030.1,349.4 865,349.4 "
               id="polygon4" />
            <rect
               class="cls-2"
               x="81.400002"
               y="358.39999"
               width="15"
               height="7.3000002"
               id="rect4" />
            <rect
               class="cls-2"
               x="73.800003"
               y="359"
               width="31.5"
               height="97.900002"
               id="rect5" />
            <rect
               class="cls-2"
               x="882.70001"
               y="384"
               width="97.800003"
               height="32.799999"
               id="rect6" />
            <rect
               class="cls-2"
               x="915.70001"
               y="416.60001"
               width="15.9"
               height="32.200001"
               id="rect7" />
            <rect
               class="cls-2"
               x="882.70001"
               y="417"
               width="32.799999"
               height="14.9"
               id="rect8" />
            <rect
               class="cls-2"
               x="899.5"
               y="431.60001"
               width="16"
               height="8.1999998"
               id="rect9" />
          </g>
          <g
             id="Lines">
            <rect
               class="cls-3"
               x="518"
               y="796.20001"
               width="1"
               height="66.300003"
               id="rect10" />
            <path
               class="cls-3"
               d="m 181,824.3 v 29 h 21 v 9 h -32 v -38 h 11 m 1,-1 h -13 v 40 h 34 v -11 h -21 z"
               id="path10" />
            <path
               class="cls-3"
               d="m 298.5,782.8 10.1,10.2 -22.3,22.3 -10.1,-10.2 22.3,-22.3 m 0,-1.6 -23.7,23.7 11.6,11.6 23.7,-23.7 z"
               id="path11" />
            <rect
               class="cls-3"
               x="242"
               y="656.20001"
               width="1"
               height="16.299999"
               id="rect11" />
            <rect
               class="cls-3"
               x="245.10001"
               y="656.20001"
               width="1"
               height="16.5"
               id="rect12" />
            <path
               class="cls-3"
               d="m 329.1,648.3 v 32 h -32 v -32 h 32 m 1,-1 h -34 v 34 h 34 z"
               id="path12" />
            <path
               class="cls-3"
               d="m 329.1,641.5 v 5.9 h -15 v -5.9 h 15 m 1,-1 h -17 v 7.9 h 17 z"
               id="path13" />
            <rect
               class="cls-3"
               x="96.699997"
               y="639.29999"
               width="50.5"
               height="1"
               id="rect13" />
            <path
               class="cls-3"
               d="m 129.1,623.3 v 16 h -14 v -16 h 14 m 1,-1 h -16 v 18 h 16 z"
               id="path14" />
            <path
               class="cls-3"
               d="m 369,326.5 v 24 h -15 v -24 h 15 m 1,-1 h -17 v 26 h 17 z"
               id="path15" />
            <path
               class="cls-3"
               d="m 421.8,144.6 10.4,10.4 -10.2,10.2 -10.4,-10.4 10.2,-10.2 m 0,-1.4 -11.6,11.6 11.9,11.9 11.6,-11.6 z"
               id="path16" />
            <path
               class="cls-3"
               d="m 526,3.3 v 11 H 499 V 3.4 h 27 m 1,-1.1 h -29 v 13 h 29 z"
               id="path17" />
            <path
               class="cls-3"
               d="m 600,3.3 v 11 H 573 V 3.4 h 27 m 1,-1.1 h -29 v 13 h 29 z"
               id="path18" />
            <path
               class="cls-3"
               d="m 662,3.3 v 11 H 635 V 3.4 h 27 m 1,-1.1 h -29 v 13 h 29 z"
               id="path19" />
            <path
               class="cls-3"
               d="m 684.1,3.3 v 9 h -6 V 3.4 h 6 m 1,-1.1 h -8 v 11 h 8 z"
               id="path20" />
            <path
               class="cls-3"
               d="m 716,136.4 v 16 h -15 v -16 h 15 m 1,-1 h -17 v 18 h 17 z"
               id="path21" />
            <path
               class="cls-3"
               d="m 700,144.4 v 8 h -7 v -8 h 7 m 1,-1 h -9 v 10 h 9 z"
               id="path22" />
            <path
               class="cls-3"
               d="m 559,268.4 v 16 h -15 v -16 h 15 m 1,-1 h -17 v 18 h 17 z"
               id="path23" />
            <path
               class="cls-3"
               d="m 782,318.4 v 15 h -15 v -15 h 15 m 1,-1 h -17 v 17 h 17 z"
               id="path24" />
            <path
               class="cls-3"
               d="m 766,326.4 v 7 h -7 v -7 h 7 m 1,-1 h -9 v 9 h 9 z"
               id="path25" />
            <path
               class="cls-3"
               d="m 501,466.4 v 15 h -32 v -15 h 32 m 1,-1 h -34 v 17 h 34 z"
               id="path26" />
            <path
               class="cls-3"
               d="m 484,482.4 v 7 h -7 v -7 h 7 m 1,-1 h -9 v 9 h 9 z"
               id="path27" />
            <path
               class="cls-3"
               d="m 476,482.4 v 16 h -7 v -16 h 7 m 1,-1 h -9 v 18 h 9 z"
               id="path28" />
            <path
               class="cls-3"
               d="m 568.1,673.3 v 7 h -15 v -7 h 15 m 1,-1 h -17 v 9 h 17 z"
               id="path29" />
            <path
               class="cls-3"
               d="m 584,648.3 v 16 h -15 v -16 h 15 m 1,-1 h -17 v 18 h 17 z"
               id="path30" />
            <path
               class="cls-3"
               d="m 807,797.3 v 23 h -32 v -23 h 32 m 1,-1 h -34 v 25 h 34 z"
               id="path31" />
            <path
               class="cls-3"
               d="m 807,812.3 v 8 h -32 v -8 h 32 m 1,-1 h -34 v 10 h 34 z"
               id="path32" />
            <path
               class="cls-3"
               d="m 997.1,648.3 v 32.1 h -73 v -32.1 h 73 m 1,-1 h -75 v 34.1 h 75 z"
               id="path33" />
            <path
               class="cls-3"
               d="m 972,648.3 v 6 h -15 v -6 h 15 m 1,-1 h -17 v 8 h 17 z"
               id="path34" />
            <path
               class="cls-3"
               d="m 897,581.3 v 16 h -14 v -16 h 14 m 1,-1 h -16 v 18 h 16 z"
               id="path35" />
            <path
               class="cls-3"
               d="m 1030.1,533.3 v 15 h -32 v -15 h 32 m 1,-1 h -34 v 17 h 34 z"
               id="path36" />
            <path
               class="cls-3"
               d="m 997.1,201.4 v 32 h -32 v -32 h 32 m 1,-1 h -34 v 34 h 34 z"
               id="path37" />
            <path
               class="cls-3"
               d="m 652,613.3 h -84.2 v 1 H 634 v 17 h 17 v 16 h 1 v -33 0 z m -1,17 h -16 v -16 h 16 z"
               id="path38" />
            <rect
               class="cls-3"
               x="782.09998"
               y="581.20001"
               width="1"
               height="132.2"
               id="rect38" />
            <rect
               class="cls-3"
               x="931.09998"
               y="647.79999"
               width="1"
               height="33"
               id="rect39" />
            <rect
               class="cls-3"
               x="831.09998"
               y="457.10001"
               width="1"
               height="50.400002"
               id="rect40" />
            <path
               class="cls-3"
               d="m 887.5,515.5 10.9,10.9 -11.1,11.1 -10.8,-10.9 11.1,-11.1 m -0.1,-1.5 -12.5,12.5 12.3,12.3 12.5,-12.5 z"
               id="path40" />
            <path
               class="cls-3"
               d="m 883,383.4 h -1 v 49 h 17 v 8 h 16 v 9 h 16.9 v -1 H 916 v -31 h 16.4 v -1 H 883 v -32 h 97 v 32.1 h 1 v -33.1 z m 17,56 v -7 h 15 v 7 z m 15.1,-22 v 14 h -32 v -14 z"
               id="path41" />
            <rect
               class="cls-3"
               x="964.40002"
               y="217.39999"
               width="33.400002"
               height="1"
               id="rect41" />
            <rect
               class="cls-3"
               x="684.09998"
               y="101.3"
               width="99.099998"
               height="1"
               id="rect42" />
            <rect
               class="cls-3"
               x="485.5"
               y="85.300003"
               width="66.5"
               height="1"
               id="rect43" />
          </g>
          <g
             id="Outlines">
            <path
               class="cls-3"
               d="m 53.8,514.2 v 50 h -8 v -50 h 8 m 1.1,-1 H 44.8 v 52.1 h 10.1 z"
               id="path43" />
            <path
               class="cls-3"
               d="m 874,160.4 v 16 h -9 v -8 h -57 v -8 h 66 m 1.1,-1 H 807 v 10.1 h 57 v 8 h 11.1 z"
               id="path44" />
          </g>
          <g
             id="Callouts_copy">
            <g
               class="cls-5"
               id="g121">
              <path
                 class="cls-3"
                 d="m 384.5,664.7 v -5.5 c 0,-0.5 0.3,-0.8 0.7,-0.8 h 2.3 c 1.3,0 2.1,0.7 2.1,1.8 0,1.1 -0.6,1.4 -1.3,1.5 v 0 c 1,0 1.7,0.8 1.7,1.7 0,0.9 -0.9,2 -2.4,2 h -2.4 c -0.5,0 -0.7,-0.3 -0.7,-0.8 v 0 z m 2.5,-3.5 c 0.8,0 1.2,-0.3 1.2,-0.9 0,-0.6 -0.4,-0.9 -1.1,-0.9 h -1.2 v 1.8 z m 0.2,3.1 c 0.9,0 1.3,-0.4 1.3,-1 0,-0.6 -0.5,-1 -1.3,-1 H 386 v 2 h 1.3 v 0 z"
                 id="path121" />
            </g>
            <g
               class="cls-5"
               id="g122">
              <path
                 class="cls-3"
                 d="m 390.6,662.8 c 0,-1.7 1,-2.8 2.5,-2.8 1.5,0 2.5,1 2.5,2.4 0,1.4 -0.2,0.6 -0.6,0.6 h -3 c 0,0.8 0.5,1.3 1.2,1.3 0.7,0 0.9,-0.2 1.2,-0.6 0.1,-0.2 0.3,-0.2 0.5,-0.2 0.3,0 0.6,0.2 0.6,0.5 0,0.3 0,0.2 -0.1,0.3 -0.4,0.6 -1.2,1 -2.2,1 -1.6,0 -2.6,-1 -2.6,-2.7 v 0 z m 3.6,-0.6 c 0,-0.7 -0.5,-1.1 -1.1,-1.1 -0.6,0 -1.1,0.5 -1.1,1.1 z"
                 id="path122" />
            </g>
            <g
               class="cls-5"
               id="g123">
              <path
                 class="cls-3"
                 d="m 396.3,660.8 c 0,-0.4 0.3,-0.7 0.7,-0.7 0.4,0 0.7,0.3 0.7,0.7 v 0.3 0 c 0.3,-0.7 0.8,-1 1.6,-1 1.2,0 1.8,0.7 1.8,2 v 2.7 c 0,0.5 -0.3,0.7 -0.7,0.7 -0.4,0 -0.7,-0.2 -0.7,-0.7 v -2.4 c 0,-0.7 -0.3,-1.1 -1,-1.1 -0.7,0 -1,0.5 -1,1.2 v 2.4 c 0,0.5 -0.3,0.7 -0.7,0.7 -0.4,0 -0.7,-0.2 -0.7,-0.7 v 0"
                 id="path123" />
            </g>
            <g
               class="cls-5"
               id="g124">
              <path
                 class="cls-3"
                 d="m 401.9,662.8 c 0,-1.7 0.8,-2.7 2.1,-2.7 1.3,0 1.3,0.4 1.6,1 v 0 -2.1 c 0,-0.5 0.3,-0.8 0.7,-0.8 0.4,0 0.7,0.3 0.7,0.8 v 5.8 c 0,0.5 -0.3,0.7 -0.7,0.7 -0.4,0 -0.7,-0.2 -0.7,-0.7 v -0.3 0 c -0.2,0.6 -0.8,1 -1.6,1 -1.3,0 -2.1,-1 -2.1,-2.7 z m 3.8,0 c 0,-1 -0.5,-1.6 -1.2,-1.6 -0.7,0 -1.2,0.6 -1.2,1.6 0,1 0.4,1.5 1.2,1.5 0.8,0 1.2,-0.6 1.2,-1.5 z"
                 id="path124" />
            </g>
            <path
               class="cls-3"
               d="m 179.2,364.5 v 16 c 0,1.4 -0.8,2.2 -2.1,2.2 h -6.8 c -3.8,0 -6.2,-2 -6.2,-5.1 0,-3.1 1.7,-4.1 3.8,-4.4 v 0 c -2.8,-0.3 -4.8,-2.3 -4.8,-5 0,-2.7 2.7,-5.9 7.1,-5.9 h 6.9 c 1.4,0 2.1,0.8 2.1,2.2 z m -7.4,9.6 c -2.3,0 -3.6,1 -3.6,2.7 0,1.7 1.1,2.6 3.1,2.6 h 3.5 v -5.3 h -3.1 z m -0.6,-8.7 c -2.5,0 -3.8,1 -3.8,3 0,2 1.4,2.9 3.9,2.9 h 3.6 v -5.9 z"
               id="path130" />
            <path
               class="cls-3"
               d="m 997.6,357 c 1.1,0 1.8,0.6 2.2,1.9 l 1.1,3.2 h 7.4 l 1.1,-3.2 c 0.4,-1.3 1,-1.9 2.2,-1.9 1.2,0 2.1,0.8 2.1,2 0,1.2 0,0.8 -0.3,1.4 l -5.6,15.2 c -0.6,1.7 -1.6,2.4 -3.3,2.4 -1.7,0 -2.6,-0.8 -3.2,-2.4 l -5.6,-15.2 c -0.2,-0.5 -0.3,-1 -0.3,-1.4 0,-1.2 0.8,-2 2.2,-2 z m 4.2,8.4 2.7,8.4 v 0 l 2.7,-8.4 h -5.5 v 0 z"
               id="path131" />
          </g>
        </g>
        <polygon
           class="cls-3"
           points="96,324.4 96,359.4 105,359.4 105,456.4 74,456.4 74,359.4 82,359.4 82,324.4 49.9,324.4 49.9,325.4 81,325.4 81,358.4 73,358.4 73,457.4 106,457.4 106,416.1 106,408.4 106,407.4 106,375.4 106,374.4 106,359.4 106,358.4 97,358.4 97,325.4 252,325.4 271.2,342.9 271.2,358.4 271.2,357.4 272,341.7 252.5,324.4 "
           id="polygon161" />
        <g
           id="g162">
          <rect
             class="cls-2"
             x="73.800003"
             y="376.70001"
             width="13.4"
             height="57.099998"
             id="rect161" />
          <path
             class="cls-3"
             d="M 87.7,434.3 H 73.3 v -58.1 h 14.4 z m -13.4,-1 H 86.7 V 377.2 H 74.3 Z"
             id="path162" />
        </g>
        <g
           id="g163">
          <rect
             class="cls-2"
             x="105.6"
             y="377.39999"
             width="13.4"
             height="14.5"
             id="rect162" />
          <path
             class="cls-3"
             d="M 119.5,392.5 H 105.1 V 377 h 14.4 z m -13.4,-1 h 12.4 V 378 h -12.4 z"
             id="path163" />
        </g>
        <g
           id="g164">
          <rect
             class="cls-2"
             x="188.60001"
             y="434.70001"
             width="16.5"
             height="18"
             id="rect163" />
          <path
             class="cls-3"
             d="m 205.6,453.1 h -17.5 v -19 h 17.5 z m -16.5,-1 h 15.5 v -17 h -15.5 z"
             id="path164" />
        </g>
        <g
           id="g165">
          <rect
             class="cls-2"
             x="105.6"
             y="392"
             width="30.700001"
             height="14.5"
             id="rect164" />
          <path
             class="cls-3"
             d="m 136.8,407 h -31.7 v -15.5 h 31.7 z m -30.7,-1 h 29.7 v -13.5 h -29.7 z"
             id="path165" />
        </g>
        <g
           id="g166">
          <circle
             class="cls-2"
             cx="123.4"
             cy="387.79999"
             r="3.2"
             id="circle165" />
          <path
             class="cls-3"
             d="m 123.4,391.5 c -2,0 -3.7,-1.7 -3.7,-3.7 0,-2 1.7,-3.7 3.7,-3.7 2,0 3.7,1.7 3.7,3.7 0,2 -1.7,3.7 -3.7,3.7 z m 0,-6.4 c -1.5,0 -2.7,1.2 -2.7,2.7 0,1.5 1.2,2.7 2.7,2.7 1.5,0 2.7,-1.2 2.7,-2.7 0,-1.5 -1.2,-2.7 -2.7,-2.7 z"
             id="path166" />
        </g>
        <g
           id="g167">
          <circle
             class="cls-2"
             cx="123.4"
             cy="380.60001"
             r="3.2"
             id="circle166" />
          <path
             class="cls-3"
             d="m 123.4,384.3 c -2,0 -3.7,-1.7 -3.7,-3.7 0,-2 1.7,-3.7 3.7,-3.7 2,0 3.7,1.7 3.7,3.7 0,2 -1.7,3.7 -3.7,3.7 z m 0,-6.4 c -1.5,0 -2.7,1.2 -2.7,2.7 0,1.5 1.2,2.7 2.7,2.7 1.5,0 2.7,-1.2 2.7,-2.7 0,-1.5 -1.2,-2.7 -2.7,-2.7 z"
             id="path167" />
        </g>
        <path
           class="cls-3"
           d="m 204.5,385.2 -12.8,-12.8 12.8,-12.8 12.8,12.8 z M 193.2,372.4 204.6,383.8 216,372.4 204.6,361 Z"
           id="path168" />
        <path
           class="cls-3"
           d="m 222.7,391.3 -12.8,-12.8 12.8,-12.8 12.8,12.8 z m -11.3,-12.8 11.4,11.4 11.4,-11.4 -11.4,-11.4 z"
           id="path169" />
        <path
           class="cls-3"
           d="m 151.3,308.8 v 15.6 H 50.4 v -15.6 h 100.9 m 1,-1 H 49.4 v 17.6 h 102.9 z"
           id="path170" />
        <path
           class="cls-3"
           d="M 119.1,571.8 H 54.4 V 507.4 H 119 c 0,0 0,64.4 0,64.4 z m -63.7,-1 H 118 V 508.4 H 55.4 Z"
           id="path171" />
        <rect
           class="cls-3"
           x="251.10001"
           y="291.60001"
           width="1"
           height="33.299999"
           id="rect171" />
        <g
           id="g181">
          <path
             class="cls-3"
             d="m 601.1,391.5 h -33 v -107 h -33 v 98.9 h 2 v 33 h 6 v 33 h -6 v 132 H 518 v 33 h 50.1 v -60 c -1.8,-1.1 -3,-3 -3,-5.2 0,-2.2 1.2,-4.2 3,-5.2 v -31.3 c -1.8,-1.1 -3,-3 -3,-5.2 0,-2.2 1.2,-4.2 3,-5.2 v -31.4 c -1.8,-1.1 -3,-3 -3,-5.2 0,-2.2 1.2,-4.2 3,-5.2 v -28 h 33 v 42 h 50 v -58 h 132 v -81 h 2 v -2 h -184 z m 1,-57 H 782 v 80.9 H 650 v 58 h -47.9 v -42 H 567 v 28.5 c -1.8,1.3 -3,3.5 -3,5.8 0,2.3 1.1,4.5 3,5.8 v 30.2 c -1.8,1.3 -3,3.5 -3,5.8 0,2.3 1.1,4.5 3,5.8 v 30.2 c -1.8,1.3 -3,3.5 -3,5.8 0,2.3 1.1,4.5 3,5.8 v 58.4 h -48 v -30.9 h 19.1 v -132 h 6 v -35.1 h -6 v -33 h -2 v -96.9 0 c 0,-0.1 30.9,-0.1 30.9,-0.1 v 107 h 35.1 z"
             id="path172" />
          <path
             class="cls-3"
             d="m 502.1,234.4 h 99 l 33,33 v 33 h 83 v -66 h 2 v -2 h -2 v -62 h 2 v -2 h -2 v -16 H 434.8 l -15.7,15.9 v 149.1 h 83 z m -1.1,82 H 420.1 V 168.8 l 15.1,-15.3 H 716 V 299.4 H 635.1 V 267 l -0.3,-0.3 -33,-33 -0.3,-0.3 H 501 Z"
             id="path173" />
          <path
             class="cls-3"
             d="m 251.6,326.1 19.5,16 v 57.4 h 49 V 276.4 h -69.2 v 16 c 0.1,0 0.7,33.7 0.7,33.7 z M 319,277.5 v 120.9 h -46.9 c 0,0 0,-56.7 0,-56.7 l -0.3,-0.3 -19.5,-16 -0.3,-0.3 v -33.7 c 0,0 -0.1,-13.9 -0.1,-13.9 z"
             id="path174" />
          <path
             class="cls-3"
             d="m 816.1,333.5 h -2 v 2 h 2 v 73.7 l 8,37.3 v 11 h 8 v -124 h 83 v -66 h -99 z m 1,-65 H 914 v 63.9 h -83 v 124 h -5.9 v -10.1 c 0,-0.1 -8,-37.3 -8,-37.3 z"
             id="path175" />
          <path
             class="cls-3"
             d="m 832.1,515.3 v -8 h -8 v 8 h -74 v -83 h -50 v 58 h -99 v 91 h 83 v 116 h -33 v 24 h -9 v 17 h 9 v 25 h 99 v -182 h 148 v -33 l -32.7,-33 z m 64.9,65 H 749 v 182 h -96.9 v -25 h -9 v -14.9 h 9 v -24 h 33 V 580.3 h -83 v -88.9 h 99 v -58 H 749 v 83 h 76.1 v -8 h 5.9 v 8 h 33.9 l 32.1,32.4 z"
             id="path176" />
          <path
             class="cls-3"
             d="m 242.1,728.3 h -2 v 2 h 6 v -58 h -4 z m 1,-54.8 h 1.9 v 55.9 h -1.9 z"
             id="path177" />
          <path
             class="cls-3"
             d="M 1031.1,417.5 V 299.4 h -66 v -30.9 h 33 V 200.4 H 864 v 33 H 751.1 v -63.9 h 33 V 85.4 h -99 V 2.4 H 485 v 83 H 352 v 117.1 h 33 v 39.9 H 185.8 v 35.1 h 16.1 v 13.9 H 57.8 l -0.3,0.3 -8.3,16 -0.3,0.3 v 16.4 c 0.1,0 -9.9,0 -9.9,0 v 167.1 h 99 v 96.9 H 39 v 52.1 h 56.9 v 41 H 208 v 47.9 h -4 v 40.8 l -34.7,34.5 -0.3,0.3 v 58.5 h 185.1 v -33 H 451 v 132 h 217.1 v -132 H 732 v 33 H 866.1 V 729.4 h -33 V 648.5 H 864 v 33 h 134.1 v -33 h 17 v -33 h 12 v -35.1 h -70 v -30.9 h 74 v -68.1 h -16 v -63.9 z m -1.1,64.9 v 66 h -74 v 33 h 70 v 33 h -12 v 33 h -17 v 33 H 865 v -33 h -33 v 83 h 33 v 132 H 733 v -33 h -66 v 132 H 452 v -132 h -99 v 33 H 170 v -57 l 35,-34.8 v -40.2 h 6 v -2 h -2 v -48 H 96.9 v -41 H 40 v -50 h 99 v -99 H 40 v -165 h 10 v -17 c -0.1,0 8.2,-16 8.2,-16 H 203 v -16 h -16.1 v -33 h 199.2 v -42 h -33 v -115 h 133 V 3.3 h 198 v 83 h 99 v 82 h -35 v 2 h 2 v 62 h -2 v 2 h 117 v -33 h 132 v 66 h -33 v 33 h 66 v 116 h -16 v 66 h 16 z"
             id="path178" />
          <path
             class="cls-3"
             d="m 931.1,482.4 h 66 v -66 h -66 z m 1,-64.9 H 996 v 63.9 h -63.9 z"
             id="path179" />
          <path
             class="cls-3"
             d="m 147.1,647.3 h 95 v 9 h 4 v -17 h -99 z m 1,-6.8 H 245 v 14.9 h -1.9 v -9 h -95 z"
             id="path180" />
          <rect
             class="cls-3"
             x="783.09998"
             y="606.29999"
             width="2"
             height="16"
             id="rect180" />
          <path
             class="cls-3"
             d="m 485.1,928.3 h 67 v -66 h -67 z m 1,-64.8 H 551 v 63.9 h -64.9 z"
             id="path181" />
        </g>
        <path
           class="cls-3"
           d="m 585.1,721.3 v -57 h -17 v 16 H 468 c 0,0 -19,0 -19,0 V 615 h 16.5 v -64.2 h -55.4 v 72.6 h -60.3 l -20.6,16.3 H 329 v 1.7 0 38.8 h -33 v 99.9 l 16,16.1 h 107 v -33 h 99 v 33 h 67 v -58 h 8 v -17 h -8 z m 6.9,16 h -8 v 58 h -64.9 v -33 H 418 v 33 H 312.5 l -15.4,-15.5 v -98.5 h 33 v -40.1 0 -0.8 l 20.1,-16 h 60.9 v -72.6 h 53.4 V 614 H 448 v 67.3 h 121.1 c 0,0 0,-16 0,-16 H 584 v 57 h 8 v 14.9 z"
           id="path182" />
        <path
           class="cls-3"
           d="m 353,350.4 v 33 h 17 v 68.8 H 188 v 137.2 h 33 v -16 h 154.2 c 0,0 0,-58.8 0,-58.8 h 92.9 v -1 1 c 0,0 0.9,0 0.9,0 V 350.4 Z m 21.2,163.1 v 58.8 H 220.1 c 0,0 0,16 0,16 H 189.2 V 453.2 h 182 v -70.9 h -17 v -30.9 h 113.9 v 162.1 z"
           id="path183" />
        <rect
           class="cls-3"
           x="350.70001"
           y="572.70001"
           width="1"
           height="51.299999"
           id="rect183" />
        <rect
           class="cls-3"
           x="374.20001"
           y="614.09998"
           width="1"
           height="9.8999996"
           id="rect184" />
        <rect
           class="cls-3"
           x="374.20001"
           y="571.79999"
           width="1"
           height="9.8999996"
           id="rect185" />
      </g>
    </g>
  </g>
</svg>
