<?xml version="1.0" encoding="UTF-8" standalone="no"?>
<svg
   version="1.1"
   viewBox="0 0 1084 964.8"
   id="svg186"
   sodipodi:docname="abyssfull.svg"
   inkscape:version="1.4.2 (f4327f4, 2025-05-13)"
   xmlns:inkscape="http://www.inkscape.org/namespaces/inkscape"
   xmlns:sodipodi="http://sodipodi.sourceforge.net/DTD/sodipodi-0.dtd"
   xmlns="http://www.w3.org/2000/svg"
   xmlns:svg="http://www.w3.org/2000/svg">
  <sodipodi:namedview
     id="namedview186"
     pagecolor="#505050"
     bordercolor="#eeeeee"
     borderopacity="1"
     inkscape:showpageshadow="0"
     inkscape:pageopacity="0"
     inkscape:pagecheckerboard="0"
     inkscape:deskcolor="#505050"
     inkscape:zoom="0.8364428"
     inkscape:cx="541.57917"
     inkscape:cy="482.39999"
     inkscape:window-width="1920"
     inkscape:window-height="1009"
     inkscape:window-x="1912"
     inkscape:window-y="-8"
     inkscape:window-maximized="1"
     inkscape:current-layer="g185" />
  <defs
     id="defs1">
    <style
       id="style1">
      .cls-1 {
        fill: #3d3d3d;
      }

      .cls-2 {
        fill: #7e7f7e;
      }

      .cls-3 {
        fill: #fff;
      }

      .cls-4 {
        fill: #535353;
      }

      .cls-5 {
        display: none;
      }
    </style>
  </defs>
  <!-- Generator: Adobe Illustrator 28.6.0, SVG Export Plug-In . SVG Version: 1.2.0 Build 709)  -->
  <g
     id="g186">
    <g
       id="Layer_1">
      <g
         id="g185">
        <g
           id="Layer_1-2"
           data-name="Layer_1">
          <g
             id="Callouts_copy">
            <path
               class="cls-3"
               d="M562.6,900v-.6l2.5-6.8c.3-.7.7-1.1,1.4-1.1s1.2.3,1.5,1.1l2.5,6.8v.6c0,.5-.4.9-1,.9s-.8-.2-1-.8l-.5-1.5h-3.3l-.5,1.4c-.2.6-.5.9-1,.9s-1-.3-1-.9h.4ZM567.9,897l-1.2-3.8h0l-1.2,3.8h2.4Z"
               id="path45" />
            <path
               class="cls-3"
               d="M571.8,895.3h-.4c-.4,0-.7-.3-.7-.7s.3-.7.7-.7h.4v-.8c0-.6.3-1,.9-1s.9.4.9,1v.8h.7c.4,0,.7.3.7.7s-.3.7-.7.7h-.7v3.3c0,.5.2.7.6.7h0c.5,0,.7.2.7.7s-.5.8-1.3.8h0c-1.2,0-1.9-.6-1.9-1.8v-3.7h0Z"
               id="path46" />
            <path
               class="cls-3"
               d="M576.5,895.3h-.4c-.4,0-.7-.3-.7-.7s.3-.7.7-.7h.4v-.8c0-.6.3-1,.9-1s.9.4.9,1v.8h.7c.4,0,.7.3.7.7s-.3.7-.7.7h-.7v3.3c0,.5.2.7.6.7h0c.5,0,.7.2.7.7s-.5.8-1.3.8h0c-1.2,0-1.9-.6-1.9-1.8v-3.7h0Z"
               id="path47" />
            <path
               class="cls-3"
               d="M580.3,898.8c0-1.2,1-2,2.7-2.1h1.7v-.5c0-.6-.4-1-1.1-1s-.9.2-1.3.7c-.2.2-.4.3-.7.3-.5,0-.8-.3-.8-.7v-.4c.3-.8,1.4-1.3,2.8-1.3s2.9.9,2.9,2.3v3.9c0,.6-.4.9-.9.9s-.8-.3-.9-.8v-.3h0c-.4.7-1.2,1.2-2.1,1.2-1.3,0-2.3-.8-2.3-2.1h0ZM584.6,898.2v-.5h-1.4c-.7,0-1.1.5-1.1.9s.4.8,1,.8,1.5-.5,1.5-1.3h0Z"
               id="path48" />
            <path
               class="cls-3"
               d="M587.4,897.3c0-2.2,1.3-3.5,3.3-3.5s2.5.7,2.9,1.6v.5c0,.5-.4.7-.8.7s-.6-.2-.8-.5c-.3-.6-.8-.9-1.3-.9-.9,0-1.5.8-1.5,2.1s.6,2.1,1.5,2.1,1-.3,1.3-.8c.2-.4.5-.5.8-.5s.8.3.8.7v.5c-.4.9-1.6,1.6-2.9,1.6-2,0-3.3-1.3-3.3-3.5h0Z"
               id="path49" />
            <path
               class="cls-3"
               d="M594.8,900v-7.5c0-.6.4-1,.9-1s.9.3.9,1v4.2h0l2.5-2.5c.2-.3.5-.4.7-.4.5,0,.8.3.8.8s0,.5-.3.7l-1.7,1.6,1.9,2.4c.2.3.3.4.3.7,0,.5-.4.8-.9.8s-.6,0-.9-.6l-1.8-2.3-.6.5v1.4c0,.6-.4,1-.9,1s-.9-.3-.9-1h0v.2h0Z"
               id="path50" />
            <path
               class="cls-3"
               d="M601.2,897.3c0-2.2,1.3-3.6,3.3-3.6s3.2,1.3,3.2,3.2-.3.8-.8.8h-3.9c0,1.1.6,1.8,1.5,1.8s1.1-.2,1.6-.8c.2-.2.4-.3.6-.3.4,0,.7.2.7.7v.5c-.5.8-1.5,1.3-2.8,1.3-2.1,0-3.4-1.3-3.4-3.5h0ZM605.9,896.7c0-.9-.6-1.5-1.4-1.5s-1.4.6-1.5,1.5h2.9Z"
               id="path51" />
            <path
               class="cls-3"
               d="M608.6,900v-5.2c0-.6.4-.9.9-.9s.9.3.9.9v.4h0c.2-.8.7-1.3,1.4-1.3s.4,0,.6.2c.2,0,.3.4.3.7s0,.5-.3.7-.4.2-.8.2c-.8,0-1.1.5-1.1,1.3v3c0,.6-.4,1-.9,1s-.9-.3-.9-1h-.1Z"
               id="path52" />
            <path
               class="cls-3"
               d="M616,899.2v-.5c0-.5.3-.8.8-.8s.7.2.9.6c.3.7,1,1,1.9,1s1.7-.5,1.7-1.2-.4-1-1.6-1.2l-1-.2c-1.8-.4-2.7-1.2-2.7-2.6s1.5-2.8,3.5-2.8,2.9.7,3.3,1.9v.4c0,.5-.3.8-.8.8s-.7-.2-.9-.6c-.3-.7-.9-1-1.7-1s-1.6.4-1.6,1.1.4.9,1.5,1.1l1,.2c1.9.4,2.8,1.2,2.8,2.6s-1.4,2.9-3.7,2.9-3.1-.8-3.5-1.8h0Z"
               id="path53" />
            <path
               class="cls-3"
               d="M624.1,902.2v-7.5c0-.6.4-1,.9-1s.9.3.9,1v.4h0c.4-.8,1.1-1.3,2.1-1.3,1.7,0,2.8,1.3,2.8,3.5s-1,3.5-2.8,3.5-1.8-.5-2.1-1.2h0v2.6c0,.6-.4,1-.9,1s-.9-.3-.9-1h0ZM629,897.3c0-1.2-.6-2-1.5-2s-1.5.8-1.5,2,.6,2,1.5,2,1.5-.8,1.5-2Z"
               id="path54" />
            <path
               class="cls-3"
               d="M631.6,898.8c0-1.2,1-2,2.7-2.1h1.7v-.5c0-.6-.4-1-1.1-1s-.9.2-1.3.7c-.2.2-.4.3-.7.3-.5,0-.8-.3-.8-.7v-.4c.3-.8,1.4-1.3,2.8-1.3s2.9.9,2.9,2.3v3.9c0,.6-.4.9-.9.9s-.8-.3-.9-.8v-.3h0c-.4.7-1.2,1.2-2.1,1.2-1.3,0-2.3-.8-2.3-2.1h0ZM635.9,898.2v-.5h-1.4c-.7,0-1.1.5-1.1.9s.4.8,1,.8,1.5-.5,1.5-1.3h0Z"
               id="path55" />
            <path
               class="cls-3"
               d="M640,900l-1.4-4.7v-.6c0-.5.4-.8.9-.8s.8.3.9.8l1,4.4h0l1-4.3c0-.5.5-.8,1-.8s.9.3,1,.8l1.1,4.3h0l1-4.4c0-.5.4-.8.9-.8s.9.3.9.8v.6l-1.4,4.8c-.2.7-.5,1-1.2,1s-1-.3-1.2-1l-1-4h0l-1,4c-.2.7-.5,1-1.2,1s-1-.3-1.2-1h0Z"
               id="path56" />
            <path
               class="cls-3"
               d="M649.2,900v-5.2c0-.6.3-.9.9-.9s.9.4.9.9v.4h0c.4-.8,1-1.3,2.1-1.3s2.4,1,2.4,2.5v3.5c0,.6-.4,1-.9,1s-.9-.3-.9-1v-3.2c0-.9-.4-1.4-1.2-1.4s-1.4.6-1.4,1.5v3.1c0,.6-.4,1-.9,1s-.9-.3-.9-1h0Z"
               id="path57" />
            <path
               class="cls-3"
               d="M893.2,236.9v-.4c0-.4.3-.6.7-.6s.5.1.7.4c.2.5.8.8,1.5.8s1.3-.4,1.3-.9-.3-.7-1.2-.9h-.8c-1.4-.4-2.1-1.1-2.1-2.1s1.1-2.1,2.7-2.1,2.3.5,2.6,1.5v.3c0,.4-.2.6-.6.6s-.5-.1-.7-.4c-.2-.5-.7-.8-1.3-.8s-1.2.3-1.2.9.3.7,1.2.9h.7c1.5.4,2.1,1,2.1,2.1s-1.1,2.2-2.8,2.2-2.4-.6-2.7-1.4h-.1Z"
               id="path58" />
            <path
               class="cls-3"
               d="M899.3,235.4c0-1.7,1-2.8,2.5-2.8s2.5,1,2.5,2.4-.2.6-.6.6h-3c0,.8.5,1.3,1.2,1.3s.9-.2,1.2-.6c.2-.2.3-.2.5-.2.3,0,.6.2.6.5v.4c-.3.6-1.2,1-2.2,1-1.6,0-2.6-1-2.6-2.7h-.1ZM902.9,234.9c0-.7-.5-1.1-1.1-1.1s-1.1.5-1.1,1.1h2.2Z"
               id="path59" />
            <path
               class="cls-3"
               d="M904.8,235.4c0-1.7,1-2.7,2.6-2.7s1.9.5,2.2,1.2v.4c0,.4-.3.6-.6.6s-.5-.1-.6-.4c-.3-.5-.6-.7-1-.7-.7,0-1.2.6-1.2,1.6s.4,1.6,1.2,1.6.8-.2,1-.6c.2-.3.3-.4.7-.4s.6.2.6.6,0,.2,0,.4c-.3.7-1.2,1.2-2.2,1.2-1.6,0-2.6-1-2.6-2.7h-.1Z"
               id="path60" />
            <path
               class="cls-3"
               d="M910.5,236.2v-2.7c0-.5.3-.8.7-.8s.7.3.7.8v2.4c0,.7.3,1.1,1,1.1s1-.4,1-1.1v-2.4c0-.5.3-.8.7-.8s.7.3.7.8v4c0,.5-.3.7-.7.7s-.7-.2-.7-.7v-.3h0c-.3.7-.8,1-1.6,1s-1.9-.7-1.9-2h0Z"
               id="path61" />
            <path
               class="cls-3"
               d="M916.2,237.4v-4c0-.4.3-.7.7-.7s.7.3.7.7v.3h0c0-.6.6-1,1.1-1s.3,0,.4.1c0,.1.2.3.2.5s0,.4-.2.5-.3.2-.6.2c-.7,0-.9.4-.9,1v2.3c0,.5-.3.7-.7.7s-.7-.3-.7-.7h0Z"
               id="path62" />
            <path
               class="cls-3"
               d="M919.9,231.4c0-.4.3-.7.8-.7s.8.3.8.7-.3.7-.8.7-.8-.3-.8-.7ZM919.9,237.4v-4c0-.5.3-.8.7-.8s.7.3.7.8v4c0,.5-.3.7-.7.7s-.7-.3-.7-.7Z"
               id="path63" />
            <path
               class="cls-3"
               d="M922.7,233.9h-.3c-.3,0-.5-.2-.5-.5s.2-.5.5-.5h.3v-.6c0-.5.3-.7.7-.7s.7.3.7.7v.6h.5c.3,0,.5.2.5.5s-.2.5-.5.5h-.5v2.5c0,.4,0,.5.4.6h0c.3,0,.5.2.5.5s-.4.6-1,.6h0c-1,0-1.4-.5-1.4-1.4v-2.8h0Z"
               id="path64" />
            <path
               class="cls-3"
               d="M925.7,239.4c0-.3.2-.5.5-.5h.2c.2,0,.5-.1.7-.5v-.2l-1.6-4.4v-.4c0-.4.3-.7.7-.7s.6.2.7.6l1.1,3.6h0l1.1-3.6c0-.4.3-.6.7-.6s.7.3.7.6v.4l-1.6,4.4c-.5,1.4-1.1,1.9-2.2,1.9s-1-.2-1-.7h0Z"
               id="path65" />
            <path
               class="cls-3"
               d="M751.3,286v-.5l1.9-5.2c.2-.6.5-.8,1.1-.8s.9.2,1.1.8l1.9,5.2v.5c0,.4-.3.7-.7.7s-.6-.2-.8-.6l-.4-1.1h-2.5l-.4,1.1c0,.5-.4.7-.8.7s-.8-.3-.8-.7h.4ZM755.3,283.9l-.9-2.9h0l-.9,2.9h1.9,0Z"
               id="path66" />
            <path
               class="cls-3"
               d="M760.4,285.9v-5.6c0-.5.3-.8.7-.8s.7.3.7.8v5.1h2.5c.4,0,.7.2.7.6s-.3.6-.7.6h-3.2c-.5,0-.7-.3-.7-.8h0Z"
               id="path67" />
            <path
               class="cls-3"
               d="M765.7,280c0-.4.3-.7.8-.7s.8.3.8.7-.3.7-.8.7-.8-.3-.8-.7ZM765.8,286v-4c0-.5.3-.8.7-.8s.7.3.7.8v4c0,.5-.3.7-.7.7s-.7-.3-.7-.7Z"
               id="path68" />
            <path
               class="cls-3"
               d="M768.1,286v-4c0-.4.3-.7.7-.7s.7.3.7.7v.3h0c.3-.6.8-1,1.6-1,1.2,0,1.8.7,1.8,2v2.7c0,.5-.3.7-.7.7s-.7-.2-.7-.7v-2.4c0-.7-.3-1.1-1-1.1s-1,.5-1,1.1v2.4c0,.5-.3.7-.7.7s-.7-.2-.7-.7h0Z"
               id="path69" />
            <path
               class="cls-3"
               d="M773.9,286v-5.8c0-.5.3-.8.7-.8s.7.3.7.8v3.2h0l1.9-1.9c.2-.2.3-.3.6-.3s.6.3.6.6,0,.4-.3.5l-1.3,1.3,1.5,1.9c.2.2.2.3.2.5,0,.4-.3.6-.7.6s-.5-.1-.7-.4l-1.3-1.8-.5.4v1.1c0,.5-.3.7-.7.7s-.7-.2-.7-.7h0Z"
               id="path70" />
            <path
               class="cls-3"
               d="M545.3,256.9v-5.1h-1.5c-.4,0-.7-.2-.7-.6s.3-.6.7-.6h4.4c.4,0,.7.2.7.6s-.3.6-.7.6h-1.5v5.1c0,.5-.3.8-.7.8s-.7-.3-.7-.8h0Z"
               id="path71" />
            <path
               class="cls-3"
               d="M548.2,254.9c0-1.7,1-2.7,2.6-2.7s2.6,1,2.6,2.7-1,2.7-2.6,2.7-2.6-1-2.6-2.7h0ZM551.9,254.9c0-1-.5-1.6-1.1-1.6s-1.2.6-1.2,1.6.4,1.6,1.2,1.6,1.1-.6,1.1-1.6h0Z"
               id="path72" />
            <path
               class="cls-3"
               d="M554.1,258.6v-5.7c0-.5.3-.7.7-.7s.7.2.7.7v.3h0c.3-.6.9-1,1.6-1,1.3,0,2.1,1,2.1,2.7s-.8,2.7-2.1,2.7-1.3-.4-1.6-1h0v2c0,.5-.3.7-.7.7s-.7-.2-.7-.7h0ZM557.9,254.9c0-.9-.5-1.6-1.2-1.6s-1.2.6-1.2,1.6.5,1.6,1.2,1.6,1.2-.6,1.2-1.6h0Z"
               id="path73" />
            <path
               class="cls-3"
               d="M562.2,257v-5.6c0-.6.3-.9,1-.9s.8.2,1,.8l1.8,4.3h0l1.7-4.3c.2-.5.5-.8,1-.8s1,.4,1,.9v5.6c0,.4-.2.7-.7.7s-.7-.2-.7-.7v-4.2h0l-1.7,4.3c0,.3-.3.5-.6.5s-.5-.1-.6-.4l-1.7-4.3h0v4.2c0,.4-.2.7-.7.7s-.7-.2-.7-.7h0Z"
               id="path74" />
            <path
               class="cls-3"
               d="M570.6,250.9c0-.4.3-.7.8-.7s.8.3.8.7-.3.7-.8.7-.8-.3-.8-.7ZM570.7,256.9v-4c0-.5.3-.8.7-.8s.7.3.7.8v4c0,.5-.3.7-.7.7s-.7-.3-.7-.7Z"
               id="path75" />
            <path
               class="cls-3"
               d="M572.9,254.9c0-1.7.8-2.7,2.1-2.7s1.3.4,1.6,1h0v-2.1c0-.5.3-.8.7-.8s.7.3.7.8v5.8c0,.5-.3.7-.7.7s-.7-.2-.7-.7v-.3h0c-.2.6-.8,1-1.6,1-1.3,0-2.1-1-2.1-2.7h0ZM576.7,254.9c0-.9-.5-1.6-1.2-1.6s-1.2.6-1.2,1.6.4,1.6,1.2,1.6,1.2-.6,1.2-1.6h0Z"
               id="path76" />
            <path
               class="cls-3"
               d="M914,628.7v-.5l1.9-5.2c.2-.6.5-.8,1.1-.8s.9.2,1.1.8l1.9,5.2v.5c0,.4-.3.7-.7.7s-.6-.2-.8-.7l-.4-1.1h-2.5l-.4,1.1c0,.5-.4.7-.8.7s-.8-.3-.8-.7h.4ZM918.1,626.5l-.9-2.9h0l-.9,2.9h1.9,0Z"
               id="path77" />
            <path
               class="cls-3"
               d="M923.2,628.7v-5.6c0-.6.3-1,1-1s.8.2,1,.8l1.8,4.3h0l1.7-4.3c.2-.5.5-.8,1-.8s1,.3,1,1v5.6c0,.4-.2.7-.7.7s-.7-.2-.7-.7v-4.2h0l-1.7,4.3c0,.3-.3.5-.6.5s-.5,0-.6-.4l-1.7-4.3h0v4.2c0,.4-.2.7-.7.7s-.7-.2-.7-.7h0Z"
               id="path78" />
            <path
               class="cls-3"
               d="M931.4,627.8c0-1,.7-1.5,2-1.6h1.3v-.4c0-.5-.3-.8-.9-.8s-.7,0-1,.5c-.2.2-.3.3-.6.3s-.6-.2-.6-.5v-.3c.2-.6,1.1-1,2.2-1s2.2.7,2.2,1.8v3c0,.5-.3.7-.7.7s-.7-.2-.7-.6v-.3h0c-.3.6-1,.9-1.6.9-1,0-1.8-.6-1.8-1.6h.2,0ZM934.7,627.3v-.4h-1.1c-.5,0-.8.4-.8.7s.3.6.8.6,1.1-.4,1.1-1h0Z"
               id="path79" />
            <path
               class="cls-3"
               d="M937,622.7c0-.4.3-.7.8-.7s.8.3.8.7-.3.7-.8.7-.8-.3-.8-.7ZM937.1,628.5v-4c0-.5.3-.8.7-.8s.7.3.7.8v4c0,.5-.3.7-.7.7s-.7-.3-.7-.7Z"
               id="path80" />
            <path
               class="cls-3"
               d="M939.4,628.7v-4c0-.4.3-.7.7-.7s.7.3.7.7v.3h0c.3-.7.8-1,1.6-1,1.2,0,1.8.7,1.8,2v2.7c0,.5-.3.7-.7.7s-.7-.2-.7-.7v-2.4c0-.7-.3-1.1-1-1.1s-1,.5-1,1.2v2.4c0,.5-.3.7-.7.7s-.7-.2-.7-.7h0Z"
               id="path81" />
            <path
               class="cls-3"
               d="M566.1,516.3c0-2.3,1.3-3.6,3.3-3.6s2.3.6,2.8,1.6c0,.2.2.4.2.5,0,.4-.3.6-.7.6s-.5-.2-.7-.5c-.3-.7-.9-1.1-1.6-1.1-1.1,0-1.8.9-1.8,2.4s.7,2.4,1.8,2.4,1.3-.3,1.6-1c.2-.3.3-.5.7-.5s.7.3.7.7v.5c-.4,1-1.5,1.6-2.8,1.6-2.1,0-3.4-1.4-3.4-3.6h0Z"
               id="path82" />
            <path
               class="cls-3"
               d="M573,518.5c0-1,.7-1.5,2-1.6h1.3v-.4c0-.5-.3-.8-.9-.8s-.7,0-1,.5c-.2.2-.3.3-.6.3s-.6-.2-.6-.5v-.3c.2-.6,1.1-1,2.2-1s2.2.7,2.2,1.8v3c0,.5-.3.7-.7.7s-.7-.2-.7-.6v-.3h0c-.3.6-1,.9-1.6.9-1,0-1.8-.6-1.8-1.6h.2,0ZM576.4,518v-.4h-1.1c-.5,0-.8.4-.8.7s.3.6.8.6,1.1-.4,1.1-1h0Z"
               id="path83" />
            <path
               class="cls-3"
               d="M579.1,515.8h-.3c-.3,0-.5-.2-.5-.5s.2-.5.5-.5h.3v-.6c0-.5.3-.7.7-.7s.7.3.7.7v.6h.5c.3,0,.5.2.5.5s-.2.5-.5.5h-.5v2.5c0,.4,0,.5.4.5h0c.3,0,.5.2.5.5s-.4.6-1,.6h0c-1,0-1.4-.5-1.4-1.4v-2.8h0Z"
               id="path84" />
            <path
               class="cls-3"
               d="M583.1,519.2l-1-3.7v-.4c0-.4.3-.6.7-.6s.6.2.7.6l.8,3.4h0l.8-3.3c0-.4.4-.7.8-.7s.7.2.8.7l.8,3.3h0l.8-3.4c0-.4.3-.6.7-.6s.7.2.7.6v.4l-1,3.7c-.2.5-.4.8-.9.8s-.8-.2-.9-.8l-.8-3h0l-.8,3.1c0,.5-.4.8-.9.8s-.8-.2-.9-.8h-.4,0Z"
               id="path85" />
            <path
               class="cls-3"
               d="M589.9,518.5c0-1,.7-1.5,2-1.6h1.3v-.4c0-.5-.3-.8-.9-.8s-.7,0-1,.5c-.2.2-.3.3-.6.3s-.6-.2-.6-.5v-.3c.2-.6,1.1-1,2.2-1s2.2.7,2.2,1.8v3c0,.5-.3.7-.7.7s-.7-.2-.7-.6v-.3h0c-.3.6-1,.9-1.6.9-1,0-1.8-.6-1.8-1.6h.2,0ZM593.3,518v-.4h-1.1c-.5,0-.8.4-.8.7s.3.6.8.6,1.1-.4,1.1-1h0Z"
               id="path86" />
            <path
               class="cls-3"
               d="M595.6,519.2v-5.8c0-.5.3-.8.7-.8s.7.3.7.8v5.8c0,.5-.3.7-.7.7s-.7-.2-.7-.7Z"
               id="path87" />
            <path
               class="cls-3"
               d="M598,519.2v-5.8c0-.5.3-.8.7-.8s.7.3.7.8v3.2h0l1.9-1.9c.2-.2.3-.3.6-.3s.6.3.6.6,0,.3-.3.5l-1.3,1.3,1.5,1.9c.2.2.2.3.2.5,0,.4-.3.6-.7.6s-.5,0-.7-.4l-1.3-1.8-.5.4v1.1c0,.5-.3.7-.7.7s-.7-.2-.7-.7h0Z"
               id="path88" />
            <path
               class="cls-3"
               d="M667.5,455.5l-2-5.3v-.4c0-.4.3-.7.8-.7s.6.2.8.6l1.7,5h0l1.7-5.1c0-.4.3-.6.7-.6s.8.3.8.7,0,.3,0,.4l-2,5.3c-.2.6-.6.9-1.1.9s-.9-.2-1.1-.9h-.3Z"
               id="path89" />
            <path
               class="cls-3"
               d="M671.6,453.8c0-1.7,1-2.8,2.5-2.8s2.5,1,2.5,2.4-.2.6-.6.6h-3c0,.8.5,1.3,1.2,1.3s.9-.2,1.2-.6c.2-.2.3-.2.5-.2.3,0,.6.2.6.5v.4c-.3.6-1.2,1-2.2,1-1.6,0-2.6-1-2.6-2.7h-.1ZM675.2,453.1c0-.7-.5-1.1-1.1-1.1s-1.1.5-1.1,1.1h2.2Z"
               id="path90" />
            <path
               class="cls-3"
               d="M677.3,455.6v-4c0-.4.3-.7.7-.7s.7.3.7.7v.3h0c.3-.6.8-1,1.6-1,1.2,0,1.8.7,1.8,2v2.7c0,.5-.3.7-.7.7s-.7-.2-.7-.7v-2.4c0-.7-.3-1.1-1-1.1s-1,.5-1,1.1v2.4c0,.5-.3.7-.7.7s-.7-.2-.7-.7h0Z"
               id="path91" />
            <path
               class="cls-3"
               d="M683.5,452.1h-.3c-.3,0-.5-.2-.5-.5s.2-.5.5-.5h.3v-.6c0-.5.3-.7.7-.7s.7.3.7.7v.6h.5c.3,0,.5.2.5.5s-.2.5-.5.5h-.5v2.5c0,.4,0,.5.4.5h0c.3,0,.5.2.5.5s-.4.6-1,.6h0c-1,0-1.4-.5-1.4-1.4v-2.8h0Z"
               id="path92" />
            <path
               class="cls-3"
               d="M535.3,49.5v-7.2c0-.6.4-1,1-1h2.5c2.8,0,4.4,1.6,4.4,4.5s-1.6,4.6-4.4,4.6h-2.5c-.6,0-1-.4-1-1h0ZM538.6,49c1.7,0,2.6-1,2.6-3s-1-3-2.6-3h-1.3v6h1.3Z"
               id="path93" />
            <path
               class="cls-3"
               d="M544,47.2c0-2.2,1.3-3.6,3.3-3.6s3.2,1.3,3.2,3.2-.3.8-.8.8h-3.9c0,1.1.6,1.8,1.5,1.8s1.1-.2,1.6-.8c.2-.2.4-.3.6-.3.4,0,.7.2.7.7v.5c-.5.8-1.5,1.3-2.8,1.3-2.1,0-3.4-1.3-3.4-3.5h0ZM548.7,46.5c0-.9-.6-1.5-1.4-1.5s-1.4.6-1.5,1.5h2.9Z"
               id="path94" />
            <path
               class="cls-3"
               d="M552,49.8v-4.6h-.4c-.4,0-.7-.2-.7-.7s.3-.7.7-.7h.4v-.5c0-1.3.7-1.9,1.9-2,1,0,1.4.3,1.4.8s0,.4-.4.5h-.4c-.6,0-.8.2-.8.8v.4h.8c.4,0,.7.2.7.7s-.3.7-.7.7h-.7v4.6c0,.6-.4,1-.9,1s-.9-.3-.9-1h0Z"
               id="path95" />
            <path
               class="cls-3"
               d="M555.7,47.2c0-2.2,1.3-3.6,3.3-3.6s3.2,1.3,3.2,3.2-.3.8-.8.8h-3.9c0,1.1.6,1.8,1.5,1.8s1.1-.2,1.6-.8c.2-.2.4-.3.6-.3.4,0,.7.2.7.7v.5c-.5.8-1.5,1.3-2.8,1.3-2.1,0-3.4-1.3-3.4-3.5h0ZM560.4,46.5c0-.9-.6-1.5-1.4-1.5s-1.4.6-1.5,1.5h2.9Z"
               id="path96" />
            <path
               class="cls-3"
               d="M563.1,49.8v-5.2c0-.6.3-.9.9-.9s.9.4.9.9v.4h0c.4-.8,1-1.3,2.1-1.3s2.4,1,2.4,2.5v3.5c0,.6-.4,1-.9,1s-.9-.3-.9-1v-3.2c0-.9-.4-1.4-1.2-1.4s-1.4.6-1.4,1.5v3.1c0,.6-.4,1-.9,1s-.9-.3-.9-1h0Z"
               id="path97" />
            <path
               class="cls-3"
               d="M570.4,47.2c0-2.2,1.1-3.5,2.8-3.5s1.8.5,2.1,1.3h0v-2.7c0-.6.4-1,.9-1s.9.3.9,1v7.5c0,.6-.4.9-.9.9s-.9-.3-.9-.9v-.4h0c-.3.8-1,1.3-2.1,1.3-1.7,0-2.8-1.3-2.8-3.5h0ZM575.3,47.2c0-1.2-.6-2-1.5-2s-1.5.8-1.5,2,.6,2,1.5,2,1.5-.8,1.5-2Z"
               id="path98" />
            <path
               class="cls-3"
               d="M578.1,47.2c0-2.2,1.3-3.6,3.3-3.6s3.2,1.3,3.2,3.2-.3.8-.8.8h-3.9c0,1.1.6,1.8,1.5,1.8s1.1-.2,1.6-.8c.2-.2.4-.3.6-.3.4,0,.7.2.7.7v.5c-.5.8-1.5,1.3-2.8,1.3-2.1,0-3.4-1.3-3.4-3.5h0ZM582.9,46.5c0-.9-.6-1.5-1.4-1.5s-1.4.6-1.5,1.5h2.9Z"
               id="path99" />
            <path
               class="cls-3"
               d="M585.6,49.8v-5.2c0-.6.4-.9.9-.9s.9.3.9.9v.4h0c.2-.8.7-1.3,1.4-1.3s.4,0,.6.2c.2,0,.3.4.3.7s0,.5-.3.7-.4.2-.8.2c-.8,0-1.1.5-1.1,1.3v3c0,.6-.4,1-.9,1s-.9-.3-.9-1h-.1Z"
               id="path100" />
            <path
               class="cls-3"
               d="M592.9,49v-.5c0-.5.3-.8.8-.8s.7.2.9.6c.3.7,1,1,1.9,1s1.7-.5,1.7-1.2-.4-1-1.6-1.2l-1-.2c-1.8-.4-2.7-1.2-2.7-2.6s1.5-2.8,3.5-2.8,2.9.7,3.3,1.9v.4c0,.5-.3.8-.8.8s-.7-.2-.9-.6c-.3-.7-.9-1-1.7-1s-1.6.4-1.6,1.1.4.9,1.5,1.1l1,.2c1.9.4,2.8,1.2,2.8,2.6s-1.4,2.9-3.7,2.9-3.1-.8-3.5-1.8h0Z"
               id="path101" />
            <path
               class="cls-3"
               d="M601.1,52v-7.5c0-.6.4-1,.9-1s.9.3.9,1v.4h0c.4-.8,1.1-1.3,2.1-1.3,1.7,0,2.8,1.3,2.8,3.5s-1,3.5-2.8,3.5-1.8-.5-2.1-1.2h0v2.6c0,.6-.4,1-.9,1s-.9-.3-.9-1h0ZM606,47.2c0-1.2-.6-2-1.5-2s-1.5.8-1.5,2,.6,2,1.5,2,1.5-.8,1.5-2Z"
               id="path102" />
            <path
               class="cls-3"
               d="M608.5,48.5c0-1.2,1-2,2.7-2.1h1.7v-.5c0-.6-.4-1-1.1-1s-.9.2-1.3.7c-.2.2-.4.3-.7.3-.5,0-.8-.3-.8-.7v-.4c.3-.8,1.4-1.3,2.8-1.3s2.9.9,2.9,2.3v3.9c0,.6-.4.9-.9.9s-.8-.3-.9-.8v-.3h0c-.4.7-1.2,1.2-2.1,1.2-1.3,0-2.3-.8-2.3-2.1h0ZM612.9,48v-.5h-1.4c-.7,0-1.1.5-1.1.9s.4.8,1,.8,1.5-.5,1.5-1.3h0Z"
               id="path103" />
            <path
               class="cls-3"
               d="M617,49.8l-1.4-4.7v-.6c0-.5.4-.8.9-.8s.8.3.9.8l1,4.4h0l1-4.3c0-.5.5-.8,1-.8s.9.3,1,.8l1.1,4.3h0l1-4.4c0-.5.4-.8.9-.8s.9.3.9.8v.6l-1.4,4.8c-.2.7-.5,1-1.2,1s-1-.3-1.2-1l-1-4h0l-1,4c-.2.7-.5,1-1.2,1s-1-.3-1.2-1h0Z"
               id="path104" />
            <path
               class="cls-3"
               d="M626.2,49.8v-5.2c0-.6.3-.9.9-.9s.9.4.9.9v.4h0c.4-.8,1-1.3,2.1-1.3s2.4,1,2.4,2.5v3.5c0,.6-.4,1-.9,1s-.9-.3-.9-1v-3.2c0-.9-.4-1.4-1.2-1.4s-1.4.6-1.4,1.5v3.1c0,.6-.4,1-.9,1s-.9-.3-.9-1h0Z"
               id="path105" />
            <path
               class="cls-3"
               d="M195.4,262.8v-5.7c0-.5.3-.8.7-.8s.7.3.7.8v2.2h3.2v-2.2c0-.5.3-.8.7-.8s.7.3.7.8v5.7c0,.5-.3.8-.7.8s-.7-.3-.7-.8v-2.3h-3.2v2.3c0,.5-.3.8-.7.8s-.7-.3-.7-.8Z"
               id="path106" />
            <path
               class="cls-3"
               d="M202.4,260.9c0-1.7,1-2.8,2.5-2.8s2.5,1,2.5,2.4-.2.6-.6.6h-3c0,.8.5,1.3,1.2,1.3s.9-.2,1.2-.6c.1-.2.3-.2.5-.2.3,0,.6.2.6.5s0,.2-.1.4c-.4.6-1.2,1-2.2,1-1.6,0-2.6-1-2.6-2.7h0ZM206.1,260.2c0-.7-.5-1.1-1.1-1.1s-1.1.5-1.1,1.1h2.2Z"
               id="path107" />
            <path
               class="cls-3"
               d="M208,262c0-1,.7-1.5,2-1.6h1.3v-.4c0-.5-.3-.8-.9-.8s-.7.1-1,.5c-.2.2-.3.3-.6.3s-.6-.2-.6-.5v-.3c.2-.6,1.1-1,2.2-1s2.2.7,2.2,1.8v3c0,.5-.3.7-.7.7s-.6-.2-.7-.6v-.3h0c-.3.6-.9.9-1.6.9-1,0-1.8-.6-1.8-1.6h.2ZM211.3,261.5v-.4h-1.1c-.5.1-.8.4-.8.7s.3.6.8.6,1.1-.4,1.1-1h0Z"
               id="path108" />
            <path
               class="cls-3"
               d="M214.8,262.9l-1.4-3.6v-.4c0-.4.3-.6.7-.6s.6.2.7.6l1.1,3.5h0l1.1-3.5c.1-.4.3-.6.7-.6s.7.3.7.6v.4l-1.4,3.7c-.2.5-.5.7-1,.7s-.8-.2-1-.7h-.2Z"
               id="path109" />
            <path
               class="cls-3"
               d="M218.6,260.9c0-1.7,1-2.8,2.5-2.8s2.5,1,2.5,2.4-.2.6-.6.6h-3c0,.8.5,1.3,1.2,1.3s.9-.2,1.2-.6c.1-.2.3-.2.5-.2.3,0,.6.2.6.5s0,.2-.1.4c-.4.6-1.2,1-2.2,1-1.6,0-2.6-1-2.6-2.7h0ZM222.2,260.2c0-.7-.5-1.1-1.1-1.1s-1.1.5-1.1,1.1h2.2Z"
               id="path110" />
            <path
               class="cls-3"
               d="M224.3,262.9v-4c0-.4.3-.7.7-.7s.7.3.7.7v.3h0c.3-.6.8-1,1.6-1,1.2,0,1.8.7,1.8,2v2.7c0,.5-.3.7-.7.7s-.7-.2-.7-.7v-2.4c0-.7-.3-1.1-1-1.1s-1,.5-1,1.1v2.4c0,.5-.3.7-.7.7s-.7-.2-.7-.7h0Z"
               id="path111" />
            <path
               class="cls-3"
               d="M489.3,650.8v-5.5c0-.5.3-.8.7-.8h2.3c1.3,0,2.1.7,2.1,1.8s-.6,1.4-1.3,1.5h0c1,0,1.7.8,1.7,1.7s-.9,2-2.4,2h-2.4c-.5,0-.7-.3-.7-.8h0ZM491.8,647.5c.8,0,1.2-.3,1.2-.9s-.4-.9-1.1-.9h-1.2v1.8h1.1ZM492,650.5c.9,0,1.3-.4,1.3-1s-.5-1-1.3-1h-1.2v2h1.3,0Z"
               id="path112" />
            <path
               class="cls-3"
               d="M495.4,649c0-1.7,1-2.7,2.6-2.7s2.6,1,2.6,2.7-1,2.7-2.6,2.7-2.6-1-2.6-2.7ZM499.1,649c0-1-.5-1.6-1.1-1.6s-1.1.6-1.1,1.6.4,1.6,1.1,1.6,1.1-.6,1.1-1.6Z"
               id="path113" />
            <path
               class="cls-3"
               d="M501.7,647.5h-.3c-.3,0-.5-.2-.5-.5s.2-.5.5-.5h.3v-.6c0-.5.3-.7.7-.7s.7.3.7.7v.6h.5c.3,0,.5.2.5.5s-.2.5-.5.5h-.5v2.5c0,.4.1.5.4.5h0c.4,0,.5.2.5.5s-.4.6-1,.6h0c-1,0-1.4-.5-1.4-1.4v-2.8h0Z"
               id="path114" />
            <path
               class="cls-3"
               d="M505.2,647.5h-.3c-.3,0-.5-.2-.5-.5s.2-.5.5-.5h.3v-.6c0-.5.3-.7.7-.7s.7.3.7.7v.6h.5c.3,0,.5.2.5.5s-.2.5-.5.5h-.5v2.5c0,.4.1.5.4.5h0c.4,0,.5.2.5.5s-.4.6-1,.6h0c-1,0-1.4-.5-1.4-1.4v-2.8h0Z"
               id="path115" />
            <path
               class="cls-3"
               d="M508.2,649c0-1.7,1-2.7,2.6-2.7s2.6,1,2.6,2.7-1,2.7-2.6,2.7-2.6-1-2.6-2.7h0ZM511.9,649c0-1-.5-1.6-1.1-1.6s-1.1.6-1.1,1.6.4,1.6,1.1,1.6,1.1-.6,1.1-1.6Z"
               id="path116" />
            <path
               class="cls-3"
               d="M514.1,651v-4c0-.5.3-.7.7-.7s.7.2.7.7v.3h0c.2-.6.8-1,1.5-1s1.3.4,1.5,1.1h0c.2-.7.9-1.1,1.6-1.1s1.7.7,1.7,1.8v2.9c0,.5-.3.7-.7.7s-.7-.3-.7-.7v-2.6c0-.6-.3-.9-.8-.9s-.9.4-.9,1v2.5c0,.5-.3.7-.7.7s-.7-.3-.7-.7v-2.6c0-.6-.3-.9-.8-.9s-.9.4-.9,1v2.5c0,.5-.3.7-.7.7s-.7-.3-.7-.7h0Z"
               id="path117" />
            <path
               class="cls-3"
               d="M524.8,651v-5.6c0-.6.3-1,1-1s.8.2,1,.8l1.8,4.3h0l1.7-4.3c.2-.5.5-.8,1-.8s1,.3,1,1v5.6c0,.4-.2.7-.7.7s-.7-.2-.7-.7v-4.2h0l-1.7,4.3c0,.3-.3.5-.6.5s-.5,0-.6-.4l-1.7-4.3h0v4.2c0,.4-.2.7-.7.7s-.7-.2-.7-.7h0Z"
               id="path118" />
            <path
               class="cls-3"
               d="M533.3,645c0-.4.3-.7.8-.7s.8.3.8.7-.3.7-.8.7-.8-.3-.8-.7ZM533.3,651v-4c0-.5.3-.8.7-.8s.7.3.7.8v4c0,.5-.3.7-.7.7s-.7-.3-.7-.7Z"
               id="path119" />
            <path
               class="cls-3"
               d="M535.5,649c0-1.7.8-2.7,2.1-2.7s1.3.4,1.6,1h0v-2.1c0-.5.3-.8.7-.8s.7.3.7.8v5.8c0,.5-.3.7-.7.7s-.7-.2-.7-.7v-.3h0c-.2.6-.8,1-1.6,1-1.3,0-2.1-1-2.1-2.7h0ZM539.3,649c0-1-.5-1.6-1.2-1.6s-1.2.6-1.2,1.6.4,1.5,1.2,1.5,1.2-.6,1.2-1.5Z"
               id="path120" />
            <g
               class="cls-5"
               id="g121">
              <path
                 class="cls-3"
                 d="M384.5,664.7v-5.5c0-.5.3-.8.7-.8h2.3c1.3,0,2.1.7,2.1,1.8s-.6,1.4-1.3,1.5h0c1,0,1.7.8,1.7,1.7s-.9,2-2.4,2h-2.4c-.5,0-.7-.3-.7-.8h0ZM387,661.2c.8,0,1.2-.3,1.2-.9s-.4-.9-1.1-.9h-1.2v1.8h1.1ZM387.2,664.3c.9,0,1.3-.4,1.3-1s-.5-1-1.3-1h-1.2v2h1.3,0Z"
                 id="path121" />
            </g>
            <g
               class="cls-5"
               id="g122">
              <path
                 class="cls-3"
                 d="M390.6,662.8c0-1.7,1-2.8,2.5-2.8s2.5,1,2.5,2.4-.2.6-.6.6h-3c0,.8.5,1.3,1.2,1.3s.9-.2,1.2-.6c.1-.2.3-.2.5-.2.3,0,.6.2.6.5s0,.2-.1.3c-.4.6-1.2,1-2.2,1-1.6,0-2.6-1-2.6-2.7h0v.2ZM394.2,662.2c0-.7-.5-1.1-1.1-1.1s-1.1.5-1.1,1.1h2.2Z"
                 id="path122" />
            </g>
            <g
               class="cls-5"
               id="g123">
              <path
                 class="cls-3"
                 d="M396.3,660.8c0-.4.3-.7.7-.7s.7.3.7.7v.3h0c.3-.7.8-1,1.6-1,1.2,0,1.8.7,1.8,2v2.7c0,.5-.3.7-.7.7s-.7-.2-.7-.7v-2.4c0-.7-.3-1.1-1-1.1s-1,.5-1,1.2v2.4c0,.5-.3.7-.7.7s-.7-.2-.7-.7h0"
                 id="path123" />
            </g>
            <g
               class="cls-5"
               id="g124">
              <path
                 class="cls-3"
                 d="M401.9,662.8c0-1.7.8-2.7,2.1-2.7s1.3.4,1.6,1h0v-2.1c0-.5.3-.8.7-.8s.7.3.7.8v5.8c0,.5-.3.7-.7.7s-.7-.2-.7-.7v-.3h0c-.2.6-.8,1-1.6,1-1.3,0-2.1-1-2.1-2.7h0ZM405.7,662.8c0-1-.5-1.6-1.2-1.6s-1.2.6-1.2,1.6.4,1.5,1.2,1.5,1.2-.6,1.2-1.5Z"
                 id="path124" />
            </g>
            <path
               class="cls-3"
               d="M356.7,301.8v-5.5c0-.5.3-.8.7-.8h2.3c1.3,0,2.1.7,2.1,1.8s-.6,1.4-1.3,1.5h0c1,.1,1.7.8,1.7,1.7s-.9,2-2.4,2h-2.4c-.5,0-.7-.3-.7-.8h0ZM359.2,298.5c.8,0,1.2-.4,1.2-.9s-.4-.9-1.1-.9h-1.2v1.8h1.1ZM359.5,301.5c.9,0,1.3-.4,1.3-1s-.5-1-1.3-1h-1.2v2h1.3,0Z"
               id="path125" />
            <path
               class="cls-3"
               d="M365.1,301.8v-5.6c0-.5.3-.8.7-.8s.7.3.7.8v5.1h2.5c.4,0,.7.2.7.6s-.3.6-.7.6h-3.2c-.5,0-.7-.3-.7-.8h0Z"
               id="path126" />
            <path
               class="cls-3"
               d="M370.4,295.9c0-.4.3-.7.8-.7s.8.3.8.7-.3.7-.8.7-.8-.3-.8-.7ZM370.4,301.9v-4c0-.5.3-.8.7-.8s.7.3.7.8v4c0,.5-.3.7-.7.7s-.7-.3-.7-.7Z"
               id="path127" />
            <path
               class="cls-3"
               d="M372.8,301.9v-4c0-.4.3-.7.7-.7s.7.3.7.7v.3h0c.3-.6.8-1,1.6-1,1.2,0,1.8.7,1.8,2v2.7c0,.5-.3.7-.7.7s-.7-.2-.7-.7v-2.4c0-.7-.3-1.1-1-1.1s-1,.5-1,1.1v2.4c0,.5-.3.7-.7.7s-.7-.2-.7-.7h0Z"
               id="path128" />
            <path
               class="cls-3"
               d="M378.6,301.9v-5.8c0-.5.3-.8.7-.8s.7.3.7.8v3.2h0l1.9-1.9c.2-.2.4-.3.6-.3.4,0,.6.3.6.6s0,.4-.3.5l-1.3,1.3,1.5,1.9c.2.2.2.3.2.5,0,.4-.3.6-.7.6s-.5-.1-.7-.4l-1.3-1.8-.5.4v1.1c0,.5-.3.7-.7.7s-.7-.2-.7-.7h0Z"
               id="path129" />
            <path
               class="cls-3"
               d="M163.1,380.5v-16c0-1.4.8-2.2,2.1-2.2h6.8c3.8,0,6.2,2,6.2,5.1s-1.7,4.1-3.8,4.4h0c2.8.3,4.8,2.3,4.8,5s-2.7,5.9-7.1,5.9h-6.9c-1.4,0-2.1-.8-2.1-2.2h0ZM170.5,370.9c2.3,0,3.6-1,3.6-2.7s-1.1-2.6-3.1-2.6h-3.5v5.3h3.1-.1ZM171.1,379.6c2.5,0,3.8-1,3.8-3s-1.4-2.9-3.9-2.9h-3.6v5.9h3.7Z"
               id="path130" />
            <path
               class="cls-3"
               d="M1011.5,378c-1.1,0-1.8-.6-2.2-1.9l-1.1-3.2h-7.4l-1.1,3.2c-.4,1.3-1,1.9-2.2,1.9s-2.1-.8-2.1-2,0-.8.3-1.4l5.6-15.2c.6-1.7,1.6-2.4,3.3-2.4s2.6.8,3.2,2.4l5.6,15.2c.2.5.3,1,.3,1.4,0,1.2-.8,2-2.2,2h0ZM1007.3,369.6l-2.7-8.4h0l-2.7,8.4h5.5,0Z"
               id="path131" />
            <path
               class="cls-3"
               d="M213.8,821.7v-5.5c0-.5.3-.8.7-.8h2.3c1.3,0,2.1.7,2.1,1.8s-.6,1.4-1.3,1.5h0c1,0,1.7.8,1.7,1.7s-.9,2-2.4,2h-2.4c-.5,0-.7-.3-.7-.8h0ZM216.3,818.3c.8,0,1.2-.3,1.2-.9s-.4-.9-1.1-.9h-1.2v1.8h1.1ZM216.5,821.3c.9,0,1.3-.4,1.3-1s-.5-1-1.3-1h-1.2v2h1.3-.1Z"
               id="path132" />
            <path
               class="cls-3"
               d="M222.2,821.7v-5.6c0-.5.3-.8.7-.8s.7.3.7.8v5.2h2.5c.4,0,.7.2.7.6s-.3.6-.7.6h-3.2c-.5,0-.7-.3-.7-.8Z"
               id="path133" />
            <path
               class="cls-3"
               d="M227.2,819.8c0-1.7,1-2.7,2.6-2.7s2.6,1,2.6,2.7-1,2.7-2.6,2.7-2.6-1-2.6-2.7ZM230.9,819.8c0-1-.4-1.6-1.1-1.6s-1.1.6-1.1,1.6.4,1.6,1.1,1.6,1.1-.6,1.1-1.6Z"
               id="path134" />
            <path
               class="cls-3"
               d="M233.2,821.8v-5.8c0-.5.3-.8.7-.8s.7.3.7.8v2.1h0c.3-.6.9-1,1.6-1,1.3,0,2.1,1,2.1,2.7s-.8,2.7-2.1,2.7-1.4-.4-1.6-1h0v.3c0,.5-.3.7-.7.7s-.7-.2-.7-.7h0ZM236.9,819.8c0-1-.4-1.6-1.1-1.6s-1.2.6-1.2,1.6.5,1.5,1.2,1.5,1.1-.6,1.1-1.5Z"
               id="path135" />
            <path
               class="cls-3"
               d="M239.1,821.8v-5.8c0-.5.3-.8.7-.8s.7.3.7.8v2.1h0c.3-.6.9-1,1.6-1,1.3,0,2.1,1,2.1,2.7s-.8,2.7-2.1,2.7-1.4-.4-1.6-1h0v.3c0,.5-.3.7-.7.7s-.7-.2-.7-.7h0ZM242.9,819.8c0-1-.4-1.6-1.1-1.6s-1.2.6-1.2,1.6.5,1.5,1.2,1.5,1.1-.6,1.1-1.5Z"
               id="path136" />
            <path
               class="cls-3"
               d="M244.9,823.8c0-.3.2-.5.5-.5h.2c.2,0,.5,0,.7-.5v-.2l-1.6-4.4v-.4c0-.4.3-.7.7-.7s.6.2.7.6l1.1,3.6h0l1.1-3.6c.1-.4.3-.6.7-.6s.7.3.7.6v.4l-1.6,4.4c-.5,1.3-1.1,1.8-2.2,1.8s-1-.2-1-.7h0v.2h0Z"
               id="path137" />
            <path
               class="cls-3"
               d="M276.8,610.2v-5.5c0-.5.3-.8.7-.8h2.3c1.3,0,2.1.7,2.1,1.8s-.6,1.4-1.3,1.5h0c1,0,1.7.8,1.7,1.7s-.9,2-2.4,2h-2.4c-.5,0-.7-.3-.7-.8h0ZM279.3,606.8c.8,0,1.2-.3,1.2-.9s-.4-.9-1.1-.9h-1.2v1.8h1.1ZM279.5,609.8c.9,0,1.3-.4,1.3-1s-.5-1-1.3-1h-1.2v2h1.3,0Z"
               id="path138" />
            <path
               class="cls-3"
               d="M285.2,610.3v-5.6c0-.6.4-1,1-1s.8.2,1,.8l1.8,4.3h0l1.7-4.3c.2-.5.5-.8,1-.8s1,.3,1,1v5.6c0,.4-.2.7-.7.7s-.6-.2-.6-.7v-4.2h0l-1.7,4.3c-.1.3-.3.5-.6.5s-.5,0-.6-.4l-1.7-4.3h0v4.2c0,.4-.2.7-.6.7s-.7-.2-.7-.7h-.3,0Z"
               id="path139" />
            <path
               class="cls-3"
               d="M293.4,609.5c0-1,.7-1.5,2-1.6h1.3v-.4c0-.5-.3-.8-.9-.8s-.7,0-1,.5c-.2.2-.3.3-.6.3s-.6-.2-.6-.5v-.3c.2-.6,1.1-1,2.2-1s2.2.7,2.2,1.8v3c0,.5-.3.7-.7.7s-.6-.2-.7-.6v-.3h0c-.3.6-1,.9-1.6.9-1,0-1.8-.6-1.8-1.6h.2ZM296.7,609v-.4h-1.1c-.5,0-.8.4-.8.7s.3.6.8.6,1.1-.4,1.1-1h0Z"
               id="path140" />
            <path
               class="cls-3"
               d="M299,604.3c0-.4.3-.7.8-.7s.8.3.8.7-.3.7-.8.7-.8-.3-.8-.7ZM299.1,610.3v-4c0-.5.3-.8.7-.8s.7.3.7.8v4c0,.5-.3.7-.7.7s-.7-.3-.7-.7Z"
               id="path141" />
            <path
               class="cls-3"
               d="M301.5,610.3v-4c0-.4.3-.7.7-.7s.7.3.7.7v.3h0c.3-.7.8-1,1.6-1,1.2,0,1.8.7,1.8,2v2.7c0,.5-.3.7-.7.7s-.7-.2-.7-.7v-2.4c0-.7-.3-1.1-1-1.1s-1,.5-1,1.2v2.4c0,.5-.3.7-.7.7s-.7-.2-.7-.7h0Z"
               id="path142" />
            <path
               class="cls-3"
               d="M495.3,437.8v-5.6c0-.6.4-1,1-1s.8.2,1,.8l1.8,4.3h0l1.7-4.3c.2-.5.5-.8,1-.8s1,.4,1,1v5.6c0,.4-.2.7-.7.7s-.6-.2-.6-.7v-4.2h0l-1.7,4.3c-.1.3-.3.5-.6.5s-.5-.1-.6-.4l-1.7-4.3h0v4.2c0,.4-.2.7-.6.7s-.7-.2-.7-.7h-.3,0Z"
               id="path143" />
            <path
               class="cls-3"
               d="M503.8,431.6c0-.4.3-.7.8-.7s.8.3.8.7-.3.7-.8.7-.8-.3-.8-.7ZM503.9,437.6v-4c0-.5.3-.8.7-.8s.7.3.7.8v4c0,.5-.3.7-.7.7s-.7-.3-.7-.7Z"
               id="path144" />
            <path
               class="cls-3"
               d="M506.1,435.6c0-1.7.8-2.7,2.1-2.7s1.3.4,1.6,1h0v-2.1c0-.5.3-.8.7-.8s.7.3.7.8v5.8c0,.5-.3.7-.7.7s-.7-.2-.7-.7v-.3h0c-.2.6-.8,1-1.6,1-1.3,0-2.1-1-2.1-2.7h0ZM509.8,435.6c0-1-.5-1.6-1.2-1.6s-1.2.6-1.2,1.6.4,1.5,1.2,1.5,1.2-.6,1.2-1.5Z"
               id="path145" />
            <path
               class="cls-3"
               d="M785.4,781.8v-.5l1.9-5.2c.2-.6.5-.8,1.1-.8s.9.2,1.1.8l1.9,5.2v.5c0,.4-.3.7-.7.7s-.6-.2-.8-.7l-.4-1.1h-2.5l-.4,1.1c0,.5-.4.7-.8.7s-.8-.3-.8-.7h.4ZM789.4,779.5l-.9-2.9h0l-.9,2.9h1.9,0Z"
               id="path146" />
            <path
               class="cls-3"
               d="M794.5,781.5v-5.6c0-.5.3-.8.7-.8s.7.3.7.8v5.2h2.5c.4,0,.7.2.7.6s-.3.6-.7.6h-3.2c-.5,0-.7-.3-.7-.8Z"
               id="path147" />
            <path
               class="cls-3"
               d="M799.6,779.7c0-1.7,1-2.7,2.6-2.7s2.6,1,2.6,2.7-1,2.7-2.6,2.7-2.6-1-2.6-2.7ZM803.3,779.7c0-1-.5-1.6-1.1-1.6s-1.2.6-1.2,1.6.4,1.6,1.2,1.6,1.1-.6,1.1-1.6Z"
               id="path148" />
            <path
               class="cls-3"
               d="M805.5,781.7v-5.8c0-.5.3-.8.7-.8s.7.3.7.8v2.1h0c.3-.6.9-1,1.6-1,1.3,0,2.1,1,2.1,2.7s-.8,2.7-2.1,2.7-1.3-.4-1.6-1h0v.3c0,.5-.3.7-.7.7s-.7-.2-.7-.7h0ZM809.2,779.7c0-1-.4-1.6-1.2-1.6s-1.2.6-1.2,1.6.5,1.5,1.2,1.5,1.2-.6,1.2-1.5Z"
               id="path149" />
            <path
               class="cls-3"
               d="M811.5,781.7v-5.8c0-.5.3-.8.7-.8s.7.3.7.8v2.1h0c.3-.6.9-1,1.6-1,1.3,0,2.1,1,2.1,2.7s-.8,2.7-2.1,2.7-1.3-.4-1.6-1h0v.3c0,.5-.3.7-.7.7s-.7-.2-.7-.7h0ZM815.2,779.7c0-1-.4-1.6-1.2-1.6s-1.2.6-1.2,1.6.5,1.5,1.2,1.5,1.2-.6,1.2-1.5Z"
               id="path150" />
            <path
               class="cls-3"
               d="M817.2,783.5c0-.3.2-.5.5-.5h.2c.2,0,.5,0,.7-.5v-.2l-1.6-4.4v-.4c0-.4.3-.7.7-.7s.6.2.7.6l1.1,3.6h0l1.1-3.6c0-.4.3-.6.7-.6s.7.3.7.6v.4l-1.6,4.4c-.5,1.3-1.1,1.8-2.2,1.8s-1-.2-1-.7h0v.2h0Z"
               id="path151" />
            <path
               class="cls-3"
               d="M769.9,485.4v-5.7c0-.5.3-.8.7-.8s.7.3.7.8v2.2h3.2v-2.2c0-.5.3-.8.7-.8s.7.3.7.8v5.7c0,.5-.3.8-.7.8s-.7-.3-.7-.8v-2.3h-3.2v2.3c0,.5-.3.8-.7.8s-.7-.3-.7-.8Z"
               id="path152" />
            <path
               class="cls-3"
               d="M776.9,483.4c0-1.7,1-2.8,2.5-2.8s2.5,1,2.5,2.4-.2.6-.6.6h-3c0,.8.5,1.3,1.2,1.3s.9-.2,1.2-.6c.2-.2.3-.2.5-.2.3,0,.6.2.6.5v.4c-.3.6-1.2,1-2.2,1-1.6,0-2.6-1-2.6-2.7h-.1ZM780.5,482.9c0-.7-.5-1.1-1.1-1.1s-1.1.5-1.1,1.1h2.2Z"
               id="path153" />
            <path
               class="cls-3"
               d="M782.4,484.5c0-1,.7-1.5,2-1.6h1.3v-.4c0-.5-.3-.8-.9-.8s-.7.1-1,.5c-.2.2-.3.3-.6.3s-.6-.2-.6-.5v-.3c.2-.6,1.1-1,2.2-1s2.2.7,2.2,1.8v3c0,.5-.3.7-.7.7s-.7-.2-.7-.6v-.3h0c-.3.6-1,.9-1.6.9-1,0-1.8-.6-1.8-1.6h.2,0ZM785.8,484v-.4h-1.1c-.5.1-.8.4-.8.7s.3.6.8.6,1.1-.4,1.1-1h0Z"
               id="path154" />
            <path
               class="cls-3"
               d="M789.2,485.4l-1.4-3.6v-.4c0-.4.3-.6.7-.6s.6.2.7.6l1.1,3.5h0l1.1-3.5c0-.4.3-.6.7-.6s.7.3.7.6v.4l-1.4,3.7c-.2.5-.5.7-1,.7s-.8-.2-1-.7h-.2,0Z"
               id="path155" />
            <path
               class="cls-3"
               d="M793,483.4c0-1.7,1-2.8,2.5-2.8s2.5,1,2.5,2.4-.2.6-.6.6h-3c0,.8.5,1.3,1.2,1.3s.9-.2,1.2-.6c.2-.2.3-.2.5-.2.3,0,.6.2.6.5v.4c-.3.6-1.2,1-2.2,1-1.6,0-2.6-1-2.6-2.7h-.1ZM796.7,482.9c0-.7-.5-1.1-1.1-1.1s-1.1.5-1.1,1.1h2.2Z"
               id="path156" />
            <path
               class="cls-3"
               d="M798.7,485.4v-4c0-.4.3-.7.7-.7s.7.3.7.7v.3h0c.3-.6.8-1,1.6-1,1.2,0,1.8.7,1.8,2v2.7c0,.5-.3.7-.7.7s-.7-.2-.7-.7v-2.4c0-.7-.3-1.1-1-1.1s-1,.5-1,1.1v2.4c0,.5-.3.7-.7.7s-.7-.2-.7-.7h0Z"
               id="path157" />
            <path
               class="cls-3"
               d="M111.6,663v-5.8c0-.5.3-.7.7-.7s.5,0,.7.4l3.1,4.3h0v-4c0-.5.3-.7.7-.7s.7.3.7.7v5.8c0,.5-.3.7-.7.7s-.5,0-.7-.4l-3.1-4.3h0v4c0,.5-.3.7-.7.7s-.7-.3-.7-.7h0Z"
               id="path158" />
            <path
               class="cls-3"
               d="M118.5,661c0-1.7,1-2.8,2.5-2.8s2.5,1,2.5,2.4-.2.6-.6.6h-3c0,.8.5,1.3,1.2,1.3s.9-.2,1.2-.6c.2-.2.3-.2.5-.2.3,0,.6.2.6.5v.3c-.3.6-1.2,1-2.2,1-1.6,0-2.6-1-2.6-2.7h0v.2h0ZM122.1,660.5c0-.7-.5-1.1-1.1-1.1s-1.1.5-1.1,1.1h2.2Z"
               id="path159" />
            <path
               class="cls-3"
               d="M124.1,662.7v-.3c0-.3.2-.5.6-.5s.4,0,.6.3c.3.4.6.5,1.1.5s.9-.2.9-.6-.2-.4-.7-.5l-.9-.2c-1-.2-1.5-.7-1.5-1.5s.9-1.7,2.2-1.7,1.9.5,2.1,1.1v.2c0,.3-.2.5-.6.5s-.4,0-.5-.2c-.2-.3-.5-.6-1-.6s-.8.2-.8.6.2.5.7.6l.9.2c1.1.2,1.6.6,1.6,1.4s-.9,1.7-2.3,1.7-2-.4-2.2-1h-.2Z"
               id="path160" />
            <path
               class="cls-3"
               d="M129.8,659.5h-.3c-.3,0-.6-.2-.6-.5s.2-.5.6-.5h.3v-.6c0-.5.3-.7.7-.7s.7.3.7.7v.6h.5c.3,0,.6.2.6.5s-.2.5-.6.5h-.5v2.5c0,.4.1.5.4.5h0c.4,0,.5.2.5.5s-.4.6-1,.6h0c-.9,0-1.4-.5-1.4-1.4v-2.8h.1Z"
               id="path161" />
          </g>
        </g>
      </g>
    </g>
  </g>
</svg>
