<?xml version="1.0" encoding="UTF-8" standalone="no"?>
<!-- Generator: Adobe Illustrator 27.9.5, SVG Export Plug-In . SVG Version: 9.03 Build 54986)  -->

<svg
   version="1.1"
   id="Layer_1"
   x="0px"
   y="0px"
   viewBox="0 0 918.9 967.1"
   style="enable-background:new 0 0 918.9 967.1;"
   xml:space="preserve"
   sodipodi:docname="bind.svg"
   inkscape:version="1.4.2 (f4327f4, 2025-05-13)"
   xmlns:inkscape="http://www.inkscape.org/namespaces/inkscape"
   xmlns:sodipodi="http://sodipodi.sourceforge.net/DTD/sodipodi-0.dtd"
   xmlns="http://www.w3.org/2000/svg"
   xmlns:svg="http://www.w3.org/2000/svg"
   xmlns:bx="https://boxy-svg.com"><defs
   id="defs179" /><sodipodi:namedview
   id="namedview179"
   pagecolor="#505050"
   bordercolor="#eeeeee"
   borderopacity="1"
   inkscape:showpageshadow="0"
   inkscape:pageopacity="0"
   inkscape:pagecheckerboard="0"
   inkscape:deskcolor="#505050"
   inkscape:zoom="0.83445354"
   inkscape:cx="458.98301"
   inkscape:cy="483.54999"
   inkscape:window-width="1920"
   inkscape:window-height="1009"
   inkscape:window-x="1912"
   inkscape:window-y="-8"
   inkscape:window-maximized="1"
   inkscape:current-layer="Layer_1" />
<style
   type="text/css"
   id="style1">
	.st0{fill:#3D3D3D;}
	.st1{fill:#535353;}
	.st2{fill:#7E7F7E;}
	.st3{fill:#FFFFFF;}
	.st4{fill:none;stroke:#B0ADB0;stroke-miterlimit:10;}
	.st5{fill:#FFFFFF;stroke:#FFFFFF;stroke-miterlimit:10;}
	.st6{fill:#37A794;}
	.st7{fill:#5BDFC5;}
	.st8{display:none;fill:url(#SVGID_1_);}
	.st9{display:none;fill:url(#SVGID_00000067930115331501619090000007654850229749386917_);}
	.st10{display:none;fill:url(#SVGID_00000170244634594021906370000002810943544625919876_);}
	.st11{display:none;fill:url(#SVGID_00000125563849518992668460000000672793488437863825_);}
	.st12{display:none;fill:url(#SVGID_00000094593369779340343620000007272530430429514425_);}
	.st13{display:none;fill:url(#SVGID_00000056427361104529726220000009468197514854341050_);}
	.st14{display:none;fill:url(#SVGID_00000005946798495444204400000012648735730485352329_);}
	.st15{display:none;fill:url(#SVGID_00000036224035175438591790000006346300785765728901_);}
	.st16{display:none;fill:url(#SVGID_00000126289565646323600910000014279206778379376271_);}
</style>
<g
   id="g179"
   transform="rotate(180,459.45,482.95741)">
	<g
   id="Layer_1_00000037658078192712101640000011686730844143572904_">
		<g
   id="Layer_1-2_00000076562044785031875360000000688980036478422932_">
			<g
   id="Layer_1-2">
				<g
   id="_x3C_defs">
					<bx:export>
						<bx:file
   format="svg" />
					</bx:export>
				</g>
				<g
   id="Body_Merge">
					<path
   class="st0"
   d="m 56.8,402.9 v 17 h -3 v 22 h 3 v 16 h 30 v 102 h 13 v 13 h -16 v 45 l 65,65 h 93 l 7,-3 h 30.9 l 5,1 7,-3 h 7 l 2,2 h 8 l 17,-3 h 16 l 26,4 v 13 0 l 6,28 6,32.1 2,8 5.1,11 6.9,17 h 3 l 5,4 12.1,15.1 7.9,9 2.1,5.1 4.9,9.9 5.1,6 10,10 7,5.1 10,12 v 40 l 2.9,5 4,7 3.9,5 6,4 7.2,5.1 10,8 v 3.9 l -7,9.1 v 3 l 5,9 v 2 h 45.9 v -2 l 8.1,-7 v -5 l 3,-2.9 5.1,-7.1 9,-14 6,-9 5,-13 v 0 -34 l 25,-31 h 5 l 33,-34 v -2 l 50,-49 V 652.2 l 24,-12.9 h 90.8 v -110 h 6 v 16 h 43 l 17,-17 v -24 l -17,-19 h -43 v 15 h -33 v -6 h 15 v -37 h 18 v -54 h -66.9 v -55 h -24 v -36 h 24 v -59 h -12.9 l -19.1,-20 v -1 h -2 v -5 h 22 v -48 h -85 v 6 h -6 v -5 h -84 v -1 h -49 v -73 C 494.3,58.7 469.9,6.2 469.9,6.2 l -6.1,-3.9 h -48.9 c 0,0 -33.2,70.6 -37.1,104 v 73 h -90 v 5 h -6 v -5 h -164 v 67 h -62 v 35 h 7 v 2 h -7 v 53 h 56 v 49 h 34 v 6 h -16 v 18 h -6 v -6 h -67 v -0.4 z m 200,163.9 h 48 v 5 h -19 v 37 h 81 v 36 h -19 v -2 h -59 v 2 h -68 v -30 h -13 v -48 z m 200,42.1 V 559 l 11.1,-11.1 h 22.9 v -21 h 3 v 21 h 97 v 91 h 37 v 62 h -51 l -17,13 -6,2 h -5 l -17,12 h -7 l -20,-5 -3,-5 h -9 l -24,-12 -4,-7 h -25 v -66 h -31 v 12 h -18 v -36 z m 79.1,-272 h 35.9 v -24 h 13 v 29 h -72 v -5 h 23.1 z m 78.9,434 -7.9,9 h -12.1 v 7.9 l -12,16 -21,27 h -2 v 7 l -22,25 -24,8 h -5.9 l -8.1,-10 h -4.9 l -8.1,-7 v -7 l -18,-20 v -11 l -15.5,-13.9 v -1.5 l -32.4,-31.7 v -6 l -2,-2 -12,-10 v -6 l 6.1,-27 h 4.9 l 82.1,36 h 11 l 21,-5 h 29 l 44,-26 h 3.9 l 6,11 h 3 l 6,10 v 8.9 l -6,7.1 -3,11 v 0 0.2 z M 741.7,432.8 h 5.9 v 61 h 12 v 6 h -11.8 v 48 h -36 v 41 h -92 v -10 h 26 v -74 h -37 v 12 h -43 v -84 l 22.1,-11.1 h 51.9 v -39.9 h 35.8 v 21 h -7 v 30 z M 630.4,213.9 h 8.4 v -5 h 6 v 18 h 46 v 5 h -2 v 1 l -20,20 h -99.2 l -4,4 v 6 h -16.8 v -48 h 6 v -1 z m -342.7,-4.1 v 5 h 92 l 46.1,-58 h 36.8 l 46.1,58 h 21 v 6 h -10 v 62 h 45.8 v 11 h 19.2 v 6 h -27 v 18 h -19 v -17 h -45 v 36 h 1 v 5 h -1 v 37 h 36 v 15 h -4 v 24 h 4 v 15 h -25 v 48.9 h 25 v 23 h -36 v 5 h -3 v -5 h -62.9 v 79 h -97.1 v -12 h -5 v -5 h 22 v -27.5 0 -84.5 h 4 v 15 h 43 l 21,-21 v -20 l -21,-20 h -43 v 15 h -4 v -5.9 c -3,-3.9 -9.2,-6.9 -17,-8.1 h -0.4 c -2.1,-0.3 -4.3,-0.5 -6.6,-0.5 -2.3,0 -4.5,0.2 -6.6,0.5 h -0.4 c -7.8,1.2 -14,4.2 -17,8.1 v 8.9 h -43 v -66 h -12 v -2 h 12 v -59 h 24 v -42 h -13.1 v -43 h 14.2 v -5 h 6 -0.1 z M 86.8,282.9 v -2 h 55 v -66.1 h 103.8 v 6 h -96.8 v 85 h -55 v -23 h -7 z m 43,150 v 6 l 12,12 h 36 l 12,-12 v -48 h -18 v -6 h 7 l 18.1,-26 h 23.9 v 2 h -12 v 52 h 12 v 25 h -12 v 50 h 48 v -36 h 43 v 5 h -13 v 55 h -30 v 30 h -133 v -109 z"
   id="path1" />
				</g>
				<g
   id="Bombsite">
					<rect
   x="166"
   y="238.10001"
   class="st1"
   width="84.900002"
   height="67"
   id="rect1" />
					<rect
   x="603"
   y="274.10001"
   class="st1"
   width="96.900002"
   height="97.900002"
   id="rect2" />
					<polyline
   class="st2"
   points="675.2,347.6 663.2,347.6 663.2,311.6 687,311.6 687,323.6 675.2,323.6 675.2,336.6      "
   id="polyline2" />
					<rect
   x="585.29999"
   y="321.5"
   class="st2"
   width="49"
   height="15"
   id="rect3" />
					<rect
   x="191.2"
   y="290.60001"
   class="st2"
   width="28.9"
   height="10.9"
   id="rect4" />
					<rect
   x="177.7"
   y="267.70001"
   class="st2"
   width="55.400002"
   height="22.9"
   id="rect5" />
					<rect
   x="220.10001"
   y="255.60001"
   class="st2"
   width="12.1"
   height="12.1"
   id="rect6" />
				</g>
				<g
   id="Lines">
					<rect
   x="608.70001"
   y="515.09998"
   class="st3"
   width="37"
   height="1"
   id="rect7" />
					<path
   class="st3"
   d="m 645,516.1 v 6 h -6.1 v -6 h 6.1 m 1,-1 h -8.1 v 8 h 8.1 z"
   id="path7" />
					<path
   class="st3"
   d="m 535.7,542 v 5 h -41.8 v -5 h 41.8 m 1,-1 h -43.8 v 7 h 43.8 z"
   id="path8" />
					<path
   class="st3"
   d="m 433.8,505 c 2.6,0 4.8,2.1 4.8,4.8 0,2.7 -2.1,4.8 -4.8,4.8 -2.7,0 -4.8,-2.2 -4.8,-4.8 0,-2.6 2.1,-4.8 4.8,-4.8 m 0,-1 c -3.2,0 -5.8,2.6 -5.8,5.8 0,3.2 2.6,5.8 5.8,5.8 3.2,0 5.8,-2.6 5.8,-5.8 0,-3.2 -2.6,-5.8 -5.8,-5.8 z"
   id="path9" />
					<path
   class="st3"
   d="m 456,597.1 v 10.2 h -9.1 v -10.2 h 9.1 m 1,-1 h -11.1 v 12.2 H 457 Z"
   id="path10" />
					<path
   class="st3"
   d="m 444.9,603.5 v 3.8 h -3.7 v -3.8 h 3.7 m 1,-1 h -5.7 v 5.8 h 5.7 z"
   id="path11" />
					<path
   class="st3"
   d="m 250.8,645.1 v 9.7 h -10 v -9.7 h 10 m 1,-1 h -12 v 11.7 h 12 z"
   id="path12" />
					<path
   class="st3"
   d="m 167.3,597.2 10.2,10.2 v 14.4 L 167.3,632 h -14.4 l -10.2,-10.2 v -14.4 l 10.2,-10.2 h 14.4 m 0.4,-1 H 152.5 L 141.7,607 v 15.2 l 10.8,10.8 h 15.2 l 10.8,-10.8 V 607 Z"
   id="path13" />
					<path
   class="st3"
   d="M 257,393.1 V 408 H 243.6 V 393.1 H 257 m 1,-1 H 242.6 V 409 H 258 Z"
   id="path14" />
					<path
   class="st3"
   d="m 257,396.1 v 9 h -10.3 v -9 H 257 m 1,-1 h -12.3 v 11 H 258 Z"
   id="path15" />
					<path
   class="st3"
   d="m 256.1,349.1 v 8.1 H 247 v -8.1 h 9.1 m 1,-1 H 246 v 10.1 h 11.1 z"
   id="path16" />
					<rect
   x="220.39999"
   y="359.10001"
   class="st3"
   width="25.1"
   height="1"
   id="rect16" />
					
						<rect
   x="155.2"
   y="435.60001"
   transform="matrix(0.7071,-0.7071,0.7071,0.7071,-256.8885,252.0005)"
   class="st3"
   width="41.099998"
   height="1"
   id="rect17" />
					<path
   class="st3"
   d="m 222.7,473 v 14 H 209 v -14 h 13.7 m 1,-1 H 208 v 16 h 15.7 z"
   id="path17" />
					<path
   class="st3"
   d="m 219.7,476 v 11 H 209 v -11 h 10.7 m 1,-1 H 208 v 13 h 12.7 z"
   id="path18" />
					<path
   class="st3"
   d="m 346.7,464 v 9 h -10 v -9 h 10 m 1,-1 h -12 v 11 h 12 z"
   id="path19" />
					<path
   class="st3"
   d="m 122.8,336.1 v 23 H 112 v -23 h 10.8 m 1,-1 H 111 v 25 h 12.8 z"
   id="path20" />
					<path
   class="st3"
   d="m 159.8,294 v 10.1 h -10 V 294 h 10 m 1,-1 h -12 v 12.1 h 12 z"
   id="path21" />
					<path
   class="st3"
   d="m 231.7,256.1 v 11 h -11 v -11 h 11 m 1,-1 h -13 v 13 h 13 z"
   id="path22" />
					<path
   class="st3"
   d="m 232.7,268.1 v 22 h -54 v -22 h 54 m 1,-1 h -56 v 24 h 56 z"
   id="path23" />
					<path
   class="st3"
   d="m 219.7,291 v 10 h -28 v -10 h 28 m 1,-1 h -30 v 12 h 30 z"
   id="path24" />
					<path
   class="st3"
   d="m 686.7,676.1 v 4 h -5 v -4 h 5 m 1,-1 h -7 v 6 h 7 z"
   id="path25" />
					<path
   class="st3"
   d="m 686.7,663.1 v 11 h -11 v -11 h 11 m 1,-1 h -13 v 13 h 13 z"
   id="path26" />
					<path
   class="st3"
   d="m 802.8,583.1 v 1 h -48 v -1 h 48 m 1,-1 h -50 v 3 h 50 z"
   id="path27" />
					<path
   class="st3"
   d="m 802.8,585.1 v 6 h -12 v -6 h 12 m 1,-1 h -14 v 8 h 14 z"
   id="path28" />
					<path
   class="st3"
   d="m 722.7,548.1 v 11 h -10 v -11 h 10 m 1,-1 h -12 v 13 h 12 z"
   id="path29" />
					<path
   class="st3"
   d="m 717.7,560 v 5 h -5 v -5 h 5 m 1,-1 h -7 v 7 h 7 z"
   id="path30" />
					<path
   class="st3"
   d="m 565.7,433.1 v 29 h -11 v -29 h 11 m 1,-1 h -13 v 31 h 13 z"
   id="path31" />
					<path
   class="st3"
   d="m 565.7,457.1 v 5 h -11 v -5 h 11 m 1,-1 h -13 v 7 h 13 z"
   id="path32" />
					<path
   class="st3"
   d="m 564.7,342.3 v 22.8 h -10 v -22.8 h 10 m 1,-1 h -12 v 24.8 h 12 z"
   id="path33" />
					<path
   class="st3"
   d="m 564.7,360.1 v 5 h -10 v -5 h 10 m 1,-1 h -12 v 7 h 12 z"
   id="path34" />
					<path
   class="st3"
   d="m 633.7,322.1 v 14 h -48 v -14 h 48 m 1,-1 h -50 v 16 h 50 z"
   id="path35" />
					<rect
   x="662.70001"
   y="311.10001"
   class="st3"
   width="25.1"
   height="1"
   id="rect35" />
					<rect
   x="686.79999"
   y="311.60001"
   class="st3"
   width="1"
   height="12.5"
   id="rect36" />
					<rect
   x="674.70001"
   y="323.10001"
   class="st3"
   width="12.7"
   height="1"
   id="rect37" />
					<rect
   x="674.79999"
   y="323.60001"
   class="st3"
   width="1"
   height="23.799999"
   id="rect38" />
					<rect
   x="662.79999"
   y="347.10001"
   class="st3"
   width="13"
   height="1"
   id="rect39" />
					<rect
   x="662.79999"
   y="311.89999"
   class="st3"
   width="1"
   height="35.599998"
   id="rect40" />
					<path
   class="st3"
   d="m 741,348 v 20 h -6.2 v -20 h 6.2 m 1,-1 h -8.2 v 22 h 8.2 z"
   id="path40" />
					<rect
   x="675"
   y="400"
   class="st3"
   width="6.8000002"
   height="2"
   id="rect41" />
					<rect
   x="705.70001"
   y="400"
   class="st3"
   width="36.400002"
   height="2"
   id="rect42" />
					<path
   class="st3"
   d="m 741,388.1 v 11.1 h -22 v -11.1 h 22 m 1,-1 h -24 v 13.1 h 24 z"
   id="path42" />
					<rect
   x="729.70001"
   y="387.79999"
   class="st3"
   width="1"
   height="11.8"
   id="rect43" />
					<circle
   class="st4"
   cx="593.79999"
   cy="635"
   r="2.7"
   id="circle43" />
					<rect
   x="620"
   y="547"
   class="st3"
   width="1"
   height="31.6"
   id="rect44" />
					<path
   class="st3"
   d="m 638.8,382.3 v 8.7 h -10 v -8.7 h 10 m 1,-1 h -12 V 392 h 12 z"
   id="path44" />
					<rect
   x="668.59998"
   y="251.3"
   class="st3"
   width="60.400002"
   height="1"
   id="rect45" />
					<path
   class="st3"
   d="m 463.7,5.1 v 10 h -10 v -10 h 10 m 1,-1 h -12 v 12 h 12 z"
   id="path45" />
					<rect
   x="663.5"
   y="323.10001"
   class="st3"
   width="13"
   height="1"
   id="rect46" />
					<circle
   class="st4"
   cx="739.90002"
   cy="287.10001"
   r="2.7"
   id="circle46" />
				</g>
				<g
   id="Outlines">
					<path
   class="st5"
   d="m 464,1 6.1,3.9 c 0,0 24.4,52.5 35.9,100.1 v 72.9 h 49.1 v 1 h 84 v 5 h 6 v -6 h 85 v 48 h -22 v 5 h 2 v 1 l 19.1,20 h 12.9 v 59 h -24 v 36 h 24 v 55 H 809 v 54 h -18 v 37 h -15 v 6 h 33 v -15 h 43 l 17,19 v 24 l -17,17 h -43 v -16 h -6 v 110 h -90.8 l -24,12.9 v 105.1 l -50,49 v 2 l -33,34 h -5 l -25,31 v 34 0 l -5,13 -6,9 -9,14 -5.1,7.1 -3,2.9 v 5 l -8.1,7 v 2 h -45.9 v -2 l -5,-9 v -3 l 7,-9.1 v -3.9 l -10,-8 -7.2,-5.1 -6,-4 -3.9,-5 -4,-7 -2.9,-5 v -40 l -10,-12 -7,-5.1 -10,-10 -5.1,-6 -4.9,-9.9 -2.1,-5.1 -7.9,-9 -12.1,-15.1 -5,-4 h -3 l -6.9,-17 -5.1,-11 -2,-8 -6,-32.1 -6,-28 v 0 -13 l -26,-4 h -16 l -17,3 h -8 l -2,-2 h -7 l -7,3 -5,-1 h -30.9 l -7,3 h -93 l -65,-65 v -45 h 16 v -13 h -13 v -102 h -30 v -16 h -3 v -22 h 3 v -17 h 67 v 6 h 6 v -18 h 16 v -6 h -34 v -49 h -56 v -53 h 7 v -2 h -7 v -35 h 62 v -67 h 164 v 5 h 6 v -5 h 90 v -73 c 3.8,-33.4 37.1,-104 37.1,-104 h 48.9 M 287.9,214 v -5 h -6 v 5 h -14.2 v 43 h 13.1 v 42 h -24 v 59 h -12 v 2 h 12 v 66 h 43 v -8.9 c 3,-3.9 9.2,-6.9 17,-8.1 h 0.4 c 2.1,-0.3 4.3,-0.5 6.6,-0.5 2.3,0 4.5,0.2 6.6,0.5 h 0.4 c 7.8,1.2 14,4.2 17,8.1 v 5.9 h 4 v -15 h 43 l 21,20 v 20 l -21,21 h -43 v -15 h -4 v 84.5 0 27.5 h -22 v 5 h 5 v 12 h 97.1 v -79 h 62.9 v 5 h 3 v -5 h 36 v -23 h -25 v -48.9 h 25 v -15 h -4 v -24 h 4 v -15 h -36 v -37 h 1 v -5 h -1 v -36 h 45 v 17 h 19 v -18 h 27 v -6 h -19.2 v -11 h -45.8 v -62 h 10 v -6 h -21 l -46.1,-58 h -36.8 l -46.1,58 h -92 M 548.9,262 h 16.8 v -6 l 4,-4 h 99.2 l 20,-20 v -1 h 2 v -5 h -46 v -18 h -6 v 5 h -84 v 1 h -6 v 48 m -462,20.1 h 7 v 23 h 55 v -85 h 96.8 v -6 H 141.9 v 66.1 h -55 v 2 M 536,336.1 h -23.2 v 5 h 72 v -29 h -13 v 24 h -35.9 m -364,54 h 18 v 48 l -12,12 h -36 l -12,-12 v -6 h -6 v 109 h 133 v -30 h 30 v -55 h 13 v -5 h -43 v 36 h -48 v -50 h 12 v -25 h -12 v -52 h 12 v -2 H 197 l -18.1,26 h -7 v 6 m 394,126 h 43 v -12 h 37 v 74 h -26 v 10 h 92 v -41 h 36 v -48 h 11.8 v -6 h -12 v -61 h -79 v -30 h 7 v -21 H 639.9 V 421 H 588 l -22.1,11.1 v 84 m -175,128 h 18 v -12 h 31 v 66 h 25 l 4,7 24,12 h 9 l 3,5 20,5 h 7 l 17,-12 h 5 l 6,-2 17,-13 h 51 v -62 h -37 v -91 h -97 v -21 h -3 v 21 H 468 l -11.1,11.1 v 49.9 H 391 v 36 m -183.1,-30 h 13 v 30 h 68 v -2 h 59 v 2 h 19 v -36 h -81 v -37 h 19 v -5 h -97 v 48 m 210,103 H 413 l -6.1,27 v 6 l 12,10 2,2 v 6 l 32.5,31.7 v 1.5 l 15.5,13.9 v 11 l 18,20 v 7 l 8.1,7 h 4.9 l 8.1,9.9 h 5.9 l 24,-8 22,-25 v -7 h 2 l 21,-27 12,-16 v -7.9 H 607 l 7.9,-9 3,-11 6,-7.1 v -8.9 l -6,-10 h -3 l -6,-11 H 605 l -44,26 h -29 l -21,5 h -11 l -82,-35.9 v 0 M 464.3,0 h -49.9 l -0.3,0.6 C 413.8,1.3 380.8,71.7 377,104.9 v 0 72.1 h -90 v 5 h -3.9 v -5 H 116.9 v 67 h -62 v 92.1 h 56 v 49 h 34 v 3.9 h -16 v 18 H 125 v -6 H 55.9 v 17 h -3 v 24.1 h 3 v 16 h 30 v 102 h 13 V 571 h -16 v 46.5 l 0.3,0.3 65,65 0.3,0.3 h 93.9 l 6.8,-3 h 30.6 l 4.9,0.9 h 0.6 l 6.8,-2.9 h 6.4 l 1.7,1.7 0.3,0.3 h 8.6 l 16.9,-3 h 15.8 l 25.1,3.8 V 694 h 0.2 l 5.8,27.2 6,32 v 0 l 2,8 v 0 0.2 l 5.1,11 6.9,16.9 0.3,0.7 h 3.3 l 4.6,3.7 12.1,15 7.9,8.8 2,4.9 v 0 l 4.9,9.9 v 0 0.2 l 5.1,6 v 0 l 10,10 v 0 l 6.9,5.1 9.7,11.6 v 40.1 c 0.1,0 3,5 3,5 l 4,7 v 0 l 3.9,5.1 h 0.1 v 0.2 c 0.1,0 6.1,4 6.1,4 l 7.1,5 9.6,7.7 v 3 l -6.8,8.8 -0.2,0.3 v 3.8 c 0.1,0 5,8.8 5,8.8 v 2.8 h 48 v -2.5 l 7.7,-6.7 0.4,-0.3 v -5 l 2.7,-2.6 v 0 l 5.1,-7.2 v 0 l 9,-14 6,-9 v 0 -0.2 l 5,-13 v -34 L 599.9,842 h 4.9 l 0.3,-0.3 33,-34 0.3,-0.3 v -2 l 49.7,-48.7 0.3,-0.3 V 651.5 L 711.6,639 h 91.6 V 529 h 3.9 v 16 h 44.5 l 0.3,-0.3 17,-17 0.3,-0.3 v -24.8 l -0.3,-0.3 -17,-19 -0.3,-0.4 h -44.5 v 15 H 776.2 V 494 h 15 v -37 h 18 v -56.1 h -66.9 v -55 h -24 V 312 h 24 v -61.1 h -13.5 l -18.5,-19.4 v -1.6 h -2 V 227 h 22 v -50.1 h -87.1 v 6 h -3.9 v -5 h -84 v -1 h -49 v -72.1 0 C 494.9,57.5 470.5,4.9 470.3,4.4 V 4.1 c -0.1,0 -0.4,-0.2 -0.4,-0.2 L 463.8,0 463.5,-0.2 v 0 z m -37.7,157.1 h 35.8 l 45.8,57.6 0.3,0.4 H 529 v 3.9 h -10 v 64.1 h 45.8 v 11 H 584 v 3.9 h -27 v 18 H 540.1 V 299 H 493 v 38.1 h 1 v 2.9 h -1 v 39.1 h 36 V 392 h -4 v 26.1 h 4 V 431 h -25 v 51 h 25 v 20.9 h -36 v 5 h -0.9 v -5 h -65 v 79 h -95 v -12 h -5 V 567 h 22 V 455 h 1.9 v 15 h 44.5 l 0.3,-0.3 21,-21 0.3,-0.3 v -20.9 l -0.3,-0.3 -21,-20 -0.3,-0.3 H 351 v 15 h -1.9 v -5.2 l -0.2,-0.3 c -3,-4 -9.1,-7 -16.8,-8.3 v -0.2 h -1.4 c -2.2,-0.3 -4.4,-0.5 -6.6,-0.5 -2.2,0 -4.5,0.1 -6.6,0.5 h -1.4 v 0.2 c -7.6,1.3 -13.7,4.3 -16.8,8.3 l -0.2,0.3 v 8.2 H 258.2 V 300 h 24 V 255.9 H 269.1 V 215 h 14.2 v -5 h 3.9 v 5 h 93.6 l 0.3,-0.4 45.8,-57.6 z m 213.5,52 h 3.9 v 18 h 46 v 2.9 h -2 v 1.6 L 668.6,251 h -99.2 l -0.3,0.3 -4,4 -0.3,0.3 v 5.3 H 550 V 215 h 6 v -1 h 84 v -5 0 z m -497.1,6 H 244.8 V 219 H 148 v 85 H 95.1 v -22.9 h 48 V 215 H 143 Z m 430.1,98 H 584 V 340 h -69.9 v -2.9 h 59 z m -375.4,46 H 208 v 54 h 12 V 436 h -12 v 52.1 h 50.1 v -36 H 299 v 2.9 h -13 v 55 h -30 v 30 H 125 V 433.1 h 3.9 v 5.4 l 0.3,0.3 12,12 0.3,0.3 h 36.9 l 0.3,-0.3 12,-12 0.3,-0.3 V 389 h -18 v -3.9 h 6.5 l 0.3,-0.5 17.8,-25.6 v 0 z m 443.4,23 h 33.7 V 401 h -7 v 32.1 h 79 v 61 h 12 V 498 H 747 v 48 h -36 v 41 h -89.9 v -7.9 h 26 V 503 H 608 v 12 h -40.9 v -82.3 l 21.3,-10.6 h 52.7 v -39.9 0 z m -149,145 h 0.9 v 21 h 97 v 91 h 37 V 699 h -50.3 l -0.3,0.2 -16.9,12.9 -5.7,1.9 h -5.1 l -0.3,0.2 -16.8,11.8 h -6.5 l -19.5,-4.9 -2.8,-4.6 -0.3,-0.5 h -9.3 l -23.5,-11.7 -3.8,-6.7 -0.3,-0.5 H 441 v -66 h -33.1 v 12 H 392 v -33.9 h 66 v -50.5 l 10.5,-10.5 H 492 v -21 0 z m -283,40 H 304 v 2.9 h -19 v 39.1 h 81 V 643 h -16.9 v -2 H 288 v 2 h -65.9 v -30 h -13 z m 204.8,151 h 3.8 l 81.9,35.9 h 11.7 l 20.8,-5 h 29.2 l 0.2,-0.2 43.8,-25.8 h 3 l 5.7,10.5 0.3,0.5 h 3.1 l 5.6,9.2 v 8.2 l -5.7,6.8 -0.2,0.2 v 0.2 l -3,10.7 -7.4,8.5 H 594 v 8.6 l -11.8,15.8 -20.6,26.6 h -2.5 v 7.7 l -21.6,24.5 -23.6,7.8 h -5.2 l -7.8,-9.6 -0.3,-0.4 h -5 l -7.4,-6.4 v -6.9 l -0.3,-0.3 -17.8,-19.7 v -11 l -0.4,-0.3 -15.2,-13.6 v -1.4 l -0.3,-0.3 -32.1,-31.3 v -6 l -0.3,-0.3 -2,-2 v 0 l -11.7,-9.7 v -5.4 l 5.9,-26.1 z"
   id="path46" />
				</g>
				<g
   id="TP_Lines_test">
					<polygon
   class="st6"
   points="426,427.1 420,437 420,439 426,449 436,449 431,439 431,437 436,427.1 "
   id="polygon46" />
					<polygon
   class="st7"
   points="426,427.1 420,437 420,439 426,449 436,449 431,439 431,437 436,427.1 "
   id="polygon47" />
					<polygon
   class="st7"
   points="512,394.1 505.9,404.1 505.9,406.1 512,416.1 522,416.1 517,406.1 517,404.1 522,394.2 "
   id="polygon48" />
					<polygon
   class="st7"
   points="882.9,503.1 876.9,513.1 876.9,515.1 882.9,525 893,525 887.9,515.1 887.9,513.1 893,503.1 "
   id="polygon49" />
					<polygon
   class="st7"
   points="39,419.1 33,429.1 33,431.1 39,441 49,441 44,431.1 44,429.1 49,419.1 "
   id="polygon50" />
					<polygon
   class="st6"
   points="893.6,508.1 891.1,513.1 891.1,515 893.7,520.1 906.9,520.1 906.9,759.1 698.5,759.1 698.5,771 918.9,771 918.9,765 918.9,759.1 918.9,508.1 909.2,508.1 906.9,508.1 "
   id="polygon51" />
					<polygon
   class="st6"
   points="33,436 30,431 30,429 33,424.1 33,424.1 0,424.1 0,434.2 0,436 0,771 8.3,771 12,771 369,771 369,759.1 12,759.1 12,436 33,436 "
   id="polygon52" />
					<polygon
   class="st6"
   points="454,399.1 454,408.9 454,411 454,432.1 436.4,432.1 433.9,437.1 433.9,439 436.4,444 454,444 454,444 466,444 466,411 505.9,411 502.9,406.1 502.9,404.1 505.9,399.1 "
   id="polygon53" />
				</g>
				<g
   id="Callouts_copy">
					
					
					
					
					
					
					
					
					
					
					
					
					
					
					
					
					
					
					
					
					
					
					
					
					
					
					
					
					
					
					
					
					
					
					
					
					
					
					
					
					
					
					
					
					
					
					
					
					
					
					
					
					
					
					
					
					
					
					
					
					
					
					
					
					
					
					
					
					
					
					
					
					
					
					
					
					
					
					
					
					
					
					
					
					
					
					
					
					
					
					
					
					
					
					
					
					
					<path
   class="st3"
   d="m 200.7,243.4 v 16 c 0,1.4 -0.8,2.2 -2.1,2.2 h -6.8 c -3.8,0 -6.2,-2 -6.2,-5.1 0,-3.1 1.7,-4.1 3.8,-4.4 v 0 c -2.8,-0.3 -4.8,-2.4 -4.8,-5.1 0,-2.7 2.7,-5.8 7.1,-5.8 h 6.9 c 1.4,0 2.1,0.8 2.1,2.2 z m -7.3,9.7 c -2.3,0 -3.6,1 -3.6,2.7 0,1.7 1.1,2.6 3.1,2.6 h 3.5 v -5.3 h -3.1 z m -0.6,-8.8 c -2.5,0 -3.8,1 -3.8,3 0,2 1.4,2.9 3.9,2.9 h 3.6 v -5.9 z"
   id="path150" />
					<path
   class="st3"
   d="m 636.9,283.6 c 1.1,0 1.8,0.6 2.2,1.9 l 1.1,3.2 h 7.4 l 1.1,-3.2 c 0.4,-1.3 1,-1.9 2.2,-1.9 1.2,0 2.1,0.8 2.1,2 0,1.2 0,0.8 -0.3,1.4 l -5.6,15.2 c -0.6,1.7 -1.6,2.4 -3.3,2.4 -1.7,0 -2.6,-0.8 -3.2,-2.4 L 635,287 c -0.2,-0.5 -0.3,-1 -0.3,-1.4 0,-1.2 0.8,-2 2.2,-2 z m 4.2,8.5 2.7,8.4 v 0 l 2.7,-8.4 z"
   id="path151" />
					
					
					
					
					
					
					
					
					
					
					
				</g>
				
					<linearGradient
   id="SVGID_1_"
   gradientUnits="userSpaceOnUse"
   x1="-857.81372"
   y1="1107.5485"
   x2="-856.81372"
   y2="1107.5485"
   gradientTransform="matrix(20.4,0,0,-6.2,17815.5,7435.7002)">
					<stop
   offset="0"
   style="stop-color:#F00000"
   id="stop162" />
					<stop
   offset="1"
   style="stop-color:#DC281E"
   id="stop163" />
				</linearGradient>
				<rect
   x="305.29999"
   y="565.79999"
   class="st8"
   width="20.4"
   height="6.1999998"
   id="rect163"
   style="fill:url(#SVGID_1_)" />
				
					<linearGradient
   id="SVGID_00000175315990557098680550000002305793220538902189_"
   gradientUnits="userSpaceOnUse"
   x1="-754.03278"
   y1="1037.3176"
   x2="-753.03278"
   y2="1037.3176"
   gradientTransform="matrix(6.1,0,0,-36.2,4821.1001,38214)">
					<stop
   offset="0"
   style="stop-color:#F00000"
   id="stop164" />
					<stop
   offset="1"
   style="stop-color:#DC281E"
   id="stop165" />
				</linearGradient>
				
					<rect
   x="220.89999"
   y="645"
   style="display:none;fill:url(#SVGID_00000175315990557098680550000002305793220538902189_)"
   width="6.0999999"
   height="36.200001"
   id="rect165" />
				
					<linearGradient
   id="SVGID_00000076593030528902570300000016102343345794658737_"
   gradientUnits="userSpaceOnUse"
   x1="-754.03278"
   y1="1051.6855"
   x2="-753.03278"
   y2="1051.6855"
   gradientTransform="matrix(6.1,0,0,-16.7,5089.5,18081)">
					<stop
   offset="0"
   style="stop-color:#F00000"
   id="stop166" />
					<stop
   offset="1"
   style="stop-color:#DC281E"
   id="stop167" />
				</linearGradient>
				
					<rect
   x="489.29999"
   y="509.5"
   style="display:none;fill:url(#SVGID_00000076593030528902570300000016102343345794658737_)"
   width="6.0999999"
   height="16.700001"
   id="rect167" />
				
					<linearGradient
   id="SVGID_00000164501628913390603930000002462731784339388091_"
   gradientUnits="userSpaceOnUse"
   x1="-870.56403"
   y1="1107.5323"
   x2="-869.56403"
   y2="1107.5323"
   gradientTransform="matrix(28.8,0,0,-6.2,25675.102,7452.6001)">
					<stop
   offset="0"
   style="stop-color:#F00000"
   id="stop168" />
					<stop
   offset="1"
   style="stop-color:#DC281E"
   id="stop169" />
				</linearGradient>
				
					<rect
   x="590.79999"
   y="582.79999"
   style="display:none;fill:url(#SVGID_00000164501628913390603930000002462731784339388091_)"
   width="28.799999"
   height="6.1999998"
   id="rect169" />
				
					<linearGradient
   id="SVGID_00000126310755946755259360000016081031622469863871_"
   gradientUnits="userSpaceOnUse"
   x1="-754.03278"
   y1="1034.4025"
   x2="-753.03278"
   y2="1034.4025"
   gradientTransform="matrix(6.1,0,0,-52.3,5300.1006,54714.301)">
					<stop
   offset="0"
   style="stop-color:#F00000"
   id="stop170" />
					<stop
   offset="1"
   style="stop-color:#DC281E"
   id="stop171" />
				</linearGradient>
				
					<rect
   x="699.90002"
   y="588.90002"
   style="display:none;fill:url(#SVGID_00000126310755946755259360000016081031622469863871_)"
   width="6.0999999"
   height="52.299999"
   id="rect171" />
				
					<linearGradient
   id="SVGID_00000106106795085236217540000015235812161022398096_"
   gradientUnits="userSpaceOnUse"
   x1="-866.76849"
   y1="1110.0485"
   x2="-865.76849"
   y2="1110.0485"
   gradientTransform="matrix(25.7,0,0,-6.2,22414.797,7269.5)">
					<stop
   offset="0"
   style="stop-color:#396AFC"
   id="stop172" />
					<stop
   offset="1"
   style="stop-color:#2948FF"
   id="stop173" />
				</linearGradient>
				
					<rect
   x="146.2"
   y="384.10001"
   style="display:none;fill:url(#SVGID_00000106106795085236217540000015235812161022398096_)"
   width="25.700001"
   height="6.1999998"
   id="rect173" />
				
					<linearGradient
   id="SVGID_00000083792267219674261710000016688715304722831244_"
   gradientUnits="userSpaceOnUse"
   x1="-882.90259"
   y1="864.26782"
   x2="-882.00262"
   y2="864.26782"
   gradientTransform="matrix(0.04223631,-24.2,-6.2001,0.07365327,5655.9189,-20981.014)">
					<stop
   offset="0"
   style="stop-color:#396AFC"
   id="stop174" />
					<stop
   offset="1"
   style="stop-color:#2948FF"
   id="stop175" />
				</linearGradient>
				<polygon
   style="display:none;fill:url(#SVGID_00000083792267219674261710000016688715304722831244_)"
   points="263.2,426.8 263.2,450.2 257,450.3 257,426.9 "
   id="polygon175" />
				
					<linearGradient
   id="SVGID_00000170961650621921007610000006008729350615023234_"
   gradientUnits="userSpaceOnUse"
   x1="-876.69781"
   y1="1117.1779"
   x2="-875.69781"
   y2="1117.1779"
   gradientTransform="matrix(35.6,0,0,-5.9,31727.4,7020.2998)">
					<stop
   offset="0"
   style="stop-color:#396AFC"
   id="stop176" />
					<stop
   offset="1"
   style="stop-color:#2948FF"
   id="stop177" />
				</linearGradient>
				
					<rect
   x="530.20001"
   y="426"
   style="display:none;fill:url(#SVGID_00000170961650621921007610000006008729350615023234_)"
   width="35.599998"
   height="5.9000001"
   id="rect177" />
				
					<linearGradient
   id="SVGID_00000088829328935405943660000013594296042944760498_"
   gradientUnits="userSpaceOnUse"
   x1="-864.61328"
   y1="1117.178"
   x2="-863.61328"
   y2="1117.178"
   gradientTransform="matrix(24.1,0,0,-5.9,21504.801,6992.2002)">
					<stop
   offset="0"
   style="stop-color:#396AFC"
   id="stop178" />
					<stop
   offset="1"
   style="stop-color:#2948FF"
   id="stop179" />
				</linearGradient>
				
					<rect
   x="681.70001"
   y="397.89999"
   style="display:none;fill:url(#SVGID_00000088829328935405943660000013594296042944760498_)"
   width="24.1"
   height="5.9000001"
   id="rect179" />
			</g>
		</g>
	</g>
</g>
</svg>
