<?xml version="1.0" encoding="UTF-8" standalone="no"?>
<!-- Generator: Adobe Illustrator 27.9.5, SVG Export Plug-In . SVG Version: 9.03 Build 54986)  -->

<svg
   version="1.1"
   id="Layer_1"
   x="0px"
   y="0px"
   viewBox="0 0 918.9 967.1"
   style="enable-background:new 0 0 918.9 967.1;"
   xml:space="preserve"
   sodipodi:docname="bindfull.svg"
   inkscape:version="1.4.2 (f4327f4, 2025-05-13)"
   xmlns:inkscape="http://www.inkscape.org/namespaces/inkscape"
   xmlns:sodipodi="http://sodipodi.sourceforge.net/DTD/sodipodi-0.dtd"
   xmlns="http://www.w3.org/2000/svg"
   xmlns:svg="http://www.w3.org/2000/svg"><defs
   id="defs179" /><sodipodi:namedview
   id="namedview179"
   pagecolor="#505050"
   bordercolor="#eeeeee"
   borderopacity="1"
   inkscape:showpageshadow="0"
   inkscape:pageopacity="0"
   inkscape:pagecheckerboard="0"
   inkscape:deskcolor="#505050"
   inkscape:zoom="0.59004776"
   inkscape:cx="610.12011"
   inkscape:cy="351.66645"
   inkscape:window-width="1920"
   inkscape:window-height="1009"
   inkscape:window-x="1912"
   inkscape:window-y="-8"
   inkscape:window-maximized="1"
   inkscape:current-layer="Layer_1-2" />
<style
   type="text/css"
   id="style1">
	.st0{fill:#3D3D3D;}
	.st1{fill:#535353;}
	.st2{fill:#7E7F7E;}
	.st3{fill:#FFFFFF;}
	.st4{fill:none;stroke:#B0ADB0;stroke-miterlimit:10;}
	.st5{fill:#FFFFFF;stroke:#FFFFFF;stroke-miterlimit:10;}
	.st6{fill:#37A794;}
	.st7{fill:#5BDFC5;}
	.st8{display:none;fill:url(#SVGID_1_);}
	.st9{display:none;fill:url(#SVGID_00000067930115331501619090000007654850229749386917_);}
	.st10{display:none;fill:url(#SVGID_00000170244634594021906370000002810943544625919876_);}
	.st11{display:none;fill:url(#SVGID_00000125563849518992668460000000672793488437863825_);}
	.st12{display:none;fill:url(#SVGID_00000094593369779340343620000007272530430429514425_);}
	.st13{display:none;fill:url(#SVGID_00000056427361104529726220000009468197514854341050_);}
	.st14{display:none;fill:url(#SVGID_00000005946798495444204400000012648735730485352329_);}
	.st15{display:none;fill:url(#SVGID_00000036224035175438591790000006346300785765728901_);}
	.st16{display:none;fill:url(#SVGID_00000126289565646323600910000014279206778379376271_);}
</style>
<g
   id="g179">
	<g
   id="Layer_1_00000037658078192712101640000011686730844143572904_">
		<g
   id="Layer_1-2_00000076562044785031875360000000688980036478422932_">
			<g
   id="Layer_1-2">
				
				
				
				
				
				
				<g
   id="Callouts_copy">
					<path
   class="st3"
   d="M471.9,899.8c0-0.2,0-0.4,0.1-0.6l2.5-6.8c0.3-0.7,0.7-1.1,1.4-1.1s1.2,0.3,1.5,1.1l2.5,6.8       c0,0.2,0.1,0.4,0.1,0.6c0,0.5-0.4,0.9-1,0.9s-0.8-0.2-1-0.8l-0.5-1.5h-3.3l-0.5,1.4c-0.2,0.6-0.5,0.9-1,0.9s-1-0.3-1-0.9       L471.9,899.8L471.9,899.8L471.9,899.8z M477.2,896.9l-1.2-3.8l0,0l-1.2,3.8H477.2L477.2,896.9z"
   id="path53" />
					<path
   class="st3"
   d="M481.1,895.1h-0.4c-0.4,0-0.7-0.3-0.7-0.7s0.3-0.7,0.7-0.7h0.4v-0.8c0-0.6,0.4-1,0.9-1s0.9,0.4,0.9,1v0.8       h0.6c0.4,0,0.7,0.3,0.7,0.7s-0.3,0.7-0.7,0.7h-0.6v3.3c0,0.5,0.2,0.7,0.6,0.7h0.1c0.5,0,0.7,0.2,0.7,0.7s-0.5,0.8-1.3,0.8l0,0       c-1.2,0-1.9-0.6-1.9-1.8L481.1,895.1L481.1,895.1L481.1,895.1z"
   id="path54" />
					<path
   class="st3"
   d="M485.7,895.1h-0.4c-0.4,0-0.7-0.3-0.7-0.7s0.3-0.7,0.7-0.7h0.4v-0.8c0-0.6,0.4-1,0.9-1s0.9,0.4,0.9,1v0.8       h0.6c0.4,0,0.7,0.3,0.7,0.7s-0.3,0.7-0.7,0.7h-0.6v3.3c0,0.5,0.2,0.7,0.6,0.7h0.1c0.5,0,0.7,0.2,0.7,0.7s-0.5,0.8-1.3,0.8l0,0       c-1.2,0-1.9-0.6-1.9-1.8L485.7,895.1L485.7,895.1L485.7,895.1z"
   id="path55" />
					<path
   class="st3"
   d="M489.5,898.6c0-1.2,1-2,2.6-2.1h1.7V896c0-0.6-0.5-1-1.1-1s-0.9,0.2-1.3,0.7c-0.2,0.2-0.4,0.3-0.7,0.3       c-0.5,0-0.8-0.3-0.8-0.7s0-0.3,0.1-0.4c0.3-0.8,1.4-1.3,2.8-1.3s2.9,0.9,2.9,2.3v3.9c0,0.6-0.4,0.9-0.9,0.9s-0.9-0.3-0.9-0.8       v-0.3l0,0c-0.4,0.7-1.2,1.2-2.1,1.2c-1.3,0-2.3-0.8-2.3-2.1l0,0L489.5,898.6z M493.9,898.1v-0.5h-1.4c-0.7,0-1.1,0.5-1.1,0.9       s0.4,0.8,1,0.8S493.9,898.8,493.9,898.1L493.9,898.1L493.9,898.1z"
   id="path56" />
					<path
   class="st3"
   d="M496.6,897.1c0-2.2,1.3-3.5,3.3-3.5s2.5,0.7,2.9,1.6c0,0.2,0.1,0.3,0.1,0.5c0,0.5-0.4,0.7-0.8,0.7       s-0.6-0.2-0.8-0.5c-0.3-0.6-0.8-0.9-1.3-0.9c-0.9,0-1.5,0.8-1.5,2.1s0.6,2.1,1.5,2.1s1-0.3,1.3-0.8c0.2-0.4,0.5-0.5,0.8-0.5       s0.8,0.3,0.8,0.7s0,0.3-0.1,0.5c-0.4,0.9-1.6,1.6-2.9,1.6c-2,0-3.4-1.3-3.4-3.5L496.6,897.1L496.6,897.1z"
   id="path57" />
					<path
   class="st3"
   d="M504,899.7v-7.5c0-0.6,0.4-1,0.9-1s0.9,0.3,0.9,1v4.2l0,0l2.5-2.5c0.2-0.3,0.5-0.4,0.7-0.4       c0.5,0,0.8,0.3,0.8,0.8s0,0.5-0.4,0.7l-1.7,1.6l1.9,2.4c0.2,0.3,0.3,0.4,0.3,0.7c0,0.5-0.4,0.8-0.9,0.8s-0.6,0-0.9-0.6       l-1.8-2.3l-0.6,0.5v1.4c0,0.6-0.4,1-0.9,1s-0.9-0.3-0.9-1l0,0v0.2L504,899.7L504,899.7z"
   id="path58" />
					<path
   class="st3"
   d="M510.4,897.2c0-2.2,1.3-3.6,3.3-3.6c2,0,3.2,1.3,3.2,3.2s-0.3,0.8-0.8,0.8h-3.9c0,1.1,0.6,1.8,1.5,1.8       s1.1-0.2,1.6-0.8c0.2-0.2,0.4-0.3,0.6-0.3c0.4,0,0.7,0.2,0.7,0.7v0.5c-0.5,0.8-1.5,1.3-2.8,1.3c-2.1,0-3.4-1.3-3.4-3.5l0,0       V897.2z M515.1,896.4c0-0.9-0.6-1.5-1.4-1.5s-1.4,0.6-1.5,1.5H515.1z"
   id="path59" />
					<path
   class="st3"
   d="M517.9,899.7v-5.2c0-0.6,0.4-0.9,0.9-0.9s0.9,0.3,0.9,0.9v0.5l0,0c0.2-0.8,0.7-1.3,1.4-1.3s0.4,0,0.6,0.2       c0.2,0,0.3,0.4,0.3,0.7s0,0.5-0.3,0.7s-0.4,0.2-0.8,0.2c-0.8,0-1.1,0.5-1.1,1.3v3c0,0.6-0.4,1-0.9,1s-0.9-0.3-0.9-1h-0.1       L517.9,899.7z"
   id="path60" />
					<path
   class="st3"
   d="M525.2,898.9v-0.5c0-0.5,0.3-0.8,0.8-0.8s0.7,0.2,0.9,0.6c0.3,0.7,1,1,1.9,1s1.7-0.5,1.7-1.2       s-0.4-1-1.6-1.2l-1-0.2c-1.8-0.4-2.7-1.2-2.7-2.6s1.5-2.8,3.5-2.8s2.9,0.7,3.3,1.9v0.4c0,0.5-0.3,0.8-0.8,0.8s-0.7-0.2-0.9-0.6       c-0.3-0.7-0.9-1-1.7-1s-1.6,0.4-1.6,1.1s0.4,0.9,1.5,1.1l1,0.2c1.9,0.4,2.8,1.2,2.8,2.6s-1.4,2.9-3.7,2.9       S525.5,899.8,525.2,898.9L525.2,898.9L525.2,898.9z"
   id="path61" />
					<path
   class="st3"
   d="M533.4,902v-7.5c0-0.6,0.4-1,0.9-1s0.9,0.3,0.9,1v0.4l0,0c0.4-0.8,1.1-1.3,2.1-1.3c1.7,0,2.8,1.3,2.8,3.5       s-1,3.5-2.8,3.5s-1.8-0.5-2.1-1.2l0,0v2.6c0,0.6-0.4,1-0.9,1S533.4,902.7,533.4,902L533.4,902z M538.2,897.1c0-1.2-0.6-2-1.5-2       s-1.5,0.8-1.5,2s0.6,2,1.5,2S538.2,898.3,538.2,897.1z"
   id="path62" />
					<path
   class="st3"
   d="M540.8,898.6c0-1.2,1-2,2.7-2.1h1.7V896c0-0.6-0.5-1-1.1-1s-0.9,0.2-1.3,0.7c-0.2,0.2-0.4,0.3-0.7,0.3       c-0.5,0-0.8-0.3-0.8-0.7v-0.4c0.3-0.8,1.4-1.3,2.8-1.3s2.9,0.9,2.9,2.3v3.9c0,0.6-0.4,0.9-0.9,0.9s-0.8-0.3-0.9-0.8v-0.3l0,0       c-0.4,0.7-1.2,1.2-2.1,1.2c-1.3,0-2.3-0.8-2.3-2.1l0,0L540.8,898.6z M545.2,898.1v-0.5h-1.4c-0.7,0-1.1,0.5-1.1,0.9       s0.4,0.8,1,0.8S545.2,898.8,545.2,898.1L545.2,898.1L545.2,898.1z"
   id="path63" />
					<path
   class="st3"
   d="M549.3,899.7l-1.4-4.7v-0.6c0-0.5,0.4-0.8,0.9-0.8s0.8,0.3,0.9,0.8l1,4.4l0,0l1-4.3c0-0.5,0.5-0.8,1-0.8       s0.9,0.3,1,0.8l1.1,4.3l0,0l1-4.4c0-0.5,0.4-0.8,0.9-0.8s0.9,0.3,0.9,0.8v0.6l-1.4,4.8c-0.2,0.7-0.5,1-1.2,1s-1-0.3-1.2-1l-1-4       l0,0l-1,4c-0.2,0.7-0.5,1-1.2,1S549.6,900.5,549.3,899.7L549.3,899.7L549.3,899.7z"
   id="path64" />
					<path
   class="st3"
   d="M558.5,899.7v-5.2c0-0.6,0.3-0.9,0.9-0.9s0.9,0.4,0.9,0.9v0.4l0,0c0.4-0.8,1-1.3,2.1-1.3s2.4,1,2.4,2.5       v3.5c0,0.6-0.4,1-0.9,1s-0.9-0.3-0.9-1v-3.2c0-0.9-0.4-1.4-1.2-1.4s-1.4,0.6-1.4,1.5v3.1c0,0.6-0.4,1-0.9,1s-0.9-0.3-0.9-1l0,0       L558.5,899.7z"
   id="path65" />
					<path
   class="st3"
   d="M141.1,589.1v-5.6c0-0.5,0.3-0.8,0.7-0.8h3.3c0.4,0,0.7,0.2,0.7,0.6s-0.3,0.6-0.7,0.6h-2.6v1.9h2.3       c0.4,0,0.6,0.2,0.6,0.6s-0.2,0.6-0.6,0.6h-2.3v2.1c0,0.5-0.3,0.8-0.7,0.8S141.1,589.6,141.1,589.1L141.1,589.1L141.1,589.1z"
   id="path66" />
					<path
   class="st3"
   d="M146.2,587.2c0-1.7,1-2.7,2.6-2.7s2.6,1,2.6,2.7s-1,2.7-2.6,2.7S146.2,588.9,146.2,587.2z M149.9,587.2       c0-1-0.4-1.6-1.1-1.6s-1.1,0.6-1.1,1.6s0.4,1.6,1.1,1.6S149.9,588.2,149.9,587.2z"
   id="path67" />
					<path
   class="st3"
   d="M152.1,587.9v-2.7c0-0.5,0.3-0.8,0.7-0.8s0.7,0.3,0.7,0.8v2.4c0,0.7,0.4,1.1,1,1.1s1-0.5,1-1.2v-2.4       c0-0.5,0.3-0.8,0.7-0.8s0.7,0.3,0.7,0.8v4c0,0.5-0.3,0.7-0.7,0.7s-0.7-0.2-0.7-0.7v-0.3l0,0c-0.3,0.7-0.8,1-1.6,1       s-1.9-0.7-1.9-2h0.1V587.9z"
   id="path68" />
					<path
   class="st3"
   d="M157.9,589.2v-4c0-0.4,0.3-0.7,0.7-0.7s0.7,0.3,0.7,0.7v0.3l0,0c0.3-0.7,0.8-1,1.6-1c1.2,0,1.8,0.7,1.8,2       v2.7c0,0.5-0.3,0.7-0.7,0.7s-0.7-0.2-0.7-0.7v-2.4c0-0.7-0.3-1.1-1-1.1s-1,0.5-1,1.2v2.4c0,0.5-0.3,0.7-0.7,0.7       s-0.7-0.2-0.7-0.7l0,0L157.9,589.2z"
   id="path69" />
					<path
   class="st3"
   d="M164,585.7h-0.3c-0.3,0-0.6-0.2-0.6-0.5s0.2-0.5,0.6-0.5h0.3v-0.6c0-0.5,0.3-0.7,0.7-0.7s0.7,0.3,0.7,0.7       v0.6h0.5c0.3,0,0.6,0.2,0.6,0.5s-0.2,0.5-0.6,0.5h-0.5v2.5c0,0.4,0.1,0.5,0.4,0.5l0,0c0.4,0,0.5,0.2,0.5,0.5s-0.4,0.6-1,0.6       l0,0c-0.9,0-1.4-0.5-1.4-1.4v-2.8h0.1V585.7z"
   id="path70" />
					<path
   class="st3"
   d="M166.9,588.3c0-1,0.7-1.5,2-1.6h1.3v-0.4c0-0.5-0.3-0.8-0.9-0.8s-0.7,0-1,0.5c-0.2,0.2-0.3,0.3-0.6,0.3       s-0.6-0.2-0.6-0.5v-0.3c0.2-0.6,1.1-1,2.2-1s2.2,0.7,2.2,1.8v3c0,0.5-0.3,0.7-0.7,0.7s-0.6-0.2-0.7-0.6v-0.3l0,0       c-0.3,0.6-0.9,0.9-1.6,0.9c-1,0-1.8-0.6-1.8-1.6h0.2L166.9,588.3z M170.3,587.9v-0.4h-1.1c-0.5,0-0.8,0.4-0.8,0.7       s0.3,0.6,0.8,0.6s1.1-0.4,1.1-1l0,0V587.9z"
   id="path71" />
					<path
   class="st3"
   d="M172.6,583.2c0-0.4,0.3-0.7,0.8-0.7s0.8,0.3,0.8,0.7s-0.3,0.7-0.8,0.7S172.6,583.6,172.6,583.2z        M172.6,589.2v-4c0-0.5,0.3-0.8,0.7-0.8s0.7,0.3,0.7,0.8v4c0,0.5-0.3,0.7-0.7,0.7S172.6,589.6,172.6,589.2z"
   id="path72" />
					<path
   class="st3"
   d="M175,589.2v-4c0-0.4,0.3-0.7,0.7-0.7s0.7,0.3,0.7,0.7v0.3l0,0c0.3-0.7,0.8-1,1.6-1c1.2,0,1.8,0.7,1.8,2       v2.7c0,0.5-0.3,0.7-0.7,0.7s-0.7-0.2-0.7-0.7v-2.4c0-0.7-0.3-1.1-1-1.1s-1,0.5-1,1.2v2.4c0,0.5-0.3,0.7-0.7,0.7       s-0.7-0.2-0.7-0.7l0,0L175,589.2z"
   id="path73" />
					<path
   class="st3"
   d="M309.2,495.8v-5.6c0-0.6,0.4-1,1-1s0.8,0.2,1,0.8l1.8,4.3l0,0l1.7-4.3c0.2-0.5,0.5-0.8,1-0.8s1,0.4,1,1       v5.6c0,0.4-0.2,0.7-0.7,0.7s-0.6-0.2-0.6-0.7v-4.2l0,0l-1.7,4.3c-0.1,0.3-0.3,0.5-0.6,0.5s-0.5-0.1-0.6-0.4l-1.7-4.3l0,0v4.2       c0,0.4-0.2,0.7-0.6,0.7s-0.7-0.2-0.7-0.7h-0.3l0,0L309.2,495.8z"
   id="path74" />
					<path
   class="st3"
   d="M317.7,489.8c0-0.4,0.3-0.7,0.8-0.7s0.8,0.3,0.8,0.7s-0.3,0.7-0.8,0.7S317.7,490.2,317.7,489.8z        M317.7,495.8v-4c0-0.5,0.3-0.8,0.7-0.8s0.7,0.3,0.7,0.8v4c0,0.5-0.3,0.7-0.7,0.7S317.7,496.2,317.7,495.8z"
   id="path75" />
					<path
   class="st3"
   d="M319.9,493.8c0-1.7,0.8-2.7,2.1-2.7s1.3,0.4,1.6,1l0,0V490c0-0.5,0.3-0.8,0.7-0.8s0.7,0.3,0.7,0.8v5.8       c0,0.5-0.3,0.7-0.7,0.7s-0.7-0.2-0.7-0.7v-0.3l0,0c-0.2,0.6-0.8,1-1.6,1C320.7,496.5,319.9,495.5,319.9,493.8L319.9,493.8       L319.9,493.8z M323.7,493.8c0-1-0.5-1.6-1.2-1.6s-1.2,0.6-1.2,1.6s0.4,1.5,1.2,1.5S323.7,494.7,323.7,493.8z"
   id="path76" />
					<path
   class="st3"
   d="M226.3,441.4v-5.7c0-0.5,0.3-0.8,0.7-0.8s0.7,0.3,0.7,0.8v2.2h3.2v-2.2c0-0.5,0.3-0.8,0.7-0.8       s0.7,0.3,0.7,0.8v5.7c0,0.5-0.3,0.8-0.7,0.8s-0.7-0.3-0.7-0.8v-2.3h-3.2v2.3c0,0.5-0.3,0.8-0.7,0.8S226.3,441.9,226.3,441.4z"
   id="path77" />
					<path
   class="st3"
   d="M233.3,439.4c0-1.7,1-2.7,2.6-2.7s2.6,1,2.6,2.7s-1,2.7-2.6,2.7S233.3,441.1,233.3,439.4z M237,439.4       c0-1-0.4-1.6-1.1-1.6s-1.1,0.6-1.1,1.6s0.4,1.6,1.1,1.6S237,440.4,237,439.4z"
   id="path78" />
					<path
   class="st3"
   d="M239,439.4c0-1.7,1-2.7,2.6-2.7s2.6,1,2.6,2.7s-1,2.7-2.6,2.7S239,441.1,239,439.4z M242.7,439.4       c0-1-0.4-1.6-1.1-1.6s-1.1,0.6-1.1,1.6s0.4,1.6,1.1,1.6S242.7,440.4,242.7,439.4z"
   id="path79" />
					<path
   class="st3"
   d="M244.9,441.4v-5.8c0-0.5,0.3-0.8,0.7-0.8s0.7,0.3,0.7,0.8v3.2l0,0l1.9-1.9c0.2-0.2,0.4-0.3,0.6-0.3       c0.4,0,0.6,0.3,0.6,0.6s0,0.4-0.3,0.5l-1.3,1.3l1.5,1.9c0.2,0.2,0.2,0.3,0.2,0.5c0,0.4-0.3,0.6-0.7,0.6s-0.5-0.1-0.7-0.4       l-1.3-1.8l-0.4,0.4v1.1c0,0.5-0.3,0.7-0.7,0.7s-0.7-0.2-0.7-0.7L244.9,441.4L244.9,441.4z"
   id="path80" />
					<path
   class="st3"
   d="M250.1,440.5c0-1,0.7-1.5,2-1.6h1.3v-0.4c0-0.5-0.3-0.8-0.9-0.8s-0.7,0.1-1,0.5c-0.2,0.2-0.3,0.3-0.6,0.3       s-0.6-0.2-0.6-0.5v-0.3c0.2-0.6,1.1-1,2.2-1s2.2,0.7,2.2,1.8v3c0,0.5-0.3,0.7-0.7,0.7s-0.6-0.2-0.7-0.6v-0.3l0,0       c-0.3,0.6-0.9,0.9-1.6,0.9c-1,0-1.8-0.6-1.8-1.6h0.2L250.1,440.5z M253.4,440.1v-0.4h-1.1c-0.5,0.1-0.8,0.4-0.8,0.7       s0.3,0.6,0.8,0.6S253.4,440.6,253.4,440.1L253.4,440.1L253.4,440.1z"
   id="path81" />
					<path
   class="st3"
   d="M255.8,441.4v-5.8c0-0.5,0.3-0.7,0.7-0.7s0.7,0.3,0.7,0.7v2.1l0,0c0.3-0.7,0.9-1,1.6-1       c1.2,0,1.8,0.8,1.8,2v2.7c0,0.5-0.3,0.7-0.7,0.7s-0.7-0.2-0.7-0.7V439c0-0.7-0.3-1.1-1-1.1s-1.1,0.5-1.1,1.2v2.4       c0,0.5-0.3,0.7-0.7,0.7s-0.7-0.2-0.7-0.7h0.1L255.8,441.4z"
   id="path82" />
					<path
   class="st3"
   d="M759.6,428.6v-0.4c0-0.4,0.3-0.6,0.7-0.6s0.5,0.1,0.7,0.4c0.2,0.5,0.8,0.8,1.5,0.8s1.3-0.4,1.3-0.9       s-0.3-0.7-1.2-0.9h-0.8c-1.4-0.4-2.1-1.1-2.1-2.1s1.1-2.1,2.7-2.1s2.3,0.5,2.6,1.5v0.3c0,0.4-0.2,0.6-0.6,0.6s-0.5-0.1-0.7-0.4       c-0.2-0.5-0.7-0.8-1.3-0.8s-1.2,0.3-1.2,0.9s0.3,0.7,1.2,0.9h0.7c1.5,0.4,2.1,1,2.1,2.1s-1.1,2.2-2.8,2.2s-2.4-0.6-2.7-1.4       h-0.1L759.6,428.6z"
   id="path83" />
					<path
   class="st3"
   d="M765.9,429.2v-5.8c0-0.5,0.3-0.7,0.7-0.7s0.7,0.3,0.7,0.7v2.1l0,0c0.3-0.7,0.8-1,1.7-1s1.8,0.8,1.8,2v2.7       c0,0.5-0.3,0.7-0.7,0.7s-0.7-0.2-0.7-0.7v-2.4c0-0.7-0.3-1.1-1-1.1s-1.1,0.5-1.1,1.2v2.4c0,0.5-0.3,0.7-0.7,0.7       s-0.7-0.2-0.7-0.7l0,0V429.2z"
   id="path84" />
					<path
   class="st3"
   d="M771.5,427.3c0-1.7,1-2.7,2.6-2.7s2.6,1,2.6,2.7s-1,2.7-2.6,2.7S771.5,429,771.5,427.3z M775.3,427.3       c0-1-0.5-1.6-1.1-1.6s-1.2,0.6-1.2,1.6s0.4,1.6,1.2,1.6S775.3,428.3,775.3,427.3z"
   id="path85" />
					<path
   class="st3"
   d="M778.2,429.2l-1-3.6v-0.4c0-0.4,0.3-0.6,0.7-0.6s0.6,0.2,0.7,0.6l0.8,3.4l0,0l0.8-3.3       c0-0.4,0.4-0.6,0.8-0.6s0.7,0.2,0.8,0.6l0.8,3.3l0,0l0.8-3.4c0-0.4,0.3-0.6,0.7-0.6s0.7,0.2,0.7,0.6v0.4l-1,3.6       c-0.2,0.5-0.4,0.8-0.9,0.8s-0.8-0.2-0.9-0.8l-0.8-3l0,0l-0.8,3.1c0,0.5-0.4,0.8-0.9,0.8s-0.8-0.2-0.9-0.8h-0.4l0,0L778.2,429.2       z"
   id="path86" />
					<path
   class="st3"
   d="M785,427.3c0-1.7,1-2.8,2.5-2.8s2.5,1,2.5,2.4s-0.2,0.6-0.6,0.6h-3c0,0.8,0.5,1.3,1.2,1.3s0.9-0.2,1.2-0.6       c0.2-0.2,0.3-0.2,0.5-0.2c0.3,0,0.6,0.2,0.6,0.5v0.4c-0.3,0.6-1.2,1-2.2,1c-1.6,0-2.6-1-2.6-2.7H785V427.3z M788.7,426.7       c0-0.7-0.5-1.1-1.1-1.1s-1.1,0.5-1.1,1.1H788.7L788.7,426.7L788.7,426.7z"
   id="path87" />
					<path
   class="st3"
   d="M790.8,429.2v-4c0-0.5,0.3-0.7,0.7-0.7s0.7,0.3,0.7,0.7v0.3l0,0c0-0.6,0.6-1,1.1-1s0.3,0,0.4,0.1       c0,0.1,0.2,0.3,0.2,0.5s0,0.4-0.2,0.5s-0.3,0.2-0.6,0.2c-0.7,0-0.9,0.4-0.9,1v2.3c0,0.5-0.3,0.7-0.7,0.7s-0.7-0.3-0.7-0.7l0,0       V429.2z"
   id="path88" />
					<path
   class="st3"
   d="M794.3,429v-0.3c0-0.3,0.2-0.5,0.6-0.5s0.4,0.1,0.6,0.3c0.3,0.4,0.6,0.5,1.1,0.5s0.8-0.2,0.8-0.6       s-0.2-0.4-0.7-0.5l-0.9-0.2c-1-0.2-1.5-0.7-1.5-1.5s0.9-1.6,2.2-1.6s1.9,0.5,2,1.1v0.2c0,0.3-0.2,0.5-0.5,0.5s-0.4,0-0.5-0.2       c-0.2-0.3-0.5-0.6-1-0.6s-0.8,0.2-0.8,0.6s0.2,0.5,0.7,0.6l0.9,0.2c1.1,0.2,1.6,0.6,1.6,1.4s-0.9,1.7-2.3,1.7s-2-0.4-2.2-1l0,0       L794.3,429z"
   id="path89" />
					<path
   class="st3"
   d="M142,419c0-2.3,1.3-3.6,3.4-3.6s2.4,0.6,2.8,1.5c0,0.2,0.1,0.3,0.1,0.5c0,0.4-0.3,0.6-0.6,0.6       s-0.5-0.1-0.7-0.4c-0.4-0.6-0.9-0.9-1.6-0.9c-1.2,0-1.9,0.9-1.9,2.4s0.7,2.5,1.9,2.5s1.6-0.6,1.7-1.5l0,0c0-0.1-1-0.1-1-0.1       c-0.4,0-0.6-0.2-0.6-0.5s0.2-0.5,0.6-0.5h1.7c0.5,0,0.7,0.3,0.7,0.8l0,0c0,1.9-1.1,3.1-3.1,3.1s-3.4-1.4-3.4-3.7l0,0L142,419       L142,419L142,419z"
   id="path90" />
					<path
   class="st3"
   d="M149.1,421.1c0-1,0.7-1.5,2-1.6h1.3v-0.4c0-0.5-0.3-0.8-0.9-0.8s-0.7,0.1-1,0.5c-0.2,0.2-0.3,0.3-0.6,0.3       s-0.6-0.2-0.6-0.5v-0.3c0.2-0.6,1.1-1,2.2-1s2.2,0.7,2.2,1.8v3c0,0.5-0.3,0.7-0.7,0.7s-0.6-0.2-0.7-0.6v-0.3l0,0       c-0.3,0.6-0.9,0.9-1.6,0.9c-1,0-1.8-0.6-1.8-1.6h0.2L149.1,421.1z M152.5,420.6v-0.4h-1.1c-0.5,0.1-0.8,0.4-0.8,0.7       s0.3,0.6,0.8,0.6S152.5,421.1,152.5,420.6L152.5,420.6L152.5,420.6z"
   id="path91" />
					<path
   class="st3"
   d="M154.8,421.9v-4c0-0.5,0.3-0.7,0.7-0.7s0.7,0.3,0.7,0.7v0.3l0,0c0.1-0.6,0.6-1,1.1-1s0.3,0,0.4,0.1       c0.1,0.1,0.2,0.3,0.2,0.5s0,0.4-0.2,0.5s-0.3,0.2-0.6,0.2c-0.6,0-0.9,0.4-0.9,1v2.3c0,0.5-0.3,0.7-0.7,0.7s-0.7-0.3-0.7-0.7       l0,0V421.9z"
   id="path92" />
					<path
   class="st3"
   d="M158.1,419.9c0-1.7,0.8-2.7,2.1-2.7s1.3,0.4,1.6,1l0,0v-2.1c0-0.5,0.3-0.8,0.7-0.8s0.7,0.3,0.7,0.8v5.8       c0,0.5-0.3,0.7-0.7,0.7s-0.7-0.2-0.7-0.7v-0.3l0,0c-0.2,0.6-0.8,1-1.6,1C158.9,422.6,158.1,421.6,158.1,419.9L158.1,419.9       L158.1,419.9z M161.9,419.9c0-1-0.4-1.6-1.2-1.6s-1.2,0.6-1.2,1.6s0.4,1.5,1.2,1.5S161.9,420.8,161.9,419.9z"
   id="path93" />
					<path
   class="st3"
   d="M164.1,420c0-1.7,1-2.8,2.5-2.8s2.5,1,2.5,2.4s-0.2,0.6-0.6,0.6h-3c0,0.8,0.5,1.3,1.2,1.3s0.9-0.2,1.2-0.6       c0.1-0.2,0.3-0.2,0.5-0.2c0.3,0,0.6,0.2,0.6,0.5s0,0.2-0.1,0.4c-0.4,0.6-1.2,1-2.2,1c-1.6,0-2.6-1-2.6-2.7l0,0L164.1,420z        M167.7,419.4c0-0.7-0.5-1.1-1.1-1.1s-1.1,0.5-1.1,1.1H167.7L167.7,419.4z"
   id="path94" />
					<path
   class="st3"
   d="M169.8,421.9v-4c0-0.4,0.3-0.7,0.7-0.7s0.7,0.3,0.7,0.7v0.3l0,0c0.3-0.6,0.8-1,1.6-1c1.2,0,1.8,0.7,1.8,2       v2.7c0,0.5-0.3,0.7-0.7,0.7s-0.7-0.2-0.7-0.7v-2.4c0-0.7-0.3-1.1-1-1.1s-1,0.5-1,1.1v2.4c0,0.5-0.3,0.7-0.7,0.7       S169.8,422.4,169.8,421.9L169.8,421.9L169.8,421.9z"
   id="path95" />
					<path
   class="st3"
   d="M83.7,264.5V259c0-0.5,0.3-0.8,0.7-0.8h3.3c0.4,0,0.7,0.2,0.7,0.6s-0.3,0.6-0.7,0.6h-2.6v1.7h2.5       c0.4,0,0.6,0.2,0.6,0.6s-0.2,0.6-0.6,0.6h-2.5v1.8h2.6c0.4,0,0.7,0.2,0.7,0.6s-0.3,0.6-0.7,0.6h-3.3       C83.9,265.3,83.7,265,83.7,264.5L83.7,264.5L83.7,264.5z"
   id="path96" />
					<path
   class="st3"
   d="M89.4,264.6v-5.8c0-0.5,0.3-0.8,0.7-0.8s0.7,0.3,0.7,0.8v5.8c0,0.5-0.3,0.7-0.7,0.7S89.4,265.1,89.4,264.6       z"
   id="path97" />
					<path
   class="st3"
   d="M91.8,264.6v-5.8c0-0.5,0.3-0.8,0.7-0.8s0.7,0.3,0.7,0.8v2.1l0,0c0.3-0.6,0.9-1,1.6-1c1.3,0,2.1,1,2.1,2.7       s-0.8,2.7-2.1,2.7s-1.3-0.4-1.6-1l0,0v0.3c0,0.5-0.3,0.7-0.7,0.7S91.8,265.1,91.8,264.6L91.8,264.6L91.8,264.6z M95.5,262.6       c0-1-0.4-1.6-1.2-1.6s-1.2,0.6-1.2,1.6s0.5,1.5,1.2,1.5S95.5,263.5,95.5,262.6z"
   id="path98" />
					<path
   class="st3"
   d="M97.5,262.6c0-1.7,1-2.7,2.6-2.7s2.6,1,2.6,2.7s-1,2.7-2.6,2.7S97.5,264.3,97.5,262.6z M101.3,262.6       c0-1-0.4-1.6-1.1-1.6s-1.2,0.6-1.2,1.6s0.4,1.6,1.2,1.6S101.3,263.6,101.3,262.6z"
   id="path99" />
					<path
   class="st3"
   d="M104.2,264.6l-1.1-3.6v-0.4c0-0.4,0.3-0.6,0.7-0.6s0.6,0.2,0.7,0.6l0.8,3.4l0,0l0.8-3.3       c0-0.4,0.4-0.6,0.8-0.6s0.7,0.2,0.8,0.6l0.8,3.3l0,0l0.8-3.4c0-0.4,0.3-0.6,0.7-0.6s0.7,0.2,0.7,0.6v0.4l-1.1,3.6       c-0.2,0.5-0.4,0.8-0.9,0.8s-0.8-0.2-0.9-0.8l-0.8-3l0,0l-0.8,3.1c0,0.5-0.4,0.8-0.9,0.8s-0.8-0.2-0.9-0.8h-0.2V264.6z"
   id="path100" />
					<path
   class="st3"
   d="M391.5,77.6v-7.2c0-0.6,0.4-1,1-1h2.5c2.8,0,4.4,1.6,4.4,4.5s-1.6,4.6-4.4,4.6h-2.5       C391.9,78.5,391.5,78.1,391.5,77.6L391.5,77.6L391.5,77.6z M394.8,77c1.7,0,2.6-1,2.6-3s-1-3-2.6-3h-1.4v6H394.8z"
   id="path101" />
					<path
   class="st3"
   d="M400.2,75.2c0-2.2,1.3-3.6,3.3-3.6s3.2,1.3,3.2,3.2s-0.3,0.8-0.8,0.8H402c0,1.1,0.6,1.8,1.5,1.8       s1.1-0.2,1.6-0.8c0.2-0.2,0.4-0.3,0.6-0.3c0.4,0,0.7,0.2,0.7,0.7s0,0.3-0.1,0.4c-0.5,0.8-1.5,1.3-2.8,1.3       C401.4,78.7,400.1,77.4,400.2,75.2L400.2,75.2L400.2,75.2z M405,74.5c0-0.9-0.6-1.5-1.4-1.5s-1.4,0.6-1.5,1.5H405z"
   id="path102" />
					<path
   class="st3"
   d="M408.2,77.7v-4.6h-0.4c-0.4,0-0.7-0.2-0.7-0.7s0.3-0.7,0.7-0.7h0.4v-0.5c0-1.3,0.7-1.9,1.9-2       c1,0,1.4,0.3,1.4,0.8s-0.1,0.4-0.4,0.5h-0.4c-0.6,0-0.8,0.2-0.8,0.8v0.4h0.8c0.4,0,0.7,0.2,0.7,0.7s-0.3,0.7-0.7,0.7H410v4.6       c0,0.6-0.4,1-0.9,1S408.2,78.4,408.2,77.7L408.2,77.7z"
   id="path103" />
					<path
   class="st3"
   d="M411.9,75.2c0-2.2,1.3-3.6,3.3-3.6s3.2,1.3,3.2,3.2s-0.3,0.8-0.8,0.8h-3.9c0,1.1,0.6,1.8,1.5,1.8       s1.1-0.2,1.6-0.8c0.2-0.2,0.4-0.3,0.6-0.3c0.4,0,0.7,0.2,0.7,0.7s0,0.3-0.1,0.4c-0.5,0.8-1.5,1.3-2.8,1.3       C413.1,78.7,411.8,77.4,411.9,75.2L411.9,75.2L411.9,75.2z M416.6,74.5c0-0.9-0.6-1.5-1.4-1.5s-1.4,0.6-1.5,1.5H416.6z"
   id="path104" />
					<path
   class="st3"
   d="M419.3,77.7v-5.2c0-0.6,0.3-0.9,0.9-0.9s0.9,0.4,0.9,0.9v0.4l0,0c0.4-0.8,1-1.3,2.1-1.3s2.4,0.9,2.4,2.6       v3.6c0,0.6-0.4,1-0.9,1s-0.9-0.3-0.9-1v-3.2c0-0.9-0.4-1.4-1.2-1.4s-1.4,0.6-1.4,1.5v3.1c0,0.6-0.4,1-0.9,1s-0.9-0.3-0.9-1       L419.3,77.7L419.3,77.7z"
   id="path105" />
					<path
   class="st3"
   d="M426.6,75.2c0-2.2,1.1-3.5,2.8-3.5s1.8,0.5,2.1,1.3l0,0v-2.7c0-0.6,0.4-1,0.9-1s0.9,0.3,0.9,1v7.5       c0,0.6-0.4,0.9-0.9,0.9s-0.9-0.3-0.9-0.9v-0.4l0,0c-0.3,0.8-1,1.3-2.1,1.3C427.7,78.7,426.6,77.4,426.6,75.2L426.6,75.2z        M431.5,75.2c0-1.2-0.6-2-1.5-2s-1.5,0.8-1.5,2s0.6,2,1.5,2S431.5,76.4,431.5,75.2z"
   id="path106" />
					<path
   class="st3"
   d="M434.3,75.2c0-2.2,1.3-3.6,3.3-3.6s3.2,1.3,3.2,3.2s-0.3,0.8-0.8,0.8h-3.9c0,1.1,0.6,1.8,1.5,1.8       s1.1-0.2,1.6-0.8c0.2-0.2,0.4-0.3,0.6-0.3c0.4,0,0.7,0.2,0.7,0.7s0,0.3-0.1,0.4c-0.5,0.8-1.5,1.3-2.8,1.3       C435.5,78.7,434.2,77.4,434.3,75.2L434.3,75.2L434.3,75.2z M439.1,74.5c0-0.9-0.6-1.5-1.4-1.5s-1.4,0.6-1.5,1.5H439.1z"
   id="path107" />
					<path
   class="st3"
   d="M441.8,77.7v-5.2c0-0.6,0.4-0.9,0.9-0.9s0.9,0.3,0.9,0.9v0.4l0,0c0.2-0.8,0.7-1.3,1.4-1.3s0.4,0,0.6,0.2       c0.2,0,0.3,0.4,0.3,0.7s0,0.5-0.3,0.7s-0.4,0.2-0.8,0.2c-0.8,0-1.1,0.5-1.1,1.3v3c0,0.6-0.4,1-0.9,1s-0.9-0.3-0.9-1       C441.9,77.7,441.8,77.7,441.8,77.7z"
   id="path108" />
					<path
   class="st3"
   d="M449.1,77c0-0.2-0.1-0.3-0.1-0.5c0-0.5,0.4-0.8,0.8-0.8s0.6,0.2,0.9,0.6c0.3,0.7,1,1,1.9,1       s1.7-0.5,1.7-1.2s-0.4-0.9-1.6-1.2l-1-0.2c-1.8-0.4-2.7-1.2-2.7-2.6s1.5-2.8,3.5-2.8s2.9,0.7,3.4,1.9v0.4       c0,0.5-0.3,0.8-0.8,0.8s-0.7-0.2-0.9-0.6c-0.3-0.7-0.9-1-1.7-1s-1.6,0.4-1.6,1.1s0.4,0.9,1.5,1.1l1,0.2       c1.9,0.4,2.8,1.2,2.8,2.6s-1.4,2.9-3.7,2.9s-3.1-0.8-3.5-1.8L449.1,77L449.1,77z"
   id="path109" />
					<path
   class="st3"
   d="M457.3,80v-7.4c0-0.6,0.4-0.9,0.9-0.9s0.9,0.3,0.9,1v0.4l0,0c0.4-0.8,1.1-1.3,2.1-1.3       c1.7,0,2.8,1.3,2.8,3.5s-1,3.5-2.8,3.5s-1.8-0.5-2.1-1.2l0,0v2.6c0,0.6-0.4,1-0.9,1s-0.9-0.3-0.9-1l0,0V80z M462.2,75.2       c0-1.2-0.6-2-1.5-2s-1.5,0.8-1.5,2s0.6,2,1.5,2S462.2,76.4,462.2,75.2z"
   id="path110" />
					<path
   class="st3"
   d="M464.7,76.6c0-1.2,1-2,2.6-2.1h1.7V74c0-0.6-0.5-1-1.1-1s-0.9,0.2-1.3,0.7c-0.2,0.2-0.4,0.3-0.7,0.3       c-0.5,0-0.8-0.3-0.8-0.7s0-0.3,0.1-0.4c0.3-0.8,1.4-1.3,2.8-1.3s2.9,0.9,2.9,2.3v3.9c0,0.6-0.4,0.9-0.9,0.9s-0.9-0.3-0.9-0.8       v-0.3l0,0c-0.4,0.7-1.2,1.2-2.1,1.2C465.7,78.8,464.7,78,464.7,76.6L464.7,76.6L464.7,76.6z M469.1,76.1v-0.5h-1.4       c-0.7,0-1.1,0.4-1.1,0.9s0.4,0.8,1,0.8S469.1,76.8,469.1,76.1L469.1,76.1L469.1,76.1z"
   id="path111" />
					<path
   class="st3"
   d="M473.2,77.7l-1.4-4.7c0-0.2-0.1-0.4-0.1-0.6c0-0.5,0.4-0.8,0.9-0.8s0.8,0.3,0.9,0.8l1,4.4l0,0l1-4.3       c0.1-0.6,0.5-0.8,1-0.8s0.9,0.3,1,0.8l1.1,4.3l0,0l1-4.4c0.1-0.5,0.4-0.8,0.9-0.8s0.9,0.3,0.9,0.8s0,0.3-0.1,0.6l-1.4,4.8       c-0.2,0.7-0.5,1-1.2,1s-1-0.3-1.2-1l-1-4l0,0l-1,4c-0.2,0.7-0.5,1-1.2,1s-1-0.3-1.2-1h0.1L473.2,77.7z"
   id="path112" />
					<path
   class="st3"
   d="M482.4,77.7v-5.2c0-0.6,0.3-0.9,0.9-0.9s0.9,0.4,0.9,0.9v0.4l0,0c0.4-0.8,1-1.3,2.1-1.3s2.4,0.9,2.4,2.6       v3.6c0,0.6-0.4,1-0.9,1s-0.9-0.3-0.9-1v-3.2c0-0.9-0.4-1.4-1.2-1.4s-1.4,0.6-1.4,1.5v3.1c0,0.6-0.4,1-0.9,1s-0.9-0.3-0.9-1       L482.4,77.7L482.4,77.7z"
   id="path113" />
					<path
   class="st3"
   d="M757.8,546.6v-0.5l1.9-5.2c0.2-0.6,0.5-0.8,1.1-0.8s0.9,0.2,1.1,0.8l1.9,5.2v0.5c0,0.4-0.3,0.7-0.7,0.7       s-0.6-0.2-0.8-0.7l-0.4-1.1h-2.5l-0.4,1.1c0,0.5-0.4,0.7-0.8,0.7s-0.8-0.3-0.8-0.7H757.8z M761.9,544.4l-0.9-2.9l0,0l-0.9,2.9       H761.9L761.9,544.4L761.9,544.4z"
   id="path114" />
					<path
   class="st3"
   d="M766.9,546.6V541c0-0.6,0.3-1,1-1s0.8,0.2,1,0.8l1.8,4.3l0,0l1.7-4.3c0.2-0.5,0.5-0.8,1-0.8s1,0.3,1,1v5.6       c0,0.4-0.2,0.7-0.7,0.7s-0.7-0.2-0.7-0.7v-4.2l0,0l-1.7,4.3c0,0.3-0.3,0.5-0.6,0.5s-0.5,0-0.6-0.4l-1.7-4.3l0,0v4.2       c0,0.4-0.2,0.7-0.7,0.7S767,547.2,766.9,546.6L766.9,546.6L766.9,546.6z"
   id="path115" />
					<path
   class="st3"
   d="M775.1,545.7c0-1,0.7-1.5,2-1.6h1.3v-0.4c0-0.5-0.3-0.8-0.9-0.8s-0.7,0-1,0.5c-0.2,0.2-0.3,0.3-0.6,0.3       s-0.6-0.2-0.6-0.5v-0.3c0.2-0.6,1.1-1,2.2-1s2.2,0.7,2.2,1.8v3c0,0.5-0.3,0.7-0.7,0.7s-0.7-0.2-0.7-0.6v-0.3l0,0       c-0.3,0.6-1,0.9-1.6,0.9c-1,0-1.8-0.6-1.8-1.6h0.2l0,0L775.1,545.7z M778.5,545.3v-0.4h-1.1c-0.5,0-0.8,0.4-0.8,0.7       s0.3,0.6,0.8,0.6s1.1-0.4,1.1-1l0,0V545.3z"
   id="path116" />
					<path
   class="st3"
   d="M780.8,540.6c0-0.4,0.3-0.7,0.8-0.7s0.8,0.3,0.8,0.7s-0.3,0.7-0.8,0.7S780.8,541,780.8,540.6z        M780.8,546.5v-4c0-0.5,0.3-0.8,0.7-0.8s0.7,0.3,0.7,0.8v4c0,0.5-0.3,0.7-0.7,0.7S780.8,546.9,780.8,546.5z"
   id="path117" />
					<path
   class="st3"
   d="M783.2,546.5v-4c0-0.4,0.3-0.7,0.7-0.7s0.7,0.3,0.7,0.7v0.3l0,0c0.3-0.7,0.8-1,1.6-1c1.2,0,1.8,0.7,1.8,2       v2.7c0,0.5-0.3,0.7-0.7,0.7s-0.7-0.2-0.7-0.7v-2.4c0-0.7-0.3-1.1-1-1.1s-1,0.5-1,1.2v2.4c0,0.5-0.3,0.7-0.7,0.7       s-0.7-0.2-0.7-0.7l0,0L783.2,546.5z"
   id="path118" />
					<path
   class="st3"
   d="M551.1,533.8v-0.5l1.9-5.2c0.2-0.6,0.5-0.8,1.1-0.8s0.9,0.2,1.1,0.8l1.9,5.2v0.5c0,0.4-0.3,0.7-0.7,0.7       s-0.6-0.2-0.8-0.7l-0.4-1.1h-2.5l-0.4,1.1c0,0.5-0.4,0.7-0.8,0.7s-0.8-0.3-0.8-0.7H551.1z M555.2,531.6l-0.9-2.9l0,0l-0.9,2.9       H555.2L555.2,531.6L555.2,531.6z"
   id="path119" />
					<path
   class="st3"
   d="M560.2,533.2v-0.4c0-0.4,0.3-0.7,0.7-0.7s0.5,0,0.7,0.4c0.2,0.5,0.8,0.8,1.5,0.8s1.3-0.4,1.3-0.9       s-0.3-0.7-1.2-0.9l-0.8-0.2c-1.4-0.3-2.1-1-2.1-2s1.1-2.1,2.7-2.1s2.3,0.5,2.6,1.5v0.3c0,0.3-0.2,0.6-0.6,0.6s-0.5,0-0.7-0.4       c-0.2-0.5-0.7-0.8-1.3-0.8s-1.2,0.3-1.2,0.9s0.3,0.7,1.2,0.9l0.7,0.2c1.5,0.3,2.1,0.9,2.1,2s-1.1,2.2-2.8,2.2s-2.4-0.6-2.7-1.3       L560.2,533.2L560.2,533.2z"
   id="path120" />
					<path
   class="st3"
   d="M566.5,533.8V528c0-0.5,0.3-0.7,0.7-0.7s0.7,0.3,0.7,0.7v2.1l0,0c0.3-0.7,0.8-1,1.7-1s1.8,0.8,1.8,2v2.7       c0,0.5-0.3,0.7-0.7,0.7s-0.7-0.2-0.7-0.7v-2.4c0-0.7-0.3-1.1-1-1.1s-1.1,0.5-1.1,1.2v2.3c0,0.5-0.3,0.7-0.7,0.7       S566.5,534.3,566.5,533.8L566.5,533.8z"
   id="path121" />
					<path
   class="st3"
   d="M572.1,531.8c0-1.7,1-2.7,2.6-2.7s2.6,1,2.6,2.7s-1,2.7-2.6,2.7S572.1,533.5,572.1,531.8z M575.8,531.8       c0-1-0.5-1.6-1.1-1.6s-1.2,0.6-1.2,1.6s0.4,1.6,1.2,1.6S575.8,532.8,575.8,531.8z"
   id="path122" />
					<path
   class="st3"
   d="M578,533.8v-4c0-0.5,0.3-0.7,0.7-0.7s0.7,0.3,0.7,0.7v0.3l0,0c0-0.7,0.6-1,1.1-1s0.3,0,0.4,0       c0,0,0.2,0.3,0.2,0.5s0,0.4-0.2,0.5s-0.3,0.2-0.6,0.2c-0.7,0-0.9,0.4-0.9,1v2.3c0,0.5-0.3,0.7-0.7,0.7s-0.7-0.3-0.7-0.7l0,0       V533.8z"
   id="path123" />
					<path
   class="st3"
   d="M582,530.3h-0.3c-0.3,0-0.5-0.2-0.5-0.5s0.2-0.5,0.5-0.5h0.3v-0.6c0-0.5,0.3-0.7,0.7-0.7s0.7,0.3,0.7,0.7       v0.6h0.5c0.3,0,0.5,0.2,0.5,0.5s-0.2,0.5-0.5,0.5h-0.5v2.5c0,0.4,0,0.5,0.4,0.5l0,0c0.3,0,0.5,0.2,0.5,0.5s-0.4,0.6-1,0.6l0,0       c-1,0-1.4-0.5-1.4-1.4v-2.8l0,0L582,530.3z"
   id="path124" />
					<path
   class="st3"
   d="M503.4,318.3v-3.9c0-0.5,0.3-0.8,0.7-0.8s0.7,0.3,0.7,0.8v3.7c0,0.9,0.5,1.5,1.5,1.5s1.5-0.6,1.5-1.5v-3.7       c0-0.5,0.3-0.8,0.7-0.8s0.7,0.3,0.7,0.8v3.9c0,1.5-1.1,2.6-3,2.6s-3-1-3-2.6H503.4L503.4,318.3L503.4,318.3z"
   id="path125" />
					<path
   class="st3"
   d="M512.5,320.1v-5.7c0-0.5,0.3-0.8,0.7-0.8s0.7,0.3,0.7,0.8v2.2h3.2v-2.2c0-0.5,0.3-0.8,0.7-0.8       s0.7,0.3,0.7,0.8v5.7c0,0.5-0.3,0.8-0.7,0.8s-0.7-0.3-0.7-0.8v-2.3h-3.2v2.3c0,0.5-0.3,0.8-0.7,0.8S512.5,320.6,512.5,320.1z"
   id="path126" />
					<path
   class="st3"
   d="M519.3,319.3c0-1,0.7-1.5,2-1.6h1.3v-0.4c0-0.5-0.3-0.8-0.9-0.8s-0.7,0.1-1,0.5c-0.2,0.2-0.3,0.3-0.6,0.3       s-0.6-0.2-0.6-0.5v-0.3c0.2-0.6,1.1-1,2.2-1s2.2,0.7,2.2,1.8v3c0,0.5-0.3,0.7-0.7,0.7s-0.7-0.2-0.7-0.6v-0.3l0,0       c-0.3,0.6-1,0.9-1.6,0.9c-1,0-1.8-0.6-1.8-1.6h0.2l0,0L519.3,319.3z M522.7,318.9v-0.4h-1.1c-0.5,0.1-0.8,0.4-0.8,0.7       s0.3,0.6,0.8,0.6S522.7,319.4,522.7,318.9L522.7,318.9L522.7,318.9z"
   id="path127" />
					<path
   class="st3"
   d="M525.1,320.2v-5.8c0-0.5,0.3-0.8,0.7-0.8s0.7,0.3,0.7,0.8v5.8c0,0.5-0.3,0.7-0.7,0.7       S525.1,320.7,525.1,320.2z"
   id="path128" />
					<path
   class="st3"
   d="M527.5,320.2v-5.8c0-0.5,0.3-0.8,0.7-0.8s0.7,0.3,0.7,0.8v5.8c0,0.5-0.3,0.7-0.7,0.7       S527.5,320.7,527.5,320.2z"
   id="path129" />
					<path
   class="st3"
   d="M671.4,205v-5.7c0-0.5,0.3-0.8,0.7-0.8s0.7,0.3,0.7,0.8v2.2h3.2v-2.2c0-0.5,0.3-0.8,0.7-0.8       s0.7,0.3,0.7,0.8v5.7c0,0.5-0.3,0.8-0.7,0.8s-0.7-0.3-0.7-0.8v-2.3h-3.2v2.3c0,0.5-0.3,0.8-0.7,0.8S671.4,205.5,671.4,205z"
   id="path130" />
					<path
   class="st3"
   d="M678.4,203.1c0-1.7,1-2.8,2.5-2.8s2.5,1,2.5,2.4s-0.2,0.6-0.6,0.6h-3c0,0.8,0.5,1.3,1.2,1.3       s0.9-0.2,1.2-0.6c0.2-0.2,0.3-0.2,0.5-0.2c0.3,0,0.6,0.2,0.6,0.5v0.4c-0.3,0.6-1.2,1-2.2,1c-1.6,0-2.6-1-2.6-2.7h-0.1       L678.4,203.1z M682,202.5c0-0.7-0.5-1.1-1.1-1.1s-1.1,0.5-1.1,1.1H682L682,202.5L682,202.5z"
   id="path131" />
					<path
   class="st3"
   d="M683.9,204.1c0-0.9,0.7-1.5,2-1.6h1.3v-0.4c0-0.5-0.3-0.8-0.9-0.8s-0.7,0.1-1,0.6       c-0.2,0.2-0.3,0.3-0.6,0.3s-0.6-0.2-0.6-0.6s0-0.2,0-0.3c0.2-0.6,1.1-1,2.2-1s2.2,0.7,2.2,1.8v3c0,0.5-0.3,0.7-0.7,0.7       s-0.7-0.2-0.7-0.6v-0.3l0,0c-0.3,0.6-1,0.9-1.6,0.9c-1,0-1.8-0.6-1.8-1.6L683.9,204.1L683.9,204.1L683.9,204.1z M687.3,203.7       v-0.4h-1.1c-0.5,0.1-0.8,0.4-0.8,0.7s0.3,0.6,0.8,0.6S687.3,204.2,687.3,203.7L687.3,203.7L687.3,203.7z"
   id="path132" />
					<path
   class="st3"
   d="M690.7,205l-1.4-3.6V201c0-0.4,0.3-0.6,0.7-0.6s0.6,0.2,0.7,0.6l1.1,3.5l0,0l1.1-3.5       c0-0.4,0.3-0.6,0.7-0.6s0.7,0.3,0.7,0.6v0.4l-1.4,3.7c-0.2,0.5-0.5,0.7-1,0.7s-0.8-0.2-1-0.7L690.7,205L690.7,205L690.7,205z"
   id="path133" />
					<path
   class="st3"
   d="M694.5,203.1c0-1.7,1-2.8,2.5-2.8s2.5,1,2.5,2.4s-0.2,0.6-0.6,0.6h-3c0,0.8,0.5,1.3,1.2,1.3       s0.9-0.2,1.2-0.6c0.2-0.2,0.3-0.2,0.5-0.2c0.3,0,0.6,0.2,0.6,0.5v0.4c-0.3,0.6-1.2,1-2.2,1c-1.6,0-2.6-1-2.6-2.7h-0.1       L694.5,203.1z M698.2,202.5c0-0.7-0.5-1.1-1.1-1.1s-1.1,0.5-1.1,1.1H698.2L698.2,202.5L698.2,202.5z"
   id="path134" />
					<path
   class="st3"
   d="M700.2,205v-4c0-0.4,0.3-0.7,0.7-0.7s0.7,0.3,0.7,0.7v0.3l0,0c0.3-0.6,0.8-1,1.6-1c1.2,0,1.8,0.7,1.8,2       v2.7c0,0.5-0.3,0.7-0.7,0.7s-0.7-0.2-0.7-0.7v-2.4c0-0.7-0.3-1.1-1-1.1s-1,0.5-1,1.1v2.4c0,0.5-0.3,0.7-0.7,0.7       S700.2,205.5,700.2,205L700.2,205L700.2,205z"
   id="path135" />
					<path
   class="st3"
   d="M443.6,529.8v-5.6c0-0.6,0.4-1,1-1s0.8,0.2,1,0.8l1.8,4.3l0,0l1.7-4.3c0.2-0.5,0.5-0.8,1-0.8s1,0.3,1,1       v5.6c0,0.4-0.2,0.7-0.7,0.7s-0.6-0.2-0.6-0.7v-4.2l0,0l-1.7,4.3c-0.1,0.3-0.3,0.5-0.6,0.5s-0.5,0-0.6-0.4l-1.7-4.3l0,0v4.2       c0,0.4-0.2,0.7-0.6,0.7s-0.7-0.2-0.7-0.7L443.6,529.8L443.6,529.8L443.6,529.8z"
   id="path136" />
					<path
   class="st3"
   d="M451.8,528.9c0-1,0.7-1.5,2-1.6h1.3v-0.4c0-0.5-0.3-0.8-0.9-0.8s-0.7,0-1,0.5c-0.2,0.2-0.3,0.3-0.6,0.3       s-0.6-0.2-0.6-0.5v-0.3c0.2-0.6,1.1-1,2.2-1s2.2,0.7,2.2,1.8v3c0,0.5-0.3,0.7-0.7,0.7s-0.6-0.2-0.7-0.6v-0.3l0,0       c-0.3,0.6-1,0.9-1.6,0.9c-1,0-1.8-0.6-1.8-1.6h0.2V528.9z M455.2,528.5v-0.4h-1.1c-0.5,0-0.8,0.4-0.8,0.7s0.3,0.6,0.8,0.6       s1.1-0.4,1.1-1l0,0V528.5z"
   id="path137" />
					<path
   class="st3"
   d="M457.5,529.7v-4c0-0.5,0.3-0.7,0.7-0.7s0.7,0.3,0.7,0.7v0.3l0,0c0.1-0.7,0.6-1,1.1-1s0.3,0,0.4,0       s0.2,0.3,0.2,0.5s0,0.4-0.2,0.5s-0.3,0.2-0.6,0.2c-0.6,0-0.9,0.4-0.9,1v2.3c0,0.5-0.3,0.7-0.7,0.7s-0.7-0.3-0.7-0.7l0,0V529.7z       "
   id="path138" />
					<path
   class="st3"
   d="M461.2,529.7v-5.8c0-0.5,0.3-0.8,0.7-0.8s0.7,0.3,0.7,0.8v3.2l0,0l1.9-1.9c0.2-0.2,0.4-0.3,0.6-0.3       c0.4,0,0.6,0.3,0.6,0.6s0,0.3-0.3,0.5l-1.3,1.3l1.5,1.9c0.2,0.2,0.2,0.3,0.2,0.5c0,0.4-0.3,0.6-0.7,0.6s-0.5,0-0.7-0.4       l-1.3-1.8l-0.5,0.4v1.1c0,0.5-0.3,0.7-0.7,0.7s-0.7-0.2-0.7-0.7l0,0L461.2,529.7z"
   id="path139" />
					<path
   class="st3"
   d="M466.1,527.8c0-1.7,1-2.8,2.5-2.8s2.5,1,2.5,2.4s-0.2,0.6-0.6,0.6h-3c0,0.8,0.5,1.3,1.2,1.3       s0.9-0.2,1.2-0.6c0.1-0.2,0.3-0.2,0.5-0.2c0.3,0,0.6,0.2,0.6,0.5s0,0.2-0.1,0.3c-0.4,0.6-1.2,1-2.2,1c-1.6,0-2.6-1-2.6-2.7l0,0       V527.8z M469.7,527.2c0-0.7-0.5-1.1-1.1-1.1s-1.1,0.5-1.1,1.1H469.7z"
   id="path140" />
					<path
   class="st3"
   d="M472.2,526.2h-0.3c-0.3,0-0.5-0.2-0.5-0.5s0.2-0.5,0.5-0.5h0.3v-0.6c0-0.5,0.3-0.7,0.7-0.7       s0.7,0.3,0.7,0.7v0.6h0.5c0.3,0,0.5,0.2,0.5,0.5s-0.2,0.5-0.5,0.5h-0.5v2.5c0,0.4,0.1,0.5,0.4,0.5l0,0c0.4,0,0.5,0.2,0.5,0.5       s-0.4,0.6-1,0.6l0,0c-1,0-1.4-0.5-1.4-1.4v-2.8l0,0L472.2,526.2z"
   id="path141" />
					<path
   class="st3"
   d="M506.3,738c0-2.3,1.3-3.6,3.3-3.6s2.3,0.6,2.8,1.6c0,0.2,0.2,0.4,0.2,0.5c0,0.4-0.3,0.6-0.6,0.6       s-0.5-0.2-0.7-0.5c-0.3-0.7-0.9-1.1-1.6-1.1c-1.1,0-1.8,0.9-1.8,2.4s0.7,2.4,1.8,2.4s1.3-0.3,1.6-1c0.1-0.3,0.3-0.5,0.6-0.5       c0.3,0,0.7,0.3,0.7,0.7v0.5c-0.4,1-1.5,1.6-2.8,1.6c-2.1,0-3.4-1.4-3.4-3.6L506.3,738L506.3,738z"
   id="path142" />
					<path
   class="st3"
   d="M513.3,740c0-1,0.7-1.5,2-1.6h1.3V738c0-0.5-0.3-0.8-0.9-0.8s-0.7,0-1,0.5c-0.2,0.2-0.3,0.3-0.6,0.3       s-0.6-0.2-0.6-0.5v-0.3c0.2-0.6,1.1-1,2.2-1s2.2,0.7,2.2,1.8v3c0,0.5-0.3,0.7-0.7,0.7s-0.7-0.2-0.7-0.6v-0.3l0,0       c-0.3,0.6-1,0.9-1.6,0.9c-1,0-1.8-0.6-1.8-1.6h0.2l0,0L513.3,740z M516.6,739.5v-0.4h-1.1c-0.5,0-0.8,0.4-0.8,0.7       s0.3,0.6,0.8,0.6s1.1-0.4,1.1-1l0,0V739.5z"
   id="path143" />
					<path
   class="st3"
   d="M520.1,740.8l-1.4-3.7v-0.4c0-0.4,0.3-0.6,0.7-0.6s0.6,0.2,0.7,0.6l1.1,3.5l0,0l1.1-3.5       c0-0.4,0.3-0.6,0.7-0.6s0.7,0.3,0.7,0.6v0.4l-1.4,3.7c-0.2,0.5-0.5,0.7-1,0.7s-0.8-0.2-1-0.7H520.1L520.1,740.8L520.1,740.8z"
   id="path144" />
					<path
   class="st3"
   d="M523.9,738.9c0-1.7,1-2.8,2.5-2.8s2.5,1,2.5,2.4s-0.2,0.6-0.6,0.6h-3c0,0.8,0.5,1.3,1.2,1.3       s0.9-0.2,1.2-0.6c0.2-0.2,0.3-0.2,0.5-0.2c0.3,0,0.6,0.2,0.6,0.5v0.3c-0.3,0.6-1.2,1-2.2,1c-1.6,0-2.6-1-2.6-2.7l0,0v0.2H523.9       L523.9,738.9z M527.5,738.3c0-0.7-0.5-1.1-1.1-1.1s-1.1,0.5-1.1,1.1H527.5L527.5,738.3L527.5,738.3z"
   id="path145" />
					<path
   class="st3"
   d="M506.3,738c0-2.3,1.3-3.6,3.3-3.6s2.3,0.6,2.8,1.6c0,0.2,0.2,0.4,0.2,0.5c0,0.4-0.3,0.6-0.6,0.6       s-0.5-0.2-0.7-0.5c-0.3-0.7-0.9-1.1-1.6-1.1c-1.1,0-1.8,0.9-1.8,2.4s0.7,2.4,1.8,2.4s1.3-0.3,1.6-1c0.1-0.3,0.3-0.5,0.6-0.5       c0.3,0,0.7,0.3,0.7,0.7v0.5c-0.4,1-1.5,1.6-2.8,1.6c-2.1,0-3.4-1.4-3.4-3.6L506.3,738L506.3,738z"
   id="path146" />
					<path
   class="st3"
   d="M513.3,740c0-1,0.7-1.5,2-1.6h1.3V738c0-0.5-0.3-0.8-0.9-0.8s-0.7,0-1,0.5c-0.2,0.2-0.3,0.3-0.6,0.3       s-0.6-0.2-0.6-0.5v-0.3c0.2-0.6,1.1-1,2.2-1s2.2,0.7,2.2,1.8v3c0,0.5-0.3,0.7-0.7,0.7s-0.7-0.2-0.7-0.6v-0.3l0,0       c-0.3,0.6-1,0.9-1.6,0.9c-1,0-1.8-0.6-1.8-1.6h0.2l0,0L513.3,740z M516.6,739.5v-0.4h-1.1c-0.5,0-0.8,0.4-0.8,0.7       s0.3,0.6,0.8,0.6s1.1-0.4,1.1-1l0,0V739.5z"
   id="path147" />
					<path
   class="st3"
   d="M520.1,740.8l-1.4-3.7v-0.4c0-0.4,0.3-0.6,0.7-0.6s0.6,0.2,0.7,0.6l1.1,3.5l0,0l1.1-3.5       c0-0.4,0.3-0.6,0.7-0.6s0.7,0.3,0.7,0.6v0.4l-1.4,3.7c-0.2,0.5-0.5,0.7-1,0.7s-0.8-0.2-1-0.7H520.1L520.1,740.8L520.1,740.8z"
   id="path148" />
					<path
   class="st3"
   d="M523.9,738.9c0-1.7,1-2.8,2.5-2.8s2.5,1,2.5,2.4s-0.2,0.6-0.6,0.6h-3c0,0.8,0.5,1.3,1.2,1.3       s0.9-0.2,1.2-0.6c0.2-0.2,0.3-0.2,0.5-0.2c0.3,0,0.6,0.2,0.6,0.5v0.3c-0.3,0.6-1.2,1-2.2,1c-1.6,0-2.6-1-2.6-2.7l0,0v0.2H523.9       L523.9,738.9z M527.5,738.3c0-0.7-0.5-1.1-1.1-1.1s-1.1,0.5-1.1,1.1H527.5L527.5,738.3L527.5,738.3z"
   id="path149" />
					
					
					<path
   class="st3"
   d="M663,616.5V616l1.9-5.2c0.2-0.6,0.5-0.8,1.1-0.8s0.9,0.2,1.1,0.8l1.9,5.2v0.5c0,0.4-0.3,0.7-0.7,0.7       s-0.6-0.2-0.8-0.7l-0.4-1.1h-2.5l-0.4,1.1c0,0.5-0.4,0.7-0.8,0.7s-0.8-0.3-0.8-0.7H663z M667.1,614.2l-0.9-2.9l0,0l-0.9,2.9       H667.1L667.1,614.2L667.1,614.2z"
   id="path152" />
					<path
   class="st3"
   d="M672.2,616.3v-5.6c0-0.5,0.3-0.8,0.7-0.8s0.7,0.3,0.7,0.8v5.2h2.5c0.4,0,0.7,0.2,0.7,0.6s-0.3,0.6-0.7,0.6       h-3.2C672.4,617.1,672.2,616.8,672.2,616.3z"
   id="path153" />
					<path
   class="st3"
   d="M677.2,614.4c0-1.7,1-2.7,2.6-2.7s2.6,1,2.6,2.7s-1,2.7-2.6,2.7S677.2,616.1,677.2,614.4z M681,614.4       c0-1-0.5-1.6-1.1-1.6s-1.2,0.6-1.2,1.6s0.4,1.6,1.2,1.6S681,615.4,681,614.4z"
   id="path154" />
					<path
   class="st3"
   d="M683.2,616.4v-5.8c0-0.5,0.3-0.8,0.7-0.8s0.7,0.3,0.7,0.8v2.1l0,0c0.3-0.6,0.9-1,1.6-1       c1.3,0,2.1,1,2.1,2.7s-0.8,2.7-2.1,2.7s-1.3-0.4-1.6-1l0,0v0.3c0,0.5-0.3,0.7-0.7,0.7S683.2,616.9,683.2,616.4L683.2,616.4z        M686.9,614.4c0-1-0.4-1.6-1.2-1.6s-1.2,0.6-1.2,1.6s0.5,1.5,1.2,1.5S686.9,615.3,686.9,614.4z"
   id="path155" />
					<path
   class="st3"
   d="M689.2,616.4v-5.8c0-0.5,0.3-0.8,0.7-0.8s0.7,0.3,0.7,0.8v2.1l0,0c0.3-0.6,0.9-1,1.6-1       c1.3,0,2.1,1,2.1,2.7s-0.8,2.7-2.1,2.7s-1.3-0.4-1.6-1l0,0v0.3c0,0.5-0.3,0.7-0.7,0.7S689.2,616.9,689.2,616.4L689.2,616.4z        M692.9,614.4c0-1-0.4-1.6-1.2-1.6s-1.2,0.6-1.2,1.6s0.5,1.5,1.2,1.5S692.9,615.3,692.9,614.4z"
   id="path156" />
					<path
   class="st3"
   d="M694.9,618.3c0-0.3,0.2-0.5,0.5-0.5h0.2c0.2,0,0.5,0,0.7-0.5v-0.2l-1.6-4.4v-0.4c0-0.4,0.3-0.7,0.7-0.7       s0.6,0.2,0.7,0.6l1.1,3.6l0,0l1.1-3.6c0-0.4,0.3-0.6,0.7-0.6s0.7,0.3,0.7,0.6v0.4l-1.6,4.4c-0.5,1.3-1.1,1.8-2.2,1.8       s-1-0.2-1-0.7l0,0L694.9,618.3L694.9,618.3L694.9,618.3z"
   id="path157" />
					<path
   class="st3"
   d="M90.6,495.6v-5.5c0-0.5,0.3-0.8,0.7-0.8h2.3c1.3,0,2.2,0.7,2.2,1.8s-0.6,1.4-1.3,1.5l0,0       c1,0.1,1.7,0.8,1.7,1.7s-0.9,2-2.4,2h-2.4C90.9,496.3,90.7,496,90.6,495.6L90.6,495.6L90.6,495.6z M93.1,492.3       c0.8,0,1.2-0.4,1.2-0.9s-0.4-0.9-1.1-0.9H92v1.8H93.1z M93.3,495.3c0.8,0,1.3-0.4,1.3-1s-0.5-1-1.3-1h-1.2v2h1.3       C93.4,495.3,93.3,495.3,93.3,495.3z"
   id="path158" />
					<path
   class="st3"
   d="M99,495.6V490c0-0.5,0.3-0.8,0.7-0.8s0.7,0.3,0.7,0.8v5.1h2.5c0.4,0,0.7,0.2,0.7,0.6s-0.3,0.6-0.7,0.6       h-3.2C99.2,496.3,99,496,99,495.6L99,495.6L99,495.6z"
   id="path159" />
					<path
   class="st3"
   d="M104,493.8c0-1.7,1-2.7,2.6-2.7s2.6,1,2.6,2.7s-1,2.7-2.6,2.7S104,495.5,104,493.8z M107.8,493.8       c0-1-0.4-1.6-1.1-1.6s-1.2,0.6-1.2,1.6s0.4,1.6,1.2,1.6S107.8,494.8,107.8,493.8z"
   id="path160" />
					<path
   class="st3"
   d="M109.9,495.8v-4c0-0.4,0.3-0.7,0.7-0.7s0.7,0.3,0.7,0.7v0.3l0,0c0.3-0.6,0.8-1,1.6-1c1.2,0,1.8,0.7,1.8,2       v2.7c0,0.5-0.3,0.7-0.7,0.7s-0.7-0.2-0.7-0.7v-2.4c0-0.7-0.3-1.1-1-1.1s-1,0.5-1,1.1v2.4c0,0.5-0.3,0.7-0.7,0.7       S109.9,496.3,109.9,495.8L109.9,495.8z"
   id="path161" />
					<path
   class="st3"
   d="M115.8,497.4V497c0-0.3,0.2-0.5,0.6-0.5s0.3,0,0.5,0.2c0.4,0.4,0.8,0.6,1.2,0.6c0.8,0,1.2-0.4,1.2-1.1       v-0.8l0,0c-0.2,0.6-0.8,0.9-1.6,0.9c-1.3,0-2.1-1-2.1-2.6s0.8-2.6,2.2-2.6s1.3,0.4,1.6,1l0,0v-0.3c0-0.5,0.3-0.7,0.7-0.7       s0.7,0.2,0.7,0.7v4.4c0,1.4-1,2.2-2.7,2.2S116.2,498,115.8,497.4L115.8,497.4L115.8,497.4z M119.3,493.7c0-0.9-0.5-1.5-1.2-1.5       s-1.2,0.6-1.2,1.5s0.4,1.5,1.2,1.5S119.3,494.6,119.3,493.7z"
   id="path162" />
				</g>
				
					<linearGradient
   id="SVGID_1_"
   gradientUnits="userSpaceOnUse"
   x1="-857.8137"
   y1="1107.5485"
   x2="-856.8137"
   y2="1107.5485"
   gradientTransform="matrix(20.4 0 0 -6.2 17815.5 7435.7002)">
					<stop
   offset="0"
   style="stop-color:#F00000"
   id="stop162" />
					<stop
   offset="1"
   style="stop-color:#DC281E"
   id="stop163" />
				</linearGradient>
				
				
					<linearGradient
   id="SVGID_00000175315990557098680550000002305793220538902189_"
   gradientUnits="userSpaceOnUse"
   x1="-754.0328"
   y1="1037.3176"
   x2="-753.0328"
   y2="1037.3176"
   gradientTransform="matrix(6.1 0 0 -36.2 4821.1001 38214)">
					<stop
   offset="0"
   style="stop-color:#F00000"
   id="stop164" />
					<stop
   offset="1"
   style="stop-color:#DC281E"
   id="stop165" />
				</linearGradient>
				
					
				
					<linearGradient
   id="SVGID_00000076593030528902570300000016102343345794658737_"
   gradientUnits="userSpaceOnUse"
   x1="-754.0328"
   y1="1051.6855"
   x2="-753.0328"
   y2="1051.6855"
   gradientTransform="matrix(6.1 0 0 -16.7 5089.5 18081)">
					<stop
   offset="0"
   style="stop-color:#F00000"
   id="stop166" />
					<stop
   offset="1"
   style="stop-color:#DC281E"
   id="stop167" />
				</linearGradient>
				
					
				
					<linearGradient
   id="SVGID_00000164501628913390603930000002462731784339388091_"
   gradientUnits="userSpaceOnUse"
   x1="-870.564"
   y1="1107.5323"
   x2="-869.564"
   y2="1107.5323"
   gradientTransform="matrix(28.8 0 0 -6.2 25675.1016 7452.6001)">
					<stop
   offset="0"
   style="stop-color:#F00000"
   id="stop168" />
					<stop
   offset="1"
   style="stop-color:#DC281E"
   id="stop169" />
				</linearGradient>
				
					
				
					<linearGradient
   id="SVGID_00000126310755946755259360000016081031622469863871_"
   gradientUnits="userSpaceOnUse"
   x1="-754.0328"
   y1="1034.4025"
   x2="-753.0328"
   y2="1034.4025"
   gradientTransform="matrix(6.1 0 0 -52.3 5300.1006 54714.3008)">
					<stop
   offset="0"
   style="stop-color:#F00000"
   id="stop170" />
					<stop
   offset="1"
   style="stop-color:#DC281E"
   id="stop171" />
				</linearGradient>
				
					
				
					<linearGradient
   id="SVGID_00000106106795085236217540000015235812161022398096_"
   gradientUnits="userSpaceOnUse"
   x1="-866.7685"
   y1="1110.0485"
   x2="-865.7685"
   y2="1110.0485"
   gradientTransform="matrix(25.7 0 0 -6.2 22414.7969 7269.5)">
					<stop
   offset="0"
   style="stop-color:#396AFC"
   id="stop172" />
					<stop
   offset="1"
   style="stop-color:#2948FF"
   id="stop173" />
				</linearGradient>
				
					
				
					<linearGradient
   id="SVGID_00000083792267219674261710000016688715304722831244_"
   gradientUnits="userSpaceOnUse"
   x1="-882.9026"
   y1="864.2678"
   x2="-882.0026"
   y2="864.2678"
   gradientTransform="matrix(4.223631e-02 -24.2 -6.2001 7.365327e-02 5655.9189 -20981.0137)">
					<stop
   offset="0"
   style="stop-color:#396AFC"
   id="stop174" />
					<stop
   offset="1"
   style="stop-color:#2948FF"
   id="stop175" />
				</linearGradient>
				
				
					<linearGradient
   id="SVGID_00000170961650621921007610000006008729350615023234_"
   gradientUnits="userSpaceOnUse"
   x1="-876.6978"
   y1="1117.1779"
   x2="-875.6978"
   y2="1117.1779"
   gradientTransform="matrix(35.6 0 0 -5.9 31727.4004 7020.2998)">
					<stop
   offset="0"
   style="stop-color:#396AFC"
   id="stop176" />
					<stop
   offset="1"
   style="stop-color:#2948FF"
   id="stop177" />
				</linearGradient>
				
					
				
					<linearGradient
   id="SVGID_00000088829328935405943660000013594296042944760498_"
   gradientUnits="userSpaceOnUse"
   x1="-864.6133"
   y1="1117.178"
   x2="-863.6133"
   y2="1117.178"
   gradientTransform="matrix(24.1 0 0 -5.9 21504.8008 6992.2002)">
					<stop
   offset="0"
   style="stop-color:#396AFC"
   id="stop178" />
					<stop
   offset="1"
   style="stop-color:#2948FF"
   id="stop179" />
				</linearGradient>
				
					
			</g>
		</g>
	</g>
</g>
</svg>
