<?xml version="1.0" encoding="UTF-8" standalone="no"?>
<!-- Generator: Adobe Illustrator 27.9.5, SVG Export Plug-In . SVG Version: 9.03 Build 54986)  -->

<svg
   version="1.1"
   id="Layer_1"
   x="0px"
   y="0px"
   viewBox="0 0 918.9 967.1"
   style="enable-background:new 0 0 918.9 967.1;"
   xml:space="preserve"
   sodipodi:docname="bind_calls_reverse.svg"
   inkscape:version="1.4.2 (f4327f4, 2025-05-13)"
   xmlns:inkscape="http://www.inkscape.org/namespaces/inkscape"
   xmlns:sodipodi="http://sodipodi.sourceforge.net/DTD/sodipodi-0.dtd"
   xmlns="http://www.w3.org/2000/svg"
   xmlns:svg="http://www.w3.org/2000/svg"><defs
   id="defs179" /><sodipodi:namedview
   id="namedview179"
   pagecolor="#505050"
   bordercolor="#eeeeee"
   borderopacity="1"
   inkscape:showpageshadow="0"
   inkscape:pageopacity="0"
   inkscape:pagecheckerboard="0"
   inkscape:deskcolor="#505050"
   showgrid="false"
   inkscape:zoom="1.1800955"
   inkscape:cx="506.73864"
   inkscape:cy="502.92539"
   inkscape:window-width="1920"
   inkscape:window-height="1009"
   inkscape:window-x="1912"
   inkscape:window-y="-8"
   inkscape:window-maximized="1"
   inkscape:current-layer="Layer_1-2"><inkscape:grid
     id="grid179"
     units="px"
     originx="0"
     originy="0"
     spacingx="0.99999997"
     spacingy="1"
     empcolor="#0099e5"
     empopacity="0.30196078"
     color="#0099e5"
     opacity="0.14902"
     empspacing="5"
     enabled="true"
     visible="false" /></sodipodi:namedview>
<style
   type="text/css"
   id="style1">
	.st0{fill:#3D3D3D;}
	.st1{fill:#535353;}
	.st2{fill:#7E7F7E;}
	.st3{fill:#FFFFFF;}
	.st4{fill:none;stroke:#B0ADB0;stroke-miterlimit:10;}
	.st5{fill:#FFFFFF;stroke:#FFFFFF;stroke-miterlimit:10;}
	.st6{fill:#37A794;}
	.st7{fill:#5BDFC5;}
	.st8{display:none;fill:url(#SVGID_1_);}
	.st9{display:none;fill:url(#SVGID_00000067930115331501619090000007654850229749386917_);}
	.st10{display:none;fill:url(#SVGID_00000170244634594021906370000002810943544625919876_);}
	.st11{display:none;fill:url(#SVGID_00000125563849518992668460000000672793488437863825_);}
	.st12{display:none;fill:url(#SVGID_00000094593369779340343620000007272530430429514425_);}
	.st13{display:none;fill:url(#SVGID_00000056427361104529726220000009468197514854341050_);}
	.st14{display:none;fill:url(#SVGID_00000005946798495444204400000012648735730485352329_);}
	.st15{display:none;fill:url(#SVGID_00000036224035175438591790000006346300785765728901_);}
	.st16{display:none;fill:url(#SVGID_00000126289565646323600910000014279206778379376271_);}
</style>
<g
   id="g179"
   transform="rotate(180,459.45,482.95741)">
	<g
   id="Layer_1_00000037658078192712101640000011686730844143572904_">
		<g
   id="Layer_1-2_00000076562044785031875360000000688980036478422932_">
			<g
   id="Layer_1-2">
				
				
				
				
				
				
				<g
   id="Callouts_copy">
					<path
   class="st3"
   d="m 564.6,894.4 c 0,0.2 0,0.4 -0.1,0.6 l -2.5,6.8 c -0.3,0.7 -0.7,1.1 -1.4,1.1 -0.7,0 -1.2,-0.3 -1.5,-1.1 l -2.5,-6.8 c 0,-0.2 -0.1,-0.4 -0.1,-0.6 0,-0.5 0.4,-0.9 1,-0.9 0.6,0 0.8,0.2 1,0.8 l 0.5,1.5 h 3.3 l 0.5,-1.4 c 0.2,-0.6 0.5,-0.9 1,-0.9 0.5,0 1,0.3 1,0.9 z m -5.3,2.9 1.2,3.8 v 0 l 1.2,-3.8 z"
   id="path53" />
					<path
   class="st3"
   d="m 555.4,899.1 h 0.4 c 0.4,0 0.7,0.3 0.7,0.7 0,0.4 -0.3,0.7 -0.7,0.7 h -0.4 v 0.8 c 0,0.6 -0.4,1 -0.9,1 -0.5,0 -0.9,-0.4 -0.9,-1 v -0.8 H 553 c -0.4,0 -0.7,-0.3 -0.7,-0.7 0,-0.4 0.3,-0.7 0.7,-0.7 h 0.6 v -3.3 c 0,-0.5 -0.2,-0.7 -0.6,-0.7 h -0.1 c -0.5,0 -0.7,-0.2 -0.7,-0.7 0,-0.5 0.5,-0.8 1.3,-0.8 v 0 c 1.2,0 1.9,0.6 1.9,1.8 z"
   id="path54" />
					<path
   class="st3"
   d="m 550.8,899.1 h 0.4 c 0.4,0 0.7,0.3 0.7,0.7 0,0.4 -0.3,0.7 -0.7,0.7 h -0.4 v 0.8 c 0,0.6 -0.4,1 -0.9,1 -0.5,0 -0.9,-0.4 -0.9,-1 v -0.8 h -0.6 c -0.4,0 -0.7,-0.3 -0.7,-0.7 0,-0.4 0.3,-0.7 0.7,-0.7 h 0.6 v -3.3 c 0,-0.5 -0.2,-0.7 -0.6,-0.7 h -0.1 c -0.5,0 -0.7,-0.2 -0.7,-0.7 0,-0.5 0.5,-0.8 1.3,-0.8 v 0 c 1.2,0 1.9,0.6 1.9,1.8 z"
   id="path55" />
					<path
   class="st3"
   d="m 547,895.6 c 0,1.2 -1,2 -2.6,2.1 h -1.7 v 0.5 c 0,0.6 0.5,1 1.1,1 0.6,0 0.9,-0.2 1.3,-0.7 0.2,-0.2 0.4,-0.3 0.7,-0.3 0.5,0 0.8,0.3 0.8,0.7 0,0.4 0,0.3 -0.1,0.4 -0.3,0.8 -1.4,1.3 -2.8,1.3 -1.4,0 -2.9,-0.9 -2.9,-2.3 v -3.9 c 0,-0.6 0.4,-0.9 0.9,-0.9 0.5,0 0.9,0.3 0.9,0.8 v 0.3 0 c 0.4,-0.7 1.2,-1.2 2.1,-1.2 1.3,0 2.3,0.8 2.3,2.1 v 0 z m -4.4,0.5 v 0.5 h 1.4 c 0.7,0 1.1,-0.5 1.1,-0.9 0,-0.4 -0.4,-0.8 -1,-0.8 -0.6,0 -1.5,0.5 -1.5,1.2 z"
   id="path56" />
					<path
   class="st3"
   d="m 539.9,897.1 c 0,2.2 -1.3,3.5 -3.3,3.5 -2,0 -2.5,-0.7 -2.9,-1.6 0,-0.2 -0.1,-0.3 -0.1,-0.5 0,-0.5 0.4,-0.7 0.8,-0.7 0.4,0 0.6,0.2 0.8,0.5 0.3,0.6 0.8,0.9 1.3,0.9 0.9,0 1.5,-0.8 1.5,-2.1 0,-1.3 -0.6,-2.1 -1.5,-2.1 -0.9,0 -1,0.3 -1.3,0.8 -0.2,0.4 -0.5,0.5 -0.8,0.5 -0.3,0 -0.8,-0.3 -0.8,-0.7 0,-0.4 0,-0.3 0.1,-0.5 0.4,-0.9 1.6,-1.6 2.9,-1.6 2,0 3.4,1.3 3.4,3.5 z"
   id="path57" />
					<path
   class="st3"
   d="m 532.5,894.5 v 7.5 c 0,0.6 -0.4,1 -0.9,1 -0.5,0 -0.9,-0.3 -0.9,-1 v -4.2 0 l -2.5,2.5 c -0.2,0.3 -0.5,0.4 -0.7,0.4 -0.5,0 -0.8,-0.3 -0.8,-0.8 0,-0.5 0,-0.5 0.4,-0.7 l 1.7,-1.6 -1.9,-2.4 c -0.2,-0.3 -0.3,-0.4 -0.3,-0.7 0,-0.5 0.4,-0.8 0.9,-0.8 0.5,0 0.6,0 0.9,0.6 l 1.8,2.3 0.6,-0.5 v -1.4 c 0,-0.6 0.4,-1 0.9,-1 0.5,0 0.9,0.3 0.9,1 v 0 -0.2 z"
   id="path58" />
					<path
   class="st3"
   d="m 526.1,897 c 0,2.2 -1.3,3.6 -3.3,3.6 -2,0 -3.2,-1.3 -3.2,-3.2 0,-1.9 0.3,-0.8 0.8,-0.8 h 3.9 c 0,-1.1 -0.6,-1.8 -1.5,-1.8 -0.9,0 -1.1,0.2 -1.6,0.8 -0.2,0.2 -0.4,0.3 -0.6,0.3 -0.4,0 -0.7,-0.2 -0.7,-0.7 v -0.5 c 0.5,-0.8 1.5,-1.3 2.8,-1.3 2.1,0 3.4,1.3 3.4,3.5 v 0 z m -4.7,0.8 c 0,0.9 0.6,1.5 1.4,1.5 0.8,0 1.4,-0.6 1.5,-1.5 z"
   id="path59" />
					<path
   class="st3"
   d="m 518.6,894.5 v 5.2 c 0,0.6 -0.4,0.9 -0.9,0.9 -0.5,0 -0.9,-0.3 -0.9,-0.9 v -0.5 0 c -0.2,0.8 -0.7,1.3 -1.4,1.3 -0.7,0 -0.4,0 -0.6,-0.2 -0.2,0 -0.3,-0.4 -0.3,-0.7 0,-0.3 0,-0.5 0.3,-0.7 0.3,-0.2 0.4,-0.2 0.8,-0.2 0.8,0 1.1,-0.5 1.1,-1.3 v -3 c 0,-0.6 0.4,-1 0.9,-1 0.5,0 0.9,0.3 0.9,1 h 0.1 z"
   id="path60" />
					<path
   class="st3"
   d="m 511.3,895.3 v 0.5 c 0,0.5 -0.3,0.8 -0.8,0.8 -0.5,0 -0.7,-0.2 -0.9,-0.6 -0.3,-0.7 -1,-1 -1.9,-1 -0.9,0 -1.7,0.5 -1.7,1.2 0,0.7 0.4,1 1.6,1.2 l 1,0.2 c 1.8,0.4 2.7,1.2 2.7,2.6 0,1.4 -1.5,2.8 -3.5,2.8 -2,0 -2.9,-0.7 -3.3,-1.9 v -0.4 c 0,-0.5 0.3,-0.8 0.8,-0.8 0.5,0 0.7,0.2 0.9,0.6 0.3,0.7 0.9,1 1.7,1 0.8,0 1.6,-0.4 1.6,-1.1 0,-0.7 -0.4,-0.9 -1.5,-1.1 l -1,-0.2 c -1.9,-0.4 -2.8,-1.2 -2.8,-2.6 0,-1.4 1.4,-2.9 3.7,-2.9 2.3,0 3.1,0.8 3.4,1.7 z"
   id="path61" />
					<path
   class="st3"
   d="m 503.1,892.2 v 7.5 c 0,0.6 -0.4,1 -0.9,1 -0.5,0 -0.9,-0.3 -0.9,-1 v -0.4 0 c -0.4,0.8 -1.1,1.3 -2.1,1.3 -1.7,0 -2.8,-1.3 -2.8,-3.5 0,-2.2 1,-3.5 2.8,-3.5 1.8,0 1.8,0.5 2.1,1.2 v 0 -2.6 c 0,-0.6 0.4,-1 0.9,-1 0.5,0 0.9,0.3 0.9,1 z m -4.8,4.9 c 0,1.2 0.6,2 1.5,2 0.9,0 1.5,-0.8 1.5,-2 0,-1.2 -0.6,-2 -1.5,-2 -0.9,0 -1.5,0.8 -1.5,2 z"
   id="path62" />
					<path
   class="st3"
   d="m 495.7,895.6 c 0,1.2 -1,2 -2.7,2.1 h -1.7 v 0.5 c 0,0.6 0.5,1 1.1,1 0.6,0 0.9,-0.2 1.3,-0.7 0.2,-0.2 0.4,-0.3 0.7,-0.3 0.5,0 0.8,0.3 0.8,0.7 v 0.4 c -0.3,0.8 -1.4,1.3 -2.8,1.3 -1.4,0 -2.9,-0.9 -2.9,-2.3 v -3.9 c 0,-0.6 0.4,-0.9 0.9,-0.9 0.5,0 0.8,0.3 0.9,0.8 v 0.3 0 c 0.4,-0.7 1.2,-1.2 2.1,-1.2 1.3,0 2.3,0.8 2.3,2.1 v 0 z m -4.4,0.5 v 0.5 h 1.4 c 0.7,0 1.1,-0.5 1.1,-0.9 0,-0.4 -0.4,-0.8 -1,-0.8 -0.6,0 -1.5,0.5 -1.5,1.2 z"
   id="path63" />
					<path
   class="st3"
   d="m 487.2,894.5 1.4,4.7 v 0.6 c 0,0.5 -0.4,0.8 -0.9,0.8 -0.5,0 -0.8,-0.3 -0.9,-0.8 l -1,-4.4 v 0 l -1,4.3 c 0,0.5 -0.5,0.8 -1,0.8 -0.5,0 -0.9,-0.3 -1,-0.8 l -1.1,-4.3 v 0 l -1,4.4 c 0,0.5 -0.4,0.8 -0.9,0.8 -0.5,0 -0.9,-0.3 -0.9,-0.8 v -0.6 l 1.4,-4.8 c 0.2,-0.7 0.5,-1 1.2,-1 0.7,0 1,0.3 1.2,1 l 1,4 v 0 l 1,-4 c 0.2,-0.7 0.5,-1 1.2,-1 0.7,0 1,0.3 1.3,1.1 z"
   id="path64" />
					<path
   class="st3"
   d="m 478,894.5 v 5.2 c 0,0.6 -0.3,0.9 -0.9,0.9 -0.6,0 -0.9,-0.4 -0.9,-0.9 v -0.4 0 c -0.4,0.8 -1,1.3 -2.1,1.3 -1.1,0 -2.4,-1 -2.4,-2.5 v -3.5 c 0,-0.6 0.4,-1 0.9,-1 0.5,0 0.9,0.3 0.9,1 v 3.2 c 0,0.9 0.4,1.4 1.2,1.4 0.8,0 1.4,-0.6 1.4,-1.5 v -3.1 c 0,-0.6 0.4,-1 0.9,-1 0.5,0 0.9,0.3 0.9,1 v 0 z"
   id="path65" />
					<path
   class="st3"
   d="m 179.8,583.4 v 5.6 c 0,0.5 -0.3,0.8 -0.7,0.8 h -3.3 c -0.4,0 -0.7,-0.2 -0.7,-0.6 0,-0.4 0.3,-0.6 0.7,-0.6 h 2.6 v -1.9 h -2.3 c -0.4,0 -0.6,-0.2 -0.6,-0.6 0,-0.4 0.2,-0.6 0.6,-0.6 h 2.3 v -2.1 c 0,-0.5 0.3,-0.8 0.7,-0.8 0.4,0 0.7,0.3 0.7,0.8 z"
   id="path66" />
					<path
   class="st3"
   d="m 174.7,585.3 c 0,1.7 -1,2.7 -2.6,2.7 -1.6,0 -2.6,-1 -2.6,-2.7 0,-1.7 1,-2.7 2.6,-2.7 1.6,0 2.6,1 2.6,2.7 z m -3.7,0 c 0,1 0.4,1.6 1.1,1.6 0.7,0 1.1,-0.6 1.1,-1.6 0,-1 -0.4,-1.6 -1.1,-1.6 -0.7,0 -1.1,0.6 -1.1,1.6 z"
   id="path67" />
					<path
   class="st3"
   d="m 168.8,584.6 v 2.7 c 0,0.5 -0.3,0.8 -0.7,0.8 -0.4,0 -0.7,-0.3 -0.7,-0.8 v -2.4 c 0,-0.7 -0.4,-1.1 -1,-1.1 -0.6,0 -1,0.5 -1,1.2 v 2.4 c 0,0.5 -0.3,0.8 -0.7,0.8 -0.4,0 -0.7,-0.3 -0.7,-0.8 v -4 c 0,-0.5 0.3,-0.7 0.7,-0.7 0.4,0 0.7,0.2 0.7,0.7 v 0.3 0 c 0.3,-0.7 0.8,-1 1.6,-1 0.8,0 1.9,0.7 1.9,2 h -0.1 z"
   id="path68" />
					<path
   class="st3"
   d="m 163,583.3 v 4 c 0,0.4 -0.3,0.7 -0.7,0.7 -0.4,0 -0.7,-0.3 -0.7,-0.7 v -0.3 0 c -0.3,0.7 -0.8,1 -1.6,1 -1.2,0 -1.8,-0.7 -1.8,-2 v -2.7 c 0,-0.5 0.3,-0.7 0.7,-0.7 0.4,0 0.7,0.2 0.7,0.7 v 2.4 c 0,0.7 0.3,1.1 1,1.1 0.7,0 1,-0.5 1,-1.2 v -2.4 c 0,-0.5 0.3,-0.7 0.7,-0.7 0.4,0 0.7,0.2 0.7,0.7 v 0 z"
   id="path69" />
					<path
   class="st3"
   d="m 156.9,586.8 h 0.3 c 0.3,0 0.6,0.2 0.6,0.5 0,0.3 -0.2,0.5 -0.6,0.5 h -0.3 v 0.6 c 0,0.5 -0.3,0.7 -0.7,0.7 -0.4,0 -0.7,-0.3 -0.7,-0.7 v -0.6 H 155 c -0.3,0 -0.6,-0.2 -0.6,-0.5 0,-0.3 0.2,-0.5 0.6,-0.5 h 0.5 v -2.5 c 0,-0.4 -0.1,-0.5 -0.4,-0.5 v 0 c -0.4,0 -0.5,-0.2 -0.5,-0.5 0,-0.3 0.4,-0.6 1,-0.6 v 0 c 0.9,0 1.4,0.5 1.4,1.4 v 2.8 h -0.1 z"
   id="path70" />
					<path
   class="st3"
   d="m 154,584.2 c 0,1 -0.7,1.5 -2,1.6 h -1.3 v 0.4 c 0,0.5 0.3,0.8 0.9,0.8 0.6,0 0.7,0 1,-0.5 0.2,-0.2 0.3,-0.3 0.6,-0.3 0.3,0 0.6,0.2 0.6,0.5 v 0.3 c -0.2,0.6 -1.1,1 -2.2,1 -1.1,0 -2.2,-0.7 -2.2,-1.8 v -3 c 0,-0.5 0.3,-0.7 0.7,-0.7 0.4,0 0.6,0.2 0.7,0.6 v 0.3 0 c 0.3,-0.6 0.9,-0.9 1.6,-0.9 1,0 1.8,0.6 1.8,1.6 H 154 Z m -3.4,0.4 v 0.4 h 1.1 c 0.5,0 0.8,-0.4 0.8,-0.7 0,-0.3 -0.3,-0.6 -0.8,-0.6 -0.5,0 -1.1,0.4 -1.1,1 v 0 z"
   id="path71" />
					<path
   class="st3"
   d="m 148.3,589.3 c 0,0.4 -0.3,0.7 -0.8,0.7 -0.5,0 -0.8,-0.3 -0.8,-0.7 0,-0.4 0.3,-0.7 0.8,-0.7 0.5,0 0.8,0.3 0.8,0.7 z m 0,-6 v 4 c 0,0.5 -0.3,0.8 -0.7,0.8 -0.4,0 -0.7,-0.3 -0.7,-0.8 v -4 c 0,-0.5 0.3,-0.7 0.7,-0.7 0.4,0 0.7,0.3 0.7,0.7 z"
   id="path72" />
					<path
   class="st3"
   d="m 145.9,583.3 v 4 c 0,0.4 -0.3,0.7 -0.7,0.7 -0.4,0 -0.7,-0.3 -0.7,-0.7 v -0.3 0 c -0.3,0.7 -0.8,1 -1.6,1 -1.2,0 -1.8,-0.7 -1.8,-2 v -2.7 c 0,-0.5 0.3,-0.7 0.7,-0.7 0.4,0 0.7,0.2 0.7,0.7 v 2.4 c 0,0.7 0.3,1.1 1,1.1 0.7,0 1,-0.5 1,-1.2 v -2.4 c 0,-0.5 0.3,-0.7 0.7,-0.7 0.4,0 0.7,0.2 0.7,0.7 v 0 z"
   id="path73" />
					<path
   class="st3"
   d="m 325,489.9 v 5.6 c 0,0.6 -0.4,1 -1,1 -0.6,0 -0.8,-0.2 -1,-0.8 l -1.8,-4.3 v 0 l -1.7,4.3 c -0.2,0.5 -0.5,0.8 -1,0.8 -0.5,0 -1,-0.4 -1,-1 v -5.6 c 0,-0.4 0.2,-0.7 0.7,-0.7 0.5,0 0.6,0.2 0.6,0.7 v 4.2 0 l 1.7,-4.3 c 0.1,-0.3 0.3,-0.5 0.6,-0.5 0.3,0 0.5,0.1 0.6,0.4 l 1.7,4.3 v 0 -4.2 c 0,-0.4 0.2,-0.7 0.6,-0.7 0.4,0 0.7,0.2 0.7,0.7 h 0.3 v 0 z"
   id="path74" />
					<path
   class="st3"
   d="m 316.5,495.9 c 0,0.4 -0.3,0.7 -0.8,0.7 -0.5,0 -0.8,-0.3 -0.8,-0.7 0,-0.4 0.3,-0.7 0.8,-0.7 0.5,0 0.8,0.3 0.8,0.7 z m 0,-6 v 4 c 0,0.5 -0.3,0.8 -0.7,0.8 -0.4,0 -0.7,-0.3 -0.7,-0.8 v -4 c 0,-0.5 0.3,-0.7 0.7,-0.7 0.4,0 0.7,0.3 0.7,0.7 z"
   id="path75" />
					<path
   class="st3"
   d="m 314.3,491.9 c 0,1.7 -0.8,2.7 -2.1,2.7 -1.3,0 -1.3,-0.4 -1.6,-1 v 0 2.1 c 0,0.5 -0.3,0.8 -0.7,0.8 -0.4,0 -0.7,-0.3 -0.7,-0.8 v -5.8 c 0,-0.5 0.3,-0.7 0.7,-0.7 0.4,0 0.7,0.2 0.7,0.7 v 0.3 0 c 0.2,-0.6 0.8,-1 1.6,-1 1.3,0 2.1,1 2.1,2.7 z m -3.8,0 c 0,1 0.5,1.6 1.2,1.6 0.7,0 1.2,-0.6 1.2,-1.6 0,-1 -0.4,-1.5 -1.2,-1.5 -0.8,0 -1.2,0.6 -1.2,1.5 z"
   id="path76" />
					<path
   class="st3"
   d="m 260.6,435.6 v 5.7 c 0,0.5 -0.3,0.8 -0.7,0.8 -0.4,0 -0.7,-0.3 -0.7,-0.8 v -2.2 H 256 v 2.2 c 0,0.5 -0.3,0.8 -0.7,0.8 -0.4,0 -0.7,-0.3 -0.7,-0.8 v -5.7 c 0,-0.5 0.3,-0.8 0.7,-0.8 0.4,0 0.7,0.3 0.7,0.8 v 2.3 h 3.2 v -2.3 c 0,-0.5 0.3,-0.8 0.7,-0.8 0.4,0 0.7,0.3 0.7,0.8 z"
   id="path77" />
					<path
   class="st3"
   d="m 253.6,437.6 c 0,1.7 -1,2.7 -2.6,2.7 -1.6,0 -2.6,-1 -2.6,-2.7 0,-1.7 1,-2.7 2.6,-2.7 1.6,0 2.6,1 2.6,2.7 z m -3.7,0 c 0,1 0.4,1.6 1.1,1.6 0.7,0 1.1,-0.6 1.1,-1.6 0,-1 -0.4,-1.6 -1.1,-1.6 -0.7,0 -1.1,0.6 -1.1,1.6 z"
   id="path78" />
					<path
   class="st3"
   d="m 247.9,437.6 c 0,1.7 -1,2.7 -2.6,2.7 -1.6,0 -2.6,-1 -2.6,-2.7 0,-1.7 1,-2.7 2.6,-2.7 1.6,0 2.6,1 2.6,2.7 z m -3.7,0 c 0,1 0.4,1.6 1.1,1.6 0.7,0 1.1,-0.6 1.1,-1.6 0,-1 -0.4,-1.6 -1.1,-1.6 -0.7,0 -1.1,0.6 -1.1,1.6 z"
   id="path79" />
					<path
   class="st3"
   d="m 242,435.6 v 5.8 c 0,0.5 -0.3,0.8 -0.7,0.8 -0.4,0 -0.7,-0.3 -0.7,-0.8 v -3.2 0 l -1.9,1.9 c -0.2,0.2 -0.4,0.3 -0.6,0.3 -0.4,0 -0.6,-0.3 -0.6,-0.6 0,-0.3 0,-0.4 0.3,-0.5 l 1.3,-1.3 -1.5,-1.9 c -0.2,-0.2 -0.2,-0.3 -0.2,-0.5 0,-0.4 0.3,-0.6 0.7,-0.6 0.4,0 0.5,0.1 0.7,0.4 l 1.3,1.8 0.4,-0.4 v -1.1 c 0,-0.5 0.3,-0.7 0.7,-0.7 0.4,0 0.7,0.2 0.7,0.7 z"
   id="path80" />
					<path
   class="st3"
   d="m 236.8,436.5 c 0,1 -0.7,1.5 -2,1.6 h -1.3 v 0.4 c 0,0.5 0.3,0.8 0.9,0.8 0.6,0 0.7,-0.1 1,-0.5 0.2,-0.2 0.3,-0.3 0.6,-0.3 0.3,0 0.6,0.2 0.6,0.5 v 0.3 c -0.2,0.6 -1.1,1 -2.2,1 -1.1,0 -2.2,-0.7 -2.2,-1.8 v -3 c 0,-0.5 0.3,-0.7 0.7,-0.7 0.4,0 0.6,0.2 0.7,0.6 v 0.3 0 c 0.3,-0.6 0.9,-0.9 1.6,-0.9 1,0 1.8,0.6 1.8,1.6 h -0.2 z m -3.3,0.4 v 0.4 h 1.1 c 0.5,-0.1 0.8,-0.4 0.8,-0.7 0,-0.3 -0.3,-0.6 -0.8,-0.6 -0.5,0 -1.1,0.4 -1.1,0.9 z"
   id="path81" />
					<path
   class="st3"
   d="m 231.1,435.6 v 5.8 c 0,0.5 -0.3,0.7 -0.7,0.7 -0.4,0 -0.7,-0.3 -0.7,-0.7 v -2.1 0 c -0.3,0.7 -0.9,1 -1.6,1 -1.2,0 -1.8,-0.8 -1.8,-2 v -2.7 c 0,-0.5 0.3,-0.7 0.7,-0.7 0.4,0 0.7,0.2 0.7,0.7 v 2.4 c 0,0.7 0.3,1.1 1,1.1 0.7,0 1.1,-0.5 1.1,-1.2 v -2.4 c 0,-0.5 0.3,-0.7 0.7,-0.7 0.4,0 0.7,0.2 0.7,0.7 h -0.1 z"
   id="path82" />
					<path
   class="st3"
   d="m 798.9,424.2 v 0.4 c 0,0.4 -0.3,0.6 -0.7,0.6 -0.4,0 -0.5,-0.1 -0.7,-0.4 -0.2,-0.5 -0.8,-0.8 -1.5,-0.8 -0.7,0 -1.3,0.4 -1.3,0.9 0,0.5 0.3,0.7 1.2,0.9 h 0.8 c 1.4,0.4 2.1,1.1 2.1,2.1 0,1 -1.1,2.1 -2.7,2.1 -1.6,0 -2.3,-0.5 -2.6,-1.5 v -0.3 c 0,-0.4 0.2,-0.6 0.6,-0.6 0.4,0 0.5,0.1 0.7,0.4 0.2,0.5 0.7,0.8 1.3,0.8 0.6,0 1.2,-0.3 1.2,-0.9 0,-0.6 -0.3,-0.7 -1.2,-0.9 h -0.7 c -1.5,-0.4 -2.1,-1 -2.1,-2.1 0,-1.1 1.1,-2.2 2.8,-2.2 1.7,0 2.4,0.6 2.7,1.4 h 0.1 z"
   id="path83" />
					<path
   class="st3"
   d="m 792.6,423.6 v 5.8 c 0,0.5 -0.3,0.7 -0.7,0.7 -0.4,0 -0.7,-0.3 -0.7,-0.7 v -2.1 0 c -0.3,0.7 -0.8,1 -1.7,1 -0.9,0 -1.8,-0.8 -1.8,-2 v -2.7 c 0,-0.5 0.3,-0.7 0.7,-0.7 0.4,0 0.7,0.2 0.7,0.7 v 2.4 c 0,0.7 0.3,1.1 1,1.1 0.7,0 1.1,-0.5 1.1,-1.2 v -2.4 c 0,-0.5 0.3,-0.7 0.7,-0.7 0.4,0 0.7,0.2 0.7,0.7 v 0 z"
   id="path84" />
					<path
   class="st3"
   d="m 787,425.5 c 0,1.7 -1,2.7 -2.6,2.7 -1.6,0 -2.6,-1 -2.6,-2.7 0,-1.7 1,-2.7 2.6,-2.7 1.6,0 2.6,1 2.6,2.7 z m -3.8,0 c 0,1 0.5,1.6 1.1,1.6 0.6,0 1.2,-0.6 1.2,-1.6 0,-1 -0.4,-1.6 -1.2,-1.6 -0.8,0 -1.1,0.6 -1.1,1.6 z"
   id="path85" />
					<path
   class="st3"
   d="m 780.3,423.6 1,3.6 v 0.4 c 0,0.4 -0.3,0.6 -0.7,0.6 -0.4,0 -0.6,-0.2 -0.7,-0.6 l -0.8,-3.4 v 0 l -0.8,3.3 c 0,0.4 -0.4,0.6 -0.8,0.6 -0.4,0 -0.7,-0.2 -0.8,-0.6 l -0.8,-3.3 v 0 l -0.8,3.4 c 0,0.4 -0.3,0.6 -0.7,0.6 -0.4,0 -0.7,-0.2 -0.7,-0.6 v -0.4 l 1,-3.6 c 0.2,-0.5 0.4,-0.8 0.9,-0.8 0.5,0 0.8,0.2 0.9,0.8 l 0.8,3 v 0 l 0.8,-3.1 c 0,-0.5 0.4,-0.8 0.9,-0.8 0.5,0 0.8,0.2 0.9,0.8 h 0.4 v 0 z"
   id="path86" />
					<path
   class="st3"
   d="m 773.5,425.5 c 0,1.7 -1,2.8 -2.5,2.8 -1.5,0 -2.5,-1 -2.5,-2.4 0,-1.4 0.2,-0.6 0.6,-0.6 h 3 c 0,-0.8 -0.5,-1.3 -1.2,-1.3 -0.7,0 -0.9,0.2 -1.2,0.6 -0.2,0.2 -0.3,0.2 -0.5,0.2 -0.3,0 -0.6,-0.2 -0.6,-0.5 v -0.4 c 0.3,-0.6 1.2,-1 2.2,-1 1.6,0 2.6,1 2.6,2.7 h 0.1 z m -3.7,0.6 c 0,0.7 0.5,1.1 1.1,1.1 0.6,0 1.1,-0.5 1.1,-1.1 z"
   id="path87" />
					<path
   class="st3"
   d="m 767.7,423.6 v 4 c 0,0.5 -0.3,0.7 -0.7,0.7 -0.4,0 -0.7,-0.3 -0.7,-0.7 v -0.3 0 c 0,0.6 -0.6,1 -1.1,1 -0.5,0 -0.3,0 -0.4,-0.1 0,-0.1 -0.2,-0.3 -0.2,-0.5 0,-0.2 0,-0.4 0.2,-0.5 0.2,-0.1 0.3,-0.2 0.6,-0.2 0.7,0 0.9,-0.4 0.9,-1 v -2.3 c 0,-0.5 0.3,-0.7 0.7,-0.7 0.4,0 0.7,0.3 0.7,0.7 v 0 z"
   id="path88" />
					<path
   class="st3"
   d="m 764.2,423.8 v 0.3 c 0,0.3 -0.2,0.5 -0.6,0.5 -0.4,0 -0.4,-0.1 -0.6,-0.3 -0.3,-0.4 -0.6,-0.5 -1.1,-0.5 -0.5,0 -0.8,0.2 -0.8,0.6 0,0.4 0.2,0.4 0.7,0.5 l 0.9,0.2 c 1,0.2 1.5,0.7 1.5,1.5 0,0.8 -0.9,1.6 -2.2,1.6 -1.3,0 -1.9,-0.5 -2,-1.1 v -0.2 c 0,-0.3 0.2,-0.5 0.5,-0.5 0.3,0 0.4,0 0.5,0.2 0.2,0.3 0.5,0.6 1,0.6 0.5,0 0.8,-0.2 0.8,-0.6 0,-0.4 -0.2,-0.5 -0.7,-0.6 l -0.9,-0.2 c -1.1,-0.2 -1.6,-0.6 -1.6,-1.4 0,-0.8 0.9,-1.7 2.3,-1.7 1.4,0 2,0.4 2.2,1 v 0 z"
   id="path89" />
					<path
   class="st3"
   d="m 174.6,419.2 c 0,2.3 -1.3,3.6 -3.4,3.6 -2.1,0 -2.4,-0.6 -2.8,-1.5 0,-0.2 -0.1,-0.3 -0.1,-0.5 0,-0.4 0.3,-0.6 0.6,-0.6 0.3,0 0.5,0.1 0.7,0.4 0.4,0.6 0.9,0.9 1.6,0.9 1.2,0 1.9,-0.9 1.9,-2.4 0,-1.5 -0.7,-2.5 -1.9,-2.5 -1.2,0 -1.6,0.6 -1.7,1.5 v 0 c 0,0.1 1,0.1 1,0.1 0.4,0 0.6,0.2 0.6,0.5 0,0.3 -0.2,0.5 -0.6,0.5 h -1.7 c -0.5,0 -0.7,-0.3 -0.7,-0.8 v 0 c 0,-1.9 1.1,-3.1 3.1,-3.1 2,0 3.4,1.4 3.4,3.7 v 0 z"
   id="path90" />
					<path
   class="st3"
   d="m 167.5,417.1 c 0,1 -0.7,1.5 -2,1.6 h -1.3 v 0.4 c 0,0.5 0.3,0.8 0.9,0.8 0.6,0 0.7,-0.1 1,-0.5 0.2,-0.2 0.3,-0.3 0.6,-0.3 0.3,0 0.6,0.2 0.6,0.5 v 0.3 c -0.2,0.6 -1.1,1 -2.2,1 -1.1,0 -2.2,-0.7 -2.2,-1.8 v -3 c 0,-0.5 0.3,-0.7 0.7,-0.7 0.4,0 0.6,0.2 0.7,0.6 v 0.3 0 c 0.3,-0.6 0.9,-0.9 1.6,-0.9 1,0 1.8,0.6 1.8,1.6 h -0.2 z m -3.4,0.5 v 0.4 h 1.1 c 0.5,-0.1 0.8,-0.4 0.8,-0.7 0,-0.3 -0.3,-0.6 -0.8,-0.6 -0.5,0 -1.1,0.4 -1.1,0.9 z"
   id="path91" />
					<path
   class="st3"
   d="m 161.8,416.3 v 4 c 0,0.5 -0.3,0.7 -0.7,0.7 -0.4,0 -0.7,-0.3 -0.7,-0.7 v -0.3 0 c -0.1,0.6 -0.6,1 -1.1,1 -0.5,0 -0.3,0 -0.4,-0.1 -0.1,-0.1 -0.2,-0.3 -0.2,-0.5 0,-0.2 0,-0.4 0.2,-0.5 0.2,-0.1 0.3,-0.2 0.6,-0.2 0.6,0 0.9,-0.4 0.9,-1 v -2.3 c 0,-0.5 0.3,-0.7 0.7,-0.7 0.4,0 0.7,0.3 0.7,0.7 v 0 z"
   id="path92" />
					<path
   class="st3"
   d="m 158.5,418.3 c 0,1.7 -0.8,2.7 -2.1,2.7 -1.3,0 -1.3,-0.4 -1.6,-1 v 0 2.1 c 0,0.5 -0.3,0.8 -0.7,0.8 -0.4,0 -0.7,-0.3 -0.7,-0.8 v -5.8 c 0,-0.5 0.3,-0.7 0.7,-0.7 0.4,0 0.7,0.2 0.7,0.7 v 0.3 0 c 0.2,-0.6 0.8,-1 1.6,-1 1.3,0 2.1,1 2.1,2.7 z m -3.8,0 c 0,1 0.4,1.6 1.2,1.6 0.8,0 1.2,-0.6 1.2,-1.6 0,-1 -0.4,-1.5 -1.2,-1.5 -0.8,0 -1.2,0.6 -1.2,1.5 z"
   id="path93" />
					<path
   class="st3"
   d="m 152.5,418.2 c 0,1.7 -1,2.8 -2.5,2.8 -1.5,0 -2.5,-1 -2.5,-2.4 0,-1.4 0.2,-0.6 0.6,-0.6 h 3 c 0,-0.8 -0.5,-1.3 -1.2,-1.3 -0.7,0 -0.9,0.2 -1.2,0.6 -0.1,0.2 -0.3,0.2 -0.5,0.2 -0.3,0 -0.6,-0.2 -0.6,-0.5 0,-0.3 0,-0.2 0.1,-0.4 0.4,-0.6 1.2,-1 2.2,-1 1.6,0 2.6,1 2.6,2.7 v 0 z m -3.6,0.6 c 0,0.7 0.5,1.1 1.1,1.1 0.6,0 1.1,-0.5 1.1,-1.1 z"
   id="path94" />
					<path
   class="st3"
   d="m 146.8,416.3 v 4 c 0,0.4 -0.3,0.7 -0.7,0.7 -0.4,0 -0.7,-0.3 -0.7,-0.7 v -0.3 0 c -0.3,0.6 -0.8,1 -1.6,1 -1.2,0 -1.8,-0.7 -1.8,-2 v -2.7 c 0,-0.5 0.3,-0.7 0.7,-0.7 0.4,0 0.7,0.2 0.7,0.7 v 2.4 c 0,0.7 0.3,1.1 1,1.1 0.7,0 1,-0.5 1,-1.1 v -2.4 c 0,-0.5 0.3,-0.7 0.7,-0.7 0.4,0 0.7,0.2 0.7,0.7 z"
   id="path95" />
					<path
   class="st3"
   d="m 110.7,259 v 5.5 c 0,0.5 -0.3,0.8 -0.7,0.8 h -3.3 c -0.4,0 -0.7,-0.2 -0.7,-0.6 0,-0.4 0.3,-0.6 0.7,-0.6 h 2.6 v -1.7 h -2.5 c -0.4,0 -0.6,-0.2 -0.6,-0.6 0,-0.4 0.2,-0.6 0.6,-0.6 h 2.5 v -1.8 h -2.6 c -0.4,0 -0.7,-0.2 -0.7,-0.6 0,-0.4 0.3,-0.6 0.7,-0.6 h 3.3 c 0.5,0 0.7,0.3 0.7,0.8 z"
   id="path96" />
					<path
   class="st3"
   d="m 105,258.9 v 5.8 c 0,0.5 -0.3,0.8 -0.7,0.8 -0.4,0 -0.7,-0.3 -0.7,-0.8 v -5.8 c 0,-0.5 0.3,-0.7 0.7,-0.7 0.4,0 0.7,0.2 0.7,0.7 z"
   id="path97" />
					<path
   class="st3"
   d="m 102.6,258.9 v 5.8 c 0,0.5 -0.3,0.8 -0.7,0.8 -0.4,0 -0.7,-0.3 -0.7,-0.8 v -2.1 0 c -0.3,0.6 -0.9,1 -1.6,1 -1.3,0 -2.1,-1 -2.1,-2.7 0,-1.7 0.8,-2.7 2.1,-2.7 1.3,0 1.3,0.4 1.6,1 v 0 -0.3 c 0,-0.5 0.3,-0.7 0.7,-0.7 0.4,0 0.7,0.2 0.7,0.7 z m -3.7,2 c 0,1 0.4,1.6 1.2,1.6 0.8,0 1.2,-0.6 1.2,-1.6 0,-1 -0.5,-1.5 -1.2,-1.5 -0.7,0 -1.2,0.6 -1.2,1.5 z"
   id="path98" />
					<path
   class="st3"
   d="m 96.9,260.9 c 0,1.7 -1,2.7 -2.6,2.7 -1.6,0 -2.6,-1 -2.6,-2.7 0,-1.7 1,-2.7 2.6,-2.7 1.6,0 2.6,1 2.6,2.7 z m -3.8,0 c 0,1 0.4,1.6 1.1,1.6 0.7,0 1.2,-0.6 1.2,-1.6 0,-1 -0.4,-1.6 -1.2,-1.6 -0.8,0 -1.1,0.6 -1.1,1.6 z"
   id="path99" />
					<path
   class="st3"
   d="m 90.2,258.9 1.1,3.6 v 0.4 c 0,0.4 -0.3,0.6 -0.7,0.6 -0.4,0 -0.6,-0.2 -0.7,-0.6 l -0.8,-3.4 v 0 l -0.8,3.3 c 0,0.4 -0.4,0.6 -0.8,0.6 -0.4,0 -0.7,-0.2 -0.8,-0.6 l -0.8,-3.3 v 0 l -0.8,3.4 c 0,0.4 -0.3,0.6 -0.7,0.6 -0.4,0 -0.7,-0.2 -0.7,-0.6 v -0.4 l 1.1,-3.6 c 0.2,-0.5 0.4,-0.8 0.9,-0.8 0.5,0 0.8,0.2 0.9,0.8 l 0.8,3 v 0 l 0.8,-3.1 c 0,-0.5 0.4,-0.8 0.9,-0.8 0.5,0 0.8,0.2 0.9,0.8 h 0.2 z"
   id="path100" />
					<path
   class="st3"
   d="M 488.7,72.8 V 80 c 0,0.6 -0.4,1 -1,1 h -2.5 c -2.8,0 -4.4,-1.6 -4.4,-4.5 0,-2.9 1.6,-4.6 4.4,-4.6 h 2.5 c 0.6,0 1,0.4 1,0.9 z m -3.3,0.6 c -1.7,0 -2.6,1 -2.6,3 0,2 1,3 2.6,3 h 1.4 v -6 z"
   id="path101" />
					<path
   class="st3"
   d="m 480,75.2 c 0,2.2 -1.3,3.6 -3.3,3.6 -2,0 -3.2,-1.3 -3.2,-3.2 0,-1.9 0.3,-0.8 0.8,-0.8 h 3.9 c 0,-1.1 -0.6,-1.8 -1.5,-1.8 -0.9,0 -1.1,0.2 -1.6,0.8 -0.2,0.2 -0.4,0.3 -0.6,0.3 -0.4,0 -0.7,-0.2 -0.7,-0.7 0,-0.5 0,-0.3 0.1,-0.4 0.5,-0.8 1.5,-1.3 2.8,-1.3 2.1,0 3.4,1.3 3.3,3.5 z m -4.8,0.7 c 0,0.9 0.6,1.5 1.4,1.5 0.8,0 1.4,-0.6 1.5,-1.5 z"
   id="path102" />
					<path
   class="st3"
   d="m 472,72.7 v 4.6 h 0.4 c 0.4,0 0.7,0.2 0.7,0.7 0,0.5 -0.3,0.7 -0.7,0.7 H 472 v 0.5 c 0,1.3 -0.7,1.9 -1.9,2 -1,0 -1.4,-0.3 -1.4,-0.8 0,-0.5 0.1,-0.4 0.4,-0.5 h 0.4 c 0.6,0 0.8,-0.2 0.8,-0.8 v -0.4 h -0.8 c -0.4,0 -0.7,-0.2 -0.7,-0.7 0,-0.5 0.3,-0.7 0.7,-0.7 h 0.7 v -4.6 c 0,-0.6 0.4,-1 0.9,-1 0.5,0 0.9,0.3 0.9,1 z"
   id="path103" />
					<path
   class="st3"
   d="m 468.3,75.2 c 0,2.2 -1.3,3.6 -3.3,3.6 -2,0 -3.2,-1.3 -3.2,-3.2 0,-1.9 0.3,-0.8 0.8,-0.8 h 3.9 c 0,-1.1 -0.6,-1.8 -1.5,-1.8 -0.9,0 -1.1,0.2 -1.6,0.8 -0.2,0.2 -0.4,0.3 -0.6,0.3 -0.4,0 -0.7,-0.2 -0.7,-0.7 0,-0.5 0,-0.3 0.1,-0.4 0.5,-0.8 1.5,-1.3 2.8,-1.3 2.1,0 3.4,1.3 3.3,3.5 z m -4.7,0.7 c 0,0.9 0.6,1.5 1.4,1.5 0.8,0 1.4,-0.6 1.5,-1.5 z"
   id="path104" />
					<path
   class="st3"
   d="m 460.9,72.7 v 5.2 c 0,0.6 -0.3,0.9 -0.9,0.9 -0.6,0 -0.9,-0.4 -0.9,-0.9 v -0.4 0 c -0.4,0.8 -1,1.3 -2.1,1.3 -1.1,0 -2.4,-0.9 -2.4,-2.6 v -3.6 c 0,-0.6 0.4,-1 0.9,-1 0.5,0 0.9,0.3 0.9,1 v 3.2 c 0,0.9 0.4,1.4 1.2,1.4 0.8,0 1.4,-0.6 1.4,-1.5 v -3.1 c 0,-0.6 0.4,-1 0.9,-1 0.5,0 0.9,0.3 0.9,1 z"
   id="path105" />
					<path
   class="st3"
   d="m 453.6,75.2 c 0,2.2 -1.1,3.5 -2.8,3.5 -1.7,0 -1.8,-0.5 -2.1,-1.3 v 0 2.7 c 0,0.6 -0.4,1 -0.9,1 -0.5,0 -0.9,-0.3 -0.9,-1 v -7.5 c 0,-0.6 0.4,-0.9 0.9,-0.9 0.5,0 0.9,0.3 0.9,0.9 v 0.4 0 c 0.3,-0.8 1,-1.3 2.1,-1.3 1.7,0 2.8,1.3 2.8,3.5 z m -4.9,0 c 0,1.2 0.6,2 1.5,2 0.9,0 1.5,-0.8 1.5,-2 0,-1.2 -0.6,-2 -1.5,-2 -0.9,0 -1.5,0.8 -1.5,2 z"
   id="path106" />
					<path
   class="st3"
   d="m 445.9,75.2 c 0,2.2 -1.3,3.6 -3.3,3.6 -2,0 -3.2,-1.3 -3.2,-3.2 0,-1.9 0.3,-0.8 0.8,-0.8 h 3.9 c 0,-1.1 -0.6,-1.8 -1.5,-1.8 -0.9,0 -1.1,0.2 -1.6,0.8 -0.2,0.2 -0.4,0.3 -0.6,0.3 -0.4,0 -0.7,-0.2 -0.7,-0.7 0,-0.5 0,-0.3 0.1,-0.4 0.5,-0.8 1.5,-1.3 2.8,-1.3 2.1,0 3.4,1.3 3.3,3.5 z m -4.8,0.7 c 0,0.9 0.6,1.5 1.4,1.5 0.8,0 1.4,-0.6 1.5,-1.5 z"
   id="path107" />
					<path
   class="st3"
   d="m 438.4,72.7 v 5.2 c 0,0.6 -0.4,0.9 -0.9,0.9 -0.5,0 -0.9,-0.3 -0.9,-0.9 v -0.4 0 c -0.2,0.8 -0.7,1.3 -1.4,1.3 -0.7,0 -0.4,0 -0.6,-0.2 -0.2,0 -0.3,-0.4 -0.3,-0.7 0,-0.3 0,-0.5 0.3,-0.7 0.3,-0.2 0.4,-0.2 0.8,-0.2 0.8,0 1.1,-0.5 1.1,-1.3 v -3 c 0,-0.6 0.4,-1 0.9,-1 0.5,0 0.9,0.3 0.9,1 0,0 0.1,0 0.1,0 z"
   id="path108" />
					<path
   class="st3"
   d="m 431.1,73.4 c 0,0.2 0.1,0.3 0.1,0.5 0,0.5 -0.4,0.8 -0.8,0.8 -0.4,0 -0.6,-0.2 -0.9,-0.6 -0.3,-0.7 -1,-1 -1.9,-1 -0.9,0 -1.7,0.5 -1.7,1.2 0,0.7 0.4,0.9 1.6,1.2 l 1,0.2 c 1.8,0.4 2.7,1.2 2.7,2.6 0,1.4 -1.5,2.8 -3.5,2.8 -2,0 -2.9,-0.7 -3.4,-1.9 v -0.4 c 0,-0.5 0.3,-0.8 0.8,-0.8 0.5,0 0.7,0.2 0.9,0.6 0.3,0.7 0.9,1 1.7,1 0.8,0 1.6,-0.4 1.6,-1.1 0,-0.7 -0.4,-0.9 -1.5,-1.1 l -1,-0.2 C 424.9,76.8 424,76 424,74.6 c 0,-1.4 1.4,-2.9 3.7,-2.9 2.3,0 3.1,0.8 3.5,1.8 z"
   id="path109" />
					<path
   class="st3"
   d="m 422.9,70.4 v 7.4 c 0,0.6 -0.4,0.9 -0.9,0.9 -0.5,0 -0.9,-0.3 -0.9,-1 v -0.4 0 c -0.4,0.8 -1.1,1.3 -2.1,1.3 -1.7,0 -2.8,-1.3 -2.8,-3.5 0,-2.2 1,-3.5 2.8,-3.5 1.8,0 1.8,0.5 2.1,1.2 v 0 -2.6 c 0,-0.6 0.4,-1 0.9,-1 0.5,0 0.9,0.3 0.9,1 v 0 z m -4.9,4.8 c 0,1.2 0.6,2 1.5,2 0.9,0 1.5,-0.8 1.5,-2 0,-1.2 -0.6,-2 -1.5,-2 -0.9,0 -1.5,0.8 -1.5,2 z"
   id="path110" />
					<path
   class="st3"
   d="m 415.5,73.8 c 0,1.2 -1,2 -2.6,2.1 h -1.7 v 0.5 c 0,0.6 0.5,1 1.1,1 0.6,0 0.9,-0.2 1.3,-0.7 0.2,-0.2 0.4,-0.3 0.7,-0.3 0.5,0 0.8,0.3 0.8,0.7 0,0.4 0,0.3 -0.1,0.4 -0.3,0.8 -1.4,1.3 -2.8,1.3 -1.4,0 -2.9,-0.9 -2.9,-2.3 v -3.9 c 0,-0.6 0.4,-0.9 0.9,-0.9 0.5,0 0.9,0.3 0.9,0.8 v 0.3 0 c 0.4,-0.7 1.2,-1.2 2.1,-1.2 1.3,0 2.3,0.8 2.3,2.2 z m -4.4,0.5 v 0.5 h 1.4 c 0.7,0 1.1,-0.4 1.1,-0.9 0,-0.5 -0.4,-0.8 -1,-0.8 -0.6,0 -1.5,0.5 -1.5,1.2 z"
   id="path111" />
					<path
   class="st3"
   d="m 407,72.7 1.4,4.7 c 0,0.2 0.1,0.4 0.1,0.6 0,0.5 -0.4,0.8 -0.9,0.8 -0.5,0 -0.8,-0.3 -0.9,-0.8 l -1,-4.4 v 0 l -1,4.3 c -0.1,0.6 -0.5,0.8 -1,0.8 -0.5,0 -0.9,-0.3 -1,-0.8 l -1.1,-4.3 v 0 l -1,4.4 c -0.1,0.5 -0.4,0.8 -0.9,0.8 -0.5,0 -0.9,-0.3 -0.9,-0.8 0,-0.5 0,-0.3 0.1,-0.6 l 1.4,-4.8 c 0.2,-0.7 0.5,-1 1.2,-1 0.7,0 1,0.3 1.2,1 l 1,4 v 0 l 1,-4 c 0.2,-0.7 0.5,-1 1.2,-1 0.7,0 1,0.3 1.2,1 H 407 Z"
   id="path112" />
					<path
   class="st3"
   d="m 397.8,72.7 v 5.2 c 0,0.6 -0.3,0.9 -0.9,0.9 -0.6,0 -0.9,-0.4 -0.9,-0.9 v -0.4 0 c -0.4,0.8 -1,1.3 -2.1,1.3 -1.1,0 -2.4,-0.9 -2.4,-2.6 v -3.6 c 0,-0.6 0.4,-1 0.9,-1 0.5,0 0.9,0.3 0.9,1 v 3.2 c 0,0.9 0.4,1.4 1.2,1.4 0.8,0 1.4,-0.6 1.4,-1.5 v -3.1 c 0,-0.6 0.4,-1 0.9,-1 0.5,0 0.9,0.3 0.9,1 z"
   id="path113" />
					<path
   class="st3"
   d="m 787.6,540.7 v 0.5 l -1.9,5.2 c -0.2,0.6 -0.5,0.8 -1.1,0.8 -0.6,0 -0.9,-0.2 -1.1,-0.8 l -1.9,-5.2 v -0.5 c 0,-0.4 0.3,-0.7 0.7,-0.7 0.4,0 0.6,0.2 0.8,0.7 l 0.4,1.1 h 2.5 l 0.4,-1.1 c 0,-0.5 0.4,-0.7 0.8,-0.7 0.4,0 0.8,0.3 0.8,0.7 z m -4.1,2.2 0.9,2.9 v 0 l 0.9,-2.9 z"
   id="path114" />
					<path
   class="st3"
   d="m 778.5,540.7 v 5.6 c 0,0.6 -0.3,1 -1,1 -0.7,0 -0.8,-0.2 -1,-0.8 l -1.8,-4.3 v 0 l -1.7,4.3 c -0.2,0.5 -0.5,0.8 -1,0.8 -0.5,0 -1,-0.3 -1,-1 v -5.6 c 0,-0.4 0.2,-0.7 0.7,-0.7 0.5,0 0.7,0.2 0.7,0.7 v 4.2 0 l 1.7,-4.3 c 0,-0.3 0.3,-0.5 0.6,-0.5 0.3,0 0.5,0 0.6,0.4 l 1.7,4.3 v 0 -4.2 c 0,-0.4 0.2,-0.7 0.7,-0.7 0.5,0 0.7,0.2 0.8,0.8 z"
   id="path115"
   sodipodi:nodetypes="cssccccssssscccscccssc" />
					<path
   class="st3"
   d="m 770.3,541.6 c 0,1 -0.7,1.5 -2,1.6 H 767 v 0.4 c 0,0.5 0.3,0.8 0.9,0.8 0.6,0 0.7,0 1,-0.5 0.2,-0.2 0.3,-0.3 0.6,-0.3 0.3,0 0.6,0.2 0.6,0.5 v 0.3 c -0.2,0.6 -1.1,1 -2.2,1 -1.1,0 -2.2,-0.7 -2.2,-1.8 v -3 c 0,-0.5 0.3,-0.7 0.7,-0.7 0.4,0 0.7,0.2 0.7,0.6 v 0.3 0 c 0.3,-0.6 1,-0.9 1.6,-0.9 1,0 1.8,0.6 1.8,1.6 h -0.2 v 0 z m -3.4,0.4 v 0.4 h 1.1 c 0.5,0 0.8,-0.4 0.8,-0.7 0,-0.3 -0.3,-0.6 -0.8,-0.6 -0.5,0 -1.1,0.4 -1.1,1 v 0 z"
   id="path116" />
					<path
   class="st3"
   d="m 764.6,546.7 c 0,0.4 -0.3,0.7 -0.8,0.7 -0.5,0 -0.8,-0.3 -0.8,-0.7 0,-0.4 0.3,-0.7 0.8,-0.7 0.5,0 0.8,0.3 0.8,0.7 z m 0,-5.9 v 4 c 0,0.5 -0.3,0.8 -0.7,0.8 -0.4,0 -0.7,-0.3 -0.7,-0.8 v -4 c 0,-0.5 0.3,-0.7 0.7,-0.7 0.4,0 0.7,0.3 0.7,0.7 z"
   id="path117" />
					<path
   class="st3"
   d="m 762.2,540.8 v 4 c 0,0.4 -0.3,0.7 -0.7,0.7 -0.4,0 -0.7,-0.3 -0.7,-0.7 v -0.3 0 c -0.3,0.7 -0.8,1 -1.6,1 -1.2,0 -1.8,-0.7 -1.8,-2 v -2.7 c 0,-0.5 0.3,-0.7 0.7,-0.7 0.4,0 0.7,0.2 0.7,0.7 v 2.4 c 0,0.7 0.3,1.1 1,1.1 0.7,0 1,-0.5 1,-1.2 v -2.4 c 0,-0.5 0.3,-0.7 0.7,-0.7 0.4,0 0.7,0.2 0.7,0.7 v 0 z"
   id="path118" />
					<path
   class="st3"
   d="m 584,528 v 0.5 l -1.9,5.2 c -0.2,0.6 -0.5,0.8 -1.1,0.8 -0.6,0 -0.9,-0.2 -1.1,-0.8 L 578,528.5 V 528 c 0,-0.4 0.3,-0.7 0.7,-0.7 0.4,0 0.6,0.2 0.8,0.7 l 0.4,1.1 h 2.5 l 0.4,-1.1 c 0,-0.5 0.4,-0.7 0.8,-0.7 0.4,0 0.8,0.3 0.8,0.7 z m -4.1,2.2 0.9,2.9 v 0 l 0.9,-2.9 z"
   id="path119" />
					<path
   class="st3"
   d="m 574.9,528.6 v 0.4 c 0,0.4 -0.3,0.7 -0.7,0.7 -0.4,0 -0.5,0 -0.7,-0.4 -0.2,-0.5 -0.8,-0.8 -1.5,-0.8 -0.7,0 -1.3,0.4 -1.3,0.9 0,0.5 0.3,0.7 1.2,0.9 l 0.8,0.2 c 1.4,0.3 2.1,1 2.1,2 0,1 -1.1,2.1 -2.7,2.1 -1.6,0 -2.3,-0.5 -2.6,-1.5 v -0.3 c 0,-0.3 0.2,-0.6 0.6,-0.6 0.4,0 0.5,0 0.7,0.4 0.2,0.5 0.7,0.8 1.3,0.8 0.6,0 1.2,-0.3 1.2,-0.9 0,-0.6 -0.3,-0.7 -1.2,-0.9 l -0.7,-0.2 c -1.5,-0.3 -2.1,-0.9 -2.1,-2 0,-1.1 1.1,-2.2 2.8,-2.2 1.7,0 2.4,0.6 2.7,1.3 z"
   id="path120" />
					<path
   class="st3"
   d="m 568.6,528 v 5.8 c 0,0.5 -0.3,0.7 -0.7,0.7 -0.4,0 -0.7,-0.3 -0.7,-0.7 v -2.1 0 c -0.3,0.7 -0.8,1 -1.7,1 -0.9,0 -1.8,-0.8 -1.8,-2 V 528 c 0,-0.5 0.3,-0.7 0.7,-0.7 0.4,0 0.7,0.2 0.7,0.7 v 2.4 c 0,0.7 0.3,1.1 1,1.1 0.7,0 1.1,-0.5 1.1,-1.2 V 528 c 0,-0.5 0.3,-0.7 0.7,-0.7 0.4,0 0.7,0.2 0.7,0.7 z"
   id="path121" />
					<path
   class="st3"
   d="m 563,530 c 0,1.7 -1,2.7 -2.6,2.7 -1.6,0 -2.6,-1 -2.6,-2.7 0,-1.7 1,-2.7 2.6,-2.7 1.6,0 2.6,1 2.6,2.7 z m -3.7,0 c 0,1 0.5,1.6 1.1,1.6 0.6,0 1.2,-0.6 1.2,-1.6 0,-1 -0.4,-1.6 -1.2,-1.6 -0.8,0 -1.1,0.6 -1.1,1.6 z"
   id="path122" />
					<path
   class="st3"
   d="m 557.1,528 v 4 c 0,0.5 -0.3,0.7 -0.7,0.7 -0.4,0 -0.7,-0.3 -0.7,-0.7 v -0.3 0 c 0,0.7 -0.6,1 -1.1,1 -0.5,0 -0.3,0 -0.4,0 0,0 -0.2,-0.3 -0.2,-0.5 0,-0.2 0,-0.4 0.2,-0.5 0.2,-0.1 0.3,-0.2 0.6,-0.2 0.7,0 0.9,-0.4 0.9,-1 v -2.3 c 0,-0.5 0.3,-0.7 0.7,-0.7 0.4,0 0.7,0.3 0.7,0.7 v 0 z"
   id="path123" />
					<path
   class="st3"
   d="m 553.1,531.5 h 0.3 c 0.3,0 0.5,0.2 0.5,0.5 0,0.3 -0.2,0.5 -0.5,0.5 h -0.3 v 0.6 c 0,0.5 -0.3,0.7 -0.7,0.7 -0.4,0 -0.7,-0.3 -0.7,-0.7 v -0.6 h -0.5 c -0.3,0 -0.5,-0.2 -0.5,-0.5 0,-0.3 0.2,-0.5 0.5,-0.5 h 0.5 V 529 c 0,-0.4 0,-0.5 -0.4,-0.5 v 0 c -0.3,0 -0.5,-0.2 -0.5,-0.5 0,-0.3 0.4,-0.6 1,-0.6 v 0 c 1,0 1.4,0.5 1.4,1.4 v 2.8 0 z"
   id="path124" />
					
					
					
					
					
					<path
   class="st3"
   d="m 705,199.3 v 5.7 c 0,0.5 -0.3,0.8 -0.7,0.8 -0.4,0 -0.7,-0.3 -0.7,-0.8 v -2.2 h -3.2 v 2.2 c 0,0.5 -0.3,0.8 -0.7,0.8 -0.4,0 -0.7,-0.3 -0.7,-0.8 v -5.7 c 0,-0.5 0.3,-0.8 0.7,-0.8 0.4,0 0.7,0.3 0.7,0.8 v 2.3 h 3.2 v -2.3 c 0,-0.5 0.3,-0.8 0.7,-0.8 0.4,0 0.7,0.3 0.7,0.8 z"
   id="path130" />
					<path
   class="st3"
   d="m 698,201.2 c 0,1.7 -1,2.8 -2.5,2.8 -1.5,0 -2.5,-1 -2.5,-2.4 0,-1.4 0.2,-0.6 0.6,-0.6 h 3 c 0,-0.8 -0.5,-1.3 -1.2,-1.3 -0.7,0 -0.9,0.2 -1.2,0.6 -0.2,0.2 -0.3,0.2 -0.5,0.2 -0.3,0 -0.6,-0.2 -0.6,-0.5 v -0.4 c 0.3,-0.6 1.2,-1 2.2,-1 1.6,0 2.6,1 2.6,2.7 h 0.1 z m -3.6,0.6 c 0,0.7 0.5,1.1 1.1,1.1 0.6,0 1.1,-0.5 1.1,-1.1 z"
   id="path131" />
					<path
   class="st3"
   d="m 692.5,200.2 c 0,0.9 -0.7,1.5 -2,1.6 h -1.3 v 0.4 c 0,0.5 0.3,0.8 0.9,0.8 0.6,0 0.7,-0.1 1,-0.6 0.2,-0.2 0.3,-0.3 0.6,-0.3 0.3,0 0.6,0.2 0.6,0.6 0,0.4 0,0.2 0,0.3 -0.2,0.6 -1.1,1 -2.2,1 -1.1,0 -2.2,-0.7 -2.2,-1.8 v -3 c 0,-0.5 0.3,-0.7 0.7,-0.7 0.4,0 0.7,0.2 0.7,0.6 v 0.3 0 c 0.3,-0.6 1,-0.9 1.6,-0.9 1,0 1.8,0.6 1.8,1.6 z m -3.4,0.4 v 0.4 h 1.1 c 0.5,-0.1 0.8,-0.4 0.8,-0.7 0,-0.3 -0.3,-0.6 -0.8,-0.6 -0.5,0 -1.1,0.4 -1.1,0.9 z"
   id="path132" />
					<path
   class="st3"
   d="m 685.7,199.3 1.4,3.6 v 0.4 c 0,0.4 -0.3,0.6 -0.7,0.6 -0.4,0 -0.6,-0.2 -0.7,-0.6 l -1.1,-3.5 v 0 l -1.1,3.5 c 0,0.4 -0.3,0.6 -0.7,0.6 -0.4,0 -0.7,-0.3 -0.7,-0.6 v -0.4 l 1.4,-3.7 c 0.2,-0.5 0.5,-0.7 1,-0.7 0.5,0 0.8,0.2 1,0.7 z"
   id="path133" />
					<path
   class="st3"
   d="m 681.9,201.2 c 0,1.7 -1,2.8 -2.5,2.8 -1.5,0 -2.5,-1 -2.5,-2.4 0,-1.4 0.2,-0.6 0.6,-0.6 h 3 c 0,-0.8 -0.5,-1.3 -1.2,-1.3 -0.7,0 -0.9,0.2 -1.2,0.6 -0.2,0.2 -0.3,0.2 -0.5,0.2 -0.3,0 -0.6,-0.2 -0.6,-0.5 v -0.4 c 0.3,-0.6 1.2,-1 2.2,-1 1.6,0 2.6,1 2.6,2.7 h 0.1 z m -3.7,0.6 c 0,0.7 0.5,1.1 1.1,1.1 0.6,0 1.1,-0.5 1.1,-1.1 z"
   id="path134" />
					<path
   class="st3"
   d="m 676.2,199.3 v 4 c 0,0.4 -0.3,0.7 -0.7,0.7 -0.4,0 -0.7,-0.3 -0.7,-0.7 v -0.3 0 c -0.3,0.6 -0.8,1 -1.6,1 -1.2,0 -1.8,-0.7 -1.8,-2 v -2.7 c 0,-0.5 0.3,-0.7 0.7,-0.7 0.4,0 0.7,0.2 0.7,0.7 v 2.4 c 0,0.7 0.3,1.1 1,1.1 0.7,0 1,-0.5 1,-1.1 v -2.4 c 0,-0.5 0.3,-0.7 0.7,-0.7 0.4,0 0.7,0.2 0.7,0.7 z"
   id="path135" />
					<path
   class="st3"
   d="m 474.6,523.9 v 5.6 c 0,0.6 -0.4,1 -1,1 -0.6,0 -0.8,-0.2 -1,-0.8 l -1.8,-4.3 v 0 l -1.7,4.3 c -0.2,0.5 -0.5,0.8 -1,0.8 -0.5,0 -1,-0.3 -1,-1 v -5.6 c 0,-0.4 0.2,-0.7 0.7,-0.7 0.5,0 0.6,0.2 0.6,0.7 v 4.2 0 l 1.7,-4.3 c 0.1,-0.3 0.3,-0.5 0.6,-0.5 0.3,0 0.5,0 0.6,0.4 l 1.7,4.3 v 0 -4.2 c 0,-0.4 0.2,-0.7 0.6,-0.7 0.4,0 0.7,0.2 0.7,0.7 z"
   id="path136" />
					<path
   class="st3"
   d="m 466.4,524.8 c 0,1 -0.7,1.5 -2,1.6 h -1.3 v 0.4 c 0,0.5 0.3,0.8 0.9,0.8 0.6,0 0.7,0 1,-0.5 0.2,-0.2 0.3,-0.3 0.6,-0.3 0.3,0 0.6,0.2 0.6,0.5 v 0.3 c -0.2,0.6 -1.1,1 -2.2,1 -1.1,0 -2.2,-0.7 -2.2,-1.8 v -3 c 0,-0.5 0.3,-0.7 0.7,-0.7 0.4,0 0.6,0.2 0.7,0.6 v 0.3 0 c 0.3,-0.6 1,-0.9 1.6,-0.9 1,0 1.8,0.6 1.8,1.6 h -0.2 z m -3.4,0.4 v 0.4 h 1.1 c 0.5,0 0.8,-0.4 0.8,-0.7 0,-0.3 -0.3,-0.6 -0.8,-0.6 -0.5,0 -1.1,0.4 -1.1,1 v 0 z"
   id="path137" />
					<path
   class="st3"
   d="m 460.7,524 v 4 c 0,0.5 -0.3,0.7 -0.7,0.7 -0.4,0 -0.7,-0.3 -0.7,-0.7 v -0.3 0 c -0.1,0.7 -0.6,1 -1.1,1 -0.5,0 -0.3,0 -0.4,0 -0.1,0 -0.2,-0.3 -0.2,-0.5 0,-0.2 0,-0.4 0.2,-0.5 0.2,-0.1 0.3,-0.2 0.6,-0.2 0.6,0 0.9,-0.4 0.9,-1 v -2.3 c 0,-0.5 0.3,-0.7 0.7,-0.7 0.4,0 0.7,0.3 0.7,0.7 v 0 z"
   id="path138" />
					<path
   class="st3"
   d="m 457,524 v 5.8 c 0,0.5 -0.3,0.8 -0.7,0.8 -0.4,0 -0.7,-0.3 -0.7,-0.8 v -3.2 0 l -1.9,1.9 c -0.2,0.2 -0.4,0.3 -0.6,0.3 -0.4,0 -0.6,-0.3 -0.6,-0.6 0,-0.3 0,-0.3 0.3,-0.5 l 1.3,-1.3 -1.5,-1.9 c -0.2,-0.2 -0.2,-0.3 -0.2,-0.5 0,-0.4 0.3,-0.6 0.7,-0.6 0.4,0 0.5,0 0.7,0.4 l 1.3,1.8 0.5,-0.4 v -1.1 c 0,-0.5 0.3,-0.7 0.7,-0.7 0.4,0 0.7,0.2 0.7,0.7 v 0 z"
   id="path139" />
					<path
   class="st3"
   d="m 452.1,525.9 c 0,1.7 -1,2.8 -2.5,2.8 -1.5,0 -2.5,-1 -2.5,-2.4 0,-1.4 0.2,-0.6 0.6,-0.6 h 3 c 0,-0.8 -0.5,-1.3 -1.2,-1.3 -0.7,0 -0.9,0.2 -1.2,0.6 -0.1,0.2 -0.3,0.2 -0.5,0.2 -0.3,0 -0.6,-0.2 -0.6,-0.5 0,-0.3 0,-0.2 0.1,-0.3 0.4,-0.6 1.2,-1 2.2,-1 1.6,0 2.6,1 2.6,2.7 v 0 z m -3.6,0.6 c 0,0.7 0.5,1.1 1.1,1.1 0.6,0 1.1,-0.5 1.1,-1.1 z"
   id="path140" />
					<path
   class="st3"
   d="m 446,527.5 h 0.3 c 0.3,0 0.5,0.2 0.5,0.5 0,0.3 -0.2,0.5 -0.5,0.5 H 446 v 0.6 c 0,0.5 -0.3,0.7 -0.7,0.7 -0.4,0 -0.7,-0.3 -0.7,-0.7 v -0.6 h -0.5 c -0.3,0 -0.5,-0.2 -0.5,-0.5 0,-0.3 0.2,-0.5 0.5,-0.5 h 0.5 V 525 c 0,-0.4 -0.1,-0.5 -0.4,-0.5 v 0 c -0.4,0 -0.5,-0.2 -0.5,-0.5 0,-0.3 0.4,-0.6 1,-0.6 v 0 c 1,0 1.4,0.5 1.4,1.4 v 2.8 0 z"
   id="path141" />
					<path
   class="st3"
   d="m 528.9,738.1 c 0,2.3 -1.3,3.6 -3.3,3.6 -2,0 -2.3,-0.6 -2.8,-1.6 0,-0.2 -0.2,-0.4 -0.2,-0.5 0,-0.4 0.3,-0.6 0.6,-0.6 0.3,0 0.5,0.2 0.7,0.5 0.3,0.7 0.9,1.1 1.6,1.1 1.1,0 1.8,-0.9 1.8,-2.4 0,-1.5 -0.7,-2.4 -1.8,-2.4 -1.1,0 -1.3,0.3 -1.6,1 -0.1,0.3 -0.3,0.5 -0.6,0.5 -0.3,0 -0.7,-0.3 -0.7,-0.7 v -0.5 c 0.4,-1 1.5,-1.6 2.8,-1.6 2.1,0 3.4,1.4 3.4,3.6 z"
   id="path142" />
					<path
   class="st3"
   d="m 521.9,736.1 c 0,1 -0.7,1.5 -2,1.6 h -1.3 v 0.4 c 0,0.5 0.3,0.8 0.9,0.8 0.6,0 0.7,0 1,-0.5 0.2,-0.2 0.3,-0.3 0.6,-0.3 0.3,0 0.6,0.2 0.6,0.5 v 0.3 c -0.2,0.6 -1.1,1 -2.2,1 -1.1,0 -2.2,-0.7 -2.2,-1.8 v -3 c 0,-0.5 0.3,-0.7 0.7,-0.7 0.4,0 0.7,0.2 0.7,0.6 v 0.3 0 c 0.3,-0.6 1,-0.9 1.6,-0.9 1,0 1.8,0.6 1.8,1.6 h -0.2 v 0 z m -3.3,0.5 v 0.4 h 1.1 c 0.5,0 0.8,-0.4 0.8,-0.7 0,-0.3 -0.3,-0.6 -0.8,-0.6 -0.5,0 -1.1,0.4 -1.1,1 v 0 z"
   id="path143" />
					<path
   class="st3"
   d="m 515.1,735.3 1.4,3.7 v 0.4 c 0,0.4 -0.3,0.6 -0.7,0.6 -0.4,0 -0.6,-0.2 -0.7,-0.6 l -1.1,-3.5 v 0 l -1.1,3.5 c 0,0.4 -0.3,0.6 -0.7,0.6 -0.4,0 -0.7,-0.3 -0.7,-0.6 V 739 l 1.4,-3.7 c 0.2,-0.5 0.5,-0.7 1,-0.7 0.5,0 0.8,0.2 1,0.7 z"
   id="path144" />
					<path
   class="st3"
   d="m 511.3,737.2 c 0,1.7 -1,2.8 -2.5,2.8 -1.5,0 -2.5,-1 -2.5,-2.4 0,-1.4 0.2,-0.6 0.6,-0.6 h 3 c 0,-0.8 -0.5,-1.3 -1.2,-1.3 -0.7,0 -0.9,0.2 -1.2,0.6 -0.2,0.2 -0.3,0.2 -0.5,0.2 -0.3,0 -0.6,-0.2 -0.6,-0.5 v -0.3 c 0.3,-0.6 1.2,-1 2.2,-1 1.6,0 2.6,1 2.6,2.7 v 0 -0.2 z m -3.6,0.6 c 0,0.7 0.5,1.1 1.1,1.1 0.6,0 1.1,-0.5 1.1,-1.1 z"
   id="path145" />
					<path
   class="st3"
   d="m 528.9,738.1 c 0,2.3 -1.3,3.6 -3.3,3.6 -2,0 -2.3,-0.6 -2.8,-1.6 0,-0.2 -0.2,-0.4 -0.2,-0.5 0,-0.4 0.3,-0.6 0.6,-0.6 0.3,0 0.5,0.2 0.7,0.5 0.3,0.7 0.9,1.1 1.6,1.1 1.1,0 1.8,-0.9 1.8,-2.4 0,-1.5 -0.7,-2.4 -1.8,-2.4 -1.1,0 -1.3,0.3 -1.6,1 -0.1,0.3 -0.3,0.5 -0.6,0.5 -0.3,0 -0.7,-0.3 -0.7,-0.7 v -0.5 c 0.4,-1 1.5,-1.6 2.8,-1.6 2.1,0 3.4,1.4 3.4,3.6 z"
   id="path146" />
					<path
   class="st3"
   d="m 521.9,736.1 c 0,1 -0.7,1.5 -2,1.6 h -1.3 v 0.4 c 0,0.5 0.3,0.8 0.9,0.8 0.6,0 0.7,0 1,-0.5 0.2,-0.2 0.3,-0.3 0.6,-0.3 0.3,0 0.6,0.2 0.6,0.5 v 0.3 c -0.2,0.6 -1.1,1 -2.2,1 -1.1,0 -2.2,-0.7 -2.2,-1.8 v -3 c 0,-0.5 0.3,-0.7 0.7,-0.7 0.4,0 0.7,0.2 0.7,0.6 v 0.3 0 c 0.3,-0.6 1,-0.9 1.6,-0.9 1,0 1.8,0.6 1.8,1.6 h -0.2 v 0 z m -3.3,0.5 v 0.4 h 1.1 c 0.5,0 0.8,-0.4 0.8,-0.7 0,-0.3 -0.3,-0.6 -0.8,-0.6 -0.5,0 -1.1,0.4 -1.1,1 v 0 z"
   id="path147" />
					<path
   class="st3"
   d="m 515.1,735.3 1.4,3.7 v 0.4 c 0,0.4 -0.3,0.6 -0.7,0.6 -0.4,0 -0.6,-0.2 -0.7,-0.6 l -1.1,-3.5 v 0 l -1.1,3.5 c 0,0.4 -0.3,0.6 -0.7,0.6 -0.4,0 -0.7,-0.3 -0.7,-0.6 V 739 l 1.4,-3.7 c 0.2,-0.5 0.5,-0.7 1,-0.7 0.5,0 0.8,0.2 1,0.7 z"
   id="path148" />
					<path
   class="st3"
   d="m 511.3,737.2 c 0,1.7 -1,2.8 -2.5,2.8 -1.5,0 -2.5,-1 -2.5,-2.4 0,-1.4 0.2,-0.6 0.6,-0.6 h 3 c 0,-0.8 -0.5,-1.3 -1.2,-1.3 -0.7,0 -0.9,0.2 -1.2,0.6 -0.2,0.2 -0.3,0.2 -0.5,0.2 -0.3,0 -0.6,-0.2 -0.6,-0.5 v -0.3 c 0.3,-0.6 1.2,-1 2.2,-1 1.6,0 2.6,1 2.6,2.7 v 0 -0.2 z m -3.6,0.6 c 0,0.7 0.5,1.1 1.1,1.1 0.6,0 1.1,-0.5 1.1,-1.1 z"
   id="path149" />
					
					
					<path
   class="st3"
   d="m 699.3,612.1 v 0.5 l -1.9,5.2 c -0.2,0.6 -0.5,0.8 -1.1,0.8 -0.6,0 -0.9,-0.2 -1.1,-0.8 l -1.9,-5.2 v -0.5 c 0,-0.4 0.3,-0.7 0.7,-0.7 0.4,0 0.6,0.2 0.8,0.7 l 0.4,1.1 h 2.5 l 0.4,-1.1 c 0,-0.5 0.4,-0.7 0.8,-0.7 0.4,0 0.8,0.3 0.8,0.7 z m -4.1,2.3 0.9,2.9 v 0 l 0.9,-2.9 z"
   id="path152" />
					<path
   class="st3"
   d="m 690.1,612.3 v 5.6 c 0,0.5 -0.3,0.8 -0.7,0.8 -0.4,0 -0.7,-0.3 -0.7,-0.8 v -5.2 h -2.5 c -0.4,0 -0.7,-0.2 -0.7,-0.6 0,-0.4 0.3,-0.6 0.7,-0.6 h 3.2 c 0.5,0 0.7,0.3 0.7,0.8 z"
   id="path153" />
					<path
   class="st3"
   d="m 685.1,614.2 c 0,1.7 -1,2.7 -2.6,2.7 -1.6,0 -2.6,-1 -2.6,-2.7 0,-1.7 1,-2.7 2.6,-2.7 1.6,0 2.6,1 2.6,2.7 z m -3.8,0 c 0,1 0.5,1.6 1.1,1.6 0.6,0 1.2,-0.6 1.2,-1.6 0,-1 -0.4,-1.6 -1.2,-1.6 -0.8,0 -1.1,0.6 -1.1,1.6 z"
   id="path154" />
					<path
   class="st3"
   d="m 679.1,612.2 v 5.8 c 0,0.5 -0.3,0.8 -0.7,0.8 -0.4,0 -0.7,-0.3 -0.7,-0.8 v -2.1 0 c -0.3,0.6 -0.9,1 -1.6,1 -1.3,0 -2.1,-1 -2.1,-2.7 0,-1.7 0.8,-2.7 2.1,-2.7 1.3,0 1.3,0.4 1.6,1 v 0 -0.3 c 0,-0.5 0.3,-0.7 0.7,-0.7 0.4,0 0.7,0.2 0.7,0.7 z m -3.7,2 c 0,1 0.4,1.6 1.2,1.6 0.8,0 1.2,-0.6 1.2,-1.6 0,-1 -0.5,-1.5 -1.2,-1.5 -0.7,0 -1.2,0.6 -1.2,1.5 z"
   id="path155" />
					<path
   class="st3"
   d="m 673.1,612.2 v 5.8 c 0,0.5 -0.3,0.8 -0.7,0.8 -0.4,0 -0.7,-0.3 -0.7,-0.8 v -2.1 0 c -0.3,0.6 -0.9,1 -1.6,1 -1.3,0 -2.1,-1 -2.1,-2.7 0,-1.7 0.8,-2.7 2.1,-2.7 1.3,0 1.3,0.4 1.6,1 v 0 -0.3 c 0,-0.5 0.3,-0.7 0.7,-0.7 0.4,0 0.7,0.2 0.7,0.7 z m -3.7,2 c 0,1 0.4,1.6 1.2,1.6 0.8,0 1.2,-0.6 1.2,-1.6 0,-1 -0.5,-1.5 -1.2,-1.5 -0.7,0 -1.2,0.6 -1.2,1.5 z"
   id="path156" />
					<path
   class="st3"
   d="m 667.4,610.3 c 0,0.3 -0.2,0.5 -0.5,0.5 h -0.2 c -0.2,0 -0.5,0 -0.7,0.5 v 0.2 l 1.6,4.4 v 0.4 c 0,0.4 -0.3,0.7 -0.7,0.7 -0.4,0 -0.6,-0.2 -0.7,-0.6 l -1.1,-3.6 v 0 l -1.1,3.6 c 0,0.4 -0.3,0.6 -0.7,0.6 -0.4,0 -0.7,-0.3 -0.7,-0.6 V 616 l 1.6,-4.4 c 0.5,-1.3 1.1,-1.8 2.2,-1.8 1.1,0 1,0.2 1,0.7 v 0 z"
   id="path157" />
					<path
   class="st3"
   d="m 120.8,492 v 5.5 c 0,0.5 -0.3,0.8 -0.7,0.8 h -2.3 c -1.3,0 -2.2,-0.7 -2.2,-1.8 0,-1.1 0.6,-1.4 1.3,-1.5 v 0 c -1,-0.1 -1.7,-0.8 -1.7,-1.7 0,-0.9 0.9,-2 2.4,-2 h 2.4 c 0.5,0 0.7,0.3 0.8,0.7 z m -2.5,3.3 c -0.8,0 -1.2,0.4 -1.2,0.9 0,0.5 0.4,0.9 1.1,0.9 h 1.2 v -1.8 z m -0.2,-3 c -0.8,0 -1.3,0.4 -1.3,1 0,0.6 0.5,1 1.3,1 h 1.2 v -2 H 118 Z"
   id="path158" />
					<path
   class="st3"
   d="m 112.4,492 v 5.6 c 0,0.5 -0.3,0.8 -0.7,0.8 -0.4,0 -0.7,-0.3 -0.7,-0.8 v -5.1 h -2.5 c -0.4,0 -0.7,-0.2 -0.7,-0.6 0,-0.4 0.3,-0.6 0.7,-0.6 h 3.2 c 0.5,0 0.7,0.3 0.7,0.7 z"
   id="path159" />
					<path
   class="st3"
   d="m 107.4,493.8 c 0,1.7 -1,2.7 -2.6,2.7 -1.6,0 -2.6,-1 -2.6,-2.7 0,-1.7 1,-2.7 2.6,-2.7 1.6,0 2.6,1 2.6,2.7 z m -3.8,0 c 0,1 0.4,1.6 1.1,1.6 0.7,0 1.2,-0.6 1.2,-1.6 0,-1 -0.4,-1.6 -1.2,-1.6 -0.8,0 -1.1,0.6 -1.1,1.6 z"
   id="path160" />
					<path
   class="st3"
   d="m 101.5,491.8 v 4 c 0,0.4 -0.3,0.7 -0.7,0.7 -0.4,0 -0.7,-0.3 -0.7,-0.7 v -0.3 0 c -0.3,0.6 -0.8,1 -1.6,1 -1.2,0 -1.8,-0.7 -1.8,-2 v -2.7 c 0,-0.5 0.3,-0.7 0.7,-0.7 0.4,0 0.7,0.2 0.7,0.7 v 2.4 c 0,0.7 0.3,1.1 1,1.1 0.7,0 1,-0.5 1,-1.1 v -2.4 c 0,-0.5 0.3,-0.7 0.7,-0.7 0.4,0 0.7,0.2 0.7,0.7 z"
   id="path161" />
					<path
   class="st3"
   d="m 95.6,490.2 v 0.4 c 0,0.3 -0.2,0.5 -0.6,0.5 -0.4,0 -0.3,0 -0.5,-0.2 -0.4,-0.4 -0.8,-0.6 -1.2,-0.6 -0.8,0 -1.2,0.4 -1.2,1.1 v 0.8 0 c 0.2,-0.6 0.8,-0.9 1.6,-0.9 1.3,0 2.1,1 2.1,2.6 0,1.6 -0.8,2.6 -2.2,2.6 -1.4,0 -1.3,-0.4 -1.6,-1 v 0 0.3 c 0,0.5 -0.3,0.7 -0.7,0.7 -0.4,0 -0.7,-0.2 -0.7,-0.7 v -4.4 c 0,-1.4 1,-2.2 2.7,-2.2 1.7,0 1.9,0.4 2.3,1 z m -3.5,3.7 c 0,0.9 0.5,1.5 1.2,1.5 0.7,0 1.2,-0.6 1.2,-1.5 0,-0.9 -0.4,-1.5 -1.2,-1.5 -0.8,0 -1.2,0.6 -1.2,1.5 z"
   id="path162" />
				<text
   xml:space="preserve"
   style="font-size:10.6667px;text-align:start;letter-spacing:0px;writing-mode:lr-tb;direction:ltr;text-anchor:start;fill:#000000"
   x="-531.53729"
   y="-316.39114"
   id="text179"
   transform="scale(-1)"><tspan
     sodipodi:role="line"
     id="tspan179"
     x="-531.53729"
     y="-316.39114"
     style="font-style:normal;font-variant:normal;font-weight:normal;font-stretch:normal;font-size:10.6667px;font-family:sans-serif;-inkscape-font-specification:sans-serif;letter-spacing:0px;fill:#ffffff">lamp</tspan></text></g>
				
					<linearGradient
   id="SVGID_1_"
   gradientUnits="userSpaceOnUse"
   x1="-857.81372"
   y1="1107.5485"
   x2="-856.81372"
   y2="1107.5485"
   gradientTransform="matrix(20.4,0,0,-6.2,17815.5,7435.7002)">
					<stop
   offset="0"
   style="stop-color:#F00000"
   id="stop162" />
					<stop
   offset="1"
   style="stop-color:#DC281E"
   id="stop163" />
				</linearGradient>
				
				
					<linearGradient
   id="SVGID_00000175315990557098680550000002305793220538902189_"
   gradientUnits="userSpaceOnUse"
   x1="-754.03278"
   y1="1037.3176"
   x2="-753.03278"
   y2="1037.3176"
   gradientTransform="matrix(6.1,0,0,-36.2,4821.1001,38214)">
					<stop
   offset="0"
   style="stop-color:#F00000"
   id="stop164" />
					<stop
   offset="1"
   style="stop-color:#DC281E"
   id="stop165" />
				</linearGradient>
				
					
				
					<linearGradient
   id="SVGID_00000076593030528902570300000016102343345794658737_"
   gradientUnits="userSpaceOnUse"
   x1="-754.03278"
   y1="1051.6855"
   x2="-753.03278"
   y2="1051.6855"
   gradientTransform="matrix(6.1,0,0,-16.7,5089.5,18081)">
					<stop
   offset="0"
   style="stop-color:#F00000"
   id="stop166" />
					<stop
   offset="1"
   style="stop-color:#DC281E"
   id="stop167" />
				</linearGradient>
				
					
				
					<linearGradient
   id="SVGID_00000164501628913390603930000002462731784339388091_"
   gradientUnits="userSpaceOnUse"
   x1="-870.56403"
   y1="1107.5323"
   x2="-869.56403"
   y2="1107.5323"
   gradientTransform="matrix(28.8,0,0,-6.2,25675.102,7452.6001)">
					<stop
   offset="0"
   style="stop-color:#F00000"
   id="stop168" />
					<stop
   offset="1"
   style="stop-color:#DC281E"
   id="stop169" />
				</linearGradient>
				
					
				
					<linearGradient
   id="SVGID_00000126310755946755259360000016081031622469863871_"
   gradientUnits="userSpaceOnUse"
   x1="-754.03278"
   y1="1034.4025"
   x2="-753.03278"
   y2="1034.4025"
   gradientTransform="matrix(6.1,0,0,-52.3,5300.1006,54714.301)">
					<stop
   offset="0"
   style="stop-color:#F00000"
   id="stop170" />
					<stop
   offset="1"
   style="stop-color:#DC281E"
   id="stop171" />
				</linearGradient>
				
					
				
					<linearGradient
   id="SVGID_00000106106795085236217540000015235812161022398096_"
   gradientUnits="userSpaceOnUse"
   x1="-866.76849"
   y1="1110.0485"
   x2="-865.76849"
   y2="1110.0485"
   gradientTransform="matrix(25.7,0,0,-6.2,22414.797,7269.5)">
					<stop
   offset="0"
   style="stop-color:#396AFC"
   id="stop172" />
					<stop
   offset="1"
   style="stop-color:#2948FF"
   id="stop173" />
				</linearGradient>
				
					
				
					<linearGradient
   id="SVGID_00000083792267219674261710000016688715304722831244_"
   gradientUnits="userSpaceOnUse"
   x1="-882.90259"
   y1="864.26782"
   x2="-882.00262"
   y2="864.26782"
   gradientTransform="matrix(0.04223631,-24.2,-6.2001,0.07365327,5655.9189,-20981.014)">
					<stop
   offset="0"
   style="stop-color:#396AFC"
   id="stop174" />
					<stop
   offset="1"
   style="stop-color:#2948FF"
   id="stop175" />
				</linearGradient>
				
				
					<linearGradient
   id="SVGID_00000170961650621921007610000006008729350615023234_"
   gradientUnits="userSpaceOnUse"
   x1="-876.69781"
   y1="1117.1779"
   x2="-875.69781"
   y2="1117.1779"
   gradientTransform="matrix(35.6,0,0,-5.9,31727.4,7020.2998)">
					<stop
   offset="0"
   style="stop-color:#396AFC"
   id="stop176" />
					<stop
   offset="1"
   style="stop-color:#2948FF"
   id="stop177" />
				</linearGradient>
				
					
				
					<linearGradient
   id="SVGID_00000088829328935405943660000013594296042944760498_"
   gradientUnits="userSpaceOnUse"
   x1="-864.61328"
   y1="1117.178"
   x2="-863.61328"
   y2="1117.178"
   gradientTransform="matrix(24.1,0,0,-5.9,21504.801,6992.2002)">
					<stop
   offset="0"
   style="stop-color:#396AFC"
   id="stop178" />
					<stop
   offset="1"
   style="stop-color:#2948FF"
   id="stop179" />
				</linearGradient>
				
					
			</g>
		</g>
	</g>
</g>
</svg>
