<?xml version="1.0" encoding="UTF-8" standalone="no"?>
<!-- Generator: Adobe Illustrator 27.9.5, SVG Export Plug-In . SVG Version: 9.03 Build 54986)  -->

<svg
   version="1.1"
   id="Layer_1"
   x="0px"
   y="0px"
   viewBox="0 0 918.9 967.1"
   style="enable-background:new 0 0 918.9 967.1;"
   xml:space="preserve"
   sodipodi:docname="bind.svg"
   inkscape:version="1.4.2 (f4327f4, 2025-05-13)"
   xmlns:inkscape="http://www.inkscape.org/namespaces/inkscape"
   xmlns:sodipodi="http://sodipodi.sourceforge.net/DTD/sodipodi-0.dtd"
   xmlns="http://www.w3.org/2000/svg"
   xmlns:svg="http://www.w3.org/2000/svg"
   xmlns:bx="https://boxy-svg.com"><defs
   id="defs179" /><sodipodi:namedview
   id="namedview179"
   pagecolor="#505050"
   bordercolor="#eeeeee"
   borderopacity="1"
   inkscape:showpageshadow="0"
   inkscape:pageopacity="0"
   inkscape:pagecheckerboard="0"
   inkscape:deskcolor="#505050"
   inkscape:zoom="0.83445354"
   inkscape:cx="458.98301"
   inkscape:cy="483.54999"
   inkscape:window-width="1920"
   inkscape:window-height="1009"
   inkscape:window-x="1912"
   inkscape:window-y="-8"
   inkscape:window-maximized="1"
   inkscape:current-layer="Layer_1" />
<style
   type="text/css"
   id="style1">
	.st0{fill:#3D3D3D;}
	.st1{fill:#535353;}
	.st2{fill:#7E7F7E;}
	.st3{fill:#FFFFFF;}
	.st4{fill:none;stroke:#B0ADB0;stroke-miterlimit:10;}
	.st5{fill:#FFFFFF;stroke:#FFFFFF;stroke-miterlimit:10;}
	.st6{fill:#37A794;}
	.st7{fill:#5BDFC5;}
	.st8{display:none;fill:url(#SVGID_1_);}
	.st9{display:none;fill:url(#SVGID_00000067930115331501619090000007654850229749386917_);}
	.st10{display:none;fill:url(#SVGID_00000170244634594021906370000002810943544625919876_);}
	.st11{display:none;fill:url(#SVGID_00000125563849518992668460000000672793488437863825_);}
	.st12{display:none;fill:url(#SVGID_00000094593369779340343620000007272530430429514425_);}
	.st13{display:none;fill:url(#SVGID_00000056427361104529726220000009468197514854341050_);}
	.st14{display:none;fill:url(#SVGID_00000005946798495444204400000012648735730485352329_);}
	.st15{display:none;fill:url(#SVGID_00000036224035175438591790000006346300785765728901_);}
	.st16{display:none;fill:url(#SVGID_00000126289565646323600910000014279206778379376271_);}
</style>
<g
   id="g179">
	<g
   id="Layer_1_00000037658078192712101640000011686730844143572904_">
		<g
   id="Layer_1-2_00000076562044785031875360000000688980036478422932_">
			<g
   id="Layer_1-2">
				<g
   id="_x3C_defs">
					<bx:export>
						<bx:file
   format="svg" />
					</bx:export>
				</g>
				<g
   id="Body_Merge">
					<path
   class="st0"
   d="M56.8,402.9v17h-3v22h3v16h30v102h13v13h-16v45l65,65h93l7-3h30.9l5,1l7-3h7l2,2h8l17-3h16l26,4v13l0,0       l6,28l6,32.1l2,8l5.1,11l6.9,17h3l5,4l12.1,15.1l7.9,9l2.1,5.1l4.9,9.9l5.1,6l10,10l7,5.1l10,12v40l2.9,5l4,7l3.9,5l6,4       l7.2,5.1l10,8v3.9l-7,9.1v3l5,9v2h45.9v-2l8.1-7v-5l3-2.9l5.1-7.1l9-14l6-9l5-13l0,0v-34l25-31h5l33-34v-2l50-49V652.2l24-12.9       h90.8v-110h6v16h43l17-17v-24l-17-19h-43v15h-33v-6h15v-37h18v-54h-66.9v-55h-24v-36h24v-59h-12.9l-19.1-20v-1h-2v-5h22v-48       h-85v6h-6v-5h-84v-1h-49v-73C494.3,58.7,469.9,6.2,469.9,6.2l-6.1-3.9h-48.9c0,0-33.2,70.6-37.1,104v73h-90v5h-6v-5h-164v67       h-62v35h7v2h-7v53h56v49h34v6h-16v18h-6v-6h-67L56.8,402.9L56.8,402.9L56.8,402.9z M256.8,566.8h48v5h-19v37h81v36h-19v-2h-59       v2h-68v-30h-13v-48H256.8z M456.8,608.9V559l11.1-11.1h22.9v-21h3v21h97v91h37v62h-51l-17,13l-6,2h-5l-17,12h-7l-20-5l-3-5h-9       l-24-12l-4-7h-25v-66h-31v12h-18v-36H456.8z M535.9,336.9h35.9v-24h13v29h-72v-5H535.9L535.9,336.9L535.9,336.9z M614.8,770.9       l-7.9,9h-12.1v7.9l-12,16l-21,27h-2v7l-22,25l-24,8h-5.9l-8.1-10h-4.9l-8.1-7v-7l-18-20v-11l-15.5-13.9v-1.5l-32.4-31.7v-6       l-2-2l-12-10v-6l6.1-27h4.9l82.1,36h11l21-5h29l44-26h3.9l6,11h3l6,10v8.9l-6,7.1l-3,11l0,0v0.2H614.8L614.8,770.9z        M741.7,432.8h5.9v61h12v6h-11.8v48h-36v41h-92v-10h26v-74h-37v12h-43v-84l22.1-11.1h51.9v-39.9h35.8v21h-7v30H741.7z        M630.4,213.9h8.4v-5h6v18h46v5h-2v1l-20,20h-99.2l-4,4v6h-16.8v-48h6v-1H630.4z M287.7,209.8v5h92l46.1-58h36.8l46.1,58h21v6       h-10v62h45.8v11h19.2v6h-27v18h-19v-17h-45v36h1v5h-1v37h36v15h-4v24h4v15h-25v48.9h25v23h-36v5h-3v-5h-62.9v79h-97.1v-12h-5       v-5h22v-27.5l0,0v-84.5h4v15h43l21-21v-20l-21-20h-43v15h-4v-5.9c-3-3.9-9.2-6.9-17-8.1h-0.4c-2.1-0.3-4.3-0.5-6.6-0.5       s-4.5,0.2-6.6,0.5h-0.4c-7.8,1.2-14,4.2-17,8.1v8.9h-43v-66h-12v-2h12v-59h24v-42h-13.1v-43h14.2v-5h6h-0.1V209.8z M86.8,282.9       v-2h55v-66.1h103.8v6h-96.8v85h-55v-23h-7V282.9z M129.8,432.9v6l12,12h36l12-12v-48h-18v-6h7l18.1-26h23.9v2h-12v52h12v25h-12       v50h48v-36h43v5h-13v55h-30v30h-133v-109L129.8,432.9L129.8,432.9z"
   id="path1" />
				</g>
				<g
   id="Bombsite">
					<rect
   x="166"
   y="238.1"
   class="st1"
   width="84.9"
   height="67"
   id="rect1" />
					<rect
   x="603"
   y="274.1"
   class="st1"
   width="96.9"
   height="97.9"
   id="rect2" />
					<polyline
   class="st2"
   points="675.2,347.6 663.2,347.6 663.2,311.6 687,311.6 687,323.6 675.2,323.6 675.2,336.6      "
   id="polyline2" />
					<rect
   x="585.3"
   y="321.5"
   class="st2"
   width="49"
   height="15"
   id="rect3" />
					<rect
   x="191.2"
   y="290.6"
   class="st2"
   width="28.9"
   height="10.9"
   id="rect4" />
					<rect
   x="177.7"
   y="267.7"
   class="st2"
   width="55.4"
   height="22.9"
   id="rect5" />
					<rect
   x="220.1"
   y="255.6"
   class="st2"
   width="12.1"
   height="12.1"
   id="rect6" />
				</g>
				<g
   id="Lines">
					<rect
   x="608.7"
   y="515.1"
   class="st3"
   width="37"
   height="1"
   id="rect7" />
					<path
   class="st3"
   d="M645,516.1v6h-6.1v-6H645 M646,515.1h-8.1v8h8.1V515.1L646,515.1z"
   id="path7" />
					<path
   class="st3"
   d="M535.7,542v5h-41.8v-5H535.7 M536.7,541h-43.8v7h43.8V541L536.7,541z"
   id="path8" />
					<path
   class="st3"
   d="M433.8,505c2.6,0,4.8,2.1,4.8,4.8c0,2.7-2.1,4.8-4.8,4.8s-4.8-2.2-4.8-4.8S431.1,505,433.8,505 M433.8,504       c-3.2,0-5.8,2.6-5.8,5.8c0,3.2,2.6,5.8,5.8,5.8s5.8-2.6,5.8-5.8S437,504,433.8,504L433.8,504z"
   id="path9" />
					<path
   class="st3"
   d="M456,597.1v10.2h-9.1v-10.2H456 M457,596.1h-11.1v12.2H457V596.1L457,596.1z"
   id="path10" />
					<path
   class="st3"
   d="M444.9,603.5v3.8h-3.7v-3.8H444.9 M445.9,602.5h-5.7v5.8h5.7V602.5L445.9,602.5z"
   id="path11" />
					<path
   class="st3"
   d="M250.8,645.1v9.7h-10v-9.7H250.8 M251.8,644.1h-12v11.7h12V644.1L251.8,644.1z"
   id="path12" />
					<path
   class="st3"
   d="M167.3,597.2l10.2,10.2v14.4L167.3,632h-14.4l-10.2-10.2v-14.4l10.2-10.2L167.3,597.2 M167.7,596.2h-15.2       L141.7,607v15.2l10.8,10.8h15.2l10.8-10.8V607L167.7,596.2L167.7,596.2z"
   id="path13" />
					<path
   class="st3"
   d="M257,393.1V408h-13.4v-14.9H257 M258,392.1h-15.4V409H258V392.1L258,392.1z"
   id="path14" />
					<path
   class="st3"
   d="M257,396.1v9h-10.3v-9H257 M258,395.1h-12.3v11H258V395.1L258,395.1z"
   id="path15" />
					<path
   class="st3"
   d="M256.1,349.1v8.1H247v-8.1H256.1 M257.1,348.1H246v10.1h11.1V348.1L257.1,348.1z"
   id="path16" />
					<rect
   x="220.4"
   y="359.1"
   class="st3"
   width="25.1"
   height="1"
   id="rect16" />
					
						<rect
   x="155.2"
   y="435.6"
   transform="matrix(0.7071 -0.7071 0.7071 0.7071 -256.8885 252.0005)"
   class="st3"
   width="41.1"
   height="1"
   id="rect17" />
					<path
   class="st3"
   d="M222.7,473v14H209v-14H222.7 M223.7,472H208v16h15.7V472L223.7,472z"
   id="path17" />
					<path
   class="st3"
   d="M219.7,476v11H209v-11H219.7 M220.7,475H208v13h12.7V475L220.7,475z"
   id="path18" />
					<path
   class="st3"
   d="M346.7,464v9h-10v-9H346.7 M347.7,463h-12v11h12V463L347.7,463z"
   id="path19" />
					<path
   class="st3"
   d="M122.8,336.1v23H112v-23H122.8 M123.8,335.1H111v25h12.8V335.1L123.8,335.1z"
   id="path20" />
					<path
   class="st3"
   d="M159.8,294v10.1h-10V294H159.8 M160.8,293h-12v12.1h12V293L160.8,293z"
   id="path21" />
					<path
   class="st3"
   d="M231.7,256.1v11h-11v-11H231.7 M232.7,255.1h-13v13h13V255.1L232.7,255.1z"
   id="path22" />
					<path
   class="st3"
   d="M232.7,268.1v22h-54v-22H232.7 M233.7,267.1h-56v24h56V267.1L233.7,267.1z"
   id="path23" />
					<path
   class="st3"
   d="M219.7,291v10h-28v-10H219.7 M220.7,290h-30v12h30V290L220.7,290z"
   id="path24" />
					<path
   class="st3"
   d="M686.7,676.1v4h-5v-4H686.7 M687.7,675.1h-7v6h7V675.1L687.7,675.1z"
   id="path25" />
					<path
   class="st3"
   d="M686.7,663.1v11h-11v-11H686.7 M687.7,662.1h-13v13h13V662.1L687.7,662.1z"
   id="path26" />
					<path
   class="st3"
   d="M802.8,583.1v1h-48v-1H802.8 M803.8,582.1h-50v3h50V582.1L803.8,582.1z"
   id="path27" />
					<path
   class="st3"
   d="M802.8,585.1v6h-12v-6H802.8 M803.8,584.1h-14v8h14V584.1L803.8,584.1z"
   id="path28" />
					<path
   class="st3"
   d="M722.7,548.1v11h-10v-11H722.7 M723.7,547.1h-12v13h12V547.1L723.7,547.1z"
   id="path29" />
					<path
   class="st3"
   d="M717.7,560v5h-5v-5H717.7 M718.7,559h-7v7h7V559L718.7,559z"
   id="path30" />
					<path
   class="st3"
   d="M565.7,433.1v29h-11v-29H565.7 M566.7,432.1h-13v31h13V432.1L566.7,432.1z"
   id="path31" />
					<path
   class="st3"
   d="M565.7,457.1v5h-11v-5H565.7 M566.7,456.1h-13v7h13V456.1L566.7,456.1z"
   id="path32" />
					<path
   class="st3"
   d="M564.7,342.3v22.8h-10v-22.8H564.7 M565.7,341.3h-12v24.8h12V341.3L565.7,341.3z"
   id="path33" />
					<path
   class="st3"
   d="M564.7,360.1v5h-10v-5H564.7 M565.7,359.1h-12v7h12V359.1L565.7,359.1z"
   id="path34" />
					<path
   class="st3"
   d="M633.7,322.1v14h-48v-14H633.7 M634.7,321.1h-50v16h50V321.1L634.7,321.1z"
   id="path35" />
					<rect
   x="662.7"
   y="311.1"
   class="st3"
   width="25.1"
   height="1"
   id="rect35" />
					<rect
   x="686.8"
   y="311.6"
   class="st3"
   width="1"
   height="12.5"
   id="rect36" />
					<rect
   x="674.7"
   y="323.1"
   class="st3"
   width="12.7"
   height="1"
   id="rect37" />
					<rect
   x="674.8"
   y="323.6"
   class="st3"
   width="1"
   height="23.8"
   id="rect38" />
					<rect
   x="662.8"
   y="347.1"
   class="st3"
   width="13"
   height="1"
   id="rect39" />
					<rect
   x="662.8"
   y="311.9"
   class="st3"
   width="1"
   height="35.6"
   id="rect40" />
					<path
   class="st3"
   d="M741,348v20h-6.2v-20H741 M742,347h-8.2v22h8.2V347L742,347z"
   id="path40" />
					<rect
   x="675"
   y="400"
   class="st3"
   width="6.8"
   height="2"
   id="rect41" />
					<rect
   x="705.7"
   y="400"
   class="st3"
   width="36.4"
   height="2"
   id="rect42" />
					<path
   class="st3"
   d="M741,388.1v11.1h-22v-11.1H741 M742,387.1h-24v13.1h24V387.1L742,387.1z"
   id="path42" />
					<rect
   x="729.7"
   y="387.8"
   class="st3"
   width="1"
   height="11.8"
   id="rect43" />
					<circle
   class="st4"
   cx="593.8"
   cy="635"
   r="2.7"
   id="circle43" />
					<rect
   x="620"
   y="547"
   class="st3"
   width="1"
   height="31.6"
   id="rect44" />
					<path
   class="st3"
   d="M638.8,382.3v8.7h-10v-8.7H638.8 M639.8,381.3h-12V392h12V381.3L639.8,381.3z"
   id="path44" />
					<rect
   x="668.6"
   y="251.3"
   class="st3"
   width="60.4"
   height="1"
   id="rect45" />
					<path
   class="st3"
   d="M463.7,5.1v10h-10v-10L463.7,5.1 M464.7,4.1h-12v12h12V4.1L464.7,4.1z"
   id="path45" />
					<rect
   x="663.5"
   y="323.1"
   class="st3"
   width="13"
   height="1"
   id="rect46" />
					<circle
   class="st4"
   cx="739.9"
   cy="287.1"
   r="2.7"
   id="circle46" />
				</g>
				<g
   id="Outlines">
					<path
   class="st5"
   d="M464,1l6.1,3.9c0,0,24.4,52.5,35.9,100.1v72.9h49.1v1h84v5h6v-6h85v48h-22v5h2v1l19.1,20h12.9v59h-24v36       h24v55H809v54h-18v37h-15v6h33v-15h43l17,19v24l-17,17h-43v-16h-6v110h-90.8l-24,12.9v105.1l-50,49v2l-33,34h-5l-25,31v34l0,0       l-5,13l-6,9l-9,14l-5.1,7.1l-3,2.9v5l-8.1,7v2h-45.9v-2l-5-9v-3l7-9.1v-3.9l-10-8l-7.2-5.1l-6-4l-3.9-5l-4-7l-2.9-5v-40l-10-12       l-7-5.1l-10-10l-5.1-6l-4.9-9.9l-2.1-5.1l-7.9-9L402,792.6l-5-4h-3l-6.9-17l-5.1-11l-2-8l-6-32.1l-6-28l0,0v-13l-26-4h-16       l-17,3h-8l-2-2h-7l-7,3l-5-1h-30.9l-7,3h-93l-65-65v-45h16v-13h-13v-102h-30v-16h-3v-22h3v-17h67v6h6v-18h16v-6h-34v-49h-56       v-53h7v-2h-7v-35h62v-67h164v5h6v-5h90v-73c3.8-33.4,37.1-104,37.1-104h48.9 M287.9,214v-5h-6v5h-14.2v43h13.1v42h-24v59h-12v2       h12v66h43v-8.9c3-3.9,9.2-6.9,17-8.1h0.4c2.1-0.3,4.3-0.5,6.6-0.5s4.5,0.2,6.6,0.5h0.4c7.8,1.2,14,4.2,17,8.1v5.9h4v-15h43       l21,20v20l-21,21h-43v-15h-4v84.5l0,0V566h-22v5h5v12h97.1v-79h62.9v5h3v-5h36v-23h-25v-48.9h25v-15h-4v-24h4v-15h-36v-37h1v-5       h-1v-36h45v17h19v-18h27v-6h-19.2v-11h-45.8v-62h10v-6h-21l-46.1-58h-36.8l-46.1,58h-92 M548.9,262h16.8v-6l4-4h99.2l20-20v-1       h2v-5h-46v-18h-6v5h-84v1h-6V262 M86.9,282.1h7v23h55v-85h96.8v-6H141.9v66.1h-55v2 M536,336.1h-23.2v5h72v-29h-13v24h-35.9        M171.9,390.1h18v48l-12,12h-36l-12-12v-6h-6v109h133v-30h30v-55h13v-5h-43v36h-48v-50h12v-25h-12v-52h12v-2H197l-18.1,26h-7       V390.1 M565.9,516.1h43v-12h37v74h-26v10h92v-41h36v-48h11.8v-6h-12v-61h-79v-30h7v-21h-35.8V421H588l-22.1,11.1V516.1        M390.9,644.1h18v-12h31v66h25l4,7l24,12h9l3,5l20,5h7l17-12h5l6-2l17-13h51v-62h-37v-91h-97v-21h-3v21H468l-11.1,11.1v49.9       H391v36 M207.9,614.1h13v30h68v-2h59v2h19v-36h-81v-37h19v-5h-97V614.1 M417.9,717.1H413l-6.1,27v6l12,10l2,2v6l32.5,31.7v1.5       l15.5,13.9v11l18,20v7l8.1,7h4.9l8.1,9.9h5.9l24-8l22-25v-7h2l21-27l12-16v-7.9H607l7.9-9l3-11l6-7.1v-8.9l-6-10h-3l-6-11H605       l-44,26h-29l-21,5h-11l-82-35.9l0,0 M464.3,0h-49.9l-0.3,0.6c-0.3,0.7-33.3,71.1-37.1,104.3l0,0V177h-90v5h-3.9v-5H116.9v67       h-62v92.1h56v49h34v3.9h-16v18H125v-6H55.9v17h-3v24.1h3v16h30v102h13V571h-16v46.5l0.3,0.3l65,65l0.3,0.3h93.9l6.8-3h30.6       l4.9,0.9h0.6l6.8-2.9h6.4l1.7,1.7l0.3,0.3h8.6l16.9-3h15.8l25.1,3.8V694h0.2l5.8,27.2l6,32l0,0l2,8l0,0v0.2l5.1,11l6.9,16.9       l0.3,0.7h3.3l4.6,3.7l12.1,15l7.9,8.8l2,4.9l0,0l4.9,9.9l0,0v0.2l5.1,6l0,0l10,10l0,0l6.9,5.1l9.7,11.6v40.1c0.1,0,3,5,3,5l4,7       l0,0l3.9,5.1h0.1v0.2c0.1,0,6.1,4,6.1,4l7.1,5l9.6,7.7v3l-6.8,8.8l-0.2,0.3v3.8c0.1,0,5,8.8,5,8.8v2.8h48v-2.5l7.7-6.7l0.4-0.3       v-5l2.7-2.6l0,0l5.1-7.2l0,0l9-14l6-9l0,0v-0.2l5-13v-34l24.5-30.3h4.9l0.3-0.3l33-34l0.3-0.3v-2l49.7-48.7l0.3-0.3V651.5       l23.2-12.5h91.6V529h3.9v16h44.5l0.3-0.3l17-17l0.3-0.3v-24.8l-0.3-0.3l-17-19l-0.3-0.4h-44.5v15h-30.9V494h15v-37h18v-56.1       h-66.9v-55h-24V312h24v-61.1h-13.5l-18.5-19.4v-1.6h-2V227h22v-50.1h-87.1v6h-3.9v-5h-84v-1h-49v-72.1l0,0       c-11.4-47.3-35.8-99.9-36-100.4V4.1c-0.1,0-0.4-0.2-0.4-0.2L463.8,0l-0.3-0.2l0,0L464.3,0z M426.6,157.1h35.8l45.8,57.6       l0.3,0.4H529v3.9h-10v64.1h45.8v11H584v3.9h-27v18h-16.9v-17H493v38.1h1v2.9h-1v39.1h36V392h-4v26.1h4V431h-25v51h25v20.9h-36       v5h-0.9v-5h-65v79h-95v-12h-5V567h22V455h1.9v15h44.5l0.3-0.3l21-21l0.3-0.3v-20.9l-0.3-0.3l-21-20l-0.3-0.3H351v15h-1.9v-5.2       l-0.2-0.3c-3-4-9.1-7-16.8-8.3v-0.2h-1.4c-2.2-0.3-4.4-0.5-6.6-0.5s-4.5,0.1-6.6,0.5h-1.4v0.2c-7.6,1.3-13.7,4.3-16.8,8.3       l-0.2,0.3v8.2h-40.9V300h24v-44.1h-13.1V215h14.2v-5h3.9v5h93.6l0.3-0.4l45.8-57.6L426.6,157.1L426.6,157.1z M640.1,209.1h3.9       v18h46v2.9h-2v1.6L668.6,251h-99.2l-0.3,0.3l-4,4l-0.3,0.3v5.3H550V215h6v-1h84v-5l0,0L640.1,209.1z M143,215.1h101.8v3.9H148       v85H95.1v-22.9h48V215H143V215.1z M573.1,313.1H584V340h-69.9v-2.9h59V313.1L573.1,313.1z M197.7,359.1H208v54h12V436h-12v52.1       h50.1v-36H299v2.9h-13v55h-30v30H125V433.1h3.9v5.4l0.3,0.3l12,12l0.3,0.3h36.9l0.3-0.3l12-12l0.3-0.3V389h-18v-3.9h6.5       l0.3-0.5l17.8-25.6l0,0L197.7,359.1z M641.1,382.1h33.7V401h-7v32.1h79v61h12v3.9H747v48h-36v41h-89.9v-7.9h26V503H608v12       h-40.9v-82.3l21.3-10.6h52.7v-39.9l0,0V382.1z M492.1,527.1h0.9v21h97v91h37V699h-50.3l-0.3,0.2l-16.9,12.9l-5.7,1.9h-5.1       l-0.3,0.2L531.6,726h-6.5l-19.5-4.9l-2.8-4.6l-0.3-0.5h-9.3l-23.5-11.7l-3.8-6.7l-0.3-0.5H441v-66h-33.1v12H392v-33.9h66v-50.5       l10.5-10.5H492v-21l0,0L492.1,527.1z M209.1,567.1H304v2.9h-19v39.1h81V643h-16.9v-2H288v2h-65.9v-30h-13V567.1L209.1,567.1z        M413.9,718.1h3.8l81.9,35.9h11.7l20.8-5h29.2l0.2-0.2l43.8-25.8h3l5.7,10.5l0.3,0.5h3.1l5.6,9.2v8.2l-5.7,6.8l-0.2,0.2v0.2       l-3,10.7l-7.4,8.5H594v8.6l-11.8,15.8l-20.6,26.6h-2.5v7.7L537.5,861l-23.6,7.8h-5.2l-7.8-9.6l-0.3-0.4h-5l-7.4-6.4v-6.9       l-0.3-0.3l-17.8-19.7v-11l-0.4-0.3l-15.2-13.6v-1.4l-0.3-0.3l-32.1-31.3v-6l-0.3-0.3l-2-2l0,0l-11.7-9.7v-5.4l5.9-26.1H413.9z"
   id="path46" />
				</g>
				<g
   id="TP_Lines_test">
					<polygon
   class="st6"
   points="431,437 436,427.1 426,427.1 420,437 420,439 426,449 436,449 431,439      "
   id="polygon46" />
					<polygon
   class="st7"
   points="431,437 436,427.1 426,427.1 420,437 420,439 426,449 436,449 431,439      "
   id="polygon47" />
					<polygon
   class="st7"
   points="517,404.1 522,394.2 512,394.1 505.9,404.1 505.9,406.1 512,416.1 522,416.1 517,406.1      "
   id="polygon48" />
					<polygon
   class="st7"
   points="887.9,513.1 893,503.1 882.9,503.1 876.9,513.1 876.9,515.1 882.9,525 893,525 887.9,515.1             "
   id="polygon49" />
					<polygon
   class="st7"
   points="44,429.1 49,419.1 39,419.1 33,429.1 33,431.1 39,441 49,441 44,431.1      "
   id="polygon50" />
					<polygon
   class="st6"
   points="909.2,508.1 906.9,508.1 893.6,508.1 891.1,513.1 891.1,515 893.7,520.1 906.9,520.1 906.9,759.1        698.5,759.1 698.5,771 918.9,771 918.9,765 918.9,759.1 918.9,508.1      "
   id="polygon51" />
					<polygon
   class="st6"
   points="12,436 33,436 33,436 30,431 30,429 33,424.1 33,424.1 0,424.1 0,434.2 0,436 0,771 8.3,771        12,771 369,771 369,759.1 12,759.1      "
   id="polygon52" />
					<polygon
   class="st6"
   points="505.9,399.1 505.9,399.1 454,399.1 454,408.9 454,411 454,432.1 436.4,432.1 433.9,437.1        433.9,439 436.4,444 454,444 454,444 466,444 466,411 505.9,411 502.9,406.1 502.9,404.1      "
   id="polygon53" />
				</g>
				<g
   id="Callouts_copy">
					
					
					
					
					
					
					
					
					
					
					
					
					
					
					
					
					
					
					
					
					
					
					
					
					
					
					
					
					
					
					
					
					
					
					
					
					
					
					
					
					
					
					
					
					
					
					
					
					
					
					
					
					
					
					
					
					
					
					
					
					
					
					
					
					
					
					
					
					
					
					
					
					
					
					
					
					
					
					
					
					
					
					
					
					
					
					
					
					
					
					
					
					
					
					
					
					
					<path
   class="st3"
   d="M184.6,259.4v-16c0-1.4,0.8-2.2,2.1-2.2h6.8c3.8,0,6.2,2,6.2,5.1s-1.7,4.1-3.8,4.4l0,0       c2.8,0.3,4.8,2.4,4.8,5.1c0,2.7-2.7,5.8-7.1,5.8h-6.9C185.3,261.6,184.6,260.8,184.6,259.4L184.6,259.4z M191.9,249.7       c2.3,0,3.6-1,3.6-2.7s-1.1-2.6-3.1-2.6h-3.5v5.3h3.1H191.9z M192.5,258.5c2.5,0,3.8-1,3.8-3s-1.4-2.9-3.9-2.9h-3.6v5.9H192.5z"
   id="path150" />
					<path
   class="st3"
   d="M650.8,304.6c-1.1,0-1.8-0.6-2.2-1.9l-1.1-3.2h-7.4l-1.1,3.2c-0.4,1.3-1,1.9-2.2,1.9s-2.1-0.8-2.1-2       s0-0.8,0.3-1.4l5.6-15.2c0.6-1.7,1.6-2.4,3.3-2.4s2.6,0.8,3.2,2.4l5.6,15.2c0.2,0.5,0.3,1,0.3,1.4       C653,303.8,652.2,304.6,650.8,304.6L650.8,304.6L650.8,304.6z M646.6,296.1l-2.7-8.4l0,0l-2.7,8.4H646.6L646.6,296.1       L646.6,296.1z"
   id="path151" />
					
					
					
					
					
					
					
					
					
					
					
				</g>
				
					<linearGradient
   id="SVGID_1_"
   gradientUnits="userSpaceOnUse"
   x1="-857.8137"
   y1="1107.5485"
   x2="-856.8137"
   y2="1107.5485"
   gradientTransform="matrix(20.4 0 0 -6.2 17815.5 7435.7002)">
					<stop
   offset="0"
   style="stop-color:#F00000"
   id="stop162" />
					<stop
   offset="1"
   style="stop-color:#DC281E"
   id="stop163" />
				</linearGradient>
				<rect
   x="305.3"
   y="565.8"
   class="st8"
   width="20.4"
   height="6.2"
   id="rect163" />
				
					<linearGradient
   id="SVGID_00000175315990557098680550000002305793220538902189_"
   gradientUnits="userSpaceOnUse"
   x1="-754.0328"
   y1="1037.3176"
   x2="-753.0328"
   y2="1037.3176"
   gradientTransform="matrix(6.1 0 0 -36.2 4821.1001 38214)">
					<stop
   offset="0"
   style="stop-color:#F00000"
   id="stop164" />
					<stop
   offset="1"
   style="stop-color:#DC281E"
   id="stop165" />
				</linearGradient>
				
					<rect
   x="220.9"
   y="645"
   style="display:none;fill:url(#SVGID_00000175315990557098680550000002305793220538902189_);"
   width="6.1"
   height="36.2"
   id="rect165" />
				
					<linearGradient
   id="SVGID_00000076593030528902570300000016102343345794658737_"
   gradientUnits="userSpaceOnUse"
   x1="-754.0328"
   y1="1051.6855"
   x2="-753.0328"
   y2="1051.6855"
   gradientTransform="matrix(6.1 0 0 -16.7 5089.5 18081)">
					<stop
   offset="0"
   style="stop-color:#F00000"
   id="stop166" />
					<stop
   offset="1"
   style="stop-color:#DC281E"
   id="stop167" />
				</linearGradient>
				
					<rect
   x="489.3"
   y="509.5"
   style="display:none;fill:url(#SVGID_00000076593030528902570300000016102343345794658737_);"
   width="6.1"
   height="16.7"
   id="rect167" />
				
					<linearGradient
   id="SVGID_00000164501628913390603930000002462731784339388091_"
   gradientUnits="userSpaceOnUse"
   x1="-870.564"
   y1="1107.5323"
   x2="-869.564"
   y2="1107.5323"
   gradientTransform="matrix(28.8 0 0 -6.2 25675.1016 7452.6001)">
					<stop
   offset="0"
   style="stop-color:#F00000"
   id="stop168" />
					<stop
   offset="1"
   style="stop-color:#DC281E"
   id="stop169" />
				</linearGradient>
				
					<rect
   x="590.8"
   y="582.8"
   style="display:none;fill:url(#SVGID_00000164501628913390603930000002462731784339388091_);"
   width="28.8"
   height="6.2"
   id="rect169" />
				
					<linearGradient
   id="SVGID_00000126310755946755259360000016081031622469863871_"
   gradientUnits="userSpaceOnUse"
   x1="-754.0328"
   y1="1034.4025"
   x2="-753.0328"
   y2="1034.4025"
   gradientTransform="matrix(6.1 0 0 -52.3 5300.1006 54714.3008)">
					<stop
   offset="0"
   style="stop-color:#F00000"
   id="stop170" />
					<stop
   offset="1"
   style="stop-color:#DC281E"
   id="stop171" />
				</linearGradient>
				
					<rect
   x="699.9"
   y="588.9"
   style="display:none;fill:url(#SVGID_00000126310755946755259360000016081031622469863871_);"
   width="6.1"
   height="52.3"
   id="rect171" />
				
					<linearGradient
   id="SVGID_00000106106795085236217540000015235812161022398096_"
   gradientUnits="userSpaceOnUse"
   x1="-866.7685"
   y1="1110.0485"
   x2="-865.7685"
   y2="1110.0485"
   gradientTransform="matrix(25.7 0 0 -6.2 22414.7969 7269.5)">
					<stop
   offset="0"
   style="stop-color:#396AFC"
   id="stop172" />
					<stop
   offset="1"
   style="stop-color:#2948FF"
   id="stop173" />
				</linearGradient>
				
					<rect
   x="146.2"
   y="384.1"
   style="display:none;fill:url(#SVGID_00000106106795085236217540000015235812161022398096_);"
   width="25.7"
   height="6.2"
   id="rect173" />
				
					<linearGradient
   id="SVGID_00000083792267219674261710000016688715304722831244_"
   gradientUnits="userSpaceOnUse"
   x1="-882.9026"
   y1="864.2678"
   x2="-882.0026"
   y2="864.2678"
   gradientTransform="matrix(4.223631e-02 -24.2 -6.2001 7.365327e-02 5655.9189 -20981.0137)">
					<stop
   offset="0"
   style="stop-color:#396AFC"
   id="stop174" />
					<stop
   offset="1"
   style="stop-color:#2948FF"
   id="stop175" />
				</linearGradient>
				<polygon
   style="display:none;fill:url(#SVGID_00000083792267219674261710000016688715304722831244_);"
   points="257,450.3       257,426.9 263.2,426.8 263.2,450.2     "
   id="polygon175" />
				
					<linearGradient
   id="SVGID_00000170961650621921007610000006008729350615023234_"
   gradientUnits="userSpaceOnUse"
   x1="-876.6978"
   y1="1117.1779"
   x2="-875.6978"
   y2="1117.1779"
   gradientTransform="matrix(35.6 0 0 -5.9 31727.4004 7020.2998)">
					<stop
   offset="0"
   style="stop-color:#396AFC"
   id="stop176" />
					<stop
   offset="1"
   style="stop-color:#2948FF"
   id="stop177" />
				</linearGradient>
				
					<rect
   x="530.2"
   y="426"
   style="display:none;fill:url(#SVGID_00000170961650621921007610000006008729350615023234_);"
   width="35.6"
   height="5.9"
   id="rect177" />
				
					<linearGradient
   id="SVGID_00000088829328935405943660000013594296042944760498_"
   gradientUnits="userSpaceOnUse"
   x1="-864.6133"
   y1="1117.178"
   x2="-863.6133"
   y2="1117.178"
   gradientTransform="matrix(24.1 0 0 -5.9 21504.8008 6992.2002)">
					<stop
   offset="0"
   style="stop-color:#396AFC"
   id="stop178" />
					<stop
   offset="1"
   style="stop-color:#2948FF"
   id="stop179" />
				</linearGradient>
				
					<rect
   x="681.7"
   y="397.9"
   style="display:none;fill:url(#SVGID_00000088829328935405943660000013594296042944760498_);"
   width="24.1"
   height="5.9"
   id="rect179" />
			</g>
		</g>
	</g>
</g>
</svg>
