<?xml version="1.0" encoding="UTF-8" standalone="no"?>
<svg
   version="1.1"
   viewBox="0 0 976.5 956.1"
   id="svg200"
   sodipodi:docname="breeze_reverse.svg"
   inkscape:version="1.4.2 (f4327f4, 2025-05-13)"
   xmlns:inkscape="http://www.inkscape.org/namespaces/inkscape"
   xmlns:sodipodi="http://sodipodi.sourceforge.net/DTD/sodipodi-0.dtd"
   xmlns="http://www.w3.org/2000/svg"
   xmlns:svg="http://www.w3.org/2000/svg">
  <sodipodi:namedview
     id="namedview200"
     pagecolor="#505050"
     bordercolor="#eeeeee"
     borderopacity="1"
     inkscape:showpageshadow="0"
     inkscape:pageopacity="0"
     inkscape:pagecheckerboard="0"
     inkscape:deskcolor="#505050"
     inkscape:zoom="0.84405399"
     inkscape:cx="488.12043"
     inkscape:cy="478.04999"
     inkscape:window-width="1920"
     inkscape:window-height="1009"
     inkscape:window-x="1912"
     inkscape:window-y="-8"
     inkscape:window-maximized="1"
     inkscape:current-layer="svg200" />
  <defs
     id="defs1">
    <style
       id="style1">
      .cls-1, .cls-2, .cls-3 {
        fill: none;
      }

      .cls-2 {
        stroke-miterlimit: 10;
      }

      .cls-2, .cls-3 {
        stroke: #fff;
      }

      .cls-4 {
        fill: #3d3d3d;
      }

      .cls-5 {
        fill: #7e7f7e;
      }

      .cls-6 {
        fill: #fff;
      }

      .cls-3 {
        stroke-miterlimit: 10;
        stroke-width: 1px;
      }

      .cls-7 {
        fill: #535353;
      }
    </style>
  </defs>
  <!-- Generator: Adobe Illustrator 28.6.0, SVG Export Plug-In . SVG Version: 1.2.0 Build 709)  -->
  <g
     id="g200"
     transform="rotate(180,490.35,481.15)">
    <g
       id="Layer_1">
      <g
         id="Body_Merge">
        <path
           class="cls-4"
           d="m 63.4,393.3 v 0.9 h 39 v 53 h -32 v 155 h 15 v 65 h 120 v 52.9 c 6.8,36.2 37,51.1 37,51.1 h 11.9 c 8.2,3.1 8.1,10 8.1,10 v 53 l 12,61 123,48 h 8 l 75,6 v 1 h 7 l 14,-8 h 2 v -66 c -11.1,-0.3 -13,-32 -13,-32 v -3.7 c 0,-1.5 0.4,-3 1,-4.4 l 4,-8 v -4 h 58 v -14 h 9.1 v 9.9 h 9.9 c 19.6,0.7 32.5,4.5 38.4,6.6 2.2,0.8 4.2,2 5.9,3.5 l 36.7,33.1 c 1.3,1.2 3,2 4.8,2.2 l 10.9,1.5 h 11.8 l 19.6,-1.9 c 0.7,0 1.3,-0.3 1.9,-0.7 20.4,-12.8 24.1,-22.5 24.1,-22.5 v -72 h -1.1 v -39 l -6.1,-10.8 31.1,-19.8 v 0 l 28.9,-18.4 h 115.2 l -2,-17 v -10 l 2.9,-15 v -29 h -23.9 v -44 h 26 v -2 c 14.8,-8.8 49,-102 49,-102 h 22 v -72 l -163,-107 h -55 v -49 0 -27 0 -43 C 740.7,145.2 730.9,127.4 721,113.1 704.4,89.3 689.5,74.8 689.5,74.8 h -53 V 12.2 h -111 l -25,51 h -52 v 10 h -14 v -10 h -172 l -15,20 v 3 l 11,8.1 v 1.9 l -22,28.1 h -3 l -2,-2 h -4 l -71,41 h -116 l -28,27 v 189 l 51,14.1 v 0 z m 559,-62.1 v 10 H 613 v 7 h -12.6 v 41 H 613 v 59.1 h -8 v 32 h 8 v 59 0 9 h -52.6 v -46 H 611 v -20 h -8 v -36 h 8 v -5 h -22 v -15 h -63.6 v -151 h -79 v -33 0 -39 h 10 v 8 l 76,28 h 80 v 92 h 10 z m 6.6,270 v -8 h 22.4 v 8 z m -194.6,-34 v 68 h -60 l -121,-109 v -107 h 138 v 56 h 32 v 92 z m 77,195 h -86 v -10 h 11 v -29 h 66 v 29 h 9 z m -46,71 h -9 v -9 h 9 z m -41,-9 v 9 h -9 v -9 z m -195,-222 v 6 h -5 v -6 z m 192,-360 v 6 h -8 v -6 z m 28,-103.2 v 28.2 h 85 v 9 h -78 v 6 h -10 v -6 h -73 l -10,17 v 34 h 15 v 15 h 14 v 6 h -29 v 4 h -95 v -77 h 1 l 34,-42 h 2 l 13,12 h 32 v -5 h 6 v 5 h 79 v -9 h 14 z m -165.1,-20.9 -25,27.9 -6.9,-6.9 25,-27.9 z M 143.4,395.2 h 50 v -1 l 19,-20 v -2 l -11,-11 v -2 c 6.3,-8.4 64,-44 64,-44 h 2 v -13 h 95 v 66 h -108 c -29.1,7.6 -34,38 -34,38 v 41 h -45 v 4 h -6 v -4 h -26 z m 3,208 23,-21 v -103 h 6 v 2 h 31 v 109.8 0 36.2 h -60 z m 133,131 v -1 h -12 c -17.5,-2.8 -21,-19 -21,-19 v -112 h 17 v 10 l 112,97.1 v 42.9 h 16 v 10 h -16 v 62 h 9 v 9 h -36 c -5.5,-102 -69,-99 -69,-99 z m 274,41 v -13 h -7 v -9 h 14 v -120 h -56 v -66 h 56 v -7 H 613 v 33 0 177 h -50.6 v 5 h -9.1 v 0 z m 277,-179 h -81 l -17.3,71 v 0 l -34.6,22 v 0 L 676.4,655.3 V 632.1 H 669 v -81.8 0 -61.2 h -23 v -90 h 23.4 v -4 h 9 v 45 H 648 v 47 h 30.4 v 13 l 27,25 H 778 v 57 h 52.4 v 14 0 z m -115,-354 h -6 l -32,19 v 101.9 h -8 v -4.9 h -5 v -18 h -4 v -9 h 9 v -96 h 46 z m -47,-34 v -32 h -78 v -8 h 87 v 15 l 25,20 h 13 v 5 z m -219,-111 v 14 h -14 v -14 z"
           id="path1" />
      </g>
      <g
         id="Bombsite">
        <rect
           class="cls-7"
           x="77.400002"
           y="225.2"
           width="106"
           height="107"
           id="rect1" />
        <polyline
           class="cls-7"
           points="782.9 510.2 927.9 510.2 946.9 464.1 969 464.1 969 391 967.8 390.2 782.4 390.2 754.9 416.7 754.9 482.6 782.9 510.2"
           id="polyline1" />
        <rect
           class="cls-5"
           x="770"
           y="421.70001"
           width="56.200001"
           height="56.900002"
           id="rect2" />
        <rect
           class="cls-5"
           x="847.79999"
           y="421.70001"
           width="55.799999"
           height="56.900002"
           id="rect3" />
        <rect
           class="cls-5"
           x="825.90002"
           y="442.70001"
           width="21.9"
           height="15"
           id="rect4" />
        <path
           class="cls-5"
           d="m 117.5,266.6 4.8,-2.3 3.3,-0.5 4.7,0.4 3.9,1.3 3.3,1.8 2.5,2.7 2.1,3.1 1.1,2.8 c 0,0 0.6,3.3 0.6,3.5 0,0.2 -0.4,3.3 -0.4,3.3 l -0.8,3.9 -0.2,1.2 15.1,14.9 -10.6,10.7 -16.1,-16.3 -4.2,0.5 -3.6,-0.4 -2.7,-1.2 -4.5,-2.5 -1.8,-2.1 -2.1,-2.7 -1.1,-3.2 -1,-3.5 0.2,-3.3 1.3,-4.5 1.5,-2.8 2.4,-2.8 2.4,-1.9 h -0.1 z"
           id="path4" />
      </g>
      <g
         id="Lines">
        <polygon
           class="cls-2"
           points="681.2,758.6 682.9,756.2 682.9,747.5 680.8,740.7 670.7,735.7 662.8,735.7 654.7,745.8 654.7,749.8 656,750.7 656,753.7 652.1,759.8 652.1,766.8 657,769.5 668.8,771.7 672.8,771.7 "
           id="polygon4" />
        <path
           class="cls-6"
           d="m 691.2,812.7 0.6,0.5 v 5 l -5.8,9.6 -6.8,3.2 h -0.3 c 0,0 -0.2,0.4 -0.2,0.4 l -1.5,2.4 h -11.8 l -4.7,-4.7 v -8.8 l 2.6,-3.7 H 677 l 14.1,-3.9 m 0.3,-1.1 -14.6,4 h -14 l -3,4.3 v 9.5 l 5.3,5.3 h 12.7 l 1.8,-2.8 7.1,-3.3 6.1,-10.1 v -5.8 z"
           id="path5" />
        <path
           class="cls-6"
           d="m 634.4,629.2 v 2 H 613 v -2 h 21.4 m 1,-1 H 612 v 4 h 23.4 z"
           id="path6" />
        <path
           class="cls-6"
           d="m 669,629.2 v 2 h -21.6 v -2 H 669 m 1,-1 h -23.6 v 4 H 670 Z"
           id="path7" />
        <path
           class="cls-6"
           d="m 676.4,632.2 v 6 h -14 v -6 h 14 m 1,-1 h -16 v 8 h 16 z"
           id="path8" />
        <path
           class="cls-6"
           d="m 660.5,632.2 v 8 h -6 v -8 h 6 m 1,-1 h -8 v 10 h 8 z"
           id="path9" />
        <line
           class="cls-2"
           x1="655.40002"
           y1="640.70001"
           x2="676.79999"
           y2="649.70001"
           id="line9" />
        <line
           class="cls-2"
           x1="666.90002"
           y1="638.70001"
           x2="666.90002"
           y2="645.5"
           id="line10" />
        <line
           class="cls-2"
           x1="661.09998"
           y1="638.70001"
           x2="661.09998"
           y2="643"
           id="line11" />
        <path
           class="cls-6"
           d="m 807.4,655.2 v 27 h -12 v -27 h 12 m 1,-1 h -14 v 29 h 14 z"
           id="path11" />
        <path
           class="cls-6"
           d="m 797.4,526.2 v 13 H 778 v -13 h 19.4 m 1,-1 H 777 v 15 h 21.4 z"
           id="path12" />
        <path
           class="cls-6"
           d="m 739.4,511.2 v 14 h -13 v -14 h 13 m 1,-1 h -15 v 16 h 15 z"
           id="path13" />
        <path
           class="cls-6"
           d="m 747.4,519.2 v 6 h -7 v -6 h 7 m 1,-1 h -9 v 8 h 9 z"
           id="path14" />
        <path
           class="cls-6"
           d="m 682.4,411.2 v 5 h -4 v -5 h 4 m 1,-1 h -6 v 7 h 6 z"
           id="path15" />
        <path
           class="cls-6"
           d="m 697.4,397.2 v 13 h -19 v -13 h 19 m 1,-1 h -21 v 15 h 21 z"
           id="path16" />
        <path
           class="cls-6"
           d="m 691.4,397.2 v 13 h -13 v -13 h 13 m 1,-1 h -15 v 15 h 15 z"
           id="path17" />
        <polyline
           class="cls-2"
           points="700.9 291.1 700.9 396.7 677.8 396.7"
           id="polyline17" />
        <rect
           class="cls-3"
           x="731.20001"
           y="335.20001"
           width="56.799999"
           height="21"
           transform="rotate(-9.9,759.35239,345.53353)"
           id="rect17" />
        <rect
           class="cls-3"
           x="769.79999"
           y="317.70001"
           width="14.8"
           height="14.1"
           transform="rotate(-9.9,777.41692,324.99595)"
           id="rect18" />
        <rect
           class="cls-3"
           x="763.79999"
           y="326.70001"
           width="6.6999998"
           height="7"
           transform="rotate(-9.9,767.10274,329.919)"
           id="rect19" />
        <polyline
           class="cls-2"
           points="782.7 389.9 754.9 416.7 754.9 482.6 783.2 510.6"
           id="polyline19" />
        <path
           class="cls-6"
           d="m 825.4,422.2 v 56 h -55 v -56 h 55 m 1,-1 h -57 v 58 h 57 z"
           id="path19" />
        <path
           class="cls-6"
           d="m 903.4,422.2 v 56 h -55 v -56 h 55 m 1,-1 h -57 v 58 h 57 z"
           id="path20" />
        <line
           class="cls-2"
           x1="826.09998"
           y1="442.70001"
           x2="847.79999"
           y2="442.70001"
           id="line20" />
        <line
           class="cls-2"
           x1="847.70001"
           y1="457.79999"
           x2="826.20001"
           y2="457.79999"
           id="line21" />
        <line
           class="cls-2"
           x1="674"
           y1="362.5"
           x2="674"
           y2="395.89999"
           id="line22" />
        <line
           class="cls-2"
           x1="660.90002"
           y1="336.79999"
           x2="641.5"
           y2="336.79999"
           id="line23" />
        <line
           class="cls-2"
           x1="621.90002"
           y1="331.70001"
           x2="632.40002"
           y2="317.20001"
           id="line24" />
        <path
           class="cls-6"
           d="m 750.4,204.2 v 3 h -35 v -3 h 35 m 1,-1 h -37 v 5 h 37 z"
           id="path24" />
        <path
           class="cls-6"
           d="m 750.4,236.2 v 3 h -35 v -3 h 35 m 1,-1 h -37 v 5 h 37 z"
           id="path25" />
        <path
           class="cls-6"
           d="m 642.5,75.2 v 4 h -7 v -4 h 7 m 1,-1 h -9 v 6 h 9 z"
           id="path26" />
        <path
           class="cls-6"
           d="m 671.4,75.2 v 5 h -9 v -5 h 9 m 1,-1 h -11 v 7 h 11 z"
           id="path27" />
        <polyline
           class="cls-2"
           points="700.5 86.7 686 86.7 682.8 74.6"
           id="polyline27" />
        <path
           class="cls-6"
           d="m 435.4,101.2 v 6 h -4 v -6 h 4 m 1,-1 h -6 v 8 h 6 z"
           id="path28" />
        <path
           class="cls-6"
           d="m 357.4,63.2 v 4 h -6 v -4 h 6 m 1,-1 h -8 v 6 h 8 z"
           id="path29" />
        <path
           class="cls-6"
           d="m 519.4,176.2 v 19 h -14 v -19 h 14 m 1,-1 h -16 v 21 h 16 z"
           id="path30" />
        <path
           class="cls-6"
           d="m 519.4,176.2 v 12 h -14 v -12 h 14 m 1,-1 h -16 v 14 h 16 z"
           id="path31" />
        <path
           class="cls-6"
           d="m 446.4,262.2 v 5 h -9 v -5 h 9 m 1,-1 h -11 v 7 h 11 z"
           id="path32" />
        <path
           class="cls-6"
           d="m 446.4,256.2 v 5 h -13 v -5 h 13 m 1,-1 h -15 v 7 h 15 z"
           id="path33" />
        <path
           class="cls-6"
           d="m 446.4,248.2 v 13 h -13 v -13 h 13 m 1,-1 h -15 v 15 h 15 z"
           id="path34" />
        <path
           class="cls-6"
           d="m 459.8,313.9 1.4,14 -14,1.4 -1.4,-14 14,-1.4 m 0.9,-1.1 -16,1.6 1.6,16 16,-1.6 z"
           id="path35" />
        <path
           class="cls-6"
           d="m 479.3,327.7 4.6,2.2 -5.3,11.2 -4.6,-2.2 5.3,-11.2 m -0.5,-1.3 -6.2,13 6.5,3.1 6.2,-13 z"
           id="path36" />
        <path
           class="cls-6"
           d="m 510.4,347.2 v 6 h -5 v -6 h 5 m 1,-1 h -7 v 8 h 7 z"
           id="path37" />
        <path
           class="cls-6"
           d="m 525.4,347.2 v 14 h -14 v -14 h 14 m 1,-1 h -16 v 16 h 16 z"
           id="path38" />
        <path
           class="cls-6"
           d="m 426.5,310.4 2.5,12.1 -26.4,5.5 -2.5,-12.1 26.4,-5.5 m 0.7,-1.2 -28.4,5.9 2.9,14.1 28.4,-5.9 z"
           id="path39" />
        <path
           class="cls-6"
           d="m 412.4,368.2 v 57 h -21 v -3.9 h 17 v -53.1 h 4 m 1,-1 h -6 v 53.1 h -17 v 5.9 h 23 z"
           id="path40" />
        <path
           class="cls-6"
           d="m 361.4,368.2 v 16 h -13 v -16 h 13 m 1,-1 h -15 v 18 h 15 z"
           id="path41" />
        <path
           class="cls-6"
           d="m 97.4,532.2 v 12.9 h -27 v -12.9 h 27 m 1,-1 h -29 v 14.9 h 29 z"
           id="path42" />
        <path
           class="cls-6"
           d="m 82.4,532.2 v 12.9 h -12 v -12.9 h 12 m 1,-1 h -14 v 14.9 h 14 z"
           id="path43" />
        <path
           class="cls-6"
           d="m 146.4,603.2 v 7 h -61 v -7 h 61 m 1,-1 h -63 v 9 h 63 z"
           id="path44" />
        <path
           class="cls-6"
           d="m 76.4,196.2 v 28 h -28 v -28 h 28 m 1,-1 h -30 v 30 h 30 z"
           id="path45" />
        <path
           class="cls-6"
           d="m 108.4,222.3 v 1.9 h -31 v -1.9 h 31 m 1,-1 h -33 v 3.9 h 33 z"
           id="path46" />
        <path
           class="cls-6"
           d="m 76.4,333.2 v 28 h -28 v -28 h 28 m 1,-1 h -30 v 30 h 30 z"
           id="path47" />
        <path
           class="cls-6"
           d="m 50.4,225.2 v 107 h -1.9 v -107 h 1.9 m 1,-1 h -3.9 v 109 h 3.9 z"
           id="path48" />
        <path
           class="cls-6"
           d="m 126.8,264.3 c 9.1,0 16.4,7.4 16.4,16.4 0,9 -7.4,16.4 -16.4,16.4 -9,0 -16.4,-7.4 -16.4,-16.4 0,-9 7.4,-16.4 16.4,-16.4 m 0,-1 c -9.6,0 -17.4,7.8 -17.4,17.4 0,9.6 7.8,17.4 17.4,17.4 9.6,0 17.4,-7.8 17.4,-17.4 0,-9.6 -7.8,-17.4 -17.4,-17.4 z"
           id="path49" />
        <path
           class="cls-6"
           d="m 126.8,264.3 c 9.1,0 16.4,7.4 16.4,16.4 0,9 -0.4,4.4 -1.3,6.5 l -0.3,0.6 0.5,0.5 14.7,14.7 -9.8,9.8 -15.7,-15.7 -0.4,-0.4 h -0.5 c -1.2,0.4 -2.3,0.5 -3.5,0.5 -9.1,0 -16.4,-7.4 -16.4,-16.4 0,-9 7.4,-16.4 16.4,-16.4 m -0.1,-1.1 c -9.6,0 -17.4,7.8 -17.4,17.4 0,9.6 7.8,17.4 17.4,17.4 9.6,0 2.5,-0.1 3.7,-0.4 l 16.4,16.5 11.2,-11.2 -15.4,-15.4 c 0.9,-2.1 1.4,-4.5 1.4,-6.9 0,-9.6 -7.8,-17.4 -17.4,-17.4 z"
           id="path50" />
        <path
           class="cls-6"
           d="m 126.8,264.3 c 9.1,0 16.4,7.4 16.4,16.4 0,9 -0.4,4.4 -1.3,6.5 l -0.3,0.6 0.5,0.5 3.3,3.3 -9.8,9.8 -4.3,-4.3 -0.4,-0.4 h -0.5 c -1.2,0.4 -2.3,0.5 -3.5,0.5 -9.1,0 -16.4,-7.4 -16.4,-16.4 0,-9 7.4,-16.4 16.4,-16.4 m -0.1,-1.1 c -9.6,0 -17.4,7.8 -17.4,17.4 0,9.6 7.8,17.4 17.4,17.4 9.6,0 2.5,-0.1 3.7,-0.4 l 5.1,5 11.2,-11.2 -4,-4 c 0.9,-2.1 1.4,-4.5 1.4,-6.9 0,-9.6 -7.8,-17.4 -17.4,-17.4 v 0 z"
           id="path51" />
        <path
           class="cls-6"
           d="m 221.4,189.2 v 15 h -13 v -15 h 13 m 1,-1 h -15 v 17 h 15 z"
           id="path52" />
        <path
           class="cls-6"
           d="m 226.4,189.2 v 63 h -4 v -63 h 4 m 1,-1 h -6 v 65 h 6 z"
           id="path53" />
        <path
           class="cls-6"
           d="m 318.4,252.2 v 14.9 h -37 v -14.9 h 37 m 1,-1 h -39 v 16.9 h 39 z"
           id="path54" />
        <path
           class="cls-6"
           d="m 311.4,252.2 v 14.9 h -30 v -14.9 h 30 m 1,-1 h -32 v 16.9 h 32 z"
           id="path55" />
        <polyline
           class="cls-2"
           points="407.6 403.7 402.9 403.7 400.9 410.7 391.9 419.8 391.9 420.8"
           id="polyline55" />
        <rect
           class="cls-6"
           x="391.70001"
           y="247.2"
           width="41.200001"
           height="1"
           id="rect55" />
        <path
           class="cls-6"
           d="m 611.2,490.2 v 12 h -49.8 v -12 h 49.8 m 1,-1 h -51.8 v 14 h 51.8 z"
           id="path56" />
        <line
           class="cls-2"
           x1="602.90002"
           y1="547.5"
           x2="602.90002"
           y2="561.20001"
           id="line56" />
        <line
           class="cls-2"
           x1="579.90002"
           y1="547.70001"
           x2="579.90002"
           y2="560.70001"
           id="line57" />
        <polygon
           class="cls-6"
           points="147.3,602.8 148.1,602.8 148.1,602.2 147.3,602.2 "
           id="polygon57" />
        <path
           class="cls-6"
           d="m 435.5,139.2 v 6 h -6 v -4 h 3 v -2 h 3 m 1,-1 h -5 v 2 h -3 v 6 h 8 z"
           id="path57" />
        <rect
           class="cls-1"
           x="424.39999"
           y="62.200001"
           width="11"
           height="5"
           id="rect57" />
        <path
           class="cls-6"
           d="m 434.5,63.2 v 5 h -4 v -2 h -5 v -3 h 9 m 1,-1 h -11 v 5 h 5 v 2 h 6 z"
           id="path58" />
        <path
           class="cls-6"
           d="m 322.1,588.1 9.7,8.8 -2.2,2.5 -9.7,-8.8 2.2,-2.5 m 0,-1.4 -3.5,3.9 11.2,10.1 3.5,-3.9 z"
           id="path59" />
        <path
           class="cls-6"
           d="m 814.4,676.2 v 6 h -6 v -6 h 6 m 1,-1 h -8 v 8 h 8 z"
           id="path60" />
        <path
           class="cls-6"
           d="m 892.8,668.2 1.7,14 h -9 v -14 h 7.4 m 0.8,-1 h -9.3 v 16 h 11.2 z"
           id="path61" />
        <path
           class="cls-6"
           d="m 829.4,596.2 v 13 h -13 v -13 h 13 m 1,-1 h -15 v 15 h 15 z"
           id="path62" />
        <path
           class="cls-6"
           d="m 449.4,490.3 v 5.9 h -7 v -5.9 h 7 m 1,-1 h -9 v 7.9 h 9 z"
           id="path63" />
        <path
           class="cls-6"
           d="m 429.4,504.2 v 6 h -6 v -6 h 6 m 1,-1 h -8 v 8 h 8 z"
           id="path64" />
        <path
           class="cls-6"
           d="m 507.4,476.2 v 13 h -24.3 l 0.6,1.4 c 0.9,2.1 1.4,4.3 1.4,6.5 0,8.8 -7.2,16 -16,16 -8.8,0 -12,-3.7 -14.6,-9.4 l -0.3,-0.6 h -30.9 v -27 h 38.1 v 6.8 l 1.4,-0.6 c 2,-0.8 4.1,-1.3 6.2,-1.3 3.1,0 6.2,0.9 8.8,2.6 l 1.5,1 V 476 h 28 m 1.1,-0.8 h -30 v 7.8 c -2.7,-1.8 -5.9,-2.8 -9.3,-2.8 -3.4,0 -4.6,0.5 -6.6,1.3 v -6.3 h -40.1 v 29 h 31.2 c 2.7,5.9 8.6,10 15.5,10 6.9,0 17,-7.6 17,-17 0,-9.4 -0.5,-4.8 -1.5,-7 h 23.8 z"
           id="path65" />
        <path
           class="cls-6"
           d="m 64.4,269.2 v 26 h -13 v -26 h 13 m 1,-1 h -15 v 28 h 15 z"
           id="path66" />
        <path
           class="cls-6"
           d="m 47.4,290.2 v 7 h -7 v -7 h 7 m 1,-1 h -9 v 9 h 9 z"
           id="path67" />
        <path
           class="cls-6"
           d="m 47.4,298.2 v 40 h -14 v -40 h 14 m 1,-1 h -16 v 42 h 16 z"
           id="path68" />
        <path
           class="cls-6"
           d="m 47.4,339.2 v 6 h -6 v -6 h 6 m 1,-1 h -8 v 8 h 8 z"
           id="path69" />
        <rect
           class="cls-6"
           x="108.6"
           y="224.2"
           width="65.800003"
           height="1"
           id="rect69" />
        <ellipse
           class="cls-2"
           cx="469"
           cy="497.20001"
           rx="16.5"
           ry="16.6"
           id="ellipse69" />
        <rect
           class="cls-6"
           x="422.79999"
           y="489.29999"
           width="31.5"
           height="1"
           id="rect70" />
        <path
           class="cls-6"
           d="m 540,426.2 v 12 h -13 v -12 h 13 m 1,-1 h -15 v 14 h 15 z"
           id="path70" />
      </g>
      <g
         id="Outlines">
        <path
           class="cls-6"
           d="m 636.4,12.2 v 63 h 53 c 0,0 14.9,14.5 31.5,38.3 10,14.3 19.7,32.1 29.5,51.7 v 43 0 27 0 49 h 55 l 163,107 v 72 h -22 c 0,0 -34.2,93.2 -49,102 v 2 h -26 v 44 h 23.9 v 29 l -2.9,15 v 10 l 2,17 H 779.2 l -28.9,18.4 -31.1,19.8 6.1,10.8 v 39 h 1.1 v 72 c 0,0 -3.7,9.7 -24.1,22.5 -0.6,0.4 -1.2,0.6 -1.9,0.7 l -19.6,1.9 H 669 l -10.9,-1.5 c -1.8,-0.2 -3.4,-1 -4.8,-2.2 l -36.7,-33.1 c -1.7,-1.5 -3.7,-2.8 -5.9,-3.5 -5.8,-2.1 -18.8,-5.9 -38.4,-6.6 h -9.9 v -9.9 h -9.1 v 14 h -58 v 4 l -4,8 c -0.7,1.4 -1,2.9 -1,4.4 v 3.7 c 0,0 1.9,31.7 13,32 v 66 h -2 l -14,8 h -7 v -1 l -74.9,-6 h -8 l -123,-48 -12,-61 v -53 c 0,0 0.2,-6.9 -8.1,-10 h -11.9 c 0,0 -30.2,-14.9 -37,-51.1 v -52.9 h -120 v -65 h -15 v -155 h 32 v -53 h -39 v -0.9 l -51,-14.1 v -189 l 28,-27 h 116 l 71,-41 h 4 l 2,2 h 3 l 22,-28.1 v -1.9 l -11,-8.1 v -3 l 15,-20 h 172 v 10 h 14 v -10 h 52 l 25,-51 h 111 m -201,98.7 h 14 v -14 h -14 v 14 m -176,34.8 25,-27.9 -6.9,-6.9 -25,27.9 6.9,6.9 m 9,106.2 h 95 v -4 h 29 v -6 h -14 v -15 h -15 v -34 l 10,-17 h 73 v 6 h 10 v -6 h 78 v -9 h -85 v -31 h -14 v 9 h -79 v -5 h -6 v 5 h -32 l -13,-12 h -2 l -34,42 h -1 v 77 m 322,-76 h 78 v 32 h 47 v -5 h -13 l -25,-20 v -15 h -87 v 8 m -144,66 v 0 33 h 79 v 151 H 589 v 15 h 22 v 5 h -8 v 36 h 8 v 20 h -50.6 v 46 H 613 v -9 0 -59 h -8 v -32 h 8 v -59.1 h -12.6 v -41 H 613 v -7 h 9.4 v -10 h -10 v -92 h -80 l -76,-28 v -8 h -10 v 39 m 214.1,98.1 h 4 v 18 h 5 v 4.9 h 8 V 261.2 l 32,-19 h 6 v -7 h -46 v 96 h -9 v 9 m -247.1,-92 h 8 v -6 h -8 v 6 m -270,199 h 26 v 4 h 6 v -4 h 45 v -41 c 0,0 4.9,-30.4 34,-38 h 108 v -66 h -95 v 13 h -2 c 0,0 -57.7,35.6 -64,44 v 2 l 11,11 v 2 l -19,20 v 1 h -50 v 52 m 502.6,42 h 23 v 61.2 0 81.8 h 7.4 v 23.2 l 21.1,33.8 v 0 l 34.6,-22 17.3,-71 h 81 v -14 H 778 v -57 h -72.6 l -27,-25 v -13 H 648 v -47 h 30.4 v -45 h -9 v 4 H 646 v 90 m -271.6,146 h 60 v -68 h -11 v -92 h -32 v -56 H 253.3 v 107 l 121,109 m -227.9,-8 h 60 V 591 591 481.2 h -31 v -2 h -6 v 103 l -23,21 v 24 m 358.1,6 h 56 v 120 h -14 v 9 h 7 v 13 h 9.1 v -5 h 50.6 v -177 0 -33 h -52.6 v 7 h -56 v 66 m 124.5,-32 h 22.4 v -8 h -22.4 v 8 m -361.6,132 h 12 v 1 h 0.6 c 6.3,0 63.3,2.7 68.5,99 h 36 v -9 h -9 v -62 h 16 v -10 h -16 v -42.9 l -112,-97.1 v -10 h -17 v 112 c 0,0 3.5,16.2 21,19 m -43.1,-125 h 5 v -6 h -5 v 6 m 201,154 h 86 v -10 h -9 v -29 h -66 v 29 h -11 v 10 m 30.9,71 h 9 v -9 h -9 v 9 m -41,0 h 9 v -9 h -9 v 9 M 637.5,11.2 H 524.8 l -0.3,0.6 -24.7,50.4 h -52.4 v 10 h -11.9 v -10 H 261.9 l -0.3,0.4 -15,20 -0.2,0.3 v 3.9 l 0.4,0.3 10.6,7.7 v 1 l -21.5,27.4 h -2 l -1.7,-1.7 -0.3,-0.3 h -5 c 0,0 -70.8,41 -70.8,41 H 40 l -0.3,0.3 -28,27 -0.3,0.3 V 380 l 0.8,0.2 50.2,13.9 v 1.1 h 39 v 50.9 h -32 v 157.1 h 15 v 65 h 120 v 52 0 c 3.6,19 13.6,32.1 21.4,39.8 8.4,8.3 15.9,12 16.2,12.2 h 0.2 c 0,0 12,0 12,0 7.2,2.8 7.2,8.7 7.2,8.9 v 53 0 0.2 l 12,61 v 0.6 c 0.1,0 0.6,0.2 0.6,0.2 l 123,48 h 8.4 l 73.9,5.9 v 0 1.1 h 8.6 c 0,0 13.8,-8 13.8,-8 h 2.8 V 875 h -1 c -8.3,-0.3 -11.5,-22.4 -12,-31 v -3.7 c 0,-1.3 0.3,-2.7 0.9,-3.9 l 4,-8 v -0.2 c 0.1,0 0.1,-3.2 0.1,-3.2 h 58 v -14 h 7 v 9.9 h 11 c 19.3,0.7 32.1,4.4 38,6.5 2.1,0.8 3.9,1.9 5.6,3.3 l 36.7,33.1 c 1.5,1.3 3.3,2.2 5.3,2.5 l 10.4,1.5 v 0 c 0,0 1,0 1,0 h 12 l 19,-1.9 c 0.8,0 1.7,-0.4 2.4,-0.8 20.5,-12.8 24.4,-22.6 24.5,-23 v -73.4 h -1.1 v -38.5 c 0,0 -5.7,-9.9 -5.7,-9.9 l 30.3,-19.3 28.6,-18.2 h 116 v -1.2 c 0,0 -2.2,-16.9 -2.2,-16.9 v -9.8 l 2.9,-14.9 v 0 -30.2 h -23.9 v -41.9 h 26 v -2.5 C 913,555.2 943.6,473 947,463.9 h 22.3 v -73.6 l -0.5,-0.3 -163,-107 -0.3,-0.2 h -54.3 v -76 0 -42.4 C 739.6,141.6 730.2,125.2 721.5,112.6 705,89 690,74.3 689.9,74.1 l -0.3,-0.3 H 637.2 V 11.2 Z m -201,87.1 h 11.9 v 11.9 h -11.9 z m -182.6,40.8 23.6,-26.3 5.4,5.4 -23.6,26.3 z m 50,-4.8 h 1.1 l 12.7,11.7 0.3,0.3 h 33.5 v -5 h 3.9 v 5 h 81.1 v -9 h 11.9 v 31 h 85 v 6.9 h -78 v 6 h -7.9 v -6 h -74.6 l -0.3,0.5 -10,17 v 0.2 c -0.1,0 -0.1,35.3 -0.1,35.3 h 15 v 15 h 14 v 3.9 h -29 v 4 h -92.9 v -74.9 h 0.5 l 0.3,-0.4 33.7,-41.6 h -0.2 z m 287.6,35 h 84.9 v 14.5 l 0.4,0.3 25,20 0.3,0.2 h 12.3 v 2.9 h -44.9 v -32 h -78 z m -144,35 h 7.9 v 7.7 l 0.7,0.2 76,28 h 79.3 v 92 h 10 v 7.9 H 612 v 7 h -12.6 v 43.1 H 612 v 49.9 h -21.9 v -15 h -63.6 v -151 h -79 v -33 0 -36.9 0 z m 223,32 h 43.9 v 4.9 h -5.5 c 0,0.1 -32,19.1 -32,19.1 l -0.5,0.3 v 101.5 h -5.9 v -4.9 h -5 v -18 h -4 v -6.9 h 9 z m -256,7 h 5.9 v 3.9 h -5.9 z m -146,60 h 92.9 v 63.9 H 254.2 c -15.4,4 -24,14.4 -28.6,22.4 -4.9,8.6 -6.2,16.2 -6.2,16.5 v 0 40.1 h -45 v 4 h -3.9 v -4 h -26 v -49.9 h 50 v -1.6 l 18.7,-19.7 0.3,-0.3 v -2.9 l -0.3,-0.3 -10.7,-10.7 v -1.2 c 6.9,-8.4 59.1,-40.8 63.2,-43.4 h 2.7 v -13 0 z m 402,93 h 6.9 v 42.9 h -30.3 v -38.9 h 23.4 z m -416.1,24 h 135.9 v 56 h 32 v 92 h 11 v 65.9 H 374.8 L 254.4,525.8 Z m -83.9,60 h 3.9 v 2 h 31 v 109.8 0 34.2 h -57.9 v -22.5 l 22.6,-20.7 0.3,-0.3 v -102.5 0 z m 499.6,8 h 7.3 v 12.4 l 0.3,0.3 27,25 0.3,0.3 h 72 v 57 h 52.4 v 11.9 h -80.8 l -0.2,0.8 -17.2,70.6 -33.3,21.2 -20.4,-32.7 v -23.9 h -7.4 z m -108.6,15 H 612 v 43.9 h -50.5 z m 0,58 H 612 v 33 0 174.9 h -50.6 v 5 h -7 v -13 h -7 v -6.9 h 14 V 632.2 h -56 v -63.9 h 56 v -7 0 z m 68.6,33 h 20.3 v 5.9 h -20.3 z m -382.7,9 h 14.9 v 9.4 l 0.4,0.3 111.6,96.8 v 43.5 h 16 v 7.9 h -16 v 64.1 h 9 v 6.9 h -34 c -5.5,-94.1 -60.5,-98.8 -69,-99 v -1 h -13 c -16,-2.6 -19.7,-16.6 -20.1,-18.1 V 603.3 Z m -21.9,0 h 2.9 v 3.9 h -2.9 z m 212,121 h 63.9 v 29 h 9 v 7.9 h -83.9 v -7.9 h 11 z m 19.9,101 h 6.9 v 6.9 h -6.9 z m -41,0 h 6.9 v 6.9 h -6.9 z"
           id="path71" />
      </g>
      <g
         id="Callouts_copy">
        <path
           class="cls-6"
           d="m 108.8,236.1 v 16 c 0,1.4 -0.8,2.2 -2.1,2.2 h -6.8 c -3.8,0 -6.2,-2 -6.2,-5.1 0,-3.1 1.7,-4.1 3.8,-4.4 v 0 c -2.8,-0.3 -4.8,-2.4 -4.8,-5.1 0,-2.7 2.7,-5.9 7.1,-5.9 h 6.9 c 1.3,0 2.1,0.8 2.1,2.2 v 0 z m -7.3,9.7 c -2.3,0 -3.6,1 -3.6,2.7 0,1.7 1.2,2.6 3.1,2.6 h 3.5 v -5.3 h -3.1 v 0 z m -0.6,-8.8 c -2.5,0 -3.8,1.1 -3.8,3 0,1.9 1.4,2.9 3.9,2.9 h 3.6 V 237 Z"
           id="path174" />
        <path
           class="cls-6"
           d="m 926.3,418.5 c 1.1,0 1.8,0.6 2.2,1.9 l 1.1,3.2 h 7.4 l 1.1,-3.2 c 0.4,-1.3 1,-1.9 2.2,-1.9 1.2,0 2.1,0.8 2.1,2 0,1.2 0,0.8 -0.3,1.4 l -5.6,15.2 c -0.6,1.7 -1.6,2.4 -3.3,2.4 -1.7,0 -2.6,-0.8 -3.2,-2.4 l -5.6,-15.2 c -0.2,-0.5 -0.3,-1 -0.3,-1.4 0,-1.2 0.8,-2 2.2,-2 z m 4.2,8.4 2.7,8.4 v 0 l 2.7,-8.4 h -5.5 v 0 z"
           id="path175" />
      </g>
    </g>
  </g>
</svg>
