<?xml version="1.0" encoding="UTF-8" standalone="no"?>
<svg
   version="1.1"
   viewBox="0 0 976.5 956.1"
   id="svg200"
   sodipodi:docname="breeze.svg"
   inkscape:version="1.4.2 (f4327f4, 2025-05-13)"
   xmlns:inkscape="http://www.inkscape.org/namespaces/inkscape"
   xmlns:sodipodi="http://sodipodi.sourceforge.net/DTD/sodipodi-0.dtd"
   xmlns="http://www.w3.org/2000/svg"
   xmlns:svg="http://www.w3.org/2000/svg">
  <sodipodi:namedview
     id="namedview200"
     pagecolor="#505050"
     bordercolor="#eeeeee"
     borderopacity="1"
     inkscape:showpageshadow="0"
     inkscape:pageopacity="0"
     inkscape:pagecheckerboard="0"
     inkscape:deskcolor="#505050"
     inkscape:zoom="0.84405399"
     inkscape:cx="488.12043"
     inkscape:cy="478.04999"
     inkscape:window-width="1920"
     inkscape:window-height="1009"
     inkscape:window-x="1912"
     inkscape:window-y="-8"
     inkscape:window-maximized="1"
     inkscape:current-layer="Callouts_copy" />
  <defs
     id="defs1">
    <style
       id="style1">
      .cls-1, .cls-2, .cls-3 {
        fill: none;
      }

      .cls-2 {
        stroke-miterlimit: 10;
      }

      .cls-2, .cls-3 {
        stroke: #fff;
      }

      .cls-4 {
        fill: #3d3d3d;
      }

      .cls-5 {
        fill: #7e7f7e;
      }

      .cls-6 {
        fill: #fff;
      }

      .cls-3 {
        stroke-miterlimit: 10;
        stroke-width: 1px;
      }

      .cls-7 {
        fill: #535353;
      }
    </style>
  </defs>
  <!-- Generator: Adobe Illustrator 28.6.0, SVG Export Plug-In . SVG Version: 1.2.0 Build 709)  -->
  <g
     id="g200">
    <g
       id="Layer_1">
      <g
         id="Body_Merge">
        <path
           class="cls-4"
           d="M63.4,393.3v.9h39v53h-32v155h15v65h120v52.9c6.8,36.2,37,51.1,37,51.1h11.9c8.2,3.1,8.1,10,8.1,10v53l12,61,123,48h8l75,6v1h7l14-8h2v-66c-11.1-.3-13-32-13-32v-3.7c0-1.5.4-3,1-4.4l4-8v-4h58v-14h9.1v9.9h9.9c19.6.7,32.5,4.5,38.4,6.6,2.2.8,4.2,2,5.9,3.5l36.7,33.1c1.3,1.2,3,2,4.8,2.2l10.9,1.5h11.8l19.6-1.9c.7,0,1.3-.3,1.9-.7,20.4-12.8,24.1-22.5,24.1-22.5v-72h-1.1v-39l-6.1-10.8,31.1-19.8h0l28.9-18.4h115.2l-2-17v-10l2.9-15v-29h-23.9v-44h26v-2c14.8-8.8,49-102,49-102h22v-72l-163-107h-55v-49h0v-27h0v-43c-9.8-19.6-19.6-37.4-29.5-51.7-16.6-23.8-31.5-38.3-31.5-38.3h-53V12.2h-111l-25,51h-52v10h-14v-10h-172l-15,20v3l11,8.1v1.9l-22,28.1h-3l-2-2h-4l-71,41H40.5l-28,27v189l51,14.1h0ZM622.4,331.2v10h-9.4v7h-12.6v41h12.6v59.1h-8v32h8v59h0v9h-52.6v-46h50.6v-20h-8v-36h8v-5h-22v-15h-63.6v-151h-79v-33h0v-39h10v8l76,28h80v92h10ZM629,601.2v-8h22.4v8h-22.4ZM434.4,567.2v68h-60l-121-109v-107h138v56h32v92h11ZM511.4,762.2h-86v-10h11v-29h66v29h9v10h0ZM465.4,833.2h-9v-9h9v9ZM424.4,824.2v9h-9v-9h9ZM229.4,602.2v6h-5v-6h5ZM421.4,242.2v6h-8v-6h8ZM449.4,139v28.2h85v9h-78v6h-10v-6h-73l-10,17v34h15v15h14v6h-29v4h-95v-77h1l34-42h2l13,12h32v-5h6v5h79v-9h14v2.8h0ZM284.3,118.1l-25,27.9-6.9-6.9,25-27.9s6.9,6.9,6.9,6.9ZM143.4,395.2h50v-1l19-20v-2l-11-11v-2c6.3-8.4,64-44,64-44h2v-13h95v66h-108c-29.1,7.6-34,38-34,38v41h-45v4h-6v-4h-26v-52h0ZM146.4,603.2l23-21v-103h6v2h31v109.8h0v36.2h-60v-24h0ZM279.4,734.2v-1h-12c-17.5-2.8-21-19-21-19v-112h17v10l112,97.1v42.9h16v10h-16v62h9v9h-36c-5.5-102-69-99-69-99ZM553.4,775.2v-13h-7v-9h14v-120h-56v-66h56v-7h52.6v33h0v177h-50.6v5h-9.1,0ZM830.4,596.2h-81l-17.3,71h0l-34.6,22h0l-21.1-33.9v-23.2h-7.4v-81.8h0v-61.2h-23v-90h23.4v-4h9v45h-30.4v47h30.4v13l27,25h72.6v57h52.4v14h0ZM715.4,242.2h-6l-32,19v101.9h-8v-4.9h-5v-18h-4v-9h9v-96h46v7h0ZM668.4,208.2v-32h-78v-8h87v15l25,20h13v5h-47ZM449.4,97.2v14h-14v-14h14Z"
           id="path1" />
      </g>
      <g
         id="Bombsite">
        <rect
           class="cls-7"
           x="77.4"
           y="225.2"
           width="106"
           height="107"
           id="rect1" />
        <polyline
           class="cls-7"
           points="782.9 510.2 927.9 510.2 946.9 464.1 969 464.1 969 391 967.8 390.2 782.4 390.2 754.9 416.7 754.9 482.6 782.9 510.2"
           id="polyline1" />
        <rect
           class="cls-5"
           x="770"
           y="421.7"
           width="56.2"
           height="56.9"
           id="rect2" />
        <rect
           class="cls-5"
           x="847.8"
           y="421.7"
           width="55.8"
           height="56.9"
           id="rect3" />
        <rect
           class="cls-5"
           x="825.9"
           y="442.7"
           width="21.9"
           height="15"
           id="rect4" />
        <path
           class="cls-5"
           d="M117.5,266.6l4.8-2.3,3.3-.5,4.7.4,3.9,1.3,3.3,1.8,2.5,2.7,2.1,3.1,1.1,2.8s.6,3.3.6,3.5-.4,3.3-.4,3.3l-.8,3.9-.2,1.2,15.1,14.9-10.6,10.7-16.1-16.3-4.2.5-3.6-.4-2.7-1.2-4.5-2.5-1.8-2.1-2.1-2.7-1.1-3.2-1-3.5.2-3.3,1.3-4.5,1.5-2.8,2.4-2.8,2.4-1.9h-.1Z"
           id="path4" />
      </g>
      <g
         id="Lines">
        <polygon
           class="cls-2"
           points="668.8 771.7 672.8 771.7 681.2 758.6 682.9 756.2 682.9 747.5 680.8 740.7 670.7 735.7 662.8 735.7 654.7 745.8 654.7 749.8 656 750.7 656 753.7 652.1 759.8 652.1 766.8 657 769.5 668.8 771.7"
           id="polygon4" />
        <path
           class="cls-6"
           d="M691.2,812.7l.6.5v5l-5.8,9.6-6.8,3.2h-.3c0,0-.2.4-.2.4l-1.5,2.4h-11.8l-4.7-4.7v-8.8l2.6-3.7h13.7l14.1-3.9M691.4,811.6l-14.6,4h-14l-3,4.3v9.5l5.3,5.3h12.7l1.8-2.8,7.1-3.3,6.1-10.1v-5.8l-1.4-1.1h0Z"
           id="path5" />
        <path
           class="cls-6"
           d="M634.4,629.2v2h-21.4v-2h21.4M635.4,628.2h-23.4v4h23.4v-4h0Z"
           id="path6" />
        <path
           class="cls-6"
           d="M669,629.2v2h-21.6v-2h21.6M670,628.2h-23.6v4h23.6v-4h0Z"
           id="path7" />
        <path
           class="cls-6"
           d="M676.4,632.2v6h-14v-6h14M677.4,631.2h-16v8h16v-8h0Z"
           id="path8" />
        <path
           class="cls-6"
           d="M660.5,632.2v8h-6v-8h6M661.5,631.2h-8v10h8v-10h0Z"
           id="path9" />
        <line
           class="cls-2"
           x1="655.4"
           y1="640.7"
           x2="676.8"
           y2="649.7"
           id="line9" />
        <line
           class="cls-2"
           x1="666.9"
           y1="638.7"
           x2="666.9"
           y2="645.5"
           id="line10" />
        <line
           class="cls-2"
           x1="661.1"
           y1="638.7"
           x2="661.1"
           y2="643"
           id="line11" />
        <path
           class="cls-6"
           d="M807.4,655.2v27h-12v-27h12M808.4,654.2h-14v29h14v-29h0Z"
           id="path11" />
        <path
           class="cls-6"
           d="M797.4,526.2v13h-19.4v-13h19.4M798.4,525.2h-21.4v15h21.4v-15h0Z"
           id="path12" />
        <path
           class="cls-6"
           d="M739.4,511.2v14h-13v-14h13M740.4,510.2h-15v16h15v-16h0Z"
           id="path13" />
        <path
           class="cls-6"
           d="M747.4,519.2v6h-7v-6h7M748.4,518.2h-9v8h9v-8h0Z"
           id="path14" />
        <path
           class="cls-6"
           d="M682.4,411.2v5h-4v-5h4M683.4,410.2h-6v7h6v-7h0Z"
           id="path15" />
        <path
           class="cls-6"
           d="M697.4,397.2v13h-19v-13h19M698.4,396.2h-21v15h21v-15h0Z"
           id="path16" />
        <path
           class="cls-6"
           d="M691.4,397.2v13h-13v-13h13M692.4,396.2h-15v15h15v-15h0Z"
           id="path17" />
        <polyline
           class="cls-2"
           points="700.9 291.1 700.9 396.7 677.8 396.7"
           id="polyline17" />
        <rect
           class="cls-3"
           x="731.2"
           y="335.2"
           width="56.8"
           height="21"
           transform="translate(-48.1 135.7) rotate(-9.9)"
           id="rect17" />
        <rect
           class="cls-3"
           x="769.8"
           y="317.7"
           width="14.8"
           height="14.1"
           transform="translate(-44.3 138.5) rotate(-9.9)"
           id="rect18" />
        <rect
           class="cls-3"
           x="763.8"
           y="326.7"
           width="6.7"
           height="7"
           transform="translate(-45.3 136.8) rotate(-9.9)"
           id="rect19" />
        <polyline
           class="cls-2"
           points="782.7 389.9 754.9 416.7 754.9 482.6 783.2 510.6"
           id="polyline19" />
        <path
           class="cls-6"
           d="M825.4,422.2v56h-55v-56h55M826.4,421.2h-57v58h57v-58h0Z"
           id="path19" />
        <path
           class="cls-6"
           d="M903.4,422.2v56h-55v-56h55M904.4,421.2h-57v58h57v-58h0Z"
           id="path20" />
        <line
           class="cls-2"
           x1="826.1"
           y1="442.7"
           x2="847.8"
           y2="442.7"
           id="line20" />
        <line
           class="cls-2"
           x1="847.7"
           y1="457.8"
           x2="826.2"
           y2="457.8"
           id="line21" />
        <line
           class="cls-2"
           x1="674"
           y1="362.5"
           x2="674"
           y2="395.9"
           id="line22" />
        <line
           class="cls-2"
           x1="660.9"
           y1="336.8"
           x2="641.5"
           y2="336.8"
           id="line23" />
        <line
           class="cls-2"
           x1="621.9"
           y1="331.7"
           x2="632.4"
           y2="317.2"
           id="line24" />
        <path
           class="cls-6"
           d="M750.4,204.2v3h-35v-3h35M751.4,203.2h-37v5h37v-5h0Z"
           id="path24" />
        <path
           class="cls-6"
           d="M750.4,236.2v3h-35v-3h35M751.4,235.2h-37v5h37v-5h0Z"
           id="path25" />
        <path
           class="cls-6"
           d="M642.5,75.2v4h-7v-4h7M643.5,74.2h-9v6h9v-6h0Z"
           id="path26" />
        <path
           class="cls-6"
           d="M671.4,75.2v5h-9v-5h9M672.4,74.2h-11v7h11v-7h0Z"
           id="path27" />
        <polyline
           class="cls-2"
           points="700.5 86.7 686 86.7 682.8 74.6"
           id="polyline27" />
        <path
           class="cls-6"
           d="M435.4,101.2v6h-4v-6h4M436.4,100.2h-6v8h6v-8h0Z"
           id="path28" />
        <path
           class="cls-6"
           d="M357.4,63.2v4h-6v-4h6M358.4,62.2h-8v6h8v-6h0Z"
           id="path29" />
        <path
           class="cls-6"
           d="M519.4,176.2v19h-14v-19h14M520.4,175.2h-16v21h16v-21h0Z"
           id="path30" />
        <path
           class="cls-6"
           d="M519.4,176.2v12h-14v-12h14M520.4,175.2h-16v14h16v-14h0Z"
           id="path31" />
        <path
           class="cls-6"
           d="M446.4,262.2v5h-9v-5h9M447.4,261.2h-11v7h11v-7h0Z"
           id="path32" />
        <path
           class="cls-6"
           d="M446.4,256.2v5h-13v-5h13M447.4,255.2h-15v7h15v-7h0Z"
           id="path33" />
        <path
           class="cls-6"
           d="M446.4,248.2v13h-13v-13h13M447.4,247.2h-15v15h15v-15h0Z"
           id="path34" />
        <path
           class="cls-6"
           d="M459.8,313.9l1.4,14-14,1.4-1.4-14,14-1.4M460.7,312.8l-16,1.6,1.6,16,16-1.6-1.6-16h0Z"
           id="path35" />
        <path
           class="cls-6"
           d="M479.3,327.7l4.6,2.2-5.3,11.2-4.6-2.2,5.3-11.2M478.8,326.4l-6.2,13,6.5,3.1,6.2-13-6.5-3.1h0Z"
           id="path36" />
        <path
           class="cls-6"
           d="M510.4,347.2v6h-5v-6h5M511.4,346.2h-7v8h7v-8h0Z"
           id="path37" />
        <path
           class="cls-6"
           d="M525.4,347.2v14h-14v-14h14M526.4,346.2h-16v16h16v-16h0Z"
           id="path38" />
        <path
           class="cls-6"
           d="M426.5,310.4l2.5,12.1-26.4,5.5-2.5-12.1,26.4-5.5M427.2,309.2l-28.4,5.9,2.9,14.1,28.4-5.9-2.9-14.1h0Z"
           id="path39" />
        <path
           class="cls-6"
           d="M412.4,368.2v57h-21v-3.9h17v-53.1h4M413.4,367.2h-6v53.1h-17v5.9h23v-59h0Z"
           id="path40" />
        <path
           class="cls-6"
           d="M361.4,368.2v16h-13v-16h13M362.4,367.2h-15v18h15v-18h0Z"
           id="path41" />
        <path
           class="cls-6"
           d="M97.4,532.2v12.9h-27v-12.9h27M98.4,531.2h-29v14.9h29v-14.9h0Z"
           id="path42" />
        <path
           class="cls-6"
           d="M82.4,532.2v12.9h-12v-12.9h12M83.4,531.2h-14v14.9h14v-14.9h0Z"
           id="path43" />
        <path
           class="cls-6"
           d="M146.4,603.2v7h-61v-7h61M147.4,602.2h-63v9h63v-9h0Z"
           id="path44" />
        <path
           class="cls-6"
           d="M76.4,196.2v28h-28v-28h28M77.4,195.2h-30v30h30v-30h0Z"
           id="path45" />
        <path
           class="cls-6"
           d="M108.4,222.3v1.9h-31v-1.9h31M109.4,221.3h-33v3.9h33v-3.9h0Z"
           id="path46" />
        <path
           class="cls-6"
           d="M76.4,333.2v28h-28v-28h28M77.4,332.2h-30v30h30v-30h0Z"
           id="path47" />
        <path
           class="cls-6"
           d="M50.4,225.2v107h-1.9v-107h1.9M51.4,224.2h-3.9v109h3.9v-109h0Z"
           id="path48" />
        <path
           class="cls-6"
           d="M126.8,264.3c9.1,0,16.4,7.4,16.4,16.4s-7.4,16.4-16.4,16.4-16.4-7.4-16.4-16.4,7.4-16.4,16.4-16.4M126.8,263.3c-9.6,0-17.4,7.8-17.4,17.4s7.8,17.4,17.4,17.4,17.4-7.8,17.4-17.4-7.8-17.4-17.4-17.4h0Z"
           id="path49" />
        <path
           class="cls-6"
           d="M126.8,264.3c9.1,0,16.4,7.4,16.4,16.4s-.4,4.4-1.3,6.5l-.3.6.5.5,14.7,14.7-9.8,9.8-15.7-15.7-.4-.4h-.5c-1.2.4-2.3.5-3.5.5-9.1,0-16.4-7.4-16.4-16.4s7.4-16.4,16.4-16.4M126.8,263.3c-9.6,0-17.4,7.8-17.4,17.4s7.8,17.4,17.4,17.4,2.5-.1,3.7-.4l16.4,16.5,11.2-11.2-15.4-15.4c.9-2.1,1.4-4.5,1.4-6.9,0-9.6-7.8-17.4-17.4-17.4h.1Z"
           id="path50" />
        <path
           class="cls-6"
           d="M126.8,264.3c9.1,0,16.4,7.4,16.4,16.4s-.4,4.4-1.3,6.5l-.3.6.5.5,3.3,3.3-9.8,9.8-4.3-4.3-.4-.4h-.5c-1.2.4-2.3.5-3.5.5-9.1,0-16.4-7.4-16.4-16.4s7.4-16.4,16.4-16.4M126.8,263.3c-9.6,0-17.4,7.8-17.4,17.4s7.8,17.4,17.4,17.4,2.5-.1,3.7-.4l5.1,5,11.2-11.2-4-4c.9-2.1,1.4-4.5,1.4-6.9,0-9.6-7.8-17.4-17.4-17.4h0Z"
           id="path51" />
        <path
           class="cls-6"
           d="M221.4,189.2v15h-13v-15h13M222.4,188.2h-15v17h15v-17h0Z"
           id="path52" />
        <path
           class="cls-6"
           d="M226.4,189.2v63h-4v-63h4M227.4,188.2h-6v65h6v-65h0Z"
           id="path53" />
        <path
           class="cls-6"
           d="M318.4,252.2v14.9h-37v-14.9h37M319.4,251.2h-39v16.9h39v-16.9h0Z"
           id="path54" />
        <path
           class="cls-6"
           d="M311.4,252.2v14.9h-30v-14.9h30M312.4,251.2h-32v16.9h32v-16.9h0Z"
           id="path55" />
        <polyline
           class="cls-2"
           points="407.6 403.7 402.9 403.7 400.9 410.7 391.9 419.8 391.9 420.8"
           id="polyline55" />
        <rect
           class="cls-6"
           x="391.7"
           y="247.2"
           width="41.2"
           height="1"
           id="rect55" />
        <path
           class="cls-6"
           d="M611.2,490.2v12h-49.8v-12h49.8M612.2,489.2h-51.8v14h51.8v-14h0Z"
           id="path56" />
        <line
           class="cls-2"
           x1="602.9"
           y1="547.5"
           x2="602.9"
           y2="561.2"
           id="line56" />
        <line
           class="cls-2"
           x1="579.9"
           y1="547.7"
           x2="579.9"
           y2="560.7"
           id="line57" />
        <polygon
           class="cls-6"
           points="148.1 602.2 147.3 602.2 147.3 602.8 148.1 602.8 148.1 602.2 148.1 602.2"
           id="polygon57" />
        <path
           class="cls-6"
           d="M435.5,139.2v6h-6v-4h3v-2h3M436.5,138.2h-5v2h-3v6h8v-8h0Z"
           id="path57" />
        <rect
           class="cls-1"
           x="424.4"
           y="62.2"
           width="11"
           height="5"
           id="rect57" />
        <path
           class="cls-6"
           d="M434.5,63.2v5h-4v-2h-5v-3h9M435.5,62.2h-11v5h5v2h6v-7h0Z"
           id="path58" />
        <path
           class="cls-6"
           d="M322.1,588.1l9.7,8.8-2.2,2.5-9.7-8.8,2.2-2.5M322.1,586.7l-3.5,3.9,11.2,10.1,3.5-3.9-11.2-10.1h0Z"
           id="path59" />
        <path
           class="cls-6"
           d="M814.4,676.2v6h-6v-6h6M815.4,675.2h-8v8h8v-8h0Z"
           id="path60" />
        <path
           class="cls-6"
           d="M892.8,668.2l1.7,14h-9v-14h7.4M893.7,667.2h-9.3v16h11.2l-1.9-16h0Z"
           id="path61" />
        <path
           class="cls-6"
           d="M829.4,596.2v13h-13v-13h13M830.4,595.2h-15v15h15v-15h0Z"
           id="path62" />
        <path
           class="cls-6"
           d="M449.4,490.3v5.9h-7v-5.9h7M450.4,489.3h-9v7.9h9v-7.9h0Z"
           id="path63" />
        <path
           class="cls-6"
           d="M429.4,504.2v6h-6v-6h6M430.4,503.2h-8v8h8v-8h0Z"
           id="path64" />
        <path
           class="cls-6"
           d="M507.4,476.2v13h-24.3l.6,1.4c.9,2.1,1.4,4.3,1.4,6.5,0,8.8-7.2,16-16,16s-12-3.7-14.6-9.4l-.3-.6h-30.9v-27h38.1v6.8l1.4-.6c2-.8,4.1-1.3,6.2-1.3,3.1,0,6.2.9,8.8,2.6l1.5,1v-8.6h28M508.4,475.2h-30v7.8c-2.7-1.8-5.9-2.8-9.3-2.8s-4.6.5-6.6,1.3v-6.3h-40.1v29h31.2c2.7,5.9,8.6,10,15.5,10s17-7.6,17-17-.5-4.8-1.5-7h23.8v-15h0Z"
           id="path65" />
        <path
           class="cls-6"
           d="M64.4,269.2v26h-13v-26h13M65.4,268.2h-15v28h15v-28h0Z"
           id="path66" />
        <path
           class="cls-6"
           d="M47.4,290.2v7h-7v-7h7M48.4,289.2h-9v9h9v-9h0Z"
           id="path67" />
        <path
           class="cls-6"
           d="M47.4,298.2v40h-14v-40h14M48.4,297.2h-16v42h16v-42h0Z"
           id="path68" />
        <path
           class="cls-6"
           d="M47.4,339.2v6h-6v-6h6M48.4,338.2h-8v8h8v-8h0Z"
           id="path69" />
        <rect
           class="cls-6"
           x="108.6"
           y="224.2"
           width="65.8"
           height="1"
           id="rect69" />
        <ellipse
           class="cls-2"
           cx="469"
           cy="497.2"
           rx="16.5"
           ry="16.6"
           id="ellipse69" />
        <rect
           class="cls-6"
           x="422.8"
           y="489.3"
           width="31.5"
           height="1"
           id="rect70" />
        <path
           class="cls-6"
           d="M540,426.2v12h-13v-12h13M541,425.2h-15v14h15v-14h0Z"
           id="path70" />
      </g>
      <g
         id="Outlines">
        <path
           class="cls-6"
           d="M636.4,12.2v63h53s14.9,14.5,31.5,38.3c10,14.3,19.7,32.1,29.5,51.7v43h0v27h0v49h55l163,107v72h-22s-34.2,93.2-49,102v2h-26v44h23.9v29l-2.9,15v10l2,17h-115.2l-28.9,18.4-31.1,19.8,6.1,10.8v39h1.1v72s-3.7,9.7-24.1,22.5c-.6.4-1.2.6-1.9.7l-19.6,1.9h-11.8l-10.9-1.5c-1.8-.2-3.4-1-4.8-2.2l-36.7-33.1c-1.7-1.5-3.7-2.8-5.9-3.5-5.8-2.1-18.8-5.9-38.4-6.6h-9.9v-9.9h-9.1v14h-58v4l-4,8c-.7,1.4-1,2.9-1,4.4v3.7s1.9,31.7,13,32v66h-2l-14,8h-7v-1l-74.9-6h-8l-123-48-12-61v-53s.2-6.9-8.1-10h-11.9s-30.2-14.9-37-51.1v-52.9h-120v-65h-15v-155h32v-53h-39v-.9l-51-14.1v-189l28-27h116l71-41h4l2,2h3l22-28.1v-1.9l-11-8.1v-3l15-20h172v10h14v-10h52l25-51h111M435.4,111.2h14v-14h-14v14M259.4,146l25-27.9-6.9-6.9-25,27.9,6.9,6.9M268.4,252.2h95v-4h29v-6h-14v-15h-15v-34l10-17h73v6h10v-6h78v-9h-85v-31h-14v9h-79v-5h-6v5h-32l-13-12h-2l-34,42h-1v77M590.4,176.2h78v32h47v-5h-13l-25-20v-15h-87v8M446.4,242.2h0v33h79v151h63.6v15h22v5h-8v36h8v20h-50.6v46h52.6v-9h0v-59h-8v-32h8v-59.1h-12.6v-41h12.6v-7h9.4v-10h-10v-92h-80l-76-28v-8h-10v39M660.5,340.2h4v18h5v4.9h8v-101.9l32-19h6v-7h-46v96h-9v9M413.4,248.2h8v-6h-8v6M143.4,447.2h26v4h6v-4h45v-41s4.9-30.4,34-38h108v-66h-95v13h-2s-57.7,35.6-64,44v2l11,11v2l-19,20v1h-50v52M646,489.2h23v61.2h0v81.8h7.4v23.2l21.1,33.8h0l34.6-22,17.3-71h81v-14h-52.4v-57h-72.6l-27-25v-13h-30.4v-47h30.4v-45h-9v4h-23.4v90M374.4,635.2h60v-68h-11v-92h-32v-56h-138.1v107l121,109M146.4,627.2h60v-36.2h0v-109.8h-31v-2h-6v103l-23,21v24M504.5,633.2h56v120h-14v9h7v13h9.1v-5h50.6v-177h0v-33h-52.6v7h-56v66M629.1,601.2h22.4v-8h-22.4v8M267.5,733.2h12v1h.6c6.3,0,63.3,2.7,68.5,99h36v-9h-9v-62h16v-10h-16v-42.9l-112-97.1v-10h-17v112s3.5,16.2,21,19M224.5,608.2h5v-6h-5v6M425.5,762.2h86v-10h-9v-29h-66v29h-11v10M456.4,833.2h9v-9h-9v9M415.4,833.2h9v-9h-9v9M637.5,11.2h-112.7l-.3.6-24.7,50.4h-52.4v10h-11.9v-10h-173.6l-.3.4-15,20-.2.3v3.9l.4.3,10.6,7.7v1l-21.5,27.4h-2l-1.7-1.7-.3-.3h-5c0,0-70.8,41-70.8,41H40l-.3.3-28,27-.3.3v190.2l.8.2,50.2,13.9v1.1h39v50.9h-32v157.1h15v65h120v52h0c3.6,19,13.6,32.1,21.4,39.8,8.4,8.3,15.9,12,16.2,12.2h.2c0,0,12,0,12,0,7.2,2.8,7.2,8.7,7.2,8.9v53h0v.2l12,61v.6c.1,0,.6.2.6.2l123,48h8.4l73.9,5.9h0v1.1h8.6c0,0,13.8-8,13.8-8h2.8v-68.1h-1c-8.3-.3-11.5-22.4-12-31v-3.7c0-1.3.3-2.7.9-3.9l4-8v-.2c.1,0,.1-3.2.1-3.2h58v-14h7v9.9h11c19.3.7,32.1,4.4,38,6.5,2.1.8,3.9,1.9,5.6,3.3l36.7,33.1c1.5,1.3,3.3,2.2,5.3,2.5l10.4,1.5h0c0,0,1,0,1,0h12l19-1.9c.8,0,1.7-.4,2.4-.8,20.5-12.8,24.4-22.6,24.5-23v-73.4h-1.1v-38.5c0,0-5.7-9.9-5.7-9.9l30.3-19.3,28.6-18.2h116v-1.2c0,0-2.2-16.9-2.2-16.9v-9.8l2.9-14.9h0v-30.2h-23.9v-41.9h26v-2.5c14.7-10.2,45.3-92.4,48.7-101.5h22.3v-73.6l-.5-.3-163-107-.3-.2h-54.3v-76h0v-42.4c-11.6-22.8-21-39.2-29.7-51.8-16.5-23.6-31.5-38.3-31.6-38.5l-.3-.3h-52.4V11.2h.3ZM436.5,98.3h11.9v11.9h-11.9v-11.9h0ZM253.9,139.1l23.6-26.3,5.4,5.4-23.6,26.3-5.4-5.4h0ZM303.9,134.3h1.1l12.7,11.7.3.3h33.5v-5h3.9v5h81.1v-9h11.9v31h85v6.9h-78v6h-7.9v-6h-74.6l-.3.5-10,17v.2c-.1,0-.1,35.3-.1,35.3h15v15h14v3.9h-29v4h-92.9v-74.9h.5l.3-.4,33.7-41.6h-.2ZM591.5,169.3h84.9v14.5l.4.3,25,20,.3.2h12.3v2.9h-44.9v-32h-78v-5.9h0ZM447.5,204.3h7.9v7.7l.7.2,76,28h79.3v92h10v7.9h-9.4v7h-12.6v43.1h12.6v49.9h-21.9v-15h-63.6v-151h-79v-33h0v-36.9h0ZM670.5,236.3h43.9v4.9h-5.5c0,.1-32,19.1-32,19.1l-.5.3v101.5h-5.9v-4.9h-5v-18h-4v-6.9h9v-96h0ZM414.5,243.3h5.9v3.9h-5.9v-3.9h0ZM268.5,303.3h92.9v63.9h-107.2c-15.4,4-24,14.4-28.6,22.4-4.9,8.6-6.2,16.2-6.2,16.5h0v40.1h-45v4h-3.9v-4h-26v-49.9h50v-1.6l18.7-19.7.3-.3v-2.9l-.3-.3-10.7-10.7v-1.2c6.9-8.4,59.1-40.8,63.2-43.4h2.7v-13h0ZM670.5,396.3h6.9v42.9h-30.3v-38.9h23.4v-4h0ZM254.4,420.3h135.9v56h32v92h11v65.9h-58.5l-120.4-108.4v-105.5h0ZM170.5,480.3h3.9v2h31v109.8h0v34.2h-57.9v-22.5l22.6-20.7.3-.3v-102.5h0ZM670.1,488.3h7.3v12.4l.3.3,27,25,.3.3h72v57h52.4v11.9h-80.8l-.2.8-17.2,70.6-33.3,21.2-20.4-32.7v-23.9h-7.4v-142.9h0ZM561.5,503.3h50.5v43.9h-50.5v-43.9h0ZM561.5,561.3h50.5v33h0v174.9h-50.6v5h-7v-13h-7v-6.9h14v-122.1h-56v-63.9h56v-7h0ZM630.1,594.3h20.3v5.9h-20.3v-5.9h0ZM247.4,603.3h14.9v9.4l.4.3,111.6,96.8v43.5h16v7.9h-16v64.1h9v6.9h-34c-5.5-94.1-60.5-98.8-69-99v-1h-13c-16-2.6-19.7-16.6-20.1-18.1v-110.8h.2ZM225.5,603.3h2.9v3.9h-2.9v-3.9h0ZM437.5,724.3h63.9v29h9v7.9h-83.9v-7.9h11v-29h0ZM457.4,825.3h6.9v6.9h-6.9v-6.9h0ZM416.4,825.3h6.9v6.9h-6.9v-6.9h0Z"
           id="path71" />
      </g>
      <g
         id="Callouts_copy">
        <path
           class="cls-6"
           d="M92.7,252v-16c0-1.4.8-2.2,2.1-2.2h6.8c3.8,0,6.2,2,6.2,5.1s-1.7,4.1-3.8,4.4h0c2.8.3,4.8,2.4,4.8,5.1s-2.7,5.9-7.1,5.9h-6.9c-1.3,0-2.1-.8-2.1-2.2h0ZM100,242.3c2.3,0,3.6-1,3.6-2.7s-1.2-2.6-3.1-2.6h-3.5v5.3h3.1,0ZM100.6,251.1c2.5,0,3.8-1.1,3.8-3s-1.4-2.9-3.9-2.9h-3.6v5.9h3.7Z"
           id="path174" />
        <path
           class="cls-6"
           d="M940.2,439.5c-1.1,0-1.8-.6-2.2-1.9l-1.1-3.2h-7.4l-1.1,3.2c-.4,1.3-1,1.9-2.2,1.9s-2.1-.8-2.1-2,0-.8.3-1.4l5.6-15.2c.6-1.7,1.6-2.4,3.3-2.4s2.6.8,3.2,2.4l5.6,15.2c.2.5.3,1,.3,1.4,0,1.2-.8,2-2.2,2h0ZM936,431.1l-2.7-8.4h0l-2.7,8.4h5.5,0Z"
           id="path175" />
      </g>
    </g>
  </g>
</svg>
