<?xml version="1.0" encoding="UTF-8" standalone="no"?>
<svg
   version="1.1"
   viewBox="0 0 976.5 956.1"
   id="svg200"
   sodipodi:docname="breeze_calls_reverse.svg"
   inkscape:version="1.4.2 (f4327f4, 2025-05-13)"
   xmlns:inkscape="http://www.inkscape.org/namespaces/inkscape"
   xmlns:sodipodi="http://sodipodi.sourceforge.net/DTD/sodipodi-0.dtd"
   xmlns="http://www.w3.org/2000/svg"
   xmlns:svg="http://www.w3.org/2000/svg">
  <sodipodi:namedview
     id="namedview200"
     pagecolor="#505050"
     bordercolor="#eeeeee"
     borderopacity="1"
     inkscape:showpageshadow="0"
     inkscape:pageopacity="0"
     inkscape:pagecheckerboard="0"
     inkscape:deskcolor="#505050"
     inkscape:zoom="0.84405399"
     inkscape:cx="488.12043"
     inkscape:cy="478.04999"
     inkscape:window-width="1920"
     inkscape:window-height="1009"
     inkscape:window-x="-8"
     inkscape:window-y="-5"
     inkscape:window-maximized="1"
     inkscape:current-layer="Callouts_copy" />
  <defs
     id="defs1">
    <style
       id="style1">
      .cls-1, .cls-2, .cls-3 {
        fill: none;
      }

      .cls-2 {
        stroke-miterlimit: 10;
      }

      .cls-2, .cls-3 {
        stroke: #fff;
      }

      .cls-4 {
        fill: #3d3d3d;
      }

      .cls-5 {
        fill: #7e7f7e;
      }

      .cls-6 {
        fill: #fff;
      }

      .cls-3 {
        stroke-miterlimit: 10;
        stroke-width: 1px;
      }

      .cls-7 {
        fill: #535353;
      }
    </style>
  </defs>
  <!-- Generator: Adobe Illustrator 28.6.0, SVG Export Plug-In . SVG Version: 1.2.0 Build 709)  -->
  <g
     id="g200"
     transform="rotate(180,490.35,481.15)">
    <g
       id="Layer_1">
      <g
         id="Callouts_copy">
        <path
           class="cls-6"
           d="m 477,897.1 c 0,0.2 0,0.4 -0.1,0.6 l -2.5,6.8 c -0.3,0.7 -0.7,1.1 -1.4,1.1 -0.7,0 -1.2,-0.3 -1.5,-1.1 l -2.5,-6.8 c 0,-0.2 -0.1,-0.4 -0.1,-0.6 0,-0.5 0.4,-0.9 1,-0.9 0.6,0 0.8,0.2 1,0.8 l 0.5,1.5 h 3.3 l 0.5,-1.4 c 0.2,-0.6 0.5,-0.9 1,-0.9 0.5,0 1,0.3 1,0.9 z m -5.3,2.9 1.2,3.8 v 0 l 1.2,-3.8 z"
           id="path72" />
        <path
           class="cls-6"
           d="m 467.8,901.8 h 0.4 c 0.4,0 0.7,0.3 0.7,0.7 0,0.4 -0.3,0.7 -0.7,0.7 h -0.4 v 0.8 c 0,0.6 -0.4,1 -0.9,1 -0.5,0 -0.9,-0.4 -0.9,-1 v -0.8 h -0.6 c -0.4,0 -0.7,-0.3 -0.7,-0.7 0,-0.4 0.3,-0.7 0.7,-0.7 h 0.6 v -3.3 c 0,-0.5 -0.2,-0.7 -0.6,-0.7 h -0.1 c -0.5,0 -0.7,-0.2 -0.7,-0.7 0,-0.5 0.5,-0.8 1.3,-0.8 v 0 c 1.2,0 1.9,0.6 1.9,1.8 z"
           id="path73" />
        <path
           class="cls-6"
           d="m 463.1,901.8 h 0.4 c 0.4,0 0.7,0.3 0.7,0.7 0,0.4 -0.3,0.7 -0.7,0.7 h -0.4 v 0.8 c 0,0.6 -0.4,1 -0.9,1 -0.5,0 -0.9,-0.4 -0.9,-1 v -0.8 h -0.6 c -0.4,0 -0.7,-0.3 -0.7,-0.7 0,-0.4 0.3,-0.7 0.7,-0.7 h 0.6 v -3.3 c 0,-0.5 -0.2,-0.7 -0.6,-0.7 h -0.1 c -0.5,0 -0.7,-0.2 -0.7,-0.7 0,-0.5 0.5,-0.8 1.3,-0.8 v 0 c 1.2,0 1.9,0.6 1.9,1.8 z"
           id="path74" />
        <path
           class="cls-6"
           d="m 459.3,898.3 c 0,1.2 -1,2 -2.6,2.1 H 455 v 0.5 c 0,0.6 0.4,1 1.1,1 0.7,0 0.9,-0.2 1.3,-0.7 0.2,-0.2 0.4,-0.3 0.7,-0.3 0.5,0 0.8,0.3 0.8,0.7 0,0.4 0,0.3 -0.1,0.4 -0.3,0.8 -1.4,1.3 -2.8,1.3 -1.4,0 -2.9,-0.9 -2.9,-2.3 v -3.9 c 0,-0.6 0.4,-0.9 0.9,-0.9 0.5,0 0.9,0.3 0.9,0.8 v 0.3 0 c 0.4,-0.7 1.2,-1.2 2.1,-1.2 1.3,0 2.3,0.8 2.3,2.1 v 0 z m -4.3,0.5 v 0.5 h 1.4 c 0.7,0 1.1,-0.5 1.1,-0.9 0,-0.4 -0.4,-0.8 -1,-0.8 -0.6,0 -1.5,0.5 -1.5,1.3 v 0 z"
           id="path75" />
        <path
           class="cls-6"
           d="m 452.2,899.7 c 0,2.2 -1.3,3.5 -3.3,3.5 -2,0 -2.5,-0.7 -2.9,-1.6 0,-0.2 -0.1,-0.3 -0.1,-0.5 0,-0.5 0.4,-0.7 0.8,-0.7 0.4,0 0.6,0.2 0.8,0.5 0.3,0.6 0.8,0.9 1.3,0.9 0.9,0 1.5,-0.8 1.5,-2.1 0,-1.3 -0.6,-2.1 -1.5,-2.1 -0.9,0 -1,0.3 -1.3,0.8 -0.2,0.4 -0.5,0.5 -0.8,0.5 -0.3,0 -0.8,-0.3 -0.8,-0.7 0,-0.4 0,-0.3 0.1,-0.5 0.4,-0.9 1.6,-1.6 2.9,-1.6 2,0 3.4,1.3 3.4,3.5 h -0.1 z"
           id="path76" />
        <path
           class="cls-6"
           d="m 444.8,897.2 v 7.5 c 0,0.6 -0.4,1 -0.9,1 -0.5,0 -0.9,-0.3 -0.9,-1 v -4.2 0 l -2.5,2.5 c -0.2,0.3 -0.5,0.4 -0.7,0.4 -0.5,0 -0.8,-0.3 -0.8,-0.8 0,-0.5 0,-0.5 0.4,-0.7 l 1.7,-1.6 -1.9,-2.4 c -0.2,-0.3 -0.3,-0.4 -0.3,-0.7 0,-0.5 0.4,-0.8 0.9,-0.8 0.5,0 0.6,0 0.9,0.6 l 1.8,2.3 0.6,-0.5 v -1.4 c 0,-0.6 0.4,-1 0.9,-1 0.5,0 0.9,0.3 0.9,1 v 0 -0.2 z"
           id="path77" />
        <path
           class="cls-6"
           d="m 438.4,899.7 c 0,2.2 -1.3,3.6 -3.3,3.6 -2,0 -3.2,-1.3 -3.2,-3.2 0,-1.9 0.3,-0.8 0.8,-0.8 h 3.9 c 0,-1.1 -0.6,-1.8 -1.5,-1.8 -0.9,0 -1.1,0.2 -1.6,0.8 -0.2,0.2 -0.4,0.3 -0.6,0.3 -0.4,0 -0.7,-0.2 -0.7,-0.7 0,-0.5 0,-0.3 0.1,-0.5 0.5,-0.8 1.5,-1.3 2.8,-1.3 2.1,0 3.4,1.3 3.4,3.5 v 0 z m -4.7,0.7 c 0,0.9 0.6,1.5 1.4,1.5 0.8,0 1.4,-0.6 1.5,-1.5 z"
           id="path78" />
        <path
           class="cls-6"
           d="m 431,897.2 v 5.2 c 0,0.6 -0.4,0.9 -0.9,0.9 -0.5,0 -0.9,-0.3 -0.9,-0.9 v -0.5 0 c -0.2,0.8 -0.7,1.3 -1.4,1.3 -0.7,0 -0.4,0 -0.6,-0.2 -0.2,0 -0.3,-0.4 -0.3,-0.7 0,-0.3 0,-0.5 0.3,-0.7 0.3,-0.2 0.4,-0.2 0.8,-0.2 0.8,0 1.1,-0.5 1.1,-1.3 v -3 c 0,-0.6 0.4,-1 0.9,-1 0.5,0 0.9,0.3 0.9,1 h 0.1 z"
           id="path79" />
        <path
           class="cls-6"
           d="m 423.7,897.9 c 0,0.2 0.1,0.3 0.1,0.5 0,0.5 -0.4,0.8 -0.8,0.8 -0.4,0 -0.6,-0.2 -0.9,-0.6 -0.3,-0.7 -1,-1 -1.9,-1 -0.9,0 -1.7,0.5 -1.7,1.2 0,0.7 0.4,1 1.6,1.2 l 1,0.2 c 1.8,0.4 2.7,1.2 2.7,2.6 0,1.4 -1.5,2.8 -3.5,2.8 -2,0 -2.9,-0.7 -3.4,-1.9 v -0.4 c 0,-0.5 0.3,-0.8 0.8,-0.8 0.5,0 0.7,0.2 0.9,0.6 0.3,0.7 0.9,1 1.7,1 0.8,0 1.6,-0.4 1.6,-1.1 0,-0.7 -0.4,-0.9 -1.5,-1.1 l -1,-0.2 c -1.9,-0.4 -2.8,-1.2 -2.8,-2.6 0,-1.4 1.4,-2.9 3.7,-2.9 2.3,0 3.1,0.8 3.5,1.8 h -0.1 z"
           id="path80" />
        <path
           class="cls-6"
           d="m 415.5,894.9 v 7.5 c 0,0.6 -0.4,1 -0.9,1 -0.5,0 -0.9,-0.3 -0.9,-1 v -0.4 0 c -0.4,0.8 -1.1,1.3 -2.1,1.3 -1.7,0 -2.8,-1.3 -2.8,-3.5 0,-2.2 1,-3.5 2.8,-3.5 1.8,0 1.8,0.5 2.1,1.2 v 0 -2.6 c 0,-0.6 0.4,-1 0.9,-1 0.5,0 0.9,0.3 0.9,1 z m -4.9,4.8 c 0,1.2 0.6,2 1.5,2 0.9,0 1.5,-0.8 1.5,-2 0,-1.2 -0.6,-2 -1.5,-2 -0.9,0 -1.5,0.8 -1.5,2 z"
           id="path81" />
        <path
           class="cls-6"
           d="m 408,898.3 c 0,1.2 -1,2 -2.6,2.1 h -1.7 v 0.5 c 0,0.6 0.4,1 1.1,1 0.7,0 0.9,-0.2 1.3,-0.7 0.2,-0.2 0.4,-0.3 0.7,-0.3 0.5,0 0.8,0.3 0.8,0.7 0,0.4 0,0.3 -0.1,0.4 -0.3,0.8 -1.4,1.3 -2.8,1.3 -1.4,0 -2.9,-0.9 -2.9,-2.3 v -3.9 c 0,-0.6 0.4,-0.9 0.9,-0.9 0.5,0 0.9,0.3 0.9,0.8 v 0.3 0 c 0.4,-0.7 1.2,-1.2 2.1,-1.2 1.3,0 2.3,0.8 2.3,2.1 v 0 z m -4.3,0.5 v 0.5 h 1.4 c 0.7,0 1.1,-0.5 1.1,-0.9 0,-0.4 -0.4,-0.8 -1,-0.8 -0.6,0 -1.5,0.5 -1.5,1.3 v 0 z"
           id="path82" />
        <path
           class="cls-6"
           d="m 399.6,897.2 1.4,4.7 c 0,0.2 0.1,0.4 0.1,0.6 0,0.5 -0.4,0.8 -0.9,0.8 -0.5,0 -0.8,-0.3 -0.9,-0.8 l -1,-4.4 v 0 l -1,4.3 c -0.1,0.5 -0.5,0.8 -1,0.8 -0.5,0 -0.9,-0.3 -1,-0.8 l -1.1,-4.3 v 0 l -1,4.4 c -0.1,0.5 -0.4,0.8 -0.9,0.8 -0.5,0 -0.9,-0.3 -0.9,-0.8 0,-0.5 0,-0.3 0.1,-0.6 l 1.4,-4.8 c 0.2,-0.7 0.5,-1 1.2,-1 0.7,0 1,0.3 1.2,1 l 1,4 v 0 l 1,-4 c 0.2,-0.7 0.5,-1 1.2,-1 0.7,0 1,0.3 1.2,1 h -0.1 z"
           id="path83" />
        <path
           class="cls-6"
           d="m 390.4,897.2 v 5.2 c 0,0.6 -0.3,0.9 -0.9,0.9 -0.6,0 -0.9,-0.4 -0.9,-0.9 v -0.4 0 c -0.4,0.8 -1,1.3 -2.1,1.3 -1.1,0 -2.4,-1 -2.4,-2.5 v -3.5 c 0,-0.6 0.4,-1 0.9,-1 0.5,0 0.9,0.3 0.9,1 v 3.2 c 0,0.9 0.4,1.4 1.2,1.4 0.8,0 1.4,-0.6 1.4,-1.5 v -3.1 c 0,-0.6 0.4,-1 0.9,-1 0.5,0 0.9,0.3 0.9,1 h 0.1 z"
           id="path84" />
        <path
           class="cls-6"
           d="m 762.2,307.7 v 2 l 2.2,3.3 c 0,0.2 0.2,0.3 0.2,0.5 0,0.4 -0.3,0.7 -0.7,0.7 -0.4,0 -0.5,-0.1 -0.7,-0.5 l -1.6,-2.6 v 0 l -1.6,2.6 c -0.2,0.3 -0.4,0.5 -0.7,0.5 -0.3,0 -0.7,-0.3 -0.7,-0.7 0,-0.4 0,-0.3 0.2,-0.5 l 2.2,-3.3 v -2 c 0,-0.5 0.3,-0.8 0.7,-0.8 0.4,0 0.7,0.3 0.7,0.8 z"
           id="path85" />
        <path
           class="cls-6"
           d="m 758.9,309.7 c 0,1.7 -1,2.8 -2.5,2.8 -1.5,0 -2.5,-1 -2.5,-2.4 0,-1.4 0.2,-0.6 0.6,-0.6 h 3 c 0,-0.8 -0.5,-1.3 -1.2,-1.3 -0.7,0 -0.9,0.2 -1.2,0.6 -0.2,0.2 -0.3,0.2 -0.5,0.2 -0.3,0 -0.6,-0.2 -0.6,-0.5 v -0.4 c 0.3,-0.6 1.2,-1 2.2,-1 1.6,0 2.6,1 2.6,2.7 h 0.1 z m -3.6,0.5 c 0,0.7 0.5,1.1 1.1,1.1 0.6,0 1.1,-0.5 1.1,-1.1 z"
           id="path86" />
        <path
           class="cls-6"
           d="m 753.1,307.7 v 5.8 c 0,0.5 -0.3,0.8 -0.7,0.8 -0.4,0 -0.7,-0.3 -0.7,-0.8 v -5.8 c 0,-0.5 0.3,-0.7 0.7,-0.7 0.4,0 0.7,0.2 0.7,0.7 z"
           id="path87" />
        <path
           class="cls-6"
           d="m 750.7,307.7 v 5.8 c 0,0.5 -0.3,0.8 -0.7,0.8 -0.4,0 -0.7,-0.3 -0.7,-0.8 v -5.8 c 0,-0.5 0.3,-0.7 0.7,-0.7 0.4,0 0.7,0.2 0.7,0.7 z"
           id="path88" />
        <path
           class="cls-6"
           d="m 748.5,309.7 c 0,1.7 -1,2.7 -2.6,2.7 -1.6,0 -2.6,-1 -2.6,-2.7 0,-1.7 1,-2.7 2.6,-2.7 1.6,0 2.6,1 2.6,2.7 z m -3.7,0 c 0,1 0.5,1.6 1.1,1.6 0.6,0 1.2,-0.6 1.2,-1.6 0,-1 -0.4,-1.6 -1.2,-1.6 -0.8,0 -1.1,0.6 -1.1,1.6 z"
           id="path89" />
        <path
           class="cls-6"
           d="m 741.8,307.7 1,3.6 v 0.4 c 0,0.4 -0.3,0.6 -0.7,0.6 -0.4,0 -0.6,-0.2 -0.7,-0.6 l -0.8,-3.4 v 0 l -0.8,3.3 c 0,0.4 -0.4,0.6 -0.8,0.6 -0.4,0 -0.7,-0.2 -0.8,-0.6 l -0.8,-3.3 v 0 l -0.8,3.4 c 0,0.4 -0.3,0.6 -0.7,0.6 -0.4,0 -0.7,-0.2 -0.7,-0.6 v -0.4 l 1,-3.6 c 0.2,-0.5 0.4,-0.8 0.9,-0.8 0.5,0 0.8,0.2 0.9,0.8 l 0.8,3 v 0 l 0.8,-3.1 c 0,-0.5 0.4,-0.8 0.9,-0.8 0.5,0 0.8,0.2 0.9,0.8 h 0.4 z"
           id="path90" />
        <path
           class="cls-6"
           d="m 326.5,610.4 c 0,2.3 -1.3,3.6 -3.3,3.6 -2,0 -2.3,-0.6 -2.8,-1.6 -0.5,-1 -0.1,-0.4 -0.1,-0.5 0,-0.4 0.3,-0.6 0.6,-0.6 0.3,0 0.5,0.2 0.7,0.5 0.3,0.7 0.9,1.1 1.6,1.1 1.1,0 1.8,-0.9 1.8,-2.4 0,-1.5 -0.7,-2.4 -1.8,-2.4 -1.1,0 -1.3,0.3 -1.6,1 -0.1,0.3 -0.3,0.5 -0.6,0.5 -0.3,0 -0.7,-0.3 -0.7,-0.7 0,-0.4 0,-0.3 0.1,-0.5 0.4,-1 1.5,-1.6 2.8,-1.6 2.1,0 3.4,1.4 3.4,3.6 z"
           id="path91" />
        <path
           class="cls-6"
           d="m 319.5,608.4 c 0,1 -0.7,1.5 -2,1.6 h -1.3 v 0.4 c 0,0.5 0.3,0.8 0.9,0.8 0.6,0 0.7,0 1,-0.5 0.2,-0.2 0.3,-0.3 0.6,-0.3 0.3,0 0.6,0.2 0.6,0.5 v 0.3 c -0.2,0.6 -1.1,1 -2.2,1 -1.1,0 -2.2,-0.7 -2.2,-1.8 v -3 c 0,-0.5 0.3,-0.7 0.7,-0.7 0.4,0 0.6,0.2 0.7,0.6 v 0.3 0 c 0.3,-0.6 1,-0.9 1.6,-0.9 1,0 1.8,0.6 1.8,1.6 h -0.2 z m -3.4,0.4 v 0.4 h 1.1 c 0.5,0 0.8,-0.4 0.8,-0.7 0,-0.3 -0.3,-0.6 -0.8,-0.6 -0.5,0 -1.1,0.4 -1.1,1 v 0 z"
           id="path92" />
        <path
           class="cls-6"
           d="m 313.8,607.5 v 4 c 0,0.4 -0.3,0.7 -0.7,0.7 -0.4,0 -0.7,-0.3 -0.7,-0.7 v -0.3 0 c -0.3,0.7 -0.8,1 -1.6,1 -1.2,0 -1.8,-0.7 -1.8,-2 v -2.7 c 0,-0.5 0.3,-0.7 0.7,-0.7 0.4,0 0.7,0.2 0.7,0.7 v 2.4 c 0,0.7 0.3,1.1 1,1.1 0.7,0 1,-0.5 1,-1.2 v -2.4 c 0,-0.5 0.3,-0.7 0.7,-0.7 0.4,0 0.7,0.2 0.7,0.7 v 0 z"
           id="path93" />
        <path
           class="cls-6"
           d="m 308,607.5 v 4 c 0,0.4 -0.3,0.7 -0.7,0.7 -0.4,0 -0.7,-0.3 -0.7,-0.7 v -0.3 0 c -0.3,0.7 -0.8,1 -1.6,1 -1.2,0 -1.8,-0.7 -1.8,-2 v -2.7 c 0,-0.5 0.3,-0.7 0.7,-0.7 0.4,0 0.7,0.2 0.7,0.7 v 2.4 c 0,0.7 0.3,1.1 1,1.1 0.7,0 1,-0.5 1,-1.2 v -2.4 c 0,-0.5 0.3,-0.7 0.7,-0.7 0.4,0 0.7,0.2 0.7,0.7 v 0 z"
           id="path94" />
        <path
           class="cls-6"
           d="m 302.5,609.5 c 0,1.7 -1,2.7 -2.6,2.7 -1.6,0 -2.6,-1 -2.6,-2.7 0,-1.7 1,-2.7 2.6,-2.7 1.6,0 2.6,1 2.6,2.7 z m -3.8,0 c 0,1 0.5,1.6 1.1,1.6 0.6,0 1.1,-0.6 1.1,-1.6 0,-1 -0.4,-1.6 -1.1,-1.6 -0.7,0 -1.1,0.6 -1.1,1.6 z"
           id="path95" />
        <path
           class="cls-6"
           d="m 296.5,607.5 v 4 c 0,0.4 -0.3,0.7 -0.7,0.7 -0.4,0 -0.7,-0.3 -0.7,-0.7 v -0.3 0 c -0.3,0.7 -0.8,1 -1.6,1 -1.2,0 -1.8,-0.7 -1.8,-2 v -2.7 c 0,-0.5 0.3,-0.7 0.7,-0.7 0.4,0 0.7,0.2 0.7,0.7 v 2.4 c 0,0.7 0.3,1.1 1,1.1 0.7,0 1,-0.5 1,-1.2 v -2.4 c 0,-0.5 0.3,-0.7 0.7,-0.7 0.4,0 0.7,0.2 0.7,0.7 v 0 z"
           id="path96" />
        <path
           class="cls-6"
           d="m 598.6,458.3 v 5.5 c 0,0.5 -0.3,0.8 -0.7,0.8 h -2 c -2.1,0 -3.4,-1.3 -3.4,-3.5 0,-2.2 1.2,-3.5 3.4,-3.5 h 2 c 0.5,0 0.7,0.3 0.7,0.8 v 0 z m -2.5,0.5 c -1.3,0 -2,0.8 -2,2.3 0,1.5 0.7,2.3 2,2.3 h 1 v -4.6 z"
           id="path97" />
        <path
           class="cls-6"
           d="m 591.9,460.2 c 0,1.7 -1,2.7 -2.6,2.7 -1.6,0 -2.6,-1 -2.6,-2.7 0,-1.7 1,-2.7 2.6,-2.7 1.6,0 2.6,1 2.6,2.7 z m -3.7,0 c 0,1 0.5,1.6 1.1,1.6 0.6,0 1.2,-0.6 1.2,-1.6 0,-1 -0.4,-1.6 -1.2,-1.6 -0.8,0 -1.1,0.6 -1.1,1.6 z"
           id="path98" />
        <path
           class="cls-6"
           d="m 586,459.4 v 2.7 c 0,0.5 -0.3,0.8 -0.7,0.8 -0.4,0 -0.7,-0.3 -0.7,-0.8 v -2.4 c 0,-0.7 -0.3,-1.1 -1,-1.1 -0.7,0 -1,0.5 -1,1.1 v 2.4 c 0,0.5 -0.3,0.8 -0.7,0.8 -0.4,0 -0.7,-0.3 -0.7,-0.8 v -4 c 0,-0.5 0.3,-0.7 0.7,-0.7 0.4,0 0.7,0.2 0.7,0.7 v 0.3 0 c 0.3,-0.7 0.8,-1 1.6,-1 0.8,0 1.9,0.7 1.9,2 v 0 z"
           id="path99" />
        <path
           class="cls-6"
           d="m 580.2,458.2 v 5.8 c 0,0.5 -0.3,0.8 -0.7,0.8 -0.4,0 -0.7,-0.3 -0.7,-0.8 v -2.1 0 c -0.3,0.6 -0.9,1 -1.6,1 -1.3,0 -2.1,-1 -2.1,-2.7 0,-1.7 0.8,-2.7 2.1,-2.7 1.3,0 1.3,0.4 1.6,1 v 0 -0.3 c 0,-0.5 0.3,-0.7 0.7,-0.7 0.4,0 0.7,0.2 0.7,0.7 z m -3.8,2 c 0,1 0.4,1.6 1.2,1.6 0.8,0 1.2,-0.6 1.2,-1.6 0,-1 -0.5,-1.5 -1.2,-1.5 -0.7,0 -1.2,0.6 -1.2,1.5 z"
           id="path100" />
        <path
           class="cls-6"
           d="m 574.2,458.2 v 5.8 c 0,0.5 -0.3,0.8 -0.7,0.8 -0.4,0 -0.7,-0.3 -0.7,-0.8 v -5.8 c 0,-0.5 0.3,-0.7 0.7,-0.7 0.4,0 0.7,0.2 0.7,0.7 z"
           id="path101" />
        <path
           class="cls-6"
           d="m 572,460.2 c 0,1.7 -1,2.8 -2.5,2.8 -1.5,0 -2.5,-1 -2.5,-2.4 0,-1.4 0.2,-0.6 0.6,-0.6 h 3 c 0,-0.8 -0.5,-1.3 -1.2,-1.3 -0.7,0 -0.9,0.2 -1.2,0.6 -0.2,0.2 -0.3,0.2 -0.5,0.2 -0.3,0 -0.6,-0.2 -0.6,-0.5 v -0.4 c 0.3,-0.6 1.2,-1 2.2,-1 1.6,0 2.6,1 2.6,2.7 h 0.1 z m -3.6,0.5 c 0,0.7 0.5,1.1 1.1,1.1 0.6,0 1.1,-0.5 1.1,-1.1 z"
           id="path102" />
        <path
           class="cls-6"
           d="m 564.2,458.3 v 5.5 c 0,0.5 -0.3,0.8 -0.7,0.8 h -2 c -2.1,0 -3.4,-1.3 -3.4,-3.5 0,-2.2 1.2,-3.5 3.4,-3.5 h 2 c 0.5,0 0.7,0.3 0.7,0.8 v 0 z m -2.5,0.5 c -1.3,0 -2,0.8 -2,2.3 0,1.5 0.7,2.3 2,2.3 h 1 v -4.6 z"
           id="path103" />
        <path
           class="cls-6"
           d="m 557.5,460.2 c 0,1.7 -1,2.7 -2.6,2.7 -1.6,0 -2.6,-1 -2.6,-2.7 0,-1.7 1,-2.7 2.6,-2.7 1.6,0 2.6,1 2.6,2.7 z m -3.7,0 c 0,1 0.5,1.6 1.1,1.6 0.6,0 1.2,-0.6 1.2,-1.6 0,-1 -0.4,-1.6 -1.2,-1.6 -0.8,0 -1.1,0.6 -1.1,1.6 z"
           id="path104" />
        <path
           class="cls-6"
           d="m 551.8,460.2 c 0,1.7 -1,2.7 -2.6,2.7 -1.6,0 -2.6,-1 -2.6,-2.7 0,-1.7 1,-2.7 2.6,-2.7 1.6,0 2.6,1 2.6,2.7 z m -3.8,0 c 0,1 0.5,1.6 1.1,1.6 0.6,0 1.2,-0.6 1.2,-1.6 0,-1 -0.4,-1.6 -1.2,-1.6 -0.8,0 -1.1,0.6 -1.1,1.6 z"
           id="path105" />
        <path
           class="cls-6"
           d="m 545.9,458.2 v 4 c 0,0.5 -0.3,0.7 -0.7,0.7 -0.4,0 -0.7,-0.3 -0.7,-0.7 v -0.3 0 c 0,0.6 -0.6,1 -1.1,1 -0.5,0 -0.3,0 -0.4,-0.1 0,-0.1 -0.2,-0.3 -0.2,-0.5 0,-0.2 0,-0.4 0.2,-0.5 0.2,-0.1 0.3,-0.2 0.6,-0.2 0.7,0 0.9,-0.4 0.9,-1 v -2.3 c 0,-0.5 0.3,-0.7 0.7,-0.7 0.4,0 0.7,0.3 0.7,0.7 v 0 z"
           id="path106" />
        <path
           class="cls-6"
           d="m 418.2,205.7 v 5.8 c 0,0.5 -0.3,0.7 -0.7,0.7 -0.4,0 -0.5,-0.1 -0.7,-0.4 l -3,-4.3 v 0 3.9 c 0,0.5 -0.3,0.7 -0.7,0.7 -0.4,0 -0.7,-0.3 -0.7,-0.7 v -5.8 c 0,-0.5 0.3,-0.7 0.7,-0.7 0.4,0 0.5,0.1 0.7,0.4 l 3.1,4.3 v 0 -4 c 0,-0.5 0.3,-0.7 0.7,-0.7 0.4,0 0.7,0.3 0.7,0.7 h -0.1 z"
           id="path107" />
        <path
           class="cls-6"
           d="m 411.3,207.7 c 0,1.7 -1,2.8 -2.5,2.8 -1.5,0 -2.5,-1 -2.5,-2.4 0,-1.4 0.2,-0.6 0.6,-0.6 h 3 c 0,-0.8 -0.5,-1.3 -1.2,-1.3 -0.7,0 -0.9,0.2 -1.2,0.6 -0.1,0.2 -0.3,0.2 -0.5,0.2 -0.3,0 -0.6,-0.2 -0.6,-0.5 0,-0.3 0,-0.2 0.1,-0.4 0.4,-0.6 1.2,-1 2.2,-1 1.6,0 2.6,1 2.6,2.7 v 0 z m -3.6,0.6 c 0,0.7 0.5,1.1 1.1,1.1 0.6,0 1.1,-0.5 1.1,-1.1 z"
           id="path108" />
        <path
           class="cls-6"
           d="m 405.7,206 v 0.3 c 0,0.3 -0.2,0.6 -0.6,0.6 -0.4,0 -0.4,-0.1 -0.6,-0.3 -0.3,-0.4 -0.6,-0.5 -1.1,-0.5 -0.5,0 -0.9,0.2 -0.9,0.6 0,0.4 0.2,0.4 0.7,0.6 l 0.9,0.2 c 1,0.2 1.5,0.7 1.5,1.5 0,0.8 -0.9,1.6 -2.2,1.6 -1.3,0 -1.9,-0.5 -2,-1.1 v -0.2 c 0,-0.3 0.2,-0.5 0.5,-0.5 0.3,0 0.4,0 0.5,0.2 0.2,0.3 0.5,0.6 1,0.6 0.5,0 0.8,-0.2 0.8,-0.6 0,-0.4 -0.2,-0.4 -0.7,-0.6 l -0.9,-0.2 c -1.1,-0.2 -1.6,-0.6 -1.6,-1.4 0,-0.8 0.9,-1.7 2.3,-1.7 1.4,0 2,0.4 2.2,1 h 0.2 z"
           id="path109" />
        <path
           class="cls-6"
           d="m 400.1,209.2 h 0.3 c 0.3,0 0.5,0.2 0.5,0.5 0,0.3 -0.2,0.5 -0.5,0.5 h -0.3 v 0.6 c 0,0.5 -0.3,0.7 -0.7,0.7 -0.4,0 -0.7,-0.3 -0.7,-0.7 v -0.6 h -0.5 c -0.3,0 -0.5,-0.2 -0.5,-0.5 0,-0.3 0.2,-0.5 0.5,-0.5 h 0.5 v -2.5 c 0,-0.4 -0.1,-0.5 -0.4,-0.6 v 0 c -0.4,0 -0.5,-0.2 -0.5,-0.5 0,-0.3 0.4,-0.6 1,-0.6 v 0 c 1,0 1.4,0.5 1.4,1.4 v 2.8 0 z"
           id="path110" />
        <path
           class="cls-6"
           d="m 651.2,512.3 v 5.7 c 0,0.5 -0.3,0.8 -0.7,0.8 -0.4,0 -0.7,-0.3 -0.7,-0.8 v -2.2 h -3.2 v 2.2 c 0,0.5 -0.3,0.8 -0.7,0.8 -0.4,0 -0.7,-0.3 -0.7,-0.8 v -5.7 c 0,-0.5 0.3,-0.8 0.7,-0.8 0.4,0 0.7,0.3 0.7,0.8 v 2.3 h 3.2 v -2.3 c 0,-0.5 0.3,-0.8 0.7,-0.8 0.4,0 0.7,0.3 0.7,0.8 z"
           id="path111" />
        <path
           class="cls-6"
           d="m 644.3,513.2 c 0,1 -0.7,1.5 -2,1.6 H 641 v 0.4 c 0,0.5 0.3,0.8 0.9,0.8 0.6,0 0.7,0 1,-0.5 0.2,-0.2 0.3,-0.3 0.6,-0.3 0.3,0 0.6,0.2 0.6,0.5 v 0.3 c -0.2,0.6 -1.1,1 -2.2,1 -1.1,0 -2.2,-0.7 -2.2,-1.8 v -3 c 0,-0.5 0.3,-0.7 0.7,-0.7 0.4,0 0.7,0.2 0.7,0.6 v 0.3 0 c 0.3,-0.6 1,-0.9 1.6,-0.9 1,0 1.8,0.6 1.8,1.6 h -0.2 z m -3.4,0.4 v 0.4 h 1.1 c 0.5,0 0.8,-0.4 0.8,-0.7 0,-0.3 -0.3,-0.6 -0.8,-0.6 -0.5,0 -1.1,0.4 -1.1,1 v 0 z"
           id="path112" />
        <path
           class="cls-6"
           d="m 638.6,512.3 v 5.8 c 0,0.5 -0.3,0.8 -0.7,0.8 -0.4,0 -0.7,-0.3 -0.7,-0.8 v -5.8 c 0,-0.5 0.3,-0.7 0.7,-0.7 0.4,0 0.7,0.2 0.7,0.7 z"
           id="path113" />
        <path
           class="cls-6"
           d="m 636.2,512.3 v 5.8 c 0,0.5 -0.3,0.8 -0.7,0.8 -0.4,0 -0.7,-0.3 -0.7,-0.8 v -5.8 c 0,-0.5 0.3,-0.7 0.7,-0.7 0.4,0 0.7,0.2 0.7,0.7 z"
           id="path114" />
        <path
           class="cls-6"
           d="m 633.9,512.6 v 0.3 c 0,0.3 -0.2,0.5 -0.6,0.5 -0.4,0 -0.4,0 -0.6,-0.3 -0.3,-0.4 -0.6,-0.5 -1.1,-0.5 -0.5,0 -0.8,0.2 -0.8,0.6 0,0.4 0.2,0.4 0.7,0.5 l 0.9,0.2 c 1,0.2 1.5,0.7 1.5,1.5 0,0.8 -0.9,1.7 -2.2,1.7 -1.3,0 -1.9,-0.5 -2,-1.1 v -0.2 c 0,-0.3 0.2,-0.5 0.5,-0.5 0.3,0 0.4,0 0.5,0.2 0.2,0.3 0.5,0.6 1,0.6 0.5,0 0.8,-0.2 0.8,-0.6 0,-0.4 -0.2,-0.5 -0.7,-0.6 l -0.9,-0.2 c -1.1,-0.2 -1.6,-0.6 -1.6,-1.4 0,-0.8 0.9,-1.7 2.3,-1.7 1.4,0 2,0.4 2.2,1 v 0 z"
           id="path115" />
        <path
           class="cls-6"
           d="m 779.6,637.8 v 0.4 c 0,0.4 -0.3,0.7 -0.7,0.7 -0.4,0 -0.5,0 -0.7,-0.4 -0.2,-0.5 -0.8,-0.8 -1.5,-0.8 -0.7,0 -1.3,0.4 -1.3,0.9 0,0.5 0.3,0.7 1.2,0.9 l 0.8,0.2 c 1.4,0.3 2.1,1 2.1,2 0,1 -1.1,2.1 -2.7,2.1 -1.6,0 -2.3,-0.5 -2.6,-1.5 V 642 c 0,-0.3 0.2,-0.6 0.6,-0.6 0.4,0 0.5,0 0.7,0.4 0.2,0.5 0.7,0.8 1.3,0.8 0.6,0 1.2,-0.3 1.2,-0.9 0,-0.6 -0.3,-0.7 -1.2,-0.9 l -0.7,-0.2 c -1.5,-0.3 -2.1,-0.9 -2.1,-2 0,-1.1 1.1,-2.2 2.8,-2.2 1.7,0 2.4,0.6 2.7,1.3 h 0.1 z"
           id="path116" />
        <path
           class="cls-6"
           d="m 773.3,637.2 v 5.8 c 0,0.5 -0.3,0.7 -0.7,0.7 -0.4,0 -0.7,-0.3 -0.7,-0.7 v -2.1 0 c -0.3,0.7 -0.8,1 -1.7,1 -0.9,0 -1.8,-0.8 -1.8,-2 v -2.7 c 0,-0.5 0.3,-0.7 0.7,-0.7 0.4,0 0.7,0.2 0.7,0.7 v 2.4 c 0,0.7 0.3,1.1 1,1.1 0.7,0 1.1,-0.5 1.1,-1.2 v -2.3 c 0,-0.5 0.3,-0.7 0.7,-0.7 0.4,0 0.7,0.2 0.7,0.7 z"
           id="path117" />
        <path
           class="cls-6"
           d="m 767.7,639.2 c 0,1.7 -1,2.7 -2.6,2.7 -1.6,0 -2.6,-1 -2.6,-2.7 0,-1.7 1,-2.7 2.6,-2.7 1.6,0 2.6,1 2.6,2.7 z m -3.8,0 c 0,1 0.5,1.6 1.1,1.6 0.6,0 1.2,-0.6 1.2,-1.6 0,-1 -0.4,-1.6 -1.2,-1.6 -0.8,0 -1.1,0.6 -1.1,1.6 z"
           id="path118" />
        <path
           class="cls-6"
           d="m 761.7,635.5 v 5.7 c 0,0.5 -0.3,0.7 -0.7,0.7 -0.4,0 -0.7,-0.2 -0.7,-0.7 v -0.3 0 c -0.3,0.6 -0.9,1 -1.6,1 -1.3,0 -2.1,-1 -2.1,-2.7 0,-1.7 0.8,-2.7 2.1,-2.7 1.3,0 1.3,0.4 1.6,1 v 0 -2 c 0,-0.5 0.3,-0.7 0.7,-0.7 0.4,0 0.7,0.2 0.7,0.7 z m -3.7,3.7 c 0,1 0.5,1.6 1.2,1.6 0.7,0 1.2,-0.6 1.2,-1.6 0,-1 -0.5,-1.5 -1.2,-1.5 -0.7,0 -1.2,0.6 -1.2,1.5 z"
           id="path119" />
        <path
           class="cls-6"
           d="m 624.3,47.2 v 7.2 c 0,0.6 -0.4,1 -1,1 h -2.5 c -2.8,0 -4.4,-1.6 -4.4,-4.5 0,-2.9 1.6,-4.6 4.4,-4.6 h 2.5 c 0.6,0 1,0.4 1,1 v 0 z m -3.2,0.5 c -1.7,0 -2.6,1 -2.6,3 0,2 1,3 2.6,3 h 1.3 v -6 z"
           id="path120" />
        <path
           class="cls-6"
           d="m 615.7,49.5 c 0,2.2 -1.3,3.6 -3.3,3.6 -2,0 -3.2,-1.3 -3.2,-3.2 0,-1.9 0.3,-0.8 0.8,-0.8 h 3.9 c 0,-1.1 -0.6,-1.8 -1.5,-1.8 -0.9,0 -1.1,0.2 -1.6,0.8 -0.2,0.2 -0.4,0.3 -0.6,0.3 -0.4,0 -0.7,-0.2 -0.7,-0.7 0,-0.5 0,-0.3 0,-0.5 0.5,-0.8 1.5,-1.3 2.8,-1.3 2.1,0 3.4,1.3 3.4,3.5 h -0.1 z m -4.8,0.8 c 0,0.9 0.6,1.5 1.4,1.5 0.8,0 1.4,-0.6 1.5,-1.5 z"
           id="path121" />
        <path
           class="cls-6"
           d="m 607.7,47 v 4.6 h 0.4 c 0.4,0 0.7,0.2 0.7,0.7 0,0.5 -0.3,0.7 -0.7,0.7 h -0.4 v 0.5 c 0,1.3 -0.7,1.9 -1.9,2 -1,0 -1.4,-0.3 -1.4,-0.8 0,-0.5 0,-0.4 0.4,-0.5 h 0.4 c 0.6,0 0.8,-0.2 0.8,-0.8 V 53 h -0.8 c -0.4,0 -0.7,-0.2 -0.7,-0.7 0,-0.5 0.3,-0.7 0.7,-0.7 h 0.7 V 47 c 0,-0.6 0.4,-1 0.9,-1 0.5,0 0.9,0.3 0.9,1 z"
           id="path122" />
        <path
           class="cls-6"
           d="m 604,49.5 c 0,2.2 -1.3,3.6 -3.3,3.6 -2,0 -3.2,-1.3 -3.2,-3.2 0,-1.9 0.3,-0.8 0.8,-0.8 h 3.9 c 0,-1.1 -0.6,-1.8 -1.5,-1.8 -0.9,0 -1.1,0.2 -1.6,0.8 -0.2,0.2 -0.4,0.3 -0.6,0.3 -0.4,0 -0.7,-0.2 -0.7,-0.7 0,-0.5 0,-0.3 0,-0.5 0.5,-0.8 1.5,-1.3 2.8,-1.3 2.1,0 3.4,1.3 3.4,3.5 h -0.1 z m -4.7,0.8 c 0,0.9 0.6,1.5 1.4,1.5 0.8,0 1.4,-0.6 1.5,-1.5 z"
           id="path123" />
        <path
           class="cls-6"
           d="m 596.5,47 v 5.2 c 0,0.6 -0.3,0.9 -0.9,0.9 -0.6,0 -0.9,-0.4 -0.9,-0.9 v -0.4 0 c -0.4,0.8 -1,1.3 -2.1,1.3 -1.1,0 -2.4,-1 -2.4,-2.5 v -3.5 c 0,-0.6 0.4,-1 0.9,-1 0.5,0 0.9,0.3 0.9,1 v 3.2 c 0,0.9 0.4,1.4 1.2,1.4 0.8,0 1.4,-0.6 1.4,-1.5 v -3.1 c 0,-0.6 0.4,-1 0.9,-1 0.5,0 0.9,0.3 0.9,1 v 0 z"
           id="path124" />
        <path
           class="cls-6"
           d="m 589.3,49.6 c 0,2.2 -1.1,3.5 -2.8,3.5 -1.7,0 -1.8,-0.5 -2.1,-1.3 v 0 2.7 c 0,0.6 -0.4,1 -0.9,1 -0.5,0 -0.9,-0.3 -0.9,-1 V 47 c 0,-0.6 0.4,-0.9 0.9,-0.9 0.5,0 0.9,0.3 0.9,0.9 v 0.4 0 c 0.3,-0.8 1,-1.3 2.1,-1.3 1.7,0 2.8,1.3 2.8,3.5 z m -4.9,0 c 0,1.2 0.6,2 1.5,2 0.9,0 1.5,-0.8 1.5,-2 0,-1.2 -0.6,-2 -1.5,-2 -0.9,0 -1.5,0.8 -1.5,2 z"
           id="path125" />
        <path
           class="cls-6"
           d="m 581.5,49.5 c 0,2.2 -1.3,3.6 -3.3,3.6 -2,0 -3.2,-1.3 -3.2,-3.2 0,-1.9 0.3,-0.8 0.8,-0.8 h 3.9 c 0,-1.1 -0.6,-1.8 -1.5,-1.8 -0.9,0 -1.1,0.2 -1.6,0.8 -0.2,0.2 -0.4,0.3 -0.6,0.3 -0.4,0 -0.7,-0.2 -0.7,-0.7 0,-0.5 0,-0.3 0,-0.5 0.5,-0.8 1.5,-1.3 2.8,-1.3 2.1,0 3.4,1.3 3.4,3.5 h -0.1 z m -4.7,0.8 c 0,0.9 0.6,1.5 1.4,1.5 0.8,0 1.4,-0.6 1.5,-1.5 z"
           id="path126" />
        <path
           class="cls-6"
           d="m 574.1,47 v 5.2 c 0,0.6 -0.4,0.9 -0.9,0.9 -0.5,0 -0.9,-0.3 -0.9,-0.9 v -0.4 0 c -0.2,0.8 -0.7,1.3 -1.4,1.3 -0.7,0 -0.4,0 -0.6,-0.2 -0.2,0 -0.3,-0.4 -0.3,-0.7 0,-0.3 0,-0.5 0.3,-0.7 0.3,-0.2 0.4,-0.2 0.8,-0.2 0.8,0 1.1,-0.5 1.1,-1.3 v -3 c 0,-0.6 0.4,-1 0.9,-1 0.5,0 0.9,0.3 0.9,1 z"
           id="path127" />
        <path
           class="cls-6"
           d="m 566.7,47.8 v 0.5 c 0,0.5 -0.3,0.8 -0.8,0.8 -0.5,0 -0.7,-0.2 -0.9,-0.6 -0.3,-0.7 -1,-1 -1.9,-1 -0.9,0 -1.7,0.5 -1.7,1.2 0,0.7 0.4,1 1.6,1.2 l 1,0.2 c 1.8,0.4 2.7,1.2 2.7,2.6 0,1.4 -1.5,2.8 -3.5,2.8 -2,0 -2.9,-0.7 -3.3,-1.9 v -0.4 c 0,-0.5 0.3,-0.8 0.8,-0.8 0.5,0 0.7,0.2 0.9,0.6 0.3,0.7 0.9,1 1.7,1 0.8,0 1.6,-0.4 1.6,-1.1 0,-0.7 -0.4,-0.9 -1.5,-1.1 l -1,-0.2 c -1.9,-0.4 -2.8,-1.2 -2.8,-2.6 0,-1.4 1.4,-2.9 3.7,-2.9 2.3,0 3.1,0.8 3.5,1.8 v 0 z"
           id="path128" />
        <path
           class="cls-6"
           d="m 558.6,44.7 v 7.5 c 0,0.6 -0.4,1 -0.9,1 -0.5,0 -0.9,-0.3 -0.9,-1 v -0.4 0 c -0.4,0.8 -1.1,1.3 -2.1,1.3 -1.7,0 -2.8,-1.3 -2.8,-3.5 0,-2.2 1,-3.5 2.8,-3.5 1.8,0 1.8,0.5 2.1,1.2 v 0 -2.6 c 0,-0.6 0.4,-1 0.9,-1 0.5,0 0.9,0.3 0.9,1 z m -4.9,4.9 c 0,1.2 0.6,2 1.5,2 0.9,0 1.5,-0.8 1.5,-2 0,-1.2 -0.6,-2 -1.5,-2 -0.9,0 -1.5,0.8 -1.5,2 z"
           id="path129" />
        <path
           class="cls-6"
           d="m 551.1,48.1 c 0,1.2 -1,2 -2.7,2.1 h -1.7 v 0.5 c 0,0.6 0.4,1 1.1,1 0.7,0 0.9,-0.2 1.3,-0.7 0.2,-0.2 0.4,-0.3 0.7,-0.3 0.5,0 0.8,0.3 0.8,0.7 v 0.4 c -0.3,0.8 -1.4,1.3 -2.8,1.3 -1.4,0 -2.9,-0.9 -2.9,-2.3 v -3.9 c 0,-0.6 0.4,-0.9 0.9,-0.9 0.5,0 0.8,0.3 0.9,0.8 v 0.3 0 c 0.4,-0.7 1.2,-1.2 2.1,-1.2 1.3,0 2.3,0.8 2.3,2.1 v 0 z m -4.4,0.6 v 0.5 h 1.4 c 0.7,0 1.1,-0.5 1.1,-0.9 0,-0.4 -0.4,-0.8 -1,-0.8 -0.6,0 -1.5,0.5 -1.5,1.3 v 0 z"
           id="path130" />
        <path
           class="cls-6"
           d="m 542.7,47 1.4,4.7 v 0.6 c 0,0.5 -0.4,0.8 -0.9,0.8 -0.5,0 -0.8,-0.3 -0.9,-0.8 l -1,-4.4 v 0 l -1,4.3 c 0,0.5 -0.5,0.8 -1,0.8 -0.5,0 -0.9,-0.3 -1,-0.8 l -1.1,-4.3 v 0 l -1,4.4 c 0,0.5 -0.4,0.8 -0.9,0.8 -0.5,0 -0.9,-0.3 -0.9,-0.8 v -0.6 l 1.4,-4.8 c 0.2,-0.7 0.5,-1 1.2,-1 0.7,0 1,0.3 1.2,1 l 1,4 v 0 l 1,-4 c 0.2,-0.7 0.5,-1 1.2,-1 0.7,0 1,0.3 1.2,1 v 0 z"
           id="path131" />
        <path
           class="cls-6"
           d="m 533.5,47 v 5.2 c 0,0.6 -0.3,0.9 -0.9,0.9 -0.6,0 -0.9,-0.4 -0.9,-0.9 v -0.4 0 c -0.4,0.8 -1,1.3 -2.1,1.3 -1.1,0 -2.4,-1 -2.4,-2.5 v -3.5 c 0,-0.6 0.4,-1 0.9,-1 0.5,0 0.9,0.3 0.9,1 v 3.2 c 0,0.9 0.4,1.4 1.2,1.4 0.8,0 1.4,-0.6 1.4,-1.5 v -3.1 c 0,-0.6 0.4,-1 0.9,-1 0.5,0 0.9,0.3 0.9,1 v 0 z"
           id="path132" />
        <path
           class="cls-6"
           d="m 134.8,481.6 v 5.5 c 0,0.5 -0.3,0.8 -0.7,0.8 h -2.3 c -1.3,0 -2.2,-0.7 -2.2,-1.8 0,-1.1 0.6,-1.4 1.3,-1.5 v 0 c -1,-0.1 -1.7,-0.8 -1.7,-1.7 0,-0.9 0.9,-2 2.4,-2 h 2.4 c 0.5,0 0.7,0.3 0.7,0.8 v 0 z m -2.6,3.4 c -0.8,0 -1.2,0.4 -1.2,0.9 0,0.5 0.4,0.9 1.1,0.9 h 1.2 V 485 Z m -0.2,-3 c -0.8,0 -1.3,0.4 -1.3,1 0,0.6 0.5,1 1.3,1 h 1.2 v -2 h -1.3 z"
           id="path133" />
        <path
           class="cls-6"
           d="m 126.4,481.5 v 5.6 c 0,0.6 -0.3,1 -0.9,1 -0.6,0 -0.8,-0.2 -1,-0.8 l -1.8,-4.3 v 0 l -1.7,4.3 c -0.2,0.5 -0.5,0.8 -1,0.8 -0.5,0 -0.9,-0.4 -0.9,-1 v -5.6 c 0,-0.4 0.2,-0.7 0.7,-0.7 0.5,0 0.7,0.2 0.7,0.7 v 4.2 0 l 1.7,-4.3 c 0,-0.3 0.3,-0.5 0.6,-0.5 0.3,0 0.5,0.1 0.6,0.4 l 1.7,4.3 v 0 -4.2 c 0,-0.4 0.2,-0.7 0.7,-0.7 0.5,0 0.7,0.2 0.7,0.7 v 0 z"
           id="path134" />
        <path
           class="cls-6"
           d="m 118.2,482.4 c 0,1 -0.7,1.5 -2,1.6 h -1.3 v 0.4 c 0,0.5 0.3,0.8 0.9,0.8 0.6,0 0.7,-0.1 1,-0.5 0.2,-0.2 0.3,-0.3 0.6,-0.3 0.3,0 0.6,0.2 0.6,0.5 v 0.3 c -0.2,0.6 -1.1,1 -2.2,1 -1.1,0 -2.2,-0.7 -2.2,-1.8 v -3 c 0,-0.5 0.3,-0.7 0.7,-0.7 0.4,0 0.7,0.2 0.7,0.6 v 0.3 0 c 0.3,-0.6 0.9,-0.9 1.6,-0.9 1,0 1.8,0.6 1.8,1.6 h -0.2 z m -3.4,0.4 v 0.4 h 1.1 c 0.5,-0.1 0.8,-0.4 0.8,-0.7 0,-0.3 -0.3,-0.6 -0.8,-0.6 -0.5,0 -1.1,0.4 -1.1,1 v 0 z"
           id="path135" />
        <path
           class="cls-6"
           d="m 112.5,487.5 c 0,0.4 -0.3,0.7 -0.8,0.7 -0.5,0 -0.8,-0.3 -0.8,-0.7 0,-0.4 0.3,-0.7 0.8,-0.7 0.5,0 0.8,0.3 0.8,0.7 z m 0,-6 v 4 c 0,0.5 -0.3,0.8 -0.7,0.8 -0.4,0 -0.7,-0.3 -0.7,-0.8 v -4 c 0,-0.5 0.3,-0.7 0.7,-0.7 0.4,0 0.7,0.3 0.7,0.7 z"
           id="path136" />
        <path
           class="cls-6"
           d="m 110.1,481.5 v 4 c 0,0.4 -0.3,0.7 -0.7,0.7 -0.4,0 -0.7,-0.3 -0.7,-0.7 v -0.3 0 c -0.3,0.6 -0.8,1 -1.6,1 -1.2,0 -1.8,-0.7 -1.8,-2 v -2.7 c 0,-0.5 0.3,-0.7 0.7,-0.7 0.4,0 0.7,0.2 0.7,0.7 v 2.4 c 0,0.7 0.3,1.1 1,1.1 0.7,0 1,-0.5 1,-1.1 v -2.4 c 0,-0.5 0.3,-0.7 0.7,-0.7 0.4,0 0.7,0.2 0.7,0.7 z"
           id="path137" />
        <path
           class="cls-6"
           d="m 472.8,531.2 v 5.6 c 0,0.6 -0.4,1 -1,1 -0.6,0 -0.8,-0.2 -1,-0.8 l -1.8,-4.3 v 0 l -1.7,4.3 c -0.2,0.5 -0.5,0.8 -1,0.8 -0.5,0 -1,-0.3 -1,-1 v -5.6 c 0,-0.4 0.2,-0.7 0.7,-0.7 0.5,0 0.6,0.2 0.6,0.7 v 4.2 0 l 1.7,-4.3 c 0.1,-0.3 0.3,-0.5 0.6,-0.5 0.3,0 0.5,0 0.6,0.4 l 1.7,4.3 v 0 -4.2 c 0,-0.4 0.2,-0.7 0.6,-0.7 0.4,0 0.7,0.2 0.7,0.7 h 0.3 z"
           id="path138" />
        <path
           class="cls-6"
           d="m 464.3,537.2 c 0,0.4 -0.3,0.7 -0.8,0.7 -0.5,0 -0.8,-0.3 -0.8,-0.7 0,-0.4 0.3,-0.7 0.8,-0.7 0.5,0 0.8,0.3 0.8,0.7 z m 0,-6 v 4 c 0,0.5 -0.3,0.8 -0.7,0.8 -0.4,0 -0.7,-0.3 -0.7,-0.8 v -4 c 0,-0.5 0.3,-0.7 0.7,-0.7 0.4,0 0.7,0.3 0.7,0.7 z"
           id="path139" />
        <path
           class="cls-6"
           d="m 462.1,533.2 c 0,1.7 -0.8,2.7 -2.1,2.7 -1.3,0 -1.3,-0.4 -1.6,-1 v 0 2.1 c 0,0.5 -0.3,0.8 -0.7,0.8 -0.4,0 -0.7,-0.3 -0.7,-0.8 v -5.8 c 0,-0.5 0.3,-0.7 0.7,-0.7 0.4,0 0.7,0.2 0.7,0.7 v 0.3 0 c 0.2,-0.6 0.8,-1 1.6,-1 1.3,0 2.1,1 2.1,2.7 z m -3.8,0 c 0,1 0.5,1.6 1.2,1.6 0.7,0 1.2,-0.6 1.2,-1.6 0,-1 -0.4,-1.5 -1.2,-1.5 -0.8,0 -1.2,0.6 -1.2,1.5 z"
           id="path140" />
        <path
           class="cls-6"
           d="m 332.8,276 v 5.1 h 1.5 c 0.4,0 0.7,0.2 0.7,0.6 0,0.4 -0.3,0.6 -0.7,0.6 h -4.4 c -0.4,0 -0.7,-0.2 -0.7,-0.6 0,-0.4 0.3,-0.6 0.7,-0.6 h 1.5 V 276 c 0,-0.5 0.3,-0.8 0.7,-0.8 0.4,0 0.7,0.3 0.7,0.8 z"
           id="path141" />
        <path
           class="cls-6"
           d="m 329.2,277.2 v 2.7 c 0,0.5 -0.3,0.8 -0.7,0.8 -0.4,0 -0.7,-0.3 -0.7,-0.8 v -2.4 c 0,-0.7 -0.4,-1.1 -1,-1.1 -0.6,0 -1,0.5 -1,1.1 v 2.4 c 0,0.5 -0.3,0.8 -0.7,0.8 -0.4,0 -0.7,-0.3 -0.7,-0.8 v -4 c 0,-0.5 0.3,-0.7 0.7,-0.7 0.4,0 0.7,0.2 0.7,0.7 v 0.3 0 c 0.3,-0.7 0.8,-1 1.6,-1 0.8,0 1.9,0.7 1.9,2 v 0 z"
           id="path142" />
        <path
           class="cls-6"
           d="m 323.5,275.9 v 4 c 0,0.4 -0.3,0.7 -0.7,0.7 -0.4,0 -0.7,-0.3 -0.7,-0.7 v -0.3 0 c -0.3,0.6 -0.8,1 -1.6,1 -1.2,0 -1.8,-0.7 -1.8,-2 v -2.7 c 0,-0.5 0.3,-0.7 0.7,-0.7 0.4,0 0.7,0.2 0.7,0.7 v 2.4 c 0,0.7 0.3,1.1 1,1.1 0.7,0 1,-0.5 1,-1.1 v -2.4 c 0,-0.5 0.3,-0.7 0.7,-0.7 0.4,0 0.7,0.2 0.7,0.7 z"
           id="path143" />
        <path
           class="cls-6"
           d="m 317.7,275.9 v 4 c 0,0.4 -0.3,0.7 -0.7,0.7 -0.4,0 -0.7,-0.3 -0.7,-0.7 v -0.3 0 c -0.3,0.6 -0.8,1 -1.6,1 -1.2,0 -1.8,-0.7 -1.8,-2 v -2.7 c 0,-0.5 0.3,-0.7 0.7,-0.7 0.4,0 0.7,0.2 0.7,0.7 v 2.4 c 0,0.7 0.3,1.1 1,1.1 0.7,0 1,-0.5 1,-1.1 v -2.4 c 0,-0.5 0.3,-0.7 0.7,-0.7 0.4,0 0.7,0.2 0.7,0.7 z"
           id="path144" />
        <path
           class="cls-6"
           d="m 312.1,277.9 c 0,1.7 -1,2.8 -2.5,2.8 -1.5,0 -2.5,-1 -2.5,-2.4 0,-1.4 0.2,-0.6 0.6,-0.6 h 3 c 0,-0.8 -0.5,-1.3 -1.2,-1.3 -0.7,0 -0.9,0.2 -1.2,0.6 -0.1,0.2 -0.3,0.2 -0.5,0.2 -0.3,0 -0.6,-0.2 -0.6,-0.5 0,-0.3 0,-0.2 0.1,-0.4 0.4,-0.6 1.2,-1 2.2,-1 1.6,0 2.6,1 2.6,2.7 v 0 z m -3.6,0.6 c 0,0.7 0.5,1.1 1.1,1.1 0.6,0 1.1,-0.5 1.1,-1.1 z"
           id="path145" />
        <path
           class="cls-6"
           d="m 306.4,275.9 v 5.8 c 0,0.5 -0.3,0.8 -0.7,0.8 -0.4,0 -0.7,-0.3 -0.7,-0.8 v -5.8 c 0,-0.5 0.3,-0.7 0.7,-0.7 0.4,0 0.7,0.2 0.7,0.7 z"
           id="path146" />
        <path
           class="cls-6"
           d="m 651.7,648.5 v 5.6 c 0,0.5 -0.3,0.8 -0.7,0.8 h -2.2 c -1.6,0 -2.5,-0.8 -2.5,-2.2 0,-1.4 0.4,-1.6 1.2,-2 l -1,-1.8 c 0,-0.2 -0.2,-0.3 -0.2,-0.5 0,-0.4 0.3,-0.7 0.7,-0.7 0.4,0 0.5,0 0.8,0.6 l 1.2,2.1 h 1.2 v -1.9 c 0,-0.5 0.3,-0.8 0.7,-0.8 0.4,0 0.7,0.3 0.7,0.8 v 0 z m -2.8,3 c -0.7,0 -1.2,0.4 -1.2,1.1 0,0.7 0.5,1.1 1.2,1.1 h 1.2 v -2.2 h -1.3 v 0 z"
           id="path147" />
        <path
           class="cls-6"
           d="m 645.6,650.5 c 0,1.7 -1,2.7 -2.6,2.7 -1.6,0 -2.6,-1 -2.6,-2.7 0,-1.7 1,-2.7 2.6,-2.7 1.6,0 2.6,1 2.6,2.7 z m -3.7,0 c 0,1 0.5,1.6 1.1,1.6 0.6,0 1.2,-0.6 1.2,-1.6 0,-1 -0.4,-1.6 -1.2,-1.6 -0.8,0 -1.1,0.6 -1.1,1.6 z"
           id="path148" />
        <path
           class="cls-6"
           d="m 639.7,646.8 v 5.7 c 0,0.5 -0.3,0.7 -0.7,0.7 -0.4,0 -0.7,-0.2 -0.7,-0.7 v -0.3 0 c -0.3,0.6 -0.9,1 -1.6,1 -1.3,0 -2.1,-1 -2.1,-2.7 0,-1.7 0.8,-2.7 2.1,-2.7 1.3,0 1.3,0.4 1.6,1 v 0 -2 c 0,-0.5 0.3,-0.7 0.7,-0.7 0.4,0 0.7,0.2 0.7,0.7 z m -3.7,3.7 c 0,1 0.5,1.6 1.2,1.6 0.7,0 1.2,-0.6 1.2,-1.6 0,-1 -0.5,-1.5 -1.2,-1.5 -0.7,0 -1.2,0.6 -1.2,1.5 z"
           id="path149" />
        <path
           class="cls-6"
           d="m 634,650.5 c 0,1.7 -1,2.8 -2.5,2.8 -1.5,0 -2.5,-1 -2.5,-2.4 0,-1.4 0.2,-0.6 0.6,-0.6 h 3 c 0,-0.8 -0.5,-1.3 -1.2,-1.3 -0.7,0 -0.9,0.2 -1.2,0.6 -0.2,0.2 -0.3,0.2 -0.5,0.2 -0.3,0 -0.6,-0.2 -0.6,-0.5 V 649 c 0.3,-0.6 1.2,-1 2.2,-1 1.6,0 2.6,1 2.6,2.7 v 0 -0.2 z m -3.7,0.5 c 0,0.7 0.5,1.1 1.1,1.1 0.6,0 1.1,-0.5 1.1,-1.1 z"
           id="path150" />
        <path
           class="cls-6"
           d="m 132.1,640.8 1.5,5.3 v 0.5 c 0,0.4 -0.3,0.7 -0.7,0.7 -0.4,0 -0.6,-0.2 -0.7,-0.6 l -1.1,-4.6 v 0 l -1.2,4.5 c 0,0.5 -0.3,0.7 -0.8,0.7 -0.5,0 -0.6,-0.2 -0.8,-0.7 l -1.2,-4.5 v 0 l -1.1,4.6 c 0,0.4 -0.3,0.6 -0.7,0.6 -0.4,0 -0.7,-0.2 -0.7,-0.7 v -0.5 l 1.5,-5.3 c 0.2,-0.5 0.4,-0.7 0.8,-0.7 0.4,0 0.7,0.2 0.9,0.8 l 1.2,4.2 v 0 l 1.2,-4.2 c 0,-0.5 0.4,-0.8 0.9,-0.8 0.5,0 0.7,0.2 0.9,0.8 v 0 z"
           id="path151" />
        <path
           class="cls-6"
           d="m 123.9,646.8 c 0,0.4 -0.3,0.7 -0.8,0.7 -0.5,0 -0.8,-0.3 -0.8,-0.7 0,-0.4 0.3,-0.7 0.8,-0.7 0.5,0 0.8,0.3 0.8,0.7 z m 0,-6 v 4 c 0,0.5 -0.3,0.8 -0.7,0.8 -0.4,0 -0.7,-0.3 -0.7,-0.8 v -4 c 0,-0.5 0.3,-0.7 0.7,-0.7 0.4,0 0.7,0.3 0.7,0.7 z"
           id="path152" />
        <path
           class="cls-6"
           d="m 121.5,640.8 v 4 c 0,0.4 -0.3,0.7 -0.7,0.7 -0.4,0 -0.7,-0.3 -0.7,-0.7 v -0.3 0 c -0.3,0.7 -0.8,1 -1.6,1 -1.2,0 -1.8,-0.7 -1.8,-2 v -2.7 c 0,-0.5 0.3,-0.7 0.7,-0.7 0.4,0 0.7,0.2 0.7,0.7 v 2.4 c 0,0.7 0.3,1.1 1,1.1 0.7,0 1,-0.5 1,-1.2 v -2.4 c 0,-0.5 0.3,-0.7 0.7,-0.7 0.4,0 0.7,0.2 0.7,0.7 v 0 z"
           id="path153" />
        <path
           class="cls-6"
           d="m 115.9,642.8 c 0,1.7 -0.8,2.7 -2.1,2.7 -1.3,0 -1.3,-0.4 -1.6,-1 v 0 2.1 c 0,0.5 -0.3,0.8 -0.7,0.8 -0.4,0 -0.7,-0.3 -0.7,-0.8 v -5.8 c 0,-0.5 0.3,-0.7 0.7,-0.7 0.4,0 0.7,0.2 0.7,0.7 v 0.3 0 c 0.2,-0.6 0.8,-1 1.6,-1 1.3,0 2.1,1 2.1,2.7 z m -3.7,0 c 0,1 0.4,1.6 1.2,1.6 0.8,0 1.2,-0.6 1.2,-1.6 0,-1 -0.4,-1.5 -1.2,-1.5 -0.8,0 -1.2,0.6 -1.2,1.5 z"
           id="path154" />
        <path
           class="cls-6"
           d="m 110,642.8 c 0,1.7 -1,2.7 -2.6,2.7 -1.6,0 -2.6,-1 -2.6,-2.7 0,-1.7 1,-2.7 2.6,-2.7 1.6,0 2.6,1 2.6,2.7 z m -3.8,0 c 0,1 0.4,1.6 1.1,1.6 0.7,0 1.2,-0.6 1.2,-1.6 0,-1 -0.4,-1.6 -1.2,-1.6 -0.8,0 -1.1,0.6 -1.1,1.6 z"
           id="path155" />
        <path
           class="cls-6"
           d="m 103.3,640.8 1.1,3.7 v 0.4 c 0,0.4 -0.3,0.6 -0.7,0.6 -0.4,0 -0.6,-0.2 -0.7,-0.6 l -0.8,-3.4 v 0 l -0.8,3.3 c 0,0.4 -0.4,0.7 -0.8,0.7 -0.4,0 -0.7,-0.2 -0.8,-0.7 L 99,641.5 v 0 l -0.8,3.4 c 0,0.4 -0.3,0.6 -0.7,0.6 -0.4,0 -0.7,-0.2 -0.7,-0.6 v -0.4 l 1.1,-3.7 c 0.1,-0.5 0.4,-0.8 0.9,-0.8 0.5,0 0.8,0.2 0.9,0.8 l 0.8,3 v 0 l 0.8,-3.1 c 0.1,-0.5 0.4,-0.8 0.9,-0.8 0.5,0 0.8,0.2 0.9,0.8 h 0.2 z"
           id="path156" />
        <path
           class="cls-6"
           d="m 724.6,219.7 v 5.5 c 0,0.5 -0.3,0.8 -0.7,0.8 h -2.3 c -1.3,0 -2.2,-0.7 -2.2,-1.8 0,-1.1 0.6,-1.4 1.3,-1.5 v 0 c -1,-0.1 -1.7,-0.8 -1.7,-1.7 0,-0.9 0.9,-2 2.4,-2 h 2.4 c 0.5,0 0.7,0.3 0.7,0.8 v 0 z m -2.5,3.3 c -0.8,0 -1.2,0.4 -1.2,0.9 0,0.5 0.4,0.9 1.1,0.9 h 1.2 V 223 Z m -0.2,-3 c -0.8,0 -1.3,0.4 -1.3,1 0,0.6 0.5,1 1.3,1 h 1.2 v -2.1 h -1.3 v 0 z"
           id="path157" />
        <path
           class="cls-6"
           d="m 718.3,219.5 v 4 c 0,0.4 -0.3,0.7 -0.7,0.7 -0.4,0 -0.7,-0.3 -0.7,-0.7 v -0.3 0 c 0,0.6 -0.6,1 -1.1,1 -0.5,0 -0.3,0 -0.4,-0.1 0,-0.1 -0.2,-0.3 -0.2,-0.5 0,-0.2 0,-0.4 0.2,-0.5 0.2,-0.1 0.3,-0.2 0.6,-0.2 0.7,0 0.9,-0.4 0.9,-1 v -2.3 c 0,-0.5 0.3,-0.7 0.7,-0.7 0.4,0 0.7,0.3 0.7,0.7 v 0 z"
           id="path158" />
        <path
           class="cls-6"
           d="m 714.7,225.5 c 0,0.4 -0.3,0.7 -0.8,0.7 -0.5,0 -0.8,-0.3 -0.8,-0.7 0,-0.4 0.3,-0.7 0.8,-0.7 0.5,0 0.8,0.3 0.8,0.7 z m 0,-6 v 4 c 0,0.5 -0.3,0.8 -0.7,0.8 -0.4,0 -0.7,-0.3 -0.7,-0.8 v -4 c 0,-0.5 0.3,-0.7 0.7,-0.7 0.4,0 0.7,0.3 0.7,0.7 z"
           id="path159" />
        <path
           class="cls-6"
           d="m 712.5,221.5 c 0,1.7 -0.8,2.7 -2.1,2.7 -1.3,0 -1.3,-0.4 -1.6,-1 v 0 2.1 c 0,0.5 -0.3,0.8 -0.7,0.8 -0.4,0 -0.7,-0.3 -0.7,-0.8 v -5.8 c 0,-0.5 0.3,-0.7 0.7,-0.7 0.4,0 0.7,0.2 0.7,0.7 v 0.3 0 c 0.2,-0.6 0.8,-1 1.6,-1 1.3,0 2.1,1 2.1,2.7 z m -3.8,0 c 0,0.9 0.5,1.6 1.2,1.6 0.7,0 1.2,-0.6 1.2,-1.6 0,-1 -0.4,-1.6 -1.2,-1.6 -0.8,0 -1.2,0.6 -1.2,1.6 z"
           id="path160" />
        <path
           class="cls-6"
           d="m 706.2,217.9 c 0,0.1 0,0.3 0,0.4 0,0.3 -0.2,0.5 -0.6,0.5 -0.4,0 -0.3,0 -0.5,-0.2 -0.4,-0.4 -0.8,-0.6 -1.2,-0.6 -0.8,0 -1.2,0.4 -1.2,1.1 v 0.8 0 c 0.2,-0.6 0.8,-0.9 1.6,-0.9 1.3,0 2.1,1 2.1,2.6 0,1.6 -0.8,2.6 -2.2,2.6 -1.4,0 -1.3,-0.4 -1.6,-1 v 0 0.3 c 0,0.5 -0.3,0.7 -0.7,0.7 -0.4,0 -0.7,-0.2 -0.7,-0.7 v -4.4 c 0,-1.4 1,-2.2 2.7,-2.2 1.7,0 1.9,0.4 2.2,1 v 0 z m -3.4,3.7 c 0,0.9 0.5,1.6 1.2,1.6 0.7,0 1.2,-0.6 1.2,-1.5 0,-0.9 -0.4,-1.5 -1.2,-1.5 -0.8,0 -1.2,0.6 -1.2,1.5 v 0 z"
           id="path161" />
        <path
           class="cls-6"
           d="m 700.6,221.5 c 0,1.7 -1,2.8 -2.5,2.8 -1.5,0 -2.5,-1 -2.5,-2.4 0,-1.4 0.2,-0.6 0.6,-0.6 h 3 c 0,-0.8 -0.5,-1.3 -1.2,-1.3 -0.7,0 -0.9,0.2 -1.2,0.6 -0.2,0.2 -0.3,0.2 -0.5,0.2 -0.3,0 -0.6,-0.2 -0.6,-0.5 v -0.4 c 0.3,-0.6 1.2,-1 2.2,-1 1.6,0 2.6,1 2.6,2.7 h 0.1 z m -3.6,0.6 c 0,0.7 0.5,1.1 1.1,1.1 0.6,0 1.1,-0.5 1.1,-1.1 z"
           id="path162" />
        <path
           class="cls-6"
           d="m 268.3,395.4 v 5.5 c 0,0.5 -0.3,0.8 -0.7,0.8 h -3.4 c -0.4,0 -0.7,-0.2 -0.7,-0.6 0,-0.4 0.3,-0.6 0.7,-0.6 h 2.6 v -1.7 h -2.5 c -0.4,0 -0.6,-0.2 -0.6,-0.6 0,-0.4 0.2,-0.6 0.6,-0.6 h 2.5 v -1.8 h -2.6 c -0.4,0 -0.7,-0.2 -0.7,-0.6 0,-0.4 0.3,-0.6 0.7,-0.6 h 3.4 c 0.5,0 0.7,0.3 0.7,0.8 z"
           id="path163" />
        <path
           class="cls-6"
           d="m 262.7,395.3 v 5.8 c 0,0.5 -0.3,0.8 -0.7,0.8 -0.4,0 -0.7,-0.3 -0.7,-0.8 v -5.8 c 0,-0.5 0.3,-0.7 0.7,-0.7 0.4,0 0.7,0.2 0.7,0.7 z"
           id="path164" />
        <path
           class="cls-6"
           d="m 260.3,395.3 v 5.8 c 0,0.5 -0.3,0.8 -0.7,0.8 -0.4,0 -0.7,-0.3 -0.7,-0.8 v -2.1 0 c -0.3,0.6 -0.9,1 -1.6,1 -1.3,0 -2.1,-1 -2.1,-2.7 0,-1.7 0.8,-2.7 2.1,-2.7 1.3,0 1.4,0.4 1.6,1 v 0 -0.3 c 0,-0.5 0.3,-0.7 0.7,-0.7 0.4,0 0.7,0.2 0.7,0.7 z m -3.8,2 c 0,1 0.4,1.6 1.1,1.6 0.7,0 1.2,-0.6 1.2,-1.6 0,-1 -0.5,-1.5 -1.2,-1.5 -0.7,0 -1.1,0.6 -1.1,1.5 z"
           id="path165" />
        <path
           class="cls-6"
           d="m 254.5,397.3 c 0,1.7 -1,2.7 -2.6,2.7 -1.6,0 -2.6,-1 -2.6,-2.7 0,-1.7 1,-2.7 2.6,-2.7 1.6,0 2.6,1 2.6,2.7 z m -3.7,0 c 0,1 0.5,1.6 1.1,1.6 0.6,0 1.1,-0.6 1.1,-1.6 0,-1 -0.4,-1.6 -1.1,-1.6 -0.7,0 -1.1,0.6 -1.1,1.6 z"
           id="path166" />
        <path
           class="cls-6"
           d="m 247.8,395.3 1,3.6 v 0.4 c 0,0.4 -0.3,0.6 -0.7,0.6 -0.4,0 -0.6,-0.2 -0.7,-0.6 l -0.8,-3.4 v 0 l -0.8,3.3 c 0,0.4 -0.4,0.6 -0.8,0.6 -0.4,0 -0.7,-0.2 -0.8,-0.6 l -0.8,-3.3 v 0 l -0.8,3.4 c 0,0.4 -0.3,0.6 -0.7,0.6 -0.4,0 -0.7,-0.2 -0.7,-0.6 v -0.4 l 1,-3.6 c 0.1,-0.5 0.4,-0.8 0.9,-0.8 0.5,0 0.8,0.2 0.9,0.8 l 0.8,3 v 0 l 0.8,-3.1 c 0.1,-0.5 0.4,-0.8 0.9,-0.8 0.5,0 0.8,0.2 0.9,0.8 h 0.4 z"
           id="path167" />
        <path
           class="cls-6"
           d="m 45.8,355 v 5.6 c 0,0.5 -0.3,0.8 -0.7,0.8 -0.4,0 -0.7,-0.3 -0.7,-0.8 v -5.1 h -2.5 c -0.4,0 -0.7,-0.2 -0.7,-0.6 0,-0.4 0.3,-0.6 0.7,-0.6 h 3.2 c 0.5,0 0.7,0.3 0.7,0.8 v 0 z"
           id="path168" />
        <path
           class="cls-6"
           d="m 40.7,355.7 c 0,1 -0.7,1.5 -2,1.6 h -1.3 v 0.4 c 0,0.5 0.3,0.8 0.9,0.8 0.6,0 0.7,-0.1 1,-0.5 0.2,-0.2 0.3,-0.3 0.6,-0.3 0.3,0 0.6,0.2 0.6,0.5 v 0.3 c -0.2,0.6 -1.1,1 -2.2,1 -1.1,0 -2.2,-0.7 -2.2,-1.8 v -3 c 0,-0.5 0.3,-0.7 0.7,-0.7 0.4,0 0.6,0.2 0.7,0.6 v 0.3 0 c 0.3,-0.6 1,-0.9 1.6,-0.9 1,0 1.8,0.6 1.8,1.6 h -0.2 z m -3.4,0.4 v 0.4 h 1.1 c 0.5,-0.1 0.8,-0.4 0.8,-0.7 0,-0.3 -0.3,-0.6 -0.8,-0.6 -0.5,0 -1.1,0.4 -1.1,1 v 0 z"
           id="path169" />
        <path
           class="cls-6"
           d="m 35.2,356.8 c 0,1.7 -0.8,2.7 -2.1,2.7 -1.3,0 -1.3,-0.4 -1.6,-1 v 0 2.1 c 0,0.5 -0.3,0.8 -0.7,0.8 -0.4,0 -0.7,-0.3 -0.7,-0.8 v -5.8 c 0,-0.5 0.3,-0.7 0.7,-0.7 0.4,0 0.7,0.2 0.7,0.7 v 0.3 0 c 0.2,-0.6 0.8,-1 1.6,-1 1.3,0 2.1,1 2.1,2.7 z m -3.8,0 c 0,1 0.5,1.6 1.2,1.6 0.7,0 1.2,-0.6 1.2,-1.6 0,-1 -0.4,-1.5 -1.2,-1.5 -0.8,0 -1.2,0.6 -1.2,1.5 z"
           id="path170" />
        <path
           class="cls-6"
           d="m 29.2,356.8 c 0,1.7 -0.8,2.7 -2.1,2.7 -1.3,0 -1.3,-0.4 -1.6,-1 v 0 2.1 c 0,0.5 -0.3,0.8 -0.7,0.8 -0.4,0 -0.7,-0.3 -0.7,-0.8 v -5.8 c 0,-0.5 0.3,-0.7 0.7,-0.7 0.4,0 0.7,0.2 0.7,0.7 v 0.3 0 c 0.2,-0.6 0.8,-1 1.6,-1 1.3,0 2.1,1 2.1,2.7 z m -3.7,0 c 0,1 0.5,1.6 1.2,1.6 0.7,0 1.2,-0.6 1.2,-1.6 0,-1 -0.4,-1.5 -1.2,-1.5 -0.8,0 -1.2,0.6 -1.2,1.5 z"
           id="path171" />
        <path
           class="cls-6"
           d="m 23.3,356.8 c 0,1.7 -1,2.8 -2.5,2.8 -1.5,0 -2.5,-1 -2.5,-2.4 0,-1.4 0.2,-0.6 0.6,-0.6 h 3 c 0,-0.8 -0.5,-1.3 -1.2,-1.3 -0.7,0 -0.9,0.2 -1.2,0.6 -0.2,0.2 -0.3,0.2 -0.5,0.2 -0.3,0 -0.6,-0.2 -0.6,-0.5 v -0.4 c 0.3,-0.6 1.2,-1 2.2,-1 1.6,0 2.6,1 2.6,2.7 h 0.1 z m -3.6,0.6 c 0,0.7 0.5,1.1 1.1,1.1 0.6,0 1.1,-0.5 1.1,-1.1 z"
           id="path172" />
        <path
           class="cls-6"
           d="m 17.5,354.9 v 4 c 0,0.5 -0.3,0.7 -0.7,0.7 -0.4,0 -0.7,-0.3 -0.7,-0.7 v -0.3 0 c 0,0.6 -0.6,1 -1.1,1 -0.5,0 -0.3,0 -0.4,-0.1 0,-0.1 -0.2,-0.3 -0.2,-0.5 0,-0.2 0,-0.4 0.2,-0.5 0.2,-0.1 0.3,-0.2 0.6,-0.2 0.7,0 0.9,-0.4 0.9,-1 V 355 c 0,-0.5 0.3,-0.7 0.7,-0.7 0.4,0 0.7,0.3 0.7,0.7 v 0 z"
           id="path173" />
        <path
           class="cls-6"
           d="m 267.5,215.8 v 5.7 c 0,0.5 -0.3,0.8 -0.7,0.8 -0.4,0 -0.7,-0.3 -0.7,-0.8 v -2.2 h -3.2 v 2.2 c 0,0.5 -0.3,0.8 -0.7,0.8 -0.4,0 -0.7,-0.3 -0.7,-0.8 v -5.7 c 0,-0.5 0.3,-0.8 0.7,-0.8 0.4,0 0.7,0.3 0.7,0.8 v 2.3 h 3.2 v -2.3 c 0,-0.5 0.3,-0.8 0.7,-0.8 0.4,0 0.7,0.3 0.7,0.8 z"
           id="path176" />
        <path
           class="cls-6"
           d="m 260.6,216.7 c 0,0.9 -0.7,1.5 -2,1.6 h -1.3 v 0.4 c 0,0.5 0.3,0.8 0.9,0.8 0.6,0 0.7,-0.1 1,-0.6 0.2,-0.2 0.3,-0.3 0.6,-0.3 0.3,0 0.6,0.2 0.6,0.6 0,0.4 0,0.2 0,0.3 -0.2,0.6 -1.1,1 -2.2,1 -1.1,0 -2.2,-0.7 -2.2,-1.8 v -3 c 0,-0.5 0.3,-0.7 0.7,-0.7 0.4,0 0.6,0.2 0.7,0.6 v 0.3 0 c 0.3,-0.6 0.9,-0.9 1.6,-0.9 1,0 1.8,0.6 1.8,1.6 h -0.2 z m -3.4,0.4 v 0.4 h 1.1 c 0.5,-0.1 0.8,-0.4 0.8,-0.7 0,-0.3 -0.3,-0.6 -0.8,-0.6 -0.5,0 -1.1,0.4 -1.1,1 v 0 z"
           id="path177" />
        <path
           class="cls-6"
           d="m 254.9,215.8 v 5.8 c 0,0.5 -0.3,0.8 -0.7,0.8 -0.4,0 -0.7,-0.3 -0.7,-0.8 v -5.8 c 0,-0.5 0.3,-0.7 0.7,-0.7 0.4,0 0.7,0.2 0.7,0.7 z"
           id="path178" />
        <path
           class="cls-6"
           d="m 252.1,215.8 v 3.5 h 0.3 c 0.3,0 0.5,0.2 0.5,0.5 0,0.3 -0.2,0.5 -0.5,0.5 h -0.3 v 0.4 c 0,1 -0.5,1.5 -1.5,1.5 -1,0 -1.1,-0.2 -1.1,-0.6 0,-0.4 0.1,-0.3 0.3,-0.4 h 0.3 c 0.4,0 0.6,-0.2 0.6,-0.6 v -0.3 h -0.6 c -0.3,0 -0.5,-0.2 -0.5,-0.5 0,-0.3 0.2,-0.5 0.5,-0.5 h 0.6 v -3.5 c 0,-0.5 0.3,-0.7 0.7,-0.7 0.4,0 0.7,0.2 0.7,0.7 z"
           id="path179" />
        <path
           class="cls-6"
           d="m 245.5,215.8 1.5,5.3 v 0.5 c 0,0.4 -0.3,0.7 -0.7,0.7 -0.4,0 -0.6,-0.2 -0.7,-0.6 l -1.1,-4.6 v 0 l -1.2,4.5 c -0.1,0.5 -0.4,0.7 -0.8,0.7 -0.4,0 -0.6,-0.2 -0.8,-0.6 l -1.2,-4.6 v 0 l -1.1,4.6 c 0,0.4 -0.3,0.6 -0.7,0.6 -0.4,0 -0.7,-0.2 -0.7,-0.7 v -0.5 l 1.5,-5.3 c 0.1,-0.5 0.4,-0.7 0.9,-0.7 0.5,0 0.7,0.2 0.9,0.8 l 1.2,4.2 v 0 l 1.2,-4.2 c 0.1,-0.5 0.4,-0.8 0.9,-0.8 0.5,0 0.7,0.2 0.9,0.8 v 0 z"
           id="path180" />
        <path
           class="cls-6"
           d="m 238.2,216.7 c 0,0.9 -0.7,1.5 -2,1.6 h -1.3 v 0.4 c 0,0.5 0.3,0.8 0.9,0.8 0.6,0 0.7,-0.1 1,-0.6 0.2,-0.2 0.3,-0.3 0.6,-0.3 0.3,0 0.6,0.2 0.6,0.6 0,0.4 0,0.2 0,0.3 -0.2,0.6 -1.1,1 -2.2,1 -1.1,0 -2.2,-0.7 -2.2,-1.8 v -3 c 0,-0.5 0.3,-0.7 0.7,-0.7 0.4,0 0.6,0.2 0.7,0.6 v 0.3 0 c 0.3,-0.6 1,-0.9 1.6,-0.9 1,0 1.8,0.6 1.8,1.6 h -0.2 z m -3.4,0.4 v 0.4 h 1.1 c 0.5,-0.1 0.8,-0.4 0.8,-0.7 0,-0.3 -0.3,-0.6 -0.8,-0.6 -0.5,0 -1.1,0.4 -1.1,1 v 0 z"
           id="path181" />
        <path
           class="cls-6"
           d="m 232.5,215.8 v 5.8 c 0,0.5 -0.3,0.8 -0.7,0.8 -0.4,0 -0.7,-0.3 -0.7,-0.8 v -5.8 c 0,-0.5 0.3,-0.7 0.7,-0.7 0.4,0 0.7,0.2 0.7,0.7 z"
           id="path182" />
        <path
           class="cls-6"
           d="m 230,215.8 v 5.8 c 0,0.5 -0.3,0.8 -0.7,0.8 -0.4,0 -0.7,-0.3 -0.7,-0.8 v -5.8 c 0,-0.5 0.3,-0.7 0.7,-0.7 0.4,0 0.7,0.2 0.7,0.7 z"
           id="path183" />
        <path
           class="cls-6"
           d="m 472.6,294.3 v 5.1 h 1.5 c 0.4,0 0.7,0.2 0.7,0.6 0,0.4 -0.3,0.6 -0.7,0.6 h -4.4 c -0.4,0 -0.7,-0.2 -0.7,-0.6 0,-0.4 0.3,-0.6 0.7,-0.6 h 1.5 v -5.1 c 0,-0.5 0.3,-0.8 0.7,-0.8 0.4,0 0.7,0.3 0.7,0.8 z"
           id="path184" />
        <path
           class="cls-6"
           d="m 469.7,296.3 c 0,1.7 -1,2.7 -2.6,2.7 -1.6,0 -2.6,-1 -2.6,-2.7 0,-1.7 1,-2.7 2.6,-2.7 1.6,0 2.6,1 2.6,2.7 z m -3.7,0 c 0,1 0.5,1.6 1.1,1.6 0.6,0 1.1,-0.6 1.1,-1.6 0,-1 -0.4,-1.6 -1.1,-1.6 -0.7,0 -1.1,0.6 -1.1,1.6 z"
           id="path185" />
        <path
           class="cls-6"
           d="m 463.8,292.5 v 5.7 c 0,0.5 -0.3,0.7 -0.7,0.7 -0.4,0 -0.7,-0.2 -0.7,-0.7 v -0.3 0 c -0.3,0.6 -0.9,1 -1.6,1 -1.3,0 -2.1,-1 -2.1,-2.7 0,-1.7 0.8,-2.7 2.1,-2.7 1.3,0 1.4,0.4 1.6,1 v 0 -2 c 0,-0.5 0.3,-0.7 0.7,-0.7 0.4,0 0.7,0.2 0.7,0.7 z m -3.7,3.8 c 0,1 0.5,1.6 1.2,1.6 0.7,0 1.2,-0.6 1.2,-1.6 0,-1 -0.5,-1.5 -1.2,-1.5 -0.7,0 -1.2,0.6 -1.2,1.5 z"
           id="path186" />
        <path
           class="cls-6"
           d="m 455.9,294.3 v 4 c 0,0.5 -0.3,0.7 -0.7,0.7 -0.4,0 -0.7,-0.2 -0.7,-0.7 v -0.3 0 c -0.2,0.6 -0.8,1 -1.5,1 -0.7,0 -1.3,-0.4 -1.5,-1.1 v 0 c -0.2,0.7 -0.9,1.1 -1.6,1.1 -0.7,0 -1.7,-0.7 -1.7,-1.8 v -2.9 c 0,-0.5 0.3,-0.7 0.7,-0.7 0.4,0 0.7,0.3 0.7,0.7 v 2.6 c 0,0.6 0.3,0.9 0.9,0.9 0.6,0 0.9,-0.4 0.9,-1 v -2.5 c 0,-0.5 0.3,-0.7 0.7,-0.7 0.4,0 0.7,0.3 0.7,0.7 v 2.6 c 0,0.6 0.3,0.9 0.8,0.9 0.5,0 0.9,-0.4 0.9,-1 v -2.5 c 0,-0.5 0.3,-0.7 0.7,-0.7 0.4,0 0.7,0.3 0.7,0.7 z"
           id="path187" />
        <path
           class="cls-6"
           d="m 447.3,300.3 c 0,0.4 -0.3,0.7 -0.8,0.7 -0.5,0 -0.8,-0.3 -0.8,-0.7 0,-0.4 0.3,-0.7 0.8,-0.7 0.5,0 0.8,0.3 0.8,0.7 z m -0.1,-6 v 4 c 0,0.5 -0.3,0.8 -0.7,0.8 -0.4,0 -0.7,-0.3 -0.7,-0.8 v -4 c 0,-0.5 0.3,-0.7 0.7,-0.7 0.4,0 0.7,0.3 0.7,0.7 z"
           id="path188" />
        <path
           class="cls-6"
           d="m 445.1,296.3 c 0,1.7 -0.8,2.7 -2.1,2.7 -1.3,0 -1.3,-0.4 -1.6,-1 v 0 2.1 c 0,0.5 -0.3,0.8 -0.7,0.8 -0.4,0 -0.7,-0.3 -0.7,-0.8 v -5.8 c 0,-0.5 0.3,-0.7 0.7,-0.7 0.4,0 0.7,0.2 0.7,0.7 v 0.3 0 c 0.2,-0.6 0.8,-1 1.6,-1 1.3,0 2.1,1 2.1,2.7 z m -3.8,0 c 0,1 0.5,1.6 1.2,1.6 0.7,0 1.2,-0.6 1.2,-1.6 0,-1 -0.4,-1.5 -1.2,-1.5 -0.8,0 -1.2,0.6 -1.2,1.5 z"
           id="path189" />
        <path
           class="cls-6"
           d="m 694.5,722 v 0.5 l -1.9,5.2 c -0.2,0.6 -0.5,0.8 -1.1,0.8 -0.6,0 -0.9,-0.2 -1.1,-0.8 l -1.9,-5.2 V 722 c 0,-0.4 0.3,-0.7 0.7,-0.7 0.4,0 0.6,0.2 0.8,0.7 l 0.4,1.1 h 2.5 l 0.4,-1.1 c 0,-0.5 0.4,-0.7 0.8,-0.7 0.4,0 0.8,0.3 0.8,0.7 z m -4.1,2.2 0.9,2.9 v 0 l 0.9,-2.9 h -1.9 v 0 z"
           id="path190" />
        <path
           class="cls-6"
           d="m 685.3,722 v 5.6 c 0,0.6 -0.3,1 -1,1 -0.7,0 -0.8,-0.2 -1,-0.8 l -1.8,-4.3 v 0 l -1.7,4.3 c -0.2,0.5 -0.5,0.8 -1,0.8 -0.5,0 -1,-0.3 -1,-1 V 722 c 0,-0.4 0.2,-0.7 0.7,-0.7 0.5,0 0.7,0.2 0.7,0.7 v 4.2 0 l 1.7,-4.3 c 0,-0.3 0.3,-0.5 0.6,-0.5 0.3,0 0.5,0 0.6,0.4 l 1.7,4.3 v 0 -4.2 c 0,-0.4 0.2,-0.7 0.7,-0.7 0.5,0 0.7,0.2 0.7,0.7 v 0 z"
           id="path191"
           inkscape:label="path191" />
        <path
           class="cls-6"
           d="m 677.1,722.9 c 0,1 -0.7,1.5 -2,1.6 h -1.3 v 0.4 c 0,0.5 0.3,0.8 0.9,0.8 0.6,0 0.7,0 1,-0.5 0.2,-0.2 0.3,-0.3 0.6,-0.3 0.3,0 0.6,0.2 0.6,0.5 v 0.3 c -0.2,0.6 -1.1,1 -2.2,1 -1.1,0 -2.2,-0.7 -2.2,-1.8 v -3 c 0,-0.5 0.3,-0.7 0.7,-0.7 0.4,0 0.7,0.2 0.7,0.6 v 0.3 0 c 0.3,-0.6 1,-0.9 1.6,-0.9 1,0 1.8,0.6 1.8,1.6 h -0.2 z m -3.3,0.4 v 0.4 h 1.1 c 0.5,0 0.8,-0.4 0.8,-0.7 0,-0.3 -0.3,-0.6 -0.8,-0.6 -0.5,0 -1.1,0.4 -1.1,1 v 0 z"
           id="path192" />
        <path
           class="cls-6"
           d="m 671.5,728 c 0,0.4 -0.3,0.7 -0.8,0.7 -0.5,0 -0.8,-0.3 -0.8,-0.7 0,-0.4 0.3,-0.7 0.8,-0.7 0.5,0 0.8,0.3 0.8,0.7 z m -0.1,-6 v 4 c 0,0.5 -0.3,0.8 -0.7,0.8 -0.4,0 -0.7,-0.3 -0.7,-0.8 v -4 c 0,-0.5 0.3,-0.7 0.7,-0.7 0.4,0 0.7,0.3 0.7,0.7 z"
           id="path193" />
        <path
           class="cls-6"
           d="m 669.1,722 v 4 c 0,0.4 -0.3,0.7 -0.7,0.7 -0.4,0 -0.7,-0.3 -0.7,-0.7 v -0.3 0 c -0.3,0.7 -0.8,1 -1.6,1 -1.2,0 -1.8,-0.7 -1.8,-2 V 722 c 0,-0.5 0.3,-0.7 0.7,-0.7 0.4,0 0.7,0.2 0.7,0.7 v 2.4 c 0,0.7 0.3,1.1 1,1.1 0.7,0 1,-0.5 1,-1.2 v -2.4 c 0,-0.5 0.3,-0.7 0.7,-0.7 0.4,0 0.7,0.2 0.7,0.7 v 0 z"
           id="path194" />
        <path
           class="cls-6"
           d="m 650.6,364.7 v 0.4 c 0,0.4 -0.3,0.6 -0.7,0.6 -0.4,0 -0.5,-0.1 -0.7,-0.4 -0.2,-0.5 -0.8,-0.8 -1.5,-0.8 -0.7,0 -1.3,0.4 -1.3,0.9 0,0.5 0.3,0.7 1.2,0.9 h 0.8 c 1.4,0.4 2.1,1.1 2.1,2.1 0,1 -1.1,2.1 -2.7,2.1 -1.6,0 -2.3,-0.5 -2.6,-1.5 v -0.3 c 0,-0.4 0.2,-0.6 0.6,-0.6 0.4,0 0.5,0.1 0.7,0.4 0.2,0.5 0.7,0.8 1.3,0.8 0.6,0 1.2,-0.3 1.2,-0.9 0,-0.6 -0.3,-0.7 -1.2,-0.9 h -0.7 c -1.5,-0.4 -2.1,-1 -2.1,-2.1 0,-1.1 1.1,-2.2 2.8,-2.2 1.7,0 2.4,0.6 2.7,1.4 h 0.1 z"
           id="path195" />
        <path
           class="cls-6"
           d="m 643.4,364.1 1,3.6 v 0.4 c 0,0.4 -0.3,0.6 -0.7,0.6 -0.4,0 -0.6,-0.2 -0.7,-0.6 l -0.8,-3.4 v 0 l -0.8,3.3 c 0,0.4 -0.4,0.6 -0.8,0.6 -0.4,0 -0.7,-0.2 -0.8,-0.6 l -0.8,-3.3 v 0 l -0.8,3.4 c 0,0.4 -0.3,0.6 -0.7,0.6 -0.4,0 -0.7,-0.2 -0.7,-0.6 v -0.4 l 1,-3.6 c 0.2,-0.5 0.4,-0.8 0.9,-0.8 0.5,0 0.8,0.2 0.9,0.8 l 0.8,3 v 0 l 0.8,-3.1 c 0,-0.5 0.4,-0.8 0.9,-0.8 0.5,0 0.8,0.2 0.9,0.8 h 0.4 z"
           id="path196" />
        <path
           class="cls-6"
           d="m 636.4,370.1 c 0,0.4 -0.3,0.7 -0.8,0.7 -0.5,0 -0.8,-0.3 -0.8,-0.7 0,-0.4 0.3,-0.7 0.8,-0.7 0.5,0 0.8,0.3 0.8,0.7 z m 0,-6 v 4 c 0,0.5 -0.3,0.8 -0.7,0.8 -0.4,0 -0.7,-0.3 -0.7,-0.8 v -4 c 0,-0.5 0.3,-0.7 0.7,-0.7 0.4,0 0.7,0.3 0.7,0.7 z"
           id="path197" />
        <path
           class="cls-6"
           d="m 633.6,367.6 h 0.3 c 0.3,0 0.5,0.2 0.5,0.5 0,0.3 -0.2,0.5 -0.5,0.5 h -0.3 v 0.6 c 0,0.5 -0.3,0.7 -0.7,0.7 -0.4,0 -0.7,-0.3 -0.7,-0.7 v -0.6 h -0.5 c -0.3,0 -0.5,-0.2 -0.5,-0.5 0,-0.3 0.2,-0.5 0.5,-0.5 h 0.5 v -2.5 c 0,-0.4 0,-0.5 -0.4,-0.5 v 0 c -0.3,0 -0.5,-0.2 -0.5,-0.5 0,-0.3 0.4,-0.6 1,-0.6 v 0 c 1,0 1.4,0.5 1.4,1.4 v 2.8 0 z"
           id="path198" />
        <path
           class="cls-6"
           d="m 630.7,366.1 c 0,1.7 -1,2.7 -2.6,2.7 -1.6,0 -1.9,-0.5 -2.2,-1.2 v -0.4 c 0,-0.4 0.3,-0.6 0.6,-0.6 0.3,0 0.5,0.1 0.6,0.4 0.3,0.5 0.6,0.7 1,0.7 0.7,0 1.2,-0.6 1.2,-1.6 0,-1 -0.4,-1.6 -1.2,-1.6 -0.8,0 -0.8,0.2 -1,0.6 -0.2,0.3 -0.3,0.4 -0.7,0.4 -0.4,0 -0.6,-0.2 -0.6,-0.6 v -0.4 c 0.3,-0.7 1.2,-1.2 2.2,-1.2 1.6,0 2.6,1 2.6,2.7 h 0.1 z"
           id="path199" />
        <path
           class="cls-6"
           d="m 625,364.1 v 5.8 c 0,0.5 -0.3,0.7 -0.7,0.7 -0.4,0 -0.7,-0.3 -0.7,-0.7 v -2.1 0 c -0.3,0.7 -0.8,1 -1.7,1 -0.9,0 -1.8,-0.8 -1.8,-2 v -2.7 c 0,-0.5 0.3,-0.7 0.7,-0.7 0.4,0 0.7,0.2 0.7,0.7 v 2.4 c 0,0.7 0.3,1.1 1,1.1 0.7,0 1.1,-0.5 1.1,-1.2 V 364 c 0,-0.5 0.3,-0.7 0.7,-0.7 0.4,0 0.7,0.2 0.7,0.7 v 0 z"
           id="path200" />
      </g>
    </g>
  </g>
</svg>
