<?xml version="1.0" encoding="UTF-8" standalone="no"?>
<svg
   version="1.1"
   viewBox="0 0 976.5 956.1"
   id="svg200"
   sodipodi:docname="breeze_calls.svg"
   inkscape:version="1.4.2 (f4327f4, 2025-05-13)"
   xmlns:inkscape="http://www.inkscape.org/namespaces/inkscape"
   xmlns:sodipodi="http://sodipodi.sourceforge.net/DTD/sodipodi-0.dtd"
   xmlns="http://www.w3.org/2000/svg"
   xmlns:svg="http://www.w3.org/2000/svg">
  <sodipodi:namedview
     id="namedview200"
     pagecolor="#505050"
     bordercolor="#eeeeee"
     borderopacity="1"
     inkscape:showpageshadow="0"
     inkscape:pageopacity="0"
     inkscape:pagecheckerboard="0"
     inkscape:deskcolor="#505050"
     inkscape:zoom="0.84405399"
     inkscape:cx="488.12043"
     inkscape:cy="478.04999"
     inkscape:window-width="1920"
     inkscape:window-height="1009"
     inkscape:window-x="1912"
     inkscape:window-y="-8"
     inkscape:window-maximized="1"
     inkscape:current-layer="Layer_1" />
  <defs
     id="defs1">
    <style
       id="style1">
      .cls-1, .cls-2, .cls-3 {
        fill: none;
      }

      .cls-2 {
        stroke-miterlimit: 10;
      }

      .cls-2, .cls-3 {
        stroke: #fff;
      }

      .cls-4 {
        fill: #3d3d3d;
      }

      .cls-5 {
        fill: #7e7f7e;
      }

      .cls-6 {
        fill: #fff;
      }

      .cls-3 {
        stroke-miterlimit: 10;
        stroke-width: 1px;
      }

      .cls-7 {
        fill: #535353;
      }
    </style>
  </defs>
  <!-- Generator: Adobe Illustrator 28.6.0, SVG Export Plug-In . SVG Version: 1.2.0 Build 709)  -->
  <g
     id="g200">
    <g
       id="Layer_1">
      <g
         id="Callouts_copy">
        <path
           class="cls-6"
           d="M384.3,902.5c0-.2,0-.4.1-.6l2.5-6.8c.3-.7.7-1.1,1.4-1.1s1.2.3,1.5,1.1l2.5,6.8c0,.2.1.4.1.6,0,.5-.4.9-1,.9s-.8-.2-1-.8l-.5-1.5h-3.3l-.5,1.4c-.2.6-.5.9-1,.9s-1-.3-1-.9h.2ZM389.6,899.6l-1.2-3.8h0l-1.2,3.8h2.4Z"
           id="path72" />
        <path
           class="cls-6"
           d="M393.5,897.8h-.4c-.4,0-.7-.3-.7-.7s.3-.7.7-.7h.4v-.8c0-.6.4-1,.9-1s.9.4.9,1v.8h.6c.4,0,.7.3.7.7s-.3.7-.7.7h-.6v3.3c0,.5.2.7.6.7h.1c.5,0,.7.2.7.7s-.5.8-1.3.8h0c-1.2,0-1.9-.6-1.9-1.8v-3.7h0Z"
           id="path73" />
        <path
           class="cls-6"
           d="M398.2,897.8h-.4c-.4,0-.7-.3-.7-.7s.3-.7.7-.7h.4v-.8c0-.6.4-1,.9-1s.9.4.9,1v.8h.6c.4,0,.7.3.7.7s-.3.7-.7.7h-.6v3.3c0,.5.2.7.6.7h.1c.5,0,.7.2.7.7s-.5.8-1.3.8h0c-1.2,0-1.9-.6-1.9-1.8v-3.7h0Z"
           id="path74" />
        <path
           class="cls-6"
           d="M402,901.3c0-1.2,1-2,2.6-2.1h1.7v-.5c0-.6-.4-1-1.1-1s-.9.2-1.3.7c-.2.2-.4.3-.7.3-.5,0-.8-.3-.8-.7s0-.3.1-.4c.3-.8,1.4-1.3,2.8-1.3s2.9.9,2.9,2.3v3.9c0,.6-.4.9-.9.9s-.9-.3-.9-.8v-.3h0c-.4.7-1.2,1.2-2.1,1.2-1.3,0-2.3-.8-2.3-2.1h0ZM406.3,900.8v-.5h-1.4c-.7,0-1.1.5-1.1.9s.4.8,1,.8,1.5-.5,1.5-1.3h0Z"
           id="path75" />
        <path
           class="cls-6"
           d="M409.1,899.9c0-2.2,1.3-3.5,3.3-3.5s2.5.7,2.9,1.6c0,.2.1.3.1.5,0,.5-.4.7-.8.7s-.6-.2-.8-.5c-.3-.6-.8-.9-1.3-.9-.9,0-1.5.8-1.5,2.1s.6,2.1,1.5,2.1,1-.3,1.3-.8c.2-.4.5-.5.8-.5s.8.3.8.7,0,.3-.1.5c-.4.9-1.6,1.6-2.9,1.6-2,0-3.4-1.3-3.4-3.5h.1Z"
           id="path76" />
        <path
           class="cls-6"
           d="M416.5,902.4v-7.5c0-.6.4-1,.9-1s.9.3.9,1v4.2h0l2.5-2.5c.2-.3.5-.4.7-.4.5,0,.8.3.8.8s0,.5-.4.7l-1.7,1.6,1.9,2.4c.2.3.3.4.3.7,0,.5-.4.8-.9.8s-.6,0-.9-.6l-1.8-2.3-.6.5v1.4c0,.6-.4,1-.9,1s-.9-.3-.9-1h0v.2Z"
           id="path77" />
        <path
           class="cls-6"
           d="M422.9,899.9c0-2.2,1.3-3.6,3.3-3.6s3.2,1.3,3.2,3.2-.3.8-.8.8h-3.9c0,1.1.6,1.8,1.5,1.8s1.1-.2,1.6-.8c.2-.2.4-.3.6-.3.4,0,.7.2.7.7s0,.3-.1.5c-.5.8-1.5,1.3-2.8,1.3-2.1,0-3.4-1.3-3.4-3.5h0ZM427.6,899.2c0-.9-.6-1.5-1.4-1.5s-1.4.6-1.5,1.5h2.9Z"
           id="path78" />
        <path
           class="cls-6"
           d="M430.3,902.4v-5.2c0-.6.4-.9.9-.9s.9.3.9.9v.5h0c.2-.8.7-1.3,1.4-1.3s.4,0,.6.2c.2,0,.3.4.3.7s0,.5-.3.7-.4.2-.8.2c-.8,0-1.1.5-1.1,1.3v3c0,.6-.4,1-.9,1s-.9-.3-.9-1h-.1Z"
           id="path79" />
        <path
           class="cls-6"
           d="M437.6,901.7c0-.2-.1-.3-.1-.5,0-.5.4-.8.8-.8s.6.2.9.6c.3.7,1,1,1.9,1s1.7-.5,1.7-1.2-.4-1-1.6-1.2l-1-.2c-1.8-.4-2.7-1.2-2.7-2.6s1.5-2.8,3.5-2.8,2.9.7,3.4,1.9v.4c0,.5-.3.8-.8.8s-.7-.2-.9-.6c-.3-.7-.9-1-1.7-1s-1.6.4-1.6,1.1.4.9,1.5,1.1l1,.2c1.9.4,2.8,1.2,2.8,2.6s-1.4,2.9-3.7,2.9-3.1-.8-3.5-1.8h.1Z"
           id="path80" />
        <path
           class="cls-6"
           d="M445.8,904.7v-7.5c0-.6.4-1,.9-1s.9.3.9,1v.4h0c.4-.8,1.1-1.3,2.1-1.3,1.7,0,2.8,1.3,2.8,3.5s-1,3.5-2.8,3.5-1.8-.5-2.1-1.2h0v2.6c0,.6-.4,1-.9,1s-.9-.3-.9-1h0ZM450.7,899.9c0-1.2-.6-2-1.5-2s-1.5.8-1.5,2,.6,2,1.5,2,1.5-.8,1.5-2Z"
           id="path81" />
        <path
           class="cls-6"
           d="M453.3,901.3c0-1.2,1-2,2.6-2.1h1.7v-.5c0-.6-.4-1-1.1-1s-.9.2-1.3.7c-.2.2-.4.3-.7.3-.5,0-.8-.3-.8-.7s0-.3.1-.4c.3-.8,1.4-1.3,2.8-1.3s2.9.9,2.9,2.3v3.9c0,.6-.4.9-.9.9s-.9-.3-.9-.8v-.3h0c-.4.7-1.2,1.2-2.1,1.2-1.3,0-2.3-.8-2.3-2.1h0ZM457.6,900.8v-.5h-1.4c-.7,0-1.1.5-1.1.9s.4.8,1,.8,1.5-.5,1.5-1.3h0Z"
           id="path82" />
        <path
           class="cls-6"
           d="M461.7,902.4l-1.4-4.7c0-.2-.1-.4-.1-.6,0-.5.4-.8.9-.8s.8.3.9.8l1,4.4h0l1-4.3c.1-.5.5-.8,1-.8s.9.3,1,.8l1.1,4.3h0l1-4.4c.1-.5.4-.8.9-.8s.9.3.9.8,0,.3-.1.6l-1.4,4.8c-.2.7-.5,1-1.2,1s-1-.3-1.2-1l-1-4h0l-1,4c-.2.7-.5,1-1.2,1s-1-.3-1.2-1h.1Z"
           id="path83" />
        <path
           class="cls-6"
           d="M470.9,902.4v-5.2c0-.6.3-.9.9-.9s.9.4.9.9v.4h0c.4-.8,1-1.3,2.1-1.3s2.4,1,2.4,2.5v3.5c0,.6-.4,1-.9,1s-.9-.3-.9-1v-3.2c0-.9-.4-1.4-1.2-1.4s-1.4.6-1.4,1.5v3.1c0,.6-.4,1-.9,1s-.9-.3-.9-1h-.1Z"
           id="path84" />
        <path
           class="cls-6"
           d="M737.6,313.4v-2l-2.2-3.3c0-.2-.2-.3-.2-.5,0-.4.3-.7.7-.7s.5.1.7.5l1.6,2.6h0l1.6-2.6c.2-.3.4-.5.7-.5s.7.3.7.7,0,.3-.2.5l-2.2,3.3v2c0,.5-.3.8-.7.8s-.7-.3-.7-.8h.2Z"
           id="path85" />
        <path
           class="cls-6"
           d="M740.9,311.4c0-1.7,1-2.8,2.5-2.8s2.5,1,2.5,2.4-.2.6-.6.6h-3c0,.8.5,1.3,1.2,1.3s.9-.2,1.2-.6c.2-.2.3-.2.5-.2.3,0,.6.2.6.5v.4c-.3.6-1.2,1-2.2,1-1.6,0-2.6-1-2.6-2.7h-.1ZM744.5,310.9c0-.7-.5-1.1-1.1-1.1s-1.1.5-1.1,1.1h2.2,0Z"
           id="path86" />
        <path
           class="cls-6"
           d="M746.7,313.4v-5.8c0-.5.3-.8.7-.8s.7.3.7.8v5.8c0,.5-.3.7-.7.7s-.7-.2-.7-.7Z"
           id="path87" />
        <path
           class="cls-6"
           d="M749.1,313.4v-5.8c0-.5.3-.8.7-.8s.7.3.7.8v5.8c0,.5-.3.7-.7.7s-.7-.2-.7-.7Z"
           id="path88" />
        <path
           class="cls-6"
           d="M751.3,311.4c0-1.7,1-2.7,2.6-2.7s2.6,1,2.6,2.7-1,2.7-2.6,2.7-2.6-1-2.6-2.7ZM755,311.4c0-1-.5-1.6-1.1-1.6s-1.2.6-1.2,1.6.4,1.6,1.2,1.6,1.1-.6,1.1-1.6Z"
           id="path89" />
        <path
           class="cls-6"
           d="M758,313.4l-1-3.6v-.4c0-.4.3-.6.7-.6s.6.2.7.6l.8,3.4h0l.8-3.3c0-.4.4-.6.8-.6s.7.2.8.6l.8,3.3h0l.8-3.4c0-.4.3-.6.7-.6s.7.2.7.6v.4l-1,3.6c-.2.5-.4.8-.9.8s-.8-.2-.9-.8l-.8-3h0l-.8,3.1c0,.5-.4.8-.9.8s-.8-.2-.9-.8h-.4Z"
           id="path90" />
        <path
           class="cls-6"
           d="M291.8,610.3c0-2.3,1.3-3.6,3.3-3.6s2.3.6,2.8,1.6.1.4.1.5c0,.4-.3.6-.6.6s-.5-.2-.7-.5c-.3-.7-.9-1.1-1.6-1.1-1.1,0-1.8.9-1.8,2.4s.7,2.4,1.8,2.4,1.3-.3,1.6-1c.1-.3.3-.5.6-.5s.7.3.7.7,0,.3-.1.5c-.4,1-1.5,1.6-2.8,1.6-2.1,0-3.4-1.4-3.4-3.6h.1Z"
           id="path91" />
        <path
           class="cls-6"
           d="M298.8,612.3c0-1,.7-1.5,2-1.6h1.3v-.4c0-.5-.3-.8-.9-.8s-.7,0-1,.5c-.2.2-.3.3-.6.3s-.6-.2-.6-.5v-.3c.2-.6,1.1-1,2.2-1s2.2.7,2.2,1.8v3c0,.5-.3.7-.7.7s-.6-.2-.7-.6v-.3h0c-.3.6-1,.9-1.6.9-1,0-1.8-.6-1.8-1.6h.2ZM302.2,611.9v-.4h-1.1c-.5,0-.8.4-.8.7s.3.6.8.6,1.1-.4,1.1-1h0Z"
           id="path92" />
        <path
           class="cls-6"
           d="M304.5,613.2v-4c0-.4.3-.7.7-.7s.7.3.7.7v.3h0c.3-.7.8-1,1.6-1,1.2,0,1.8.7,1.8,2v2.7c0,.5-.3.7-.7.7s-.7-.2-.7-.7v-2.4c0-.7-.3-1.1-1-1.1s-1,.5-1,1.2v2.4c0,.5-.3.7-.7.7s-.7-.2-.7-.7h0Z"
           id="path93" />
        <path
           class="cls-6"
           d="M310.3,613.2v-4c0-.4.3-.7.7-.7s.7.3.7.7v.3h0c.3-.7.8-1,1.6-1,1.2,0,1.8.7,1.8,2v2.7c0,.5-.3.7-.7.7s-.7-.2-.7-.7v-2.4c0-.7-.3-1.1-1-1.1s-1,.5-1,1.2v2.4c0,.5-.3.7-.7.7s-.7-.2-.7-.7h0Z"
           id="path94" />
        <path
           class="cls-6"
           d="M315.8,611.2c0-1.7,1-2.7,2.6-2.7s2.6,1,2.6,2.7-1,2.7-2.6,2.7-2.6-1-2.6-2.7ZM319.6,611.2c0-1-.5-1.6-1.1-1.6s-1.1.6-1.1,1.6.4,1.6,1.1,1.6,1.1-.6,1.1-1.6Z"
           id="path95" />
        <path
           class="cls-6"
           d="M321.8,613.2v-4c0-.4.3-.7.7-.7s.7.3.7.7v.3h0c.3-.7.8-1,1.6-1,1.2,0,1.8.7,1.8,2v2.7c0,.5-.3.7-.7.7s-.7-.2-.7-.7v-2.4c0-.7-.3-1.1-1-1.1s-1,.5-1,1.2v2.4c0,.5-.3.7-.7.7s-.7-.2-.7-.7h0Z"
           id="path96" />
        <path
           class="cls-6"
           d="M542.8,463.9v-5.5c0-.5.3-.8.7-.8h2c2.1,0,3.4,1.3,3.4,3.5s-1.2,3.5-3.4,3.5h-2c-.5,0-.7-.3-.7-.8h0ZM545.3,463.4c1.3,0,2-.8,2-2.3s-.7-2.3-2-2.3h-1v4.6h1Z"
           id="path97" />
        <path
           class="cls-6"
           d="M549.5,462c0-1.7,1-2.7,2.6-2.7s2.6,1,2.6,2.7-1,2.7-2.6,2.7-2.6-1-2.6-2.7ZM553.2,462c0-1-.5-1.6-1.1-1.6s-1.2.6-1.2,1.6.4,1.6,1.2,1.6,1.1-.6,1.1-1.6Z"
           id="path98" />
        <path
           class="cls-6"
           d="M555.4,462.8v-2.7c0-.5.3-.8.7-.8s.7.3.7.8v2.4c0,.7.3,1.1,1,1.1s1-.5,1-1.1v-2.4c0-.5.3-.8.7-.8s.7.3.7.8v4c0,.5-.3.7-.7.7s-.7-.2-.7-.7v-.3h0c-.3.7-.8,1-1.6,1s-1.9-.7-1.9-2h0Z"
           id="path99" />
        <path
           class="cls-6"
           d="M561.2,464v-5.8c0-.5.3-.8.7-.8s.7.3.7.8v2.1h0c.3-.6.9-1,1.6-1,1.3,0,2.1,1,2.1,2.7s-.8,2.7-2.1,2.7-1.3-.4-1.6-1h0v.3c0,.5-.3.7-.7.7s-.7-.2-.7-.7h0ZM565,462c0-1-.4-1.6-1.2-1.6s-1.2.6-1.2,1.6.5,1.5,1.2,1.5,1.2-.6,1.2-1.5Z"
           id="path100" />
        <path
           class="cls-6"
           d="M567.2,464v-5.8c0-.5.3-.8.7-.8s.7.3.7.8v5.8c0,.5-.3.7-.7.7s-.7-.2-.7-.7Z"
           id="path101" />
        <path
           class="cls-6"
           d="M569.4,462c0-1.7,1-2.8,2.5-2.8s2.5,1,2.5,2.4-.2.6-.6.6h-3c0,.8.5,1.3,1.2,1.3s.9-.2,1.2-.6c.2-.2.3-.2.5-.2.3,0,.6.2.6.5v.4c-.3.6-1.2,1-2.2,1-1.6,0-2.6-1-2.6-2.7h-.1ZM573,461.5c0-.7-.5-1.1-1.1-1.1s-1.1.5-1.1,1.1h2.2,0Z"
           id="path102" />
        <path
           class="cls-6"
           d="M577.2,463.9v-5.5c0-.5.3-.8.7-.8h2c2.1,0,3.4,1.3,3.4,3.5s-1.2,3.5-3.4,3.5h-2c-.5,0-.7-.3-.7-.8h0ZM579.7,463.4c1.3,0,2-.8,2-2.3s-.7-2.3-2-2.3h-1v4.6h1Z"
           id="path103" />
        <path
           class="cls-6"
           d="M583.9,462c0-1.7,1-2.7,2.6-2.7s2.6,1,2.6,2.7-1,2.7-2.6,2.7-2.6-1-2.6-2.7ZM587.6,462c0-1-.5-1.6-1.1-1.6s-1.2.6-1.2,1.6.4,1.6,1.2,1.6,1.1-.6,1.1-1.6Z"
           id="path104" />
        <path
           class="cls-6"
           d="M589.6,462c0-1.7,1-2.7,2.6-2.7s2.6,1,2.6,2.7-1,2.7-2.6,2.7-2.6-1-2.6-2.7ZM593.4,462c0-1-.5-1.6-1.1-1.6s-1.2.6-1.2,1.6.4,1.6,1.2,1.6,1.1-.6,1.1-1.6Z"
           id="path105" />
        <path
           class="cls-6"
           d="M595.5,464v-4c0-.5.3-.7.7-.7s.7.3.7.7v.3h0c0-.6.6-1,1.1-1s.3,0,.4.1c0,.1.2.3.2.5s0,.4-.2.5-.3.2-.6.2c-.7,0-.9.4-.9,1v2.3c0,.5-.3.7-.7.7s-.7-.3-.7-.7h0Z"
           id="path106" />
        <path
           class="cls-6"
           d="M397.8,211.4v-5.8c0-.5.3-.7.7-.7s.5.1.7.4l3,4.3h0v-3.9c0-.5.3-.7.7-.7s.7.3.7.7v5.8c0,.5-.3.7-.7.7s-.5-.1-.7-.4l-3.1-4.3h0v4c0,.5-.3.7-.7.7s-.7-.3-.7-.7h.1Z"
           id="path107" />
        <path
           class="cls-6"
           d="M404.7,209.4c0-1.7,1-2.8,2.5-2.8s2.5,1,2.5,2.4-.2.6-.6.6h-3c0,.8.5,1.3,1.2,1.3s.9-.2,1.2-.6c.1-.2.3-.2.5-.2.3,0,.6.2.6.5s0,.2-.1.4c-.4.6-1.2,1-2.2,1-1.6,0-2.6-1-2.6-2.7h0ZM408.3,208.8c0-.7-.5-1.1-1.1-1.1s-1.1.5-1.1,1.1h2.2Z"
           id="path108" />
        <path
           class="cls-6"
           d="M410.3,211.1v-.3c0-.3.2-.6.6-.6s.4.1.6.3c.3.4.6.5,1.1.5s.9-.2.9-.6-.2-.4-.7-.6l-.9-.2c-1-.2-1.5-.7-1.5-1.5s.9-1.6,2.2-1.6,1.9.5,2,1.1v.2c0,.3-.2.5-.5.5s-.4,0-.5-.2c-.2-.3-.5-.6-1-.6s-.8.2-.8.6.2.4.7.6l.9.2c1.1.2,1.6.6,1.6,1.4s-.9,1.7-2.3,1.7-2-.4-2.2-1h-.2Z"
           id="path109" />
        <path
           class="cls-6"
           d="M415.9,207.9h-.3c-.3,0-.5-.2-.5-.5s.2-.5.5-.5h.3v-.6c0-.5.3-.7.7-.7s.7.3.7.7v.6h.5c.3,0,.5.2.5.5s-.2.5-.5.5h-.5v2.5c0,.4.1.5.4.6h0c.4,0,.5.2.5.5s-.4.6-1,.6h0c-1,0-1.4-.5-1.4-1.4v-2.8h0Z"
           id="path110" />
        <path
           class="cls-6"
           d="M629.3,518.1v-5.7c0-.5.3-.8.7-.8s.7.3.7.8v2.2h3.2v-2.2c0-.5.3-.8.7-.8s.7.3.7.8v5.7c0,.5-.3.8-.7.8s-.7-.3-.7-.8v-2.3h-3.2v2.3c0,.5-.3.8-.7.8s-.7-.3-.7-.8Z"
           id="path111" />
        <path
           class="cls-6"
           d="M636.2,517.2c0-1,.7-1.5,2-1.6h1.3v-.4c0-.5-.3-.8-.9-.8s-.7,0-1,.5c-.2.2-.3.3-.6.3s-.6-.2-.6-.5v-.3c.2-.6,1.1-1,2.2-1s2.2.7,2.2,1.8v3c0,.5-.3.7-.7.7s-.7-.2-.7-.6v-.3h0c-.3.6-1,.9-1.6.9-1,0-1.8-.6-1.8-1.6h.2ZM639.6,516.8v-.4h-1.1c-.5,0-.8.4-.8.7s.3.6.8.6,1.1-.4,1.1-1h0Z"
           id="path112" />
        <path
           class="cls-6"
           d="M641.9,518.1v-5.8c0-.5.3-.8.7-.8s.7.3.7.8v5.8c0,.5-.3.7-.7.7s-.7-.2-.7-.7Z"
           id="path113" />
        <path
           class="cls-6"
           d="M644.3,518.1v-5.8c0-.5.3-.8.7-.8s.7.3.7.8v5.8c0,.5-.3.7-.7.7s-.7-.2-.7-.7Z"
           id="path114" />
        <path
           class="cls-6"
           d="M646.6,517.8v-.3c0-.3.2-.5.6-.5s.4,0,.6.3c.3.4.6.5,1.1.5s.8-.2.8-.6-.2-.4-.7-.5l-.9-.2c-1-.2-1.5-.7-1.5-1.5s.9-1.7,2.2-1.7,1.9.5,2,1.1v.2c0,.3-.2.5-.5.5s-.4,0-.5-.2c-.2-.3-.5-.6-1-.6s-.8.2-.8.6.2.5.7.6l.9.2c1.1.2,1.6.6,1.6,1.4s-.9,1.7-2.3,1.7-2-.4-2.2-1h0Z"
           id="path115" />
        <path
           class="cls-6"
           d="M756.6,640.8v-.4c0-.4.3-.7.7-.7s.5,0,.7.4c.2.5.8.8,1.5.8s1.3-.4,1.3-.9-.3-.7-1.2-.9l-.8-.2c-1.4-.3-2.1-1-2.1-2s1.1-2.1,2.7-2.1,2.3.5,2.6,1.5v.3c0,.3-.2.6-.6.6s-.5,0-.7-.4c-.2-.5-.7-.8-1.3-.8s-1.2.3-1.2.9.3.7,1.2.9l.7.2c1.5.3,2.1.9,2.1,2s-1.1,2.2-2.8,2.2-2.4-.6-2.7-1.3h-.1Z"
           id="path116" />
        <path
           class="cls-6"
           d="M762.9,641.4v-5.8c0-.5.3-.7.7-.7s.7.3.7.7v2.1h0c.3-.7.8-1,1.7-1s1.8.8,1.8,2v2.7c0,.5-.3.7-.7.7s-.7-.2-.7-.7v-2.4c0-.7-.3-1.1-1-1.1s-1.1.5-1.1,1.2v2.3c0,.5-.3.7-.7.7s-.7-.2-.7-.7h0Z"
           id="path117" />
        <path
           class="cls-6"
           d="M768.5,639.4c0-1.7,1-2.7,2.6-2.7s2.6,1,2.6,2.7-1,2.7-2.6,2.7-2.6-1-2.6-2.7ZM772.3,639.4c0-1-.5-1.6-1.1-1.6s-1.2.6-1.2,1.6.4,1.6,1.2,1.6,1.1-.6,1.1-1.6Z"
           id="path118" />
        <path
           class="cls-6"
           d="M774.5,643.1v-5.7c0-.5.3-.7.7-.7s.7.2.7.7v.3h0c.3-.6.9-1,1.6-1,1.3,0,2.1,1,2.1,2.7s-.8,2.7-2.1,2.7-1.3-.4-1.6-1h0v2c0,.5-.3.7-.7.7s-.7-.2-.7-.7h0ZM778.2,639.4c0-1-.5-1.6-1.2-1.6s-1.2.6-1.2,1.6.5,1.5,1.2,1.5,1.2-.6,1.2-1.5Z"
           id="path119" />
        <path
           class="cls-6"
           d="M527.2,52v-7.2c0-.6.4-1,1-1h2.5c2.8,0,4.4,1.6,4.4,4.5s-1.6,4.6-4.4,4.6h-2.5c-.6,0-1-.4-1-1h0ZM530.4,51.5c1.7,0,2.6-1,2.6-3s-1-3-2.6-3h-1.3v6h1.3Z"
           id="path120" />
        <path
           class="cls-6"
           d="M535.8,49.7c0-2.2,1.3-3.6,3.3-3.6s3.2,1.3,3.2,3.2-.3.8-.8.8h-3.9c0,1.1.6,1.8,1.5,1.8s1.1-.2,1.6-.8c.2-.2.4-.3.6-.3.4,0,.7.2.7.7s0,.3,0,.5c-.5.8-1.5,1.3-2.8,1.3-2.1,0-3.4-1.3-3.4-3.5h.1ZM540.6,48.9c0-.9-.6-1.5-1.4-1.5s-1.4.6-1.5,1.5h2.9Z"
           id="path121" />
        <path
           class="cls-6"
           d="M543.8,52.2v-4.6h-.4c-.4,0-.7-.2-.7-.7s.3-.7.7-.7h.4v-.5c0-1.3.7-1.9,1.9-2,1,0,1.4.3,1.4.8s0,.4-.4.5h-.4c-.6,0-.8.2-.8.8v.4h.8c.4,0,.7.2.7.7s-.3.7-.7.7h-.7v4.6c0,.6-.4,1-.9,1s-.9-.3-.9-1h0Z"
           id="path122" />
        <path
           class="cls-6"
           d="M547.5,49.7c0-2.2,1.3-3.6,3.3-3.6s3.2,1.3,3.2,3.2-.3.8-.8.8h-3.9c0,1.1.6,1.8,1.5,1.8s1.1-.2,1.6-.8c.2-.2.4-.3.6-.3.4,0,.7.2.7.7s0,.3,0,.5c-.5.8-1.5,1.3-2.8,1.3-2.1,0-3.4-1.3-3.4-3.5h.1ZM552.2,48.9c0-.9-.6-1.5-1.4-1.5s-1.4.6-1.5,1.5h2.9Z"
           id="path123" />
        <path
           class="cls-6"
           d="M555,52.2v-5.2c0-.6.3-.9.9-.9s.9.4.9.9v.4h0c.4-.8,1-1.3,2.1-1.3s2.4,1,2.4,2.5v3.5c0,.6-.4,1-.9,1s-.9-.3-.9-1v-3.2c0-.9-.4-1.4-1.2-1.4s-1.4.6-1.4,1.5v3.1c0,.6-.4,1-.9,1s-.9-.3-.9-1h0Z"
           id="path124" />
        <path
           class="cls-6"
           d="M562.2,49.6c0-2.2,1.1-3.5,2.8-3.5s1.8.5,2.1,1.3h0v-2.7c0-.6.4-1,.9-1s.9.3.9,1v7.5c0,.6-.4.9-.9.9s-.9-.3-.9-.9v-.4h0c-.3.8-1,1.3-2.1,1.3-1.7,0-2.8-1.3-2.8-3.5h0ZM567.1,49.6c0-1.2-.6-2-1.5-2s-1.5.8-1.5,2,.6,2,1.5,2,1.5-.8,1.5-2Z"
           id="path125" />
        <path
           class="cls-6"
           d="M570,49.7c0-2.2,1.3-3.6,3.3-3.6s3.2,1.3,3.2,3.2-.3.8-.8.8h-3.9c0,1.1.6,1.8,1.5,1.8s1.1-.2,1.6-.8c.2-.2.4-.3.6-.3.4,0,.7.2.7.7s0,.3,0,.5c-.5.8-1.5,1.3-2.8,1.3-2.1,0-3.4-1.3-3.4-3.5h.1ZM574.7,48.9c0-.9-.6-1.5-1.4-1.5s-1.4.6-1.5,1.5h2.9Z"
           id="path126" />
        <path
           class="cls-6"
           d="M577.4,52.2v-5.2c0-.6.4-.9.9-.9s.9.3.9.9v.4h0c.2-.8.7-1.3,1.4-1.3s.4,0,.6.2c.2,0,.3.4.3.7s0,.5-.3.7-.4.2-.8.2c-.8,0-1.1.5-1.1,1.3v3c0,.6-.4,1-.9,1s-.9-.3-.9-1h-.1Z"
           id="path127" />
        <path
           class="cls-6"
           d="M584.8,51.4v-.5c0-.5.3-.8.8-.8s.7.2.9.6c.3.7,1,1,1.9,1s1.7-.5,1.7-1.2-.4-1-1.6-1.2l-1-.2c-1.8-.4-2.7-1.2-2.7-2.6s1.5-2.8,3.5-2.8,2.9.7,3.3,1.9v.4c0,.5-.3.8-.8.8s-.7-.2-.9-.6c-.3-.7-.9-1-1.7-1s-1.6.4-1.6,1.1.4.9,1.5,1.1l1,.2c1.9.4,2.8,1.2,2.8,2.6s-1.4,2.9-3.7,2.9-3.1-.8-3.5-1.8h0Z"
           id="path128" />
        <path
           class="cls-6"
           d="M592.9,54.5v-7.5c0-.6.4-1,.9-1s.9.3.9,1v.4h0c.4-.8,1.1-1.3,2.1-1.3,1.7,0,2.8,1.3,2.8,3.5s-1,3.5-2.8,3.5-1.8-.5-2.1-1.2h0v2.6c0,.6-.4,1-.9,1s-.9-.3-.9-1h0ZM597.8,49.6c0-1.2-.6-2-1.5-2s-1.5.8-1.5,2,.6,2,1.5,2,1.5-.8,1.5-2Z"
           id="path129" />
        <path
           class="cls-6"
           d="M600.4,51.1c0-1.2,1-2,2.7-2.1h1.7v-.5c0-.6-.4-1-1.1-1s-.9.2-1.3.7c-.2.2-.4.3-.7.3-.5,0-.8-.3-.8-.7v-.4c.3-.8,1.4-1.3,2.8-1.3s2.9.9,2.9,2.3v3.9c0,.6-.4.9-.9.9s-.8-.3-.9-.8v-.3h0c-.4.7-1.2,1.2-2.1,1.2-1.3,0-2.3-.8-2.3-2.1h0ZM604.8,50.5v-.5h-1.4c-.7,0-1.1.5-1.1.9s.4.8,1,.8,1.5-.5,1.5-1.3h0Z"
           id="path130" />
        <path
           class="cls-6"
           d="M608.8,52.2l-1.4-4.7v-.6c0-.5.4-.8.9-.8s.8.3.9.8l1,4.4h0l1-4.3c0-.5.5-.8,1-.8s.9.3,1,.8l1.1,4.3h0l1-4.4c0-.5.4-.8.9-.8s.9.3.9.8v.6l-1.4,4.8c-.2.7-.5,1-1.2,1s-1-.3-1.2-1l-1-4h0l-1,4c-.2.7-.5,1-1.2,1s-1-.3-1.2-1h0Z"
           id="path131" />
        <path
           class="cls-6"
           d="M618,52.2v-5.2c0-.6.3-.9.9-.9s.9.4.9.9v.4h0c.4-.8,1-1.3,2.1-1.3s2.4,1,2.4,2.5v3.5c0,.6-.4,1-.9,1s-.9-.3-.9-1v-3.2c0-.9-.4-1.4-1.2-1.4s-1.4.6-1.4,1.5v3.1c0,.6-.4,1-.9,1s-.9-.3-.9-1h0Z"
           id="path132" />
        <path
           class="cls-6"
           d="M105.3,487.3v-5.5c0-.5.3-.8.7-.8h2.3c1.3,0,2.2.7,2.2,1.8s-.6,1.4-1.3,1.5h0c1,.1,1.7.8,1.7,1.7s-.9,2-2.4,2h-2.4c-.5,0-.7-.3-.7-.8h0ZM107.9,483.9c.8,0,1.2-.4,1.2-.9s-.4-.9-1.1-.9h-1.2v1.8h1.1ZM108.1,486.9c.8,0,1.3-.4,1.3-1s-.5-1-1.3-1h-1.2v2h1.3-.1Z"
           id="path133" />
        <path
           class="cls-6"
           d="M113.7,487.4v-5.6c0-.6.3-1,.9-1s.8.2,1,.8l1.8,4.3h0l1.7-4.3c.2-.5.5-.8,1-.8s.9.4.9,1v5.6c0,.4-.2.7-.7.7s-.7-.2-.7-.7v-4.2h0l-1.7,4.3c0,.3-.3.5-.6.5s-.5-.1-.6-.4l-1.7-4.3h0v4.2c0,.4-.2.7-.7.7s-.7-.2-.7-.7h0Z"
           id="path134" />
        <path
           class="cls-6"
           d="M121.9,486.5c0-1,.7-1.5,2-1.6h1.3v-.4c0-.5-.3-.8-.9-.8s-.7.1-1,.5c-.2.2-.3.3-.6.3s-.6-.2-.6-.5v-.3c.2-.6,1.1-1,2.2-1s2.2.7,2.2,1.8v3c0,.5-.3.7-.7.7s-.7-.2-.7-.6v-.3h0c-.3.6-.9.9-1.6.9-1,0-1.8-.6-1.8-1.6h.2ZM125.3,486.1v-.4h-1.1c-.5.1-.8.4-.8.7s.3.6.8.6,1.1-.4,1.1-1h0Z"
           id="path135" />
        <path
           class="cls-6"
           d="M127.6,481.4c0-.4.3-.7.8-.7s.8.3.8.7-.3.7-.8.7-.8-.3-.8-.7ZM127.6,487.4v-4c0-.5.3-.8.7-.8s.7.3.7.8v4c0,.5-.3.7-.7.7s-.7-.3-.7-.7Z"
           id="path136" />
        <path
           class="cls-6"
           d="M130,487.4v-4c0-.4.3-.7.7-.7s.7.3.7.7v.3h0c.3-.6.8-1,1.6-1,1.2,0,1.8.7,1.8,2v2.7c0,.5-.3.7-.7.7s-.7-.2-.7-.7v-2.4c0-.7-.3-1.1-1-1.1s-1,.5-1,1.1v2.4c0,.5-.3.7-.7.7s-.7-.2-.7-.7h0Z"
           id="path137" />
        <path
           class="cls-6"
           d="M457,537.1v-5.6c0-.6.4-1,1-1s.8.2,1,.8l1.8,4.3h0l1.7-4.3c.2-.5.5-.8,1-.8s1,.3,1,1v5.6c0,.4-.2.7-.7.7s-.6-.2-.6-.7v-4.2h0l-1.7,4.3c-.1.3-.3.5-.6.5s-.5,0-.6-.4l-1.7-4.3h0v4.2c0,.4-.2.7-.6.7s-.7-.2-.7-.7h-.3Z"
           id="path138" />
        <path
           class="cls-6"
           d="M465.5,531.1c0-.4.3-.7.8-.7s.8.3.8.7-.3.7-.8.7-.8-.3-.8-.7ZM465.5,537.1v-4c0-.5.3-.8.7-.8s.7.3.7.8v4c0,.5-.3.7-.7.7s-.7-.3-.7-.7Z"
           id="path139" />
        <path
           class="cls-6"
           d="M467.7,535.1c0-1.7.8-2.7,2.1-2.7s1.3.4,1.6,1h0v-2.1c0-.5.3-.8.7-.8s.7.3.7.8v5.8c0,.5-.3.7-.7.7s-.7-.2-.7-.7v-.3h0c-.2.6-.8,1-1.6,1-1.3,0-2.1-1-2.1-2.7h0ZM471.5,535.1c0-1-.5-1.6-1.2-1.6s-1.2.6-1.2,1.6.4,1.5,1.2,1.5,1.2-.6,1.2-1.5Z"
           id="path140" />
        <path
           class="cls-6"
           d="M307.2,281.7v-5.1h-1.5c-.4,0-.7-.2-.7-.6s.3-.6.7-.6h4.4c.4,0,.7.2.7.6s-.3.6-.7.6h-1.5v5.1c0,.5-.3.8-.7.8s-.7-.3-.7-.8h0Z"
           id="path141" />
        <path
           class="cls-6"
           d="M310.8,280.5v-2.7c0-.5.3-.8.7-.8s.7.3.7.8v2.4c0,.7.4,1.1,1,1.1s1-.5,1-1.1v-2.4c0-.5.3-.8.7-.8s.7.3.7.8v4c0,.5-.3.7-.7.7s-.7-.2-.7-.7v-.3h0c-.3.7-.8,1-1.6,1s-1.9-.7-1.9-2h0Z"
           id="path142" />
        <path
           class="cls-6"
           d="M316.5,281.8v-4c0-.4.3-.7.7-.7s.7.3.7.7v.3h0c.3-.6.8-1,1.6-1,1.2,0,1.8.7,1.8,2v2.7c0,.5-.3.7-.7.7s-.7-.2-.7-.7v-2.4c0-.7-.3-1.1-1-1.1s-1,.5-1,1.1v2.4c0,.5-.3.7-.7.7s-.7-.2-.7-.7h0Z"
           id="path143" />
        <path
           class="cls-6"
           d="M322.3,281.8v-4c0-.4.3-.7.7-.7s.7.3.7.7v.3h0c.3-.6.8-1,1.6-1,1.2,0,1.8.7,1.8,2v2.7c0,.5-.3.7-.7.7s-.7-.2-.7-.7v-2.4c0-.7-.3-1.1-1-1.1s-1,.5-1,1.1v2.4c0,.5-.3.7-.7.7s-.7-.2-.7-.7h0Z"
           id="path144" />
        <path
           class="cls-6"
           d="M327.9,279.8c0-1.7,1-2.8,2.5-2.8s2.5,1,2.5,2.4-.2.6-.6.6h-3c0,.8.5,1.3,1.2,1.3s.9-.2,1.2-.6c.1-.2.3-.2.5-.2.3,0,.6.2.6.5s0,.2-.1.4c-.4.6-1.2,1-2.2,1-1.6,0-2.6-1-2.6-2.7h0ZM331.5,279.2c0-.7-.5-1.1-1.1-1.1s-1.1.5-1.1,1.1h2.2Z"
           id="path145" />
        <path
           class="cls-6"
           d="M333.6,281.8v-5.8c0-.5.3-.8.7-.8s.7.3.7.8v5.8c0,.5-.3.7-.7.7s-.7-.2-.7-.7Z"
           id="path146" />
        <path
           class="cls-6"
           d="M629,652.5v-5.6c0-.5.3-.8.7-.8h2.2c1.6,0,2.5.8,2.5,2.2s-.4,1.6-1.2,2l1,1.8c0,.2.2.3.2.5,0,.4-.3.7-.7.7s-.5,0-.8-.6l-1.2-2.1h-1.2v1.9c0,.5-.3.8-.7.8s-.7-.3-.7-.8h0ZM631.8,649.5c.7,0,1.2-.4,1.2-1.1s-.5-1.1-1.2-1.1h-1.2v2.2h1.3,0Z"
           id="path147" />
        <path
           class="cls-6"
           d="M635.1,650.5c0-1.7,1-2.7,2.6-2.7s2.6,1,2.6,2.7-1,2.7-2.6,2.7-2.6-1-2.6-2.7ZM638.8,650.5c0-1-.5-1.6-1.1-1.6s-1.2.6-1.2,1.6.4,1.6,1.2,1.6,1.1-.6,1.1-1.6Z"
           id="path148" />
        <path
           class="cls-6"
           d="M641,654.2v-5.7c0-.5.3-.7.7-.7s.7.2.7.7v.3h0c.3-.6.9-1,1.6-1,1.3,0,2.1,1,2.1,2.7s-.8,2.7-2.1,2.7-1.3-.4-1.6-1h0v2c0,.5-.3.7-.7.7s-.7-.2-.7-.7h0ZM644.7,650.5c0-1-.5-1.6-1.2-1.6s-1.2.6-1.2,1.6.5,1.5,1.2,1.5,1.2-.6,1.2-1.5Z"
           id="path149" />
        <path
           class="cls-6"
           d="M646.7,650.5c0-1.7,1-2.8,2.5-2.8s2.5,1,2.5,2.4-.2.6-.6.6h-3c0,.8.5,1.3,1.2,1.3s.9-.2,1.2-.6c.2-.2.3-.2.5-.2.3,0,.6.2.6.5v.3c-.3.6-1.2,1-2.2,1-1.6,0-2.6-1-2.6-2.7h0v.2ZM650.4,650c0-.7-.5-1.1-1.1-1.1s-1.1.5-1.1,1.1h2.2,0Z"
           id="path150" />
        <path
           class="cls-6"
           d="M98.3,646.6l-1.5-5.3v-.5c0-.4.3-.7.7-.7s.6.2.7.6l1.1,4.6h0l1.2-4.5c0-.5.3-.7.8-.7s.6.2.8.7l1.2,4.5h0l1.1-4.6c0-.4.3-.6.7-.6s.7.2.7.7v.5l-1.5,5.3c-.2.5-.4.7-.8.7s-.7-.2-.9-.8l-1.2-4.2h0l-1.2,4.2c0,.5-.4.8-.9.8s-.7-.2-.9-.8h0Z"
           id="path151" />
        <path
           class="cls-6"
           d="M106.5,640.6c0-.4.3-.7.8-.7s.8.3.8.7-.3.7-.8.7-.8-.3-.8-.7ZM106.5,646.6v-4c0-.5.3-.8.7-.8s.7.3.7.8v4c0,.5-.3.7-.7.7s-.7-.3-.7-.7Z"
           id="path152" />
        <path
           class="cls-6"
           d="M108.9,646.6v-4c0-.4.3-.7.7-.7s.7.3.7.7v.3h0c.3-.7.8-1,1.6-1,1.2,0,1.8.7,1.8,2v2.7c0,.5-.3.7-.7.7s-.7-.2-.7-.7v-2.4c0-.7-.3-1.1-1-1.1s-1,.5-1,1.2v2.4c0,.5-.3.7-.7.7s-.7-.2-.7-.7h0Z"
           id="path153" />
        <path
           class="cls-6"
           d="M114.5,644.6c0-1.7.8-2.7,2.1-2.7s1.3.4,1.6,1h0v-2.1c0-.5.3-.8.7-.8s.7.3.7.8v5.8c0,.5-.3.7-.7.7s-.7-.2-.7-.7v-.3h0c-.2.6-.8,1-1.6,1-1.3,0-2.1-1-2.1-2.7h0ZM118.2,644.6c0-1-.4-1.6-1.2-1.6s-1.2.6-1.2,1.6.4,1.5,1.2,1.5,1.2-.6,1.2-1.5Z"
           id="path154" />
        <path
           class="cls-6"
           d="M120.4,644.6c0-1.7,1-2.7,2.6-2.7s2.6,1,2.6,2.7-1,2.7-2.6,2.7-2.6-1-2.6-2.7ZM124.2,644.6c0-1-.4-1.6-1.1-1.6s-1.2.6-1.2,1.6.4,1.6,1.2,1.6,1.1-.6,1.1-1.6Z"
           id="path155" />
        <path
           class="cls-6"
           d="M127.1,646.6l-1.1-3.7v-.4c0-.4.3-.6.7-.6s.6.2.7.6l.8,3.4h0l.8-3.3c0-.4.4-.7.8-.7s.7.2.8.7l.8,3.3h0l.8-3.4c0-.4.3-.6.7-.6s.7.2.7.6v.4l-1.1,3.7c-.1.5-.4.8-.9.8s-.8-.2-.9-.8l-.8-3h0l-.8,3.1c-.1.5-.4.8-.9.8s-.8-.2-.9-.8h-.2Z"
           id="path156" />
        <path
           class="cls-6"
           d="M695.6,223.4v-5.5c0-.5.3-.8.7-.8h2.3c1.3,0,2.2.7,2.2,1.8s-.6,1.4-1.3,1.5h0c1,.1,1.7.8,1.7,1.7s-.9,2-2.4,2h-2.4c-.5,0-.7-.3-.7-.8h0ZM698.1,220.1c.8,0,1.2-.4,1.2-.9s-.4-.9-1.1-.9h-1.2v1.8h1.1ZM698.3,223.1c.8,0,1.3-.4,1.3-1s-.5-1-1.3-1h-1.2v2.1h1.3,0Z"
           id="path157" />
        <path
           class="cls-6"
           d="M701.9,223.6v-4c0-.4.3-.7.7-.7s.7.3.7.7v.3h0c0-.6.6-1,1.1-1s.3,0,.4.1c0,.1.2.3.2.5s0,.4-.2.5-.3.2-.6.2c-.7,0-.9.4-.9,1v2.3c0,.5-.3.7-.7.7s-.7-.3-.7-.7h0Z"
           id="path158" />
        <path
           class="cls-6"
           d="M705.5,217.6c0-.4.3-.7.8-.7s.8.3.8.7-.3.7-.8.7-.8-.3-.8-.7ZM705.5,223.6v-4c0-.5.3-.8.7-.8s.7.3.7.8v4c0,.5-.3.7-.7.7s-.7-.3-.7-.7Z"
           id="path159" />
        <path
           class="cls-6"
           d="M707.7,221.6c0-1.7.8-2.7,2.1-2.7s1.3.4,1.6,1h0v-2.1c0-.5.3-.8.7-.8s.7.3.7.8v5.8c0,.5-.3.7-.7.7s-.7-.2-.7-.7v-.3h0c-.2.6-.8,1-1.6,1-1.3,0-2.1-1-2.1-2.7h0ZM711.5,221.6c0-.9-.5-1.6-1.2-1.6s-1.2.6-1.2,1.6.4,1.6,1.2,1.6,1.2-.6,1.2-1.6Z"
           id="path160" />
        <path
           class="cls-6"
           d="M714,225.2c0-.1,0-.3,0-.4,0-.3.2-.5.6-.5s.3,0,.5.2c.4.4.8.6,1.2.6.8,0,1.2-.4,1.2-1.1v-.8h0c-.2.6-.8.9-1.6.9-1.3,0-2.1-1-2.1-2.6s.8-2.6,2.2-2.6,1.3.4,1.6,1h0v-.3c0-.5.3-.7.7-.7s.7.2.7.7v4.4c0,1.4-1,2.2-2.7,2.2s-1.9-.4-2.2-1h0ZM717.4,221.5c0-.9-.5-1.6-1.2-1.6s-1.2.6-1.2,1.5.4,1.5,1.2,1.5,1.2-.6,1.2-1.5h0Z"
           id="path161" />
        <path
           class="cls-6"
           d="M719.6,221.6c0-1.7,1-2.8,2.5-2.8s2.5,1,2.5,2.4-.2.6-.6.6h-3c0,.8.5,1.3,1.2,1.3s.9-.2,1.2-.6c.2-.2.3-.2.5-.2.3,0,.6.2.6.5v.4c-.3.6-1.2,1-2.2,1-1.6,0-2.6-1-2.6-2.7h-.1ZM723.2,221c0-.7-.5-1.1-1.1-1.1s-1.1.5-1.1,1.1h2.2,0Z"
           id="path162" />
        <path
           class="cls-6"
           d="M241.2,400.9v-5.5c0-.5.3-.8.7-.8h3.4c.4,0,.7.2.7.6s-.3.6-.7.6h-2.6v1.7h2.5c.4,0,.6.2.6.6s-.2.6-.6.6h-2.5v1.8h2.6c.4,0,.7.2.7.6s-.3.6-.7.6h-3.4c-.5,0-.7-.3-.7-.8h0Z"
           id="path163" />
        <path
           class="cls-6"
           d="M246.8,401v-5.8c0-.5.3-.8.7-.8s.7.3.7.8v5.8c0,.5-.3.7-.7.7s-.7-.2-.7-.7Z"
           id="path164" />
        <path
           class="cls-6"
           d="M249.2,401v-5.8c0-.5.3-.8.7-.8s.7.3.7.8v2.1h0c.3-.6.9-1,1.6-1,1.3,0,2.1,1,2.1,2.7s-.8,2.7-2.1,2.7-1.4-.4-1.6-1h0v.3c0,.5-.3.7-.7.7s-.7-.2-.7-.7h0ZM253,399c0-1-.4-1.6-1.1-1.6s-1.2.6-1.2,1.6.5,1.5,1.2,1.5,1.1-.6,1.1-1.5Z"
           id="path165" />
        <path
           class="cls-6"
           d="M255,399c0-1.7,1-2.7,2.6-2.7s2.6,1,2.6,2.7-1,2.7-2.6,2.7-2.6-1-2.6-2.7h0ZM258.7,399c0-1-.5-1.6-1.1-1.6s-1.1.6-1.1,1.6.4,1.6,1.1,1.6,1.1-.6,1.1-1.6Z"
           id="path166" />
        <path
           class="cls-6"
           d="M261.7,401l-1-3.6v-.4c0-.4.3-.6.7-.6s.6.2.7.6l.8,3.4h0l.8-3.3c0-.4.4-.6.8-.6s.7.2.8.6l.8,3.3h0l.8-3.4c0-.4.3-.6.7-.6s.7.2.7.6v.4l-1,3.6c-.1.5-.4.8-.9.8s-.8-.2-.9-.8l-.8-3h0l-.8,3.1c-.1.5-.4.8-.9.8s-.8-.2-.9-.8h-.4Z"
           id="path167" />
        <path
           class="cls-6"
           d="M14.4,360.4v-5.6c0-.5.3-.8.7-.8s.7.3.7.8v5.1h2.5c.4,0,.7.2.7.6s-.3.6-.7.6h-3.2c-.5,0-.7-.3-.7-.8h0Z"
           id="path168" />
        <path
           class="cls-6"
           d="M19.5,359.7c0-1,.7-1.5,2-1.6h1.3v-.4c0-.5-.3-.8-.9-.8s-.7.1-1,.5c-.2.2-.3.3-.6.3s-.6-.2-.6-.5v-.3c.2-.6,1.1-1,2.2-1s2.2.7,2.2,1.8v3c0,.5-.3.7-.7.7s-.6-.2-.7-.6v-.3h0c-.3.6-1,.9-1.6.9-1,0-1.8-.6-1.8-1.6h.2ZM22.9,359.3v-.4h-1.1c-.5.1-.8.4-.8.7s.3.6.8.6,1.1-.4,1.1-1h0Z"
           id="path169" />
        <path
           class="cls-6"
           d="M25,358.6c0-1.7.8-2.7,2.1-2.7s1.3.4,1.6,1h0v-2.1c0-.5.3-.8.7-.8s.7.3.7.8v5.8c0,.5-.3.7-.7.7s-.7-.2-.7-.7v-.3h0c-.2.6-.8,1-1.6,1-1.3,0-2.1-1-2.1-2.7h0ZM28.8,358.6c0-1-.5-1.6-1.2-1.6s-1.2.6-1.2,1.6.4,1.5,1.2,1.5,1.2-.6,1.2-1.5Z"
           id="path170" />
        <path
           class="cls-6"
           d="M31,358.6c0-1.7.8-2.7,2.1-2.7s1.3.4,1.6,1h0v-2.1c0-.5.3-.8.7-.8s.7.3.7.8v5.8c0,.5-.3.7-.7.7s-.7-.2-.7-.7v-.3h0c-.2.6-.8,1-1.6,1-1.3,0-2.1-1-2.1-2.7h0ZM34.7,358.6c0-1-.5-1.6-1.2-1.6s-1.2.6-1.2,1.6.4,1.5,1.2,1.5,1.2-.6,1.2-1.5Z"
           id="path171" />
        <path
           class="cls-6"
           d="M36.9,358.6c0-1.7,1-2.8,2.5-2.8s2.5,1,2.5,2.4-.2.6-.6.6h-3c0,.8.5,1.3,1.2,1.3s.9-.2,1.2-.6c.2-.2.3-.2.5-.2.3,0,.6.2.6.5v.4c-.3.6-1.2,1-2.2,1-1.6,0-2.6-1-2.6-2.7h-.1ZM40.5,358c0-.7-.5-1.1-1.1-1.1s-1.1.5-1.1,1.1c0,0,2.2,0,2.2,0Z"
           id="path172" />
        <path
           class="cls-6"
           d="M42.7,360.5v-4c0-.5.3-.7.7-.7s.7.3.7.7v.3h0c0-.6.6-1,1.1-1s.3,0,.4.1c0,.1.2.3.2.5s0,.4-.2.5-.3.2-.6.2c-.7,0-.9.4-.9,1v2.3c0,.5-.3.7-.7.7s-.7-.3-.7-.7h0Z"
           id="path173" />
        <path
           class="cls-6"
           d="M92.7,252v-16c0-1.4.8-2.2,2.1-2.2h6.8c3.8,0,6.2,2,6.2,5.1s-1.7,4.1-3.8,4.4h0c2.8.3,4.8,2.4,4.8,5.1s-2.7,5.9-7.1,5.9h-6.9c-1.3,0-2.1-.8-2.1-2.2h0ZM100,242.3c2.3,0,3.6-1,3.6-2.7s-1.2-2.6-3.1-2.6h-3.5v5.3h3.1,0ZM100.6,251.1c2.5,0,3.8-1.1,3.8-3s-1.4-2.9-3.9-2.9h-3.6v5.9h3.7Z"
           id="path174" />
        <path
           class="cls-6"
           d="M940.2,439.5c-1.1,0-1.8-.6-2.2-1.9l-1.1-3.2h-7.4l-1.1,3.2c-.4,1.3-1,1.9-2.2,1.9s-2.1-.8-2.1-2,0-.8.3-1.4l5.6-15.2c.6-1.7,1.6-2.4,3.3-2.4s2.6.8,3.2,2.4l5.6,15.2c.2.5.3,1,.3,1.4,0,1.2-.8,2-2.2,2h0ZM936,431.1l-2.7-8.4h0l-2.7,8.4h5.5,0Z"
           id="path175" />
        <path
           class="cls-6"
           d="M228.6,221.6v-5.7c0-.5.3-.8.7-.8s.7.3.7.8v2.2h3.2v-2.2c0-.5.3-.8.7-.8s.7.3.7.8v5.7c0,.5-.3.8-.7.8s-.7-.3-.7-.8v-2.3h-3.2v2.3c0,.5-.3.8-.7.8s-.7-.3-.7-.8Z"
           id="path176" />
        <path
           class="cls-6"
           d="M235.5,220.7c0-.9.7-1.5,2-1.6h1.3v-.4c0-.5-.3-.8-.9-.8s-.7.1-1,.6c-.2.2-.3.3-.6.3s-.6-.2-.6-.6,0-.2,0-.3c.2-.6,1.1-1,2.2-1s2.2.7,2.2,1.8v3c0,.5-.3.7-.7.7s-.6-.2-.7-.6v-.3h0c-.3.6-.9.9-1.6.9-1,0-1.8-.6-1.8-1.6h.2ZM238.9,220.3v-.4h-1.1c-.5.1-.8.4-.8.7s.3.6.8.6,1.1-.4,1.1-1h0Z"
           id="path177" />
        <path
           class="cls-6"
           d="M241.2,221.6v-5.8c0-.5.3-.8.7-.8s.7.3.7.8v5.8c0,.5-.3.7-.7.7s-.7-.2-.7-.7Z"
           id="path178" />
        <path
           class="cls-6"
           d="M244,221.6v-3.5h-.3c-.3,0-.5-.2-.5-.5s.2-.5.5-.5h.3v-.4c0-1,.5-1.5,1.5-1.5s1.1.2,1.1.6-.1.3-.3.4h-.3c-.4,0-.6.2-.6.6v.3h.6c.3,0,.5.2.5.5s-.2.5-.5.5h-.6v3.5c0,.5-.3.7-.7.7s-.7-.2-.7-.7h0Z"
           id="path179" />
        <path
           class="cls-6"
           d="M250.6,221.6l-1.5-5.3v-.5c0-.4.3-.7.7-.7s.6.2.7.6l1.1,4.6h0l1.2-4.5c.1-.5.4-.7.8-.7s.6.2.8.6l1.2,4.6h0l1.1-4.6c0-.4.3-.6.7-.6s.7.2.7.7v.5l-1.5,5.3c-.1.5-.4.7-.9.7s-.7-.2-.9-.8l-1.2-4.2h0l-1.2,4.2c-.1.5-.4.8-.9.8s-.7-.2-.9-.8h0Z"
           id="path180" />
        <path
           class="cls-6"
           d="M257.9,220.7c0-.9.7-1.5,2-1.6h1.3v-.4c0-.5-.3-.8-.9-.8s-.7.1-1,.6c-.2.2-.3.3-.6.3s-.6-.2-.6-.6,0-.2,0-.3c.2-.6,1.1-1,2.2-1s2.2.7,2.2,1.8v3c0,.5-.3.7-.7.7s-.6-.2-.7-.6v-.3h0c-.3.6-1,.9-1.6.9-1,0-1.8-.6-1.8-1.6h.2ZM261.3,220.3v-.4h-1.1c-.5.1-.8.4-.8.7s.3.6.8.6,1.1-.4,1.1-1h0Z"
           id="path181" />
        <path
           class="cls-6"
           d="M263.6,221.6v-5.8c0-.5.3-.8.7-.8s.7.3.7.8v5.8c0,.5-.3.7-.7.7s-.7-.2-.7-.7Z"
           id="path182" />
        <path
           class="cls-6"
           d="M266.1,221.6v-5.8c0-.5.3-.8.7-.8s.7.3.7.8v5.8c0,.5-.3.7-.7.7s-.7-.2-.7-.7Z"
           id="path183" />
        <path
           class="cls-6"
           d="M442.2,298.5v-5.1h-1.5c-.4,0-.7-.2-.7-.6s.3-.6.7-.6h4.4c.4,0,.7.2.7.6s-.3.6-.7.6h-1.5v5.1c0,.5-.3.8-.7.8s-.7-.3-.7-.8h0Z"
           id="path184" />
        <path
           class="cls-6"
           d="M445.1,296.5c0-1.7,1-2.7,2.6-2.7s2.6,1,2.6,2.7-1,2.7-2.6,2.7-2.6-1-2.6-2.7ZM448.8,296.5c0-1-.5-1.6-1.1-1.6s-1.1.6-1.1,1.6.4,1.6,1.1,1.6,1.1-.6,1.1-1.6Z"
           id="path185" />
        <path
           class="cls-6"
           d="M451,300.3v-5.7c0-.5.3-.7.7-.7s.7.2.7.7v.3h0c.3-.6.9-1,1.6-1,1.3,0,2.1,1,2.1,2.7s-.8,2.7-2.1,2.7-1.4-.4-1.6-1h0v2c0,.5-.3.7-.7.7s-.7-.2-.7-.7h0ZM454.7,296.5c0-1-.5-1.6-1.2-1.6s-1.2.6-1.2,1.6.5,1.5,1.2,1.5,1.2-.6,1.2-1.5Z"
           id="path186" />
        <path
           class="cls-6"
           d="M458.9,298.5v-4c0-.5.3-.7.7-.7s.7.2.7.7v.3h0c.2-.6.8-1,1.5-1s1.3.4,1.5,1.1h0c.2-.7.9-1.1,1.6-1.1s1.7.7,1.7,1.8v2.9c0,.5-.3.7-.7.7s-.7-.3-.7-.7v-2.6c0-.6-.3-.9-.9-.9s-.9.4-.9,1v2.5c0,.5-.3.7-.7.7s-.7-.3-.7-.7v-2.6c0-.6-.3-.9-.8-.9s-.9.4-.9,1v2.5c0,.5-.3.7-.7.7s-.7-.3-.7-.7h0Z"
           id="path187" />
        <path
           class="cls-6"
           d="M467.5,292.5c0-.4.3-.7.8-.7s.8.3.8.7-.3.7-.8.7-.8-.3-.8-.7ZM467.6,298.5v-4c0-.5.3-.8.7-.8s.7.3.7.8v4c0,.5-.3.7-.7.7s-.7-.3-.7-.7Z"
           id="path188" />
        <path
           class="cls-6"
           d="M469.7,296.5c0-1.7.8-2.7,2.1-2.7s1.3.4,1.6,1h0v-2.1c0-.5.3-.8.7-.8s.7.3.7.8v5.8c0,.5-.3.7-.7.7s-.7-.2-.7-.7v-.3h0c-.2.6-.8,1-1.6,1-1.3,0-2.1-1-2.1-2.7h0ZM473.5,296.5c0-1-.5-1.6-1.2-1.6s-1.2.6-1.2,1.6.4,1.5,1.2,1.5,1.2-.6,1.2-1.5Z"
           id="path189" />
        <path
           class="cls-6"
           d="M664.7,727.9v-.5l1.9-5.2c.2-.6.5-.8,1.1-.8s.9.2,1.1.8l1.9,5.2v.5c0,.4-.3.7-.7.7s-.6-.2-.8-.7l-.4-1.1h-2.5l-.4,1.1c0,.5-.4.7-.8.7s-.8-.3-.8-.7h.4ZM668.8,725.7l-.9-2.9h0l-.9,2.9h1.9,0Z"
           id="path190" />
        <path
           class="cls-6"
           d="M673.9,727.9v-5.6c0-.6.3-1,1-1s.8.2,1,.8l1.8,4.3h0l1.7-4.3c.2-.5.5-.8,1-.8s1,.3,1,1v5.6c0,.4-.2.7-.7.7s-.7-.2-.7-.7v-4.2h0l-1.7,4.3c0,.3-.3.5-.6.5s-.5,0-.6-.4l-1.7-4.3h0v4.2c0,.4-.2.7-.7.7s-.7-.2-.7-.7h0Z"
           id="path191" />
        <path
           class="cls-6"
           d="M682.1,727c0-1,.7-1.5,2-1.6h1.3v-.4c0-.5-.3-.8-.9-.8s-.7,0-1,.5c-.2.2-.3.3-.6.3s-.6-.2-.6-.5v-.3c.2-.6,1.1-1,2.2-1s2.2.7,2.2,1.8v3c0,.5-.3.7-.7.7s-.7-.2-.7-.6v-.3h0c-.3.6-1,.9-1.6.9-1,0-1.8-.6-1.8-1.6h.2ZM685.4,726.6v-.4h-1.1c-.5,0-.8.4-.8.7s.3.6.8.6,1.1-.4,1.1-1h0Z"
           id="path192" />
        <path
           class="cls-6"
           d="M687.7,721.9c0-.4.3-.7.8-.7s.8.3.8.7-.3.7-.8.7-.8-.3-.8-.7ZM687.8,727.9v-4c0-.5.3-.8.7-.8s.7.3.7.8v4c0,.5-.3.7-.7.7s-.7-.3-.7-.7Z"
           id="path193" />
        <path
           class="cls-6"
           d="M690.1,727.9v-4c0-.4.3-.7.7-.7s.7.3.7.7v.3h0c.3-.7.8-1,1.6-1,1.2,0,1.8.7,1.8,2v2.7c0,.5-.3.7-.7.7s-.7-.2-.7-.7v-2.4c0-.7-.3-1.1-1-1.1s-1,.5-1,1.2v2.4c0,.5-.3.7-.7.7s-.7-.2-.7-.7h0Z"
           id="path194" />
        <path
           class="cls-6"
           d="M620.1,369.3v-.4c0-.4.3-.6.7-.6s.5.1.7.4c.2.5.8.8,1.5.8s1.3-.4,1.3-.9-.3-.7-1.2-.9h-.8c-1.4-.4-2.1-1.1-2.1-2.1s1.1-2.1,2.7-2.1,2.3.5,2.6,1.5v.3c0,.4-.2.6-.6.6s-.5-.1-.7-.4c-.2-.5-.7-.8-1.3-.8s-1.2.3-1.2.9.3.7,1.2.9h.7c1.5.4,2.1,1,2.1,2.1s-1.1,2.2-2.8,2.2-2.4-.6-2.7-1.4h-.1Z"
           id="path195" />
        <path
           class="cls-6"
           d="M627.3,369.9l-1-3.6v-.4c0-.4.3-.6.7-.6s.6.2.7.6l.8,3.4h0l.8-3.3c0-.4.4-.6.8-.6s.7.2.8.6l.8,3.3h0l.8-3.4c0-.4.3-.6.7-.6s.7.2.7.6v.4l-1,3.6c-.2.5-.4.8-.9.8s-.8-.2-.9-.8l-.8-3h0l-.8,3.1c0,.5-.4.8-.9.8s-.8-.2-.9-.8h-.4Z"
           id="path196" />
        <path
           class="cls-6"
           d="M634.3,363.9c0-.4.3-.7.8-.7s.8.3.8.7-.3.7-.8.7-.8-.3-.8-.7ZM634.3,369.9v-4c0-.5.3-.8.7-.8s.7.3.7.8v4c0,.5-.3.7-.7.7s-.7-.3-.7-.7Z"
           id="path197" />
        <path
           class="cls-6"
           d="M637.1,366.4h-.3c-.3,0-.5-.2-.5-.5s.2-.5.5-.5h.3v-.6c0-.5.3-.7.7-.7s.7.3.7.7v.6h.5c.3,0,.5.2.5.5s-.2.5-.5.5h-.5v2.5c0,.4,0,.5.4.5h0c.3,0,.5.2.5.5s-.4.6-1,.6h0c-1,0-1.4-.5-1.4-1.4v-2.8h0Z"
           id="path198" />
        <path
           class="cls-6"
           d="M640,367.9c0-1.7,1-2.7,2.6-2.7s1.9.5,2.2,1.2v.4c0,.4-.3.6-.6.6s-.5-.1-.6-.4c-.3-.5-.6-.7-1-.7-.7,0-1.2.6-1.2,1.6s.4,1.6,1.2,1.6.8-.2,1-.6c.2-.3.3-.4.7-.4s.6.2.6.6v.4c-.3.7-1.2,1.2-2.2,1.2-1.6,0-2.6-1-2.6-2.7h-.1Z"
           id="path199" />
        <path
           class="cls-6"
           d="M645.7,369.9v-5.8c0-.5.3-.7.7-.7s.7.3.7.7v2.1h0c.3-.7.8-1,1.7-1s1.8.8,1.8,2v2.7c0,.5-.3.7-.7.7s-.7-.2-.7-.7v-2.4c0-.7-.3-1.1-1-1.1s-1.1.5-1.1,1.2v2.4c0,.5-.3.7-.7.7s-.7-.2-.7-.7h0Z"
           id="path200" />
      </g>
    </g>
  </g>
</svg>
