<?xml version="1.0" encoding="UTF-8" standalone="no"?>
<svg
   version="1.1"
   viewBox="0 0 950.5 838.2"
   id="svg180"
   sodipodi:docname="corrodefull.svg"
   inkscape:version="1.4.2 (f4327f4, 2025-05-13)"
   xmlns:inkscape="http://www.inkscape.org/namespaces/inkscape"
   xmlns:sodipodi="http://sodipodi.sourceforge.net/DTD/sodipodi-0.dtd"
   xmlns="http://www.w3.org/2000/svg"
   xmlns:svg="http://www.w3.org/2000/svg">
  <sodipodi:namedview
     id="namedview180"
     pagecolor="#505050"
     bordercolor="#eeeeee"
     borderopacity="1"
     inkscape:showpageshadow="0"
     inkscape:pageopacity="0"
     inkscape:pagecheckerboard="0"
     inkscape:deskcolor="#505050"
     showgrid="false"
     inkscape:zoom="0.96277737"
     inkscape:cx="475.70707"
     inkscape:cy="419.1"
     inkscape:window-width="1920"
     inkscape:window-height="1009"
     inkscape:window-x="1912"
     inkscape:window-y="-8"
     inkscape:window-maximized="1"
     inkscape:current-layer="Text" />
  <defs
     id="defs6">
    <style
       id="style1">
      .cls-1 {
        fill: url(#linear-gradient-2);
      }

      .cls-2 {
        fill: url(#linear-gradient);
      }

      .cls-3 {
        fill: #3d3d3d;
      }

      .cls-4 {
        fill: #7e7f7e;
      }

      .cls-5 {
        fill: #fff;
      }

      .cls-6 {
        fill: #535353;
      }
    </style>
    <linearGradient
       id="linear-gradient"
       x1="313.1"
       y1="408.4"
       x2="269.7"
       y2="408.4"
       gradientTransform="matrix(1,0,0,-1,0,827.5)"
       gradientUnits="userSpaceOnUse">
      <stop
         offset="0"
         stop-color="#fff"
         stop-opacity=".4"
         id="stop1" />
      <stop
         offset=".1"
         stop-color="#fff"
         stop-opacity=".3"
         id="stop2" />
      <stop
         offset="1"
         stop-color="#fff"
         stop-opacity="0"
         id="stop3" />
    </linearGradient>
    <linearGradient
       id="linear-gradient-2"
       x1="353.9"
       y1="3.9"
       x2="286.5"
       y2="3.9"
       gradientTransform="matrix(1,0,0,-1,0,827.5)"
       gradientUnits="userSpaceOnUse">
      <stop
         offset="0"
         stop-color="#fff"
         stop-opacity=".4"
         id="stop4" />
      <stop
         offset=".1"
         stop-color="#fff"
         stop-opacity=".3"
         id="stop5" />
      <stop
         offset="1"
         stop-color="#fff"
         stop-opacity="0"
         id="stop6" />
    </linearGradient>
  </defs>
  <!-- Generator: Adobe Illustrator 28.6.0, SVG Export Plug-In . SVG Version: 1.2.0 Build 709)  -->
  <g
     id="g180"
     transform="rotate(-90,475.35,419.1)">
    <g
       id="Layer_2">
      <g
         id="Map_2">
        <path
           id="Body_merge"
           class="cls-3"
           d="M 947.4,371.1 H 893.5 L 839,285.9 h -4.6 v -34 h -76.3 v 27.5 H 716 V 167.8 H 604.9 V 57 H 520.2 V 91 H 493 V 84 H 465 V 0.6 h -55.3 v 28 h -7.6 V 0.6 H 256.8 V 56.4 H 284 v 7.3 h -41 v 82.5 H 213.9 V 112 H 102.8 v 140.2 h 27.5 v 56.1 H 53.5 v 86 H 0.6 v 62 h 52.9 v 73.9 c 0,0 76.3,0 76.3,0 v 112.4 h -27.2 v 137.8 h 84.7 V 747 h 27.2 v 90.6 h 139.4 v -83.9 h 28.3 v 27.2 H 438 v -33.7 h 27.5 v 33.7 h 70.1 V 649 h -28.3 v -6.7 h 70.4 v 27 H 688.3 V 558.7 h 65.8 v 27 H 856 L 899.1,466 h 46.4 l 4.4,-2.4 v -89.9 l -2.6,-2.6 z M 423.2,252.3 H 465 v -58 l 28.4,-53.1 v -8.3 h 27 v 6.9 h 28.8 v 28.1 h -28.5 v 84 H 660.3 V 279 H 605 v 113 h -28.2 v -27.8 h -83.7 v -5.9 h 27.4 V 279.7 H 465.9 V 308 h -42.6 v -55.7 0 z M 312.1,56.4 h 97.4 v 111.5 h -55.6 v -7 h 48.4 V 63.7 H 312 v -7.3 c 0,0 0,0 0,0 z M 158.6,194.6 h 55.6 V 188 h 28.6 v 35.1 h 55.3 V 112.2 h 27.5 v 111.5 h 70.6 v 55.8 h -28.5 v 70 h 90.4 v -14.4 h 7.3 V 392 h -4.2 v -25.8 h -51.8 v 31.6 H 381.8 V 377 h -56.1 v 28.3 h -27.9 v -70.2 h -83.6 v -55.3 h -27.9 v -76.9 h -27.5 v -8.4 0 z M 131,392.1 185,363 h 84.7 V 474.8 H 184.8 L 131,445.7 Z M 325.3,781.7 H 269.7 V 670.1 h 28.6 v 104 h 27 v 7.7 0 z m 29,-299.8 h -21.8 v 76 h 21.8 v 57 h -56.2 v 26.3 H 284.2 V 614.5 H 243.1 V 697 h -29 v 8.1 h -27.2 v -6.9 h -29.1 v -6.9 h 28.7 V 558.6 h 27.6 v -55.8 h 83.6 v -70 h 27.9 v 41.9 h 28.7 v 7.1 0 z m 305.8,21.3 h -26.9 v 111.4 h -6.7 V 585.9 H 465.1 V 705 H 437.8 V 585.9 h -56.6 v -27.5 h 21 V 524 l -21,-21 v -63.7 h 28.1 v 34.8 h 84.1 V 447 h 27.3 v 27.1 h 55.6 V 447 H 660 v 56.2 0 z m 140.1,-0.5 H 689.6 v -5.5 H 716 V 363.9 h -84 v -29 h 168.1 v 167.9 0 z" />
        <g
           id="Bombsite">
          <polygon
             class="cls-6"
             points="402.4,160.9 402.4,63.7 325.5,63.7 325.5,161.2 "
             id="polygon6" />
          <rect
             class="cls-6"
             x="325.29999"
             y="640.90002"
             width="84.800003"
             height="82.5"
             id="rect6" />
        </g>
        <g
           id="Elevation_and_fading">
          <polygon
             class="cls-4"
             points="395.8,640.9 341.3,640.9 341.3,666.5 347.3,666.5 347.3,653.2 390.1,653.2 390.1,666.5 395.8,666.5 "
             id="polygon8" />
          <polygon
             class="cls-4"
             points="410.5,683 413.9,683 413.9,725.9 324.3,725.9 324.3,683 327.6,683 327.6,723.4 354.3,723.4 354.3,709.7 382.8,709.7 382.8,723.4 410.5,723.4 "
             id="polygon9" />
        </g>
        <g
           id="Outlines">
          <g
             id="map_outlines">
            <path
               class="cls-5"
               d="M 354.5,838.2 H 213.9 v -90.6 h -26 V 781 H 102 V 642 h 27.2 V 530.8 H 52.8 v -73.9 c 0,0 -52.8,0 -52.8,0 v -63.2 h 52.9 v -86 h 76.9 V 252.8 H 102.3 V 111.4 h 112.3 v 34.2 h 27.9 V 63.1 h 41 V 57 H 256.3 V 0 h 146.5 v 28 h 6.4 V 0 h 56.5 v 83.3 h 28 v 7 h 26 v -34 h 85.9 v 110.8 h 111.1 v 111.6 h 40.9 v -27.5 h 77.5 v 34 h 4.3 l 0.2,0.3 54.3,84.9 h 53.9 l 2.9,2.9 v 90.5 l -4.9,2.7 h -46.1 l -43.1,119.7 h -103 v -27 H 689 V 669.8 H 577.2 v -27 H 508 v 5.5 h 28.3 V 781.4 H 465 v -33.7 h -26.3 v 33.7 h -57 v -27.2 h -27.1 v 83.9 z M 215,837 h 138.2 v -83.9 h 29.5 v 27.2 h 54.6 V 746.6 H 466 v 33.7 h 68.9 V 649.6 h -28.3 v -7.9 h 71.6 v 27 H 687.6 V 558.1 h 67 v 27 h 100.9 l 43.1,-119.7 h 46.6 l 4,-2.2 v -89.3 l -2.2,-2.2 h -54 l -0.2,-0.3 -54.3,-84.9 h -4.9 v -34 H 758.5 V 280 H 715.2 V 168.4 H 604.1 V 57.6 h -83.5 v 34 h -28.4 v -7 h -28 V 1.2 h -54.1 v 28 h -8.8 V 1.2 H 257.2 v 54.6 h 27.2 v 8.5 h -41 v 82.5 H 213.1 V 112.6 H 103.2 v 139 h 27.5 v 57.3 H 54.1 v 86 H 1.2 v 60.8 h 52.9 v 73.9 c 0,0 76.3,0 76.3,0 v 113.6 h -27.2 v 136.6 h 83.5 v -33.4 h 28.4 v 90.6 0 z M 325.9,782.3 H 269.1 V 669.5 h 29.8 v 104 h 27 v 8.9 z m -55.6,-1.2 h 54.4 v -6.5 h -27 v -104 H 270.3 V 781 Z m -55.7,-75.3 h -28.4 v -6.9 h -29.1 v -8.1 h 28.7 V 558.1 h 27.6 V 502.3 H 297 v -70 h 29.1 v 41.9 h 28.7 v 8.3 H 333 v 74.8 h 21.8 v 58.2 h -56.2 v 26.3 h -15.1 v -26.7 h -39.9 v 82.5 h -29 v 8.1 0 z m -27.2,-1.2 h 26 v -8.1 h 29 V 614 h 42.3 v 26.7 h 12.7 v -26.3 h 56.2 v -55.8 h -21.8 v -77.2 h 21.8 v -5.9 h -28.7 v -41.9 h -26.7 v 70 h -83.6 v 55.8 H 187 v 132.7 h -28.7 v 5.7 h 29.1 v 6.9 0 z m 278.3,1 H 437.2 V 586.5 h -56.6 v -28.7 h 21 v -33.5 l -21,-21 v -64.6 h 29.3 v 34.8 h 82.9 v -27.1 h 28.5 v 27.1 h 54.4 v -27.1 h 84.9 v 57.4 h -26.9 v 111.4 h -7.9 V 586.5 H 465.6 v 119.1 z m -27.3,-1.2 h 26.1 V 585.3 H 627.1 V 614 h 5.5 V 502.6 h 26.9 v -55 H 577 v 27.1 h -56.8 v -27.1 h -26.1 v 27.1 h -85.3 v -34.8 h -26.9 v 62.9 l 21,21 V 559 h -21 v 26.3 h 56.6 V 704.4 Z M 800.8,503.3 H 689 v -6.7 h 26.4 V 364.5 h -84 v -30.2 h 169.3 v 169.1 0 z M 690.2,502.1 H 799.6 V 335.4 H 632.7 v 27.8 h 84 V 497.7 H 690.3 V 502 Z M 270.3,475.5 h -85.8 c 0,0 -54.1,-29.4 -54.1,-29.4 v -54.3 l 54.4,-29.4 h 85.5 v 113 z m -85.4,-1.2 h 84.2 V 363.7 h -84 l -53.6,28.9 v 52.9 l 53.3,28.9 z M 326.1,405.9 H 297 V 335.7 H 213.4 V 280.4 H 185.5 V 203.5 H 158 v -9.6 h 55.6 v -6.6 h 29.8 v 35.1 h 54.1 V 111.5 h 28.7 V 223 h 70.6 v 57 h -28.5 v 68.8 h 89.2 v -14.4 h 8.5 v 58.1 h -5.4 V 366.7 H 410 v 31.6 h -28.8 v -20.8 h -54.9 v 28.3 0 z m -27.9,-1.2 h 26.7 v -28.3 h 57.3 v 20.8 h 26.4 v -31.6 h 53 v 25.8 h 3 v -55.7 h -6.1 v 14.4 h -91.6 v -71.2 h 28.5 V 224.3 H 324.8 V 112.8 H 298.5 V 223.7 H 242 v -35.1 h -27.4 v 6.6 H 159 v 7.2 c 0,0 27.5,0 27.5,0 v 76.9 h 27.9 v 55.3 H 298 v 70.2 0 z m 307.3,-12.1 h -29.4 v -27.8 h -83.7 v -7.1 h 27.4 v -77.4 h -53.4 v 28.3 h -43.8 v -56.9 h 41.8 v -57.5 l 28.4,-53.1 v -8.7 H 521 v 6.9 h 28.8 v 29.3 h -28.5 v 82.8 h 139.6 v 28.3 h -55.3 v 113 0 z m -28.2,-1.2 h 27 v -113 h 55.3 V 252.5 H 520 v -85.2 h 28.5 v -26.9 h -28.8 v -6.9 h -25.8 v 7.8 l -28.4,53.1 v 58.4 h -41.8 v 54.5 c 0,0 41.4,0 41.4,0 V 279 h 55.8 v 79.8 h -27.4 v 4.7 h 83.7 v 27.8 0 z M 410.1,168.5 h -56.8 v -8.2 h 48.4 v -96 h -90.3 v -8.5 h 98.7 z m -55.5,-1.2 H 409 V 57 h -96.2 v 6.1 c 0,0 90.3,0 90.3,0 v 98.4 h -48.4 v 5.8 0 z"
               id="path9" />
          </g>
          <path
             class="cls-5"
             d="M 270.3,697.7 H 242.4 V 614 h 42.3 v 26.7 h 21.4 v 29.9 h -35.8 z m -26.7,-1.2 h 25.5 v -27.1 h 35.8 v -27.5 h -21.4 v -26.7 h -39.9 z"
             id="path10" />
          <path
             class="cls-5"
             d="m 396.4,667.1 h -6.9 v -13.3 h -41.7 v 13.3 h -7.1 v -26.8 h 55.7 z m -5.7,-1.2 h 4.5 v -24.4 h -53.3 v 24.4 h 4.7 v -13.3 h 44.1 z"
             id="path11" />
          <path
             class="cls-5"
             d="m 414.5,726.5 h -90.8 v -44.1 h 4.4 v 40.4 h 25.5 V 709 h 29.7 v 13.8 h 26.5 v -40.4 h 4.6 v 44.1 z m -89.6,-1.2 h 88.4 v -41.7 h -2.2 V 724 H 382.2 V 710.2 H 354.9 V 724 H 327 v -40.4 h -2 v 41.7 0 z"
             id="path12" />
          <path
             class="cls-5"
             d="m 438.3,634.6 h -15 v -15 h 15 z m -13.7,-1.2 h 12.6 v -12.6 h -12.6 z"
             id="path13" />
          <path
             class="cls-5"
             d="m 479.6,697.3 h -15 v -15 h 15 z m -13.8,-1.2 h 12.6 v -12.6 h -12.6 z"
             id="path14" />
          <path
             class="cls-5"
             d="m 660.8,252.5 h -14.4 v -14.4 h 14.4 z m -13.2,-1.2 h 12 v -12 h -12 z"
             id="path15" />
          <path
             class="cls-5"
             d="M 605.4,119.4 H 591 V 105 h 14.4 z m -13.1,-1.2 h 12 v -12 h -12 z"
             id="path16" />
          <path
             class="cls-5"
             d="m 298.6,174.5 h -14.4 v -14.4 h 14.4 z m -13.1,-1.2 h 12 v -12 h -12 z"
             id="path17" />
          <path
             class="cls-5"
             d="m 339.5,126 h -14.4 v -14.4 h 14.4 z m -13.2,-1.2 h 12 v -12 h -12 z"
             id="path18" />
          <path
             class="cls-5"
             d="M 369,77.5 H 354.6 V 63.1 H 369 Z m -13.2,-1.2 h 12 v -12 h -12 z"
             id="path19" />
          <path
             class="cls-5"
             d="M 361.5,57 H 347.1 V 42.6 h 14.4 z m -13.1,-1.2 h 12 v -12 h -12 z"
             id="path20" />
          <path
             class="cls-5"
             d="m 716.6,216.8 h -14.4 v -14.4 h 14.4 z m -13.2,-1.2 h 12 v -12 h -12 z"
             id="path21" />
          <path
             class="cls-5"
             d="m 625.9,447.5 h -14.4 v -14.4 h 14.4 z m -13.2,-1.2 h 12 v -12 h -12 z"
             id="path22" />
          <path
             class="cls-5"
             d="m 646.9,517 h -14.4 v -14.4 h 14.4 z m -13.1,-1.2 h 12 v -12 h -12 z"
             id="path23" />
          <path
             class="cls-5"
             d="m 501.3,414.8 h -14.4 v -7.2 h 14.4 z m -13.2,-1.2 h 12 v -4.8 h -12 z"
             id="path24" />
          <path
             class="cls-5"
             d="m 542.3,378 h -14.4 v -14.4 h 14.4 z m -13.2,-1.2 h 12 v -12 h -12 z"
             id="path25" />
          <path
             class="cls-5"
             d="m 464.4,195.6 -12.5,-7.2 7.2,-12.5 12.5,7.2 z m -10.8,-7.6 10.4,6 6,-10.4 -10.4,-6 z"
             id="path26" />
          <path
             class="cls-5"
             d="m 730.8,335.4 h -28 V 321 h 28 z M 704,334.2 h 25.6 v -12 H 704 Z"
             id="path27" />
          <path
             class="cls-5"
             d="m 806.3,380.2 h -6.7 V 373 h 6.7 z m -5.5,-1.2 h 4.3 v -4.8 h -4.3 z"
             id="path28" />
          <path
             class="cls-5"
             d="m 716.7,418.8 h -16.2 v -55.5 h 16.2 z m -15,-1.2 h 13.8 v -53.1 h -13.8 z"
             id="path29" />
          <path
             class="cls-5"
             d="M 783.8,586.4 H 779 v -4.8 h 4.8 z m -3.6,-1.2 h 2.4 v -2.4 h -2.4 z"
             id="path30" />
          <path
             class="cls-5"
             d="M 688.6,648.8 H 682 v -15 h 6.6 z m -5.4,-1.2 h 4.2 V 635 h -4.2 z"
             id="path31" />
          <path
             class="cls-5"
             d="m 536.1,781.6 h -15 v -15 h 15 z m -13.7,-1.2 H 535 v -12.6 h -12.6 z"
             id="path32" />
          <path
             class="cls-5"
             d="m 292.2,838.2 h -15 v -15 h 15 z M 278.5,837 h 12.6 v -12.6 h -12.6 z"
             id="path33" />
          <path
             class="cls-5"
             d="m 270.3,782.3 h -15 v -15 h 15 z m -13.7,-1.2 h 12.6 v -12.6 h -12.6 z"
             id="path34" />
          <path
             class="cls-5"
             d="m 250.2,704.4 h -13.8 v -7.5 h 13.8 z m -12.6,-1.2 H 249 v -5.1 h -11.4 z"
             id="path35" />
          <path
             class="cls-5"
             d="m 636.9,524.4 c -2.4,0 -4.3,-1.9 -4.3,-4.3 0,-2.4 1.9,-4.3 4.3,-4.3 2.4,0 4.3,1.9 4.3,4.3 0,2.4 -1.9,4.3 -4.3,4.3 z m 0,-7.4 c -1.7,0 -3.1,1.4 -3.1,3.1 0,1.7 1.4,3.1 3.1,3.1 1.7,0 3.1,-1.4 3.1,-3.1 0,-1.7 -1.4,-3.1 -3.1,-3.1 z"
             id="path36" />
          <path
             class="cls-5"
             d="m 712.3,426.9 c -2.4,0 -4.3,-1.9 -4.3,-4.3 0,-2.4 1.9,-4.3 4.3,-4.3 2.4,0 4.3,1.9 4.3,4.3 0,2.4 -1.9,4.3 -4.3,4.3 z m 0,-7.5 c -1.7,0 -3.1,1.4 -3.1,3.1 0,1.7 1.4,3.1 3.1,3.1 1.7,0 3.1,-1.4 3.1,-3.1 0,-1.7 -1.4,-3.1 -3.1,-3.1 z"
             id="path37" />
          <path
             class="cls-5"
             d="m 704.9,426.9 c -2.4,0 -4.3,-1.9 -4.3,-4.3 0,-2.4 1.9,-4.3 4.3,-4.3 2.4,0 4.3,1.9 4.3,4.3 0,2.4 -1.9,4.3 -4.3,4.3 z m 0,-7.5 c -1.7,0 -3.1,1.4 -3.1,3.1 0,1.7 1.4,3.1 3.1,3.1 1.7,0 3.1,-1.4 3.1,-3.1 0,-1.7 -1.4,-3.1 -3.1,-3.1 z"
             id="path38" />
          <path
             class="cls-5"
             d="m 616.4,210.2 h -12.1 v -43 h 25.6 V 182 H 616.4 Z M 605.5,209 h 9.7 v -28.2 h 13.5 v -12.4 h -23.2 z"
             id="path39" />
          <path
             class="cls-5"
             d="m 881.7,516 -5.8,-7 -9.3,-3.4 4.1,-9.5 8.9,3.7 8.1,-0.2 -5.9,16.4 z m -13.5,-11 8.5,3.1 4.6,5.6 4.6,-12.8 -6.6,0.2 -8,-3.3 z"
             id="path40" />
          <path
             class="cls-5"
             d="m 850.4,435.7 -12.9,-7.5 v -14.9 l 12.9,-7.5 12.9,7.5 v 14.9 z m -11.7,-8.1 11.7,6.8 11.7,-6.8 v -13.5 l -11.7,-6.8 -11.7,6.8 z"
             id="path41" />
          <path
             class="cls-5"
             d="m 854.6,336.6 -5.5,-8.7 8.9,-5.8 1.4,-5.2 8.3,12.9 -4.6,0.3 -8.6,6.5 z m -3.8,-8.4 4.1,6.6 7.8,-5.9 2.9,-0.2 -5.7,-8.9 -0.8,3 z"
             id="path42" />
          <rect
             class="cls-5"
             x="269.70001"
             y="808.70001"
             width="84.099998"
             height="1.2"
             id="rect42" />
          <polygon
             class="cls-5"
             points="298,641.9 298,640.7 306.1,640.7 306.1,670.6 298.3,670.6 298.3,669.4 304.9,669.4 304.9,641.9 "
             id="polygon42" />
          <rect
             class="cls-5"
             x="249.60001"
             y="696.90002"
             width="20.1"
             height="1.2"
             id="rect43" />
          <path
             class="cls-5"
             d="M 465.6,84.5 H 438.1 V 69.6 h 27.5 z m -26.3,-1.2 h 25.1 V 70.8 h -25.1 z"
             id="path43" />
          <polygon
             class="cls-5"
             points="949.9,394.7 944.5,394.7 935.8,404.8 944.8,416.3 949.9,416.3 949.9,417.5 944.2,417.5 934.2,404.8 943.9,393.5 949.9,393.5 "
             id="polygon44" />
          <rect
             class="cls-5"
             x="374.60001"
             y="374.20001"
             width="1.2"
             height="18"
             transform="rotate(-46.1,375.61375,383.40443)"
             id="rect45" />
          <path
             class="cls-5"
             d="m 321.3,433.6 h -8.8 v -28.9 h 8.8 z m -7.6,-1.2 h 6.4 v -26.5 h -6.4 z"
             id="path45" />
          <rect
             class="cls-5"
             x="341.29999"
             y="665.90002"
             width="54.5"
             height="1.2"
             id="rect46" />
          <polygon
             class="cls-5"
             points="520.7,417.4 520.7,414.8 464.7,414.8 464.7,392 465.9,392 465.9,413.6 521.9,413.6 521.9,418.6 460.4,418.6 460.4,392 461.6,392 461.6,417.4 "
             id="polygon46" />
        </g>
        <g
           id="Text">
          <path
             class="cls-5"
             d="m 360.45,687.55 v -5.8 c 0,-0.8 0.2,-1.4 0.6,-1.8 0.4,-0.4 1,-0.5 1.9,-0.5 h 15.1 c 0.9,0 1.5,0.2 1.9,0.6 0.4,0.4 0.6,1 0.6,1.8 v 6.2 c 0,0.9 0,1.7 -0.2,2.4 -0.1,0.7 -0.3,1.3 -0.7,1.8 -0.3,0.5 -0.6,0.9 -1.1,1.2 -0.4,0.3 -0.9,0.6 -1.4,0.8 -0.5,0.2 -1.1,0.3 -1.7,0.3 -2,0 -3.5,-1 -4.4,-2.9 -0.8,2.5 -2.5,3.8 -4.9,3.8 -2.4,0 -2.1,-0.3 -3,-0.8 -0.9,-0.5 -1.6,-1.3 -2,-2.2 -0.3,-0.6 -0.4,-1.2 -0.5,-2 -0.1,-0.8 -0.2,-1.6 -0.2,-2.6 z m 17,-4.3 h -5.2 v 3.5 c 0,1 0,1.7 0.3,2.2 0.2,0.5 0.6,0.9 1.1,1.2 0.4,0.2 0.8,0.3 1.3,0.3 1,0 1.7,-0.3 2,-1 0.3,-0.7 0.5,-1.7 0.5,-3.1 z m -8.1,4 v -4 h -5.9 v 4.1 c 0,2.6 1,3.9 3,3.9 2,0 1.8,-0.3 2.2,-1 0.5,-0.7 0.7,-1.7 0.7,-3 z"
             id="path46" />
          <path
             class="cls-5"
             d="m 363.6,119.9 2.5,-0.9 v -7.7 l -2.6,-0.9 c -1,-0.4 -1.7,-0.7 -2,-0.9 -0.4,-0.3 -0.5,-0.7 -0.5,-1.2 0,-0.5 0.2,-0.9 0.6,-1.3 0.4,-0.4 0.8,-0.6 1.3,-0.6 0.5,0 0.6,0 0.9,0.1 0.3,0 0.7,0.2 1.2,0.4 l 13.1,4.9 c 0.4,0.1 0.8,0.3 1.4,0.5 0.5,0.2 1,0.4 1.3,0.6 0.3,0.2 0.6,0.5 0.8,0.9 0.2,0.4 0.3,0.8 0.3,1.3 0,0.5 -0.1,1 -0.3,1.3 -0.2,0.4 -0.5,0.6 -0.8,0.9 -0.3,0.2 -0.7,0.4 -1.1,0.6 -0.4,0.2 -0.9,0.3 -1.6,0.6 l -13,5 c -1,0.4 -1.7,0.6 -2.2,0.6 -0.5,0 -0.9,-0.2 -1.3,-0.6 -0.4,-0.4 -0.6,-0.8 -0.6,-1.3 0,-0.5 0,-0.6 0.2,-0.8 0.2,-0.2 0.3,-0.4 0.5,-0.5 0.2,-0.1 0.5,-0.3 0.9,-0.5 0.4,-0.2 0.8,-0.3 1.1,-0.4 z m 5.6,-7.6 v 5.7 l 8.3,-2.9 z"
             id="path47" />
        </g>
      </g>
    </g>
  </g>
</svg>
