<?xml version="1.0" encoding="UTF-8"?>
<svg xmlns="http://www.w3.org/2000/svg" xmlns:xlink="http://www.w3.org/1999/xlink" version="1.1" viewBox="0 0 950.5 838.2">
  <defs>
    <style>
      .cls-1 {
        fill: url(#linear-gradient-2);
      }

      .cls-2 {
        fill: url(#linear-gradient);
      }

      .cls-3 {
        fill: #3d3d3d;
      }

      .cls-4 {
        fill: #7e7f7e;
      }

      .cls-5 {
        fill: #fff;
      }

      .cls-6 {
        fill: #535353;
      }
    </style>
    <linearGradient id="linear-gradient" x1="313.1" y1="408.4" x2="269.7" y2="408.4" gradientTransform="translate(0 827.5) scale(1 -1)" gradientUnits="userSpaceOnUse">
      <stop offset="0" stop-color="#fff" stop-opacity=".4"/>
      <stop offset=".1" stop-color="#fff" stop-opacity=".3"/>
      <stop offset="1" stop-color="#fff" stop-opacity="0"/>
    </linearGradient>
    <linearGradient id="linear-gradient-2" x1="353.9" y1="3.9" x2="286.5" y2="3.9" gradientTransform="translate(0 827.5) scale(1 -1)" gradientUnits="userSpaceOnUse">
      <stop offset="0" stop-color="#fff" stop-opacity=".4"/>
      <stop offset=".1" stop-color="#fff" stop-opacity=".3"/>
      <stop offset="1" stop-color="#fff" stop-opacity="0"/>
    </linearGradient>
  </defs>
  <!-- Generator: Adobe Illustrator 28.6.0, SVG Export Plug-In . SVG Version: 1.2.0 Build 709)  -->
  <g>
    <g id="Layer_2">
      <g id="Map_2">
        <path id="Body_merge" class="cls-3" d="M947.4,371.1h-53.9l-54.5-85.2h-4.6v-34h-76.3v27.5h-42.1v-111.6h-111.1V57h-84.7v34h-27.2v-7h-28V.6h-55.3v28h-7.6V.6h-145.3v55.8h27.2v7.3h-41v82.5h-29.1v-34.2h-111.1v140.2h27.5v56.1H53.5v86H.6v62h52.9v73.9s76.3,0,76.3,0v112.4h-27.2v137.8h84.7v-33.4h27.2v90.6h139.4v-83.9h28.3v27.2h55.8v-33.7h27.5v33.7h70.1v-131.9h-28.3v-6.7h70.4v27h110.6v-110.6h65.8v27h101.9l43.1-119.7h46.4l4.4-2.4v-89.9l-2.6-2.6ZM423.2,252.3h41.8v-58l28.4-53.1v-8.3h27v6.9h28.8v28.1h-28.5v84h139.6v27.1h-55.3v113h-28.2v-27.8h-83.7v-5.9h27.4v-78.6h-54.6v28.3h-42.6v-55.7h0ZM312.1,56.4h97.4v111.5h-55.6v-7h48.4V63.7h-90.3v-7.3s0,0,0,0ZM158.6,194.6h55.6v-6.6h28.6v35.1h55.3v-110.9h27.5v111.5h70.6v55.8h-28.5v70h90.4v-14.4h7.3v56.9h-4.2v-25.8h-51.8v31.6h-27.6v-20.8h-56.1v28.3h-27.9v-70.2h-83.6v-55.3h-27.9v-76.9h-27.5v-8.4h0ZM131,392.1l54-29.1h84.7v111.8h-84.9l-53.8-29.1v-53.6ZM325.3,781.7h-55.6v-111.6h28.6v104h27v7.7h0ZM354.3,481.9h-21.8v76h21.8v57h-56.2v26.3h-13.9v-26.7h-41.1v82.5h-29v8.1h-27.2v-6.9h-29.1v-6.9h28.7v-132.7h27.6v-55.8h83.6v-70h27.9v41.9h28.7v7.1h0ZM660.1,503.2h-26.9v111.4h-6.7v-28.7h-161.4v119.1h-27.3v-119.1h-56.6v-27.5h21v-34.4l-21-21v-63.7h28.1v34.8h84.1v-27.1h27.3v27.1h55.6v-27.1h83.7v56.2h0ZM800.2,502.7h-110.6v-5.5h26.4v-133.3h-84v-29h168.1v167.9h0Z"/>
        <g id="Bombsite">
          <polygon class="cls-6" points="325.5 161.2 402.4 160.9 402.4 63.7 325.5 63.7 325.5 161.2"/>
          <rect class="cls-6" x="325.3" y="640.9" width="84.8" height="82.5"/>
        </g>
        <g id="Elevation_and_fading">
          <polygon class="cls-4" points="243 697.1 269.7 697.1 269.7 670 305.5 670 305.5 641.3 284.2 641.3 284.2 614.6 243 614.6 243 697.1"/>
          <polygon class="cls-4" points="347.3 666.5 347.3 653.2 390.1 653.2 390.1 666.5 395.8 666.5 395.8 640.9 341.3 640.9 341.3 666.5 347.3 666.5"/>
          <polygon class="cls-4" points="354.3 723.4 354.3 709.7 382.8 709.7 382.8 723.4 410.5 723.4 410.5 683 413.9 683 413.9 725.9 324.3 725.9 324.3 683 327.6 683 327.6 723.4 354.3 723.4"/>
        </g>
        <g id="Outlines">
          <g id="map_outlines">
            <path class="cls-5" d="M354.5,838.2h-140.6v-90.6h-26v33.4h-85.9v-139h27.2v-111.2H52.8v-73.9s-52.8,0-52.8,0v-63.2h52.9v-86h76.9v-54.9h-27.5V111.4h112.3v34.2h27.9V63.1h41v-6.1h-27.2V0h146.5v28h6.4V0h56.5v83.3h28v7h26v-34h85.9v110.8h111.1v111.6h40.9v-27.5h77.5v34h4.3l.2.3,54.3,84.9h53.9l2.9,2.9v90.5l-4.9,2.7h-46.1l-43.1,119.7h-103v-27h-64.6v110.6h-111.8v-27h-69.2v5.5h28.3v133.1h-71.3v-33.7h-26.3v33.7h-57v-27.2h-27.1v83.9ZM215,837h138.2v-83.9h29.5v27.2h54.6v-33.7h28.7v33.7h68.9v-130.7h-28.3v-7.9h71.6v27h109.4v-110.6h67v27h100.9l43.1-119.7h46.6l4-2.2v-89.3l-2.2-2.2h-54l-.2-.3-54.3-84.9h-4.9v-34h-75.1v27.5h-43.3v-111.6h-111.1V57.6h-83.5v34h-28.4v-7h-28V1.2h-54.1v28h-8.8V1.2h-144.1v54.6h27.2v8.5h-41v82.5h-30.3v-34.2h-109.9v139h27.5v57.3H54.1v86H1.2v60.8h52.9v73.9s76.3,0,76.3,0v113.6h-27.2v136.6h83.5v-33.4h28.4v90.6h0ZM325.9,782.3h-56.8v-112.8h29.8v104h27v8.9ZM270.3,781.1h54.4v-6.5h-27v-104h-27.4v110.4ZM214.6,705.8h-28.4v-6.9h-29.1v-8.1h28.7v-132.7h27.6v-55.8h83.6v-70h29.1v41.9h28.7v8.3h-21.8v74.8h21.8v58.2h-56.2v26.3h-15.1v-26.7h-39.9v82.5h-29v8.1h0ZM187.4,704.6h26v-8.1h29v-82.5h42.3v26.7h12.7v-26.3h56.2v-55.8h-21.8v-77.2h21.8v-5.9h-28.7v-41.9h-26.7v70h-83.6v55.8h-27.6v132.7h-28.7v5.7h29.1v6.9h0ZM465.7,705.6h-28.5v-119.1h-56.6v-28.7h21v-33.5l-21-21v-64.6h29.3v34.8h82.9v-27.1h28.5v27.1h54.4v-27.1h84.9v57.4h-26.9v111.4h-7.9v-28.7h-160.2v119.1ZM438.4,704.4h26.1v-119.1h162.6v28.7h5.5v-111.4h26.9v-55h-82.5v27.1h-56.8v-27.1h-26.1v27.1h-85.3v-34.8h-26.9v62.9l21,21v35.2h-21v26.3h56.6v119.1ZM800.8,503.3h-111.8v-6.7h26.4v-132.1h-84v-30.2h169.3v169.1h0ZM690.2,502.1h109.4v-166.7h-166.9v27.8h84v134.5h-26.4v4.3ZM270.3,475.5h-85.8c0,0-54.1-29.4-54.1-29.4v-54.3l54.4-29.4h85.5v113ZM184.9,474.3h84.2v-110.6h-84l-53.6,28.9v52.9l53.3,28.9ZM326.1,405.9h-29.1v-70.2h-83.6v-55.3h-27.9v-76.9h-27.5v-9.6h55.6v-6.6h29.8v35.1h54.1v-110.9h28.7v111.5h70.6v57h-28.5v68.8h89.2v-14.4h8.5v58.1h-5.4v-25.8h-50.6v31.6h-28.8v-20.8h-54.9v28.3h0ZM298.2,404.7h26.7v-28.3h57.3v20.8h26.4v-31.6h53v25.8h3v-55.7h-6.1v14.4h-91.6v-71.2h28.5v-54.6h-70.6v-111.5h-26.3v110.9h-56.5v-35.1h-27.4v6.6h-55.6v7.2s27.5,0,27.5,0v76.9h27.9v55.3h83.6v70.2h0ZM605.5,392.6h-29.4v-27.8h-83.7v-7.1h27.4v-77.4h-53.4v28.3h-43.8v-56.9h41.8v-57.5l28.4-53.1v-8.7h28.2v6.9h28.8v29.3h-28.5v82.8h139.6v28.3h-55.3v113h0ZM577.3,391.4h27v-113h55.3v-25.9h-139.6v-85.2h28.5v-26.9h-28.8v-6.9h-25.8v7.8l-28.4,53.1v58.4h-41.8v54.5s41.4,0,41.4,0v-28.3h55.8v79.8h-27.4v4.7h83.7v27.8h0ZM410.1,168.5h-56.8v-8.2h48.4v-96h-90.3v-8.5h98.7v112.7ZM354.6,167.3h54.4V57h-96.2v6.1s90.3,0,90.3,0v98.4h-48.4v5.8h0Z"/>
          </g>
          <path class="cls-5" d="M270.3,697.7h-27.9v-83.7h42.3v26.7h21.4v29.9h-35.8v27.1ZM243.6,696.5h25.5v-27.1h35.8v-27.5h-21.4v-26.7h-39.9v81.3Z"/>
          <path class="cls-5" d="M396.4,667.1h-6.9v-13.3h-41.7v13.3h-7.1v-26.8h55.7v26.8ZM390.7,665.9h4.5v-24.4h-53.3v24.4h4.7v-13.3h44.1v13.3h0Z"/>
          <path class="cls-5" d="M414.5,726.5h-90.8v-44.1h4.4v40.4h25.5v-13.8h29.7v13.8h26.5v-40.4h4.6v44.1ZM324.9,725.3h88.4v-41.7h-2.2v40.4h-28.9v-13.8h-27.3v13.8h-27.9v-40.4h-2v41.7h0Z"/>
          <path class="cls-5" d="M438.3,634.6h-15v-15h15v15ZM424.6,633.4h12.6v-12.6h-12.6v12.6Z"/>
          <path class="cls-5" d="M479.6,697.3h-15v-15h15v15ZM465.8,696.1h12.6v-12.6h-12.6v12.6Z"/>
          <path class="cls-5" d="M660.8,252.5h-14.4v-14.4h14.4v14.4ZM647.6,251.3h12v-12h-12v12Z"/>
          <path class="cls-5" d="M605.4,119.4h-14.4v-14.4h14.4v14.4ZM592.3,118.2h12v-12h-12v12Z"/>
          <path class="cls-5" d="M298.6,174.5h-14.4v-14.4h14.4v14.4ZM285.5,173.3h12v-12h-12v12Z"/>
          <path class="cls-5" d="M339.5,126h-14.4v-14.4h14.4v14.4ZM326.3,124.8h12v-12h-12v12Z"/>
          <path class="cls-5" d="M369,77.5h-14.4v-14.4h14.4v14.4ZM355.8,76.3h12v-12h-12v12Z"/>
          <path class="cls-5" d="M361.5,57h-14.4v-14.4h14.4v14.4ZM348.4,55.8h12v-12h-12v12Z"/>
          <path class="cls-5" d="M716.6,216.8h-14.4v-14.4h14.4v14.4ZM703.4,215.6h12v-12h-12v12Z"/>
          <path class="cls-5" d="M625.9,447.5h-14.4v-14.4h14.4v14.4ZM612.7,446.3h12v-12h-12v12Z"/>
          <path class="cls-5" d="M646.9,517h-14.4v-14.4h14.4v14.4ZM633.8,515.8h12v-12h-12v12Z"/>
          <path class="cls-5" d="M501.3,414.8h-14.4v-7.2h14.4v7.2ZM488.1,413.6h12v-4.8h-12v4.8Z"/>
          <path class="cls-5" d="M542.3,378h-14.4v-14.4h14.4v14.4ZM529.1,376.8h12v-12h-12v12Z"/>
          <path class="cls-5" d="M464.4,195.6l-12.5-7.2,7.2-12.5,12.5,7.2-7.2,12.5ZM453.6,188l10.4,6,6-10.4-10.4-6-6,10.4Z"/>
          <path class="cls-5" d="M730.8,335.4h-28v-14.4h28v14.4h0ZM704,334.2h25.6v-12h-25.6v12Z"/>
          <path class="cls-5" d="M806.3,380.2h-6.7v-7.2h6.7v7.2ZM800.8,379h4.3v-4.8h-4.3v4.8Z"/>
          <path class="cls-5" d="M716.7,418.8h-16.2v-55.5h16.2v55.5ZM701.7,417.6h13.8v-53.1h-13.8v53.1Z"/>
          <path class="cls-5" d="M783.8,586.4h-4.8v-4.8h4.8v4.8ZM780.2,585.2h2.4v-2.4h-2.4v2.4Z"/>
          <path class="cls-5" d="M688.6,648.8h-6.6v-15h6.6v15ZM683.2,647.6h4.2v-12.6h-4.2v12.6Z"/>
          <path class="cls-5" d="M536.1,781.6h-15v-15h15v15ZM522.4,780.4h12.6v-12.6h-12.6v12.6Z"/>
          <path class="cls-5" d="M292.2,838.2h-15v-15h15v15ZM278.5,837h12.6v-12.6h-12.6v12.6Z"/>
          <path class="cls-5" d="M270.3,782.3h-15v-15h15v15ZM256.6,781.1h12.6v-12.6h-12.6v12.6Z"/>
          <path class="cls-5" d="M250.2,704.4h-13.8v-7.5h13.8v7.5ZM237.6,703.2h11.4v-5.1h-11.4v5.1Z"/>
          <path class="cls-5" d="M636.9,524.4c-2.4,0-4.3-1.9-4.3-4.3s1.9-4.3,4.3-4.3,4.3,1.9,4.3,4.3-1.9,4.3-4.3,4.3ZM636.9,517c-1.7,0-3.1,1.4-3.1,3.1s1.4,3.1,3.1,3.1,3.1-1.4,3.1-3.1-1.4-3.1-3.1-3.1Z"/>
          <path class="cls-5" d="M712.3,426.9c-2.4,0-4.3-1.9-4.3-4.3s1.9-4.3,4.3-4.3,4.3,1.9,4.3,4.3-1.9,4.3-4.3,4.3ZM712.3,419.4c-1.7,0-3.1,1.4-3.1,3.1s1.4,3.1,3.1,3.1,3.1-1.4,3.1-3.1-1.4-3.1-3.1-3.1Z"/>
          <path class="cls-5" d="M704.9,426.9c-2.4,0-4.3-1.9-4.3-4.3s1.9-4.3,4.3-4.3,4.3,1.9,4.3,4.3-1.9,4.3-4.3,4.3ZM704.9,419.4c-1.7,0-3.1,1.4-3.1,3.1s1.4,3.1,3.1,3.1,3.1-1.4,3.1-3.1-1.4-3.1-3.1-3.1Z"/>
          <path class="cls-5" d="M616.4,210.2h-12.1v-43h25.6v14.8h-13.5v28.2ZM605.5,209h9.7v-28.2h13.5v-12.4h-23.2v40.6h0Z"/>
          <path class="cls-5" d="M881.7,516l-5.8-7-9.3-3.4,4.1-9.5,8.9,3.7,8.1-.2-5.9,16.4ZM868.2,505l8.5,3.1,4.6,5.6,4.6-12.8-6.6.2-8-3.3-3.1,7.2Z"/>
          <path class="cls-5" d="M850.4,435.7l-12.9-7.5v-14.9l12.9-7.5,12.9,7.5v14.9l-12.9,7.5ZM838.7,427.6l11.7,6.8,11.7-6.8v-13.5l-11.7-6.8-11.7,6.8v13.5Z"/>
          <path class="cls-5" d="M854.6,336.6l-5.5-8.7,8.9-5.8,1.4-5.2,8.3,12.9-4.6.3-8.6,6.5ZM850.8,328.2l4.1,6.6,7.8-5.9,2.9-.2-5.7-8.9-.8,3-8.3,5.4Z"/>
          <rect class="cls-5" x="269.7" y="808.7" width="84.1" height="1.2"/>
          <polygon class="cls-5" points="306.1 670.6 298.3 670.6 298.3 669.4 304.9 669.4 304.9 641.9 298 641.9 298 640.7 306.1 640.7 306.1 670.6"/>
          <rect class="cls-5" x="249.6" y="696.9" width="20.1" height="1.2"/>
          <path class="cls-5" d="M465.6,84.5h-27.5v-14.9h27.5v14.9ZM439.3,83.3h25.1v-12.5h-25.1v12.5Z"/>
          <rect class="cls-5" x="438.1" y="56.4" width="1.2" height="13.9"/>
          <polygon class="cls-5" points="949.9 417.5 944.2 417.5 934.2 404.8 943.9 393.5 949.9 393.5 949.9 394.7 944.5 394.7 935.8 404.8 944.8 416.3 949.9 416.3 949.9 417.5"/>
          <rect class="cls-5" x="374.6" y="374.2" width="1.2" height="18" transform="translate(-161.1 388.2) rotate(-46.1)"/>
          <path class="cls-5" d="M321.3,433.6h-8.8v-28.9h8.8v28.9ZM313.7,432.4h6.4v-26.5h-6.4v26.5Z"/>
          <rect class="cls-5" x="341.3" y="665.9" width="54.5" height="1.2"/>
          <polygon class="cls-5" points="521.9 418.6 460.4 418.6 460.4 392 461.6 392 461.6 417.4 520.7 417.4 520.7 414.8 464.7 414.8 464.7 392 465.9 392 465.9 413.6 521.9 413.6 521.9 418.6"/>
        </g>
        <g id="Text">
          <path class="cls-5" d="M370.6,697.5h-5.8c-.8,0-1.4-.2-1.8-.6-.4-.4-.5-1-.5-1.9v-15.1c0-.9.2-1.5.6-1.9.4-.4,1-.6,1.8-.6h6.2c.9,0,1.7,0,2.4.2.7.1,1.3.3,1.8.7.5.3.9.6,1.2,1.1.3.4.6.9.8,1.4.2.5.3,1.1.3,1.7,0,2-1,3.5-2.9,4.4,2.5.8,3.8,2.5,3.8,4.9s-.3,2.1-.8,3-1.3,1.6-2.2,2c-.6.3-1.2.4-2,.5-.8.1-1.6.2-2.6.2ZM366.3,680.5v5.2h3.5c1,0,1.7,0,2.2-.3.5-.2.9-.6,1.2-1.1.2-.4.3-.8.3-1.3,0-1-.3-1.7-1-2s-1.7-.5-3.1-.5h-3.1ZM370.3,688.6h-4v5.9h4.1c2.6,0,3.9-1,3.9-3s-.3-1.8-1-2.2c-.7-.5-1.7-.7-3-.7Z"/>
          <path class="cls-5" d="M376.1,123.1l-.9-2.5h-7.7l-.9,2.6c-.4,1-.7,1.7-.9,2-.3.4-.7.5-1.2.5s-.9-.2-1.3-.6-.6-.8-.6-1.3,0-.6.1-.9c0-.3.2-.7.4-1.2l4.9-13.1c.1-.4.3-.8.5-1.4.2-.5.4-1,.6-1.3.2-.3.5-.6.9-.8.4-.2.8-.3,1.3-.3s1,.1,1.3.3c.4.2.6.5.9.8.2.3.4.7.6,1.1.2.4.3.9.6,1.6l5,13c.4,1,.6,1.7.6,2.2s-.2.9-.6,1.3c-.4.4-.8.6-1.3.6s-.6,0-.8-.2-.4-.3-.5-.5-.3-.5-.5-.9c-.2-.4-.3-.8-.4-1.1ZM368.5,117.5h5.7l-2.9-8.3-2.8,8.3Z"/>
          <g>
            <path class="cls-5" d="M144.5,159.9l-.3-.9h-2.7l-.3.9c-.1.3-.2.6-.3.7s-.2.2-.4.2-.3,0-.4-.2-.2-.3-.2-.4,0-.2,0-.3c0-.1,0-.2.1-.4l1.7-4.5c0-.1.1-.3.2-.5,0-.2.1-.3.2-.4,0-.1.2-.2.3-.3.1,0,.3-.1.5-.1s.3,0,.5.1c.1,0,.2.2.3.3s.1.2.2.4c0,.1.1.3.2.5l1.7,4.5c.1.3.2.6.2.7s0,.3-.2.4c-.1.1-.3.2-.5.2s-.2,0-.3,0c0,0-.1,0-.2-.2,0,0-.1-.2-.2-.3,0-.1-.1-.3-.2-.4ZM141.9,158h2l-1-2.9-1,2.9Z"/>
            <path class="cls-5" d="M154.8,158.5c0,.2,0,.5-.2.7-.1.3-.3.5-.5.8-.2.2-.5.4-.8.6-.3.2-.7.2-1.2.2s-.7,0-.9-.1-.5-.2-.8-.3c-.2-.1-.4-.3-.6-.6-.2-.2-.3-.5-.4-.7s-.2-.6-.3-.9c0-.3,0-.6,0-1,0-.6,0-1.1.2-1.5.2-.4.4-.8.7-1.1.3-.3.6-.6,1-.7.4-.2.8-.2,1.2-.2s1,.1,1.4.3c.4.2.7.5,1,.8.2.3.3.6.3.9s0,.3-.2.4c-.1.1-.2.2-.4.2s-.3,0-.4-.1-.2-.2-.3-.4c-.2-.3-.4-.6-.6-.8-.2-.2-.5-.3-.9-.3-.5,0-1,.2-1.3.7-.3.4-.5,1.1-.5,1.9s0,1,.2,1.3c.1.4.3.6.6.8.3.2.6.3.9.3s.7-.1,1-.3c.3-.2.5-.5.6-.9,0-.2.1-.3.2-.4s.2-.2.4-.2.3,0,.4.2c.1.1.2.3.2.4Z"/>
            <path class="cls-5" d="M157.1,159v1.1c0,.3,0,.5-.2.6s-.3.2-.4.2-.3,0-.4-.2-.2-.3-.2-.6v-3.6c0-.6.2-.9.6-.9s.3,0,.4.2c0,.1.1.3.1.6.1-.3.3-.5.4-.6s.4-.2.6-.2.5,0,.7.2c.2.1.4.3.4.5s0,.3-.2.4c-.1.1-.2.2-.3.2s-.2,0-.3,0c-.2,0-.3,0-.5,0s-.3,0-.4.1c-.1,0-.2.2-.3.4s-.1.4-.1.7c0,.3,0,.6,0,1Z"/>
            <path class="cls-5" d="M162.7,160.1c-.3.2-.6.4-.9.5-.3.1-.6.2-.9.2s-.6,0-.8-.2c-.2-.1-.4-.3-.5-.5-.1-.2-.2-.5-.2-.7s.1-.7.3-.9c.2-.2.5-.4.9-.5,0,0,.3,0,.6-.1s.6-.1.8-.2.5-.1.7-.2c0-.3,0-.6-.2-.7-.1-.2-.4-.2-.7-.2s-.5,0-.7.1c-.2,0-.3.2-.4.4-.1.2-.2.3-.2.4,0,0-.1,0-.3,0s-.3,0-.4-.1-.1-.2-.1-.4c0-.2,0-.4.2-.7.2-.2.4-.4.7-.5.3-.1.7-.2,1.2-.2s1,0,1.3.2c.3.1.5.3.6.6.1.3.2.7.2,1.1s0,.6,0,.8c0,.2,0,.4,0,.7,0,.2,0,.5.1.8,0,.3.1.4.1.5,0,.1,0,.3-.2.4s-.3.2-.4.2-.2,0-.4-.2-.3-.3-.4-.5ZM162.7,158.2c-.2,0-.4.1-.8.2s-.6.1-.7.2c-.1,0-.3.1-.4.2-.1.1-.2.3-.2.4s0,.4.2.5c.1.1.3.2.5.2s.5,0,.7-.2c.2-.1.4-.3.4-.4.1-.2.2-.5.2-1v-.2Z"/>
            <path class="cls-5" d="M166.2,156.3v.2c.2-.3.4-.5.7-.7.3-.1.5-.2.9-.2s.6,0,.9.2c.3.1.4.4.6.6,0,.2.1.3.2.5,0,.2,0,.4,0,.7v2.4c0,.3,0,.5-.2.6-.1.1-.3.2-.4.2s-.3,0-.4-.2c-.1-.1-.2-.3-.2-.6v-2.1c0-.4,0-.7-.2-1-.1-.2-.3-.3-.7-.3s-.4,0-.6.2-.3.3-.4.6c0,.2,0,.6,0,1.1v1.6c0,.3,0,.5-.2.6s-.3.2-.4.2-.3,0-.4-.2c-.1-.1-.2-.3-.2-.6v-3.7c0-.2,0-.4.2-.5.1-.1.2-.2.4-.2s.2,0,.3,0c0,0,.2.1.2.2,0,.1,0,.2,0,.4Z"/>
            <path class="cls-5" d="M174,158.5h-2.4c0,.3,0,.6.2.8.1.2.3.4.4.5s.4.2.6.2.3,0,.4,0c.1,0,.2,0,.4-.2.1,0,.2-.2.3-.2,0,0,.2-.2.4-.4,0,0,.2,0,.3,0s.2,0,.3.1c0,0,.1.2.1.3s0,.3-.1.4c0,.2-.2.3-.4.4-.2.1-.4.3-.7.4-.3,0-.6.1-.9.1-.8,0-1.4-.2-1.8-.7-.4-.5-.7-1.1-.7-1.9s0-.7.2-1.1.3-.6.5-.8.5-.4.8-.5c.3-.1.6-.2,1-.2s.9.1,1.2.3c.3.2.6.5.8.8.2.3.3.7.3,1s0,.5-.3.6c-.2,0-.4.1-.7.1ZM171.6,157.8h2.2c0-.4-.1-.8-.3-1-.2-.2-.5-.3-.8-.3s-.6.1-.7.3c-.2.2-.3.5-.4,1Z"/>
          </g>
          <g>
            <path class="cls-5" d="M299.5,29.9l-.3-.9h-2.7l-.3.9c-.1.3-.2.6-.3.7,0,.1-.2.2-.4.2s-.3,0-.4-.2-.2-.3-.2-.4,0-.2,0-.3,0-.2.1-.4l1.7-4.5c0-.1.1-.3.2-.5s.1-.3.2-.4c0-.1.2-.2.3-.3s.3-.1.5-.1.3,0,.5.1.2.2.3.3c0,.1.1.2.2.4,0,.1.1.3.2.5l1.7,4.5c.1.3.2.6.2.7s0,.3-.2.4c-.1.1-.3.2-.5.2s-.2,0-.3,0c0,0-.1,0-.2-.2,0,0-.1-.2-.2-.3,0-.1-.1-.3-.1-.4ZM296.9,28h2l-1-2.9-1,2.9Z"/>
            <path class="cls-5" d="M308.5,24.8h-3v1.7h2.8c.2,0,.4,0,.5.1s.1.2.1.4,0,.3-.1.4-.2.1-.5.1h-2.8v2h3.1c.2,0,.4,0,.5.2.1.1.2.2.2.4s0,.3-.2.4c-.1.1-.3.2-.5.2h-3.6c-.3,0-.5,0-.6-.2s-.2-.4-.2-.7v-5.2c0-.2,0-.4,0-.5,0-.1.1-.2.3-.3s.3,0,.5,0h3.5c.2,0,.4,0,.5.1.1,0,.2.2.2.4s0,.3-.2.4c-.1,0-.3.1-.5.1Z"/>
            <path class="cls-5" d="M310.2,30v-5.6c0-.3,0-.5.2-.6.1-.1.3-.2.4-.2s.3,0,.4.2c.1.1.2.3.2.6v5.6c0,.3,0,.5-.2.6s-.3.2-.4.2-.3,0-.4-.2c-.1-.1-.2-.3-.2-.6Z"/>
            <path class="cls-5" d="M313.8,24.4v2c.2-.3.5-.4.7-.6.2-.1.5-.2.9-.2s.8.1,1.1.3c.3.2.5.5.7.9s.3.8.3,1.4,0,.7-.1,1.1-.2.6-.4.8c-.2.2-.4.4-.6.6s-.5.2-.8.2-.4,0-.5,0c-.2,0-.3-.1-.4-.2-.1,0-.2-.2-.3-.2s-.2-.2-.3-.4h0c0,.4,0,.6-.2.7-.1.1-.2.2-.4.2s-.3,0-.4-.2-.2-.3-.2-.5v-5.6c0-.3,0-.5.1-.6.1-.1.2-.2.4-.2s.3,0,.4.2.2.3.2.5ZM313.9,28.2c0,.5.1.9.3,1.2.2.3.5.4.9.4s.6-.1.8-.4.3-.7.3-1.2,0-.6-.1-.9-.2-.4-.4-.6c-.2-.1-.4-.2-.6-.2s-.4,0-.6.2c-.2.1-.3.3-.4.6-.1.3-.2.6-.2.9Z"/>
            <path class="cls-5" d="M323,28.2c0,.4,0,.7-.2,1.1s-.3.6-.5.8c-.2.2-.5.4-.8.5-.3.1-.6.2-1,.2s-.7,0-1-.2c-.3-.1-.5-.3-.8-.5s-.4-.5-.5-.8-.2-.7-.2-1.1,0-.7.2-1.1c.1-.3.3-.6.5-.8s.5-.4.8-.5c.3-.1.6-.2,1-.2s.7,0,1,.2c.3.1.6.3.8.5s.4.5.5.8c.1.3.2.7.2,1.1ZM321.8,28.2c0-.5-.1-.9-.3-1.2s-.5-.4-.9-.4-.4,0-.6.2-.3.3-.4.6c0,.3-.1.6-.1.9s0,.6.1.9.2.4.4.6c.2.1.4.2.6.2.4,0,.7-.1.9-.4s.3-.7.3-1.2Z"/>
            <path class="cls-5" d="M324.7,26.4l.8,2.9.7-2.7c0-.3.1-.5.2-.6,0-.1.1-.2.2-.3.1,0,.2-.1.4-.1s.3,0,.4.1.2.2.2.3c0,.1.1.3.2.6l.7,2.7.8-2.9c0-.2,0-.4.1-.5,0,0,0-.2.2-.2,0,0,.2-.1.3-.1s.3,0,.4.2c.1.1.2.2.2.4s0,.3-.1.6l-1,3.1c0,.3-.2.4-.2.6,0,.1-.1.2-.2.3-.1,0-.2.1-.4.1s-.3,0-.4-.1c-.1,0-.2-.2-.2-.4,0-.1-.1-.3-.2-.6l-.7-2.5-.7,2.5c0,.3-.2.6-.3.8-.1.2-.3.3-.5.3s-.2,0-.3,0c0,0-.2-.1-.2-.2s-.1-.2-.2-.4c0-.1,0-.2-.1-.3l-1-3.1c0-.3-.1-.5-.1-.6s0-.3.2-.4.2-.2.4-.2.3,0,.4.2.1.3.2.6Z"/>
          </g>
          <g>
            <path class="cls-5" d="M420.6,43.8l-.3-.9h-2.7l-.3.9c-.1.3-.2.6-.3.7,0,.1-.2.2-.4.2s-.3,0-.4-.2-.2-.3-.2-.4,0-.2,0-.3,0-.2.1-.4l1.7-4.5c0-.1.1-.3.2-.5s.1-.3.2-.4c0-.1.2-.2.3-.3s.3-.1.5-.1.3,0,.5.1.2.2.3.3c0,.1.1.2.2.4,0,.1.1.3.2.5l1.7,4.5c.1.3.2.6.2.7s0,.3-.2.4c-.1.1-.3.2-.5.2s-.2,0-.3,0c0,0-.1,0-.2-.2,0,0-.1-.2-.2-.3,0-.1-.1-.3-.1-.4ZM418,41.9h2l-1-2.9-1,2.9Z"/>
            <path class="cls-5" d="M427.8,41.9h-1.2v2c0,.3,0,.5-.2.6s-.3.2-.5.2-.4,0-.5-.2-.2-.4-.2-.6v-5.3c0-.3,0-.5.2-.7s.3-.2.6-.2h1.7c.5,0,.9,0,1.2.1.3,0,.5.2.7.4.2.2.3.4.4.7.1.3.2.6.2.9,0,.7-.2,1.2-.6,1.6-.4.4-1,.5-1.8.5ZM427.5,38.8h-.9v2.1h.9c.3,0,.6,0,.8-.1.2,0,.4-.2.5-.3.1-.2.2-.4.2-.6s0-.6-.3-.7c-.2-.2-.6-.3-1.2-.3Z"/>
            <path class="cls-5" d="M435.5,42.1c0,.4,0,.7-.2,1.1s-.3.6-.5.8c-.2.2-.5.4-.8.5-.3.1-.6.2-1,.2s-.7,0-1-.2c-.3-.1-.5-.3-.8-.5s-.4-.5-.5-.8-.2-.7-.2-1.1,0-.7.2-1.1c.1-.3.3-.6.5-.8s.5-.4.8-.5c.3-.1.6-.2,1-.2s.7,0,1,.2c.3.1.6.3.8.5s.4.5.5.8c.1.3.2.7.2,1.1ZM434.3,42.1c0-.5-.1-.9-.3-1.2s-.5-.4-.9-.4-.4,0-.6.2-.3.3-.4.6c0,.3-.1.6-.1.9s0,.6.1.9.2.4.4.6.4.2.6.2c.4,0,.7-.1.9-.4s.3-.7.3-1.2Z"/>
            <path class="cls-5" d="M440.9,43.1c0,.2,0,.3-.1.5,0,.2-.2.4-.4.5s-.4.3-.7.4c-.3.1-.6.2-1,.2-.8,0-1.3-.2-1.8-.7-.4-.5-.6-1.1-.6-1.9s0-1,.3-1.4c.2-.4.5-.7.8-.9.4-.2.8-.3,1.3-.3s.6,0,.9.1c.3,0,.5.2.7.4s.3.3.4.5c0,.2.1.3.1.5s0,.3-.2.4-.2.2-.4.2-.2,0-.3,0-.1-.1-.2-.3c-.1-.2-.3-.4-.5-.5-.2-.1-.4-.2-.6-.2-.4,0-.7.1-.9.4s-.3.7-.3,1.2,0,.5,0,.7.1.4.2.5c.1.1.2.3.4.3s.3.1.5.1.5,0,.6-.2.3-.3.5-.5c0-.1.2-.3.2-.3s.2-.1.3-.1.3,0,.4.2c.1.1.1.2.1.4Z"/>
            <path class="cls-5" d="M444.6,44.1l-1.1-1.9-.7.7v1c0,.2,0,.4-.2.6-.1.1-.3.2-.4.2s-.3,0-.4-.2c-.1-.1-.2-.3-.2-.6v-5.5c0-.3,0-.5.2-.7.1-.1.3-.2.4-.2s.3,0,.4.2.2.3.2.6v3.1l1.4-1.5c.2-.2.3-.3.4-.4,0,0,.2-.1.3-.1s.3,0,.4.2c.1.1.2.2.2.4s-.2.4-.5.8l-.6.6,1.2,2.1c0,.2.2.3.2.4,0,0,0,.2,0,.2,0,.2,0,.4-.2.5-.1.1-.2.2-.4.2s-.3,0-.3-.1c0,0-.2-.2-.3-.5Z"/>
            <path class="cls-5" d="M449.9,42.4h-2.4c0,.3,0,.6.2.8.1.2.3.4.4.5.2.1.4.2.6.2s.3,0,.4,0,.2,0,.4-.2c.1,0,.2-.2.3-.2,0,0,.2-.2.4-.4,0,0,.2,0,.3,0s.2,0,.3.1c0,0,.1.2.1.3s0,.3-.1.4c0,.2-.2.3-.4.4s-.4.3-.7.4c-.3,0-.6.1-.9.1-.8,0-1.4-.2-1.8-.7-.4-.5-.7-1.1-.7-1.9s0-.7.2-1.1.3-.6.5-.8c.2-.2.5-.4.8-.5.3-.1.6-.2,1-.2s.9.1,1.2.3.6.5.8.8.3.7.3,1,0,.5-.3.6c-.2,0-.4.1-.7.1ZM447.5,41.7h2.2c0-.4-.1-.8-.3-1-.2-.2-.5-.3-.8-.3s-.6.1-.7.3c-.2.2-.3.5-.4,1Z"/>
            <path class="cls-5" d="M452,39.6h.1v-.8c0-.2,0-.4,0-.5s0-.2,0-.3c0,0,.1-.2.2-.2s.2,0,.3,0,.3,0,.4.2c0,0,.1.2.2.3,0,.1,0,.3,0,.5v.9h.4c.2,0,.3,0,.4.1s.1.2.1.3,0,.3-.2.4c-.1,0-.3.1-.6.1h-.2v2.4c0,.2,0,.4,0,.5,0,.1,0,.2.1.3,0,0,.2.1.3.1s.2,0,.3,0,.2,0,.3,0c0,0,.2,0,.3.1s.1.2.1.3c0,.2-.1.4-.3.5s-.5.2-.9.2-.7,0-.9-.2c-.2-.1-.3-.3-.4-.6s0-.6,0-1v-2.5h-.2c-.2,0-.3,0-.4-.1,0,0-.1-.2-.1-.3s0-.2.1-.3.2-.1.4-.1Z"/>
          </g>
          <g>
            <path class="cls-5" d="M435.8,147.3l-.3-.9h-2.7l-.3.9c-.1.3-.2.6-.3.7s-.2.2-.4.2-.3,0-.4-.2-.2-.3-.2-.4,0-.2,0-.3,0-.2.1-.4l1.7-4.5c0-.1.1-.3.2-.5s.1-.3.2-.4c0-.1.2-.2.3-.3s.3-.1.5-.1.3,0,.5.1.2.2.3.3.1.2.2.4c0,.1.1.3.2.5l1.7,4.5c.1.3.2.6.2.7s0,.3-.2.4c-.1.1-.3.2-.5.2s-.2,0-.3,0c0,0-.1,0-.2-.2,0,0-.1-.2-.2-.3,0-.1-.1-.3-.1-.4ZM433.1,145.3h2l-1-2.9-1,2.9Z"/>
            <path class="cls-5" d="M441.9,147.3v-2.2l-1.6-2.6c-.1-.2-.2-.4-.3-.6,0-.1,0-.2,0-.3,0-.2,0-.3.2-.4.1-.1.3-.2.4-.2s.3,0,.4.2.2.3.4.6l1.2,2.1,1.2-2.1c0-.1.1-.2.2-.3,0,0,.1-.2.2-.2s.1-.1.2-.2c0,0,.2,0,.3,0,.2,0,.3,0,.4.2.1.1.2.2.2.4s0,.2,0,.4-.2.3-.3.5l-1.6,2.7v2.2c0,.3,0,.5-.2.6s-.3.2-.5.2-.4,0-.5-.2c-.1-.1-.2-.4-.2-.6Z"/>
            <path class="cls-5" d="M448.6,147.4c-.3.2-.6.4-.9.5-.3.1-.6.2-.9.2s-.6,0-.8-.2c-.2-.1-.4-.3-.5-.5-.1-.2-.2-.5-.2-.7s.1-.7.3-.9c.2-.2.5-.4.9-.5,0,0,.3,0,.6-.1s.6-.1.8-.2c.2,0,.5-.1.7-.2,0-.3,0-.6-.2-.7s-.4-.2-.7-.2-.5,0-.7.1c-.2,0-.3.2-.4.4-.1.2-.2.3-.2.4s-.1,0-.3,0-.3,0-.4-.1-.1-.2-.1-.4c0-.2,0-.4.2-.7s.4-.4.7-.5c.3-.1.7-.2,1.2-.2s1,0,1.3.2c.3.1.5.3.6.6s.2.7.2,1.1,0,.6,0,.8c0,.2,0,.4,0,.7,0,.2,0,.5.1.8,0,.3.1.4.1.5,0,.1,0,.3-.2.4-.1.1-.3.2-.4.2s-.2,0-.4-.2-.3-.3-.4-.5ZM448.5,145.6c-.2,0-.4.1-.8.2s-.6.1-.7.2c-.1,0-.3.1-.4.2-.1.1-.2.3-.2.4s0,.4.2.5c.1.1.3.2.5.2s.5,0,.7-.2c.2-.1.4-.3.4-.4.1-.2.2-.5.2-1v-.2h0Z"/>
            <path class="cls-5" d="M452.1,146.3v1.1c0,.3,0,.5-.2.6s-.3.2-.4.2-.3,0-.4-.2-.2-.3-.2-.6v-3.6c0-.6.2-.9.6-.9s.3,0,.4.2c0,.1.1.3.1.6.1-.3.3-.5.4-.6.2-.1.4-.2.6-.2s.5,0,.7.2c.2.1.4.3.4.5s0,.3-.2.4c-.1.1-.2.2-.3.2s-.2,0-.3,0-.3,0-.5,0-.3,0-.4.1-.2.2-.3.4-.1.4-.1.7,0,.6,0,1Z"/>
            <path class="cls-5" d="M458,147.4h0c-.2,0-.3.2-.5.4-.2.1-.3.2-.5.3-.2,0-.4,0-.6,0s-.6,0-.8-.2-.5-.3-.6-.6-.3-.5-.4-.9-.1-.7-.1-1.1c0-.8.2-1.4.6-1.9.4-.4.9-.7,1.5-.7s.6,0,.9.2c.2.1.5.3.7.6v-1.9c0-.3,0-.5.1-.6,0-.1.2-.2.4-.2s.3,0,.4.2c0,.1.1.3.1.5v5.7c0,.2,0,.4-.2.6-.1.1-.2.2-.4.2s-.3,0-.4-.2c-.1-.1-.2-.3-.2-.5ZM455.6,145.5c0,.3,0,.6.2.9.1.2.2.4.4.6s.4.2.6.2.4,0,.6-.2.3-.3.4-.5.2-.5.2-.9,0-.6-.2-.9-.2-.4-.4-.6c-.2-.1-.4-.2-.6-.2s-.4,0-.6.2c-.2.1-.3.3-.4.6s-.1.5-.1.9Z"/>
          </g>
          <g>
            <path class="cls-5" d="M410.4,330.8l-.3-.9h-2.7l-.3.9c-.1.3-.2.6-.3.7s-.2.2-.4.2-.3,0-.4-.2-.2-.3-.2-.4,0-.2,0-.3,0-.2.1-.4l1.7-4.5c0-.1.1-.3.2-.5s.1-.3.2-.5c0-.1.2-.2.3-.3s.3-.1.5-.1.3,0,.5.1.2.2.3.3c0,.1.1.2.2.4,0,.1.1.3.2.5l1.7,4.5c.1.3.2.6.2.7s0,.3-.2.4c-.1.1-.3.2-.5.2s-.2,0-.3,0c0,0-.1,0-.2-.2,0,0-.1-.2-.2-.3,0-.1-.1-.3-.1-.4ZM407.7,328.9h2l-1-2.9-1,2.9Z"/>
            <path class="cls-5" d="M416.3,325.4v5h2.7c.2,0,.4,0,.5.2s.2.2.2.4,0,.3-.2.4c-.1.1-.3.2-.5.2h-3.2c-.3,0-.5,0-.6-.2s-.2-.4-.2-.7v-5.3c0-.3,0-.5.2-.6.1-.1.3-.2.5-.2s.4,0,.5.2c.1.1.2.4.2.6Z"/>
            <path class="cls-5" d="M421.1,325.9c-.2,0-.3,0-.4-.2s-.2-.3-.2-.5,0-.3.2-.5.3-.2.4-.2.3,0,.4.2c.1.1.2.3.2.5s0,.4-.2.5c-.1.1-.3.2-.4.2ZM421.7,327.2v3.7c0,.3,0,.5-.2.6-.1.1-.3.2-.4.2s-.3,0-.4-.2c-.1-.1-.2-.3-.2-.6v-3.7c0-.3,0-.4.2-.6.1-.1.3-.2.4-.2s.3,0,.4.2.2.3.2.5Z"/>
            <path class="cls-5" d="M424.1,327.2v.2c.2-.3.4-.5.7-.7.3-.1.5-.2.9-.2s.6,0,.9.2c.3.1.4.4.6.6,0,.2.1.3.2.5s0,.4,0,.7v2.4c0,.3,0,.5-.2.6-.1.1-.3.2-.4.2s-.3,0-.4-.2c-.1-.1-.2-.3-.2-.6v-2.1c0-.4,0-.7-.2-1s-.3-.3-.7-.3-.4,0-.6.2c-.2.1-.3.3-.4.6,0,.2,0,.5,0,1.1v1.6c0,.3,0,.5-.2.6-.1.1-.3.2-.4.2s-.3,0-.4-.2c-.1-.1-.2-.3-.2-.6v-3.7c0-.2,0-.4.2-.5s.2-.2.4-.2.2,0,.3,0c0,0,.2.1.2.2,0,.1,0,.2,0,.4Z"/>
            <path class="cls-5" d="M431.5,331.2l-1.1-1.9-.7.7v1c0,.2,0,.4-.2.6-.1.1-.3.2-.4.2s-.3,0-.4-.2-.2-.3-.2-.6v-5.5c0-.3,0-.5.2-.7.1-.1.3-.2.4-.2s.3,0,.4.2.2.3.2.6v3.1l1.4-1.5c.2-.2.3-.3.4-.4,0,0,.2-.1.3-.1s.3,0,.4.2c.1.1.2.2.2.4s-.2.4-.5.8l-.6.6,1.2,2.1c0,.2.2.3.2.4,0,0,0,.2,0,.2,0,.2,0,.4-.2.5s-.2.2-.4.2-.3,0-.3-.1c0,0-.2-.2-.3-.5Z"/>
          </g>
          <g>
            <path class="cls-5" d="M340.4,421.5l-1-4.4v4.8c0,.3,0,.5-.2.6s-.3.2-.4.2-.3,0-.4-.2c-.1-.1-.2-.3-.2-.6v-5.5c0-.3,0-.5.2-.6.1-.1.4-.2.6-.2h.4c.2,0,.4,0,.5,0,.1,0,.2.1.2.3,0,.1.1.3.2.6l1,3.8,1-3.8c0-.3.1-.5.2-.6,0-.1.1-.2.2-.3.1,0,.3,0,.5,0h.4c.3,0,.5,0,.6.2s.2.3.2.6v5.5c0,.3,0,.5-.2.6s-.3.2-.4.2-.3,0-.4-.2-.2-.3-.2-.6v-4.8l-1,4.4c0,.3-.1.5-.2.6,0,.1-.1.3-.2.4-.1.1-.3.2-.5.2s-.3,0-.4-.1c-.1,0-.2-.2-.2-.3s-.1-.2-.1-.4c0-.1,0-.3-.1-.4Z"/>
            <path class="cls-5" d="M346.3,416.8c-.2,0-.3,0-.4-.2-.1-.1-.2-.3-.2-.5s0-.3.2-.5c.1-.1.3-.2.4-.2s.3,0,.4.2c.1.1.2.3.2.5s0,.4-.2.5-.3.2-.4.2ZM346.9,418.1v3.7c0,.3,0,.5-.2.6-.1.1-.3.2-.4.2s-.3,0-.4-.2c-.1-.1-.2-.3-.2-.6v-3.7c0-.3,0-.4.2-.6.1-.1.3-.2.4-.2s.3,0,.4.2c.1.1.2.3.2.5Z"/>
            <path class="cls-5" d="M351.5,421.9h0c-.2,0-.3.2-.5.4-.2.1-.3.2-.5.3s-.4,0-.6,0-.6,0-.8-.2c-.2-.1-.5-.3-.6-.6s-.3-.5-.4-.9-.1-.7-.1-1.1c0-.8.2-1.4.6-1.9.4-.4.9-.7,1.5-.7s.6,0,.9.2c.2.1.5.3.7.6v-1.9c0-.3,0-.5.1-.6s.2-.2.4-.2.3,0,.4.2.1.3.1.5v5.7c0,.2,0,.4-.2.6-.1.1-.2.2-.4.2s-.3,0-.4-.2c-.1-.1-.2-.3-.2-.5ZM349.1,420c0,.3,0,.6.2.9s.2.4.4.6.4.2.6.2.4,0,.6-.2c.2-.1.3-.3.4-.5.1-.2.2-.5.2-.9s0-.6-.2-.9c-.1-.2-.2-.4-.4-.6s-.4-.2-.6-.2-.4,0-.6.2c-.2.1-.3.3-.4.6s-.1.5-.1.9Z"/>
            <path class="cls-5" d="M360.5,416.8h-1.4v5c0,.3,0,.5-.2.6s-.3.2-.5.2-.4,0-.5-.2-.2-.4-.2-.6v-5h-1.4c-.2,0-.4,0-.5-.2-.1-.1-.2-.2-.2-.4s0-.3.2-.4c.1-.1.3-.2.5-.2h4.2c.2,0,.4,0,.5.2.1.1.2.2.2.4s0,.3-.2.4c-.1.1-.3.2-.5.2Z"/>
            <path class="cls-5" d="M365.9,420c0,.4,0,.7-.2,1.1-.1.3-.3.6-.5.8-.2.2-.5.4-.8.5-.3.1-.6.2-1,.2s-.7,0-1-.2c-.3-.1-.5-.3-.8-.5s-.4-.5-.5-.8c-.1-.3-.2-.7-.2-1.1s0-.7.2-1.1c.1-.3.3-.6.5-.8s.5-.4.8-.5.6-.2,1-.2.7,0,1,.2c.3.1.6.3.8.5s.4.5.5.8c.1.3.2.7.2,1.1ZM364.7,420c0-.5-.1-.9-.3-1.2-.2-.3-.5-.4-.9-.4s-.4,0-.6.2c-.2.1-.3.3-.4.6,0,.3-.1.6-.1.9s0,.6.1.9c0,.3.2.4.4.6.2.1.4.2.6.2.4,0,.7-.1.9-.4s.3-.7.3-1.2Z"/>
            <path class="cls-5" d="M368,418.1v.2c.2-.3.5-.5.7-.7s.5-.2.8-.2.7.1,1,.3.6.5.7.9.3.9.3,1.4,0,.8-.2,1.1c-.1.3-.3.6-.4.8s-.4.4-.7.5-.5.2-.8.2-.6,0-.9-.2c-.2-.1-.5-.4-.7-.6v1.9c0,.6-.2.8-.6.8s-.4,0-.5-.2c0-.1-.1-.4-.1-.6v-5.6c0-.2,0-.4.2-.5.1-.1.2-.2.4-.2s.3,0,.4.2c.1.1.2.3.2.5ZM370.4,420c0-.3,0-.6-.1-.9s-.2-.4-.4-.6c-.2-.1-.4-.2-.6-.2-.3,0-.6.1-.9.4-.2.3-.3.7-.3,1.2s.1.9.3,1.2c.2.3.5.4.9.4s.4,0,.6-.2.3-.3.4-.6c.1-.2.2-.5.2-.9Z"/>
          </g>
          <g>
            <path class="cls-5" d="M26.6,423.8h1.7c.4,0,.8,0,1.2.1.3,0,.6.3.9.5.7.6,1,1.6,1,2.8s0,.8-.1,1.1-.2.7-.3.9c-.1.3-.3.5-.5.7-.2.2-.4.3-.6.4-.2.1-.4.2-.7.2-.2,0-.5,0-.8,0h-1.7c-.2,0-.4,0-.5-.1s-.2-.2-.2-.3,0-.3,0-.5v-5.1c0-.3,0-.5.2-.7.1-.1.3-.2.6-.2ZM27.2,424.9v4.7h1c.2,0,.4,0,.5,0s.3,0,.4,0c.1,0,.2-.1.3-.2.4-.4.7-1.1.7-2s0-1.2-.3-1.5c-.2-.3-.4-.6-.7-.6-.3,0-.6-.1-1-.1h-.9Z"/>
            <path class="cls-5" d="M35.9,428.5h-2.4c0,.3,0,.5.2.8.1.2.3.4.4.5s.4.2.6.2.3,0,.4,0c.1,0,.2,0,.4-.2.1,0,.2-.2.3-.2,0,0,.2-.2.4-.4,0,0,.2,0,.3,0s.2,0,.3.1c0,0,.1.2.1.3s0,.3-.1.4c0,.2-.2.3-.4.4-.2.1-.4.3-.7.4-.3,0-.6.1-.9.1-.8,0-1.4-.2-1.8-.7s-.7-1.1-.7-1.9,0-.7.2-1.1.3-.6.5-.8.5-.4.8-.5c.3-.1.6-.2,1-.2s.9.1,1.2.3c.3.2.6.5.8.8s.3.7.3,1,0,.5-.3.6-.4.1-.7.1ZM33.5,427.7h2.2c0-.4-.1-.8-.3-1-.2-.2-.5-.3-.8-.3s-.6.1-.7.3c-.2.2-.3.5-.4,1Z"/>
            <path class="cls-5" d="M37.8,425.7h.3v-.4c0-.4,0-.7.1-1s.3-.4.5-.5.5-.2.9-.2c.7,0,1.1.2,1.1.6s0,.2-.1.3c0,0-.2.1-.3.1s-.1,0-.2,0-.2,0-.3,0c-.2,0-.4,0-.4.2s0,.3,0,.6v.3h.3c.5,0,.7.1.7.4s0,.3-.2.4c-.1,0-.3,0-.5,0h-.3v3.4c0,.3,0,.4-.2.6-.1.1-.3.2-.4.2s-.3,0-.4-.2-.2-.3-.2-.6v-3.4h-.3c-.2,0-.3,0-.4-.1,0,0-.1-.2-.1-.3,0-.3.2-.5.6-.5Z"/>
            <path class="cls-5" d="M44.3,428.5h-2.4c0,.3,0,.5.2.8.1.2.3.4.4.5.2.1.4.2.6.2s.3,0,.4,0c.1,0,.2,0,.4-.2s.2-.2.3-.2c0,0,.2-.2.4-.4,0,0,.2,0,.3,0s.2,0,.3.1.1.2.1.3,0,.3-.1.4c0,.2-.2.3-.4.4-.2.1-.4.3-.7.4-.3,0-.6.1-.9.1-.8,0-1.4-.2-1.8-.7s-.7-1.1-.7-1.9,0-.7.2-1.1c.1-.3.3-.6.5-.8.2-.2.5-.4.8-.5.3-.1.6-.2,1-.2s.9.1,1.2.3c.3.2.6.5.8.8.2.3.3.7.3,1s0,.5-.3.6-.4.1-.7.1ZM41.9,427.7h2.2c0-.4-.1-.8-.3-1-.2-.2-.5-.3-.8-.3s-.6.1-.7.3-.3.5-.4,1Z"/>
            <path class="cls-5" d="M47.4,426.3v.2c.2-.3.4-.5.7-.7s.5-.2.9-.2.6,0,.9.2c.3.1.4.4.6.6,0,.2.1.3.2.5,0,.2,0,.4,0,.7v2.4c0,.3,0,.5-.2.6s-.3.2-.4.2-.3,0-.4-.2c-.1-.1-.2-.3-.2-.6v-2.1c0-.4,0-.7-.2-1-.1-.2-.3-.3-.7-.3s-.4,0-.6.2c-.2.1-.3.3-.4.6,0,.2,0,.5,0,1.1v1.6c0,.3,0,.5-.2.6-.1.1-.3.2-.4.2s-.3,0-.4-.2c-.1-.1-.2-.3-.2-.6v-3.7c0-.2,0-.4.2-.5s.2-.2.4-.2.2,0,.3,0c0,0,.2.1.2.2,0,.1,0,.2,0,.4Z"/>
            <path class="cls-5" d="M55.2,430h0c-.2,0-.3.2-.5.4s-.3.2-.5.3c-.2,0-.4,0-.6,0s-.6,0-.8-.2c-.2-.1-.5-.3-.6-.6-.2-.2-.3-.5-.4-.9s-.1-.7-.1-1.1c0-.8.2-1.4.6-1.9.4-.4.9-.7,1.5-.7s.6,0,.9.2c.2.1.5.3.7.6v-1.9c0-.3,0-.5.1-.6s.2-.2.4-.2.3,0,.4.2.1.3.1.5v5.7c0,.2,0,.4-.2.6-.1.1-.2.2-.4.2s-.3,0-.4-.2c-.1-.1-.2-.3-.2-.5ZM52.8,428.2c0,.3,0,.6.2.9.1.2.2.4.4.6s.4.2.6.2.4,0,.6-.2c.2-.1.3-.3.4-.5.1-.2.2-.5.2-.9s0-.6-.2-.9c-.1-.2-.2-.4-.4-.6-.2-.1-.4-.2-.6-.2s-.4,0-.6.2c-.2.1-.3.3-.4.6s-.1.5-.1.9Z"/>
            <path class="cls-5" d="M60.9,428.5h-2.4c0,.3,0,.5.2.8.1.2.3.4.4.5.2.1.4.2.6.2s.3,0,.4,0c.1,0,.2,0,.4-.2s.2-.2.3-.2c0,0,.2-.2.4-.4,0,0,.2,0,.3,0s.2,0,.3.1.1.2.1.3,0,.3-.1.4c0,.2-.2.3-.4.4-.2.1-.4.3-.7.4-.3,0-.6.1-.9.1-.8,0-1.4-.2-1.8-.7s-.7-1.1-.7-1.9,0-.7.2-1.1c.1-.3.3-.6.5-.8.2-.2.5-.4.8-.5.3-.1.6-.2,1-.2s.9.1,1.2.3c.3.2.6.5.8.8.2.3.3.7.3,1s0,.5-.3.6-.4.1-.7.1ZM58.6,427.7h2.2c0-.4-.1-.8-.3-1-.2-.2-.5-.3-.8-.3s-.6.1-.7.3-.3.5-.4,1Z"/>
            <path class="cls-5" d="M64.2,428.9v1.1c0,.3,0,.5-.2.6-.1.1-.3.2-.4.2s-.3,0-.4-.2-.2-.3-.2-.6v-3.6c0-.6.2-.9.6-.9s.3,0,.4.2.1.3.1.6c.1-.3.3-.5.4-.6s.4-.2.6-.2.5,0,.7.2.4.3.4.5,0,.3-.2.4c-.1.1-.2.2-.3.2s-.2,0-.3,0c-.2,0-.3,0-.5,0s-.3,0-.4.1-.2.2-.3.4c0,.2-.1.4-.1.7,0,.3,0,.6,0,1Z"/>
            <path class="cls-5" d="M74.3,428.6c0,.4-.1.8-.3,1.1s-.5.6-.9.8c-.4.2-.9.3-1.4.3s-1.2-.1-1.6-.4c-.3-.2-.5-.4-.7-.7-.2-.3-.3-.6-.3-.9s0-.3.2-.4c.1-.1.3-.2.4-.2s.3,0,.4.1c0,0,.2.2.2.4,0,.2.2.4.3.6s.2.3.4.4c.2,0,.4.1.7.1s.7,0,1-.3c.2-.2.4-.4.4-.7s0-.4-.2-.6c-.1-.1-.3-.3-.5-.3s-.5-.2-.8-.2c-.5-.1-.9-.3-1.2-.4-.3-.2-.6-.4-.8-.6-.2-.3-.3-.6-.3-1s0-.7.3-1c.2-.3.5-.5.9-.7.4-.2.8-.2,1.3-.2s.7,0,1,.2c.3.1.5.2.7.4.2.2.3.4.4.5,0,.2.1.4.1.6s0,.3-.2.5c-.1.1-.3.2-.4.2s-.3,0-.3-.1-.2-.2-.3-.4c-.1-.3-.3-.5-.4-.6s-.4-.2-.8-.2-.6,0-.8.2c-.2.2-.3.4-.3.6s0,.3.1.4c0,.1.2.2.3.3s.3.1.4.2c.1,0,.3.1.6.2.4,0,.7.2,1,.3.3.1.6.2.8.4.2.2.4.4.5.6.1.2.2.5.2.9Z"/>
            <path class="cls-5" d="M76.5,426.3v.2c.2-.3.5-.5.7-.7s.5-.2.8-.2.7.1,1,.3.6.5.7.9c.2.4.3.9.3,1.4s0,.8-.2,1.1c-.1.3-.3.6-.4.8s-.4.4-.7.5c-.3.1-.5.2-.8.2s-.6,0-.9-.2c-.2-.1-.5-.4-.7-.6v1.9c0,.6-.2.8-.6.8s-.4,0-.5-.2c0-.1-.1-.4-.1-.6v-5.6c0-.2,0-.4.2-.5s.2-.2.4-.2.3,0,.4.2.2.3.2.5ZM78.9,428.1c0-.3,0-.6-.1-.9,0-.2-.2-.4-.4-.6-.2-.1-.4-.2-.6-.2-.3,0-.6.1-.9.4-.2.3-.3.7-.3,1.2s.1.9.3,1.2c.2.3.5.4.9.4s.4,0,.6-.2.3-.3.4-.6c.1-.2.2-.5.2-.9Z"/>
            <path class="cls-5" d="M84.2,430.1c-.3.2-.6.4-.9.5s-.6.2-.9.2-.6,0-.8-.2c-.2-.1-.4-.3-.5-.5-.1-.2-.2-.5-.2-.7s.1-.7.3-.9c.2-.2.5-.4.9-.5,0,0,.3,0,.6-.1.3,0,.6-.1.8-.2s.5-.1.7-.2c0-.3,0-.6-.2-.7-.1-.2-.4-.2-.7-.2s-.5,0-.7.1-.3.2-.4.4c-.1.2-.2.3-.2.4,0,0-.1,0-.3,0s-.3,0-.4-.1c-.1,0-.1-.2-.1-.4,0-.2,0-.4.2-.7s.4-.4.7-.5c.3-.1.7-.2,1.2-.2s1,0,1.3.2c.3.1.5.3.6.6.1.3.2.7.2,1.1s0,.6,0,.8c0,.2,0,.4,0,.7,0,.2,0,.5.1.8,0,.3.1.4.1.5,0,.1,0,.3-.2.4-.1.1-.3.2-.4.2s-.2,0-.4-.2-.3-.3-.4-.5ZM84.1,428.2c-.2,0-.4.1-.8.2s-.6.1-.7.2-.3.1-.4.2-.2.3-.2.4,0,.4.2.5.3.2.5.2.5,0,.7-.2c.2-.1.4-.3.4-.4.1-.2.2-.5.2-1v-.2Z"/>
            <path class="cls-5" d="M87,426.3l.8,2.9.7-2.7c0-.3.1-.5.2-.6,0-.1.1-.2.2-.3.1,0,.2-.1.4-.1s.3,0,.4.1.2.2.2.3.1.3.2.6l.7,2.7.8-2.9c0-.2,0-.4.1-.5,0,0,0-.2.2-.2s.2-.1.3-.1.3,0,.4.2c.1.1.2.2.2.4s0,.3-.1.6l-1,3.1c0,.3-.2.4-.2.6s-.1.2-.2.3-.2.1-.4.1-.3,0-.4-.1c-.1,0-.2-.2-.2-.4,0-.1-.1-.3-.2-.6l-.7-2.5-.7,2.5c0,.3-.2.6-.3.8s-.3.3-.6.3-.2,0-.3,0c0,0-.2-.1-.2-.2s-.1-.2-.2-.4c0-.1,0-.2-.1-.3l-1-3.1c0-.3-.1-.5-.1-.6s0-.3.2-.4c.1-.1.2-.2.4-.2s.3,0,.4.2c0,.1.1.3.2.6Z"/>
            <path class="cls-5" d="M94.8,426.3v.2c.2-.3.4-.5.7-.7s.5-.2.9-.2.6,0,.9.2c.3.1.4.4.6.6,0,.2.1.3.2.5,0,.2,0,.4,0,.7v2.4c0,.3,0,.5-.2.6s-.3.2-.4.2-.3,0-.4-.2c-.1-.1-.2-.3-.2-.6v-2.1c0-.4,0-.7-.2-1-.1-.2-.3-.3-.7-.3s-.4,0-.6.2c-.2.1-.3.3-.4.6,0,.2,0,.5,0,1.1v1.6c0,.3,0,.5-.2.6-.1.1-.3.2-.4.2s-.3,0-.4-.2c-.1-.1-.2-.3-.2-.6v-3.7c0-.2,0-.4.2-.5s.2-.2.4-.2.2,0,.3,0c0,0,.2.1.2.2,0,.1,0,.2,0,.4Z"/>
          </g>
          <g>
            <path class="cls-5" d="M838.3,393.3l-.3-.9h-2.7l-.3.9c-.1.3-.2.6-.3.7s-.2.2-.4.2-.3,0-.4-.2-.2-.3-.2-.4,0-.2,0-.3,0-.2.1-.4l1.7-4.5c0-.1.1-.3.2-.5s.1-.3.2-.5c0-.1.2-.2.3-.3s.3-.1.5-.1.3,0,.5.1.2.2.3.3.1.2.2.4c0,.1.1.3.2.5l1.7,4.5c.1.3.2.6.2.7s0,.3-.2.4c-.1.1-.3.2-.5.2s-.2,0-.3,0c0,0-.1,0-.2-.2,0,0-.1-.2-.2-.3,0-.1-.1-.3-.1-.4ZM835.6,391.4h2l-1-2.9-1,2.9Z"/>
            <path class="cls-5" d="M840.6,389.1h.1v-.8c0-.2,0-.4,0-.5s0-.2,0-.3c0,0,.1-.2.2-.2s.2,0,.3,0,.3,0,.4.2c0,0,.1.2.2.3,0,.1,0,.3,0,.5v.9h.4c.2,0,.3,0,.4.1s.1.2.1.3,0,.3-.2.4c-.1,0-.3.1-.6.1h-.2v2.4c0,.2,0,.4,0,.5,0,.1,0,.2.1.3,0,0,.2.1.3.1s.2,0,.3,0,.2,0,.3,0c0,0,.2,0,.3.1s.1.2.1.3c0,.2-.1.4-.3.5-.2.1-.5.2-.9.2s-.7,0-.9-.2c-.2-.1-.3-.3-.4-.6s0-.6,0-1v-2.5h-.2c-.2,0-.3,0-.4-.1,0,0-.1-.2-.1-.3s0-.2.1-.3.2-.1.4-.1Z"/>
            <path class="cls-5" d="M843.9,389.1h.1v-.8c0-.2,0-.4,0-.5s0-.2,0-.3c0,0,.1-.2.2-.2s.2,0,.3,0,.3,0,.4.2c0,0,.1.2.2.3,0,.1,0,.3,0,.5v.9h.4c.2,0,.3,0,.4.1s.1.2.1.3,0,.3-.2.4c-.1,0-.3.1-.6.1h-.2v2.4c0,.2,0,.4,0,.5,0,.1,0,.2.1.3,0,0,.2.1.3.1s.2,0,.3,0,.2,0,.3,0c0,0,.2,0,.3.1s.1.2.1.3c0,.2-.1.4-.3.5-.2.1-.5.2-.9.2s-.7,0-.9-.2c-.2-.1-.3-.3-.4-.6s0-.6,0-1v-2.5h-.2c-.2,0-.3,0-.4-.1,0,0-.1-.2-.1-.3s0-.2.1-.3.2-.1.4-.1Z"/>
            <path class="cls-5" d="M850.1,393.5c-.3.2-.6.4-.9.5-.3.1-.6.2-.9.2s-.6,0-.8-.2c-.2-.1-.4-.3-.5-.5-.1-.2-.2-.5-.2-.7s.1-.7.3-.9c.2-.2.5-.4.9-.5,0,0,.3,0,.6-.1s.6-.1.8-.2c.2,0,.5-.1.7-.2,0-.3,0-.6-.2-.7s-.4-.2-.7-.2-.5,0-.7.1c-.2,0-.3.2-.4.4-.1.2-.2.3-.2.4,0,0-.1,0-.3,0s-.3,0-.4-.1c0,0-.1-.2-.1-.4,0-.2,0-.4.2-.7s.4-.4.7-.5c.3-.1.7-.2,1.2-.2s1,0,1.3.2c.3.1.5.3.6.6s.2.7.2,1.1,0,.6,0,.8c0,.2,0,.4,0,.7,0,.2,0,.5.1.8,0,.3.1.4.1.5,0,.1,0,.3-.2.4-.1.1-.3.2-.4.2s-.2,0-.4-.2-.3-.3-.4-.5ZM850,391.6c-.2,0-.4.1-.8.2s-.6.1-.7.2-.3.1-.4.2-.2.3-.2.4,0,.4.2.5c.1.1.3.2.5.2s.5,0,.7-.2c.2-.1.4-.3.4-.4.1-.2.2-.5.2-1v-.2h0Z"/>
            <path class="cls-5" d="M856.8,392.6c0,.2,0,.3-.1.5,0,.2-.2.4-.4.5s-.4.3-.7.4c-.3.1-.6.2-1,.2-.8,0-1.3-.2-1.8-.7-.4-.5-.6-1.1-.6-1.9s0-1,.3-1.4c.2-.4.5-.7.8-.9.4-.2.8-.3,1.3-.3s.6,0,.9.1c.3,0,.5.2.7.4.2.2.3.3.4.5,0,.2.1.3.1.5s0,.3-.2.4-.2.2-.4.2-.2,0-.3,0-.1-.1-.2-.3c-.1-.2-.3-.4-.5-.5-.2-.1-.4-.2-.6-.2-.4,0-.7.1-.9.4s-.3.7-.3,1.2,0,.5,0,.7.1.4.2.5c.1.1.2.3.4.3s.3.1.5.1.5,0,.6-.2.3-.3.5-.5c0-.1.2-.3.2-.3s.2-.1.3-.1.3,0,.4.2c.1.1.1.2.1.4Z"/>
            <path class="cls-5" d="M860.6,393.6l-1.1-1.9-.7.7v1c0,.2,0,.4-.2.6-.1.1-.3.2-.4.2s-.3,0-.4-.2-.2-.3-.2-.6v-5.5c0-.3,0-.5.2-.7.1-.1.3-.2.4-.2s.3,0,.4.2.2.3.2.6v3.1l1.4-1.5c.2-.2.3-.3.4-.4,0,0,.2-.1.3-.1s.3,0,.4.2c.1.1.2.2.2.4s-.2.4-.5.8l-.6.6,1.2,2.1c0,.2.2.3.2.4,0,0,0,.2,0,.2,0,.2,0,.4-.2.5s-.2.2-.4.2-.3,0-.3-.1c0,0-.2-.2-.3-.5Z"/>
            <path class="cls-5" d="M865.9,391.9h-2.4c0,.3,0,.5.2.8.1.2.3.4.4.5.2.1.4.2.6.2s.3,0,.4,0,.2,0,.4-.2c.1,0,.2-.2.3-.2,0,0,.2-.2.4-.4,0,0,.2,0,.3,0s.2,0,.3.1c0,0,.1.2.1.3s0,.3-.1.4c0,.2-.2.3-.4.4s-.4.3-.7.4c-.3,0-.6.1-.9.1-.8,0-1.4-.2-1.8-.7-.4-.5-.7-1.1-.7-1.9s0-.7.2-1.1.3-.6.5-.8c.2-.2.5-.4.8-.5.3-.1.6-.2,1-.2s.9.1,1.2.3.6.5.8.8.3.7.3,1,0,.5-.3.6c-.2,0-.4.1-.7.1ZM863.5,391.2h2.2c0-.4-.1-.8-.3-1-.2-.2-.5-.3-.8-.3s-.6.1-.7.3c-.2.2-.3.5-.4,1Z"/>
            <path class="cls-5" d="M869.1,392.3v1.1c0,.3,0,.5-.2.6s-.3.2-.4.2-.3,0-.4-.2-.2-.3-.2-.6v-3.6c0-.6.2-.9.6-.9s.3,0,.4.2.1.3.1.6c.1-.3.3-.5.4-.6.2-.1.4-.2.6-.2s.5,0,.7.2c.2.1.4.3.4.5s0,.3-.2.4c-.1.1-.2.2-.3.2s-.2,0-.3,0-.3,0-.5,0-.3,0-.4.1-.2.2-.3.4-.1.4-.1.7,0,.6,0,1Z"/>
            <path class="cls-5" d="M879.2,392c0,.4-.1.8-.3,1.1-.2.3-.5.6-.9.8s-.9.3-1.4.3-1.2-.1-1.6-.4c-.3-.2-.5-.4-.7-.7s-.3-.6-.3-.9,0-.3.2-.4c.1-.1.3-.2.4-.2s.3,0,.4.1.2.2.2.4c0,.2.2.4.3.6,0,.1.2.3.4.4.2,0,.4.1.7.1s.7,0,1-.3.4-.4.4-.7,0-.4-.2-.6c-.1-.1-.3-.3-.5-.3-.2,0-.5-.2-.8-.2-.5-.1-.9-.3-1.2-.4s-.6-.4-.8-.6c-.2-.3-.3-.6-.3-1s0-.7.3-1c.2-.3.5-.5.9-.7s.8-.2,1.3-.2.8,0,1,.2c.3.1.5.2.7.4.2.2.3.4.4.5,0,.2.1.4.1.6s0,.3-.2.5c-.1.1-.3.2-.4.2s-.3,0-.3-.1-.2-.2-.3-.4c-.1-.3-.3-.5-.4-.6-.2-.1-.4-.2-.8-.2s-.6,0-.8.2c-.2.2-.3.4-.3.6s0,.3.1.4c0,.1.2.2.3.3s.3.1.4.2c.1,0,.3.1.6.2.4,0,.7.2,1,.3.3.1.6.2.8.4.2.2.4.4.5.6.1.2.2.5.2.9Z"/>
            <path class="cls-5" d="M881.4,389.7v.2c.2-.3.5-.5.7-.7.2-.1.5-.2.8-.2s.7.1,1,.3c.3.2.6.5.7.9s.3.9.3,1.4,0,.8-.2,1.1c-.1.3-.3.6-.4.8s-.4.4-.7.5c-.3.1-.5.2-.8.2s-.6,0-.9-.2c-.2-.1-.5-.4-.7-.7v1.9c0,.6-.2.8-.6.8s-.4,0-.5-.2c0-.1-.1-.4-.1-.6v-5.6c0-.2,0-.4.2-.5.1-.1.2-.2.4-.2s.3,0,.4.2c.1.1.2.3.2.5ZM883.8,391.5c0-.3,0-.6-.1-.9,0-.2-.2-.4-.4-.6-.2-.1-.4-.2-.6-.2-.3,0-.6.1-.9.4-.2.3-.3.7-.3,1.2s.1.9.3,1.2c.2.3.5.4.9.4s.4,0,.6-.2.3-.3.4-.6c.1-.2.2-.5.2-.9Z"/>
            <path class="cls-5" d="M889.1,393.5c-.3.2-.6.4-.9.5-.3.1-.6.2-.9.2s-.6,0-.8-.2c-.2-.1-.4-.3-.5-.5-.1-.2-.2-.5-.2-.7s.1-.7.3-.9c.2-.2.5-.4.9-.5,0,0,.3,0,.6-.1s.6-.1.8-.2c.2,0,.5-.1.7-.2,0-.3,0-.6-.2-.7s-.4-.2-.7-.2-.5,0-.7.1c-.2,0-.3.2-.4.4-.1.2-.2.3-.2.4,0,0-.1,0-.3,0s-.3,0-.4-.1c0,0-.1-.2-.1-.4,0-.2,0-.4.2-.7s.4-.4.7-.5c.3-.1.7-.2,1.2-.2s1,0,1.3.2c.3.1.5.3.6.6s.2.7.2,1.1,0,.6,0,.8c0,.2,0,.4,0,.7,0,.2,0,.5.1.8,0,.3.1.4.1.5,0,.1,0,.3-.2.4-.1.1-.3.2-.4.2s-.2,0-.4-.2-.3-.3-.4-.5ZM889,391.6c-.2,0-.4.1-.8.2s-.6.1-.7.2-.3.1-.4.2-.2.3-.2.4,0,.4.2.5c.1.1.3.2.5.2s.5,0,.7-.2c.2-.1.4-.3.4-.4.1-.2.2-.5.2-1v-.2h0Z"/>
            <path class="cls-5" d="M892,389.8l.8,2.9.7-2.7c0-.3.1-.5.2-.6,0-.1.1-.2.2-.3.1,0,.2-.1.4-.1s.3,0,.4.1.2.2.2.3c0,.1,0,.3.2.6l.7,2.7.8-2.9c0-.2,0-.4.1-.5,0,0,0-.2.2-.2,0,0,.2-.1.3-.1s.3,0,.4.2c.1.1.2.2.2.4s0,.3-.1.6l-1,3.1c0,.3-.2.4-.2.6,0,.1-.1.2-.2.3s-.2.1-.4.1-.3,0-.4-.1c-.1,0-.2-.2-.2-.4,0-.1-.1-.3-.2-.6l-.7-2.5-.7,2.5c0,.3-.2.6-.3.8-.1.2-.3.3-.5.3s-.2,0-.3,0c0,0-.2-.1-.2-.2s-.1-.2-.2-.4c0-.1,0-.2-.1-.3l-1-3.1c0-.3-.1-.5-.1-.6s0-.3.2-.4.2-.2.4-.2.3,0,.4.2c0,.1.1.3.2.6Z"/>
            <path class="cls-5" d="M899.7,389.7v.2c.2-.3.4-.5.7-.7.3-.1.5-.2.9-.2s.6,0,.9.2c.3.1.4.4.6.6,0,.2.1.3.2.5s0,.4,0,.7v2.4c0,.3,0,.5-.2.6-.1.1-.3.2-.4.2s-.3,0-.4-.2c-.1-.1-.2-.3-.2-.6v-2.1c0-.4,0-.7-.2-1s-.3-.3-.7-.3-.4,0-.6.2c-.2.1-.3.3-.4.6,0,.2,0,.5,0,1.1v1.6c0,.3,0,.5-.2.6-.1.1-.3.2-.4.2s-.3,0-.4-.2c-.1-.1-.2-.3-.2-.6v-3.7c0-.2,0-.4.2-.5s.2-.2.4-.2.2,0,.3,0c0,0,.2.1.2.2,0,.1,0,.2,0,.4Z"/>
          </g>
          <g>
            <path class="cls-5" d="M355.3,536.6h-2c-.3,0-.5,0-.6-.2s-.2-.4-.2-.7v-5.2c0-.3,0-.5.2-.7.1-.1.3-.2.6-.2h2.1c.3,0,.6,0,.8,0s.4.1.6.2c.2,0,.3.2.4.4.1.1.2.3.3.5,0,.2,0,.4,0,.6,0,.7-.3,1.2-1,1.5.9.3,1.3.9,1.3,1.7s0,.7-.3,1c-.2.3-.4.5-.8.7-.2,0-.4.2-.7.2-.3,0-.6,0-.9,0ZM353.8,530.7v1.8h1.2c.3,0,.6,0,.8,0s.3-.2.4-.4c0-.1.1-.3.1-.4,0-.3-.1-.6-.4-.7-.2-.1-.6-.2-1.1-.2h-1.1ZM355.2,533.5h-1.4v2h1.4c.9,0,1.3-.3,1.3-1s-.1-.6-.3-.8c-.2-.2-.6-.2-1-.2Z"/>
            <path class="cls-5" d="M362.7,530.4v5h2.7c.2,0,.4,0,.5.2.1.1.2.2.2.4s0,.3-.2.4c-.1.1-.3.2-.5.2h-3.2c-.3,0-.5,0-.6-.2-.1-.1-.2-.4-.2-.7v-5.3c0-.3,0-.5.2-.6.1-.1.3-.2.5-.2s.4,0,.5.2.2.4.2.6Z"/>
            <path class="cls-5" d="M367.4,530.9c-.2,0-.3,0-.4-.2-.1-.1-.2-.3-.2-.5s0-.3.2-.5c.1-.1.3-.2.4-.2s.3,0,.4.2c.1.1.2.3.2.5s0,.4-.2.5-.3.2-.4.2ZM368,532.2v3.7c0,.3,0,.5-.2.6-.1.1-.3.2-.4.2s-.3,0-.4-.2c-.1-.1-.2-.3-.2-.6v-3.7c0-.3,0-.4.2-.6.1-.1.3-.2.4-.2s.3,0,.4.2c.1.1.2.3.2.5Z"/>
            <path class="cls-5" d="M370.4,532.2v.2c.2-.3.4-.5.7-.7.3-.1.5-.2.9-.2s.6,0,.9.2c.3.1.4.4.6.6,0,.2.1.3.2.5,0,.2,0,.4,0,.7v2.4c0,.3,0,.5-.2.6-.1.1-.3.2-.4.2s-.3,0-.4-.2c-.1-.1-.2-.3-.2-.6v-2.1c0-.4,0-.7-.2-1s-.3-.3-.7-.3-.4,0-.6.2c-.2.1-.3.3-.4.6,0,.2,0,.5,0,1.1v1.6c0,.3,0,.5-.2.6-.1.1-.3.2-.4.2s-.3,0-.4-.2c-.1-.1-.2-.3-.2-.6v-3.7c0-.2,0-.4.2-.5s.2-.2.4-.2.2,0,.3,0c0,0,.2.1.2.2,0,.1,0,.2,0,.4Z"/>
            <path class="cls-5" d="M377.9,536.1l-1.1-1.9-.7.7v1c0,.2,0,.4-.2.6s-.3.2-.4.2-.3,0-.4-.2-.2-.3-.2-.6v-5.5c0-.3,0-.5.2-.7s.3-.2.4-.2.3,0,.4.2c.1.1.2.3.2.6v3.1l1.4-1.5c.2-.2.3-.3.4-.4,0,0,.2-.1.3-.1s.3,0,.4.2c.1.1.2.2.2.4s-.2.4-.5.8l-.6.6,1.2,2.1c0,.2.2.3.2.4s0,.2,0,.2c0,.2,0,.4-.2.5s-.2.2-.4.2-.3,0-.3-.1c0,0-.2-.2-.3-.5Z"/>
          </g>
          <g>
            <path class="cls-5" d="M259.5,658.6h-2c-.3,0-.5,0-.6-.2s-.2-.4-.2-.7v-5.2c0-.3,0-.5.2-.7.1-.1.3-.2.6-.2h2.1c.3,0,.6,0,.8,0s.4.1.6.2c.2,0,.3.2.4.4.1.1.2.3.3.5,0,.2,0,.4,0,.6,0,.7-.3,1.2-1,1.5.9.3,1.3.9,1.3,1.7s0,.7-.3,1c-.2.3-.4.5-.8.7-.2,0-.4.1-.7.2-.3,0-.6,0-.9,0ZM258,652.7v1.8h1.2c.3,0,.6,0,.8,0,.2,0,.3-.2.4-.4,0-.1.1-.3.1-.4,0-.3-.1-.6-.4-.7-.2-.1-.6-.2-1.1-.2h-1.1ZM259.4,655.5h-1.4v2h1.4c.9,0,1.3-.3,1.3-1s-.1-.6-.3-.8c-.2-.2-.6-.2-1-.2Z"/>
            <path class="cls-5" d="M269.8,652.8h-1.4v5c0,.3,0,.5-.2.6-.1.1-.3.2-.5.2s-.4,0-.5-.2-.2-.4-.2-.6v-5h-1.4c-.2,0-.4,0-.5-.2-.1-.1-.2-.2-.2-.4s0-.3.2-.4c.1-.1.3-.2.5-.2h4.2c.2,0,.4,0,.5.2.1.1.2.2.2.4s0,.3-.2.4c-.1.1-.3.2-.5.2Z"/>
            <path class="cls-5" d="M275.2,656.1c0,.4,0,.7-.2,1.1s-.3.6-.5.8-.5.4-.8.5c-.3.1-.6.2-1,.2s-.7,0-1-.2c-.3-.1-.5-.3-.8-.5-.2-.2-.4-.5-.5-.8s-.2-.7-.2-1.1,0-.7.2-1.1c.1-.3.3-.6.5-.8s.5-.4.8-.5c.3-.1.6-.2,1-.2s.7,0,1,.2.6.3.8.5.4.5.5.8c.1.3.2.7.2,1.1ZM273.9,656.1c0-.5-.1-.9-.3-1.2s-.5-.4-.9-.4-.4,0-.6.2c-.2.1-.3.3-.4.6,0,.3-.1.6-.1.9s0,.6.1.9c0,.3.2.4.4.6.2.1.4.2.6.2.4,0,.7-.1.9-.4s.3-.7.3-1.2Z"/>
            <path class="cls-5" d="M276.9,654.3l.8,2.9.7-2.7c0-.3.1-.5.2-.6,0-.1.1-.2.2-.3s.2-.1.4-.1.3,0,.4.1.2.2.2.3c0,.1.1.3.2.6l.7,2.7.8-2.9c0-.2,0-.4.1-.5,0,0,0-.2.2-.2,0,0,.2-.1.3-.1s.3,0,.4.2c.1.1.2.2.2.4s0,.3-.1.6l-1,3.1c0,.3-.2.4-.2.6,0,.1-.1.2-.2.3-.1,0-.2.1-.4.1s-.3,0-.4-.1c-.1,0-.2-.2-.2-.4,0-.1-.1-.3-.2-.6l-.7-2.5-.7,2.5c0,.3-.2.6-.3.8-.1.2-.3.3-.5.3s-.2,0-.3,0-.2-.1-.2-.2c0-.1-.1-.2-.2-.4,0-.1,0-.3-.1-.3l-1-3.1c0-.3-.1-.5-.1-.6s0-.3.2-.4c.1-.1.2-.2.4-.2s.3,0,.4.2c0,.1.1.3.2.6Z"/>
            <path class="cls-5" d="M286.8,656.4h-2.4c0,.3,0,.5.2.8.1.2.3.4.4.5.2.1.4.2.6.2s.3,0,.4,0,.2,0,.4-.2c.1,0,.2-.2.3-.2s.2-.2.4-.4c0,0,.2,0,.3,0s.2,0,.3.1c0,0,.1.2.1.3s0,.3-.1.4c0,.2-.2.3-.4.4-.2.1-.4.3-.7.4-.3,0-.6.1-.9.1-.8,0-1.4-.2-1.8-.7-.4-.5-.7-1.1-.7-1.9s0-.7.2-1.1c.1-.3.3-.6.5-.8.2-.2.5-.4.8-.5s.6-.2,1-.2.9.1,1.2.3.6.5.8.8c.2.3.3.7.3,1s0,.5-.3.6c-.2,0-.4.1-.7.1ZM284.5,655.7h2.2c0-.4-.1-.8-.3-1-.2-.2-.5-.3-.8-.3s-.6.1-.7.3c-.2.2-.3.5-.4,1Z"/>
            <path class="cls-5" d="M290.1,656.8v1.1c0,.3,0,.5-.2.6-.1.1-.3.2-.4.2s-.3,0-.4-.2-.2-.3-.2-.6v-3.6c0-.6.2-.9.6-.9s.3,0,.4.2c0,.1.1.3.1.6.1-.3.3-.5.4-.6.2-.1.4-.2.6-.2s.5,0,.7.2c.2.1.4.3.4.5s0,.3-.2.4c-.1.1-.2.2-.3.2s-.2,0-.3,0c-.2,0-.3,0-.5,0s-.3,0-.4.1c-.1,0-.2.2-.3.4,0,.2-.1.4-.1.7s0,.6,0,1Z"/>
          </g>
          <g>
            <path class="cls-5" d="M273.2,800h-2c-.3,0-.5,0-.6-.2-.1-.1-.2-.4-.2-.7v-5.2c0-.3,0-.5.2-.7s.3-.2.6-.2h2.1c.3,0,.6,0,.8,0s.4.1.6.2c.2,0,.3.2.4.4.1.1.2.3.3.5,0,.2,0,.4,0,.6,0,.7-.3,1.2-1,1.5.9.3,1.3.9,1.3,1.7s0,.7-.3,1-.4.5-.8.7c-.2,0-.4.2-.7.2-.3,0-.6,0-.9,0ZM271.8,794.1v1.8h1.2c.3,0,.6,0,.8,0,.2,0,.3-.2.4-.4,0-.1.1-.3.1-.4,0-.3-.1-.6-.4-.7-.2-.1-.6-.2-1.1-.2h-1.1ZM273.1,796.9h-1.4v2h1.4c.9,0,1.3-.3,1.3-1s-.1-.6-.3-.8-.6-.2-1-.2Z"/>
            <path class="cls-5" d="M283.6,794.2h-3v1.7h2.8c.2,0,.4,0,.5.1s.1.2.1.4,0,.3-.1.4c0,0-.2.1-.5.1h-2.8v2h3.1c.2,0,.4,0,.5.2.1.1.2.2.2.4s0,.3-.2.4c-.1.1-.3.2-.5.2h-3.6c-.3,0-.5,0-.6-.2-.1-.1-.2-.4-.2-.7v-5.2c0-.2,0-.4,0-.5s.1-.2.3-.3c.1,0,.3,0,.5,0h3.5c.2,0,.4,0,.5.1s.2.2.2.4,0,.3-.2.4c-.1,0-.3.1-.5.1Z"/>
            <path class="cls-5" d="M285.3,799.3v-5.6c0-.3,0-.5.2-.6.1-.1.3-.2.4-.2s.3,0,.4.2c.1.1.2.3.2.6v5.6c0,.3,0,.5-.2.6-.1.1-.3.2-.4.2s-.3,0-.4-.2c-.1-.1-.2-.3-.2-.6Z"/>
            <path class="cls-5" d="M288.9,793.7v2c.2-.3.5-.4.7-.6s.5-.2.9-.2.8.1,1.1.3c.3.2.5.5.7.9s.3.8.3,1.4,0,.7-.1,1.1-.2.6-.4.8-.4.4-.6.6c-.3.1-.5.2-.8.2s-.4,0-.5,0c-.2,0-.3-.1-.4-.2s-.2-.2-.3-.2-.2-.2-.3-.4h0c0,.4,0,.6-.2.7s-.2.2-.4.2-.3,0-.4-.2-.2-.3-.2-.5v-5.6c0-.3,0-.5.1-.6.1-.1.2-.2.4-.2s.3,0,.4.2c.1.1.2.3.2.5ZM289,797.5c0,.5.1.9.3,1.2s.5.4.9.4.6-.1.8-.4.3-.7.3-1.2,0-.6-.1-.9c0-.2-.2-.4-.4-.6-.2-.1-.4-.2-.6-.2s-.4,0-.6.2c-.2.1-.3.3-.4.6-.1.3-.2.6-.2.9Z"/>
            <path class="cls-5" d="M298.1,797.5c0,.4,0,.7-.2,1.1-.1.3-.3.6-.5.8-.2.2-.5.4-.8.5s-.6.2-1,.2-.7,0-1-.2c-.3-.1-.5-.3-.8-.5s-.4-.5-.5-.8c-.1-.3-.2-.7-.2-1.1s0-.7.2-1.1c.1-.3.3-.6.5-.8.2-.2.5-.4.8-.5s.6-.2,1-.2.7,0,1,.2c.3.1.6.3.8.5s.4.5.5.8c.1.3.2.7.2,1.1ZM296.9,797.5c0-.5-.1-.9-.3-1.2-.2-.3-.5-.4-.9-.4s-.4,0-.6.2c-.2.1-.3.3-.4.6,0,.3-.1.6-.1.9s0,.6.1.9c0,.3.2.4.4.6.2.1.4.2.6.2.4,0,.7-.1.9-.4s.3-.7.3-1.2Z"/>
            <path class="cls-5" d="M299.8,795.7l.8,2.9.7-2.7c0-.3.1-.5.2-.6s.1-.2.2-.3.2-.1.4-.1.3,0,.4.1.2.2.2.3c0,.1.1.3.2.6l.7,2.7.8-2.9c0-.2,0-.4.1-.5,0,0,0-.2.2-.2,0,0,.2-.1.3-.1s.3,0,.4.2c.1.1.2.2.2.4s0,.3-.1.6l-1,3.1c0,.3-.2.4-.2.6,0,.1-.1.2-.2.3-.1,0-.2.1-.4.1s-.3,0-.4-.1-.2-.2-.2-.4c0-.1-.1-.3-.2-.6l-.7-2.5-.7,2.5c0,.3-.2.6-.3.8-.1.2-.3.3-.5.3s-.2,0-.3,0c0,0-.2-.1-.2-.2s-.1-.2-.2-.4c0-.1,0-.2-.1-.3l-1-3.1c0-.3-.1-.5-.1-.6s0-.3.2-.4c.1-.1.2-.2.4-.2s.3,0,.4.2.1.3.2.6Z"/>
          </g>
          <g>
            <path class="cls-5" d="M134.5,741.8h-2c-.3,0-.5,0-.6-.2-.1-.1-.2-.4-.2-.7v-5.2c0-.3,0-.5.2-.7.1-.1.3-.2.6-.2h2.1c.3,0,.6,0,.8,0,.2,0,.4.1.6.2.2,0,.3.2.4.4s.2.3.3.5c0,.2,0,.4,0,.6,0,.7-.3,1.2-1,1.5.9.3,1.3.9,1.3,1.7s0,.7-.3,1-.4.5-.8.7c-.2,0-.4.1-.7.2s-.6,0-.9,0ZM133,735.9v1.8h1.2c.3,0,.6,0,.8,0,.2,0,.3-.2.4-.4,0-.1.1-.3.1-.4,0-.3-.1-.6-.4-.7-.2-.1-.6-.2-1.1-.2h-1.1ZM134.4,738.7h-1.4v2h1.4c.9,0,1.3-.3,1.3-1s-.1-.6-.3-.8c-.2-.2-.6-.2-1-.2Z"/>
            <path class="cls-5" d="M144.7,741l-.3-.9h-2.7l-.3.9c-.1.3-.2.6-.3.7,0,.1-.2.2-.4.2s-.3,0-.4-.2c-.1-.1-.2-.3-.2-.4s0-.2,0-.3c0-.1,0-.2.1-.4l1.7-4.5c0-.1.1-.3.2-.5s.1-.3.2-.5c0-.1.2-.2.3-.3.1,0,.3-.1.5-.1s.3,0,.5.1c.1,0,.2.2.3.3s.1.2.2.4.1.3.2.5l1.7,4.5c.1.3.2.6.2.7s0,.3-.2.4c-.1.1-.3.2-.5.2s-.2,0-.3,0-.1,0-.2-.2-.1-.2-.2-.3c0-.1-.1-.3-.2-.4ZM142.1,739.1h2l-1-2.9-1,2.9Z"/>
            <path class="cls-5" d="M148.3,740v1.1c0,.3,0,.5-.2.6-.1.1-.3.2-.4.2s-.3,0-.4-.2c-.1-.1-.2-.3-.2-.6v-3.6c0-.6.2-.9.6-.9s.3,0,.4.2c0,.1.1.3.1.6.1-.3.3-.5.4-.6.2-.1.4-.2.6-.2s.5,0,.7.2c.2.1.4.3.4.5s0,.3-.2.4c-.1.1-.2.2-.3.2s-.2,0-.3,0c-.2,0-.3,0-.5,0s-.3,0-.4.1c-.1,0-.2.2-.3.4,0,.2-.1.4-.1.7,0,.3,0,.6,0,1Z"/>
            <path class="cls-5" d="M155.2,740.3c0,.2,0,.3-.1.5,0,.2-.2.4-.4.5-.2.2-.4.3-.7.4s-.6.2-1,.2c-.8,0-1.3-.2-1.8-.7-.4-.5-.6-1.1-.6-1.9s0-1,.3-1.4c.2-.4.5-.7.8-.9.4-.2.8-.3,1.3-.3s.6,0,.9.1c.3,0,.5.2.7.4.2.2.3.3.4.5,0,.2.1.3.1.5s0,.3-.2.4c-.1.1-.2.2-.4.2s-.2,0-.3,0c0,0-.1-.1-.2-.3-.1-.2-.3-.4-.5-.5-.2-.1-.4-.2-.6-.2-.4,0-.6.1-.9.4-.2.3-.3.7-.3,1.2s0,.5,0,.7c0,.2.1.4.2.5.1.1.2.3.4.3.2,0,.3.1.5.1s.5,0,.6-.2c.2-.1.3-.3.5-.5,0-.1.2-.3.2-.3,0,0,.2-.1.3-.1s.3,0,.4.2c.1.1.1.2.1.4Z"/>
            <path class="cls-5" d="M157.2,735.5v1.9c.2-.2.3-.3.5-.4.1-.1.3-.2.5-.2.2,0,.4,0,.6,0,.3,0,.6,0,.8.2.2.1.4.3.6.6,0,.2.1.3.2.5,0,.2,0,.4,0,.7v2.5c0,.3,0,.5-.2.6s-.3.2-.4.2c-.4,0-.6-.3-.6-.8v-2.2c0-.4,0-.7-.2-1-.1-.2-.3-.3-.7-.3s-.4,0-.6.2c-.2.1-.3.3-.4.5,0,.2,0,.5,0,1v1.7c0,.3,0,.4-.2.6-.1.1-.3.2-.5.2-.4,0-.6-.3-.6-.8v-5.6c0-.3,0-.5.2-.6.1-.1.3-.2.4-.2s.3,0,.5.2c.1.1.2.3.2.6Z"/>
          </g>
          <g>
            <path class="cls-5" d="M487.9,734.8h-2c-.3,0-.5,0-.6-.2s-.2-.4-.2-.7v-5.2c0-.3,0-.5.2-.7.1-.1.3-.2.6-.2h2.1c.3,0,.6,0,.8,0s.4.1.6.2c.2,0,.3.2.4.4s.2.3.3.5c0,.2,0,.4,0,.6,0,.7-.3,1.2-1,1.5.9.3,1.3.9,1.3,1.7s0,.7-.3,1c-.2.3-.4.5-.8.7-.2,0-.4.2-.7.2-.3,0-.6,0-.9,0ZM486.4,728.9v1.8h1.2c.3,0,.6,0,.8,0s.3-.2.4-.4c0-.1.1-.3.1-.4,0-.3-.1-.6-.4-.7-.2-.1-.6-.2-1.1-.2h-1.1ZM487.8,731.7h-1.4v2h1.4c.9,0,1.3-.3,1.3-1s-.1-.6-.3-.8c-.2-.2-.6-.2-1-.2Z"/>
            <path class="cls-5" d="M496.1,733.7l-1-4.4v4.8c0,.3,0,.5-.2.6s-.3.2-.4.2-.3,0-.4-.2c-.1-.1-.2-.3-.2-.6v-5.5c0-.3,0-.5.2-.6.1-.1.3-.2.6-.2h.4c.2,0,.4,0,.5,0,.1,0,.2.1.2.3s.1.3.2.6l1,3.8,1-3.8c0-.3.1-.5.2-.6,0-.1.1-.2.2-.3.1,0,.3,0,.5,0h.4c.3,0,.5,0,.6.2s.2.3.2.6v5.5c0,.3,0,.5-.2.6-.1.1-.3.2-.4.2s-.3,0-.4-.2-.2-.3-.2-.6v-4.8l-1,4.4c0,.3-.1.5-.2.6,0,.1-.1.3-.2.4-.1.1-.3.2-.5.2s-.3,0-.4-.1-.2-.2-.2-.3c0-.1-.1-.2-.1-.4,0-.1,0-.3-.1-.4Z"/>
            <path class="cls-5" d="M504.5,734.1c-.3.2-.6.4-.9.5-.3.1-.6.2-.9.2s-.6,0-.8-.2c-.2-.1-.4-.3-.5-.5s-.2-.5-.2-.7.1-.7.3-.9.5-.4.9-.5c0,0,.3,0,.6-.1.3,0,.6-.1.8-.2s.5-.1.7-.2c0-.3,0-.6-.2-.7-.1-.2-.4-.2-.7-.2s-.5,0-.7.1c-.2,0-.3.2-.4.4-.1.2-.2.3-.2.4,0,0-.1,0-.3,0s-.3,0-.4-.1c0,0-.1-.2-.1-.4,0-.2,0-.4.2-.7.2-.2.4-.4.7-.5.3-.1.7-.2,1.2-.2s1,0,1.3.2c.3.1.5.3.6.6s.2.7.2,1.2,0,.6,0,.8,0,.4,0,.7c0,.2,0,.5.1.8,0,.3.1.4.1.5,0,.1,0,.3-.2.4-.1.1-.3.2-.4.2s-.2,0-.4-.2-.3-.3-.4-.5ZM504.5,732.3c-.2,0-.4.1-.8.2s-.6.1-.7.2c-.1,0-.3.1-.4.2-.1.1-.2.3-.2.4s0,.4.2.5c.1.1.3.2.5.2s.5,0,.7-.2c.2-.1.4-.3.4-.4.1-.2.2-.5.2-1v-.2h0Z"/>
            <path class="cls-5" d="M507.5,729c-.2,0-.3,0-.4-.2s-.2-.3-.2-.5,0-.3.2-.5.3-.2.4-.2.3,0,.4.2c.1.1.2.3.2.5s0,.4-.2.5-.3.2-.4.2ZM508.1,730.4v3.7c0,.3,0,.5-.2.6-.1.1-.3.2-.4.2s-.3,0-.4-.2c-.1-.1-.2-.3-.2-.6v-3.7c0-.3,0-.4.2-.6.1-.1.3-.2.4-.2s.3,0,.4.2c.1.1.2.3.2.5Z"/>
            <path class="cls-5" d="M510.5,730.4v.2c.2-.3.4-.5.7-.7.3-.1.5-.2.9-.2s.6,0,.9.2c.3.1.4.4.6.6,0,.2.1.3.2.5,0,.2,0,.4,0,.7v2.4c0,.3,0,.5-.2.6-.1.1-.3.2-.4.2s-.3,0-.4-.2c-.1-.1-.2-.3-.2-.6v-2.1c0-.4,0-.7-.2-1s-.3-.3-.7-.3-.4,0-.6.2c-.2.1-.3.3-.4.6,0,.2,0,.5,0,1.1v1.6c0,.3,0,.5-.2.6-.1.1-.3.2-.4.2s-.3,0-.4-.2c-.1-.1-.2-.3-.2-.6v-3.7c0-.2,0-.4.2-.5s.2-.2.4-.2.2,0,.3,0c0,0,.2.1.2.2,0,.1,0,.2,0,.4Z"/>
          </g>
          <g>
            <path class="cls-5" d="M628.8,641.3h-2c-.3,0-.5,0-.6-.2s-.2-.4-.2-.7v-5.2c0-.3,0-.5.2-.7.1-.1.3-.2.6-.2h2.1c.3,0,.6,0,.8,0s.4.1.6.2c.2,0,.3.2.4.4s.2.3.3.5c0,.2,0,.4,0,.6,0,.7-.3,1.2-1,1.5.9.3,1.3.9,1.3,1.7s0,.7-.3,1-.4.5-.8.7c-.2,0-.4.1-.7.2-.3,0-.6,0-.9,0ZM627.3,635.5v1.8h1.2c.3,0,.6,0,.8,0,.2,0,.3-.2.4-.4,0-.1.1-.3.1-.4,0-.3-.1-.6-.4-.7-.2-.1-.6-.2-1.1-.2h-1.1ZM628.7,638.3h-1.4v2h1.4c.9,0,1.3-.3,1.3-1s-.1-.6-.3-.8c-.2-.2-.6-.2-1-.2Z"/>
            <path class="cls-5" d="M636.2,635.1v5h2.7c.2,0,.4,0,.5.2.1.1.2.2.2.4s0,.3-.2.4c-.1.1-.3.2-.5.2h-3.2c-.3,0-.5,0-.6-.2-.1-.1-.2-.4-.2-.7v-5.3c0-.3,0-.5.2-.6s.3-.2.5-.2.4,0,.5.2c.1.1.2.4.2.6Z"/>
            <path class="cls-5" d="M644.9,638.8c0,.4,0,.7-.2,1.1s-.3.6-.5.8-.5.4-.8.5c-.3.1-.6.2-1,.2s-.7,0-1-.2c-.3-.1-.5-.3-.8-.5-.2-.2-.4-.5-.5-.8s-.2-.7-.2-1.1,0-.7.2-1.1c.1-.3.3-.6.5-.8s.5-.4.8-.5c.3-.1.6-.2,1-.2s.7,0,1,.2.6.3.8.5.4.5.5.8c.1.3.2.7.2,1.1ZM643.6,638.8c0-.5-.1-.9-.3-1.2s-.5-.4-.9-.4-.4,0-.6.2c-.2.1-.3.3-.4.6,0,.3-.1.6-.1.9s0,.6.1.9c0,.3.2.4.4.6.2.1.4.2.6.2.4,0,.7-.1.9-.4s.3-.7.3-1.2Z"/>
            <path class="cls-5" d="M646.9,635v2c.2-.3.5-.4.7-.6.2-.1.5-.2.9-.2s.8.1,1.1.3c.3.2.5.5.7.9.2.4.3.8.3,1.4s0,.7-.1,1.1-.2.6-.4.8c-.2.2-.4.4-.6.6-.3.1-.5.2-.8.2s-.4,0-.5,0-.3-.1-.4-.2c-.1,0-.2-.2-.3-.2,0,0-.2-.2-.3-.4h0c0,.4,0,.6-.2.7-.1.1-.2.2-.4.2s-.3,0-.4-.2-.2-.3-.2-.5v-5.6c0-.3,0-.5.1-.6s.2-.2.4-.2.3,0,.4.2c.1.1.2.3.2.5ZM647,638.8c0,.5.1.9.3,1.2s.5.4.9.4.6-.1.8-.4.3-.7.3-1.2,0-.6-.1-.9-.2-.4-.4-.6c-.2-.1-.4-.2-.6-.2s-.4,0-.6.2-.3.3-.4.6c-.1.3-.2.6-.2.9Z"/>
            <path class="cls-5" d="M652.5,635v2c.2-.3.5-.4.7-.6.2-.1.5-.2.9-.2s.8.1,1.1.3c.3.2.5.5.7.9.2.4.3.8.3,1.4s0,.7-.1,1.1-.2.6-.4.8c-.2.2-.4.4-.6.6-.3.1-.5.2-.8.2s-.4,0-.5,0-.3-.1-.4-.2c-.1,0-.2-.2-.3-.2,0,0-.2-.2-.3-.4h0c0,.4,0,.6-.2.7-.1.1-.2.2-.4.2s-.3,0-.4-.2-.2-.3-.2-.5v-5.6c0-.3,0-.5.1-.6s.2-.2.4-.2.3,0,.4.2c.1.1.2.3.2.5ZM652.6,638.8c0,.5.1.9.3,1.2s.5.4.9.4.6-.1.8-.4.3-.7.3-1.2,0-.6-.1-.9-.2-.4-.4-.6c-.2-.1-.4-.2-.6-.2s-.4,0-.6.2-.3.3-.4.6c-.1.3-.2.6-.2.9Z"/>
            <path class="cls-5" d="M658.1,641.6v-.3c.1,0-1.4-4-1.4-4,0-.2-.1-.4-.1-.5s0-.2,0-.3c0,0,.1-.2.2-.2s.2,0,.3,0c.2,0,.3,0,.4.2s.2.3.2.5l1,3.2,1-2.9c0-.2.1-.4.2-.6,0-.1.1-.2.2-.3,0,0,.2,0,.3,0s.2,0,.3,0c0,0,.2.1.2.2,0,0,0,.2,0,.3,0,0,0,.1,0,.3s0,.2,0,.3l-1.6,4.4c-.1.4-.3.7-.4.9-.1.2-.3.4-.5.5-.2.1-.5.2-.9.2s-.6,0-.8-.1-.3-.2-.3-.4,0-.3.1-.3c0,0,.2-.1.4-.1s.1,0,.2,0c0,0,.1,0,.2,0,.1,0,.2,0,.3,0,0,0,.2-.1.2-.2s.1-.3.2-.5Z"/>
          </g>
          <g>
            <path class="cls-5" d="M634.9,411.6l-1-4.4v4.8c0,.3,0,.5-.2.6s-.3.2-.4.2-.3,0-.4-.2c-.1-.1-.2-.3-.2-.6v-5.5c0-.3,0-.5.2-.6.1-.1.3-.2.6-.2h.4c.2,0,.4,0,.5,0,.1,0,.2.1.2.3s.1.3.2.6l1,3.8,1-3.8c0-.3.1-.5.2-.6,0-.1.1-.2.2-.3s.3,0,.5,0h.4c.3,0,.5,0,.6.2s.2.3.2.6v5.5c0,.3,0,.5-.2.6-.1.1-.3.2-.4.2s-.3,0-.4-.2-.2-.3-.2-.6v-4.8l-1,4.4c0,.3-.1.5-.2.6,0,.1-.1.3-.2.4-.1.1-.3.2-.5.2s-.3,0-.4-.1c-.1,0-.2-.2-.2-.3,0-.1-.1-.2-.1-.4s0-.3-.1-.4Z"/>
            <path class="cls-5" d="M640.9,406.9c-.2,0-.3,0-.4-.2s-.2-.3-.2-.5,0-.3.2-.5.3-.2.4-.2.3,0,.4.2c.1.1.2.3.2.5s0,.4-.2.5c-.1.1-.3.2-.4.2ZM641.5,408.2v3.7c0,.3,0,.5-.2.6s-.3.2-.4.2-.3,0-.4-.2c-.1-.1-.2-.3-.2-.6v-3.7c0-.3,0-.4.2-.6.1-.1.3-.2.4-.2s.3,0,.4.2.2.3.2.5Z"/>
            <path class="cls-5" d="M646.1,412h0c-.2,0-.3.2-.5.4-.2.1-.3.2-.5.3-.2,0-.4,0-.6,0s-.6,0-.8-.2c-.2-.1-.5-.3-.6-.6-.2-.2-.3-.5-.4-.9s-.1-.7-.1-1.1c0-.8.2-1.4.6-1.9s.9-.7,1.5-.7.6,0,.9.2c.2.1.5.3.7.6v-1.9c0-.3,0-.5.1-.6,0-.1.2-.2.4-.2s.3,0,.4.2c0,.1.1.3.1.5v5.7c0,.2,0,.4-.2.6-.1.1-.2.2-.4.2s-.3,0-.4-.2c-.1-.1-.2-.3-.2-.5ZM643.7,410.1c0,.3,0,.6.2.9.1.2.2.4.4.6s.4.2.6.2.4,0,.6-.2.3-.3.4-.5.2-.5.2-.9,0-.6-.2-.9-.2-.4-.4-.6c-.2-.1-.4-.2-.6-.2s-.4,0-.6.2c-.2.1-.3.3-.4.6s-.1.5-.1.9Z"/>
            <path class="cls-5" d="M653.6,412.6h-2c-.3,0-.5,0-.6-.2s-.2-.4-.2-.7v-5.2c0-.3,0-.5.2-.7.1-.1.3-.2.6-.2h2.1c.3,0,.6,0,.8,0,.2,0,.4.1.6.2.2,0,.3.2.4.4s.2.3.3.5,0,.4,0,.6c0,.7-.3,1.2-1,1.5.9.3,1.3.9,1.3,1.7s0,.7-.3,1c-.2.3-.4.5-.8.7-.2,0-.4.1-.7.2-.3,0-.6,0-.9,0ZM652.1,406.7v1.8h1.2c.3,0,.6,0,.8,0s.3-.2.4-.4c0-.1.1-.3.1-.4,0-.3-.1-.6-.4-.7-.2-.1-.6-.2-1.1-.2h-1.1ZM653.5,409.5h-1.4v2h1.4c.9,0,1.3-.3,1.3-1s-.1-.6-.3-.8c-.2-.2-.6-.2-1-.2Z"/>
            <path class="cls-5" d="M661.9,410.1c0,.4,0,.7-.2,1.1s-.3.6-.5.8-.5.4-.8.5c-.3.1-.6.2-1,.2s-.7,0-1-.2c-.3-.1-.5-.3-.8-.5-.2-.2-.4-.5-.5-.8s-.2-.7-.2-1.1,0-.7.2-1.1c.1-.3.3-.6.5-.8s.5-.4.8-.5c.3-.1.6-.2,1-.2s.7,0,1,.2c.3.1.6.3.8.5s.4.5.5.8c.1.3.2.7.2,1.1ZM660.7,410.1c0-.5-.1-.9-.3-1.2-.2-.3-.5-.4-.9-.4s-.4,0-.6.2-.3.3-.4.6c0,.3-.1.6-.1.9s0,.6.1.9.2.4.4.6.4.2.6.2c.4,0,.7-.1.9-.4s.3-.7.3-1.2Z"/>
            <path class="cls-5" d="M662.9,407.6h.1v-.8c0-.2,0-.4,0-.5s0-.2,0-.3c0,0,.1-.2.2-.2s.2,0,.3,0,.3,0,.4.2c0,0,.1.2.2.3,0,.1,0,.3,0,.5v.9h.4c.2,0,.3,0,.4.1s.1.2.1.3,0,.3-.2.4c-.1,0-.3.1-.6.1h-.2v2.4c0,.2,0,.4,0,.5,0,.1,0,.2.1.3,0,0,.2.1.3.1s.2,0,.3,0,.2,0,.3,0c0,0,.2,0,.3.1s.1.2.1.3c0,.2-.1.4-.3.5-.2.1-.5.2-.9.2s-.7,0-.9-.2c-.2-.1-.3-.3-.4-.6,0-.2,0-.6,0-1v-2.5h-.2c-.2,0-.3,0-.4-.1,0,0-.1-.2-.1-.3s0-.2.1-.3.2-.1.4-.1Z"/>
            <path class="cls-5" d="M666.1,407.6h.1v-.8c0-.2,0-.4,0-.5s0-.2,0-.3c0,0,.1-.2.2-.2s.2,0,.3,0,.3,0,.4.2c0,0,.1.2.2.3,0,.1,0,.3,0,.5v.9h.4c.2,0,.3,0,.4.1s.1.2.1.3,0,.3-.2.4c-.1,0-.3.1-.6.1h-.2v2.4c0,.2,0,.4,0,.5,0,.1,0,.2.1.3,0,0,.2.1.3.1s.2,0,.3,0,.2,0,.3,0c0,0,.2,0,.3.1s.1.2.1.3c0,.2-.1.4-.3.5-.2.1-.5.2-.9.2s-.7,0-.9-.2c-.2-.1-.3-.3-.4-.6,0-.2,0-.6,0-1v-2.5h-.2c-.2,0-.3,0-.4-.1,0,0-.1-.2-.1-.3s0-.2.1-.3.2-.1.4-.1Z"/>
            <path class="cls-5" d="M673.9,410.1c0,.4,0,.7-.2,1.1s-.3.6-.5.8-.5.4-.8.5c-.3.1-.6.2-1,.2s-.7,0-1-.2c-.3-.1-.5-.3-.8-.5-.2-.2-.4-.5-.5-.8s-.2-.7-.2-1.1,0-.7.2-1.1c.1-.3.3-.6.5-.8s.5-.4.8-.5c.3-.1.6-.2,1-.2s.7,0,1,.2c.3.1.6.3.8.5s.4.5.5.8c.1.3.2.7.2,1.1ZM672.7,410.1c0-.5-.1-.9-.3-1.2-.2-.3-.5-.4-.9-.4s-.4,0-.6.2-.3.3-.4.6c0,.3-.1.6-.1.9s0,.6.1.9.2.4.4.6.4.2.6.2c.4,0,.7-.1.9-.4s.3-.7.3-1.2Z"/>
            <path class="cls-5" d="M678.9,410.2v1.7c0,.3,0,.5-.2.6-.1.1-.3.2-.5.2s-.3,0-.4-.2c-.1-.1-.2-.3-.2-.6v-2c0-.3,0-.6,0-.8s0-.3-.2-.4-.2-.2-.4-.2c-.4,0-.7.1-.8.4-.1.3-.2.7-.2,1.2v1.7c0,.3,0,.5-.2.6-.1.1-.3.2-.5.2s-.3,0-.5-.2-.2-.3-.2-.6v-3.7c0-.2,0-.4.2-.6.1-.1.2-.2.4-.2s.3,0,.4.2c.1.1.2.3.2.5h0c.2-.1.4-.3.7-.5.2-.1.5-.2.8-.2s.6,0,.8.2c.2.1.4.3.5.6.2-.3.4-.5.7-.6s.5-.2.8-.2.6,0,.9.2.4.3.5.6c.1.2.2.6.2,1.1v2.5c0,.3,0,.5-.2.6s-.3.2-.5.2-.3,0-.5-.2-.2-.3-.2-.6v-2.2c0-.3,0-.5,0-.7,0-.2,0-.3-.2-.4s-.2-.2-.4-.2-.3,0-.5.2-.3.2-.3.4c0,.2-.1.6-.1,1.1Z"/>
          </g>
          <g>
            <path class="cls-5" d="M286.4,443.1l-4.4,1h4.8c.3,0,.5,0,.6.2.1.1.2.3.2.4s0,.3-.2.4-.3.2-.6.2h-5.5c-.3,0-.5,0-.6-.2s-.2-.3-.2-.6v-.4c0-.2,0-.4,0-.5,0-.1.1-.2.3-.2s.3-.1.6-.2l3.8-1-3.8-1c-.3,0-.5-.1-.6-.2-.1,0-.2-.1-.3-.2,0-.1,0-.3,0-.5v-.4c0-.3,0-.5.2-.6.1-.1.3-.2.6-.2h5.5c.3,0,.5,0,.6.2s.2.3.2.4,0,.3-.2.4c-.1.1-.3.2-.6.2h-4.8l4.4,1c.3,0,.5.1.6.2.1,0,.3.1.4.2.1.1.2.3.2.5s0,.3-.1.4-.2.2-.3.2-.2.1-.4.1c-.1,0-.3,0-.4.1Z"/>
            <path class="cls-5" d="M281.7,437.2c0,.2,0,.3-.2.4s-.3.2-.5.2-.3,0-.5-.2c-.1-.1-.2-.3-.2-.4s0-.3.2-.4c.1-.1.3-.2.5-.2s.4,0,.5.2c.1.1.2.3.2.4ZM283,436.6h3.7c.3,0,.5,0,.6.2.1.1.2.3.2.4s0,.3-.2.4c-.1.1-.3.2-.6.2h-3.7c-.3,0-.4,0-.6-.2s-.2-.3-.2-.4,0-.3.2-.4c.1-.1.3-.2.5-.2Z"/>
            <path class="cls-5" d="M286.8,432h-.1c.2.2.4.3.5.5s.2.3.3.5c0,.2,0,.4,0,.6s0,.6-.2.8c-.1.2-.3.5-.6.6-.2.2-.5.3-.9.4s-.7.1-1.1.1c-.8,0-1.4-.2-1.9-.6-.4-.4-.7-.9-.7-1.5s0-.6.2-.9c.1-.2.3-.5.6-.7h-1.9c-.3,0-.5,0-.6-.1-.1-.1-.2-.2-.2-.4s0-.3.2-.4c.1-.1.3-.1.5-.1h5.7c.2,0,.4,0,.6.2s.2.2.2.4,0,.3-.2.4c-.1.1-.3.2-.5.2ZM284.9,434.4c.3,0,.6,0,.9-.2.2-.1.4-.2.6-.4.1-.2.2-.4.2-.6s0-.4-.2-.6c-.1-.2-.3-.3-.5-.4s-.5-.2-.9-.2-.6,0-.9.2-.4.2-.6.4c-.1.2-.2.4-.2.6s0,.4.2.6c.1.2.3.3.6.4s.5.1.9.1Z"/>
            <path class="cls-5" d="M286.3,422.6l-4.1,1.1,4.1,1.1c.3,0,.5.1.7.2.1,0,.3.1.4.3.1.1.2.3.2.5s0,.3,0,.4c0,.1-.2.2-.3.3-.1,0-.3.1-.4.2-.2,0-.3,0-.5.1l-4.7,1.1c-.3,0-.5,0-.6,0s-.3,0-.5-.2-.2-.3-.2-.4,0-.4.2-.5c.2,0,.4-.2.7-.2l4-.9-3.8-1c-.3,0-.5-.1-.7-.2s-.3-.1-.4-.3-.2-.3-.2-.5,0-.4.2-.5.2-.2.4-.3c.1,0,.4-.1.7-.2l3.8-1-4-.9c-.2,0-.4,0-.5-.1-.1,0-.2-.1-.3-.2,0,0-.1-.2-.1-.4s0-.3.2-.4c.1-.1.3-.2.5-.2s.3,0,.6,0l4.7,1.1c.3,0,.5.1.7.2.1,0,.3.1.4.2.1.1.2.3.2.5s0,.4-.2.5-.2.2-.4.3c-.1,0-.4.1-.7.2Z"/>
            <path class="cls-5" d="M281.7,418.1c0,.2,0,.3-.2.4-.1.1-.3.2-.5.2s-.3,0-.5-.2-.2-.3-.2-.4,0-.3.2-.4c.1-.1.3-.2.5-.2s.4,0,.5.2c.1.1.2.3.2.4ZM283,417.5h3.7c.3,0,.5,0,.6.2.1.1.2.3.2.4s0,.3-.2.4c-.1.1-.3.2-.6.2h-3.7c-.3,0-.4,0-.6-.2s-.2-.3-.2-.4,0-.3.2-.4c.1-.1.3-.2.5-.2Z"/>
            <path class="cls-5" d="M283,415.2h.2c-.3-.2-.5-.4-.7-.7-.1-.3-.2-.5-.2-.9s0-.6.2-.9c.1-.3.4-.4.6-.6.2,0,.3-.1.5-.2s.4,0,.7,0h2.4c.3,0,.5,0,.6.2.1.1.2.3.2.4s0,.3-.2.4c-.1.1-.3.2-.6.2h-2.1c-.4,0-.7,0-1,.2-.2.1-.3.3-.3.7s0,.4.2.6c.1.2.3.3.6.4.2,0,.5,0,1.1,0h1.6c.3,0,.5,0,.6.2.1.1.2.3.2.4s0,.3-.2.4c-.1.1-.3.2-.6.2h-3.7c-.2,0-.4,0-.5-.2s-.2-.2-.2-.4,0-.2,0-.3c0,0,.1-.2.2-.2.1,0,.2,0,.4,0Z"/>
            <path class="cls-5" d="M286.8,407.4h-.1c.2.2.4.3.5.5.1.2.2.3.3.5s0,.4,0,.6,0,.6-.2.8-.3.5-.6.6-.5.3-.9.4-.7.1-1.1.1c-.8,0-1.4-.2-1.9-.6s-.7-.9-.7-1.5,0-.6.2-.9c.1-.2.3-.5.6-.7h-1.9c-.3,0-.5,0-.6-.1-.1-.1-.2-.2-.2-.4s0-.3.2-.4c.1-.1.3-.1.5-.1h5.7c.2,0,.4,0,.6.2.1.1.2.2.2.4s0,.3-.2.4c-.1.1-.3.2-.5.2ZM284.9,409.8c.3,0,.6,0,.9-.2s.4-.2.6-.4.2-.4.2-.6,0-.4-.2-.6-.3-.3-.5-.4-.5-.2-.9-.2-.6,0-.9.2-.4.2-.6.4c-.1.2-.2.4-.2.6s0,.4.2.6c.1.2.3.3.6.4s.5.1.9.1Z"/>
            <path class="cls-5" d="M284.9,400.5c.4,0,.7,0,1.1.2s.6.3.8.5c.2.2.4.5.5.8.1.3.2.6.2,1s0,.7-.2,1c-.1.3-.3.5-.5.8s-.5.4-.8.5-.7.2-1.1.2-.7,0-1.1-.2c-.3-.1-.6-.3-.8-.5s-.4-.5-.5-.8c-.1-.3-.2-.6-.2-1s0-.7.2-1c.1-.3.3-.6.5-.8s.5-.4.8-.5c.3-.1.7-.2,1.1-.2ZM284.9,401.7c-.5,0-.9.1-1.2.3-.3.2-.4.5-.4.9s0,.4.2.6.3.3.6.4c.3,0,.6.1.9.1s.6,0,.9-.1.4-.2.6-.4c.1-.2.2-.4.2-.6,0-.4-.1-.7-.4-.9s-.7-.3-1.2-.3Z"/>
            <path class="cls-5" d="M283.1,398.7l2.9-.8-2.7-.7c-.3,0-.5-.1-.6-.2-.1,0-.2-.1-.3-.2,0-.1-.1-.2-.1-.4s0-.3.1-.4.2-.2.3-.2c.1,0,.3-.1.6-.2l2.7-.7-2.9-.8c-.2,0-.4,0-.5-.1,0,0-.2,0-.2-.2,0,0-.1-.2-.1-.3s0-.3.2-.4c.1-.1.2-.2.4-.2s.3,0,.6.1l3.1,1c.3,0,.4.2.6.2.1,0,.2.1.3.2,0,.1.1.2.1.4s0,.3-.1.4c0,.1-.2.2-.4.2-.1,0-.3.1-.6.2l-2.5.7,2.5.7c.3,0,.6.2.8.3.2.1.3.3.3.5s0,.2,0,.3c0,0-.1.2-.2.2s-.2.1-.4.2c-.1,0-.2,0-.3.1l-3.1,1c-.3,0-.5.1-.6.1s-.3,0-.4-.2-.2-.2-.2-.4,0-.3.2-.4c.1,0,.3-.1.6-.2Z"/>
          </g>
          <g>
            <path class="cls-5" d="M514.9,405.5l-1-4.4v4.8c0,.3,0,.5-.2.6s-.3.2-.4.2-.3,0-.4-.2-.2-.3-.2-.6v-5.5c0-.3,0-.5.2-.6.1-.1.3-.2.6-.2h.4c.2,0,.4,0,.5,0,.1,0,.2.1.2.3s.1.3.2.6l1,3.8,1-3.8c0-.3.1-.5.2-.6,0-.1.1-.2.2-.3s.3,0,.5,0h.4c.3,0,.5,0,.6.2s.2.3.2.6v5.5c0,.3,0,.5-.2.6-.1.1-.3.2-.4.2s-.3,0-.4-.2-.2-.3-.2-.6v-4.8l-1,4.4c0,.3-.1.5-.2.6,0,.1-.1.3-.2.4s-.3.2-.5.2-.3,0-.4-.1c-.1,0-.2-.2-.2-.3s-.1-.2-.1-.4c0-.1,0-.3-.1-.4Z"/>
            <path class="cls-5" d="M520.9,400.9c-.2,0-.3,0-.4-.2s-.2-.3-.2-.5,0-.3.2-.5.3-.2.4-.2.3,0,.4.2c.1.1.2.3.2.5s0,.4-.2.5c-.1.1-.3.2-.4.2ZM521.5,402.2v3.7c0,.3,0,.5-.2.6-.1.1-.3.2-.4.2s-.3,0-.4-.2c-.1-.1-.2-.3-.2-.6v-3.7c0-.3,0-.4.2-.6.1-.1.3-.2.4-.2s.3,0,.4.2c.1.1.2.3.2.5Z"/>
            <path class="cls-5" d="M526.1,406h0c-.2,0-.3.2-.5.4-.2.1-.3.2-.5.3-.2,0-.4,0-.6,0s-.6,0-.8-.2-.5-.3-.6-.6-.3-.5-.4-.9-.1-.7-.1-1.1c0-.8.2-1.4.6-1.9s.9-.7,1.5-.7.6,0,.9.2c.2.1.5.3.7.6v-1.9c0-.3,0-.5.1-.6,0-.1.2-.2.4-.2s.3,0,.4.2c0,.1.1.3.1.5v5.7c0,.2,0,.4-.2.6-.1.1-.2.2-.4.2s-.3,0-.4-.2c-.1-.1-.2-.3-.2-.5ZM523.7,404.1c0,.3,0,.6.2.9.1.2.2.4.4.6s.4.2.6.2.4,0,.6-.2.3-.3.4-.5.2-.5.2-.9,0-.6-.2-.9-.2-.4-.4-.6c-.2-.1-.4-.2-.6-.2s-.4,0-.6.2c-.2.1-.3.3-.4.6s-.1.5-.1.9Z"/>
            <path class="cls-5" d="M535.8,404.5c0,.4-.1.8-.3,1.1-.2.3-.5.6-.9.8s-.9.3-1.4.3-1.2-.1-1.6-.4c-.3-.2-.5-.4-.7-.7s-.3-.6-.3-.9,0-.3.2-.4c.1-.1.3-.2.4-.2s.3,0,.4.1.2.2.2.4c0,.2.2.4.3.6,0,.1.2.3.4.4.2,0,.4.1.7.1s.7,0,1-.3.4-.4.4-.7,0-.4-.2-.6c-.1-.1-.3-.3-.5-.3-.2,0-.5-.2-.8-.2-.5-.1-.9-.3-1.2-.4s-.6-.4-.8-.6c-.2-.3-.3-.6-.3-1s0-.7.3-1c.2-.3.5-.5.9-.7s.8-.2,1.3-.2.8,0,1,.2c.3.1.5.2.7.4.2.2.3.4.4.5,0,.2.1.4.1.6s0,.3-.2.5c-.1.1-.3.2-.4.2s-.3,0-.3-.1-.2-.2-.3-.4c-.1-.3-.3-.5-.4-.6-.2-.1-.4-.2-.8-.2s-.6,0-.8.2c-.2.2-.3.4-.3.6s0,.3.1.4c0,.1.2.2.3.3s.3.1.4.2c.1,0,.3.1.6.2.4,0,.7.2,1,.3.3.1.6.2.8.4.2.2.4.4.5.6.1.2.2.5.2.9Z"/>
            <path class="cls-5" d="M536.9,401.6h.1v-.8c0-.2,0-.4,0-.5s0-.2,0-.3c0,0,.1-.2.2-.2s.2,0,.3,0,.3,0,.4.2c0,0,.1.2.2.3,0,.1,0,.3,0,.5v.9h.4c.2,0,.3,0,.4.1s.1.2.1.3,0,.3-.2.4c-.1,0-.3.1-.6.1h-.2v2.4c0,.2,0,.4,0,.5,0,.1,0,.2.1.3,0,0,.2.1.3.1s.2,0,.3,0,.2,0,.3,0c0,0,.2,0,.3.1s.1.2.1.3c0,.2-.1.4-.3.5-.2.1-.5.2-.9.2s-.7,0-.9-.2c-.2-.1-.3-.3-.4-.6s0-.6,0-1v-2.5h-.2c-.2,0-.3,0-.4-.1,0,0-.1-.2-.1-.3s0-.2.1-.3.2-.1.4-.1Z"/>
            <path class="cls-5" d="M543.1,406c-.3.2-.6.4-.9.5-.3.1-.6.2-.9.2s-.6,0-.8-.2c-.2-.1-.4-.3-.5-.5-.1-.2-.2-.5-.2-.7s.1-.7.3-.9c.2-.2.5-.4.9-.5,0,0,.3,0,.6-.1s.6-.1.8-.2c.2,0,.5-.1.7-.2,0-.3,0-.6-.2-.7s-.4-.2-.7-.2-.5,0-.7.1c-.2,0-.3.2-.4.4-.1.2-.2.3-.2.4,0,0-.1,0-.3,0s-.3,0-.4-.1c0,0-.1-.2-.1-.4,0-.2,0-.4.2-.7s.4-.4.7-.5c.3-.1.7-.2,1.2-.2s1,0,1.3.2c.3.1.5.3.6.6s.2.7.2,1.1,0,.6,0,.8c0,.2,0,.4,0,.7,0,.2,0,.5.1.8,0,.3.1.4.1.5,0,.1,0,.3-.2.4-.1.1-.3.2-.4.2s-.2,0-.4-.2-.3-.3-.4-.5ZM543.1,404.1c-.2,0-.4.1-.8.2s-.6.1-.7.2-.3.1-.4.2-.2.3-.2.4,0,.4.2.5c.1.1.3.2.5.2s.5,0,.7-.2c.2-.1.4-.3.4-.4.1-.2.2-.5.2-1v-.2h0Z"/>
            <path class="cls-5" d="M546.1,400.9c-.2,0-.3,0-.4-.2s-.2-.3-.2-.5,0-.3.2-.5.3-.2.4-.2.3,0,.4.2c.1.1.2.3.2.5s0,.4-.2.5c-.1.1-.3.2-.4.2ZM546.7,402.2v3.7c0,.3,0,.5-.2.6-.1.1-.3.2-.4.2s-.3,0-.4-.2c-.1-.1-.2-.3-.2-.6v-3.7c0-.3,0-.4.2-.6.1-.1.3-.2.4-.2s.3,0,.4.2c.1.1.2.3.2.5Z"/>
            <path class="cls-5" d="M549.2,404.8v1.1c0,.3,0,.5-.2.6s-.3.2-.4.2-.3,0-.4-.2-.2-.3-.2-.6v-3.6c0-.6.2-.9.6-.9s.3,0,.4.2.1.3.1.6c.1-.3.3-.5.4-.6.2-.1.4-.2.6-.2s.5,0,.7.2c.2.1.4.3.4.5s0,.3-.2.4c-.1.1-.2.2-.3.2s-.2,0-.3,0-.3,0-.5,0-.3,0-.4.1-.2.2-.3.4-.1.4-.1.7,0,.6,0,1Z"/>
            <path class="cls-5" d="M555.7,405c0,.4,0,.7-.2.9s-.4.4-.7.6-.7.2-1.2.2-.8,0-1.1-.2-.5-.3-.7-.5c-.1-.2-.2-.4-.2-.6s0-.3.1-.4.2-.2.4-.2.2,0,.3,0,.1.2.2.3c.1.2.3.4.4.5.2.1.4.2.7.2s.4,0,.6-.2.2-.2.2-.4c0-.2,0-.4-.2-.5s-.4-.2-.8-.3c-.4-.1-.8-.2-1-.3-.3-.1-.5-.3-.6-.5-.2-.2-.2-.4-.2-.7s0-.5.2-.7.4-.4.6-.5c.3-.1.6-.2,1-.2s.6,0,.9.1c.3,0,.5.2.6.3.2.1.3.2.4.4,0,.1.1.3.1.4s0,.3-.1.4-.2.1-.4.1-.2,0-.3-.1c0,0-.2-.2-.3-.3,0-.1-.2-.2-.3-.3-.1,0-.3-.1-.5-.1s-.4,0-.5.1c-.1,0-.2.2-.2.4s0,.2.2.3c.1,0,.3.2.4.2s.4.1.8.2c.4,0,.7.2.9.3.2.1.4.3.5.5.1.2.2.4.2.6Z"/>
          </g>
          <g>
            <path class="cls-5" d="M566,155l-.3-.9h-2.7l-.3.9c-.1.3-.2.6-.3.7s-.2.2-.4.2-.3,0-.4-.2-.2-.3-.2-.4,0-.2,0-.3,0-.2.1-.4l1.7-4.5c0-.1.1-.3.2-.5s.1-.3.2-.4c0-.1.2-.2.3-.3s.3-.1.5-.1.3,0,.5.1.2.2.3.3.1.2.2.4c0,.1.1.3.2.5l1.7,4.5c.1.3.2.6.2.7s0,.3-.2.4c-.1.1-.3.2-.5.2s-.2,0-.3,0c0,0-.1,0-.2-.2,0,0-.1-.2-.2-.3,0-.1-.1-.3-.1-.4ZM563.4,153.1h2l-1-2.9-1,2.9Z"/>
            <path class="cls-5" d="M572.9,154.8l-1-4.4v4.8c0,.3,0,.5-.2.6s-.3.2-.4.2-.3,0-.4-.2-.2-.3-.2-.6v-5.5c0-.3,0-.5.2-.6.1-.1.3-.2.6-.2h.4c.2,0,.4,0,.5,0,.1,0,.2.1.2.3s.1.3.2.6l1,3.8,1-3.8c0-.3.1-.5.2-.6,0-.1.1-.2.2-.3.1,0,.3,0,.5,0h.4c.3,0,.5,0,.6.2s.2.3.2.6v5.5c0,.3,0,.5-.2.6-.1.1-.3.2-.4.2s-.3,0-.4-.2-.2-.3-.2-.6v-4.8l-1,4.4c0,.3-.1.5-.2.6,0,.1-.1.3-.2.4s-.3.2-.5.2-.3,0-.4-.1-.2-.2-.2-.3-.1-.2-.1-.4c0-.1,0-.3-.1-.4Z"/>
            <path class="cls-5" d="M581.3,155.2c-.3.2-.6.4-.9.5-.3.1-.6.2-.9.2s-.6,0-.8-.2c-.2-.1-.4-.3-.5-.5-.1-.2-.2-.5-.2-.7s.1-.7.3-.9c.2-.2.5-.4.9-.5,0,0,.3,0,.6-.1s.6-.1.8-.2c.2,0,.5-.1.7-.2,0-.3,0-.6-.2-.7s-.4-.2-.7-.2-.5,0-.7.1c-.2,0-.3.2-.4.4-.1.2-.2.3-.2.4s-.1,0-.3,0-.3,0-.4-.1-.1-.2-.1-.4c0-.2,0-.4.2-.7s.4-.4.7-.5c.3-.1.7-.2,1.2-.2s1,0,1.3.2c.3.1.5.3.6.6s.2.7.2,1.1,0,.6,0,.8c0,.2,0,.4,0,.7,0,.2,0,.5.1.8,0,.3.1.4.1.5,0,.1,0,.3-.2.4-.1.1-.3.2-.4.2s-.2,0-.4-.2-.3-.3-.4-.5ZM581.2,153.3c-.2,0-.4.1-.8.2s-.6.1-.7.2c-.1,0-.3.1-.4.2-.1.1-.2.3-.2.4s0,.4.2.5c.1.1.3.2.5.2s.5,0,.7-.2c.2-.1.4-.3.4-.4.1-.2.2-.5.2-1v-.2h0Z"/>
            <path class="cls-5" d="M584.3,150.1c-.2,0-.3,0-.4-.2s-.2-.3-.2-.5,0-.3.2-.4.3-.2.4-.2.3,0,.4.2c.1.1.2.3.2.5s0,.4-.2.5c-.1.1-.3.2-.4.2ZM584.9,151.4v3.7c0,.3,0,.5-.2.6-.1.1-.3.2-.4.2s-.3,0-.4-.2c-.1-.1-.2-.3-.2-.6v-3.7c0-.3,0-.4.2-.6.1-.1.3-.2.4-.2s.3,0,.4.2c.1.1.2.3.2.5Z"/>
            <path class="cls-5" d="M587.2,151.4v.2c.2-.3.4-.5.7-.7.3-.1.5-.2.9-.2s.6,0,.9.2c.3.1.4.4.6.6,0,.2.1.3.2.5s0,.4,0,.7v2.4c0,.3,0,.5-.2.6-.1.1-.3.2-.4.2s-.3,0-.4-.2c-.1-.1-.2-.3-.2-.6v-2.1c0-.4,0-.7-.2-1s-.3-.3-.7-.3-.4,0-.6.2c-.2.1-.3.3-.4.6,0,.2,0,.6,0,1.1v1.6c0,.3,0,.5-.2.6-.1.1-.3.2-.4.2s-.3,0-.4-.2c-.1-.1-.2-.3-.2-.6v-3.7c0-.2,0-.4.2-.5s.2-.2.4-.2.2,0,.3,0c0,0,.2.1.2.2,0,.1,0,.2,0,.4Z"/>
          </g>
          <g>
            <path class="cls-5" d="M658.5,222.4l-.3-.9h-2.7l-.3.9c-.1.3-.2.6-.3.7s-.2.2-.4.2-.3,0-.4-.2-.2-.3-.2-.4,0-.2,0-.3,0-.2.1-.4l1.7-4.5c0-.1.1-.3.2-.5s.1-.3.2-.5c0-.1.2-.2.3-.3s.3-.1.5-.1.3,0,.5.1.2.2.3.3.1.2.2.4c0,.1.1.3.2.5l1.7,4.5c.1.3.2.6.2.7s0,.3-.2.4c-.1.1-.3.2-.5.2s-.2,0-.3,0c0,0-.1,0-.2-.2,0,0-.1-.2-.2-.3,0-.1-.1-.3-.1-.4ZM655.9,220.5h2l-1-2.9-1,2.9Z"/>
            <path class="cls-5" d="M664.5,217v5h2.7c.2,0,.4,0,.5.2s.2.2.2.4,0,.3-.2.4c-.1.1-.3.2-.5.2h-3.2c-.3,0-.5,0-.6-.2s-.2-.4-.2-.7v-5.3c0-.3,0-.5.2-.6.1-.1.3-.2.5-.2s.4,0,.5.2c.1.1.2.4.2.6Z"/>
            <path class="cls-5" d="M673.2,220.7c0,.4,0,.7-.2,1.1s-.3.6-.5.8c-.2.2-.5.4-.8.5-.3.1-.6.2-1,.2s-.7,0-1-.2c-.3-.1-.5-.3-.8-.5s-.4-.5-.5-.8-.2-.7-.2-1.1,0-.7.2-1.1c.1-.3.3-.6.5-.8s.5-.4.8-.5c.3-.1.6-.2,1-.2s.7,0,1,.2c.3.1.6.3.8.5s.4.5.5.8c.1.3.2.7.2,1.1ZM672,220.7c0-.5-.1-.9-.3-1.2-.2-.3-.5-.4-.9-.4s-.4,0-.6.2-.3.3-.4.6c0,.3-.1.6-.1.9s0,.6.1.9.2.4.4.6.4.2.6.2c.4,0,.7-.1.9-.4s.3-.7.3-1.2Z"/>
            <path class="cls-5" d="M675.3,216.9v2c.2-.3.5-.4.7-.6s.5-.2.9-.2.8.1,1.1.3c.3.2.5.5.7.9.2.4.3.8.3,1.4s0,.7-.1,1.1-.2.6-.4.8c-.2.2-.4.4-.6.6s-.5.2-.8.2-.4,0-.5,0-.3-.1-.4-.2c-.1,0-.2-.2-.3-.2s-.2-.2-.3-.4h0c0,.4,0,.6-.2.7-.1.1-.2.2-.4.2s-.3,0-.4-.2-.2-.3-.2-.5v-5.6c0-.3,0-.5.1-.6,0-.1.2-.2.4-.2s.3,0,.4.2.2.3.2.5ZM675.3,220.7c0,.5.1.9.3,1.2s.5.4.9.4.6-.1.8-.4.3-.7.3-1.2,0-.6-.1-.9-.2-.4-.4-.6c-.2-.1-.4-.2-.6-.2s-.4,0-.6.2c-.2.1-.3.3-.4.6-.1.3-.2.6-.2.9Z"/>
            <path class="cls-5" d="M680.9,216.9v2c.2-.3.5-.4.7-.6s.5-.2.9-.2.8.1,1.1.3c.3.2.5.5.7.9.2.4.3.8.3,1.4s0,.7-.1,1.1-.2.6-.4.8c-.2.2-.4.4-.6.6s-.5.2-.8.2-.4,0-.5,0-.3-.1-.4-.2c-.1,0-.2-.2-.3-.2s-.2-.2-.3-.4h0c0,.4,0,.6-.2.7-.1.1-.2.2-.4.2s-.3,0-.4-.2-.2-.3-.2-.5v-5.6c0-.3,0-.5.1-.6,0-.1.2-.2.4-.2s.3,0,.4.2.2.3.2.5ZM680.9,220.7c0,.5.1.9.3,1.2s.5.4.9.4.6-.1.8-.4.3-.7.3-1.2,0-.6-.1-.9-.2-.4-.4-.6c-.2-.1-.4-.2-.6-.2s-.4,0-.6.2c-.2.1-.3.3-.4.6-.1.3-.2.6-.2.9Z"/>
            <path class="cls-5" d="M686.5,223.5v-.3c.1,0-1.4-4-1.4-4,0-.2-.1-.4-.1-.5s0-.2,0-.3.1-.2.2-.2.2,0,.3,0c.2,0,.3,0,.4.2s.2.3.2.5l1,3.2,1-2.9c0-.2.1-.4.2-.6s.1-.2.2-.3.2,0,.3,0,.2,0,.3,0c0,0,.2.1.2.2,0,0,0,.2,0,.3,0,0,0,.1,0,.3,0,.1,0,.2,0,.3l-1.6,4.4c-.1.4-.3.7-.4.9s-.3.4-.5.5c-.2.1-.5.2-.9.2s-.6,0-.8-.1-.3-.2-.3-.4,0-.3.1-.3c0,0,.2-.1.4-.1s.1,0,.2,0c0,0,.1,0,.2,0,.1,0,.2,0,.3,0,0,0,.2-.1.2-.2s.1-.3.2-.5Z"/>
          </g>
        </g>
      </g>
      <polygon class="cls-2" points="313.1 433 313.1 405.3 297.6 405.3 297.6 335.1 269.7 335.1 269.7 503 297.6 503 297.6 433 313.1 433"/>
      <polygon class="cls-1" points="353.9 837.6 353.9 809.5 286.5 809.5 286.5 823.6 291.6 823.6 291.6 837.6 353.9 837.6"/>
    </g>
  </g>
</svg>