<?xml version="1.0" encoding="UTF-8"?>
<svg xmlns="http://www.w3.org/2000/svg" version="1.1" viewBox="0 0 923.1 879.1">
  <defs>
    <style>
      .cls-1 {
        stroke-dasharray: 7.1 10.2;
      }

      .cls-1, .cls-2, .cls-3, .cls-4, .cls-5, .cls-6, .cls-7, .cls-8 {
        fill: none;
        stroke: #fff;
        stroke-miterlimit: 10;
      }

      .cls-3 {
        stroke-dasharray: 6.6 9.5;
      }

      .cls-9 {
        fill: #3d3d3d;
      }

      .cls-10 {
        fill: #7e7f7e;
      }

      .cls-11 {
        fill: #fff;
      }

      .cls-4 {
        stroke-dasharray: 5.6 8;
      }

      .cls-12 {
        fill: #37a794;
      }

      .cls-5 {
        stroke-dasharray: 4.6 3.7;
      }

      .cls-13 {
        fill: #535353;
      }

      .cls-6 {
        stroke-dasharray: 5 4;
      }

      .cls-7 {
        stroke-dasharray: 7.1 10.1;
      }

      .cls-8 {
        stroke-dasharray: 7.2 10.3;
      }
    </style>
  </defs>
  <!-- Generator: Adobe Illustrator 28.6.0, SVG Export Plug-In . SVG Version: 1.2.0 Build 709)  -->
  <g>
    <g id="Layer_1">
      <g id="Layer_9">
        <rect class="cls-12" x="514" y="143.2" width="1.1" height="550.4"/>
        <rect class="cls-12" x="480.9" y="143.3" width="1.1" height="550.3"/>
      </g>
      <g id="Body_merge">
        <path class="cls-9" d="M1.1,396h16v130h15v14h34l21.2-34h4.8v65h-23v26l54,89v3l-25,17v26h94v79h49v-1h48l26-15h28v18h71v-23h19v88h129v-4h83l22-11v-69h-25v-61h78v24h31.5c0,.9,36.5,0,36.5,0l23-23,48-48v-119h-8v-30h71v-40.4h0v-114.6h-93v40h-42v-10h22v-130l-59.1-42c-34-2.2-34.9-13-34.9-13v-2c6.7-4.2,8.9-9.3,9.6-12h.4v-2c-8.9-10.2-27-82.3-27-82.3v-21.7h20v-42l-27-31-43-2-50-6.9-13-3-14.9-2-16-10-7.3-1.9-9.8-7.2h-229l-57,57v125h25v59h-102l-44,44v9h-22l-13,16v60H1.1v25ZM354.1,379h22v65.9l-72.3,72.1h-93.7v-9h88l36-36v-30l20-19v-44h0ZM592.1,679v127h-12v-12h-48v-88l-7-12h-92v15h-66l-23.2,46h-29.8l-65.1-138.1v-54.9h-51v84.7l-33,20.3h-2l-25-45v-62.1h124v15h60l88.2-89h63.8v-77h47v76h27v114h56v24.8l37,37.2h49v18h-98,.1ZM634.6,410h4.5v56h42v11h-57l-20,16-16,15v62h-9v-85h15v-75h40.5ZM816.1,536.3v29.7h-22v104h-44v-27h-42v-29l-43-43h-3v-41h93v-21h40l21,27.3ZM650.1,129.3c-2.8.6-4.7,1.2-5,1.8-1.7,3.5-3,12-3,12v22l3,9.1v21.2l-.9,12.7c3.6,12.2,53.9,77.1,53.9,77.1h58v18h-23v79h23v16.1h-23.9l-8.1,15v20.9h-49v-49l-36-36h-228.4l-22.6-12h-93v75h-60v-108h33v26h22v5h35v-67h59v-69l-24-31h-36v-35.6l38-38.4h74v49h126v-51h82v15h6v22.2h0ZM120.1,332.2v-8.1h10v14h44v48h23v37h-48v-17H46.1v-10h74v-63.9Z"/>
      </g>
      <g id="Bombsite">
        <polygon class="cls-13" points="149 406 46.9 406 46.9 450 17 450 17 526.2 32 526.2 32 540.2 66 540.2 87.5 506.6 91.5 506.5 91.5 486 149 486 149 406"/>
        <polygon class="cls-13" points="922.8 381.4 829 381.4 829 472 829 485.9 829 517 907 517 907 485.9 922.8 485.9 922.8 381.4"/>
        <polygon class="cls-10" points="152 474.5 143.5 474.5 143.5 464.6 127.6 464.6 127.6 448.7 143.5 448.7 143.5 457.5 159.6 457.6 159.6 474.5 152 474.5"/>
      </g>
      <g id="Hell_lines">
        <line class="cls-2" x1="197.5" y1="560.4" x2="197.5" y2="556.9"/>
        <line class="cls-3" x1="197.5" y1="547.4" x2="197.5" y2="455.7"/>
        <polyline class="cls-2" points="197.5 451 197.5 447.5 201 447.5"/>
        <line class="cls-3" x1="210.5" y1="447.5" x2="286.3" y2="447.5"/>
        <polyline class="cls-2" points="291.1 447.5 294.6 447.5 294.6 444"/>
        <line class="cls-4" x1="294.6" y1="436" x2="294.6" y2="412.9"/>
        <line class="cls-2" x1="294.6" y1="408.9" x2="294.6" y2="405.4"/>
        <polyline class="cls-2" points="874.6 483 874.6 485.5 872.1 485.5"/>
        <line class="cls-5" x1="868.4" y1="485.5" x2="861.9" y2="485.5"/>
        <polyline class="cls-2" points="860.1 485.5 857.6 485.5 857.6 483"/>
        <line class="cls-6" x1="857.6" y1="479" x2="857.6" y2="463"/>
        <polyline class="cls-2" points="857.6 461 857.6 458.5 860.1 458.5"/>
        <line class="cls-5" x1="863.8" y1="458.5" x2="870.2" y2="458.5"/>
        <polyline class="cls-2" points="872.1 458.5 874.6 458.5 874.6 461"/>
        <line class="cls-6" x1="874.6" y1="465" x2="874.6" y2="481"/>
        <line class="cls-2" x1="325.6" y1="336.5" x2="325.6" y2="340"/>
        <polyline class="cls-7" points="325.6 350.2 325.6 481.2 324.2 482.6"/>
        <polyline class="cls-2" points="320.6 486.2 318.2 488.7 314.7 488.7"/>
        <line class="cls-8" x1="304.4" y1="488.7" x2="257.2" y2="488.7"/>
        <polyline class="cls-2" points="252 488.7 248.5 488.7 248.5 492.2"/>
        <polyline class="cls-2" points="248.5 505 248.5 508.5 249.6 508.5 249.6 512"/>
        <line class="cls-1" x1="249.6" y1="522.2" x2="249.6" y2="551.7"/>
        <line class="cls-2" x1="249.6" y1="556.8" x2="249.6" y2="560.3"/>
      </g>
      <g id="Lines">
        <path class="cls-11" d="M922.1,422v62.9h-64v-62.9h64M923.1,421h-66v64.9h66v-64.9Z"/>
        <path class="cls-11" d="M922.1,422v15h-15v-15h15M923.1,421h-17v17h17v-17Z"/>
        <path class="cls-11" d="M793.1,495v14h-15v-14h15M794.1,494h-17v16h17v-16Z"/>
        <path class="cls-11" d="M732.1,398.1h6.9v34.9h-15v-19.9l8.1-15.1M731.6,397.1l-8.5,15.8v21.1h17v-36.9h-8.5Z"/>
        <path class="cls-11" d="M680.1,477v12h-17v-12h17M681.1,476h-19v14h19v-14Z"/>
        <path class="cls-11" d="M594.1,411v23h-14v-23h14M595.1,410h-16v25h16v-25Z"/>
        <path class="cls-11" d="M594.1,419v15h-14v-15h14M595.1,418h-16v17h16v-17Z"/>
        <path class="cls-11" d="M142.9,449v9h16.1v15.9h-15v-10h-16v-14.9h14.9M143.9,448h-16.9v16.9h16v10h17v-17.9h-16.1v-9Z"/>
        <path class="cls-11" d="M190.1,547v13h-13v-13h13M191.1,546h-15v15h15v-15Z"/>
        <path class="cls-11" d="M271.1,457v51h-15v-51h15M272.1,456h-17v53h17v-53Z"/>
        <path class="cls-11" d="M195.8,277l10,10-22.5,22.5-10-10,22.5-22.5M195.8,275.6l-23.9,23.9,11.5,11.4,23.9-23.9-11.4-11.4h-.1Z"/>
        <path class="cls-11" d="M207.1,730v15h-15v-15h15M208.1,729h-17v17h17v-17Z"/>
        <path class="cls-11" d="M270,661.3l10.8,22.9-27.3,19.5-14.5-20.3,31-22.2M270.4,659.8l-32.8,23.4,15.6,21.9,28.8-20.6-11.7-24.7h.1Z"/>
        <path class="cls-11" d="M241.3,688.4l6.3,8.8-11.6,8.3-6.3-8.8,11.6-8.3M241.5,687l-13.2,9.4,7.5,10.4,13.2-9.4-7.5-10.4Z"/>
        <path class="cls-2" d="M271.3,659.1"/>
        <path class="cls-11" d="M432.1,776v14h-17v-14h17M433.1,775h-19v16h19v-16Z"/>
        <path class="cls-11" d="M475.1,839.1l24,2.9v12l-24-2.8v-12M474.1,838.1v14l26,3v-14l-26-3.1h0Z"/>
        <path class="cls-11" d="M487,832v7.5l-7.9-.9v-6.5h7.9M488,831h-9.9v8.4l9.9,1.2v-9.6h0Z"/>
        <path class="cls-11" d="M497.1,832v8.7l-9.1-1.1v-7.6h9.1M498.1,831h-11.1v9.5l11.1,1.3v-10.8Z"/>
        <path class="cls-11" d="M507,841v7.1h-6.9v-7.1h7M508,840h-9v9.1h9v-9.1Z"/>
        <path class="cls-11" d="M598.1,679v6h-6v-6h6M599.1,678h-8v8h8v-8Z"/>
        <path class="cls-11" d="M766,670v14.9h-14.9v-14.9h14.9M766.9,669h-16.9v16.9h16.9v-16.9Z"/>
        <path class="cls-11" d="M859.1,621v16h-20v-16h20M860.1,620h-22v18h22v-18Z"/>
        <line class="cls-2" x1="689.5" y1="661.5" x2="708.8" y2="642.2"/>
        <path class="cls-2" d="M432.5,708.4"/>
        <line class="cls-2" x1="432.5" y1="738" x2="432.5" y2="708.4"/>
        <polyline class="cls-2" points="139.5 524 139.5 486.5 151.6 486.5 151.6 482.5 167.5 482.5 167.5 450.5 149.6 450.5 149.6 422.4"/>
        <line class="cls-2" x1="167.5" y1="450.5" x2="180" y2="450.5"/>
        <line class="cls-2" x1="91.5" y1="486" x2="91.5" y2="506.5"/>
        <line class="cls-2" x1="371.5" y1="182.1" x2="371.5" y2="268.5"/>
        <polyline class="cls-2" points="463.5 486.5 463.5 393.5 531.5 393.5 531.5 485.6"/>
        <line class="cls-2" x1="603.5" y1="492.5" x2="603.5" y2="599.7"/>
        <polyline class="cls-2" points="877 517.5 907.5 517.5 907.5 485.5"/>
        <line class="cls-2" x1="755.5" y1="303" x2="755.5" y2="349"/>
        <path class="cls-11" d="M485.1,1v27h-15V12h-15V1h30M486.1,0h-32v13h15v16h17V0Z"/>
        <path class="cls-11" d="M550.1,8.9l4.1,1,3.8,2.4v31.7c0,0-7.9,0-7.9,0V8.9M549.1,7.6v37.4h10V11.8l-4.5-2.8-5.5-1.4Z"/>
        <rect class="cls-11" x="558.3" y="44" width="54.7" height="1"/>
        <path class="cls-11" d="M249.1,509v7h-38v-7h38M250.1,508h-40v9h40v-9Z"/>
        <line class="cls-2" x1="129.5" y1="294.5" x2="129.5" y2="324.5"/>
        <line class="cls-2" x1="46.6" y1="405.5" x2="46.6" y2="450"/>
        <path class="cls-2" d="M787.1,397.5"/>
        <path class="cls-2" d="M755.8,397.5"/>
        <polygon class="cls-11" points="787.1 398.1 787.1 412.1 788 412.1 788 397.1 787.5 397.1 787 397.1 755.4 397.1 755.4 398.1 787.1 398.1"/>
        <path class="cls-11" d="M561.1,592v7h-13v-7h13M562.1,591h-15v9h15v-9Z"/>
      </g>
      <g id="Outlines">
        <path class="cls-11" d="M537.1,1l9.8,7.1,7.3,1.9,16,10,14.9,2,13,3,50,7,43,2,27,31v42h-20v21.8s18.1,72.1,27,82.3v2h-.3c-.7,2.8-2.9,7.9-9.6,12v2s.9,10.7,34.9,13l59.1,42v130h-22v10.1h42v-40h93v114.5h0v40.4h-71v30h8v119l-48,48-23,23s-16.2.4-27,.4-9.5,0-9.5-.4h-31.5v-24h-78v61h25v69l-22,11h-83v4h-129v-88h-19v23h-71v-18h-28l-26,15h-48v1h-49v-79h-94v-26l25-17v-3l-54-89.1v-26h23v-65h-4.8l-21.2,34.1h-34v-14h-15v-130H1.1v-25h94v-60l13-16h22v-9l44-44h102v-59h-25V58L308.1,1h229M436.1,143v-49h-74l-38,38.4v35.6h36l24,31v69h-59v67h-35v-5h-22v-26h-33v108h60v-75h93l22.7,12h228.3l36,36v49h49v-20.9l8.1-15h23.9v-16.1h-23v-79h23v-18h-58s-50.3-64.9-53.9-77.1l.9-12.7v-21.3l-3-9v-22s1.3-8.5,3-12c.3-.6,2.1-1.2,5-1.8v-22.2h-6v-15h-82v51h-126M46.1,406h103v17h48v-37h-23v-48h-44v-14h-10v72H46.1v10M210.1,517h93.7l72.3-72.1v-65.9h-22v44l-20,19v30l-36,36h-88v9M262.1,575v-15h-124v62l25,45h2l33-20.3v-84.7h51v54.9l65.1,138.1h29.7l23.2-46h66v-15h92l7,12v88h48v12h12v-127h98v-18h-49l-37-37.2v-24.8h-56v-114h-27v-76h-47v77h-63.9l-88.1,89h-60M579.1,570h9v-62l16-15,20-16h57v-11h-42v-56h-45v75h-15v85M662.1,571h3l43,43v29h42v27h44v-104h22v-29.7l-21-27.3h-40v21h-93v41M537.4,0h-229.8l-.3.3-57,57-.3.3v126.4h25v57h-101.4l-.3.3-44,44-.3.3v8.4h-21.5l-.3.4-13,16-.2.3v59.3H0v27.1h16v130h15v14h35.6l.3-.5,20.9-33.5h3.2v62.9h-23v27.6c0,0,54,88.8,54,88.8v2.1l-24.5,16.7-.5.3v27.6h94v79h51.1v-1h47.4c0,0,25.7-15,25.7-15h26.7v18h73v-23h17v88h131.1v-4h82.4c0,0,22-11.1,22-11.1l.6-.3v-70.6h-25.1v-59h76v24h32.3c1,.2,2,.3,3,.3h6.8c10.7,0,26.9-.4,27-.4h.4l.3-.3,23-23,48-48,.3-.3v-120.4h-8v-27.9h71v-42.5h0v-114.5h-95.1v40h-39.9v-8h22v-131.5l-.5-.3-59.1-42-.2-.2h-.3c-31.3-2-33.8-11.3-33.9-12v-1.3c6-4,8.4-8.7,9.3-11.6h.6v-3.4l-.3-.3c-8.5-9.7-25.9-78.3-26.7-81.7v-20.6h20v-43.4l-.3-.3-27-31-.3-.3h-.5l-43-2-49.8-7-13-3h0l-14.6-2-15.8-9.9h-.3l-7.1-1.8-9.6-7-.3-.2h0v-.3ZM563.1,93.1h79.9v15h6v20.3c-3.5.8-4.5,1.4-4.9,2.2-1.8,3.6-3.1,12-3.1,12.3v22.5l3,8.9v21l-.9,12.6v.4c3.6,12.2,52,74.8,54.1,77.4l.3.4h57.5v15.9h-23v81.1h23v14h-23.5l-.3.6-8.1,15v.2c0,0,0,20.1,0,20.1h-47v-48.4l-.3-.3-36-36-.3-.3h-228.5l-22.5-11.9h-.2c0-.1-62.2-.1-62.2-.1v-67h59v-70.4l-.2-.3-24-31-.3-.4h-35.5v-34.1l37.4-37.8h72.5v49h128.1v-51h0ZM236.1,305.1h30.9v26h22v5h5v74.9h-57.8v-106h0ZM121.1,325.1h8v14h44v48h23v34.9h-46v-17H47.1v-7.9h74v-72h0ZM355.1,380.1h19.9v64.4l-71.6,71.5h-92.2v-7h87.4l.3-.3,36-36,.3-.3v-30l19.7-18.7.3-.3v-43.4h0ZM475.1,410.1h45v76h27v114h56v24.2l.3.3,37,37.2.3.3h48.3v16h-98v127h-10v-12h-48v-87.5c0,0-7.1-12-7.1-12l-.3-.5h-93.6v15h-65.7l-.3.6-22.9,45.4h-28.4l-64.7-137.4v-55.6h11v15h61.5l.3-.3,87.8-88.7h64.4v-77h.1ZM595.1,411.1h42.9v56h42v8.9h-56.3l-.3.2-20,16h0l-16,15-.3.3v61.5h-7v-83h15v-75h0ZM756.1,510.1h38.5l20.4,26.6v28.3h-21.9v104h-42v-27h-42v-28.4l-.3-.3-43-43-.3-.3h-2.4v-39h93v-21h0ZM139.1,561.1h57.9v85.1l-32.3,19.8h-1l-24.6-44.2v-60.8h0Z"/>
      </g>
      <g id="Callouts_copy">
        <path class="cls-11" d="M445.3,819.9c0-.2,0-.4.1-.6l2.5-6.8c.2-.8,1.1-1.3,1.9-1,.5,0,.9.5,1,1l2.5,6.8c0,.2.1.4.1.6,0,.5-.4.9-.9.9h-.1c-.5,0-.8-.2-1-.8l-.5-1.4h-3.3l-.5,1.4c-.2.6-.5.9-1,.9s-.9-.4-.9-.8h0v-.2ZM450.6,817l-1.2-3.8h0l-1.2,3.8h2.4Z"/>
        <path class="cls-11" d="M454.5,815.2h-.3c-.4,0-.7-.3-.7-.7s.3-.7.7-.7h.3v-.8c0-.5.3-1,.8-1s1,.3,1,.8v1h.7c.4,0,.7.3.7.7s-.3.7-.7.7h-.7v3.3c0,.5.2.7.6.7h.1c.5,0,.7.2.7.7s-.5.8-1.3.8h0c-.9,0-1.7-.5-1.9-1.4v-4.1h0Z"/>
        <path class="cls-11" d="M459.1,815.2h-.3c-.4,0-.7-.3-.7-.7s.3-.7.7-.7h.3v-.8c0-.5.4-.9.9-.9s.9.4.9.9h0v.8h.7c.4,0,.7.3.7.7s-.3.7-.7.7h-.7v3.3c0,.5.2.7.6.7h.1c.5,0,.7.2.7.7s-.5.8-1.3.8h0c-.9,0-1.7-.5-1.9-1.4v-4.1h0Z"/>
        <path class="cls-11" d="M462.9,818.7c0-1.2,1-2,2.7-2.1h1.7v-.6c0-.6-.5-1-1.2-1s-1,.3-1.3.7c-.2.2-.4.3-.7.3s-.7-.3-.8-.7h0v-.4c.3-.8,1.4-1.3,2.8-1.3s2.9.9,2.9,2.3v3.9c0,.5-.3.9-.8.9h-.1c-.5,0-.8-.3-.9-.7h0v-.3h0c-.4.7-1.2,1.2-2.1,1.1-1.2,0-2.2-.7-2.3-1.9v-.2h0ZM467.3,818.2v-.5h-1.4c-.7,0-1.1.4-1.1.9s.4.8,1,.8,1.4-.5,1.5-1.2h0Z"/>
        <path class="cls-11" d="M470.1,817.2c-.2-1.8,1.1-3.4,2.9-3.5h.5c1.2,0,2.3.6,2.9,1.6v.5c0,.4-.3.7-.7.7h0c-.3,0-.6-.2-.8-.5-.2-.5-.8-.9-1.3-.9-.9,0-1.5.8-1.5,2.1s.6,2.1,1.5,2.1,1.1-.3,1.3-.8c.2-.4.5-.6.8-.6s.8.3.8.7h0c0,.2,0,.3-.1.5-.6,1-1.7,1.6-2.9,1.6-1.8,0-3.3-1.3-3.4-3v-.5h0Z"/>
        <path class="cls-11" d="M477.4,819.8v-7.5c0-.5.3-1,.8-1s1,.3,1,.8v4.4h0l2.5-2.5c.2-.2.5-.4.7-.4.4,0,.8.3.8.8h0c0,.3-.1.5-.3.7l-1.7,1.6,1.9,2.4c.2.2.3.4.3.7,0,.5-.3.8-.8.8h0c-.4,0-.6,0-.9-.6l-1.8-2.3-.6.6v1.4c0,.5-.3,1-.8,1s-1-.3-1-.8v-.2h-.1Z"/>
        <path class="cls-11" d="M483.8,817.3c0-2.2,1.3-3.6,3.3-3.6,1.7,0,3.1,1.2,3.2,2.9v.3c0,.4-.2.8-.6.8h-4.1c0,.9.5,1.7,1.3,1.7h.2c.6,0,1.3-.3,1.6-.8.1-.2.4-.3.6-.3.4,0,.7.3.7.6h0c0,.2,0,.3-.1.4-.6.9-1.7,1.4-2.8,1.3-1.7,0-3.3-1.2-3.4-2.9v-.6.2ZM488.6,816.5c0-.8-.6-1.4-1.3-1.5h0c-.8,0-1.5.7-1.5,1.5h2.9-.1Z"/>
        <path class="cls-11" d="M491.3,819.8v-5.2c0-.5.3-.9.8-1s.9.3,1,.8v.6h0c0-.7.7-1.3,1.4-1.3s.4,0,.6.2.3.4.3.7,0,.5-.3.7c-.2.2-.5.3-.8.2-.8,0-1.2.5-1.2,1.3v3c0,.5-.3,1-.8,1s-1-.3-1-.8v-.2h0Z"/>
        <path class="cls-11" d="M498.6,819c0-.2-.1-.3,0-.5,0-.4.3-.8.8-.8h0c.4,0,.7.2.9.6.4.7,1.1,1.1,1.9,1,1,0,1.7-.5,1.7-1.2s-.4-1-1.6-1.2l-1-.2c-1.8-.4-2.7-1.2-2.7-2.6s1.5-2.8,3.5-2.8,2.9.7,3.3,1.9v.4c0,.4-.3.8-.7.8h0c-.4,0-.8-.2-.9-.6-.3-.7-1-1.1-1.7-1-.9,0-1.6.4-1.6,1.1s.4.9,1.5,1.1l1,.2c1.9.4,2.8,1.2,2.8,2.6s-1.4,2.9-3.7,2.9-3.1-.7-3.5-1.7h0Z"/>
        <path class="cls-11" d="M506.8,822.1v-7.4c0-.5.3-1,.8-1s1,.3,1,.8v.6h0c.4-.8,1.2-1.3,2.1-1.3,1.7,0,2.8,1.3,2.8,3.5s-1.1,3.5-2.8,3.5-1.7-.4-2.1-1.2h0v2.6c0,.5-.3,1-.8,1s-1-.3-1-.8v-.2h0ZM511.7,817.2c0-1.2-.6-2-1.5-2s-1.5.8-1.5,2,.6,2,1.5,2,1.5-.8,1.5-2Z"/>
        <path class="cls-11" d="M514.2,818.7c0-1.2,1-2,2.7-2.1h1.7v-.6c0-.6-.4-1-1.1-1s-1,.3-1.3.7c-.2.2-.5.3-.7.3-.4,0-.7-.3-.8-.6h0v-.4c.3-.8,1.4-1.3,2.8-1.3s2.9.9,2.9,2.3v3.9c0,.5-.3.9-.7.9h-.2c-.5,0-.8-.3-.9-.7h0v-.3h0c-.4.7-1.2,1.2-2.1,1.1-1.2,0-2.2-.7-2.3-1.9v-.2h0ZM518.6,818.2v-.5h-1.4c-.7,0-1.1.4-1.1.9s.4.8,1,.8,1.4-.5,1.5-1.2h0Z"/>
        <path class="cls-11" d="M522.7,819.8l-1.4-4.7v-.6c0-.5.4-.8.8-.8h0c.5,0,.8.3.9.8l1,4.4h0l1.1-4.3c0-.6.7-.9,1.2-.8.4,0,.8.4.8.8l1.1,4.3h0l1-4.4c0-.4.4-.8.9-.8s.8.3.9.7h0v.6l-1.4,4.7c0,.6-.6,1-1.2,1s-1.1-.4-1.2-1h0l-1-4h0l-1,4c0,.6-.6,1.1-1.2,1-.6,0-1.1-.4-1.2-1h0Z"/>
        <path class="cls-11" d="M531.9,819.8v-5.2c0-.5.3-.9.8-.9h0c.5,0,.9.3.9.8h0v.5h0c.3-.8,1.2-1.4,2.1-1.3,1.2,0,2.3.9,2.4,2.1v4c0,.5-.3,1-.8,1s-1-.3-1-.8v-3.4c0-.9-.4-1.4-1.2-1.4s-1.4.6-1.4,1.3v3.3c0,.5-.4.9-.9.9s-.9-.4-.9-.9h0Z"/>
        <path class="cls-11" d="M345.6,363.3v-5.5c0-.4.2-.7.6-.8h2.4c1.3,0,2.2.7,2.2,1.8s-.6,1.4-1.3,1.5h0c.9,0,1.7.8,1.7,1.7s-.9,2-2.4,2h-2.4c-.4,0-.7-.3-.7-.6h-.1ZM348.2,360c.8,0,1.2-.3,1.2-.9s-.4-.9-1.1-.9h-1.2v1.9h1.1ZM348.4,363c.9,0,1.3-.4,1.3-1s-.5-1-1.3-1h-1.3v2h1.3Z"/>
        <path class="cls-11" d="M354,363.3v-5.6c0-.4.3-.7.7-.7s.7.3.7.7v5.2h2.5c.3,0,.6.3.6.6s-.3.6-.6.6h-3.2c-.4,0-.7-.3-.7-.6h0v-.2Z"/>
        <path class="cls-11" d="M359.3,357.5c0-.4.3-.8.8-.8s.8.3.8.8-.3.8-.8.8-.8-.3-.8-.8ZM359.3,363.5v-4c0-.4.2-.8.6-.8s.8.2.8.6v4.2c0,.4-.2.8-.6.8s-.8-.2-.8-.6v-.2Z"/>
        <path class="cls-11" d="M361.7,363.5v-4c0-.4.2-.7.6-.7h.1c.4,0,.7.3.7.6h0v.4h0c.3-.6.9-1.1,1.6-1,1,0,1.8.7,1.8,1.6v3.1c0,.4-.2.7-.6.7h-.1c-.4,0-.7-.3-.7-.6h0v-2.6c0-.7-.3-1.1-1-1.1s-1,.4-1.1.9v2.6c0,.4-.3.7-.7.7s-.7-.3-.7-.7h.1Z"/>
        <path class="cls-11" d="M367.5,363.5v-5.8c0-.4.2-.7.6-.7h.1c.4,0,.7.3.7.6h0v3.3h0l1.9-1.9c.1-.2.3-.3.6-.3s.6.3.6.6h0c0,.2,0,.4-.3.5l-1.3,1.3,1.5,1.9c.1.1.2.3.2.5,0,.4-.3.6-.6.7h0c-.3,0-.5-.1-.7-.4l-1.4-1.8-.5.4v1.1c0,.4-.2.7-.6.7h-.1c-.4,0-.7-.3-.7-.7h0Z"/>
        <path class="cls-11" d="M282.9,499.1c0-2.2,1.3-3.6,3.4-3.6s2.2.5,2.8,1.5c0,.1.1.3.1.4,0,.3-.2.6-.6.6h0c-.3,0-.6-.2-.7-.4-.3-.6-.9-1-1.5-.9-1.2,0-1.9.9-1.9,2.4s.7,2.5,1.9,2.5,1.6-.5,1.7-1.4h-1c-.3,0-.5-.2-.5-.5s.2-.5.5-.5h1.7c.4,0,.7.3.7.6h0c0,1.8-1.1,3.1-2.7,3.2h-.5c-2.1,0-3.4-1.4-3.4-3.7v-.2Z"/>
        <path class="cls-11" d="M290.1,500.1c-.2-1.4.8-2.6,2.2-2.7h.4c1.3,0,2.4.9,2.5,2.2v.2c0,.3-.2.6-.5.6h-3.1c0,.7.4,1.3,1,1.3h.1c.5,0,1-.2,1.2-.6.1-.1.3-.2.5-.2.3,0,.5.2.5.5h0v.3c-.5.7-1.3,1.1-2.2,1-1.3,0-2.5-.9-2.6-2.3v-.4h0ZM293.7,499.5c0-.6-.4-1.1-1-1.1h0c-.6,0-1.1.5-1.1,1.1h2.2-.1Z"/>
        <path class="cls-11" d="M295.8,502v-4c0-.4.2-.7.6-.7h.1c.4,0,.7.2.7.6h0v.4h0c.3-.6.9-1.1,1.6-1,.9,0,1.8.6,1.8,1.6v3.1c0,.4-.3.7-.7.7s-.7-.3-.7-.7v-2.4c0-.7-.3-1.1-1-1.1s-1,.4-1,1v2.6c0,.4-.2.7-.6.7h-.1c-.4,0-.7-.3-.7-.6h0c0-.1,0-.2,0-.2Z"/>
        <path class="cls-11" d="M624.3,553.6v-.4c0-.3.2-.6.6-.7h0c.3,0,.6.2.7.4.3.5.9.8,1.5.8s1.3-.4,1.3-.9-.3-.7-1.2-.9l-.8-.2c-1.4-.3-2.1-1-2.1-2s1.1-2.1,2.7-2.1c1.1,0,2.1.5,2.6,1.5v.3c0,.3-.2.6-.6.6h0c-.3,0-.6-.2-.7-.4-.2-.5-.7-.8-1.3-.8s-1.2.3-1.2.9.3.7,1.2.9l.7.2c1.5.3,2.1.9,2.1,2s-1.1,2.2-2.8,2.2-2.4-.6-2.7-1.4h0Z"/>
        <path class="cls-11" d="M630.4,553.3c0-1,.7-1.5,2-1.6h1.3v-.4c0-.5-.3-.8-.9-.8s-.8.2-1,.6c0,.2-.3.3-.6.3s-.6-.2-.6-.5h0v-.3c.5-.7,1.3-1.1,2.2-1,1.3,0,2.2.7,2.2,1.8v3c0,.4-.2.7-.6.7h0c-.4,0-.7-.2-.7-.6h0v-.3h0c-.3.6-.9.9-1.6.9s-1.7-.6-1.8-1.5h0c0,0,.2-.3.2-.3ZM633.8,552.9v-.4h-1.1c-.5,0-.8.3-.8.7s.3.6.8.6,1.1-.4,1.1-1h0Z"/>
        <path class="cls-11" d="M636.1,554.2v-4c0-.4.2-.7.6-.7h0c.4,0,.7.3.7.6h0v.3h0c.3-.6.9-1.1,1.6-1,1,0,1.8.7,1.8,1.6v3.1c0,.4-.2.7-.6.7h0c-.4,0-.7-.3-.7-.6h0v-2.5c0-.7-.3-1.1-1-1.1s-1,.4-1,1v2.6c0,.4-.3.7-.7.7s-.7-.3-.7-.7h0Z"/>
        <path class="cls-11" d="M641.7,552.2c0-1.7.8-2.7,2.1-2.7s1.3.4,1.6,1h0v-2.1c0-.4.3-.7.7-.7s.7.3.7.7h0v5.8c0,.4-.2.7-.6.7h0c-.4,0-.7-.2-.7-.6h0v-.4h0c-.3.6-.9,1-1.6,1-1.3,0-2.1-1.1-2.1-2.7h0ZM645.5,552.2c0-1-.5-1.6-1.2-1.6s-1.2.6-1.2,1.6.4,1.6,1.2,1.6,1.2-.6,1.2-1.5h0Z"/>
        <path class="cls-11" d="M766.1,349.9v-5.5c0-.4.2-.7.6-.8h2.1c2.1,0,3.4,1.3,3.4,3.5s-1.2,3.6-3.4,3.6h-2c-.4,0-.7-.3-.7-.6h0c0-.1,0-.2,0-.2ZM768.7,349.5c1.3,0,2-.8,2-2.3s-.7-2.3-2-2.3h-1v4.6h1Z"/>
        <path class="cls-11" d="M773.1,350v-4c0-.4.2-.7.6-.7h0c.4,0,.7.3.7.6h0v.3h0c0-.6.5-1,1.1-1s.3,0,.4.1c.2.1.2.3.2.5s0,.4-.2.5-.4.2-.6.2c-.7,0-.9.4-.9,1v2.3c0,.4-.3.7-.7.7s-.7-.3-.7-.7h0v.2Z"/>
        <path class="cls-11" d="M776.3,348c0-1.4,1.3-2.5,2.7-2.5s2.5,1.3,2.5,2.7-1.2,2.5-2.6,2.5-2.5-1-2.6-2.3v-.4h0ZM780,348c0-1-.5-1.6-1.1-1.6s-1.2.6-1.2,1.6.4,1.6,1.2,1.6,1.2-.6,1.2-1.6h-.1Z"/>
        <path class="cls-11" d="M782.2,351.8v-5.8c0-.4.2-.7.6-.8.4,0,.7.2.8.6v.5h0c.3-.6.9-1,1.6-1,1.3,0,2.1,1,2.1,2.7s-.8,2.7-2.1,2.7-1.3-.4-1.6-1h0v2c0,.4-.2.8-.6.8s-.8-.2-.8-.6v-.2h0ZM786,348.1c0-1-.5-1.6-1.2-1.6s-1.2.6-1.2,1.6.5,1.6,1.2,1.6,1.2-.6,1.2-1.6h0Z"/>
        <path class="cls-11" d="M445.6,368.3v-7.2c0-.5.3-.9.8-1h2.7c2.8,0,4.4,1.6,4.4,4.6s-1.6,4.6-4.4,4.6h-2.5c-.5,0-.9-.3-1-.8v-.2ZM448.9,367.7c1.7,0,2.6-1,2.6-3s-1-3-2.6-3h-1.3v6h1.3Z"/>
        <path class="cls-11" d="M454.3,365.9c0-2.2,1.3-3.6,3.3-3.6,1.7-.1,3.1,1.1,3.2,2.8v.4c0,.4-.3.8-.7.8h-4c0,.9.5,1.7,1.3,1.8h.2c.6,0,1.3-.3,1.6-.8.1-.2.4-.3.6-.3.4,0,.7.2.7.6h0c0,.2,0,.3-.1.4-.6.9-1.7,1.5-2.8,1.3-1.7.1-3.3-1.2-3.4-2.9v-.6h0ZM459.1,365.2c0-.8-.6-1.4-1.3-1.5h0c-.8,0-1.5.7-1.5,1.5h2.9-.1Z"/>
        <path class="cls-11" d="M462.3,368.5v-4.6h-.4c-.4,0-.7-.3-.7-.7s.3-.7.7-.7h.4v-.5c-.2-.9.4-1.8,1.4-2h.6c1,0,1.4.3,1.4.8s-.1.4-.4.5h-.3c-.6,0-.8.2-.8.8v.4h.8c.4,0,.7.3.7.7s-.3.7-.7.7h-.7v4.6c0,.5-.3,1-.8,1s-1-.3-1-.8v-.2h-.2Z"/>
        <path class="cls-11" d="M466,365.9c0-2.2,1.3-3.6,3.3-3.6s3.1,1.2,3.2,2.9v.3c0,.4-.3.8-.7.8h-4.1c0,.9.5,1.7,1.3,1.8h.2c.6,0,1.3-.3,1.6-.8.1-.2.4-.3.6-.3.4,0,.7.3.7.6h0c0,.2,0,.3-.1.4-.6.9-1.7,1.4-2.8,1.3-1.7.1-3.3-1.2-3.4-2.9v-.6h.2ZM470.7,365.2c0-.8-.6-1.4-1.3-1.5h0c-.8,0-1.5.7-1.5,1.5h2.9-.1Z"/>
        <path class="cls-11" d="M473.5,368.5v-5.2c0-.5.3-.9.7-.9h.1c.5,0,.9.3.9.8h0v.5h0c.3-.8,1.2-1.4,2.1-1.3,1.2,0,2.3.9,2.4,2.1v4c0,.5-.3,1-.8,1s-1-.3-1-.8v-3.4c0-.9-.4-1.4-1.2-1.4s-1.4.6-1.4,1.3v3.3c0,.5-.3,1-.8,1s-1-.3-1-.8v-.2h0Z"/>
        <path class="cls-11" d="M480.7,365.9c0-2.2,1.1-3.5,2.8-3.5s1.7.5,2.1,1.3h0v-2.7c0-.5.3-1,.8-1s1,.3,1,.8v7.7c0,.5-.3,1-.8,1s-1-.3-1-.8v-.6h0c-.4.8-1.2,1.4-2.1,1.3-1.7,0-2.8-1.4-2.8-3.5h0ZM485.6,365.9c0-1.2-.6-2-1.5-2s-1.5.8-1.5,2,.6,2,1.5,2,1.5-.8,1.5-2h0Z"/>
        <path class="cls-11" d="M488.5,365.9c0-2.2,1.3-3.6,3.3-3.6s3.1,1.2,3.2,2.9v.3c0,.4-.3.8-.7.8h-4.1c0,.9.5,1.7,1.3,1.8h.2c.6,0,1.3-.3,1.6-.8.1-.2.4-.3.6-.3.4,0,.7.3.7.6h0c0,.2,0,.3-.1.4-.6.9-1.7,1.4-2.8,1.3-2.1,0-3.4-1.3-3.4-3.5h.2ZM493.2,365.2c0-.8-.6-1.4-1.3-1.5h0c-.8,0-1.5.7-1.5,1.5h2.9-.1Z"/>
        <path class="cls-11" d="M495.9,368.5v-5.2c0-.5.3-.9.8-1s.9.3,1,.8v.6h0c0-.7.7-1.3,1.4-1.3s.4,0,.6.2.3.4.3.7,0,.5-.3.7c-.2.2-.5.3-.8.2-.8,0-1.2.5-1.2,1.3v3c0,.5-.3,1-.8,1s-1-.3-1-.8v-.2h0Z"/>
        <path class="cls-11" d="M503.3,367.7c0-.2-.1-.3,0-.5,0-.4.3-.8.8-.8h0c.4,0,.7.2.9.6.4.7,1.1,1.1,1.9,1,1,0,1.7-.5,1.7-1.2s-.4-.9-1.6-1.2l-1-.2c-1.8-.4-2.7-1.2-2.7-2.6s1.5-2.8,3.5-2.8,2.9.7,3.3,1.9v.4c0,.4-.3.8-.7.8h0c-.4,0-.8-.2-.9-.6-.3-.7-1-1.1-1.7-1-.9,0-1.6.4-1.6,1.1s.4.9,1.5,1.1l1,.2c1.9.4,2.8,1.2,2.8,2.6s-1.4,2.9-3.7,2.9-3.1-.7-3.5-1.7h0Z"/>
        <path class="cls-11" d="M511.4,370.7v-7.4c0-.5.2-.9.7-1h.2c.5,0,.9.3.9.8v.6h0c.4-.8,1.2-1.3,2.1-1.3,1.7,0,2.8,1.3,2.8,3.5s-1.1,3.5-2.8,3.5-1.7-.4-2.1-1.2h0v2.6c0,.5-.3,1-.8,1s-1-.3-1-.8v-.2h0ZM516.3,365.9c0-1.2-.6-2-1.5-2s-1.5.8-1.5,2,.6,2,1.5,2,1.5-.8,1.5-2Z"/>
        <path class="cls-11" d="M518.9,367.3c0-1.2,1-2,2.7-2.1h1.7v-.5c0-.6-.4-1-1.1-1s-1,.3-1.3.7c-.2.2-.5.3-.7.3-.4,0-.7-.3-.8-.6h0v-.4c.3-.8,1.4-1.3,2.8-1.3s2.9.9,2.9,2.3v3.9c0,.5-.3.9-.7.9h-.2c-.5,0-.8-.3-.9-.7h0v-.3h0c-.4.7-1.2,1.2-2.1,1.2-1.2.1-2.2-.7-2.3-1.9v-.5ZM523.2,366.8v-.5h-1.4c-.7.1-1.1.4-1.1.9s.4.8,1,.8,1.4-.5,1.5-1.2h0Z"/>
        <path class="cls-11" d="M527.3,368.4l-1.4-4.7v-.6c0-.5.4-.8.8-.8h0c.4,0,.8.3.9.8l1,4.4h0l1.1-4.3c0-.6.7-.9,1.2-.8.4,0,.8.4.8.8l1.1,4.3h0l1-4.4c0-.4.4-.8.9-.8s.8.3.9.7h0c0,.2,0,.4,0,.6l-1.4,4.8c0,.6-.6,1-1.2,1s-1.1-.4-1.2-1h0l-1-4h0l-1,4c0,.6-.6,1-1.2,1h0c-.6,0-1.1-.4-1.2-1h0Z"/>
        <path class="cls-11" d="M536.5,368.5v-5.2c0-.5.3-.9.7-.9h.2c.5,0,.9.3.9.8h0v.5h0c.3-.8,1.2-1.4,2.1-1.3,1.2,0,2.3.9,2.4,2.1v4c0,.5-.3,1-.8,1s-1-.3-1-.8v-3.4c0-.9-.4-1.4-1.2-1.4s-1.4.6-1.4,1.3v3.3c0,.5-.4.9-.9.9s-.9-.4-.9-.9h0Z"/>
        <path class="cls-11" d="M60.2,387.4v-5.2h-1.4c-.3,0-.6-.3-.6-.6s.3-.6.6-.6h4.4c.3,0,.6.3.6.6s-.3.6-.6.6h-1.5v5.2c0,.4-.3.7-.7.7s-.7-.3-.7-.7h0Z"/>
        <path class="cls-11" d="M63.1,385.5c0-1.4,1.3-2.5,2.7-2.5s2.5,1.3,2.5,2.7-1.2,2.5-2.6,2.5-2.5-1-2.6-2.3v-.4h0ZM66.8,385.5c0-1-.4-1.6-1.1-1.6s-1.1.6-1.1,1.6.4,1.6,1.1,1.6,1.1-.6,1.1-1.6h0Z"/>
        <path class="cls-11" d="M69.8,387.4l-1.1-3.7v-.4c0-.3.3-.6.6-.6h0c.3,0,.6.3.7.6l.8,3.4h0l.8-3.3c0-.4.5-.7.9-.7s.6.3.7.7l.8,3.3h0l.8-3.4c0-.3.3-.6.7-.6s.6.2.7.6h0v.4l-1.1,3.7c0,.5-.5.8-.9.8s-.9-.3-.9-.8h0l-.8-3.1h0l-.8,3.1c0,.5-.5.8-.9.8s-.7-.2-.9-.8h0Z"/>
        <path class="cls-11" d="M76.5,385.5c-.2-1.4.8-2.6,2.2-2.7h.4c1.3,0,2.4.9,2.5,2.2v.2c0,.3-.2.6-.5.6h-3.1c0,.7.4,1.3,1,1.3h.2c.5,0,1-.2,1.2-.6,0-.1.3-.2.5-.2.3,0,.5.2.5.5h0c0,.1,0,.2,0,.3-.5.7-1.3,1.1-2.2,1-1.3,0-2.5-.9-2.6-2.3v-.4h0ZM80.2,384.9c0-.6-.4-1.1-1-1.1h0c-.6,0-1.1.5-1.1,1.1h2.2,0Z"/>
        <path class="cls-11" d="M82.3,387.4v-4c0-.4.2-.7.6-.7h0c.4,0,.7.3.7.6h0v.3h0c0-.6.5-1,1.1-1s.3,0,.4.1.2.3.2.5,0,.4-.2.5-.4.2-.6.2c-.6,0-.9.4-.9,1v2.3c0,.4-.2.8-.6.8s-.8-.2-.8-.6v-.2h0v.2Z"/>
        <path class="cls-11" d="M625.2,70c0-2.3,1.3-3.6,3.4-3.6s2.2.5,2.8,1.5c0,0,0,.3,0,.5,0,.3-.3.6-.6.6h0c-.3,0-.6-.2-.7-.4-.3-.6-.9-1-1.5-.9-1.2,0-1.9.9-1.9,2.4s.7,2.5,1.9,2.5,1.6-.5,1.7-1.4h0c0-.2-1-.2-1-.2-.3,0-.6-.2-.6-.5s.2-.6.5-.6h1.8c.4,0,.7.3.7.6h0c0,1.8-1.1,3.1-2.7,3.2h-.4c-2.1,0-3.4-1.4-3.4-3.7h0Z"/>
        <path class="cls-11" d="M632.3,72.1c0-1,.7-1.5,2-1.6h1.3v-.5c0-.5-.3-.8-.9-.8s-.8.2-1,.5c0,.2-.3.3-.6.3s-.6-.2-.6-.5h0v-.3c.2-.6,1.1-1,2.2-1s2.2.7,2.2,1.7v3c0,.4-.2.7-.6.7h0c-.3,0-.7-.2-.7-.6h0v-.3h0c-.3.6-1,.9-1.6.9-.9,0-1.7-.6-1.7-1.5h0ZM635.7,71.7v-.4h-1.1c-.5,0-.8.4-.8.7s.3.6.8.6,1.1-.3,1.1-.8h0Z"/>
        <path class="cls-11" d="M638.4,69.4h-.3c-.3,0-.6-.2-.6-.5s.2-.6.5-.6h.4v-.6c0-.4.2-.8.6-.8s.8.2.8.6v.8h.5c.3,0,.6.2.6.5s-.2.6-.5.6h-.6v2.5c0,.4,0,.5.4.5h0c.4,0,.5.2.5.5s-.4.6-1,.6h0c-.7,0-1.3-.4-1.4-1.1v-3.1h.1Z"/>
        <path class="cls-11" d="M641.3,71c-.2-1.3.8-2.6,2.2-2.7h.4c1.3,0,2.4.9,2.5,2.2v.2c0,.3-.2.6-.5.6h-3.1c0,.7.4,1.3,1,1.3h.2c.5,0,1-.2,1.2-.6,0,0,.3-.2.5-.2.3,0,.5.2.5.5h0v.3c-.5.7-1.3,1.1-2.2,1-1.3,0-2.5-.9-2.6-2.3v-.4h-.1ZM645,70.5c0-.6-.4-1.1-1-1.1h0c-.6,0-1.1.5-1.1,1.1h2.2-.1Z"/>
        <path class="cls-11" d="M333.9,225v-5.5c0-.4.2-.7.6-.8h2.4c1.3,0,2.2.7,2.2,1.8s-.6,1.4-1.3,1.5h0c.9,0,1.7.8,1.7,1.7s-.9,2-2.4,2h-2.4c-.4,0-.7-.3-.7-.6h-.1ZM336.4,221.6c.8,0,1.2-.3,1.2-1s-.4-.9-1.1-.9h-1.2v1.8h1.1ZM336.6,224.6c.9,0,1.3-.4,1.3-1s-.5-1-1.3-1h-1.2v2h1.3,0Z"/>
        <path class="cls-11" d="M340,223.1c-.2-1.4.8-2.6,2.2-2.7h.4c1.3,0,2.4.9,2.5,2.2v.2c0,.3-.2.6-.5.6h-3.1c0,.7.4,1.3,1,1.3h.2c.5,0,1-.2,1.2-.6.1-.1.3-.2.5-.2.3,0,.5.2.5.5h0v.3c-.5.7-1.3,1.1-2.2,1-1.3,0-2.5-.9-2.6-2.3v-.4h-.1ZM343.6,222.6c0-.6-.4-1.1-1-1.1h0c-.6,0-1.1.5-1.1,1.1h2.2-.1Z"/>
        <path class="cls-11" d="M345.7,225.1v-4c0-.4.2-.7.6-.7h.1c.4,0,.7.2.7.6h0v.4h0c.3-.6.9-1.1,1.6-1,.9,0,1.8.6,1.8,1.6v3.1c0,.4-.3.7-.7.7s-.7-.3-.7-.7v-2.4c0-.7-.3-1.1-1-1.1s-1,.4-1,1v2.6c0,.4-.2.7-.6.7h-.1c-.4,0-.7-.3-.7-.6h0c0-.1,0-.2,0-.2Z"/>
        <path class="cls-11" d="M351.3,223.1c-.1-1.4.8-2.6,2.2-2.7h.4c.9,0,1.8.4,2.2,1.2v.3c0,.3-.3.6-.6.6h0c-.3,0-.5-.1-.6-.4-.2-.4-.6-.7-1-.7-.7,0-1.2.6-1.2,1.6s.4,1.6,1.2,1.6.8-.2,1-.6c.1-.3.4-.4.6-.4.3,0,.6.2.6.5h0v.4c-.4.8-1.3,1.3-2.2,1.2-1.4,0-2.5-1-2.6-2.3v-.4h0Z"/>
        <path class="cls-11" d="M357,225.1v-5.8c0-.4.3-.7.7-.7s.7.3.7.7h0v2.1h0c.3-.6.9-1,1.6-1,1,0,1.8.7,1.8,1.6v3.1c0,.4-.2.7-.6.7h-.1c-.4,0-.7-.2-.7-.6h0v-2.5c0-.7-.3-1.1-1-1.1s-1,.4-1.1.9v2.5c0,.4-.3.7-.7.7s-.7-.3-.7-.7h.1Z"/>
        <path class="cls-11" d="M566.3,586.5v-5.6c0-.4.2-.7.6-.8h2.3c1.6,0,2.5.8,2.5,2.2s-.4,1.6-1.2,2l1,1.8c0,.2.2.3.2.5,0,.4-.3.7-.7.7h0c-.3,0-.5,0-.8-.6l-1.2-2.1h-1.3v1.9c0,.4-.2.8-.6.8s-.8-.2-.8-.6v-.2h0ZM569.1,583.5c.6,0,1.1-.4,1.2-1v-.2c0-.6-.4-1.1-1-1.1h-1.5v2.2h1.3Z"/>
        <path class="cls-11" d="M572.4,584.6c0-1.4,1.3-2.5,2.7-2.4,1.4,0,2.5,1.3,2.4,2.7,0,1.4-1.2,2.4-2.6,2.4s-2.5-1-2.6-2.3v-.4h0ZM576.1,584.6c0-1-.5-1.6-1.1-1.6s-1.2.6-1.2,1.6.5,1.6,1.2,1.6,1.1-.6,1.1-1.6h0Z"/>
        <path class="cls-11" d="M578.3,588.3v-5.7c0-.4.3-.7.7-.7s.7.3.7.7v.3h0c.3-.6.9-1,1.6-1,1.3,0,2.2,1,2.2,2.7s-.8,2.7-2.1,2.7-1.3-.4-1.6-1h0v2c0,.4-.3.7-.7.7s-.7-.3-.7-.7h-.1ZM582,584.6c0-1-.5-1.6-1.2-1.6s-1.2.6-1.2,1.6.5,1.6,1.2,1.6,1.2-.6,1.2-1.6h0Z"/>
        <path class="cls-11" d="M584.1,584.6c-.2-1.4.8-2.6,2.2-2.7h.4c1.3,0,2.4.9,2.5,2.2v.2c0,.3-.2.6-.5.6h-3.1c0,.7.4,1.3,1,1.3h.2c.5,0,1-.2,1.2-.6,0,0,.3-.2.5-.2.3,0,.5.2.6.5h0v.3c-.5.7-1.3,1.1-2.2,1-1.3,0-2.5-.9-2.6-2.3v-.4h-.2ZM587.7,584c0-.6-.4-1.1-1-1.1h0c-.6,0-1.1.5-1.1,1.1h2.2-.1Z"/>
        <path class="cls-11" d="M97.8,625.3v-5.5c0-.4.2-.7.6-.8h2.4c1.3,0,2.1.7,2.1,1.8s-.6,1.4-1.3,1.5h0c.9,0,1.7.8,1.7,1.7s-.9,2-2.4,2h-2.4c-.4,0-.7-.3-.7-.6h0ZM100.3,622c.8,0,1.2-.3,1.2-1s-.4-.9-1.1-.9h-1.2v1.8h1.1ZM100.6,625c.9,0,1.3-.4,1.3-1s-.5-1-1.3-1h-1.2v2h1.3-.1Z"/>
        <path class="cls-11" d="M106.2,625.5v-5.6c0-.5.3-.9.8-1h.2c.5,0,.9.3,1,.8l1.8,4.3h0l1.7-4.3c0-.5.5-.8,1-.8s.9.3.9.8v5.8c0,.4-.3.7-.7.7s-.7-.3-.7-.7v-4.2h0l-1.7,4.3c0,.4-.5.5-.8.4-.2,0-.4-.2-.4-.4l-1.7-4.3h0v4.2c0,.4-.2.7-.6.7s-.7-.2-.7-.6v-.2h-.1Z"/>
        <path class="cls-11" d="M114.4,624.6c0-1,.7-1.5,2-1.6h1.3v-.4c0-.5-.3-.8-.9-.8s-.8.2-1,.6c0,.2-.3.3-.6.3s-.6-.2-.6-.5h0v-.3c.2-.6,1.1-1,2.2-1s2.2.7,2.2,1.7v3c0,.4-.2.7-.6.7h0c-.3,0-.7-.2-.7-.6h0v-.3h0c-.3.6-.9.9-1.6.9s-1.7-.6-1.7-1.5h0c0,0,0-.2,0-.2ZM117.7,624.1v-.4h-1.1c-.5,0-.8.3-.8.7s.3.6.8.6,1-.3,1.1-.9h0c0,0,0,0,0,0Z"/>
        <path class="cls-11" d="M120.1,619.4c0-.4.3-.8.7-.8s.8.3.8.7-.3.8-.7.8h0c-.4,0-.7-.3-.8-.7h0ZM120.1,625.4v-4c0-.4.3-.7.7-.7s.7.3.7.7h0v4c0,.4-.3.7-.7.7s-.7-.3-.7-.7h0Z"/>
        <path class="cls-11" d="M122.5,625.4v-4c0-.4.2-.7.6-.7h0c.4,0,.7.2.7.6h0v.4h0c.3-.6.9-1.1,1.6-1,1,0,1.8.7,1.8,1.6v3.1c0,.4-.2.8-.6.8s-.8-.2-.8-.6v-2.6c0-.7-.3-1.1-1-1.1s-1,.4-1,1v2.6c0,.4-.2.8-.6.8s-.8-.2-.8-.6v-.2h0Z"/>
        <path class="cls-11" d="M672.7,208.2v-5.5c0-.4.2-.7.6-.8h2.1c2.1,0,3.4,1.3,3.4,3.5s-1.2,3.5-3.4,3.5h-2c-.4,0-.7-.3-.7-.7h0c0-.1,0,0,0,0ZM675.2,207.8c1.3,0,2-.8,2-2.3s-.7-2.3-2-2.3h-1v4.6h1Z"/>
        <path class="cls-11" d="M679.6,202.4c0-.4.3-.7.7-.7h0c.4,0,.8.2.8.6s-.2.8-.6.8h-.2c-.4,0-.7-.3-.8-.7h0ZM679.6,208.4v-4c0-.4.2-.7.6-.7h0c.4,0,.7.3.7.7h0v4c0,.4-.2.7-.6.7h0c-.4,0-.7-.3-.7-.6h0q0-.1,0,0Z"/>
        <path class="cls-11" d="M681.9,208v-.3c0-.3.2-.5.5-.6h0c.2,0,.5.1.6.3.3.4.7.6,1.1.5.5,0,.9-.2.9-.6s-.2-.4-.7-.5l-.9-.2c-1-.2-1.5-.7-1.5-1.5s.9-1.7,2.2-1.7,1.6.3,2,1.1v.2c0,.3-.2.5-.5.5s-.4,0-.5-.2c-.2-.3-.6-.5-1-.6-.5,0-.8.2-.8.6s.2.5.7.6l.9.2c1.1.2,1.6.6,1.6,1.4s-.9,1.7-2.3,1.7-1.9-.4-2.2-1.1v.2Z"/>
        <path class="cls-11" d="M687.2,208.3v-5.8c0-.4.3-.7.7-.7s.7.3.7.7v2.1h0c.3-.6.9-1.1,1.7-1,1,0,1.8.7,1.8,1.7v3c0,.4-.3.7-.7.7s-.7-.3-.7-.7h0v-2.4c0-.7-.3-1.1-1-1.1s-1,.4-1.1.9v2.5c0,.4-.2.8-.6.8s-.8-.2-.8-.6v-.2h0Z"/>
        <path class="cls-11" d="M240.9,779.4v-5.2h-1.5c-.3,0-.6-.3-.6-.6s.3-.6.6-.6h4.4c.3,0,.6.3.6.6s-.3.6-.6.6h-1.5v5.2c0,.4-.3.7-.7.7s-.7-.3-.7-.7Z"/>
        <path class="cls-11" d="M244.5,779.4v-4c0-.4.2-.7.6-.8.4,0,.7.2.8.6v.5h0c0-.6.5-1,1.1-1s.3,0,.5,0c.1,0,.2.3.2.5s0,.4-.2.5-.4.2-.6.2c-.6,0-.9.4-.9,1v2.3c0,.4-.2.7-.6.7h-.1c-.4,0-.7-.3-.7-.7h0c0,0-.1.1-.1.1Z"/>
        <path class="cls-11" d="M247.7,777.4c-.2-1.4.8-2.6,2.2-2.7h.4c1.3,0,2.4.9,2.5,2.2v.2c0,.3-.2.6-.5.6h-3.1c0,.7.4,1.3,1,1.3h.2c.5,0,1-.2,1.2-.6.1,0,.3-.2.5-.2.3,0,.5.2.5.5h0v.3c-.5.7-1.3,1.1-2.2,1-1.3,0-2.5-.9-2.6-2.3v-.4h0ZM251.4,776.9c0-.6-.4-1.1-1-1.1h0c-.6,0-1.1.5-1.1,1.1h2.2,0Z"/>
        <path class="cls-11" d="M253.3,777.4c-.2-1.4.8-2.6,2.2-2.7h.4c1.3,0,2.4.9,2.5,2.2v.2c0,.3-.2.6-.5.6h-3.1c0,.7.4,1.3,1,1.3h.2c.5,0,1-.2,1.2-.6.1,0,.3-.2.5-.2.3,0,.5.2.5.5h0v.3c-.5.7-1.3,1.1-2.2,1-1.3,0-2.5-.9-2.6-2.3v-.4h0ZM256.9,776.9c0-.6-.4-1.1-1-1.1h0c-.6,0-1.1.5-1.1,1.1h2.2-.1Z"/>
        <path class="cls-11" d="M149.4,284.7c0-.2,0-.3.1-.5l1.9-5.2c.2-.6.8-1,1.5-.8.4.1.7.4.8.8l1.9,5.2c0,.1,0,.3.1.5,0,.4-.3.7-.7.7h0c-.4,0-.6-.2-.8-.7l-.4-1.1h-2.5l-.4,1.1c-.1.5-.4.7-.8.7s-.7-.2-.7-.6h0q0-.1,0-.1ZM153.4,282.5l-.9-2.9h0l-.9,2.9h1.8,0Z"/>
        <path class="cls-11" d="M156.4,284.7v-4c0-.4.2-.7.6-.7h0c.4,0,.7.3.7.6h0v.3h0c0-.6.5-1,1.1-1s.3,0,.4.1c.2.1.2.3.2.5s0,.4-.2.5-.4.2-.6.2c-.6,0-.9.4-.9,1v2.3c0,.4-.3.7-.7.7s-.7-.3-.7-.7h0v.2Z"/>
        <path class="cls-11" d="M159.7,282.7c-.1-1.4.8-2.6,2.2-2.7h.4c.9,0,1.8.4,2.2,1.2v.3c0,.3-.3.6-.6.6h0c-.3,0-.5-.1-.6-.4-.2-.4-.6-.7-1-.7-.7,0-1.2.6-1.2,1.6s.4,1.6,1.2,1.6.8-.2,1-.6c.1-.3.4-.4.6-.4.3,0,.6.2.6.5h0v.4c-.4.8-1.3,1.3-2.2,1.2-1.4,0-2.5-1-2.6-2.3v-.4h0Z"/>
        <path class="cls-11" d="M165.1,283.8c0-1,.7-1.5,2-1.6h1.3v-.4c0-.5-.3-.8-.9-.8s-.8.2-1,.6-.3.3-.6.3-.6-.2-.6-.5h0v-.3c.5-.7,1.3-1.1,2.2-1,1.4,0,2.2.7,2.2,1.8v3c0,.4-.2.7-.6.7h-.1c-.4,0-.7-.2-.7-.6h0v-.3h0c-.3.6-.9.9-1.6.9s-1.7-.6-1.8-1.5h0c0-.1.2-.3.2-.3ZM168.5,283.4v-.3h-1.1c-.5,0-.8.3-.8.7s.3.6.8.6,1.1-.4,1.1-1h0Z"/>
        <path class="cls-11" d="M170.6,282.7c0-1.7.8-2.7,2.1-2.7s1.3.4,1.6,1h0v-2.1c0-.4.3-.7.7-.7s.7.3.7.7h0v5.8c0,.4-.3.7-.7.7s-.7-.3-.7-.7h0v-.3h0c-.3.6-.9,1-1.6,1-1.3,0-2.1-1.1-2.1-2.7h0ZM174.4,282.7c0-1-.5-1.6-1.2-1.6s-1.1.6-1.1,1.6.4,1.6,1.1,1.6,1.2-.6,1.2-1.5h0Z"/>
        <path class="cls-11" d="M176.6,282.7c-.2-1.4.8-2.6,2.2-2.7h.4c1.3,0,2.4.9,2.5,2.2v.2c0,.3-.2.6-.5.6h-3.1c0,.7.4,1.3,1,1.3h.2c.5,0,1-.2,1.2-.6.1-.1.3-.2.5-.2.3,0,.5.2.6.5h0c0,.1,0,.2-.1.3-.5.7-1.3,1.1-2.2,1-1.3,0-2.5-.9-2.6-2.3v-.4h0ZM180.2,282.1c0-.6-.4-1.1-1-1.1h0c-.6,0-1.1.5-1.1,1.1h2.2,0Z"/>
        <path class="cls-11" d="M45.7,489.8v-16c0-1.1.7-2.1,1.8-2.2h7.2c3.8,0,6.2,2,6.2,5.1s-1.6,4.1-3.8,4.4h0c2.7.2,4.8,2.4,4.8,5s-2.7,5.8-7.1,5.8h-6.9c-1.1,0-2.1-.7-2.1-1.8v-.4h-.1ZM53,480.1c2.3,0,3.6-1,3.6-2.7s-1.1-2.6-3.1-2.6h-3.5v5.3h3.1,0ZM53.6,488.9c2.5,0,3.8-1,3.8-3s-1.4-2.9-3.9-2.9h-3.6v5.9h3.7Z"/>
        <path class="cls-11" d="M884.4,451.2c-1.1,0-1.8-.6-2.2-1.9l-1.1-3.2h-7.4l-1.1,3.2c-.4,1.3-1,1.9-2.2,1.9s-2.1-.8-2.1-1.9h0c0-.6,0-1,.3-1.5l5.6-15.2c.5-1.8,2.4-2.8,4.2-2.3,1.1.3,1.9,1.2,2.3,2.3l5.6,15.2c.2.4.3.9.3,1.4,0,1.1-.9,2-2,2h-.2,0ZM880.2,442.7l-2.7-8.4h0l-2.7,8.4h5.5,0Z"/>
        <path class="cls-11" d="M271.7,542.4c0-2.3,1.3-3.6,3.3-3.6s2.3.6,2.8,1.6c0,.2.1.4.1.6,0,.3-.2.6-.6.6h0c-.3,0-.6-.2-.7-.5-.3-.7-.9-1.1-1.6-1.1-1.1,0-1.8.9-1.8,2.4s.7,2.4,1.8,2.4,1.3-.4,1.6-1c.1-.4.5-.5.9-.4.3,0,.4.3.5.6,0,.2,0,.3-.1.5-.5,1-1.7,1.7-2.8,1.6-2.1,0-3.4-1.4-3.4-3.7h0Z"/>
        <path class="cls-11" d="M278.7,544.5c0-1,.7-1.5,2-1.6h1.3v-.4c0-.5-.4-.8-.9-.8s-.8.2-1,.6c-.1.2-.3.3-.6.3s-.6-.2-.6-.5h0v-.3c.5-.7,1.3-1.1,2.2-1,1.3,0,2.2.7,2.2,1.8v3c0,.4-.2.7-.6.7h-.1c-.3,0-.7-.2-.7-.6h0v-.3h0c-.3.6-.9.9-1.6.9s-1.7-.6-1.8-1.5v-.2h.2ZM282.1,544v-.4h-1.1c-.5,0-.8.3-.8.7s.3.6.8.6,1.1-.3,1.1-.8h0Z"/>
        <path class="cls-11" d="M284.4,545.3v-4c0-.4.2-.7.6-.7h.1c.4,0,.7.2.7.6h0v.4h0c.3-.7.9-1.1,1.6-1,.9,0,1.8.7,1.8,1.6v3.1c0,.4-.3.7-.7.7s-.7-.3-.7-.7v-2.4c0-.7-.3-1.1-1-1.1s-1,.4-1.1.9v2.6c0,.4-.2.7-.6.7h-.1c-.4,0-.7-.3-.7-.7h.1Z"/>
        <path class="cls-11" d="M290.5,541.8h-.3c-.3,0-.5-.2-.5-.5h0c0-.3.2-.5.5-.5h.3v-.6c0-.4.3-.7.7-.7s.7.3.7.7v.6h.5c.3,0,.5.2.5.5h0c0,.3-.2.5-.5.5h-.5v2.5c0,.4.1.5.4.6h0c.4,0,.5.2.5.5s-.4.6-1,.6h0c-.7,0-1.3-.4-1.4-1.1v-3.1h0Z"/>
        <path class="cls-11" d="M293.4,543.4c-.2-1.4.8-2.6,2.2-2.7h.4c1.3,0,2.4.9,2.5,2.2v.2c0,.3-.2.6-.5.6h-3.1c0,.7.4,1.3,1,1.4h.2c.5,0,1-.2,1.2-.6.1,0,.3-.2.5-.2.3,0,.5.2.6.5h0c0,0,0,.2-.1.3-.5.7-1.3,1.1-2.2,1-1.3,0-2.5-.9-2.6-2.2v-.5h-.1ZM297.1,542.8c0-.6-.4-1.1-1-1.1h0c-.6,0-1.1.5-1.1,1.1h2.2-.1Z"/>
        <path class="cls-11" d="M299,543.4c-.2-1.4.8-2.6,2.2-2.7h.4c1.3,0,2.4.9,2.5,2.2v.3c0,.3-.2.6-.5.6h-3.1c0,.7.4,1.3,1,1.3h.1c.5,0,1-.2,1.2-.6.1,0,.3-.2.5-.2.3,0,.5.2.5.5h0v.3c-.5.7-1.3,1.1-2.2,1-1.3,0-2.5-.9-2.6-2.2v-.5h0ZM302.6,542.8c0-.6-.4-1.1-1-1.1h0c-.6,0-1.1.5-1.1,1.1s0,0,0,0h2.2-.1Z"/>
        <path class="cls-11" d="M304.7,545.3v-4c0-.4.2-.7.6-.7h.1c.4,0,.7.2.7.6h0v.4h0c.3-.6.9-1.1,1.6-1,.9,0,1.8.6,1.8,1.6v3.1c0,.4-.2.8-.6.8s-.8-.2-.8-.6v-2.6c0-.7-.3-1.1-1-1.1s-1,.4-1,1v2.6c0,.4-.2.8-.6.8s-.8-.2-.8-.6v-.2h0Z"/>
        <path class="cls-11" d="M283.1,322.6v-5.2h-1.5c-.3,0-.6-.3-.6-.6s.3-.6.6-.6h4.4c.3,0,.6.3.6.6s-.3.6-.6.6h-1.5v5.2c0,.4-.2.8-.6.8s-.8-.2-.8-.6v-.2h0Z"/>
        <path class="cls-11" d="M286.6,321.4v-2.7c0-.4.3-.7.7-.7s.7.3.7.7v2.4c0,.7.4,1.1,1,1.1s1-.4,1-1v-2.6c0-.4.2-.8.6-.8s.8.2.8.6v4.2c0,.4-.3.7-.7.7s-.7-.3-.7-.7h0v-.3h0c-.2.6-.9,1-1.6,1-1,0-1.8-.7-1.9-1.7v-.2h.1Z"/>
        <path class="cls-11" d="M292.4,322.6v-4c0-.4.2-.7.6-.7h.1c.4,0,.7.3.7.6h0v.3h0c.3-.7.9-1.1,1.6-1,1,0,1.8.7,1.8,1.6v3.1c0,.4-.3.7-.7.7s-.7-.3-.7-.7v-2.4c0-.7-.3-1.1-1-1.1s-1,.4-1.1.9v2.6c0,.4-.3.7-.7.7s-.7-.3-.7-.7h.1Z"/>
        <path class="cls-11" d="M298.2,322.6v-4c0-.4.2-.7.6-.7h.1c.4,0,.7.3.7.6h0v.3h0c.3-.6.9-1.1,1.6-1,1,0,1.8.7,1.8,1.6v3.1c0,.4-.2.7-.6.7h-.1c-.4,0-.7-.3-.7-.6h0v-2.5c0-.7-.3-1.1-1-1.1s-1,.4-1.1.9v2.6c0,.4-.3.7-.7.7s-.7-.3-.7-.7h.1Z"/>
        <path class="cls-11" d="M303.8,320.6c-.2-1.4.8-2.6,2.2-2.7h.4c1.3,0,2.4.9,2.5,2.2v.2c0,.3-.2.6-.5.6h-3.1c0,.7.4,1.3,1,1.3h.2c.5,0,1-.2,1.2-.6.1-.1.3-.2.5-.2.3,0,.5.2.6.5h0c0,.1,0,.2-.1.3-.5.7-1.3,1.1-2.2,1-1.3,0-2.5-.9-2.6-2.3v-.4h-.1ZM307.4,320.1c0-.6-.4-1.1-1-1.1h0c-.6,0-1.1.5-1.1,1.1h2.2-.1Z"/>
        <path class="cls-11" d="M309.5,322.6v-5.8c0-.4.2-.7.6-.7h.1c.4,0,.7.3.7.6h0v5.9c0,.4-.2.7-.6.7h-.1c-.4,0-.7-.2-.7-.6h0Z"/>
        <path class="cls-11" d="M740.9,713.9v-.5l1.9-5.2c.2-.6.8-1,1.5-.8.4,0,.7.4.8.8l1.9,5.2v.5c0,.4-.3.7-.7.7h0c-.4,0-.6-.2-.8-.7l-.4-1.1h-2.5l-.4,1.1c0,.5-.4.7-.8.7s-.7-.2-.7-.6h0c0,0,.2-.1.2-.1ZM745,711.7l-.9-2.9h0l-.9,2.9h1.8Z"/>
        <path class="cls-11" d="M750.1,713.9v-5.6c0-.5.2-.9.7-1h.3c.5,0,.9.3,1,.8l1.8,4.3h0l1.7-4.3c0-.5.5-.8,1-.8s.9.2,1,.7v5.9c0,.4-.3.7-.7.7s-.7-.3-.7-.7v-4.2h0l-1.8,4.3c0,.3-.3.5-.6.4-.3,0-.6-.2-.6-.4l-1.7-4.3h0v4.2c0,.4-.2.7-.6.7s-.7-.2-.7-.6v-.2h-.1Z"/>
        <path class="cls-11" d="M758.3,713c0-1,.7-1.5,2-1.6h1.3v-.4c0-.5-.3-.8-.9-.8s-.8.2-1,.6c0,.2-.3.3-.6.3s-.6-.2-.6-.5h0v-.3c.5-.7,1.3-1.1,2.2-1,1.3,0,2.2.7,2.2,1.8v3c0,.4-.2.7-.6.7h0c-.3,0-.7-.2-.7-.6h0v-.3h0c-.3.6-.9.9-1.6.9s-1.7-.6-1.8-1.5v-.2h.2ZM761.6,712.6v-.4h-1.1c-.5,0-.8.3-.8.7s.3.6.8.6,1-.3,1.1-.9h0c0,0,0,0,0,0Z"/>
        <path class="cls-11" d="M763.9,707.9c0-.4.3-.8.7-.8s.8.3.8.7-.3.8-.7.8h0c-.4,0-.7-.3-.8-.7h0ZM763.9,713.9v-4c0-.4.3-.7.7-.7s.7.3.7.7h0v4c0,.4-.3.7-.7.7s-.7-.3-.7-.7h0Z"/>
        <path class="cls-11" d="M766.3,713.9v-4c0-.4.2-.7.6-.7h0c.4,0,.7.2.7.6h0v.4h0c.3-.6.9-1.1,1.6-1,.9,0,1.8.6,1.8,1.6v3.1c0,.4-.2.8-.6.8s-.8-.2-.8-.6v-2.6c0-.7-.3-1.1-1-1.1s-1,.4-1,1v2.6c0,.4-.2.8-.6.8s-.8-.2-.8-.6v-.2h0Z"/>
        <path class="cls-11" d="M602.5,382.3v-.5l1.9-5.2c0-.5.6-.9,1.1-.8.5,0,1,.3,1.1.8l1.9,5.2v.5c0,.4-.3.7-.7.7h0c-.4,0-.6-.2-.8-.7l-.4-1.1h-2.5l-.4,1.1c0,.5-.3.7-.7.7s-.7-.2-.7-.6h0c0-.1.2-.1.2-.1ZM606.6,380.1l-.9-2.9h0l-.9,2.9h1.8Z"/>
        <path class="cls-11" d="M611.7,382.1v-5.6c0-.4.3-.7.7-.7s.7.3.7.7h0v5.2h2.5c.3,0,.6.3.6.6s-.3.6-.6.6h-3.2c-.4,0-.7-.3-.7-.6h0v-.2Z"/>
        <path class="cls-11" d="M617,376.3c0-.4.3-.8.7-.8s.8.3.8.7-.3.8-.7.8h0c-.4,0-.7-.3-.8-.7h0ZM617,382.3v-4c0-.4.3-.7.7-.7s.7.3.7.7h0v4c0,.4-.3.7-.7.7s-.7-.3-.7-.7h0Z"/>
        <path class="cls-11" d="M619.4,382.3v-4c0-.4.2-.7.6-.7h0c.4,0,.7.2.7.6h0v.4h0c.3-.7.9-1.1,1.6-1,1,0,1.8.7,1.8,1.6v3.1c0,.4-.2.7-.6.7h0c-.4,0-.7-.3-.7-.6h0v-2.5c0-.7-.3-1.1-1-1.1s-1,.4-1,1v2.6c0,.4-.3.7-.7.7s-.7-.3-.7-.7h0Z"/>
        <path class="cls-11" d="M625.2,382.3v-5.8c0-.4.2-.7.6-.7h0c.4,0,.7.3.7.6h0v3.3h0l1.9-1.9c0-.2.3-.3.6-.3s.6.3.6.6h0c0,.2,0,.4-.3.5l-1.3,1.3,1.5,1.9c0,.1.2.3.2.5,0,.3-.3.6-.6.6h0c-.3,0-.6-.2-.7-.4l-1.3-1.8-.5.4v1.1c0,.4-.2.7-.6.7h0c-.4,0-.7-.3-.7-.6h0c0-.1-.1,0-.1,0Z"/>
        <path class="cls-11" d="M291.7,72.8v-5.5c0-.4.2-.7.6-.8h2.4c1.3,0,2.1.7,2.1,1.8s-.6,1.4-1.3,1.5h0c.9,0,1.7.8,1.7,1.7s-.9,2-2.4,2h-2.4c-.4,0-.7-.3-.7-.6h0ZM294.3,69.5c.8,0,1.2-.3,1.2-1s-.4-.9-1.1-.9h-1.2v1.8h1.1ZM294.5,72.5c.9,0,1.3-.4,1.3-1s-.5-1-1.4-1h-1.2v2h1.3Z"/>
        <path class="cls-11" d="M300.1,72.8v-5.6c0-.4.2-.8.6-.8s.8.2.8.6v5.4h2.5c.3,0,.6.3.6.6s-.3.6-.6.6h-3.2c-.4,0-.7-.3-.7-.7h0q0,0,0,0Z"/>
        <path class="cls-11" d="M305.1,71c0-1.4,1.3-2.5,2.7-2.5s2.5,1.3,2.5,2.7-1.2,2.5-2.6,2.5-2.5-1-2.6-2.3v-.4ZM308.9,71c0-1-.5-1.7-1.1-1.7s-1.1.6-1.1,1.7.4,1.6,1.1,1.6,1.1-.6,1.1-1.6h0Z"/>
        <path class="cls-11" d="M311.1,73v-5.8c0-.4.2-.7.6-.7h.1c.4,0,.7.3.7.6h0v2.2h0c.3-.6.9-1,1.6-1,1.3,0,2.1,1,2.1,2.7s-.8,2.7-2.1,2.7-1.3-.4-1.6-1h0v.3c0,.4-.2.7-.6.8-.4,0-.7-.2-.8-.6v-.2h0ZM314.8,71c0-1-.5-1.6-1.2-1.6s-1.2.6-1.2,1.6.5,1.5,1.2,1.5,1.2-.6,1.2-1.5h0Z"/>
        <path class="cls-11" d="M317.1,73v-5.8c0-.4.3-.7.7-.7s.7.3.7.7v2.1h0c.3-.6.9-1,1.6-1,1.3,0,2.1,1,2.1,2.7s-.8,2.7-2.1,2.7-1.3-.4-1.6-1h0v.3c0,.4-.2.7-.6.7h-.1c-.4,0-.7-.2-.7-.6h0ZM320.8,71c0-1-.5-1.6-1.2-1.6s-1.2.6-1.2,1.6.5,1.5,1.2,1.5,1.2-.6,1.2-1.5h0Z"/>
        <path class="cls-11" d="M322.8,74.9c0-.3.2-.5.4-.5h.2c.3,0,.6-.2.7-.5v-.2l-1.6-4.4v-.4c0-.4.3-.7.7-.7h0c.4,0,.6.2.7.6l1.1,3.6h0l1.1-3.6c0-.3.3-.6.7-.6s.7.2.7.6h0v.4l-1.5,4.4c-.5,1.3-1.1,1.8-2.2,1.8s-1-.2-1-.7v.2Z"/>
      </g>
    </g>
  </g>
</svg>