<?xml version="1.0" encoding="UTF-8" standalone="no"?>
<svg
   version="1.1"
   viewBox="0 0 856.1 953.1"
   id="svg180"
   sodipodi:docname="haven.svg"
   inkscape:version="1.4.2 (f4327f4, 2025-05-13)"
   xmlns:inkscape="http://www.inkscape.org/namespaces/inkscape"
   xmlns:sodipodi="http://sodipodi.sourceforge.net/DTD/sodipodi-0.dtd"
   xmlns="http://www.w3.org/2000/svg"
   xmlns:svg="http://www.w3.org/2000/svg">
  <sodipodi:namedview
     id="namedview180"
     pagecolor="#505050"
     bordercolor="#eeeeee"
     borderopacity="1"
     inkscape:showpageshadow="0"
     inkscape:pageopacity="0"
     inkscape:pagecheckerboard="0"
     inkscape:deskcolor="#505050"
     showgrid="false"
     inkscape:zoom="0.84671076"
     inkscape:cx="427.53679"
     inkscape:cy="476.54999"
     inkscape:window-width="1920"
     inkscape:window-height="1009"
     inkscape:window-x="1912"
     inkscape:window-y="-8"
     inkscape:window-maximized="1"
     inkscape:current-layer="Layer_1" />
  <defs
     id="defs1">
    <style
       id="style1">
      .cls-1 {
        fill: none;
        stroke: #fff;
        stroke-miterlimit: 10;
      }

      .cls-2 {
        fill: #3d3d3d;
      }

      .cls-3 {
        fill: #7e7f7e;
      }

      .cls-4 {
        fill: #fff;
      }

      .cls-5 {
        fill: #535353;
      }
    </style>
  </defs>
  <!-- Generator: Adobe Illustrator 28.6.0, SVG Export Plug-In . SVG Version: 1.2.0 Build 709)  -->
  <g
     id="g180">
    <g
       id="Layer_1">
      <g
         id="Callouts_copy-8"
         transform="translate(0.07436472,-0.81003863)">
        <path
           class="cls-4"
           d="m 350.8,898.7 c 0,-0.2 0,-0.4 0.1,-0.6 l 2.5,-6.8 c 0.2,-0.8 1.1,-1.3 1.9,-1 0.5,0 0.9,0.5 1,1 l 2.5,6.8 c 0,0.2 0.1,0.4 0.1,0.6 0,0.5 -0.4,0.9 -0.9,0.9 h -0.1 c -0.5,0 -0.8,-0.2 -1,-0.8 l -0.5,-1.4 h -3.3 l -0.5,1.4 c -0.2,0.6 -0.5,0.9 -1,0.9 -0.5,0 -0.9,-0.4 -0.9,-0.8 v 0 -0.2 z m 5.3,-2.8 -1.2,-3.8 v 0 l -1.2,3.8 z"
           id="path63"
           style="fill:#ffffff" />
        <path
           class="cls-4"
           d="m 360.1,894.1 h -0.4 c -0.4,0 -0.7,-0.3 -0.7,-0.7 0,-0.4 0.3,-0.7 0.7,-0.7 h 0.4 v -0.8 c 0,-0.5 0.3,-1 0.8,-1 0.5,0 1,0.3 1,0.8 v 1 h 0.7 c 0.4,0 0.7,0.3 0.7,0.7 0,0.4 -0.3,0.7 -0.7,0.7 h -0.7 v 3.3 c 0,0.5 0.2,0.7 0.6,0.7 h 0.1 c 0.5,0 0.7,0.2 0.7,0.7 0,0.5 -0.5,0.8 -1.3,0.8 v 0 c -0.9,0 -1.7,-0.5 -1.9,-1.4 z"
           id="path64"
           style="fill:#ffffff" />
        <path
           class="cls-4"
           d="m 364.6,894.1 h -0.4 c -0.4,0 -0.7,-0.3 -0.7,-0.7 0,-0.4 0.3,-0.7 0.7,-0.7 h 0.4 v -0.8 c 0,-0.5 0.3,-1 0.8,-1 0.5,0 1,0.3 1,0.8 v 1 h 0.7 c 0.4,0 0.7,0.3 0.7,0.7 0,0.4 -0.3,0.7 -0.7,0.7 h -0.7 v 3.3 c 0,0.5 0.2,0.7 0.6,0.7 h 0.1 c 0.5,0 0.7,0.2 0.7,0.7 0,0.5 -0.5,0.8 -1.3,0.8 v 0 c -0.9,0 -1.7,-0.5 -1.9,-1.4 z"
           id="path65"
           style="fill:#ffffff" />
        <path
           class="cls-4"
           d="m 368.4,897.6 c 0,-1.2 1,-2 2.6,-2 h 1.7 v -0.5 c 0,-0.6 -0.4,-1 -1.1,-1 -0.7,0 -1,0.3 -1.3,0.7 -0.2,0.2 -0.5,0.3 -0.7,0.3 -0.4,0 -0.7,-0.3 -0.8,-0.6 v 0 -0.4 c 0.3,-0.8 1.4,-1.3 2.8,-1.3 1.4,0 2.9,0.9 2.9,2.3 v 3.9 c 0,0.5 -0.3,0.9 -0.7,0.9 h -0.2 c -0.5,0 -0.8,-0.3 -0.9,-0.7 v 0 -0.3 0 c -0.4,0.7 -1.2,1.2 -2.1,1.2 -1.2,0 -2.2,-0.7 -2.3,-1.9 v -0.6 z m 4.4,-0.6 v -0.5 h -1.4 c -0.7,0 -1.1,0.4 -1.1,0.9 0,0.5 0.4,0.8 1,0.8 0.6,0 1.4,-0.4 1.5,-1.2 z"
           id="path66"
           style="fill:#ffffff" />
        <path
           class="cls-4"
           d="m 375.6,896.1 c -0.2,-1.8 1.1,-3.4 2.9,-3.5 h 0.5 c 1.2,0 2.3,0.6 2.9,1.6 0,0 0,0.3 0.1,0.5 0,0.4 -0.3,0.7 -0.7,0.7 v 0 c -0.3,0 -0.6,-0.2 -0.8,-0.5 -0.2,-0.5 -0.8,-0.9 -1.3,-0.9 -0.9,0 -1.5,0.8 -1.5,2.1 0,1.3 0.6,2.1 1.5,2.1 0.9,0 1.1,-0.3 1.3,-0.8 0.1,-0.3 0.5,-0.5 0.8,-0.5 0.3,0 0.8,0.3 0.8,0.7 v 0 c 0,0.2 0,0.3 -0.1,0.5 -0.6,1 -1.7,1.6 -2.9,1.6 -1.8,0 -3.3,-1.3 -3.4,-3 v -0.5 0 z"
           id="path67"
           style="fill:#ffffff" />
        <path
           class="cls-4"
           d="m 382.9,898.7 v -7.5 c 0,-0.5 0.3,-1 0.8,-1 0.5,0 1,0.3 1,0.8 v 4.4 0 l 2.5,-2.5 c 0.2,-0.2 0.4,-0.3 0.7,-0.4 0.4,0 0.8,0.3 0.8,0.7 v 0 c 0,0.3 -0.1,0.5 -0.4,0.7 l -1.7,1.6 1.9,2.4 c 0.2,0.2 0.3,0.4 0.3,0.7 0,0.5 -0.4,0.8 -0.8,0.8 v 0 c -0.4,0 -0.6,0 -0.9,-0.6 l -1.8,-2.3 -0.6,0.6 v 1.4 c 0,0.5 -0.3,1 -0.8,1 -0.5,0 -1,-0.3 -1,-0.8 v -0.2 0 z"
           id="path68"
           style="fill:#ffffff" />
        <path
           class="cls-4"
           d="m 389.3,896.2 c 0,-2.2 1.3,-3.6 3.3,-3.6 1.7,0 3.1,1.1 3.2,2.8 v 0.4 c 0,0.4 -0.3,0.8 -0.7,0.8 h -4 c 0,0.9 0.5,1.7 1.3,1.7 h 0.2 c 0.6,0 1.3,-0.3 1.6,-0.8 0.1,-0.2 0.4,-0.3 0.6,-0.3 0.4,0 0.7,0.2 0.7,0.6 v 0 c 0,0.2 0,0.3 -0.1,0.4 -0.6,0.9 -1.7,1.4 -2.8,1.3 -1.7,0 -3.3,-1.2 -3.4,-2.9 v -0.6 0.2 z m 4.8,-0.8 c 0,-0.8 -0.6,-1.4 -1.3,-1.5 v 0 c -0.8,0 -1.5,0.7 -1.5,1.5 h 2.9 z"
           id="path69"
           style="fill:#ffffff" />
        <path
           class="cls-4"
           d="m 396.8,898.7 v -5.2 c 0,-0.5 0.3,-0.9 0.8,-1 0.5,-0.1 0.9,0.3 1,0.8 v 0.6 0 c 0,-0.7 0.7,-1.3 1.4,-1.3 0.7,0 0.4,0 0.6,0.2 0.3,0.4 0.3,1 0,1.3 -0.3,0.3 -0.5,0.3 -0.8,0.2 -0.8,0 -1.1,0.5 -1.1,1.3 v 3 c 0,0.5 -0.3,1 -0.8,1 -0.5,0 -1,-0.3 -1,-0.8 v -0.2 h -0.1 z"
           id="path70"
           style="fill:#ffffff" />
        <path
           class="cls-4"
           d="m 404.1,897.9 c 0,-0.2 0,-0.3 -0.1,-0.5 0,-0.4 0.3,-0.8 0.8,-0.8 v 0 c 0.4,0 0.7,0.2 0.9,0.6 0.4,0.7 1.1,1.1 1.9,1 1,0 1.7,-0.5 1.7,-1.2 0,-0.7 -0.4,-0.9 -1.6,-1.2 l -1,-0.2 c -1.8,-0.4 -2.7,-1.2 -2.7,-2.6 0,-1.4 1.5,-2.8 3.5,-2.8 2,0 2.9,0.7 3.4,1.9 v 0.4 c 0,0.4 -0.3,0.8 -0.7,0.8 v 0 c -0.4,0 -0.7,-0.2 -0.9,-0.6 -0.3,-0.7 -1,-1.1 -1.7,-1 -1,0 -1.6,0.4 -1.6,1.1 0,0.7 0.4,0.9 1.5,1.1 l 1,0.2 c 2,0.4 2.8,1.2 2.8,2.6 0,1.4 -1.4,2.9 -3.7,2.9 -2.3,0 -3.1,-0.7 -3.5,-1.7 z"
           id="path71"
           style="fill:#ffffff" />
        <path
           class="cls-4"
           d="m 412.3,901 v -7.4 c 0,-0.5 0.3,-1 0.8,-1 0.5,0 1,0.3 1,0.8 v 0.6 0 c 0.4,-0.8 1.2,-1.3 2.1,-1.3 1.7,0 2.8,1.3 2.8,3.5 0,2.2 -1,3.5 -2.8,3.5 -1.8,0 -1.7,-0.4 -2.1,-1.2 v 0 2.6 c 0,0.5 -0.4,0.9 -0.9,0.9 -0.5,0 -0.9,-0.4 -0.9,-0.9 v 0 z m 4.9,-4.9 c 0,-1.2 -0.6,-2 -1.5,-2 -0.9,0 -1.5,0.8 -1.5,2 0,1.2 0.6,2 1.5,2 0.9,0 1.5,-0.8 1.5,-2 z"
           id="path72"
           style="fill:#ffffff" />
        <path
           class="cls-4"
           d="m 419.7,897.6 c 0,-1.2 1,-2 2.6,-2 h 1.7 v -0.5 c 0,-0.6 -0.5,-1 -1.1,-1 -0.6,0 -1,0.3 -1.3,0.7 -0.2,0.2 -0.4,0.3 -0.7,0.3 -0.3,0 -0.7,-0.3 -0.8,-0.7 v 0 c 0,0 0,-0.3 0.1,-0.4 0.3,-0.8 1.4,-1.3 2.8,-1.3 1.4,0 2.9,0.9 2.9,2.3 v 3.9 c 0,0.5 -0.3,0.9 -0.7,0.9 H 425 c -0.5,0 -0.8,-0.3 -0.9,-0.7 v 0 -0.3 0 c -0.4,0.7 -1.2,1.2 -2.1,1.2 -1.2,0 -2.2,-0.7 -2.3,-1.9 z m 4.4,-0.6 v -0.5 h -1.4 c -0.7,0 -1.1,0.4 -1.1,0.9 0,0.5 0.4,0.8 1,0.8 0.6,0 1.4,-0.5 1.5,-1.2 z"
           id="path73"
           style="fill:#ffffff" />
        <path
           class="cls-4"
           d="m 428.2,898.7 -1.4,-4.7 c 0,-0.2 0,-0.4 -0.1,-0.6 0,-0.4 0.4,-0.8 0.8,-0.8 v 0 c 0.5,0 0.8,0.3 0.9,0.8 l 1,4.4 v 0 l 1,-4.3 c 0.1,-0.6 0.7,-0.9 1.3,-0.8 0.4,0 0.7,0.4 0.8,0.8 l 1.1,4.3 v 0 l 1,-4.4 c 0,-0.4 0.4,-0.8 0.9,-0.8 0.5,0 0.8,0.3 0.9,0.7 v 0 c 0,0.2 0,0.4 -0.1,0.6 l -1.4,4.8 c 0,0.6 -0.6,1 -1.2,1 -0.6,0 -1.1,-0.4 -1.2,-1 v 0 l -1,-4 v 0 l -1,4 c 0,0.6 -0.6,1 -1.2,1 v 0 c -0.6,0 -0.9,-0.3 -1.1,-1 z"
           id="path74"
           style="fill:#ffffff" />
        <path
           class="cls-4"
           d="m 437.4,898.7 v -5.2 c 0,-0.5 0.3,-0.9 0.7,-0.9 h 0.2 c 0.5,0 0.9,0.3 0.9,0.8 v 0 0.5 0 c 0.3,-0.9 1.2,-1.4 2.1,-1.3 1.2,0 2.3,0.9 2.4,2.1 v 4 c 0,0.5 -0.4,0.9 -0.9,0.9 -0.5,0 -0.9,-0.4 -0.9,-0.9 v 0 -3.2 c 0,-0.9 -0.4,-1.4 -1.2,-1.4 -0.8,0 -1.4,0.6 -1.4,1.3 v 3.3 c 0,0.5 -0.3,1 -0.8,1 -0.5,0 -1,-0.3 -1,-0.8 v -0.2 z"
           id="path75"
           style="fill:#ffffff" />
        <path
           class="cls-4"
           d="m 786.7,282.4 v -5.7 c 0,-0.4 0.2,-0.8 0.6,-0.8 0.4,0 0.8,0.2 0.8,0.6 v 2.4 h 3.2 v -2.2 c 0,-0.4 0.3,-0.7 0.7,-0.7 0.4,0 0.7,0.3 0.7,0.7 v 0 5.7 c 0,0.4 -0.3,0.7 -0.7,0.7 -0.4,0 -0.7,-0.3 -0.7,-0.7 v 0 -2.3 h -3.2 v 2.3 c 0,0.4 -0.2,0.8 -0.6,0.8 -0.4,0 -0.8,-0.2 -0.8,-0.6 z"
           id="path76"
           style="fill:#ffffff" />
        <path
           class="cls-4"
           d="m 793.6,280.4 c -0.2,-1.4 0.8,-2.6 2.2,-2.7 h 0.4 c 1.3,0 2.4,0.9 2.5,2.2 v 0.2 c 0,0.3 -0.2,0.6 -0.5,0.6 h -3.1 c 0,0.7 0.4,1.3 1,1.3 v 0 c 0.5,0 1,-0.2 1.2,-0.6 0,-0.1 0.3,-0.2 0.5,-0.2 0.3,0 0.5,0.2 0.5,0.5 v 0 0.4 c -0.5,0.7 -1.3,1.1 -2.2,1 -1.3,0 -2.5,-0.9 -2.6,-2.3 v -0.4 0 z m 3.7,-0.5 c 0,-0.6 -0.4,-1.1 -1,-1.1 v 0 c -0.6,0 -1.1,0.5 -1.1,1.1 h 2.2 z"
           id="path77"
           style="fill:#ffffff" />
        <path
           class="cls-4"
           d="m 799.2,281.5 c 0,-1 0.7,-1.5 2,-1.6 h 1.3 v -0.4 c 0,-0.5 -0.3,-0.8 -0.9,-0.8 -0.6,0 -0.8,0.2 -1,0.5 0,0.2 -0.4,0.3 -0.6,0.3 -0.3,0 -0.6,-0.2 -0.6,-0.5 v 0 -0.3 c 0.5,-0.7 1.3,-1.1 2.2,-1 1.3,0 2.2,0.7 2.2,1.8 v 3 c 0,0.4 -0.2,0.7 -0.6,0.7 v 0 c -0.3,0 -0.7,-0.2 -0.7,-0.6 v 0 -0.3 0 c -0.3,0.6 -0.9,0.9 -1.6,0.9 -0.7,0 -1.7,-0.6 -1.8,-1.5 v -0.2 h 0.2 z m 3.3,-0.4 v -0.4 h -1.1 c -0.5,0 -0.8,0.4 -0.8,0.7 0,0.3 0.3,0.6 0.8,0.6 0.5,0 1,-0.3 1.1,-0.9 v 0 c 0,-0.1 0,0 0,0 z"
           id="path78"
           style="fill:#ffffff" />
        <path
           class="cls-4"
           d="m 806,282.4 -1.4,-3.6 v -0.4 c 0,-0.4 0.3,-0.6 0.7,-0.6 v 0 c 0.3,0 0.6,0.2 0.7,0.6 l 1.1,3.5 v 0 l 1.1,-3.5 c 0,-0.3 0.3,-0.6 0.7,-0.5 0.4,0 0.7,0.2 0.7,0.6 v 0 0.4 l -1.3,3.7 c 0,0.4 -0.5,0.7 -1,0.7 -0.5,0 -0.9,-0.3 -1.1,-0.7 z"
           id="path79"
           style="fill:#ffffff" />
        <path
           class="cls-4"
           d="m 809.8,280.4 c -0.2,-1.4 0.8,-2.6 2.2,-2.7 h 0.4 c 1.3,0 2.4,0.9 2.5,2.2 v 0.2 c 0,0.3 -0.2,0.6 -0.5,0.6 h -3.1 c 0,0.7 0.4,1.3 1,1.3 v 0 c 0.5,0 1,-0.2 1.2,-0.6 0,-0.1 0.3,-0.2 0.5,-0.2 0.3,0 0.5,0.2 0.5,0.5 v 0 0.4 c -0.5,0.7 -1.3,1.1 -2.2,1 -1.3,0 -2.5,-0.9 -2.6,-2.3 v -0.4 0 z m 3.6,-0.5 c 0,-0.6 -0.4,-1.1 -1,-1.1 v 0 c -0.6,0 -1.1,0.5 -1.1,1.1 h 2.2 z"
           id="path80"
           style="fill:#ffffff" />
        <path
           class="cls-4"
           d="m 815.5,282.4 v -4 c 0,-0.4 0.2,-0.7 0.6,-0.7 v 0 c 0.4,0 0.7,0.2 0.7,0.6 v 0 0.4 0 c 0.3,-0.7 0.9,-1.1 1.6,-1 0.9,0 1.8,0.7 1.8,1.6 v 3 c 0,0.4 -0.3,0.7 -0.7,0.7 -0.4,0 -0.7,-0.3 -0.7,-0.7 v 0 -2.4 c 0,-0.7 -0.3,-1.1 -1,-1.1 -0.7,0 -1,0.4 -1,1 v 2.6 c 0,0.4 -0.2,0.7 -0.6,0.7 v 0 c -0.4,0 -0.7,-0.3 -0.7,-0.6 v 0 z"
           id="path81"
           style="fill:#ffffff" />
        <path
           class="cls-4"
           d="m 583.4,370.3 v -0.5 l 1.9,-5.2 c 0.2,-0.6 0.8,-1 1.5,-0.8 0.4,0.1 0.7,0.4 0.8,0.8 l 1.9,5.2 v 0.5 c 0,0.4 -0.3,0.7 -0.7,0.7 v 0 c -0.4,0 -0.6,-0.2 -0.8,-0.7 l -0.4,-1.1 h -2.5 l -0.4,1.1 c 0,0.5 -0.3,0.7 -0.7,0.7 -0.4,0 -0.7,-0.2 -0.7,-0.6 v 0 c 0,-0.1 0.1,-0.1 0.1,-0.1 z m 4,-2.2 -0.9,-2.9 v 0 l -0.9,2.9 z"
           id="path82"
           style="fill:#ffffff" />
        <path
           class="cls-4"
           d="m 592.5,370.1 v -5.6 c 0,-0.4 0.2,-0.8 0.6,-0.8 0.4,0 0.8,0.2 0.8,0.6 v 5.4 h 2.5 c 0.3,0 0.7,0.2 0.7,0.5 0,0.3 -0.2,0.7 -0.5,0.7 h -3.4 c -0.4,0 -0.7,-0.3 -0.7,-0.6 v 0 c 0,-0.1 0,-0.2 0,-0.2 z"
           id="path83"
           style="fill:#ffffff" />
        <path
           class="cls-4"
           d="m 597.8,364.3 c 0,-0.4 0.3,-0.8 0.8,-0.8 0.5,0 0.8,0.3 0.8,0.8 0,0.5 -0.3,0.8 -0.8,0.8 -0.5,0 -0.8,-0.3 -0.8,-0.8 z m 0,6 v -4 c 0,-0.4 0.3,-0.7 0.7,-0.7 0.4,0 0.7,0.3 0.7,0.7 v 0 4 c 0,0.4 -0.3,0.7 -0.7,0.7 -0.4,0 -0.7,-0.3 -0.7,-0.7 z"
           id="path84"
           style="fill:#ffffff" />
        <path
           class="cls-4"
           d="m 600.2,370.3 v -4 c 0,-0.4 0.2,-0.7 0.6,-0.7 v 0 c 0.4,0 0.7,0.3 0.7,0.6 v 0 0.4 0 c 0.3,-0.6 0.9,-1.1 1.6,-1 1,0 1.8,0.7 1.8,1.6 v 3.1 c 0,0.4 -0.2,0.8 -0.6,0.8 -0.4,0 -0.8,-0.2 -0.8,-0.6 v -2.6 c 0,-0.7 -0.3,-1.1 -1,-1.1 -0.7,0 -1,0.4 -1,1 v 2.6 c 0,0.4 -0.2,0.8 -0.6,0.8 -0.4,0 -0.8,-0.2 -0.8,-0.6 v -0.2 0 z"
           id="path85"
           style="fill:#ffffff" />
        <path
           class="cls-4"
           d="m 606.1,370.3 v -5.8 c 0,-0.4 0.3,-0.7 0.7,-0.7 0.4,0 0.7,0.3 0.7,0.7 v 0 3.3 0 l 1.9,-1.9 c 0,-0.2 0.3,-0.3 0.6,-0.3 0.3,0 0.6,0.3 0.6,0.6 v 0 c 0,0.2 0,0.4 -0.3,0.5 l -1.3,1.3 1.5,1.9 c 0,0.1 0.2,0.3 0.2,0.5 0,0.4 -0.3,0.6 -0.6,0.7 v 0 c -0.3,0 -0.5,-0.1 -0.7,-0.5 l -1.3,-1.8 -0.5,0.4 v 1.1 c 0,0.4 -0.3,0.7 -0.7,0.7 -0.4,0 -0.7,-0.3 -0.7,-0.7 z"
           id="path86"
           style="fill:#ffffff" />
        <path
           class="cls-4"
           d="m 410,651.4 -1.5,-5.3 v -0.5 c 0,-0.4 0.3,-0.7 0.6,-0.7 h 0.1 c 0.4,0 0.7,0.3 0.7,0.6 l 1,4.6 v 0 l 1.2,-4.5 c 0.1,-0.5 0.3,-0.7 0.8,-0.7 0.5,0 0.7,0.3 0.8,0.7 l 1.2,4.5 v 0 l 1,-4.6 c 0,-0.4 0.3,-0.7 0.7,-0.6 0.4,0 0.7,0.2 0.7,0.6 v 0 0.6 l -1.5,5.3 c -0.1,0.5 -0.4,0.7 -0.9,0.7 -0.5,0 -0.7,-0.2 -0.9,-0.8 l -1.2,-4.2 v 0 l -1.2,4.2 c -0.1,0.5 -0.4,0.8 -0.9,0.8 -0.5,0 -0.7,-0.2 -0.8,-0.7 v 0 z"
           id="path87"
           style="fill:#ffffff" />
        <path
           class="cls-4"
           d="m 418.1,645.4 c 0,-0.4 0.3,-0.8 0.7,-0.8 0.4,0 0.8,0.3 0.8,0.7 0,0.4 -0.3,0.8 -0.7,0.8 v 0 c -0.4,0 -0.7,-0.3 -0.8,-0.7 z m 0.1,6 v -4 c 0,-0.4 0.3,-0.7 0.7,-0.7 0.4,0 0.7,0.3 0.7,0.7 v 4 c 0,0.4 -0.3,0.7 -0.7,0.7 -0.4,0 -0.7,-0.3 -0.7,-0.7 z"
           id="path88"
           style="fill:#ffffff" />
        <path
           class="cls-4"
           d="m 420.6,651.4 v -4 c 0,-0.4 0.2,-0.7 0.6,-0.7 h 0.1 c 0.4,0 0.7,0.2 0.7,0.6 v 0 0.4 0 c 0.3,-0.7 0.9,-1.1 1.6,-1 1,0 1.8,0.7 1.8,1.6 v 3.1 c 0,0.4 -0.2,0.7 -0.6,0.7 h -0.1 c -0.4,0 -0.7,-0.3 -0.7,-0.6 v 0 -2.5 c 0,-0.7 -0.3,-1.1 -1,-1.1 -0.7,0 -1,0.4 -1.1,0.9 v 2.6 c 0,0.4 -0.3,0.7 -0.7,0.7 -0.4,0 -0.7,-0.3 -0.7,-0.7 z"
           id="path89"
           style="fill:#ffffff" />
        <path
           class="cls-4"
           d="m 426.1,649.4 c 0,-1.7 0.8,-2.7 2.1,-2.7 1.3,0 1.3,0.4 1.6,1 v 0 -2.1 c 0,-0.4 0.3,-0.7 0.7,-0.7 0.4,0 0.7,0.3 0.7,0.7 v 0 5.8 c 0,0.4 -0.2,0.7 -0.6,0.7 h -0.1 c -0.4,0 -0.7,-0.2 -0.7,-0.6 v 0 -0.4 0 c -0.3,0.6 -0.9,1 -1.6,1 -1.3,0 -2.1,-1.1 -2.1,-2.7 z m 3.8,0 c 0,-1 -0.5,-1.6 -1.2,-1.6 -0.7,0 -1.2,0.6 -1.2,1.6 0,1 0.4,1.5 1.2,1.5 0.8,0 1.2,-0.6 1.2,-1.5 z"
           id="path90"
           style="fill:#ffffff" />
        <path
           class="cls-4"
           d="m 432.1,649.4 c 0,-1.4 1.3,-2.5 2.7,-2.4 1.4,0.1 2.5,1.3 2.4,2.7 0,1.4 -1.2,2.4 -2.6,2.5 -1.4,0 -2.5,-1 -2.6,-2.4 v -0.4 z m 3.7,0 c 0,-1 -0.5,-1.6 -1.1,-1.6 -0.6,0 -1.1,0.6 -1.1,1.6 0,1 0.5,1.6 1.1,1.6 0.6,0 1.2,-0.6 1.2,-1.6 z"
           id="path91"
           style="fill:#ffffff" />
        <path
           class="cls-4"
           d="m 438.8,651.4 -1,-3.6 v -0.4 c 0,-0.3 0.3,-0.6 0.6,-0.6 v 0 c 0.3,0 0.6,0.3 0.7,0.6 l 0.8,3.4 v 0 l 0.8,-3.3 c 0,-0.4 0.5,-0.7 1,-0.6 0.3,0 0.6,0.3 0.6,0.6 l 0.8,3.3 v 0 l 0.8,-3.4 c 0,-0.3 0.3,-0.6 0.7,-0.6 0.4,0 0.6,0.2 0.7,0.5 v 0 0.4 l -1,3.7 c 0,0.4 -0.5,0.8 -0.9,0.8 -0.4,0 -0.9,-0.3 -0.9,-0.7 v 0 l -0.8,-3 v 0 l -0.8,3 c 0,0.5 -0.5,0.8 -0.9,0.8 -0.4,0 -0.8,-0.3 -0.9,-0.8 h -0.3 z"
           id="path92"
           style="fill:#ffffff" />
        <path
           class="cls-4"
           d="m 278.4,656.5 c 0,-2.2 1.3,-3.6 3.4,-3.6 2.1,0 2.2,0.5 2.8,1.5 0,0 0.1,0.3 0.1,0.5 0,0.3 -0.2,0.6 -0.6,0.6 v 0 c -0.3,0 -0.6,-0.2 -0.7,-0.4 -0.3,-0.6 -0.9,-1 -1.5,-0.9 -1.2,0 -1.9,0.9 -1.9,2.4 0,1.5 0.7,2.5 1.9,2.5 1.2,0 1.6,-0.5 1.7,-1.4 v 0 c 0,0 -1,0 -1,0 -0.3,0 -0.5,-0.2 -0.5,-0.5 0,-0.3 0.2,-0.5 0.5,-0.5 h 1.7 c 0.4,0 0.7,0.3 0.7,0.6 v 0 c 0.1,1.8 -1.1,3.1 -2.6,3.2 h -0.5 c -2.1,0 -3.4,-1.4 -3.4,-3.7 v -0.2 z"
           id="path93"
           style="fill:#ffffff" />
        <path
           class="cls-4"
           d="m 285.8,659.4 v -4 c 0,-0.4 0.2,-0.7 0.6,-0.8 0.4,0 0.7,0.2 0.8,0.6 v 0.5 0 c 0,-0.6 0.5,-1 1.1,-1 0.6,0 0.3,0 0.5,0 0.2,0.3 0.2,0.7 0,1 -0.2,0 -0.4,0.2 -0.6,0.2 -0.6,0 -0.9,0.4 -0.9,1 v 2.3 c 0,0.4 -0.2,0.7 -0.6,0.7 h -0.1 c -0.4,0 -0.7,-0.3 -0.7,-0.7 v 0 z"
           id="path94"
           style="fill:#ffffff" />
        <path
           class="cls-4"
           d="m 289.1,658.5 c 0,-1 0.7,-1.5 2,-1.6 h 1.3 v -0.4 c 0,-0.5 -0.3,-0.8 -0.9,-0.8 -0.6,0 -0.8,0.2 -1,0.5 -0.1,0.2 -0.4,0.3 -0.6,0.3 -0.3,0 -0.6,-0.2 -0.6,-0.5 v 0 -0.3 c 0.2,-0.6 1.1,-1 2.2,-1 1.1,0 2.2,0.7 2.2,1.8 v 3 c 0,0.4 -0.2,0.7 -0.6,0.7 H 293 c -0.3,0 -0.7,-0.2 -0.7,-0.6 v 0 -0.3 0 c -0.3,0.6 -0.9,0.9 -1.6,0.9 -0.7,0 -1.7,-0.6 -1.8,-1.5 v 0 c 0,0 0.2,-0.2 0.2,-0.2 z m 3.3,-0.4 v -0.4 h -1.1 c -0.5,0 -0.8,0.3 -0.8,0.7 0,0.4 0.3,0.6 0.8,0.6 0.5,0 1.1,-0.3 1.1,-0.8 v 0 z"
           id="path95"
           style="fill:#ffffff" />
        <path
           class="cls-4"
           d="m 294.7,659 v -0.3 c 0,-0.3 0.2,-0.5 0.5,-0.6 v 0 c 0.2,0 0.5,0 0.6,0.3 0.3,0.4 0.7,0.6 1.1,0.5 0.5,0 0.9,-0.2 0.9,-0.6 0,-0.4 -0.2,-0.4 -0.7,-0.5 l -0.9,-0.2 c -1,-0.2 -1.5,-0.7 -1.5,-1.5 0,-0.8 0.9,-1.7 2.2,-1.7 0.8,0 1.7,0.3 2,1.1 v 0.2 c 0,0.3 -0.2,0.5 -0.5,0.5 -0.3,0 -0.4,0 -0.5,-0.2 -0.2,-0.3 -0.6,-0.5 -1,-0.6 -0.5,0 -0.8,0.2 -0.8,0.6 0,0.4 0.2,0.5 0.7,0.6 l 0.9,0.2 c 1.1,0.2 1.6,0.6 1.6,1.4 0,0.8 -0.9,1.7 -2.3,1.7 -1.4,0 -2,-0.4 -2.2,-1.1 v 0.2 z"
           id="path96"
           style="fill:#ffffff" />
        <path
           class="cls-4"
           d="m 299.8,659 v -0.3 c 0,-0.3 0.2,-0.5 0.5,-0.6 v 0 c 0.2,0 0.5,0 0.6,0.3 0.3,0.4 0.7,0.6 1.1,0.5 0.5,0 0.9,-0.2 0.9,-0.6 0,-0.4 -0.2,-0.4 -0.7,-0.5 l -0.9,-0.2 c -1,-0.2 -1.5,-0.7 -1.5,-1.5 0,-0.8 0.9,-1.7 2.2,-1.7 0.8,0 1.7,0.3 2,1.1 v 0.2 c 0,0.3 -0.2,0.5 -0.5,0.5 -0.3,0 -0.4,0 -0.5,-0.2 -0.2,-0.3 -0.6,-0.5 -1,-0.6 -0.5,0 -0.8,0.2 -0.8,0.6 0,0.4 0.2,0.5 0.7,0.6 l 0.9,0.2 c 1.1,0.2 1.6,0.6 1.6,1.4 0,0.8 -0.9,1.7 -2.3,1.7 -1.4,0 -2,-0.4 -2.2,-1.1 v 0.2 z"
           id="path97"
           style="fill:#ffffff" />
        <path
           class="cls-4"
           d="m 416.5,533.1 v -5.6 c 0,-0.5 0.3,-0.9 0.7,-1 h 0.2 c 0.5,0 0.9,0.3 1,0.8 l 1.8,4.3 v 0 l 1.7,-4.3 c 0.1,-0.5 0.5,-0.8 1,-0.8 0.5,0 0.9,0.2 1,0.7 v 5.9 c 0,0.4 -0.2,0.7 -0.6,0.7 -0.4,0 -0.7,-0.2 -0.7,-0.6 v -4.4 0 l -1.8,4.3 c 0,0.3 -0.3,0.5 -0.6,0.5 -0.3,0 -0.6,-0.2 -0.6,-0.4 l -1.8,-4.3 v 0 4.2 c 0,0.4 -0.2,0.7 -0.6,0.7 -0.4,0 -0.7,-0.2 -0.7,-0.6 v -0.2 0 z"
           id="path98"
           style="fill:#ffffff" />
        <path
           class="cls-4"
           d="m 424.9,527.1 c 0,-0.4 0.3,-0.8 0.8,-0.8 0.5,0 0.8,0.3 0.8,0.8 0,0.5 -0.3,0.8 -0.8,0.8 -0.5,0 -0.8,-0.3 -0.8,-0.8 z m 0,6 v -4 c 0,-0.4 0.2,-0.8 0.6,-0.8 0.4,0 0.8,0.2 0.8,0.6 v 4.1 c 0,0.4 -0.2,0.8 -0.6,0.8 -0.4,0 -0.8,-0.2 -0.8,-0.6 v -0.2 0 z"
           id="path99"
           style="fill:#ffffff" />
        <path
           class="cls-4"
           d="m 427.2,531.1 c 0,-1.7 0.8,-2.7 2.1,-2.7 1.3,0 1.3,0.4 1.6,1 v 0 -2.1 c 0,-0.4 0.3,-0.7 0.7,-0.7 0.4,0 0.7,0.3 0.7,0.7 v 0 5.8 c 0,0.4 -0.3,0.7 -0.7,0.7 -0.4,0 -0.7,-0.3 -0.7,-0.7 v -0.3 0 c -0.3,0.6 -0.9,1 -1.6,1 -1.3,0 -2.1,-1.1 -2.1,-2.7 z m 3.7,0 c 0,-1 -0.5,-1.6 -1.2,-1.6 -0.7,0 -1.1,0.6 -1.1,1.6 0,1 0.4,1.5 1.1,1.5 0.7,0 1.2,-0.6 1.2,-1.5 z"
           id="path100"
           style="fill:#ffffff" />
        <path
           class="cls-4"
           d="M 541.7,455.5 V 455 l 1.9,-5.2 c 0.2,-0.6 0.8,-1 1.5,-0.8 0.4,0.1 0.7,0.4 0.8,0.8 l 1.9,5.2 v 0.5 c 0,0.4 -0.3,0.7 -0.7,0.7 v 0 c -0.4,0 -0.6,-0.2 -0.8,-0.7 l -0.4,-1.1 h -2.5 l -0.4,1.1 c 0,0.5 -0.3,0.7 -0.7,0.7 -0.4,0 -0.7,-0.2 -0.7,-0.6 v 0 c 0,-0.1 0.1,-0.1 0.1,-0.1 z m 4.1,-2.3 -0.9,-2.9 v 0 l -0.9,2.9 z"
           id="path101"
           style="fill:#ffffff" />
        <path
           class="cls-4"
           d="m 550.7,454.8 v -0.4 c 0,-0.3 0.2,-0.6 0.6,-0.7 v 0 c 0.3,0 0.6,0.2 0.7,0.4 0.3,0.5 0.9,0.9 1.5,0.8 0.8,0 1.3,-0.4 1.3,-0.9 0,-0.5 -0.3,-0.7 -1.2,-0.9 h -0.8 c -1.4,-0.4 -2.1,-1.1 -2.1,-2.1 0,-1 1.1,-2.2 2.7,-2.2 1.1,-0.1 2.1,0.5 2.6,1.5 v 0.3 c 0,0.3 -0.2,0.6 -0.6,0.6 v 0 c -0.3,0 -0.6,-0.2 -0.7,-0.4 -0.2,-0.5 -0.7,-0.8 -1.3,-0.8 -0.6,0 -1.2,0.3 -1.2,0.9 0,0.6 0.3,0.7 1.2,0.9 l 0.7,0.2 c 1.5,0.3 2.1,0.9 2.1,2 0,1.1 -1.1,2.2 -2.8,2.2 -1.7,0 -2.3,-0.6 -2.7,-1.4 z"
           id="path102"
           style="fill:#ffffff" />
        <path
           class="cls-4"
           d="m 557.1,455.4 v -5.8 c 0,-0.4 0.3,-0.7 0.7,-0.7 0.4,0 0.7,0.3 0.7,0.7 v 2.1 0 c 0.3,-0.6 0.9,-1.1 1.7,-1 1,0 1.8,0.7 1.8,1.6 v 3.1 c 0,0.4 -0.3,0.7 -0.7,0.7 -0.4,0 -0.7,-0.3 -0.7,-0.7 v 0 -2.4 c 0,-0.7 -0.3,-1.1 -1,-1.1 -0.7,0 -1,0.4 -1.1,0.9 v 2.5 c 0,0.4 -0.2,0.8 -0.6,0.8 -0.4,0 -0.8,-0.2 -0.8,-0.6 v -0.2 0 z"
           id="path103"
           style="fill:#ffffff" />
        <path
           class="cls-4"
           d="m 562.7,453.4 c 0,-1.4 1.3,-2.5 2.7,-2.5 1.4,0 2.5,1.3 2.5,2.7 0,1.4 -1.2,2.5 -2.6,2.5 -1.4,0 -2.5,-1 -2.6,-2.4 v -0.4 0 z m 3.7,0 c 0,-1 -0.5,-1.6 -1.2,-1.6 -0.7,0 -1.1,0.6 -1.1,1.6 0,1 0.4,1.6 1.1,1.6 0.7,0 1.2,-0.6 1.2,-1.6 z"
           id="path104"
           style="fill:#ffffff" />
        <path
           class="cls-4"
           d="m 568.6,455.4 v -4 c 0,-0.4 0.2,-0.7 0.6,-0.7 v 0 c 0.4,0 0.7,0.3 0.7,0.6 v 0 0.4 0 c 0,-0.6 0.5,-1 1.1,-1 0.6,0 0.3,0 0.4,0.1 0,0.1 0.2,0.3 0.2,0.5 0,0.2 0,0.4 -0.2,0.5 -0.2,0.1 -0.4,0.2 -0.6,0.2 -0.7,0 -0.9,0.4 -0.9,1 v 2.3 c 0,0.4 -0.3,0.7 -0.7,0.7 -0.4,0 -0.7,-0.3 -0.7,-0.7 v 0 z"
           id="path105"
           style="fill:#ffffff" />
        <path
           class="cls-4"
           d="m 572.6,451.9 h -0.3 c -0.3,0 -0.6,-0.2 -0.6,-0.5 0,-0.3 0.2,-0.6 0.5,-0.6 h 0.4 v -0.6 c 0,-0.4 0.3,-0.7 0.7,-0.7 0.4,0 0.7,0.3 0.7,0.7 v 0 0.6 h 0.5 c 0.3,0 0.6,0.2 0.6,0.5 0,0.3 -0.2,0.6 -0.5,0.6 H 574 v 2.5 c 0,0.4 0,0.5 0.4,0.5 v 0 c 0.3,0 0.5,0.2 0.5,0.5 0,0.3 -0.4,0.6 -1,0.6 v 0 c -0.7,0.1 -1.3,-0.4 -1.4,-1 v -3.2 0 z"
           id="path106"
           style="fill:#ffffff" />
        <path
           class="cls-4"
           d="M 532.3,601.5 V 601 l 1.9,-5.2 c 0.2,-0.6 0.8,-1 1.4,-0.8 0.4,0 0.7,0.4 0.8,0.8 l 1.9,5.2 v 0.5 c 0,0.4 -0.3,0.7 -0.7,0.7 v 0 c -0.4,0 -0.6,-0.2 -0.8,-0.7 l -0.4,-1.1 h -2.5 l -0.4,1.1 c 0,0.5 -0.4,0.7 -0.8,0.7 -0.4,0 -0.7,-0.2 -0.7,-0.6 v 0 c 0,0 0.3,-0.1 0.3,-0.1 z m 4.1,-2.2 -0.9,-2.9 v 0 l -0.9,2.9 z"
           id="path107"
           style="fill:#ffffff" />
        <path
           class="cls-4"
           d="m 541.5,601.5 v -5.6 c 0,-0.5 0.3,-0.9 0.7,-1 h 0.2 c 0.5,0 0.9,0.3 1,0.8 l 1.8,4.3 v 0 l 1.7,-4.3 c 0,-0.5 0.5,-0.8 1,-0.8 0.5,0 0.9,0.3 1,0.8 v 5.8 c 0,0.4 -0.2,0.7 -0.6,0.7 -0.4,0 -0.7,-0.2 -0.7,-0.6 v -4.4 0 l -1.7,4.3 c 0,0.3 -0.3,0.5 -0.6,0.5 -0.3,0 -0.6,-0.2 -0.6,-0.5 l -1.8,-4.3 v 0 4.2 c 0,0.4 -0.2,0.7 -0.6,0.7 -0.4,0 -0.7,-0.2 -0.7,-0.6 v -0.2 0 0.2 z"
           id="path108"
           style="fill:#ffffff" />
        <path
           class="cls-4"
           d="m 549.7,600.6 c 0,-1 0.7,-1.5 2,-1.6 h 1.3 v -0.4 c 0,-0.5 -0.3,-0.8 -0.9,-0.8 -0.6,0 -0.8,0.2 -1,0.5 0,0.2 -0.3,0.3 -0.6,0.3 -0.3,0 -0.6,-0.2 -0.6,-0.5 v 0 -0.3 c 0.5,-0.7 1.3,-1.1 2.2,-1 1.3,0 2.2,0.7 2.2,1.8 v 3 c 0,0.4 -0.2,0.7 -0.6,0.7 v 0 c -0.4,0 -0.7,-0.2 -0.7,-0.6 v 0 -0.3 0 c -0.3,0.6 -0.9,0.9 -1.6,0.9 -0.7,0 -1.7,-0.6 -1.8,-1.5 v 0 c 0,0 0.2,-0.2 0.2,-0.2 z m 3.4,-0.4 v -0.4 H 552 c -0.5,0 -0.8,0.4 -0.8,0.7 0,0.3 0.3,0.6 0.8,0.6 0.5,0 1.1,-0.3 1.1,-0.8 v 0 z"
           id="path109"
           style="fill:#ffffff" />
        <path
           class="cls-4"
           d="m 555.3,595.5 c 0,-0.4 0.4,-0.7 0.9,-0.7 0.5,0 0.6,0.3 0.7,0.7 0,0.4 -0.4,0.7 -0.9,0.7 -0.5,0 -0.6,-0.3 -0.7,-0.7 z m 0.1,6 v -4 c 0,-0.4 0.2,-0.7 0.6,-0.7 v 0 c 0.4,0 0.7,0.3 0.7,0.6 v 0 4.1 c 0,0.4 -0.2,0.7 -0.6,0.7 v 0 c -0.4,0 -0.7,-0.3 -0.7,-0.6 v 0 z"
           id="path110"
           style="fill:#ffffff" />
        <path
           class="cls-4"
           d="m 557.8,601.4 v -4 c 0,-0.4 0.2,-0.7 0.6,-0.7 v 0 c 0.4,0 0.7,0.2 0.7,0.6 v 0 0.4 0 c 0.3,-0.7 0.9,-1.1 1.6,-1 0.9,0 1.8,0.7 1.8,1.6 v 3.1 c 0,0.4 -0.3,0.7 -0.7,0.7 -0.4,0 -0.7,-0.3 -0.7,-0.7 v 0 -2.4 c 0,-0.7 -0.3,-1.1 -1,-1.1 -0.7,0 -1,0.4 -1.1,0.9 v 2.6 c 0,0.4 -0.2,0.7 -0.6,0.7 v 0 c -0.4,0 -0.7,-0.3 -0.7,-0.7 z"
           id="path111"
           style="fill:#ffffff" />
        <path
           class="cls-4"
           d="m 479.3,87.8 v -7.2 c 0,-0.5 0.3,-0.9 0.8,-1 h 2.7 c 2.8,0 4.4,1.6 4.4,4.5 0,2.9 -1.6,4.6 -4.4,4.6 h -2.6 c -0.5,0 -0.9,-0.3 -1,-0.8 v -0.2 h 0.1 z m 3.3,-0.6 c 1.7,0 2.6,-1 2.6,-3 0,-2 -1,-3 -2.6,-3 h -1.3 v 6 z"
           id="path112"
           style="fill:#ffffff" />
        <path
           class="cls-4"
           d="m 488,85.5 c 0,-2.2 1.3,-3.6 3.3,-3.6 2,0 3.1,1.2 3.2,2.9 v 0.3 c 0,0.4 -0.3,0.8 -0.7,0.8 h -4.1 c 0,0.9 0.5,1.7 1.3,1.8 h 0.2 c 0.6,0 1.3,-0.3 1.6,-0.8 0.1,-0.2 0.4,-0.3 0.6,-0.3 0.4,0 0.7,0.3 0.7,0.6 v 0 c 0,0.2 0,0.3 -0.1,0.5 -0.6,0.9 -1.7,1.4 -2.8,1.3 -1.7,0 -3.3,-1.2 -3.4,-2.9 v -0.6 z m 4.7,-0.8 c 0,-0.8 -0.6,-1.4 -1.3,-1.5 v 0 c -0.8,0 -1.5,0.7 -1.5,1.5 h 2.9 z"
           id="path113"
           style="fill:#ffffff" />
        <path
           class="cls-4"
           d="m 496,88 v -4.6 h -0.3 c -0.4,0 -0.7,-0.3 -0.7,-0.7 0,-0.4 0.3,-0.7 0.7,-0.7 h 0.3 v -0.5 c -0.1,-0.9 0.5,-1.8 1.4,-2 h 0.6 c 1,0 1.4,0.3 1.4,0.8 0,0.5 -0.1,0.4 -0.4,0.5 h -0.4 c -0.6,0 -0.8,0.3 -0.8,0.8 V 82 h 0.8 c 0.4,0 0.7,0.3 0.7,0.7 0,0.4 -0.3,0.7 -0.7,0.7 h -0.7 V 88 c 0,0.5 -0.4,0.9 -0.9,0.9 -0.5,0 -0.9,-0.4 -0.9,-0.9 z"
           id="path114"
           style="fill:#ffffff" />
        <path
           class="cls-4"
           d="m 499.7,85.5 c 0,-2.2 1.3,-3.6 3.3,-3.6 1.7,0 3.1,1.1 3.2,2.8 v 0.4 c 0,0.4 -0.3,0.8 -0.7,0.8 h -4.1 c 0,0.9 0.5,1.7 1.3,1.8 h 0.2 c 0.6,0 1.3,-0.3 1.6,-0.8 0.1,-0.2 0.4,-0.3 0.6,-0.3 0.4,0 0.7,0.2 0.7,0.6 v 0 c 0,0.2 0,0.3 -0.1,0.5 -0.6,0.9 -1.7,1.5 -2.8,1.3 -1.7,0 -3.3,-1.2 -3.4,-2.9 v -0.6 z m 4.7,-0.8 c 0,-0.8 -0.6,-1.4 -1.3,-1.5 v 0 c -0.8,0 -1.5,0.7 -1.5,1.5 h 2.9 z"
           id="path115"
           style="fill:#ffffff" />
        <path
           class="cls-4"
           d="m 507.1,88 v -5.2 c 0,-0.5 0.3,-0.9 0.7,-0.9 h 0.2 c 0.5,0 0.9,0.3 0.9,0.8 v 0 0.5 0 c 0.3,-0.8 1.2,-1.4 2.1,-1.3 1.2,0 2.3,0.9 2.4,2.1 v 4 c 0,0.5 -0.3,1 -0.8,1 -0.5,0 -1,-0.3 -1,-0.8 v -3.4 c 0,-0.9 -0.4,-1.4 -1.2,-1.4 -0.8,0 -1.4,0.6 -1.4,1.3 V 88 c 0,0.5 -0.4,0.9 -0.9,0.9 -0.5,0 -0.9,-0.4 -0.9,-0.9 z"
           id="path116"
           style="fill:#ffffff" />
        <path
           class="cls-4"
           d="m 514.4,85.4 c 0,-2.2 1.1,-3.5 2.8,-3.5 1.7,0 1.7,0.5 2.1,1.3 v 0 -2.7 c 0,-0.5 0.3,-1 0.8,-1 0.5,0 1,0.3 1,0.8 v 7.8 c 0,0.5 -0.3,1 -0.8,1 -0.5,0 -1,-0.3 -1,-0.8 v -0.6 0 c -0.4,0.8 -1.2,1.4 -2.1,1.3 -1.7,0 -2.8,-1.4 -2.8,-3.5 v 0 z m 4.9,0 c 0,-1.2 -0.6,-2 -1.5,-2 -0.9,0 -1.5,0.8 -1.5,2 0,1.2 0.6,2 1.5,2 0.9,0 1.5,-0.8 1.5,-2 z"
           id="path117"
           style="fill:#ffffff" />
        <path
           class="cls-4"
           d="m 522.1,85.5 c 0,-2.2 1.3,-3.6 3.3,-3.6 1.7,0 3.1,1.1 3.2,2.8 v 0.4 c 0,0.4 -0.3,0.8 -0.7,0.8 h -4 c 0,0.9 0.5,1.7 1.3,1.8 h 0.2 c 0.6,0 1.3,-0.3 1.6,-0.8 0,-0.2 0.4,-0.3 0.6,-0.3 0.4,0 0.7,0.2 0.7,0.6 v 0 c 0,0.2 0,0.3 0,0.5 -0.6,0.9 -1.7,1.4 -2.8,1.3 -1.7,0 -3.3,-1.2 -3.4,-2.9 v -0.6 h 0.1 z m 4.7,-0.8 c 0,-0.8 -0.6,-1.4 -1.3,-1.5 v 0 c -0.8,0 -1.5,0.7 -1.5,1.5 h 2.9 z"
           id="path118"
           style="fill:#ffffff" />
        <path
           class="cls-4"
           d="m 529.6,88 v -5.2 c 0,-0.5 0.3,-0.9 0.8,-0.9 v 0 c 0.5,0 0.9,0.3 0.9,0.8 v 0 0.5 0 c 0,-0.7 0.7,-1.3 1.4,-1.3 0.7,0 0.4,0 0.6,0.2 0.2,0.2 0.3,0.4 0.3,0.7 0,0.3 0,0.5 -0.3,0.7 -0.2,0.2 -0.5,0.3 -0.8,0.2 -0.8,0 -1.1,0.5 -1.1,1.3 v 3 c 0,0.5 -0.4,0.9 -0.9,0.9 -0.5,0 -0.9,-0.4 -0.9,-0.9 z"
           id="path119"
           style="fill:#ffffff" />
        <path
           class="cls-4"
           d="m 536.9,87.2 v -0.5 c 0,-0.4 0.3,-0.8 0.8,-0.8 v 0 c 0.4,0 0.7,0.2 0.9,0.6 0.4,0.7 1.1,1.1 1.9,1 1,0 1.7,-0.5 1.7,-1.2 0,-0.7 -0.4,-0.9 -1.6,-1.2 l -1,-0.2 c -1.8,-0.4 -2.7,-1.2 -2.7,-2.6 0,-1.4 1.5,-2.8 3.5,-2.8 2,0 2.9,0.7 3.3,1.9 v 0.4 c 0,0.4 -0.3,0.8 -0.7,0.8 v 0 c -0.4,0 -0.7,-0.2 -0.9,-0.5 -0.3,-0.7 -1,-1.1 -1.7,-1 -1,0 -1.6,0.5 -1.6,1.1 0,0.6 0.4,0.9 1.5,1.1 l 1,0.2 c 2,0.4 2.8,1.2 2.8,2.5 0,1.3 -1.4,2.9 -3.7,2.9 -2.3,0 -3.2,-0.7 -3.5,-1.8 v 0 z"
           id="path120"
           style="fill:#ffffff" />
        <path
           class="cls-4"
           d="m 545.1,90.3 v -7.5 c 0,-0.5 0.3,-1 0.8,-1 0.5,0 1,0.3 1,0.8 v 0.6 0 c 0.4,-0.8 1.2,-1.3 2.1,-1.3 1.7,0 2.8,1.3 2.8,3.5 0,2.2 -1,3.5 -2.8,3.5 -1.8,0 -1.7,-0.4 -2.1,-1.2 v 0 2.6 c 0,0.5 -0.4,0.9 -0.9,0.9 -0.5,0 -0.9,-0.4 -0.9,-0.9 z m 4.8,-4.9 c 0,-1.2 -0.6,-2 -1.5,-2 -0.9,0 -1.5,0.8 -1.5,2 0,1.2 0.6,2 1.5,2 0.9,0 1.5,-0.8 1.5,-2 z"
           id="path121"
           style="fill:#ffffff" />
        <path
           class="cls-4"
           d="m 552.5,86.9 c 0,-1.2 1,-2 2.7,-2.1 h 1.7 v -0.6 c 0,-0.6 -0.5,-1 -1.2,-1 -0.7,0 -1,0.3 -1.3,0.7 -0.2,0.2 -0.4,0.3 -0.7,0.3 -0.3,0 -0.7,-0.3 -0.8,-0.7 v 0 -0.4 c 0.3,-0.8 1.4,-1.3 2.8,-1.3 1.4,0 2.9,0.9 2.9,2.3 V 88 c 0,0.5 -0.3,0.9 -0.7,0.9 h -0.2 c -0.5,0 -0.8,-0.3 -0.9,-0.7 v 0 -0.4 0 c -0.4,0.7 -1.2,1.2 -2.1,1.1 -1.2,0 -2.2,-0.7 -2.3,-1.9 v -0.2 0 z m 4.4,-0.6 v -0.5 h -1.4 c -0.7,0 -1.1,0.4 -1.1,0.9 0,0.5 0.4,0.8 1,0.8 0.6,0 1.4,-0.5 1.5,-1.2 z"
           id="path122"
           style="fill:#ffffff" />
        <path
           class="cls-4"
           d="m 561,88 -1.4,-4.7 v -0.6 c 0,-0.4 0.4,-0.8 0.8,-0.8 v 0 c 0.4,0 0.8,0.3 0.9,0.8 l 1,4.4 v 0 l 1,-4.3 c 0,-0.6 0.7,-0.9 1.2,-0.8 0.4,0 0.8,0.4 0.8,0.8 l 1.1,4.3 v 0 l 1,-4.4 c 0,-0.4 0.4,-0.8 0.9,-0.8 0.5,0 0.8,0.3 0.9,0.7 v 0 0.6 l -1.4,4.8 c 0,0.6 -0.6,1 -1.2,1 -0.6,0 -1.1,-0.4 -1.2,-1 v 0 l -1,-4 v 0 l -1,4 c 0,0.6 -0.6,1 -1.2,1 v 0 c -0.6,0 -0.9,-0.3 -1.1,-1 v 0 z"
           id="path123"
           style="fill:#ffffff" />
        <path
           class="cls-4"
           d="m 570.1,88 v -5.2 c 0,-0.5 0.3,-0.9 0.7,-0.9 v 0 c 0.5,0 0.9,0.3 0.9,0.8 v 0 0.5 0 c 0.3,-0.8 1.2,-1.4 2.1,-1.3 1.2,0 2.3,0.9 2.4,2.1 v 4 c 0,0.5 -0.4,0.9 -0.9,0.9 -0.5,0 -0.9,-0.4 -0.9,-0.9 v 0 -3.2 c 0,-0.9 -0.4,-1.4 -1.2,-1.4 -0.8,0 -1.4,0.6 -1.4,1.3 V 88 c 0,0.5 -0.3,1 -0.8,1 -0.5,0 -1,-0.3 -1,-0.8 V 88 88 Z"
           id="path124"
           style="fill:#ffffff" />
        <path
           class="cls-4"
           d="m 12.5,337.5 v -5.6 c 0,-0.4 0.2,-0.7 0.6,-0.8 h 2.2 c 1.3,0 2.4,0.9 2.4,2.1 v 0.3 c 0,1.3 -1,2.4 -2.3,2.4 h -1.5 v 1.5 c 0,0.4 -0.2,0.8 -0.6,0.8 -0.4,0 -0.8,-0.2 -0.8,-0.6 v -0.2 0 z m 2.5,-2.7 c 0.7,0 1.3,-0.4 1.4,-1.1 0.1,-0.7 -0.4,-1.3 -1.1,-1.4 h -1.2 v 2.5 h 1 v 0 z"
           id="path125"
           style="fill:#ffffff" />
        <path
           class="cls-4"
           d="m 18.6,337.6 v -5.8 c 0,-0.4 0.3,-0.7 0.7,-0.7 0.4,0 0.7,0.3 0.7,0.7 v 0 5.8 c 0,0.4 -0.3,0.7 -0.7,0.7 -0.4,0 -0.7,-0.3 -0.7,-0.7 z"
           id="path126"
           style="fill:#ffffff" />
        <path
           class="cls-4"
           d="m 20.8,336.7 c 0,-1 0.7,-1.5 2,-1.6 h 1.4 v -0.4 c 0,-0.5 -0.3,-0.8 -0.9,-0.8 -0.6,0 -0.8,0.2 -1,0.5 -0.1,0.2 -0.3,0.3 -0.6,0.3 -0.3,0 -0.6,-0.2 -0.6,-0.5 v 0 -0.3 c 0.5,-0.7 1.3,-1.1 2.2,-1 1.3,0 2.2,0.7 2.2,1.8 v 3 c 0,0.4 -0.2,0.7 -0.6,0.7 h -0.1 c -0.3,0 -0.7,-0.2 -0.7,-0.6 v 0 -0.3 0 c -0.3,0.6 -0.9,0.9 -1.6,0.9 -0.7,0 -1.7,-0.5 -1.8,-1.4 v -0.2 h 0.1 z m 3.4,-0.4 v -0.4 h -1.1 c -0.5,0 -0.8,0.4 -0.8,0.7 0,0.3 0.3,0.6 0.8,0.6 0.5,0 1.1,-0.3 1.1,-0.8 v 0 z"
           id="path127"
           style="fill:#ffffff" />
        <path
           class="cls-4"
           d="m 26.9,334 h -0.3 c -0.3,0 -0.6,-0.2 -0.6,-0.5 0,-0.3 0.2,-0.6 0.5,-0.6 h 0.4 v -0.6 c 0,-0.4 0.2,-0.8 0.6,-0.8 0.4,0 0.8,0.2 0.8,0.6 v 0.8 h 0.5 c 0.3,0 0.6,0.2 0.6,0.5 0,0.3 -0.2,0.6 -0.5,0.6 h -0.6 v 2.5 c 0,0.4 0.1,0.5 0.4,0.5 v 0 c 0.3,0 0.5,0.2 0.5,0.5 0,0.3 -0.4,0.6 -1,0.6 v 0 c -0.7,0.1 -1.3,-0.4 -1.4,-1 v -3.2 h 0.1 z"
           id="path128"
           style="fill:#ffffff" />
        <path
           class="cls-4"
           d="m 65.1,548.9 c 0,-2.3 1.3,-3.6 3.3,-3.6 2,0 2.3,0.6 2.8,1.6 0,0.2 0,0.4 0,0.6 0,0.3 -0.2,0.6 -0.6,0.6 v 0 c -0.3,0 -0.6,-0.2 -0.7,-0.5 -0.3,-0.7 -0.9,-1.1 -1.6,-1.1 -1.1,0 -1.8,0.9 -1.8,2.4 0,1.5 0.7,2.4 1.8,2.4 1.1,0 1.3,-0.4 1.6,-1 0,-0.3 0.4,-0.5 0.6,-0.5 0.4,0 0.7,0.2 0.7,0.6 v 0 c 0,0.2 0,0.3 0,0.5 -0.5,1 -1.6,1.7 -2.8,1.6 -2.1,0 -3.4,-1.4 -3.4,-3.7 v 0 z"
           id="path129"
           style="fill:#ffffff" />
        <path
           class="cls-4"
           d="m 74.4,551.7 v -5.6 c 0,-0.4 0.2,-0.8 0.6,-0.8 0.4,0 0.8,0.2 0.8,0.6 v 5.4 h 2.5 c 0.3,0 0.6,0.3 0.6,0.6 0,0.3 -0.3,0.6 -0.6,0.6 h -3.2 c -0.4,0 -0.7,-0.2 -0.7,-0.6 v 0 c 0,0 0,-0.2 0,-0.2 z"
           id="path130"
           style="fill:#ffffff" />
        <path
           class="cls-4"
           d="m 79.4,549.8 c 0,-1.4 1.3,-2.5 2.7,-2.5 1.4,0 2.5,1.3 2.5,2.7 0,1.4 -1.2,2.5 -2.6,2.5 -1.4,0 -2.5,-1 -2.6,-2.4 v -0.4 0 z m 3.8,0 c 0,-1 -0.4,-1.6 -1.1,-1.6 -0.7,0 -1.1,0.6 -1.1,1.6 0,1 0.4,1.6 1.1,1.6 0.7,0 1.1,-0.6 1.1,-1.6 z"
           id="path131"
           style="fill:#ffffff" />
        <path
           class="cls-4"
           d="m 85.4,551.8 v -4 c 0,-0.4 0.2,-0.7 0.6,-0.7 v 0 c 0.4,0 0.7,0.2 0.7,0.6 v 0 0.4 0 c 0.3,-0.6 0.9,-1.1 1.6,-1 1,0 1.8,0.7 1.8,1.6 v 3.1 c 0,0.4 -0.2,0.8 -0.6,0.8 -0.4,0 -0.8,-0.2 -0.8,-0.6 v -2.6 c 0,-0.7 -0.3,-1.1 -1,-1.1 -0.7,0 -1,0.4 -1,1 v 2.6 c 0,0.4 -0.2,0.8 -0.6,0.8 -0.4,0 -0.8,-0.2 -0.8,-0.6 v -0.2 0 z"
           id="path132"
           style="fill:#ffffff" />
        <path
           class="cls-4"
           d="m 91.3,553.5 c 0,0 0,-0.3 0,-0.4 0,-0.3 0.2,-0.5 0.5,-0.5 v 0 c 0.2,0 0.4,0 0.5,0.2 0.3,0.4 0.8,0.6 1.2,0.6 0.8,0 1.2,-0.4 1.2,-1.1 v -0.8 0 c -0.3,0.6 -0.9,1 -1.6,0.9 -1.3,0 -2.1,-1 -2.1,-2.6 0,-1.6 0.8,-2.6 2.1,-2.6 1.3,0 1.3,0.4 1.6,1 v 0 -0.3 c 0,-0.4 0.3,-0.7 0.7,-0.7 0.4,0 0.7,0.3 0.7,0.7 v 0 4.4 c 0,1.4 -1,2.2 -2.7,2.2 -1.7,0 -1.7,-0.3 -2.2,-1 h 0.2 z m 3.4,-3.7 c 0,-0.9 -0.5,-1.5 -1.2,-1.5 -0.7,0 -1.1,0.6 -1.1,1.5 0,0.9 0.4,1.5 1.1,1.5 0.7,0 1.2,-0.6 1.2,-1.5 z"
           id="path133"
           style="fill:#ffffff" />
        <path
           class="cls-4"
           d="m 163.6,337.4 v -5.6 c 0,-0.4 0.2,-0.8 0.6,-0.8 0.4,0 0.8,0.2 0.8,0.6 v 5.4 h 2.5 c 0.3,0 0.6,0.3 0.6,0.6 0,0.3 -0.3,0.6 -0.6,0.6 h -3.2 c -0.4,0 -0.7,-0.3 -0.7,-0.6 v 0 c 0,-0.1 0,-0.2 0,-0.2 z"
           id="path134"
           style="fill:#ffffff" />
        <path
           class="cls-4"
           d="m 168.6,335.6 c 0,-1.4 1.3,-2.5 2.7,-2.5 1.4,0 2.5,1.3 2.5,2.7 0,1.4 -1.2,2.5 -2.6,2.5 -1.4,0 -2.5,-1 -2.6,-2.4 v -0.4 0 z m 3.8,0 c 0,-1 -0.4,-1.6 -1.1,-1.6 -0.7,0 -1.1,0.6 -1.1,1.6 0,1 0.4,1.6 1.1,1.6 0.7,0 1.1,-0.6 1.1,-1.6 z"
           id="path135"
           style="fill:#ffffff" />
        <path
           class="cls-4"
           d="m 174.7,339.2 c 0,-0.1 -0.1,-0.3 -0.1,-0.4 0,-0.3 0.2,-0.5 0.5,-0.5 v 0 c 0.2,0 0.4,0 0.5,0.2 0.3,0.3 0.8,0.6 1.2,0.6 0.8,0 1.2,-0.4 1.2,-1.1 v -0.8 0 c -0.3,0.6 -0.9,1 -1.6,0.9 -1.3,0 -2.1,-1 -2.1,-2.6 0,-1.6 0.8,-2.6 2.1,-2.6 1.3,0 1.3,0.4 1.6,1 v 0 -0.3 c 0,-0.4 0.2,-0.7 0.6,-0.7 h 0.1 c 0.4,0 0.7,0.2 0.7,0.6 v 0 4.6 c 0,1.4 -1,2.2 -2.7,2.2 -1.7,0 -1.7,-0.3 -2.2,-1 h 0.2 z m 3.4,-3.7 c 0,-1 -0.5,-1.5 -1.2,-1.5 -0.7,0 -1.1,0.6 -1.1,1.5 0,0.9 0.4,1.5 1.1,1.5 0.7,0 1.2,-0.6 1.2,-1.5 z"
           id="path136"
           style="fill:#ffffff" />
        <path
           class="cls-4"
           d="M 180.4,337.3 V 337 c 0,-0.3 0.2,-0.5 0.5,-0.6 v 0 c 0.2,0 0.5,0.1 0.6,0.3 0.3,0.4 0.7,0.6 1.1,0.5 0.5,0 0.9,-0.2 0.9,-0.6 0,-0.4 -0.2,-0.4 -0.7,-0.5 l -0.9,-0.2 c -1,-0.2 -1.5,-0.7 -1.5,-1.5 0,-0.8 0.9,-1.7 2.2,-1.7 0.8,-0.1 1.7,0.3 2.1,1.1 v 0.2 c 0,0.3 -0.2,0.5 -0.6,0.5 -0.4,0 -0.4,0 -0.5,-0.2 -0.2,-0.3 -0.6,-0.6 -1,-0.6 -0.4,0 -0.8,0.2 -0.8,0.6 0,0.4 0.2,0.5 0.7,0.6 l 0.9,0.2 c 1.1,0.2 1.6,0.7 1.6,1.4 0,0.7 -0.9,1.7 -2.3,1.7 -1.4,0 -2,-0.4 -2.2,-1 h -0.1 z"
           id="path137"
           style="fill:#ffffff" />
        <path
           class="cls-4"
           d="m 711.9,575.6 v -0.5 l 1.9,-5.2 c 0.2,-0.6 0.8,-1 1.4,-0.8 0.4,0 0.7,0.4 0.8,0.8 l 1.9,5.2 v 0.5 c 0,0.4 -0.3,0.7 -0.7,0.7 v 0 c -0.4,0 -0.6,-0.2 -0.8,-0.7 l -0.4,-1.1 h -2.5 l -0.4,1.1 c 0,0.5 -0.4,0.7 -0.8,0.7 -0.4,0 -0.7,-0.2 -0.7,-0.6 h 0.3 z m 4.1,-2.3 -0.9,-2.9 v 0 l -0.9,2.9 z"
           id="path138"
           style="fill:#ffffff" />
        <path
           class="cls-4"
           d="m 721.1,575.4 v -5.6 c 0,-0.4 0.2,-0.8 0.6,-0.8 0.4,0 0.8,0.2 0.8,0.6 v 5.4 h 2.5 c 0.3,0 0.6,0.3 0.6,0.6 0,0.3 -0.3,0.6 -0.6,0.6 h -3.2 c -0.4,0 -0.7,-0.2 -0.8,-0.6 v -0.2 z"
           id="path139"
           style="fill:#ffffff" />
        <path
           class="cls-4"
           d="m 726.1,573.5 c 0,-1.4 1.3,-2.5 2.7,-2.5 1.4,0 2.5,1.3 2.5,2.7 0,1.4 -1.2,2.5 -2.6,2.5 -1.4,0 -2.5,-1 -2.6,-2.3 z m 3.8,0 c 0,-1 -0.5,-1.7 -1.1,-1.7 -0.6,0 -1.2,0.6 -1.2,1.7 0,1.1 0.4,1.6 1.2,1.6 0.8,0 1.1,-0.6 1.1,-1.6 z"
           id="path140"
           style="fill:#ffffff" />
        <path
           class="cls-4"
           d="m 732.1,575.5 v -4 c 0,-0.4 0.2,-0.7 0.6,-0.7 v 0 c 0.4,0 0.7,0.2 0.7,0.6 v 0 0.4 0 c 0.3,-0.6 0.9,-1.1 1.6,-1 0.9,0 1.8,0.6 1.8,1.6 v 3.1 c 0,0.4 -0.2,0.8 -0.6,0.8 -0.4,0 -0.8,-0.2 -0.8,-0.6 V 573 c 0,-0.7 -0.3,-1.1 -1,-1.1 -0.7,0 -1,0.4 -1,1 v 2.6 c 0,0.4 -0.2,0.8 -0.6,0.8 -0.4,0 -0.8,-0.2 -0.8,-0.6 v -0.2 0 z"
           id="path141"
           style="fill:#ffffff" />
        <path
           class="cls-4"
           d="m 737.9,577.2 c 0,0 0,-0.3 0,-0.4 0,-0.3 0.2,-0.5 0.5,-0.5 v 0 c 0.2,0 0.4,0 0.5,0.2 0.3,0.3 0.8,0.6 1.2,0.6 0.8,0 1.2,-0.4 1.2,-1.1 v -0.8 0 c -0.3,0.6 -0.9,1 -1.6,0.9 -1.3,0 -2.1,-1 -2.1,-2.6 0,-1.6 0.8,-2.6 2.2,-2.6 1.4,0 1.3,0.4 1.6,1 v 0 -0.3 c 0,-0.4 0.3,-0.7 0.7,-0.7 0.4,0 0.7,0.3 0.7,0.7 v 0 4.4 c 0,1.4 -1,2.2 -2.7,2.2 -1.7,0 -1.7,-0.3 -2.2,-1 z m 3.5,-3.7 c 0,-1 -0.5,-1.5 -1.2,-1.5 -0.7,0 -1.2,0.6 -1.2,1.5 0,0.9 0.4,1.5 1.2,1.5 0.8,0 1.2,-0.6 1.2,-1.5 z"
           id="path142"
           style="fill:#ffffff" />
        <path
           class="cls-4"
           d="m 524.4,728.4 v -0.5 l 1.9,-5.2 c 0.2,-0.6 0.8,-1 1.4,-0.8 0.4,0 0.7,0.4 0.8,0.8 l 1.9,5.2 v 0.5 c 0,0.4 -0.3,0.7 -0.7,0.7 v 0 c -0.4,0 -0.6,-0.2 -0.8,-0.7 l -0.4,-1.1 H 526 l -0.4,1.1 c 0,0.5 -0.4,0.7 -0.8,0.7 -0.4,0 -0.7,-0.2 -0.7,-0.6 v 0 z m 4,-2.2 -0.9,-2.9 v 0 l -0.9,2.9 z"
           id="path143"
           style="fill:#ffffff" />
        <path
           class="cls-4"
           d="m 533.5,728.3 v -5.6 c 0,-0.4 0.3,-0.7 0.7,-0.7 0.4,0 0.7,0.3 0.7,0.7 v 0 5.2 h 2.5 c 0.3,0 0.6,0.3 0.6,0.6 0,0.3 -0.3,0.6 -0.6,0.6 h -3.2 c -0.4,0 -0.7,-0.3 -0.7,-0.6 v 0 z"
           id="path144"
           style="fill:#ffffff" />
        <path
           class="cls-4"
           d="m 538.6,726.4 c 0,-1.4 1.3,-2.5 2.7,-2.4 1.4,0.1 2.5,1.3 2.4,2.7 0,1.4 -1.2,2.4 -2.6,2.5 -1.4,0 -2.5,-1 -2.6,-2.4 v -0.4 0 z m 3.7,0 c 0,-1 -0.5,-1.6 -1.1,-1.6 -0.6,0 -1.2,0.6 -1.2,1.6 0,1 0.4,1.6 1.2,1.6 0.8,0 1.1,-0.6 1.1,-1.6 z"
           id="path145"
           style="fill:#ffffff" />
        <path
           class="cls-4"
           d="m 544.5,728.4 v -5.8 c 0,-0.4 0.3,-0.7 0.7,-0.7 0.4,0 0.7,0.3 0.7,0.7 v 0 2.1 0 c 0.3,-0.6 0.9,-1 1.6,-1 1.3,0 2.1,1 2.1,2.7 0,1.7 -0.8,2.7 -2.1,2.7 -1.3,0 -1.3,-0.4 -1.6,-1 v 0 0.3 c 0,0.4 -0.3,0.7 -0.7,0.7 -0.4,0 -0.7,-0.3 -0.7,-0.7 z m 3.7,-2 c 0,-1 -0.5,-1.6 -1.2,-1.6 -0.7,0 -1.2,0.6 -1.2,1.6 0,1 0.5,1.5 1.2,1.5 0.7,0 1.2,-0.6 1.2,-1.5 z"
           id="path146"
           style="fill:#ffffff" />
        <path
           class="cls-4"
           d="m 550.5,728.4 v -5.8 c 0,-0.4 0.3,-0.7 0.7,-0.7 0.4,0 0.7,0.3 0.7,0.7 v 0 2.1 0 c 0.3,-0.6 0.9,-1 1.6,-1 1.3,0 2.1,1 2.1,2.7 0,1.7 -0.8,2.7 -2.1,2.7 -1.3,0 -1.4,-0.4 -1.7,-1 v 0 0.3 c 0,0.4 -0.2,0.7 -0.6,0.7 v 0 c -0.4,0 -0.7,-0.2 -0.7,-0.6 v 0 z m 3.7,-2 c 0,-1 -0.5,-1.6 -1.2,-1.6 -0.7,0 -1.2,0.6 -1.2,1.6 0,1 0.5,1.5 1.2,1.5 0.7,0 1.2,-0.6 1.2,-1.5 z"
           id="path147"
           style="fill:#ffffff" />
        <path
           class="cls-4"
           d="m 556.2,730.3 c 0,-0.3 0.2,-0.5 0.4,-0.5 h 0.2 c 0.3,0 0.6,-0.2 0.7,-0.5 v -0.2 l -1.6,-4.4 v -0.4 c 0,-0.4 0.3,-0.7 0.7,-0.7 v 0 c 0.4,0 0.6,0.2 0.7,0.6 l 1.1,3.6 v 0 l 1.1,-3.6 c 0,-0.3 0.3,-0.6 0.7,-0.6 0.4,0 0.7,0.2 0.7,0.6 v 0 0.4 l -1.6,4.4 c -0.5,1.3 -1.1,1.8 -2.2,1.8 -1.1,0 -0.9,-0.2 -0.9,-0.7 z"
           id="path148"
           style="fill:#ffffff" />
        <path
           class="cls-4"
           d="m 278.4,468.5 c 0,-2.2 1.3,-3.6 3.4,-3.6 2.1,0 2.2,0.5 2.8,1.5 0,0.1 0.1,0.3 0.1,0.5 0,0.3 -0.2,0.6 -0.6,0.6 v 0 c -0.3,0 -0.6,-0.2 -0.7,-0.4 -0.3,-0.6 -0.9,-1 -1.5,-0.9 -1.2,0 -1.9,0.9 -1.9,2.4 0,1.5 0.7,2.5 1.9,2.5 1.2,0 1.6,-0.6 1.7,-1.4 v 0 c 0,-0.1 -1,-0.1 -1,-0.1 -0.3,0 -0.5,-0.2 -0.5,-0.5 0,-0.3 0.2,-0.5 0.5,-0.5 h 1.7 c 0.4,0 0.7,0.3 0.7,0.6 v 0 c 0,1.8 -1.1,3.1 -2.7,3.2 h -0.5 c -2.1,0 -3.4,-1.4 -3.4,-3.7 z"
           id="path149"
           style="fill:#ffffff" />
        <path
           class="cls-4"
           d="m 285.5,470.5 c 0,-1 0.7,-1.5 2,-1.6 h 1.3 v -0.4 c 0,-0.5 -0.3,-0.8 -0.9,-0.8 -0.6,0 -0.8,0.2 -1,0.5 -0.1,0.2 -0.3,0.3 -0.6,0.3 -0.3,0 -0.6,-0.2 -0.6,-0.5 v 0 -0.3 c 0.5,-0.7 1.3,-1.1 2.2,-1 1.4,0 2.2,0.7 2.2,1.8 v 3 c 0,0.4 -0.2,0.7 -0.6,0.7 h -0.1 c -0.3,0 -0.7,-0.2 -0.7,-0.6 v 0 -0.3 0 c -0.3,0.6 -0.9,0.9 -1.6,0.9 -0.7,0 -1.7,-0.6 -1.8,-1.5 v 0 c 0,-0.1 0.2,-0.2 0.2,-0.2 z m 3.4,-0.4 v -0.4 h -1.1 c -0.5,0 -0.8,0.4 -0.8,0.7 0,0.3 0.3,0.6 0.8,0.6 0.5,0 1.1,-0.3 1.1,-0.8 v 0 z"
           id="path150"
           style="fill:#ffffff" />
        <path
           class="cls-4"
           d="m 291.2,471.4 v -4 c 0,-0.4 0.2,-0.7 0.6,-0.7 h 0.1 c 0.4,0 0.7,0.3 0.7,0.6 v 0 0.4 0 c 0,-0.6 0.5,-1 1.1,-1 0.6,0 0.3,0 0.4,0.1 0.1,0.1 0.2,0.3 0.2,0.5 0,0.2 0,0.4 -0.2,0.5 -0.2,0.1 -0.4,0.2 -0.6,0.2 -0.6,0 -0.9,0.4 -0.9,1 v 2.3 c 0,0.4 -0.3,0.7 -0.7,0.7 -0.4,0 -0.7,-0.3 -0.7,-0.7 v 0 z"
           id="path151"
           style="fill:#ffffff" />
        <path
           class="cls-4"
           d="m 294.5,470.5 c 0,-1 0.7,-1.5 2,-1.6 h 1.3 v -0.4 c 0,-0.5 -0.3,-0.8 -0.9,-0.8 -0.6,0 -0.8,0.2 -1,0.5 -0.1,0.2 -0.3,0.3 -0.6,0.3 -0.3,0 -0.6,-0.2 -0.6,-0.5 v 0 -0.3 c 0.5,-0.7 1.3,-1.1 2.2,-1 1.4,0 2.2,0.7 2.2,1.8 v 3 c 0,0.4 -0.2,0.7 -0.6,0.7 h -0.1 c -0.3,0 -0.7,-0.2 -0.7,-0.6 v 0 -0.3 0 c -0.3,0.6 -0.9,0.9 -1.6,0.9 -0.7,0 -1.7,-0.6 -1.8,-1.5 v 0 c 0,-0.1 0.2,-0.2 0.2,-0.2 z m 3.4,-0.4 v -0.4 h -1.1 c -0.5,0 -0.8,0.4 -0.8,0.7 0,0.3 0.3,0.6 0.8,0.6 0.5,0 1.1,-0.3 1.1,-0.8 v 0 z"
           id="path152"
           style="fill:#ffffff" />
        <path
           class="cls-4"
           d="m 300.3,473 c 0,-0.1 -0.1,-0.3 -0.1,-0.4 0,-0.3 0.2,-0.5 0.5,-0.5 v 0 c 0.2,0 0.4,0 0.5,0.2 0.3,0.4 0.8,0.6 1.2,0.6 0.6,0 1.1,-0.3 1.2,-0.9 v -1 0 c -0.3,0.6 -0.9,1 -1.6,0.9 -1.3,0 -2.1,-1 -2.1,-2.6 0,-1.6 0.8,-2.6 2.1,-2.6 1.3,0 1.3,0.4 1.6,1 v 0 -0.3 c 0,-0.4 0.2,-0.7 0.6,-0.7 h 0.1 c 0.4,0 0.7,0.2 0.7,0.6 v 0 4.5 c 0,1.4 -1,2.2 -2.7,2.2 -1.7,0 -1.7,-0.3 -2.2,-1 z m 3.5,-3.6 c 0,-0.9 -0.5,-1.5 -1.2,-1.5 -0.7,0 -1.1,0.6 -1.1,1.5 0,0.9 0.4,1.5 1.1,1.5 0.7,0 1.2,-0.6 1.2,-1.5 z"
           id="path153"
           style="fill:#ffffff" />
        <path
           class="cls-4"
           d="m 305.9,469.5 c -0.2,-1.4 0.8,-2.6 2.2,-2.7 h 0.4 c 1.3,0 2.4,0.9 2.5,2.2 v 0.2 c 0,0.3 -0.2,0.6 -0.5,0.6 h -3.1 c 0,0.7 0.4,1.3 1,1.3 h 0.1 c 0.5,0 1,-0.2 1.2,-0.6 0.1,-0.1 0.3,-0.2 0.5,-0.2 0.3,0 0.5,0.2 0.5,0.5 v 0 0.3 c -0.5,0.7 -1.3,1.1 -2.2,1 -1.3,0 -2.5,-0.9 -2.6,-2.3 v -0.4 0 z m 3.7,-0.6 c 0,-0.6 -0.4,-1.1 -1,-1.1 v 0 c -0.6,0 -1.1,0.5 -1.1,1.1 h 2.2 z"
           id="path154"
           style="fill:#ffffff" />
        <path
           class="cls-4"
           d="m 279.5,394.4 -1.5,-5.3 v -0.5 c 0,-0.4 0.3,-0.7 0.6,-0.7 h 0.1 c 0.4,0 0.7,0.3 0.7,0.6 l 1,4.5 v 0 l 1.2,-4.5 c 0.1,-0.5 0.4,-0.7 0.8,-0.7 0.4,0 0.7,0.3 0.8,0.7 l 1.2,4.5 v 0 l 1,-4.6 c 0,-0.4 0.3,-0.6 0.7,-0.6 0.4,0 0.7,0.2 0.7,0.6 v 0 0.6 l -1.5,5.3 c -0.1,0.5 -0.4,0.8 -0.9,0.8 -0.5,0 -0.7,-0.2 -0.9,-0.8 l -1.2,-4.2 v 0 l -1.2,4.2 c -0.1,0.5 -0.4,0.8 -0.9,0.8 -0.5,0 -0.7,-0.2 -0.8,-0.7 v 0 z"
           id="path155"
           style="fill:#ffffff" />
        <path
           class="cls-4"
           d="m 287.7,388.4 c 0,-0.4 0.3,-0.8 0.7,-0.8 0.4,0 0.8,0.3 0.8,0.7 0,0.4 -0.3,0.8 -0.7,0.8 v 0 c -0.4,0 -0.8,-0.3 -0.8,-0.7 z m 0.1,6 v -4 c 0,-0.4 0.2,-0.8 0.6,-0.8 0.4,0 0.8,0.2 0.8,0.6 v 4.2 c 0,0.4 -0.2,0.8 -0.6,0.8 -0.4,0 -0.8,-0.2 -0.8,-0.6 z"
           id="path156"
           style="fill:#ffffff" />
        <path
           class="cls-4"
           d="m 290.1,394.4 v -4 c 0,-0.4 0.2,-0.7 0.6,-0.7 h 0.1 c 0.4,0 0.7,0.3 0.7,0.6 v 0 0.3 0 c 0.3,-0.7 0.9,-1.1 1.6,-1 0.9,0 1.8,0.7 1.8,1.6 v 3.1 c 0,0.4 -0.3,0.7 -0.7,0.7 -0.4,0 -0.7,-0.3 -0.7,-0.7 v -2.4 c 0,-0.7 -0.3,-1.1 -1,-1.1 -0.7,0 -1,0.4 -1.1,0.9 v 2.6 c 0,0.4 -0.3,0.7 -0.7,0.7 -0.4,0 -0.7,-0.3 -0.7,-0.7 h 0.1 z"
           id="path157"
           style="fill:#ffffff" />
        <path
           class="cls-4"
           d="m 295.7,392.4 c 0,-1.7 0.8,-2.7 2.1,-2.7 1.3,0 1.3,0.4 1.6,1 v 0 -2.1 c 0,-0.4 0.3,-0.7 0.7,-0.7 0.4,0 0.7,0.3 0.7,0.7 v 0 5.8 c 0,0.4 -0.3,0.7 -0.7,0.7 -0.4,0 -0.7,-0.3 -0.7,-0.7 v -0.3 0 c -0.3,0.6 -0.9,1 -1.6,1 -1.3,0 -2.1,-1.1 -2.1,-2.7 z m 3.8,0 c 0,-1 -0.5,-1.6 -1.2,-1.6 -0.7,0 -1.1,0.6 -1.1,1.6 0,1 0.4,1.5 1.1,1.5 0.7,0 1.2,-0.6 1.2,-1.5 z"
           id="path158"
           style="fill:#ffffff" />
        <path
           class="cls-4"
           d="m 301.6,392.4 c 0,-1.4 1.3,-2.5 2.7,-2.5 1.4,0 2.5,1.3 2.5,2.7 0,1.4 -1.2,2.5 -2.6,2.5 -1.4,0 -2.5,-1 -2.6,-2.3 z m 3.8,0 c 0,-1 -0.5,-1.6 -1.1,-1.6 -0.6,0 -1.1,0.6 -1.1,1.6 0,1 0.4,1.6 1.1,1.6 0.7,0 1.1,-0.6 1.1,-1.6 z"
           id="path159"
           style="fill:#ffffff" />
        <path
           class="cls-4"
           d="m 308.4,394.4 -1.1,-3.7 v -0.4 c 0,-0.3 0.3,-0.6 0.6,-0.6 v 0 c 0.3,0 0.6,0.3 0.7,0.6 l 0.8,3.4 v 0 l 0.8,-3.3 c 0,-0.4 0.5,-0.7 0.9,-0.7 0.4,0 0.6,0.3 0.7,0.7 l 0.8,3.3 v 0 l 0.8,-3.4 c 0,-0.3 0.3,-0.6 0.6,-0.6 0.3,0 0.6,0.2 0.7,0.6 v 0 0.4 l -1,3.7 c 0,0.5 -0.5,0.8 -0.9,0.8 -0.4,0 -0.9,-0.3 -0.9,-0.8 v 0 l -0.8,-3 v 0 l -0.8,3.1 c 0,0.5 -0.5,0.8 -0.9,0.8 -0.4,0 -0.7,-0.2 -0.9,-0.8 h -0.1 z"
           id="path160"
           style="fill:#ffffff" />
        <path
           class="cls-4"
           d="m 274.4,334.7 c 0,-2.3 1.3,-3.7 3.3,-3.7 2,0 2.3,0.6 2.8,1.6 0,0.2 0.1,0.4 0.1,0.6 0,0.3 -0.2,0.6 -0.6,0.6 v 0 c -0.3,0 -0.6,-0.2 -0.7,-0.5 -0.3,-0.7 -0.9,-1.1 -1.6,-1.1 -1.1,0 -1.8,0.9 -1.8,2.4 0,1.5 0.7,2.4 1.8,2.4 1.1,0 1.3,-0.4 1.6,-1 0,-0.3 0.4,-0.5 0.6,-0.5 0.4,0 0.7,0.2 0.7,0.6 v 0 c 0,0.2 0,0.3 -0.1,0.5 -0.5,1 -1.6,1.7 -2.8,1.6 -2.1,0 -3.4,-1.4 -3.4,-3.7 v 0.2 z"
           id="path161"
           style="fill:#ffffff" />
        <path
           class="cls-4"
           d="m 283.7,337.4 v -5.6 c 0,-0.4 0.3,-0.7 0.7,-0.7 0.4,0 0.7,0.3 0.7,0.7 v 5.2 h 2.5 c 0.3,0 0.6,0.3 0.6,0.6 0,0.3 -0.3,0.6 -0.6,0.6 h -3.2 c -0.4,0 -0.7,-0.3 -0.7,-0.6 v 0 z"
           id="path162"
           style="fill:#ffffff" />
        <path
           class="cls-4"
           d="m 289,331.6 c 0,-0.4 0.3,-0.7 0.8,-0.7 v 0 c 0.4,0 0.7,0.3 0.7,0.7 0,0.4 -0.3,0.7 -0.7,0.7 v 0 c -0.4,0 -0.8,-0.3 -0.8,-0.7 z m 0,6 v -4 c 0,-0.4 0.2,-0.8 0.6,-0.8 0.4,0 0.8,0.2 0.8,0.6 v 4.2 c 0,0.4 -0.2,0.8 -0.6,0.8 -0.4,0 -0.8,-0.2 -0.8,-0.6 z"
           id="path163"
           style="fill:#ffffff" />
        <path
           class="cls-4"
           d="m 291.4,337.6 v -4 c 0,-0.4 0.2,-0.7 0.6,-0.7 h 0.1 c 0.4,0 0.7,0.2 0.7,0.6 v 0 0.4 0 c 0.3,-0.6 0.9,-1.1 1.6,-1 0.9,0 1.8,0.7 1.8,1.6 v 3.1 c 0,0.4 -0.3,0.7 -0.7,0.7 -0.4,0 -0.7,-0.3 -0.7,-0.7 v -2.4 c 0,-0.7 -0.3,-1.1 -1,-1.1 -0.7,0 -1,0.4 -1.1,0.9 v 2.6 c 0,0.4 -0.3,0.7 -0.7,0.7 -0.4,0 -0.7,-0.3 -0.7,-0.7 z"
           id="path164"
           style="fill:#ffffff" />
        <path
           class="cls-4"
           d="m 297.2,337.6 v -5.8 c 0,-0.4 0.2,-0.7 0.6,-0.7 h 0.1 c 0.4,0 0.7,0.3 0.7,0.6 v 0 3.3 0 l 1.9,-1.9 c 0.1,-0.2 0.3,-0.3 0.6,-0.3 0.3,0 0.6,0.3 0.6,0.6 v 0 c 0,0.2 0,0.4 -0.3,0.5 l -1.3,1.3 1.5,1.9 c 0.1,0.1 0.2,0.3 0.2,0.5 0,0.3 -0.3,0.6 -0.6,0.6 v 0 c -0.3,0 -0.5,0 -0.7,-0.4 l -1.3,-1.8 -0.5,0.4 v 1.1 c 0,0.4 -0.2,0.7 -0.6,0.7 H 298 c -0.4,0 -0.7,-0.3 -0.7,-0.6 z"
           id="path165"
           style="fill:#ffffff" />
        <path
           class="cls-4"
           d="m 425.2,371.8 v -16 c -0.1,-1.1 0.7,-2.1 1.8,-2.2 h 7.2 c 3.8,0 6.2,2 6.2,5.1 0,3.1 -1.6,4.1 -3.8,4.4 v 0 c 2.7,0.2 4.8,2.4 4.8,5 0,2.6 -2.7,5.8 -7.1,5.8 h -6.9 c -1.1,0 -2.1,-0.7 -2.1,-1.8 v -0.4 0 z m 7.4,-9.7 c 2.3,0 3.6,-1 3.6,-2.7 0,-1.7 -1.1,-2.6 -3.1,-2.6 h -3.5 v 5.3 h 3.1 z m 0.6,8.7 c 2.5,0 3.8,-1 3.8,-3 0,-2 -1.4,-2.9 -3.9,-2.9 h -3.6 v 5.9 z"
           id="path166-2"
           style="fill:#ffffff" />
        <path
           class="cls-4"
           d="m 79.2,323.6 c 3.9,0 6.9,1.7 8.2,4.6 0.2,0.4 0.3,0.9 0.3,1.4 0,1 -0.8,1.9 -1.8,1.9 h -0.2 c -0.9,0 -1.6,-0.5 -1.9,-1.3 -0.8,-1.9 -2.6,-3.1 -4.7,-3 -3.3,0 -5.3,2.7 -5.3,7 0,4.3 2.1,7 5.3,7 3.2,0 3.9,-1.2 4.6,-3.1 0.3,-0.9 1.1,-1.4 2,-1.4 0.9,0 1.8,0.6 1.9,1.6 v 0.2 c 0,0.6 -0.2,1.1 -0.4,1.6 -1.4,2.9 -4.4,4.6 -8.2,4.6 -5.9,0 -9.6,-4 -9.6,-10.6 0,-6.6 3.7,-10.5 9.8,-10.5 z"
           id="path167-4"
           style="fill:#ffffff" />
        <path
           class="cls-4"
           d="M 788.8,248.7 V 243 c 0,-0.4 0.2,-0.8 0.6,-0.8 0.4,0 0.8,0.2 0.8,0.6 v 2.4 h 3.2 V 243 c 0,-0.4 0.3,-0.7 0.7,-0.7 0.4,0 0.7,0.3 0.7,0.7 v 0 5.7 c 0,0.4 -0.3,0.7 -0.7,0.7 -0.4,0 -0.7,-0.3 -0.7,-0.7 v 0 -2.3 h -3.2 v 2.3 c 0,0.4 -0.2,0.8 -0.6,0.8 -0.4,0 -0.8,-0.2 -0.8,-0.6 z"
           id="path168"
           style="fill:#ffffff" />
        <path
           class="cls-4"
           d="m 795.8,246.7 c -0.2,-1.4 0.8,-2.6 2.2,-2.7 h 0.4 c 1.3,0 2.4,0.9 2.5,2.2 v 0.2 c 0,0.3 -0.2,0.6 -0.5,0.6 h -3.1 c 0,0.7 0.4,1.3 1,1.3 v 0 c 0.5,0 1,-0.2 1.2,-0.6 0,-0.1 0.3,-0.2 0.5,-0.2 0.3,0 0.5,0.2 0.6,0.5 v 0 0.4 c -0.5,0.7 -1.3,1.1 -2.2,1 -1.3,0 -2.5,-0.9 -2.6,-2.3 v -0.4 h -0.1 z m 3.6,-0.5 c 0,-0.6 -0.4,-1.1 -1,-1.1 v 0 c -0.6,0 -1.1,0.5 -1.1,1.1 h 2.2 z"
           id="path169"
           style="fill:#ffffff" />
        <path
           class="cls-4"
           d="m 801.5,248.7 v -5.8 c 0,-0.4 0.2,-0.7 0.6,-0.7 v 0 c 0.4,0 0.7,0.3 0.7,0.6 v 0 5.9 c 0,0.4 -0.2,0.7 -0.6,0.7 v 0 c -0.4,0 -0.7,-0.2 -0.7,-0.6 v 0 z"
           id="path170"
           style="fill:#ffffff" />
        <path
           class="cls-4"
           d="m 804,248.7 v -5.8 c 0,-0.4 0.3,-0.7 0.7,-0.7 0.4,0 0.7,0.3 0.7,0.7 v 0 5.8 c 0,0.4 -0.3,0.7 -0.7,0.7 -0.4,0 -0.7,-0.3 -0.7,-0.7 z"
           id="path171"
           style="fill:#ffffff" />
        <path
           class="cls-4"
           d="m 833.2,353.3 c -1.1,0 -1.8,-0.6 -2.2,-1.9 l -1.1,-3.2 h -7.4 l -1.1,3.2 c -0.4,1.3 -1,1.9 -2.2,1.9 -1.2,0 -2.1,-0.8 -2.1,-1.9 v 0 c 0,-0.6 0,-1 0.3,-1.4 l 5.6,-15.2 c 0.5,-1.8 2.4,-2.8 4.2,-2.3 1.1,0.3 2,1.2 2.3,2.3 l 5.6,15.2 c 0.2,0.4 0.3,0.9 0.3,1.3 0,1.1 -0.9,2 -2,2 z m -4.2,-8.4 -2.7,-8.4 v 0 l -2.7,8.4 h 5.5 v 0 z"
           id="path172-5"
           style="fill:#ffffff" />
        <path
           class="cls-4"
           d="m 660.8,329.2 c 0,-2.3 1.3,-3.6 3.4,-3.6 2.1,0 2.2,0.5 2.8,1.5 0,0.1 0,0.3 0,0.5 0,0.3 -0.3,0.6 -0.6,0.6 v 0 c -0.3,0 -0.6,-0.2 -0.7,-0.4 -0.3,-0.6 -0.9,-1 -1.6,-0.9 -1.2,0 -1.9,0.9 -1.9,2.4 0,1.5 0.7,2.5 1.9,2.5 1.2,0 1.6,-0.5 1.7,-1.4 v 0 c 0,-0.1 -1,-0.1 -1,-0.1 -0.3,0 -0.6,-0.2 -0.6,-0.5 0,-0.3 0.2,-0.6 0.5,-0.6 h 1.8 c 0.4,0 0.7,0.3 0.7,0.6 v 0 c 0,1.8 -1.1,3.1 -2.7,3.2 h -0.4 c -2.1,0 -3.4,-1.3 -3.4,-3.6 v -0.2 z"
           id="path173"
           style="fill:#ffffff" />
        <path
           class="cls-4"
           d="m 668.1,332.1 v -4 c 0,-0.4 0.3,-0.7 0.7,-0.7 0.4,0 0.7,0.3 0.7,0.7 v 0 0.3 0 c 0,-0.6 0.5,-1 1.1,-1 0.6,0 0.3,0 0.4,0.1 0.2,0.1 0.2,0.3 0.2,0.5 0,0.2 0,0.4 -0.2,0.5 -0.2,0.1 -0.4,0.2 -0.6,0.2 -0.7,0 -0.9,0.4 -0.9,1 v 2.3 c 0,0.4 -0.3,0.7 -0.7,0.7 -0.4,0 -0.7,-0.3 -0.7,-0.7 v 0 z"
           id="path174"
           style="fill:#ffffff" />
        <path
           class="cls-4"
           d="m 671.4,331.2 c 0,-1 0.7,-1.5 2,-1.6 h 1.3 v -0.4 c 0,-0.5 -0.3,-0.8 -0.9,-0.8 -0.6,0 -0.8,0.2 -1,0.5 0,0.2 -0.3,0.3 -0.6,0.3 -0.3,0 -0.6,-0.2 -0.6,-0.5 v 0 -0.3 c 0.5,-0.7 1.3,-1.1 2.2,-1 1.3,0 2.2,0.7 2.2,1.7 v 3 c 0,0.4 -0.2,0.7 -0.6,0.7 v 0 c -0.3,0 -0.7,-0.2 -0.7,-0.6 v 0 -0.3 0 c -0.3,0.6 -0.9,0.9 -1.6,0.9 -0.7,0 -1.7,-0.6 -1.8,-1.5 v 0 c 0,-0.1 0.2,-0.1 0.2,-0.1 z m 3.4,-0.4 v -0.4 h -1.1 c -0.5,0 -0.8,0.4 -0.8,0.7 0,0.3 0.3,0.6 0.8,0.6 0.5,0 1.1,-0.4 1.1,-1 v 0 z"
           id="path175"
           style="fill:#ffffff" />
        <path
           class="cls-4"
           d="m 677.5,332.1 v -3.5 h -0.3 c -0.3,0 -0.4,-0.4 -0.3,-0.7 0,-0.2 0.2,-0.3 0.3,-0.3 h 0.3 v -0.4 c 0,-0.7 0.4,-1.4 1.1,-1.5 h 0.4 c 0.8,0 1.1,0.2 1.1,0.6 0,0.4 0,0.3 -0.3,0.4 h -0.3 c -0.4,0 -0.6,0.2 -0.6,0.6 v 0.3 h 0.6 c 0.3,0 0.4,0.4 0.3,0.7 0,0.2 -0.2,0.3 -0.3,0.3 h -0.6 v 3.5 c 0,0.4 -0.3,0.7 -0.7,0.7 -0.4,0 -0.7,-0.3 -0.7,-0.7 z"
           id="path176"
           style="fill:#ffffff" />
        <path
           class="cls-4"
           d="m 681.1,332.1 v -3.5 h -0.3 c -0.3,0 -0.4,-0.4 -0.3,-0.7 0,-0.2 0.2,-0.3 0.3,-0.3 h 0.3 v -0.4 c 0,-0.7 0.4,-1.4 1.1,-1.5 h 0.4 c 0.8,0 1.1,0.2 1.1,0.6 0,0.4 0,0.3 -0.3,0.4 h -0.3 c -0.4,0 -0.6,0.2 -0.6,0.6 v 0.3 h 0.6 c 0.3,0 0.4,0.4 0.3,0.7 0,0.2 -0.2,0.3 -0.3,0.3 h -0.6 v 3.5 c 0,0.4 -0.3,0.7 -0.7,0.7 -0.4,0 -0.7,-0.3 -0.7,-0.7 z"
           id="path177"
           style="fill:#ffffff" />
        <path
           class="cls-4"
           d="m 684.2,326.1 c 0,-0.4 0.3,-0.8 0.8,-0.8 0.5,0 0.8,0.3 0.8,0.8 0,0.5 -0.3,0.8 -0.8,0.8 -0.5,0 -0.8,-0.3 -0.8,-0.8 z m 0.1,6 v -4 c 0,-0.4 0.2,-0.7 0.6,-0.7 v 0 c 0.4,0 0.7,0.3 0.7,0.7 v 0 4 c 0,0.4 -0.2,0.7 -0.6,0.7 v 0 c -0.4,0 -0.7,-0.3 -0.7,-0.6 v 0 z"
           id="path178"
           style="fill:#ffffff" />
        <path
           class="cls-4"
           d="m 687.1,328.6 h -0.3 c -0.3,0 -0.6,-0.2 -0.6,-0.5 0,-0.3 0.2,-0.6 0.5,-0.6 h 0.4 v -0.6 c 0,-0.4 0.2,-0.8 0.6,-0.8 0.4,0 0.8,0.2 0.8,0.6 v 0.8 h 0.5 c 0.3,0 0.6,0.2 0.6,0.5 0,0.3 -0.2,0.6 -0.5,0.6 h -0.6 v 2.5 c 0,0.4 0,0.5 0.4,0.5 v 0 c 0.3,0 0.5,0.2 0.5,0.5 0,0.3 -0.4,0.6 -1,0.6 v 0 c -0.7,0.1 -1.3,-0.4 -1.4,-1.1 v -3.1 h 0.1 z"
           id="path179"
           style="fill:#ffffff" />
        <path
           class="cls-4"
           d="m 690.2,326.1 c 0,-0.4 0.3,-0.7 0.7,-0.7 v 0 c 0.4,0 0.8,0.3 0.8,0.7 v 0 c 0,0.4 -0.3,0.7 -0.8,0.7 v 0 c -0.4,0 -0.7,-0.3 -0.8,-0.7 v 0 z m 0,6 v -4 c 0,-0.4 0.2,-0.7 0.6,-0.7 v 0 c 0.4,0 0.7,0.3 0.7,0.7 v 0 4 c 0,0.4 -0.2,0.7 -0.6,0.7 v 0 c -0.4,0 -0.7,-0.3 -0.7,-0.7 z"
           id="path180"
           style="fill:#ffffff" />
      </g>
    </g>
  </g>
</svg>
