<?xml version="1.0" encoding="UTF-8" standalone="no"?>
<svg
   version="1.1"
   viewBox="0 0 856.1 953.1"
   id="svg180"
   sodipodi:docname="havenfull.svg"
   inkscape:version="1.4.2 (f4327f4, 2025-05-13)"
   xmlns:inkscape="http://www.inkscape.org/namespaces/inkscape"
   xmlns:sodipodi="http://sodipodi.sourceforge.net/DTD/sodipodi-0.dtd"
   xmlns="http://www.w3.org/2000/svg"
   xmlns:svg="http://www.w3.org/2000/svg">
  <sodipodi:namedview
     id="namedview180"
     pagecolor="#505050"
     bordercolor="#eeeeee"
     borderopacity="1"
     inkscape:showpageshadow="0"
     inkscape:pageopacity="0"
     inkscape:pagecheckerboard="0"
     inkscape:deskcolor="#505050"
     showgrid="false"
     inkscape:zoom="0.84671076"
     inkscape:cx="93.302228"
     inkscape:cy="434.03251"
     inkscape:window-width="1920"
     inkscape:window-height="1009"
     inkscape:window-x="1912"
     inkscape:window-y="-8"
     inkscape:window-maximized="1"
     inkscape:current-layer="Layer_1" />
  <defs
     id="defs1">
    <style
       id="style1">
      .cls-1 {
        fill: none;
        stroke: #fff;
        stroke-miterlimit: 10;
      }

      .cls-2 {
        fill: #3d3d3d;
      }

      .cls-3 {
        fill: #7e7f7e;
      }

      .cls-4 {
        fill: #fff;
      }

      .cls-5 {
        fill: #535353;
      }
    </style>
  </defs>
  <!-- Generator: Adobe Illustrator 28.6.0, SVG Export Plug-In . SVG Version: 1.2.0 Build 709)  -->
  <g
     id="g180"
     transform="rotate(180,451.37556,486.14359)">
    <g
       id="Layer_1"
       transform="translate(46.060593,18.896654)">
      <g
         id="Callouts_copy-7"
         transform="translate(0.316187,0.795366)">
        <path
           class="cls-4"
           d="m 443.6,893.5 c 0,0.2 0,0.4 -0.1,0.6 l -2.5,6.8 c -0.2,0.8 -1.1,1.3 -1.9,1 -0.5,0 -0.9,-0.5 -1,-1 l -2.5,-6.8 c 0,-0.2 -0.1,-0.4 -0.1,-0.6 0,-0.5 0.4,-0.9 0.9,-0.9 h 0.1 c 0.5,0 0.8,0.2 1,0.8 l 0.5,1.4 h 3.3 l 0.5,-1.4 c 0.2,-0.6 0.5,-0.9 1,-0.9 0.5,0 0.9,0.4 0.9,0.8 v 0 0.2 z m -5.3,2.8 1.2,3.8 v 0 l 1.2,-3.8 z"
           id="path63"
           style="fill:#ffffff" />
        <path
           class="cls-4"
           d="m 434.3,898.1 h 0.4 c 0.4,0 0.7,0.3 0.7,0.7 0,0.4 -0.3,0.7 -0.7,0.7 h -0.4 v 0.8 c 0,0.5 -0.3,1 -0.8,1 -0.5,0 -1,-0.3 -1,-0.8 v -1 h -0.7 c -0.4,0 -0.7,-0.3 -0.7,-0.7 0,-0.4 0.3,-0.7 0.7,-0.7 h 0.7 v -3.3 c 0,-0.5 -0.2,-0.7 -0.6,-0.7 h -0.1 c -0.5,0 -0.7,-0.2 -0.7,-0.7 0,-0.5 0.5,-0.8 1.3,-0.8 v 0 c 0.9,0 1.7,0.5 1.9,1.4 z"
           id="path64"
           style="fill:#ffffff" />
        <path
           class="cls-4"
           d="m 429.8,898.1 h 0.4 c 0.4,0 0.7,0.3 0.7,0.7 0,0.4 -0.3,0.7 -0.7,0.7 h -0.4 v 0.8 c 0,0.5 -0.3,1 -0.8,1 -0.5,0 -1,-0.3 -1,-0.8 v -1 h -0.7 c -0.4,0 -0.7,-0.3 -0.7,-0.7 0,-0.4 0.3,-0.7 0.7,-0.7 h 0.7 v -3.3 c 0,-0.5 -0.2,-0.7 -0.6,-0.7 h -0.1 c -0.5,0 -0.7,-0.2 -0.7,-0.7 0,-0.5 0.5,-0.8 1.3,-0.8 v 0 c 0.9,0 1.7,0.5 1.9,1.4 z"
           id="path65"
           style="fill:#ffffff" />
        <path
           class="cls-4"
           d="m 426,894.6 c 0,1.2 -1,2 -2.6,2 h -1.7 v 0.5 c 0,0.6 0.4,1 1.1,1 0.7,0 1,-0.3 1.3,-0.7 0.2,-0.2 0.5,-0.3 0.7,-0.3 0.4,0 0.7,0.3 0.8,0.6 v 0 0.4 c -0.3,0.8 -1.4,1.3 -2.8,1.3 -1.4,0 -2.9,-0.9 -2.9,-2.3 v -3.9 c 0,-0.5 0.3,-0.9 0.7,-0.9 h 0.2 c 0.5,0 0.8,0.3 0.9,0.7 v 0 0.3 0 c 0.4,-0.7 1.2,-1.2 2.1,-1.2 1.2,0 2.2,0.7 2.3,1.9 v 0.6 z m -4.4,0.6 v 0.5 h 1.4 c 0.7,0 1.1,-0.4 1.1,-0.9 0,-0.5 -0.4,-0.8 -1,-0.8 -0.6,0 -1.4,0.4 -1.5,1.2 z"
           id="path66"
           style="fill:#ffffff" />
        <path
           class="cls-4"
           d="m 418.8,896.1 c 0.2,1.8 -1.1,3.4 -2.9,3.5 h -0.5 c -1.2,0 -2.3,-0.6 -2.9,-1.6 0,0 0,-0.3 -0.1,-0.5 0,-0.4 0.3,-0.7 0.7,-0.7 v 0 c 0.3,0 0.6,0.2 0.8,0.5 0.2,0.5 0.8,0.9 1.3,0.9 0.9,0 1.5,-0.8 1.5,-2.1 0,-1.3 -0.6,-2.1 -1.5,-2.1 -0.9,0 -1.1,0.3 -1.3,0.8 -0.1,0.3 -0.5,0.5 -0.8,0.5 -0.3,0 -0.8,-0.3 -0.8,-0.7 v 0 c 0,-0.2 0,-0.3 0.1,-0.5 0.6,-1 1.7,-1.6 2.9,-1.6 1.8,0 3.3,1.3 3.4,3 v 0.5 0 z"
           id="path67"
           style="fill:#ffffff" />
        <path
           class="cls-4"
           d="m 411.5,893.5 v 7.5 c 0,0.5 -0.3,1 -0.8,1 -0.5,0 -1,-0.3 -1,-0.8 v -4.4 0 l -2.5,2.5 c -0.2,0.2 -0.4,0.3 -0.7,0.4 -0.4,0 -0.8,-0.3 -0.8,-0.7 v 0 c 0,-0.3 0.1,-0.5 0.4,-0.7 l 1.7,-1.6 -1.9,-2.4 c -0.2,-0.2 -0.3,-0.4 -0.3,-0.7 0,-0.5 0.4,-0.8 0.8,-0.8 v 0 c 0.4,0 0.6,0 0.9,0.6 l 1.8,2.3 0.6,-0.6 v -1.4 c 0,-0.5 0.3,-1 0.8,-1 0.5,0 1,0.3 1,0.8 v 0.2 0 z"
           id="path68"
           style="fill:#ffffff" />
        <path
           class="cls-4"
           d="m 405.1,896 c 0,2.2 -1.3,3.6 -3.3,3.6 -1.7,0 -3.1,-1.1 -3.2,-2.8 v -0.4 c 0,-0.4 0.3,-0.8 0.7,-0.8 h 4 c 0,-0.9 -0.5,-1.7 -1.3,-1.7 h -0.2 c -0.6,0 -1.3,0.3 -1.6,0.8 -0.1,0.2 -0.4,0.3 -0.6,0.3 -0.4,0 -0.7,-0.2 -0.7,-0.6 v 0 c 0,-0.2 0,-0.3 0.1,-0.4 0.6,-0.9 1.7,-1.4 2.8,-1.3 1.7,0 3.3,1.2 3.4,2.9 v 0.6 -0.2 z m -4.8,0.8 c 0,0.8 0.6,1.4 1.3,1.5 v 0 c 0.8,0 1.5,-0.7 1.5,-1.5 h -2.9 z"
           id="path69"
           style="fill:#ffffff" />
        <path
           class="cls-4"
           d="m 397.6,893.5 v 5.2 c 0,0.5 -0.3,0.9 -0.8,1 -0.5,0.1 -0.9,-0.3 -1,-0.8 v -0.6 0 c 0,0.7 -0.7,1.3 -1.4,1.3 -0.7,0 -0.4,0 -0.6,-0.2 -0.3,-0.4 -0.3,-1 0,-1.3 0.3,-0.3 0.5,-0.3 0.8,-0.2 0.8,0 1.1,-0.5 1.1,-1.3 v -3 c 0,-0.5 0.3,-1 0.8,-1 0.5,0 1,0.3 1,0.8 v 0.2 h 0.1 z"
           id="path70"
           style="fill:#ffffff" />
        <path
           class="cls-4"
           d="m 390.3,894.3 c 0,0.2 0,0.3 0.1,0.5 0,0.4 -0.3,0.8 -0.8,0.8 v 0 c -0.4,0 -0.7,-0.2 -0.9,-0.6 -0.4,-0.7 -1.1,-1.1 -1.9,-1 -1,0 -1.7,0.5 -1.7,1.2 0,0.7 0.4,0.9 1.6,1.2 l 1,0.2 c 1.8,0.4 2.7,1.2 2.7,2.6 0,1.4 -1.5,2.8 -3.5,2.8 -2,0 -2.9,-0.7 -3.4,-1.9 v -0.4 c 0,-0.4 0.3,-0.8 0.7,-0.8 v 0 c 0.4,0 0.7,0.2 0.9,0.6 0.3,0.7 1,1.1 1.7,1 1,0 1.6,-0.4 1.6,-1.1 0,-0.7 -0.4,-0.9 -1.5,-1.1 l -1,-0.2 c -2,-0.4 -2.8,-1.2 -2.8,-2.6 0,-1.4 1.4,-2.9 3.7,-2.9 2.3,0 3.1,0.7 3.5,1.7 z"
           id="path71"
           style="fill:#ffffff" />
        <path
           class="cls-4"
           d="m 382.1,891.2 v 7.4 c 0,0.5 -0.3,1 -0.8,1 -0.5,0 -1,-0.3 -1,-0.8 v -0.6 0 c -0.4,0.8 -1.2,1.3 -2.1,1.3 -1.7,0 -2.8,-1.3 -2.8,-3.5 0,-2.2 1,-3.5 2.8,-3.5 1.8,0 1.7,0.4 2.1,1.2 v 0 -2.6 c 0,-0.5 0.4,-0.9 0.9,-0.9 0.5,0 0.9,0.4 0.9,0.9 v 0 z m -4.9,4.9 c 0,1.2 0.6,2 1.5,2 0.9,0 1.5,-0.8 1.5,-2 0,-1.2 -0.6,-2 -1.5,-2 -0.9,0 -1.5,0.8 -1.5,2 z"
           id="path72"
           style="fill:#ffffff" />
        <path
           class="cls-4"
           d="m 374.7,894.6 c 0,1.2 -1,2 -2.6,2 h -1.7 v 0.5 c 0,0.6 0.5,1 1.1,1 0.6,0 1,-0.3 1.3,-0.7 0.2,-0.2 0.4,-0.3 0.7,-0.3 0.3,0 0.7,0.3 0.8,0.7 v 0 c 0,0 0,0.3 -0.1,0.4 -0.3,0.8 -1.4,1.3 -2.8,1.3 -1.4,0 -2.9,-0.9 -2.9,-2.3 v -3.9 c 0,-0.5 0.3,-0.9 0.7,-0.9 h 0.2 c 0.5,0 0.8,0.3 0.9,0.7 v 0 0.3 0 c 0.4,-0.7 1.2,-1.2 2.1,-1.2 1.2,0 2.2,0.7 2.3,1.9 z m -4.4,0.6 v 0.5 h 1.4 c 0.7,0 1.1,-0.4 1.1,-0.9 0,-0.5 -0.4,-0.8 -1,-0.8 -0.6,0 -1.4,0.5 -1.5,1.2 z"
           id="path73"
           style="fill:#ffffff" />
        <path
           class="cls-4"
           d="m 366.2,893.5 1.4,4.7 c 0,0.2 0,0.4 0.1,0.6 0,0.4 -0.4,0.8 -0.8,0.8 v 0 c -0.5,0 -0.8,-0.3 -0.9,-0.8 l -1,-4.4 v 0 l -1,4.3 c -0.1,0.6 -0.7,0.9 -1.3,0.8 -0.4,0 -0.7,-0.4 -0.8,-0.8 l -1.1,-4.3 v 0 l -1,4.4 c 0,0.4 -0.4,0.8 -0.9,0.8 -0.5,0 -0.8,-0.3 -0.9,-0.7 v 0 c 0,-0.2 0,-0.4 0.1,-0.6 l 1.4,-4.8 c 0,-0.6 0.6,-1 1.2,-1 0.6,0 1.1,0.4 1.2,1 v 0 l 1,4 v 0 l 1,-4 c 0,-0.6 0.6,-1 1.2,-1 v 0 c 0.6,0 0.9,0.3 1.1,1 z"
           id="path74"
           style="fill:#ffffff" />
        <path
           class="cls-4"
           d="m 357,893.5 v 5.2 c 0,0.5 -0.3,0.9 -0.7,0.9 h -0.2 c -0.5,0 -0.9,-0.3 -0.9,-0.8 v 0 -0.5 0 c -0.3,0.9 -1.2,1.4 -2.1,1.3 -1.2,0 -2.3,-0.9 -2.4,-2.1 v -4 c 0,-0.5 0.4,-0.9 0.9,-0.9 0.5,0 0.9,0.4 0.9,0.9 v 0 3.2 c 0,0.9 0.4,1.4 1.2,1.4 0.8,0 1.4,-0.6 1.4,-1.3 v -3.3 c 0,-0.5 0.3,-1 0.8,-1 0.5,0 1,0.3 1,0.8 v 0.2 z"
           id="path75"
           style="fill:#ffffff" />
        <path
           class="cls-4"
           d="m 820.2,276.8 v 5.7 c 0,0.4 -0.2,0.8 -0.6,0.8 -0.4,0 -0.8,-0.2 -0.8,-0.6 v -2.4 h -3.2 v 2.2 c 0,0.4 -0.3,0.7 -0.7,0.7 -0.4,0 -0.7,-0.3 -0.7,-0.7 v 0 -5.7 c 0,-0.4 0.3,-0.7 0.7,-0.7 0.4,0 0.7,0.3 0.7,0.7 v 0 2.3 h 3.2 v -2.3 c 0,-0.4 0.2,-0.8 0.6,-0.8 0.4,0 0.8,0.2 0.8,0.6 z"
           id="path76"
           style="fill:#ffffff" />
        <path
           class="cls-4"
           d="m 813.3,278.8 c 0.2,1.4 -0.8,2.6 -2.2,2.7 h -0.4 c -1.3,0 -2.4,-0.9 -2.5,-2.2 v -0.2 c 0,-0.3 0.2,-0.6 0.5,-0.6 h 3.1 c 0,-0.7 -0.4,-1.3 -1,-1.3 v 0 c -0.5,0 -1,0.2 -1.2,0.6 0,0.1 -0.3,0.2 -0.5,0.2 -0.3,0 -0.5,-0.2 -0.5,-0.5 v 0 -0.4 c 0.5,-0.7 1.3,-1.1 2.2,-1 1.3,0 2.5,0.9 2.6,2.3 v 0.4 0 z m -3.7,0.5 c 0,0.6 0.4,1.1 1,1.1 v 0 c 0.6,0 1.1,-0.5 1.1,-1.1 h -2.2 z"
           id="path77"
           style="fill:#ffffff" />
        <path
           class="cls-4"
           d="m 807.7,277.7 c 0,1 -0.7,1.5 -2,1.6 h -1.3 v 0.4 c 0,0.5 0.3,0.8 0.9,0.8 0.6,0 0.8,-0.2 1,-0.5 0,-0.2 0.4,-0.3 0.6,-0.3 0.3,0 0.6,0.2 0.6,0.5 v 0 0.3 c -0.5,0.7 -1.3,1.1 -2.2,1 -1.3,0 -2.2,-0.7 -2.2,-1.8 v -3 c 0,-0.4 0.2,-0.7 0.6,-0.7 v 0 c 0.3,0 0.7,0.2 0.7,0.6 v 0 0.3 0 c 0.3,-0.6 0.9,-0.9 1.6,-0.9 0.7,0 1.7,0.6 1.8,1.5 v 0.2 h -0.2 z m -3.3,0.4 v 0.4 h 1.1 c 0.5,0 0.8,-0.4 0.8,-0.7 0,-0.3 -0.3,-0.6 -0.8,-0.6 -0.5,0 -1,0.3 -1.1,0.9 v 0 c 0,0.1 0,0 0,0 z"
           id="path78"
           style="fill:#ffffff" />
        <path
           class="cls-4"
           d="m 800.9,276.8 1.4,3.6 v 0.4 c 0,0.4 -0.3,0.6 -0.7,0.6 v 0 c -0.3,0 -0.6,-0.2 -0.7,-0.6 l -1.1,-3.5 v 0 l -1.1,3.5 c 0,0.3 -0.3,0.6 -0.7,0.5 -0.4,0 -0.7,-0.2 -0.7,-0.6 v 0 -0.4 l 1.3,-3.7 c 0,-0.4 0.5,-0.7 1,-0.7 0.5,0 0.9,0.3 1.1,0.7 z"
           id="path79"
           style="fill:#ffffff" />
        <path
           class="cls-4"
           d="m 797.1,278.8 c 0.2,1.4 -0.8,2.6 -2.2,2.7 h -0.4 c -1.3,0 -2.4,-0.9 -2.5,-2.2 v -0.2 c 0,-0.3 0.2,-0.6 0.5,-0.6 h 3.1 c 0,-0.7 -0.4,-1.3 -1,-1.3 v 0 c -0.5,0 -1,0.2 -1.2,0.6 0,0.1 -0.3,0.2 -0.5,0.2 -0.3,0 -0.5,-0.2 -0.5,-0.5 v 0 -0.4 c 0.5,-0.7 1.3,-1.1 2.2,-1 1.3,0 2.5,0.9 2.6,2.3 v 0.4 0 z m -3.6,0.5 c 0,0.6 0.4,1.1 1,1.1 v 0 c 0.6,0 1.1,-0.5 1.1,-1.1 h -2.2 z"
           id="path80"
           style="fill:#ffffff" />
        <path
           class="cls-4"
           d="m 791.4,276.8 v 4 c 0,0.4 -0.2,0.7 -0.6,0.7 v 0 c -0.4,0 -0.7,-0.2 -0.7,-0.6 v 0 -0.4 0 c -0.3,0.7 -0.9,1.1 -1.6,1 -0.9,0 -1.8,-0.7 -1.8,-1.6 v -3 c 0,-0.4 0.3,-0.7 0.7,-0.7 0.4,0 0.7,0.3 0.7,0.7 v 0 2.4 c 0,0.7 0.3,1.1 1,1.1 0.7,0 1,-0.4 1,-1 v -2.6 c 0,-0.4 0.2,-0.7 0.6,-0.7 v 0 c 0.4,0 0.7,0.3 0.7,0.6 v 0 z"
           id="path81"
           style="fill:#ffffff" />
        <path
           class="cls-4"
           d="m 610.6,364.4 v 0.5 l -1.9,5.2 c -0.2,0.6 -0.8,1 -1.5,0.8 -0.4,-0.1 -0.7,-0.4 -0.8,-0.8 l -1.9,-5.2 v -0.5 c 0,-0.4 0.3,-0.7 0.7,-0.7 v 0 c 0.4,0 0.6,0.2 0.8,0.7 l 0.4,1.1 h 2.5 l 0.4,-1.1 c 0,-0.5 0.3,-0.7 0.7,-0.7 0.4,0 0.7,0.2 0.7,0.6 v 0 c 0,0.1 -0.1,0.1 -0.1,0.1 z m -4,2.2 0.9,2.9 v 0 l 0.9,-2.9 z"
           id="path82"
           style="fill:#ffffff" />
        <path
           class="cls-4"
           d="m 601.5,364.6 v 5.6 c 0,0.4 -0.2,0.8 -0.6,0.8 -0.4,0 -0.8,-0.2 -0.8,-0.6 V 365 h -2.5 c -0.3,0 -0.7,-0.2 -0.7,-0.5 0,-0.3 0.2,-0.7 0.5,-0.7 h 3.4 c 0.4,0 0.7,0.3 0.7,0.6 v 0 c 0,0.1 0,0.2 0,0.2 z"
           id="path83"
           style="fill:#ffffff" />
        <path
           class="cls-4"
           d="m 596.2,370.4 c 0,0.4 -0.3,0.8 -0.8,0.8 -0.5,0 -0.8,-0.3 -0.8,-0.8 0,-0.5 0.3,-0.8 0.8,-0.8 0.5,0 0.8,0.3 0.8,0.8 z m 0,-6 v 4 c 0,0.4 -0.3,0.7 -0.7,0.7 -0.4,0 -0.7,-0.3 -0.7,-0.7 v 0 -4 c 0,-0.4 0.3,-0.7 0.7,-0.7 0.4,0 0.7,0.3 0.7,0.7 z"
           id="path84"
           style="fill:#ffffff" />
        <path
           class="cls-4"
           d="m 593.8,364.4 v 4 c 0,0.4 -0.2,0.7 -0.6,0.7 v 0 c -0.4,0 -0.7,-0.3 -0.7,-0.6 v 0 -0.4 0 c -0.3,0.6 -0.9,1.1 -1.6,1 -1,0 -1.8,-0.7 -1.8,-1.6 v -3.1 c 0,-0.4 0.2,-0.8 0.6,-0.8 0.4,0 0.8,0.2 0.8,0.6 v 2.6 c 0,0.7 0.3,1.1 1,1.1 0.7,0 1,-0.4 1,-1 v -2.6 c 0,-0.4 0.2,-0.8 0.6,-0.8 0.4,0 0.8,0.2 0.8,0.6 v 0.2 0 z"
           id="path85"
           style="fill:#ffffff" />
        <path
           class="cls-4"
           d="m 587.9,364.4 v 5.8 c 0,0.4 -0.3,0.7 -0.7,0.7 -0.4,0 -0.7,-0.3 -0.7,-0.7 v 0 -3.3 0 l -1.9,1.9 c 0,0.2 -0.3,0.3 -0.6,0.3 -0.3,0 -0.6,-0.3 -0.6,-0.6 v 0 c 0,-0.2 0,-0.4 0.3,-0.5 l 1.3,-1.3 -1.5,-1.9 c 0,-0.1 -0.2,-0.3 -0.2,-0.5 0,-0.4 0.3,-0.6 0.6,-0.7 v 0 c 0.3,0 0.5,0.1 0.7,0.5 l 1.3,1.8 0.5,-0.4 v -1.1 c 0,-0.4 0.3,-0.7 0.7,-0.7 0.4,0 0.7,0.3 0.7,0.7 z"
           id="path86"
           style="fill:#ffffff" />
        <path
           class="cls-4"
           d="m 443.8,645.5 1.5,5.3 v 0.5 c 0,0.4 -0.3,0.7 -0.6,0.7 h -0.1 c -0.4,0 -0.7,-0.3 -0.7,-0.6 l -1,-4.6 v 0 l -1.2,4.5 c -0.1,0.5 -0.3,0.7 -0.8,0.7 -0.5,0 -0.7,-0.3 -0.8,-0.7 l -1.2,-4.5 v 0 l -1,4.6 c 0,0.4 -0.3,0.7 -0.7,0.6 -0.4,0 -0.7,-0.2 -0.7,-0.6 v 0 -0.6 l 1.5,-5.3 c 0.1,-0.5 0.4,-0.7 0.9,-0.7 0.5,0 0.7,0.2 0.9,0.8 l 1.2,4.2 v 0 l 1.2,-4.2 c 0.1,-0.5 0.4,-0.8 0.9,-0.8 0.5,0 0.7,0.2 0.8,0.7 v 0 z"
           id="path87"
           style="fill:#ffffff" />
        <path
           class="cls-4"
           d="m 435.7,651.5 c 0,0.4 -0.3,0.8 -0.7,0.8 -0.4,0 -0.8,-0.3 -0.8,-0.7 0,-0.4 0.3,-0.8 0.7,-0.8 v 0 c 0.4,0 0.7,0.3 0.8,0.7 z m -0.1,-6 v 4 c 0,0.4 -0.3,0.7 -0.7,0.7 -0.4,0 -0.7,-0.3 -0.7,-0.7 v -4 c 0,-0.4 0.3,-0.7 0.7,-0.7 0.4,0 0.7,0.3 0.7,0.7 z"
           id="path88"
           style="fill:#ffffff" />
        <path
           class="cls-4"
           d="m 433.2,645.5 v 4 c 0,0.4 -0.2,0.7 -0.6,0.7 h -0.1 c -0.4,0 -0.7,-0.2 -0.7,-0.6 v 0 -0.4 0 c -0.3,0.7 -0.9,1.1 -1.6,1 -1,0 -1.8,-0.7 -1.8,-1.6 v -3.1 c 0,-0.4 0.2,-0.7 0.6,-0.7 h 0.1 c 0.4,0 0.7,0.3 0.7,0.6 v 0 2.5 c 0,0.7 0.3,1.1 1,1.1 0.7,0 1,-0.4 1.1,-0.9 v -2.6 c 0,-0.4 0.3,-0.7 0.7,-0.7 0.4,0 0.7,0.3 0.7,0.7 z"
           id="path89"
           style="fill:#ffffff" />
        <path
           class="cls-4"
           d="m 427.7,647.5 c 0,1.7 -0.8,2.7 -2.1,2.7 -1.3,0 -1.3,-0.4 -1.6,-1 v 0 2.1 c 0,0.4 -0.3,0.7 -0.7,0.7 -0.4,0 -0.7,-0.3 -0.7,-0.7 v 0 -5.8 c 0,-0.4 0.2,-0.7 0.6,-0.7 h 0.1 c 0.4,0 0.7,0.2 0.7,0.6 v 0 0.4 0 c 0.3,-0.6 0.9,-1 1.6,-1 1.3,0 2.1,1.1 2.1,2.7 z m -3.8,0 c 0,1 0.5,1.6 1.2,1.6 0.7,0 1.2,-0.6 1.2,-1.6 0,-1 -0.4,-1.5 -1.2,-1.5 -0.8,0 -1.2,0.6 -1.2,1.5 z"
           id="path90"
           style="fill:#ffffff" />
        <path
           class="cls-4"
           d="m 421.7,647.5 c 0,1.4 -1.3,2.5 -2.7,2.4 -1.4,-0.1 -2.5,-1.3 -2.4,-2.7 0,-1.4 1.2,-2.4 2.6,-2.5 1.4,0 2.5,1 2.6,2.4 v 0.4 z m -3.7,0 c 0,1 0.5,1.6 1.1,1.6 0.6,0 1.1,-0.6 1.1,-1.6 0,-1 -0.5,-1.6 -1.1,-1.6 -0.6,0 -1.2,0.6 -1.2,1.6 z"
           id="path91"
           style="fill:#ffffff" />
        <path
           class="cls-4"
           d="m 415,645.5 1,3.6 v 0.4 c 0,0.3 -0.3,0.6 -0.6,0.6 v 0 c -0.3,0 -0.6,-0.3 -0.7,-0.6 l -0.8,-3.4 v 0 l -0.8,3.3 c 0,0.4 -0.5,0.7 -1,0.6 -0.3,0 -0.6,-0.3 -0.6,-0.6 l -0.8,-3.3 v 0 l -0.8,3.4 c 0,0.3 -0.3,0.6 -0.7,0.6 -0.4,0 -0.6,-0.2 -0.7,-0.5 v 0 -0.4 l 1,-3.7 c 0,-0.4 0.5,-0.8 0.9,-0.8 0.4,0 0.9,0.3 0.9,0.7 v 0 l 0.8,3 v 0 l 0.8,-3 c 0,-0.5 0.5,-0.8 0.9,-0.8 0.4,0 0.8,0.3 0.9,0.8 h 0.3 z"
           id="path92"
           style="fill:#ffffff" />
        <path
           class="cls-4"
           d="m 304.4,656.9 c 0,2.2 -1.3,3.6 -3.4,3.6 -2.1,0 -2.2,-0.5 -2.8,-1.5 0,0 -0.1,-0.3 -0.1,-0.5 0,-0.3 0.2,-0.6 0.6,-0.6 v 0 c 0.3,0 0.6,0.2 0.7,0.4 0.3,0.6 0.9,1 1.5,0.9 1.2,0 1.9,-0.9 1.9,-2.4 0,-1.5 -0.7,-2.5 -1.9,-2.5 -1.2,0 -1.6,0.5 -1.7,1.4 v 0 c 0,0 1,0 1,0 0.3,0 0.5,0.2 0.5,0.5 0,0.3 -0.2,0.5 -0.5,0.5 h -1.7 c -0.4,0 -0.7,-0.3 -0.7,-0.6 v 0 c -0.1,-1.8 1.1,-3.1 2.6,-3.2 h 0.5 c 2.1,0 3.4,1.4 3.4,3.7 v 0.2 z"
           id="path93"
           style="fill:#ffffff" />
        <path
           class="cls-4"
           d="m 297,654 v 4 c 0,0.4 -0.2,0.7 -0.6,0.8 -0.4,0 -0.7,-0.2 -0.8,-0.6 v -0.5 0 c 0,0.6 -0.5,1 -1.1,1 -0.6,0 -0.3,0 -0.5,0 -0.2,-0.3 -0.2,-0.7 0,-1 0.2,0 0.4,-0.2 0.6,-0.2 0.6,0 0.9,-0.4 0.9,-1 v -2.3 c 0,-0.4 0.2,-0.7 0.6,-0.7 h 0.1 c 0.4,0 0.7,0.3 0.7,0.7 v 0 z"
           id="path94"
           style="fill:#ffffff" />
        <path
           class="cls-4"
           d="m 293.7,654.9 c 0,1 -0.7,1.5 -2,1.6 h -1.3 v 0.4 c 0,0.5 0.3,0.8 0.9,0.8 0.6,0 0.8,-0.2 1,-0.5 0.1,-0.2 0.4,-0.3 0.6,-0.3 0.3,0 0.6,0.2 0.6,0.5 v 0 0.3 c -0.2,0.6 -1.1,1 -2.2,1 -1.1,0 -2.2,-0.7 -2.2,-1.8 v -3 c 0,-0.4 0.2,-0.7 0.6,-0.7 h 0.1 c 0.3,0 0.7,0.2 0.7,0.6 v 0 0.3 0 c 0.3,-0.6 0.9,-0.9 1.6,-0.9 0.7,0 1.7,0.6 1.8,1.5 v 0 c 0,0 -0.2,0.2 -0.2,0.2 z m -3.3,0.4 v 0.4 h 1.1 c 0.5,0 0.8,-0.3 0.8,-0.7 0,-0.4 -0.3,-0.6 -0.8,-0.6 -0.5,0 -1.1,0.3 -1.1,0.8 v 0 z"
           id="path95"
           style="fill:#ffffff" />
        <path
           class="cls-4"
           d="m 288.1,654.4 v 0.3 c 0,0.3 -0.2,0.5 -0.5,0.6 v 0 c -0.2,0 -0.5,0 -0.6,-0.3 -0.3,-0.4 -0.7,-0.6 -1.1,-0.5 -0.5,0 -0.9,0.2 -0.9,0.6 0,0.4 0.2,0.4 0.7,0.5 l 0.9,0.2 c 1,0.2 1.5,0.7 1.5,1.5 0,0.8 -0.9,1.7 -2.2,1.7 -0.8,0 -1.7,-0.3 -2,-1.1 v -0.2 c 0,-0.3 0.2,-0.5 0.5,-0.5 0.3,0 0.4,0 0.5,0.2 0.2,0.3 0.6,0.5 1,0.6 0.5,0 0.8,-0.2 0.8,-0.6 0,-0.4 -0.2,-0.5 -0.7,-0.6 l -0.9,-0.2 c -1.1,-0.2 -1.6,-0.6 -1.6,-1.4 0,-0.8 0.9,-1.7 2.3,-1.7 1.4,0 2,0.4 2.2,1.1 v -0.2 z"
           id="path96"
           style="fill:#ffffff" />
        <path
           class="cls-4"
           d="m 283,654.4 v 0.3 c 0,0.3 -0.2,0.5 -0.5,0.6 v 0 c -0.2,0 -0.5,0 -0.6,-0.3 -0.3,-0.4 -0.7,-0.6 -1.1,-0.5 -0.5,0 -0.9,0.2 -0.9,0.6 0,0.4 0.2,0.4 0.7,0.5 l 0.9,0.2 c 1,0.2 1.5,0.7 1.5,1.5 0,0.8 -0.9,1.7 -2.2,1.7 -0.8,0 -1.7,-0.3 -2,-1.1 v -0.2 c 0,-0.3 0.2,-0.5 0.5,-0.5 0.3,0 0.4,0 0.5,0.2 0.2,0.3 0.6,0.5 1,0.6 0.5,0 0.8,-0.2 0.8,-0.6 0,-0.4 -0.2,-0.5 -0.7,-0.6 l -0.9,-0.2 c -1.1,-0.2 -1.6,-0.6 -1.6,-1.4 0,-0.8 0.9,-1.7 2.3,-1.7 1.4,0 2,0.4 2.2,1.1 v -0.2 z"
           id="path97"
           style="fill:#ffffff" />
        <path
           class="cls-4"
           d="m 432.3,527 v 5.6 c 0,0.5 -0.3,0.9 -0.7,1 h -0.2 c -0.5,0 -0.9,-0.3 -1,-0.8 l -1.8,-4.3 v 0 l -1.7,4.3 c -0.1,0.5 -0.5,0.8 -1,0.8 -0.5,0 -0.9,-0.2 -1,-0.7 V 527 c 0,-0.4 0.2,-0.7 0.6,-0.7 0.4,0 0.7,0.2 0.7,0.6 v 4.4 0 L 428,527 c 0,-0.3 0.3,-0.5 0.6,-0.5 0.3,0 0.6,0.2 0.6,0.4 l 1.8,4.3 v 0 -4.2 c 0,-0.4 0.2,-0.7 0.6,-0.7 0.4,0 0.7,0.2 0.7,0.6 v 0.2 0 z"
           id="path98"
           style="fill:#ffffff" />
        <path
           class="cls-4"
           d="m 423.9,533 c 0,0.4 -0.3,0.8 -0.8,0.8 -0.5,0 -0.8,-0.3 -0.8,-0.8 0,-0.5 0.3,-0.8 0.8,-0.8 0.5,0 0.8,0.3 0.8,0.8 z m 0,-6 v 4 c 0,0.4 -0.2,0.8 -0.6,0.8 -0.4,0 -0.8,-0.2 -0.8,-0.6 v -4.1 c 0,-0.4 0.2,-0.8 0.6,-0.8 0.4,0 0.8,0.2 0.8,0.6 v 0.2 0 z"
           id="path99"
           style="fill:#ffffff" />
        <path
           class="cls-4"
           d="m 421.6,529 c 0,1.7 -0.8,2.7 -2.1,2.7 -1.3,0 -1.3,-0.4 -1.6,-1 v 0 2.1 c 0,0.4 -0.3,0.7 -0.7,0.7 -0.4,0 -0.7,-0.3 -0.7,-0.7 v 0 -5.8 c 0,-0.4 0.3,-0.7 0.7,-0.7 0.4,0 0.7,0.3 0.7,0.7 v 0.3 0 c 0.3,-0.6 0.9,-1 1.6,-1 1.3,0 2.1,1.1 2.1,2.7 z m -3.7,0 c 0,1 0.5,1.6 1.2,1.6 0.7,0 1.1,-0.6 1.1,-1.6 0,-1 -0.4,-1.5 -1.1,-1.5 -0.7,0 -1.2,0.6 -1.2,1.5 z"
           id="path100"
           style="fill:#ffffff" />
        <path
           class="cls-4"
           d="m 575,449.48918 v 0.5 l -1.9,5.2 c -0.2,0.6 -0.8,1 -1.5,0.8 -0.4,-0.1 -0.7,-0.4 -0.8,-0.8 l -1.9,-5.2 v -0.5 c 0,-0.4 0.3,-0.7 0.7,-0.7 v 0 c 0.4,0 0.6,0.2 0.8,0.7 l 0.4,1.1 h 2.5 l 0.4,-1.1 c 0,-0.5 0.3,-0.7 0.7,-0.7 0.4,0 0.7,0.2 0.7,0.6 v 0 c 0,0.1 -0.1,0.1 -0.1,0.1 z m -4.1,2.3 0.9,2.9 v 0 l 0.9,-2.9 z"
           id="path101"
           style="fill:#ffffff" />
        <path
           class="cls-4"
           d="m 566,450.18918 v 0.4 c 0,0.3 -0.2,0.6 -0.6,0.7 v 0 c -0.3,0 -0.6,-0.2 -0.7,-0.4 -0.3,-0.5 -0.9,-0.9 -1.5,-0.8 -0.8,0 -1.3,0.4 -1.3,0.9 0,0.5 0.3,0.7 1.2,0.9 h 0.8 c 1.4,0.4 2.1,1.1 2.1,2.1 0,1 -1.1,2.2 -2.7,2.2 -1.1,0.1 -2.1,-0.5 -2.6,-1.5 v -0.3 c 0,-0.3 0.2,-0.6 0.6,-0.6 v 0 c 0.3,0 0.6,0.2 0.7,0.4 0.2,0.5 0.7,0.8 1.3,0.8 0.6,0 1.2,-0.3 1.2,-0.9 0,-0.6 -0.3,-0.7 -1.2,-0.9 l -0.7,-0.2 c -1.5,-0.3 -2.1,-0.9 -2.1,-2 0,-1.1 1.1,-2.2 2.8,-2.2 1.7,0 2.3,0.6 2.7,1.4 z"
           id="path102"
           style="fill:#ffffff" />
        <path
           class="cls-4"
           d="m 559.6,449.58918 v 5.8 c 0,0.4 -0.3,0.7 -0.7,0.7 -0.4,0 -0.7,-0.3 -0.7,-0.7 v -2.1 0 c -0.3,0.6 -0.9,1.1 -1.7,1 -1,0 -1.8,-0.7 -1.8,-1.6 v -3.1 c 0,-0.4 0.3,-0.7 0.7,-0.7 0.4,0 0.7,0.3 0.7,0.7 v 0 2.4 c 0,0.7 0.3,1.1 1,1.1 0.7,0 1,-0.4 1.1,-0.9 v -2.5 c 0,-0.4 0.2,-0.8 0.6,-0.8 0.4,0 0.8,0.2 0.8,0.6 v 0.2 0 z"
           id="path103"
           style="fill:#ffffff" />
        <path
           class="cls-4"
           d="m 554,451.58918 c 0,1.4 -1.3,2.5 -2.7,2.5 -1.4,0 -2.5,-1.3 -2.5,-2.7 0,-1.4 1.2,-2.5 2.6,-2.5 1.4,0 2.5,1 2.6,2.4 v 0.4 0 z m -3.7,0 c 0,1 0.5,1.6 1.2,1.6 0.7,0 1.1,-0.6 1.1,-1.6 0,-1 -0.4,-1.6 -1.1,-1.6 -0.7,0 -1.2,0.6 -1.2,1.6 z"
           id="path104"
           style="fill:#ffffff" />
        <path
           class="cls-4"
           d="m 548.1,449.58918 v 4 c 0,0.4 -0.2,0.7 -0.6,0.7 v 0 c -0.4,0 -0.7,-0.3 -0.7,-0.6 v 0 -0.4 0 c 0,0.6 -0.5,1 -1.1,1 -0.6,0 -0.3,0 -0.4,-0.1 0,-0.1 -0.2,-0.3 -0.2,-0.5 0,-0.2 0,-0.4 0.2,-0.5 0.2,-0.1 0.4,-0.2 0.6,-0.2 0.7,0 0.9,-0.4 0.9,-1 v -2.3 c 0,-0.4 0.3,-0.7 0.7,-0.7 0.4,0 0.7,0.3 0.7,0.7 v 0 z"
           id="path105"
           style="fill:#ffffff" />
        <path
           class="cls-4"
           d="m 544.1,453.08918 h 0.3 c 0.3,0 0.6,0.2 0.6,0.5 0,0.3 -0.2,0.6 -0.5,0.6 h -0.4 v 0.6 c 0,0.4 -0.3,0.7 -0.7,0.7 -0.4,0 -0.7,-0.3 -0.7,-0.7 v 0 -0.6 h -0.5 c -0.3,0 -0.6,-0.2 -0.6,-0.5 0,-0.3 0.2,-0.6 0.5,-0.6 h 0.6 v -2.5 c 0,-0.4 0,-0.5 -0.4,-0.5 v 0 c -0.3,0 -0.5,-0.2 -0.5,-0.5 0,-0.3 0.4,-0.6 1,-0.6 v 0 c 0.7,-0.1 1.3,0.4 1.4,1 v 3.2 0 z"
           id="path106"
           style="fill:#ffffff" />
        <path
           class="cls-4"
           d="m 562.2,595.6 v 0.5 l -1.9,5.2 c -0.2,0.6 -0.8,1 -1.4,0.8 -0.4,0 -0.7,-0.4 -0.8,-0.8 l -1.9,-5.2 v -0.5 c 0,-0.4 0.3,-0.7 0.7,-0.7 v 0 c 0.4,0 0.6,0.2 0.8,0.7 l 0.4,1.1 h 2.5 l 0.4,-1.1 c 0,-0.5 0.4,-0.7 0.8,-0.7 0.4,0 0.7,0.2 0.7,0.6 v 0 c 0,0 -0.3,0.1 -0.3,0.1 z m -4.1,2.2 0.9,2.9 v 0 l 0.9,-2.9 z"
           id="path107"
           style="fill:#ffffff" />
        <path
           class="cls-4"
           d="m 553,595.6 v 5.6 c 0,0.5 -0.3,0.9 -0.7,1 h -0.2 c -0.5,0 -0.9,-0.3 -1,-0.8 l -1.8,-4.3 v 0 l -1.7,4.3 c 0,0.5 -0.5,0.8 -1,0.8 -0.5,0 -0.9,-0.3 -1,-0.8 v -5.8 c 0,-0.4 0.2,-0.7 0.6,-0.7 0.4,0 0.7,0.2 0.7,0.6 v 4.4 0 l 1.7,-4.3 c 0,-0.3 0.3,-0.5 0.6,-0.5 0.3,0 0.6,0.2 0.6,0.5 l 1.8,4.3 v 0 -4.2 c 0,-0.4 0.2,-0.7 0.6,-0.7 0.4,0 0.7,0.2 0.7,0.6 v 0.2 0 -0.2 z"
           id="path108"
           style="fill:#ffffff" />
        <path
           class="cls-4"
           d="m 544.8,596.5 c 0,1 -0.7,1.5 -2,1.6 h -1.3 v 0.4 c 0,0.5 0.3,0.8 0.9,0.8 0.6,0 0.8,-0.2 1,-0.5 0,-0.2 0.3,-0.3 0.6,-0.3 0.3,0 0.6,0.2 0.6,0.5 v 0 0.3 c -0.5,0.7 -1.3,1.1 -2.2,1 -1.3,0 -2.2,-0.7 -2.2,-1.8 v -3 c 0,-0.4 0.2,-0.7 0.6,-0.7 v 0 c 0.4,0 0.7,0.2 0.7,0.6 v 0 0.3 0 c 0.3,-0.6 0.9,-0.9 1.6,-0.9 0.7,0 1.7,0.6 1.8,1.5 v 0 c 0,0 -0.2,0.2 -0.2,0.2 z m -3.4,0.4 v 0.4 h 1.1 c 0.5,0 0.8,-0.4 0.8,-0.7 0,-0.3 -0.3,-0.6 -0.8,-0.6 -0.5,0 -1.1,0.3 -1.1,0.8 v 0 z"
           id="path109"
           style="fill:#ffffff" />
        <path
           class="cls-4"
           d="m 539.2,601.6 c 0,0.4 -0.4,0.7 -0.9,0.7 -0.5,0 -0.6,-0.3 -0.7,-0.7 0,-0.4 0.4,-0.7 0.9,-0.7 0.5,0 0.6,0.3 0.7,0.7 z m -0.1,-6 v 4 c 0,0.4 -0.2,0.7 -0.6,0.7 v 0 c -0.4,0 -0.7,-0.3 -0.7,-0.6 v 0 -4.1 c 0,-0.4 0.2,-0.7 0.6,-0.7 v 0 c 0.4,0 0.7,0.3 0.7,0.6 v 0 z"
           id="path110"
           style="fill:#ffffff" />
        <path
           class="cls-4"
           d="m 536.7,595.7 v 4 c 0,0.4 -0.2,0.7 -0.6,0.7 v 0 c -0.4,0 -0.7,-0.2 -0.7,-0.6 v 0 -0.4 0 c -0.3,0.7 -0.9,1.1 -1.6,1 -0.9,0 -1.8,-0.7 -1.8,-1.6 v -3.1 c 0,-0.4 0.3,-0.7 0.7,-0.7 0.4,0 0.7,0.3 0.7,0.7 v 0 2.4 c 0,0.7 0.3,1.1 1,1.1 0.7,0 1,-0.4 1.1,-0.9 v -2.6 c 0,-0.4 0.2,-0.7 0.6,-0.7 v 0 c 0.4,0 0.7,0.3 0.7,0.7 z"
           id="path111"
           style="fill:#ffffff" />
        <path
           class="cls-4"
           d="m 576.1,82.9 v 7.2 c 0,0.5 -0.3,0.9 -0.8,1 h -2.7 c -2.8,0 -4.4,-1.6 -4.4,-4.5 0,-2.9 1.6,-4.6 4.4,-4.6 h 2.6 c 0.5,0 0.9,0.3 1,0.8 V 83 h -0.1 z m -3.3,0.6 c -1.7,0 -2.6,1 -2.6,3 0,2 1,3 2.6,3 h 1.3 v -6 z"
           id="path112"
           style="fill:#ffffff" />
        <path
           class="cls-4"
           d="m 567.4,85.2 c 0,2.2 -1.3,3.6 -3.3,3.6 -2,0 -3.1,-1.2 -3.2,-2.9 v -0.3 c 0,-0.4 0.3,-0.8 0.7,-0.8 h 4.1 c 0,-0.9 -0.5,-1.7 -1.3,-1.8 h -0.2 c -0.6,0 -1.3,0.3 -1.6,0.8 -0.1,0.2 -0.4,0.3 -0.6,0.3 -0.4,0 -0.7,-0.3 -0.7,-0.6 v 0 c 0,-0.2 0,-0.3 0.1,-0.5 0.6,-0.9 1.7,-1.4 2.8,-1.3 1.7,0 3.3,1.2 3.4,2.9 v 0.6 z m -4.7,0.8 c 0,0.8 0.6,1.4 1.3,1.5 v 0 c 0.8,0 1.5,-0.7 1.5,-1.5 h -2.9 z"
           id="path113"
           style="fill:#ffffff" />
        <path
           class="cls-4"
           d="m 559.4,82.7 v 4.6 h 0.3 c 0.4,0 0.7,0.3 0.7,0.7 0,0.4 -0.3,0.7 -0.7,0.7 h -0.3 v 0.5 c 0.1,0.9 -0.5,1.8 -1.4,2 h -0.6 c -1,0 -1.4,-0.3 -1.4,-0.8 0,-0.5 0.1,-0.4 0.4,-0.5 h 0.4 c 0.6,0 0.8,-0.3 0.8,-0.8 v -0.4 h -0.8 c -0.4,0 -0.7,-0.3 -0.7,-0.7 0,-0.4 0.3,-0.7 0.7,-0.7 h 0.7 v -4.6 c 0,-0.5 0.4,-0.9 0.9,-0.9 0.5,0 0.9,0.4 0.9,0.9 z"
           id="path114"
           style="fill:#ffffff" />
        <path
           class="cls-4"
           d="m 555.7,85.2 c 0,2.2 -1.3,3.6 -3.3,3.6 -1.7,0 -3.1,-1.1 -3.2,-2.8 v -0.4 c 0,-0.4 0.3,-0.8 0.7,-0.8 h 4.1 c 0,-0.9 -0.5,-1.7 -1.3,-1.8 h -0.2 c -0.6,0 -1.3,0.3 -1.6,0.8 -0.1,0.2 -0.4,0.3 -0.6,0.3 -0.4,0 -0.7,-0.2 -0.7,-0.6 v 0 c 0,-0.2 0,-0.3 0.1,-0.5 0.6,-0.9 1.7,-1.5 2.8,-1.3 1.7,0 3.3,1.2 3.4,2.9 v 0.6 z M 551,86 c 0,0.8 0.6,1.4 1.3,1.5 v 0 c 0.8,0 1.5,-0.7 1.5,-1.5 h -2.9 z"
           id="path115"
           style="fill:#ffffff" />
        <path
           class="cls-4"
           d="m 548.3,82.7 v 5.2 c 0,0.5 -0.3,0.9 -0.7,0.9 h -0.2 c -0.5,0 -0.9,-0.3 -0.9,-0.8 v 0 -0.5 0 c -0.3,0.8 -1.2,1.4 -2.1,1.3 -1.2,0 -2.3,-0.9 -2.4,-2.1 v -4 c 0,-0.5 0.3,-1 0.8,-1 0.5,0 1,0.3 1,0.8 v 3.4 c 0,0.9 0.4,1.4 1.2,1.4 0.8,0 1.4,-0.6 1.4,-1.3 v -3.3 c 0,-0.5 0.4,-0.9 0.9,-0.9 0.5,0 0.9,0.4 0.9,0.9 z"
           id="path116"
           style="fill:#ffffff" />
        <path
           class="cls-4"
           d="m 541,85.3 c 0,2.2 -1.1,3.5 -2.8,3.5 -1.7,0 -1.7,-0.5 -2.1,-1.3 v 0 2.7 c 0,0.5 -0.3,1 -0.8,1 -0.5,0 -1,-0.3 -1,-0.8 v -7.8 c 0,-0.5 0.3,-1 0.8,-1 0.5,0 1,0.3 1,0.8 v 0.6 0 c 0.4,-0.8 1.2,-1.4 2.1,-1.3 1.7,0 2.8,1.4 2.8,3.5 v 0 z m -4.9,0 c 0,1.2 0.6,2 1.5,2 0.9,0 1.5,-0.8 1.5,-2 0,-1.2 -0.6,-2 -1.5,-2 -0.9,0 -1.5,0.8 -1.5,2 z"
           id="path117"
           style="fill:#ffffff" />
        <path
           class="cls-4"
           d="m 533.3,85.2 c 0,2.2 -1.3,3.6 -3.3,3.6 -1.7,0 -3.1,-1.1 -3.2,-2.8 v -0.4 c 0,-0.4 0.3,-0.8 0.7,-0.8 h 4 c 0,-0.9 -0.5,-1.7 -1.3,-1.8 H 530 c -0.6,0 -1.3,0.3 -1.6,0.8 0,0.2 -0.4,0.3 -0.6,0.3 -0.4,0 -0.7,-0.2 -0.7,-0.6 v 0 c 0,-0.2 0,-0.3 0,-0.5 0.6,-0.9 1.7,-1.4 2.8,-1.3 1.7,0 3.3,1.2 3.4,2.9 v 0.6 h -0.1 z m -4.7,0.8 c 0,0.8 0.6,1.4 1.3,1.5 v 0 c 0.8,0 1.5,-0.7 1.5,-1.5 h -2.9 z"
           id="path118"
           style="fill:#ffffff" />
        <path
           class="cls-4"
           d="m 525.8,82.7 v 5.2 c 0,0.5 -0.3,0.9 -0.8,0.9 v 0 c -0.5,0 -0.9,-0.3 -0.9,-0.8 v 0 -0.5 0 c 0,0.7 -0.7,1.3 -1.4,1.3 -0.7,0 -0.4,0 -0.6,-0.2 -0.2,-0.2 -0.3,-0.4 -0.3,-0.7 0,-0.3 0,-0.5 0.3,-0.7 0.2,-0.2 0.5,-0.3 0.8,-0.2 0.8,0 1.1,-0.5 1.1,-1.3 v -3 c 0,-0.5 0.4,-0.9 0.9,-0.9 0.5,0 0.9,0.4 0.9,0.9 z"
           id="path119"
           style="fill:#ffffff" />
        <path
           class="cls-4"
           d="M 518.5,83.5 V 84 c 0,0.4 -0.3,0.8 -0.8,0.8 v 0 c -0.4,0 -0.7,-0.2 -0.9,-0.6 -0.4,-0.7 -1.1,-1.1 -1.9,-1 -1,0 -1.7,0.5 -1.7,1.2 0,0.7 0.4,0.9 1.6,1.2 l 1,0.2 c 1.8,0.4 2.7,1.2 2.7,2.6 0,1.4 -1.5,2.8 -3.5,2.8 -2,0 -2.9,-0.7 -3.3,-1.9 v -0.4 c 0,-0.4 0.3,-0.8 0.7,-0.8 v 0 c 0.4,0 0.7,0.2 0.9,0.5 0.3,0.7 1,1.1 1.7,1 1,0 1.6,-0.5 1.6,-1.1 0,-0.6 -0.4,-0.9 -1.5,-1.1 l -1,-0.2 c -2,-0.4 -2.8,-1.2 -2.8,-2.5 0,-1.3 1.4,-2.9 3.7,-2.9 2.3,0 3.2,0.7 3.5,1.8 v 0 z"
           id="path120"
           style="fill:#ffffff" />
        <path
           class="cls-4"
           d="m 510.3,80.4 v 7.5 c 0,0.5 -0.3,1 -0.8,1 -0.5,0 -1,-0.3 -1,-0.8 v -0.6 0 c -0.4,0.8 -1.2,1.3 -2.1,1.3 -1.7,0 -2.8,-1.3 -2.8,-3.5 0,-2.2 1,-3.5 2.8,-3.5 1.8,0 1.7,0.4 2.1,1.2 v 0 -2.6 c 0,-0.5 0.4,-0.9 0.9,-0.9 0.5,0 0.9,0.4 0.9,0.9 z m -4.8,4.9 c 0,1.2 0.6,2 1.5,2 0.9,0 1.5,-0.8 1.5,-2 0,-1.2 -0.6,-2 -1.5,-2 -0.9,0 -1.5,0.8 -1.5,2 z"
           id="path121"
           style="fill:#ffffff" />
        <path
           class="cls-4"
           d="m 502.9,83.8 c 0,1.2 -1,2 -2.7,2.1 h -1.7 v 0.6 c 0,0.6 0.5,1 1.2,1 0.7,0 1,-0.3 1.3,-0.7 0.2,-0.2 0.4,-0.3 0.7,-0.3 0.3,0 0.7,0.3 0.8,0.7 v 0 0.4 c -0.3,0.8 -1.4,1.3 -2.8,1.3 -1.4,0 -2.9,-0.9 -2.9,-2.3 v -3.9 c 0,-0.5 0.3,-0.9 0.7,-0.9 h 0.2 c 0.5,0 0.8,0.3 0.9,0.7 v 0 0.4 0 c 0.4,-0.7 1.2,-1.2 2.1,-1.1 1.2,0 2.2,0.7 2.3,1.9 v 0.2 0 z m -4.4,0.6 v 0.5 h 1.4 c 0.7,0 1.1,-0.4 1.1,-0.9 0,-0.5 -0.4,-0.8 -1,-0.8 -0.6,0 -1.4,0.5 -1.5,1.2 z"
           id="path122"
           style="fill:#ffffff" />
        <path
           class="cls-4"
           d="m 494.4,82.7 1.4,4.7 V 88 c 0,0.4 -0.4,0.8 -0.8,0.8 v 0 c -0.4,0 -0.8,-0.3 -0.9,-0.8 l -1,-4.4 v 0 l -1,4.3 c 0,0.6 -0.7,0.9 -1.2,0.8 -0.4,0 -0.8,-0.4 -0.8,-0.8 L 489,83.6 v 0 l -1,4.4 c 0,0.4 -0.4,0.8 -0.9,0.8 -0.5,0 -0.8,-0.3 -0.9,-0.7 v 0 -0.6 l 1.4,-4.8 c 0,-0.6 0.6,-1 1.2,-1 0.6,0 1.1,0.4 1.2,1 v 0 l 1,4 v 0 l 1,-4 c 0,-0.6 0.6,-1 1.2,-1 v 0 c 0.6,0 0.9,0.3 1.1,1 v 0 z"
           id="path123"
           style="fill:#ffffff" />
        <path
           class="cls-4"
           d="m 485.3,82.7 v 5.2 c 0,0.5 -0.3,0.9 -0.7,0.9 v 0 c -0.5,0 -0.9,-0.3 -0.9,-0.8 v 0 -0.5 0 c -0.3,0.8 -1.2,1.4 -2.1,1.3 -1.2,0 -2.3,-0.9 -2.4,-2.1 v -4 c 0,-0.5 0.4,-0.9 0.9,-0.9 0.5,0 0.9,0.4 0.9,0.9 v 0 3.2 c 0,0.9 0.4,1.4 1.2,1.4 0.8,0 1.4,-0.6 1.4,-1.3 v -3.3 c 0,-0.5 0.3,-1 0.8,-1 0.5,0 1,0.3 1,0.8 v 0.2 0 z"
           id="path124"
           style="fill:#ffffff" />
        <path
           class="cls-4"
           d="m 29.4,332 v 5.6 c 0,0.4 -0.2,0.7 -0.6,0.8 h -2.2 c -1.3,0 -2.4,-0.9 -2.4,-2.1 V 336 c 0,-1.3 1,-2.4 2.3,-2.4 H 28 v -1.5 c 0,-0.4 0.2,-0.8 0.6,-0.8 0.4,0 0.8,0.2 0.8,0.6 v 0.2 0 z m -2.5,2.7 c -0.7,0 -1.3,0.4 -1.4,1.1 -0.1,0.7 0.4,1.3 1.1,1.4 h 1.2 v -2.5 h -1 v 0 z"
           id="path125"
           style="fill:#ffffff" />
        <path
           class="cls-4"
           d="m 23.3,331.9 v 5.8 c 0,0.4 -0.3,0.7 -0.7,0.7 -0.4,0 -0.7,-0.3 -0.7,-0.7 v 0 -5.8 c 0,-0.4 0.3,-0.7 0.7,-0.7 0.4,0 0.7,0.3 0.7,0.7 z"
           id="path126"
           style="fill:#ffffff" />
        <path
           class="cls-4"
           d="m 21.1,332.8 c 0,1 -0.7,1.5 -2,1.6 h -1.4 v 0.4 c 0,0.5 0.3,0.8 0.9,0.8 0.6,0 0.8,-0.2 1,-0.5 0.1,-0.2 0.3,-0.3 0.6,-0.3 0.3,0 0.6,0.2 0.6,0.5 v 0 0.3 c -0.5,0.7 -1.3,1.1 -2.2,1 -1.3,0 -2.2,-0.7 -2.2,-1.8 v -3 c 0,-0.4 0.2,-0.7 0.6,-0.7 h 0.1 c 0.3,0 0.7,0.2 0.7,0.6 v 0 0.3 0 c 0.3,-0.6 0.9,-0.9 1.6,-0.9 0.7,0 1.7,0.5 1.8,1.4 v 0.2 h -0.1 z m -3.4,0.4 v 0.4 h 1.1 c 0.5,0 0.8,-0.4 0.8,-0.7 0,-0.3 -0.3,-0.6 -0.8,-0.6 -0.5,0 -1.1,0.3 -1.1,0.8 v 0 z"
           id="path127"
           style="fill:#ffffff" />
        <path
           class="cls-4"
           d="m 15,335.5 h 0.3 c 0.3,0 0.6,0.2 0.6,0.5 0,0.3 -0.2,0.6 -0.5,0.6 H 15 v 0.6 c 0,0.4 -0.2,0.8 -0.6,0.8 -0.4,0 -0.8,-0.2 -0.8,-0.6 v -0.8 h -0.5 c -0.3,0 -0.6,-0.2 -0.6,-0.5 0,-0.3 0.2,-0.6 0.5,-0.6 h 0.6 V 333 c 0,-0.4 -0.1,-0.5 -0.4,-0.5 v 0 c -0.3,0 -0.5,-0.2 -0.5,-0.5 0,-0.3 0.4,-0.6 1,-0.6 v 0 c 0.7,-0.1 1.3,0.4 1.4,1 v 3.2 H 15 Z"
           id="path128"
           style="fill:#ffffff" />
        <path
           class="cls-4"
           d="m 96,550.9 c 0,2.3 -1.3,3.6 -3.3,3.6 -2,0 -2.3,-0.6 -2.8,-1.6 0,-0.2 0,-0.4 0,-0.6 0,-0.3 0.2,-0.6 0.6,-0.6 v 0 c 0.3,0 0.6,0.2 0.7,0.5 0.3,0.7 0.9,1.1 1.6,1.1 1.1,0 1.8,-0.9 1.8,-2.4 0,-1.5 -0.7,-2.4 -1.8,-2.4 -1.1,0 -1.3,0.4 -1.6,1 0,0.3 -0.4,0.5 -0.6,0.5 -0.4,0 -0.7,-0.2 -0.7,-0.6 v 0 c 0,-0.2 0,-0.3 0,-0.5 0.5,-1 1.6,-1.7 2.8,-1.6 2.1,0 3.4,1.4 3.4,3.7 v 0 z"
           id="path129"
           style="fill:#ffffff" />
        <path
           class="cls-4"
           d="m 86.7,548.1 v 5.6 c 0,0.4 -0.2,0.8 -0.6,0.8 -0.4,0 -0.8,-0.2 -0.8,-0.6 v -5.4 h -2.5 c -0.3,0 -0.6,-0.3 -0.6,-0.6 0,-0.3 0.3,-0.6 0.6,-0.6 H 86 c 0.4,0 0.7,0.2 0.7,0.6 v 0 z"
           id="path130"
           style="fill:#ffffff" />
        <path
           class="cls-4"
           d="m 81.7,550 c 0,1.4 -1.3,2.5 -2.7,2.5 -1.4,0 -2.5,-1.3 -2.5,-2.7 0,-1.4 1.2,-2.5 2.6,-2.5 1.4,0 2.5,1 2.6,2.4 v 0.4 0 z m -3.8,0 c 0,1 0.4,1.6 1.1,1.6 0.7,0 1.1,-0.6 1.1,-1.6 0,-1 -0.4,-1.6 -1.1,-1.6 -0.7,0 -1.1,0.6 -1.1,1.6 z"
           id="path131"
           style="fill:#ffffff" />
        <path
           class="cls-4"
           d="m 75.7,548 v 4 c 0,0.4 -0.2,0.7 -0.6,0.7 v 0 c -0.4,0 -0.7,-0.2 -0.7,-0.6 v 0 -0.4 0 c -0.3,0.6 -0.9,1.1 -1.6,1 -1,0 -1.8,-0.7 -1.8,-1.6 V 548 c 0,-0.4 0.2,-0.8 0.6,-0.8 0.4,0 0.8,0.2 0.8,0.6 v 2.6 c 0,0.7 0.3,1.1 1,1.1 0.7,0 1,-0.4 1,-1 v -2.6 c 0,-0.4 0.2,-0.8 0.6,-0.8 0.4,0 0.8,0.2 0.8,0.6 v 0.2 0 z"
           id="path132"
           style="fill:#ffffff" />
        <path
           class="cls-4"
           d="m 69.8,546.3 c 0,0 0,0.3 0,0.4 0,0.3 -0.2,0.5 -0.5,0.5 v 0 c -0.2,0 -0.4,0 -0.5,-0.2 -0.3,-0.4 -0.8,-0.6 -1.2,-0.6 -0.8,0 -1.2,0.4 -1.2,1.1 v 0.8 0 c 0.3,-0.6 0.9,-1 1.6,-0.9 1.3,0 2.1,1 2.1,2.6 0,1.6 -0.8,2.6 -2.1,2.6 -1.3,0 -1.3,-0.4 -1.6,-1 v 0 0.3 c 0,0.4 -0.3,0.7 -0.7,0.7 -0.4,0 -0.7,-0.3 -0.7,-0.7 v 0 -4.4 c 0,-1.4 1,-2.2 2.7,-2.2 1.7,0 1.7,0.3 2.2,1 h -0.2 z m -3.4,3.7 c 0,0.9 0.5,1.5 1.2,1.5 0.7,0 1.1,-0.6 1.1,-1.5 0,-0.9 -0.4,-1.5 -1.1,-1.5 -0.7,0 -1.2,0.6 -1.2,1.5 z"
           id="path133"
           style="fill:#ffffff" />
        <path
           class="cls-4"
           d="m 185,333.9 v 5.6 c 0,0.4 -0.2,0.8 -0.6,0.8 -0.4,0 -0.8,-0.2 -0.8,-0.6 v -5.4 h -2.5 c -0.3,0 -0.6,-0.3 -0.6,-0.6 0,-0.3 0.3,-0.6 0.6,-0.6 h 3.2 c 0.4,0 0.7,0.3 0.7,0.6 v 0 c 0,0.1 0,0.2 0,0.2 z"
           id="path134"
           style="fill:#ffffff" />
        <path
           class="cls-4"
           d="m 180,335.7 c 0,1.4 -1.3,2.5 -2.7,2.5 -1.4,0 -2.5,-1.3 -2.5,-2.7 0,-1.4 1.2,-2.5 2.6,-2.5 1.4,0 2.5,1 2.6,2.4 v 0.4 0 z m -3.8,0 c 0,1 0.4,1.6 1.1,1.6 0.7,0 1.1,-0.6 1.1,-1.6 0,-1 -0.4,-1.6 -1.1,-1.6 -0.7,0 -1.1,0.6 -1.1,1.6 z"
           id="path135"
           style="fill:#ffffff" />
        <path
           class="cls-4"
           d="m 173.9,332.1 c 0,0.1 0.1,0.3 0.1,0.4 0,0.3 -0.2,0.5 -0.5,0.5 v 0 c -0.2,0 -0.4,0 -0.5,-0.2 -0.3,-0.3 -0.8,-0.6 -1.2,-0.6 -0.8,0 -1.2,0.4 -1.2,1.1 v 0.8 0 c 0.3,-0.6 0.9,-1 1.6,-0.9 1.3,0 2.1,1 2.1,2.6 0,1.6 -0.8,2.6 -2.1,2.6 -1.3,0 -1.3,-0.4 -1.6,-1 v 0 0.3 c 0,0.4 -0.2,0.7 -0.6,0.7 h -0.1 c -0.4,0 -0.7,-0.2 -0.7,-0.6 v 0 -4.6 c 0,-1.4 1,-2.2 2.7,-2.2 1.7,0 1.7,0.3 2.2,1 h -0.2 z m -3.4,3.7 c 0,1 0.5,1.5 1.2,1.5 0.7,0 1.1,-0.6 1.1,-1.5 0,-0.9 -0.4,-1.5 -1.1,-1.5 -0.7,0 -1.2,0.6 -1.2,1.5 z"
           id="path136"
           style="fill:#ffffff" />
        <path
           class="cls-4"
           d="m 168.2,334 v 0.3 c 0,0.3 -0.2,0.5 -0.5,0.6 v 0 c -0.2,0 -0.5,-0.1 -0.6,-0.3 -0.3,-0.4 -0.7,-0.6 -1.1,-0.5 -0.5,0 -0.9,0.2 -0.9,0.6 0,0.4 0.2,0.4 0.7,0.5 l 0.9,0.2 c 1,0.2 1.5,0.7 1.5,1.5 0,0.8 -0.9,1.7 -2.2,1.7 -0.8,0.1 -1.7,-0.3 -2.1,-1.1 v -0.2 c 0,-0.3 0.2,-0.5 0.6,-0.5 0.4,0 0.4,0 0.5,0.2 0.2,0.3 0.6,0.6 1,0.6 0.4,0 0.8,-0.2 0.8,-0.6 0,-0.4 -0.2,-0.5 -0.7,-0.6 l -0.9,-0.2 c -1.1,-0.2 -1.6,-0.7 -1.6,-1.4 0,-0.7 0.9,-1.7 2.3,-1.7 1.4,0 2,0.4 2.2,1 h 0.1 z"
           id="path137"
           style="fill:#ffffff" />
        <path
           class="cls-4"
           d="m 742.5,571.6 v 0.5 l -1.9,5.2 c -0.2,0.6 -0.8,1 -1.4,0.8 -0.4,0 -0.7,-0.4 -0.8,-0.8 l -1.9,-5.2 v -0.5 c 0,-0.4 0.3,-0.7 0.7,-0.7 v 0 c 0.4,0 0.6,0.2 0.8,0.7 l 0.4,1.1 h 2.5 l 0.4,-1.1 c 0,-0.5 0.4,-0.7 0.8,-0.7 0.4,0 0.7,0.2 0.7,0.6 h -0.3 z m -4.1,2.3 0.9,2.9 v 0 l 0.9,-2.9 z"
           id="path138"
           style="fill:#ffffff" />
        <path
           class="cls-4"
           d="m 733.3,571.8 v 5.6 c 0,0.4 -0.2,0.8 -0.6,0.8 -0.4,0 -0.8,-0.2 -0.8,-0.6 v -5.4 h -2.5 c -0.3,0 -0.6,-0.3 -0.6,-0.6 0,-0.3 0.3,-0.6 0.6,-0.6 h 3.2 c 0.4,0 0.7,0.2 0.8,0.6 v 0.2 z"
           id="path139"
           style="fill:#ffffff" />
        <path
           class="cls-4"
           d="m 728.3,573.7 c 0,1.4 -1.3,2.5 -2.7,2.5 -1.4,0 -2.5,-1.3 -2.5,-2.7 0,-1.4 1.2,-2.5 2.6,-2.5 1.4,0 2.5,1 2.6,2.3 z m -3.8,0 c 0,1 0.5,1.7 1.1,1.7 0.6,0 1.2,-0.6 1.2,-1.7 0,-1.1 -0.4,-1.6 -1.2,-1.6 -0.8,0 -1.1,0.6 -1.1,1.6 z"
           id="path140"
           style="fill:#ffffff" />
        <path
           class="cls-4"
           d="m 722.3,571.7 v 4 c 0,0.4 -0.2,0.7 -0.6,0.7 v 0 c -0.4,0 -0.7,-0.2 -0.7,-0.6 v 0 -0.4 0 c -0.3,0.6 -0.9,1.1 -1.6,1 -0.9,0 -1.8,-0.6 -1.8,-1.6 v -3.1 c 0,-0.4 0.2,-0.8 0.6,-0.8 0.4,0 0.8,0.2 0.8,0.6 v 2.7 c 0,0.7 0.3,1.1 1,1.1 0.7,0 1,-0.4 1,-1 v -2.6 c 0,-0.4 0.2,-0.8 0.6,-0.8 0.4,0 0.8,0.2 0.8,0.6 v 0.2 0 z"
           id="path141"
           style="fill:#ffffff" />
        <path
           class="cls-4"
           d="m 716.5,570 c 0,0 0,0.3 0,0.4 0,0.3 -0.2,0.5 -0.5,0.5 v 0 c -0.2,0 -0.4,0 -0.5,-0.2 -0.3,-0.3 -0.8,-0.6 -1.2,-0.6 -0.8,0 -1.2,0.4 -1.2,1.1 v 0.8 0 c 0.3,-0.6 0.9,-1 1.6,-0.9 1.3,0 2.1,1 2.1,2.6 0,1.6 -0.8,2.6 -2.2,2.6 -1.4,0 -1.3,-0.4 -1.6,-1 v 0 0.3 c 0,0.4 -0.3,0.7 -0.7,0.7 -0.4,0 -0.7,-0.3 -0.7,-0.7 v 0 -4.4 c 0,-1.4 1,-2.2 2.7,-2.2 1.7,0 1.7,0.3 2.2,1 z m -3.5,3.7 c 0,1 0.5,1.5 1.2,1.5 0.7,0 1.2,-0.6 1.2,-1.5 0,-0.9 -0.4,-1.5 -1.2,-1.5 -0.8,0 -1.2,0.6 -1.2,1.5 z"
           id="path142"
           style="fill:#ffffff" />
        <path
           class="cls-4"
           d="m 560.6,724.24798 v 0.5 l -1.9,5.2 c -0.2,0.6 -0.8,1 -1.4,0.8 -0.4,0 -0.7,-0.4 -0.8,-0.8 l -1.9,-5.2 v -0.5 c 0,-0.4 0.3,-0.7 0.7,-0.7 v 0 c 0.4,0 0.6,0.2 0.8,0.7 l 0.4,1.1 h 2.5 l 0.4,-1.1 c 0,-0.5 0.4,-0.7 0.8,-0.7 0.4,0 0.7,0.2 0.7,0.6 v 0 z m -4,2.2 0.9,2.9 v 0 l 0.9,-2.9 z"
           id="path143"
           style="fill:#ffffff" />
        <path
           class="cls-4"
           d="m 551.5,724.34798 v 5.6 c 0,0.4 -0.3,0.7 -0.7,0.7 -0.4,0 -0.7,-0.3 -0.7,-0.7 v 0 -5.2 h -2.5 c -0.3,0 -0.6,-0.3 -0.6,-0.6 0,-0.3 0.3,-0.6 0.6,-0.6 h 3.2 c 0.4,0 0.7,0.3 0.7,0.6 v 0 z"
           id="path144"
           style="fill:#ffffff" />
        <path
           class="cls-4"
           d="m 546.4,726.24798 c 0,1.4 -1.3,2.5 -2.7,2.4 -1.4,-0.1 -2.5,-1.3 -2.4,-2.7 0,-1.4 1.2,-2.4 2.6,-2.5 1.4,0 2.5,1 2.6,2.4 v 0.4 0 z m -3.7,0 c 0,1 0.5,1.6 1.1,1.6 0.6,0 1.2,-0.6 1.2,-1.6 0,-1 -0.4,-1.6 -1.2,-1.6 -0.8,0 -1.1,0.6 -1.1,1.6 z"
           id="path145"
           style="fill:#ffffff" />
        <path
           class="cls-4"
           d="m 540.5,724.24798 v 5.8 c 0,0.4 -0.3,0.7 -0.7,0.7 -0.4,0 -0.7,-0.3 -0.7,-0.7 v 0 -2.1 0 c -0.3,0.6 -0.9,1 -1.6,1 -1.3,0 -2.1,-1 -2.1,-2.7 0,-1.7 0.8,-2.7 2.1,-2.7 1.3,0 1.3,0.4 1.6,1 v 0 -0.3 c 0,-0.4 0.3,-0.7 0.7,-0.7 0.4,0 0.7,0.3 0.7,0.7 z m -3.7,2 c 0,1 0.5,1.6 1.2,1.6 0.7,0 1.2,-0.6 1.2,-1.6 0,-1 -0.5,-1.5 -1.2,-1.5 -0.7,0 -1.2,0.6 -1.2,1.5 z"
           id="path146"
           style="fill:#ffffff" />
        <path
           class="cls-4"
           d="m 534.5,724.24798 v 5.8 c 0,0.4 -0.3,0.7 -0.7,0.7 -0.4,0 -0.7,-0.3 -0.7,-0.7 v 0 -2.1 0 c -0.3,0.6 -0.9,1 -1.6,1 -1.3,0 -2.1,-1 -2.1,-2.7 0,-1.7 0.8,-2.7 2.1,-2.7 1.3,0 1.4,0.4 1.7,1 v 0 -0.3 c 0,-0.4 0.2,-0.7 0.6,-0.7 v 0 c 0.4,0 0.7,0.2 0.7,0.6 v 0 z m -3.7,2 c 0,1 0.5,1.6 1.2,1.6 0.7,0 1.2,-0.6 1.2,-1.6 0,-1 -0.5,-1.5 -1.2,-1.5 -0.7,0 -1.2,0.6 -1.2,1.5 z"
           id="path147"
           style="fill:#ffffff" />
        <path
           class="cls-4"
           d="m 528.8,722.34798 c 0,0.3 -0.2,0.5 -0.4,0.5 h -0.2 c -0.3,0 -0.6,0.2 -0.7,0.5 v 0.2 l 1.6,4.4 v 0.4 c 0,0.4 -0.3,0.7 -0.7,0.7 v 0 c -0.4,0 -0.6,-0.2 -0.7,-0.6 l -1.1,-3.6 v 0 l -1.1,3.6 c 0,0.3 -0.3,0.6 -0.7,0.6 -0.4,0 -0.7,-0.2 -0.7,-0.6 v 0 -0.4 l 1.6,-4.4 c 0.5,-1.3 1.1,-1.8 2.2,-1.8 1.1,0 0.9,0.2 0.9,0.7 z"
           id="path148"
           style="fill:#ffffff" />
        <path
           class="cls-4"
           d="m 311,470.4 c 0,2.2 -1.3,3.6 -3.4,3.6 -2.1,0 -2.2,-0.5 -2.8,-1.5 0,-0.1 -0.1,-0.3 -0.1,-0.5 0,-0.3 0.2,-0.6 0.6,-0.6 v 0 c 0.3,0 0.6,0.2 0.7,0.4 0.3,0.6 0.9,1 1.5,0.9 1.2,0 1.9,-0.9 1.9,-2.4 0,-1.5 -0.7,-2.5 -1.9,-2.5 -1.2,0 -1.6,0.6 -1.7,1.4 v 0 c 0,0.1 1,0.1 1,0.1 0.3,0 0.5,0.2 0.5,0.5 0,0.3 -0.2,0.5 -0.5,0.5 h -1.7 c -0.4,0 -0.7,-0.3 -0.7,-0.6 v 0 c 0,-1.8 1.1,-3.1 2.7,-3.2 h 0.5 c 2.1,0 3.4,1.4 3.4,3.7 z"
           id="path149"
           style="fill:#ffffff" />
        <path
           class="cls-4"
           d="m 303.9,468.4 c 0,1 -0.7,1.5 -2,1.6 h -1.3 v 0.4 c 0,0.5 0.3,0.8 0.9,0.8 0.6,0 0.8,-0.2 1,-0.5 0.1,-0.2 0.3,-0.3 0.6,-0.3 0.3,0 0.6,0.2 0.6,0.5 v 0 0.3 c -0.5,0.7 -1.3,1.1 -2.2,1 -1.4,0 -2.2,-0.7 -2.2,-1.8 v -3 c 0,-0.4 0.2,-0.7 0.6,-0.7 h 0.1 c 0.3,0 0.7,0.2 0.7,0.6 v 0 0.3 0 c 0.3,-0.6 0.9,-0.9 1.6,-0.9 0.7,0 1.7,0.6 1.8,1.5 v 0 c 0,0.1 -0.2,0.2 -0.2,0.2 z m -3.4,0.4 v 0.4 h 1.1 c 0.5,0 0.8,-0.4 0.8,-0.7 0,-0.3 -0.3,-0.6 -0.8,-0.6 -0.5,0 -1.1,0.3 -1.1,0.8 v 0 z"
           id="path150"
           style="fill:#ffffff" />
        <path
           class="cls-4"
           d="m 298.2,467.5 v 4 c 0,0.4 -0.2,0.7 -0.6,0.7 h -0.1 c -0.4,0 -0.7,-0.3 -0.7,-0.6 v 0 -0.4 0 c 0,0.6 -0.5,1 -1.1,1 -0.6,0 -0.3,0 -0.4,-0.1 -0.1,-0.1 -0.2,-0.3 -0.2,-0.5 0,-0.2 0,-0.4 0.2,-0.5 0.2,-0.1 0.4,-0.2 0.6,-0.2 0.6,0 0.9,-0.4 0.9,-1 v -2.3 c 0,-0.4 0.3,-0.7 0.7,-0.7 0.4,0 0.7,0.3 0.7,0.7 v 0 z"
           id="path151"
           style="fill:#ffffff" />
        <path
           class="cls-4"
           d="m 294.9,468.4 c 0,1 -0.7,1.5 -2,1.6 h -1.3 v 0.4 c 0,0.5 0.3,0.8 0.9,0.8 0.6,0 0.8,-0.2 1,-0.5 0.1,-0.2 0.3,-0.3 0.6,-0.3 0.3,0 0.6,0.2 0.6,0.5 v 0 0.3 c -0.5,0.7 -1.3,1.1 -2.2,1 -1.4,0 -2.2,-0.7 -2.2,-1.8 v -3 c 0,-0.4 0.2,-0.7 0.6,-0.7 h 0.1 c 0.3,0 0.7,0.2 0.7,0.6 v 0 0.3 0 c 0.3,-0.6 0.9,-0.9 1.6,-0.9 0.7,0 1.7,0.6 1.8,1.5 v 0 c 0,0.1 -0.2,0.2 -0.2,0.2 z m -3.4,0.4 v 0.4 h 1.1 c 0.5,0 0.8,-0.4 0.8,-0.7 0,-0.3 -0.3,-0.6 -0.8,-0.6 -0.5,0 -1.1,0.3 -1.1,0.8 v 0 z"
           id="path152"
           style="fill:#ffffff" />
        <path
           class="cls-4"
           d="m 289.1,465.9 c 0,0.1 0.1,0.3 0.1,0.4 0,0.3 -0.2,0.5 -0.5,0.5 v 0 c -0.2,0 -0.4,0 -0.5,-0.2 -0.3,-0.4 -0.8,-0.6 -1.2,-0.6 -0.6,0 -1.1,0.3 -1.2,0.9 v 1 0 c 0.3,-0.6 0.9,-1 1.6,-0.9 1.3,0 2.1,1 2.1,2.6 0,1.6 -0.8,2.6 -2.1,2.6 -1.3,0 -1.3,-0.4 -1.6,-1 v 0 0.3 c 0,0.4 -0.2,0.7 -0.6,0.7 h -0.1 c -0.4,0 -0.7,-0.2 -0.7,-0.6 v 0 -4.5 c 0,-1.4 1,-2.2 2.7,-2.2 1.7,0 1.7,0.3 2.2,1 z m -3.5,3.6 c 0,0.9 0.5,1.5 1.2,1.5 0.7,0 1.1,-0.6 1.1,-1.5 0,-0.9 -0.4,-1.5 -1.1,-1.5 -0.7,0 -1.2,0.6 -1.2,1.5 z"
           id="path153"
           style="fill:#ffffff" />
        <path
           class="cls-4"
           d="m 283.5,469.4 c 0.2,1.4 -0.8,2.6 -2.2,2.7 h -0.4 c -1.3,0 -2.4,-0.9 -2.5,-2.2 v -0.2 c 0,-0.3 0.2,-0.6 0.5,-0.6 h 3.1 c 0,-0.7 -0.4,-1.3 -1,-1.3 h -0.1 c -0.5,0 -1,0.2 -1.2,0.6 -0.1,0.1 -0.3,0.2 -0.5,0.2 -0.3,0 -0.5,-0.2 -0.5,-0.5 v 0 -0.3 c 0.5,-0.7 1.3,-1.1 2.2,-1 1.3,0 2.5,0.9 2.6,2.3 v 0.4 0 z m -3.7,0.6 c 0,0.6 0.4,1.1 1,1.1 v 0 c 0.6,0 1.1,-0.5 1.1,-1.1 h -2.2 z"
           id="path154"
           style="fill:#ffffff" />
        <path
           class="cls-4"
           d="m 313.2,388.5 1.5,5.3 v 0.5 c 0,0.4 -0.3,0.7 -0.6,0.7 H 314 c -0.4,0 -0.7,-0.3 -0.7,-0.6 l -1,-4.5 v 0 l -1.2,4.5 c -0.1,0.5 -0.4,0.7 -0.8,0.7 -0.4,0 -0.7,-0.3 -0.8,-0.7 l -1.2,-4.5 v 0 l -1,4.6 c 0,0.4 -0.3,0.6 -0.7,0.6 -0.4,0 -0.7,-0.2 -0.7,-0.6 v 0 -0.6 l 1.5,-5.3 c 0.1,-0.5 0.4,-0.8 0.9,-0.8 0.5,0 0.7,0.2 0.9,0.8 l 1.2,4.2 v 0 l 1.2,-4.2 c 0.1,-0.5 0.4,-0.8 0.9,-0.8 0.5,0 0.7,0.2 0.8,0.7 v 0 z"
           id="path155"
           style="fill:#ffffff" />
        <path
           class="cls-4"
           d="m 305,394.5 c 0,0.4 -0.3,0.8 -0.7,0.8 -0.4,0 -0.8,-0.3 -0.8,-0.7 0,-0.4 0.3,-0.8 0.7,-0.8 v 0 c 0.4,0 0.8,0.3 0.8,0.7 z m -0.1,-6 v 4 c 0,0.4 -0.2,0.8 -0.6,0.8 -0.4,0 -0.8,-0.2 -0.8,-0.6 v -4.2 c 0,-0.4 0.2,-0.8 0.6,-0.8 0.4,0 0.8,0.2 0.8,0.6 z"
           id="path156"
           style="fill:#ffffff" />
        <path
           class="cls-4"
           d="m 302.6,388.5 v 4 c 0,0.4 -0.2,0.7 -0.6,0.7 h -0.1 c -0.4,0 -0.7,-0.3 -0.7,-0.6 v 0 -0.3 0 c -0.3,0.7 -0.9,1.1 -1.6,1 -0.9,0 -1.8,-0.7 -1.8,-1.6 v -3.1 c 0,-0.4 0.3,-0.7 0.7,-0.7 0.4,0 0.7,0.3 0.7,0.7 v 2.4 c 0,0.7 0.3,1.1 1,1.1 0.7,0 1,-0.4 1.1,-0.9 v -2.6 c 0,-0.4 0.3,-0.7 0.7,-0.7 0.4,0 0.7,0.3 0.7,0.7 h -0.1 z"
           id="path157"
           style="fill:#ffffff" />
        <path
           class="cls-4"
           d="m 297,390.5 c 0,1.7 -0.8,2.7 -2.1,2.7 -1.3,0 -1.3,-0.4 -1.6,-1 v 0 2.1 c 0,0.4 -0.3,0.7 -0.7,0.7 -0.4,0 -0.7,-0.3 -0.7,-0.7 v 0 -5.8 c 0,-0.4 0.3,-0.7 0.7,-0.7 0.4,0 0.7,0.3 0.7,0.7 v 0.3 0 c 0.3,-0.6 0.9,-1 1.6,-1 1.3,0 2.1,1.1 2.1,2.7 z m -3.8,0 c 0,1 0.5,1.6 1.2,1.6 0.7,0 1.1,-0.6 1.1,-1.6 0,-1 -0.4,-1.5 -1.1,-1.5 -0.7,0 -1.2,0.6 -1.2,1.5 z"
           id="path158"
           style="fill:#ffffff" />
        <path
           class="cls-4"
           d="m 291.1,390.5 c 0,1.4 -1.3,2.5 -2.7,2.5 -1.4,0 -2.5,-1.3 -2.5,-2.7 0,-1.4 1.2,-2.5 2.6,-2.5 1.4,0 2.5,1 2.6,2.3 z m -3.8,0 c 0,1 0.5,1.6 1.1,1.6 0.6,0 1.1,-0.6 1.1,-1.6 0,-1 -0.4,-1.6 -1.1,-1.6 -0.7,0 -1.1,0.6 -1.1,1.6 z"
           id="path159"
           style="fill:#ffffff" />
        <path
           class="cls-4"
           d="m 284.3,388.5 1.1,3.7 v 0.4 c 0,0.3 -0.3,0.6 -0.6,0.6 v 0 c -0.3,0 -0.6,-0.3 -0.7,-0.6 l -0.8,-3.4 v 0 l -0.8,3.3 c 0,0.4 -0.5,0.7 -0.9,0.7 -0.4,0 -0.6,-0.3 -0.7,-0.7 l -0.8,-3.3 v 0 l -0.8,3.4 c 0,0.3 -0.3,0.6 -0.6,0.6 -0.3,0 -0.6,-0.2 -0.7,-0.6 v 0 -0.4 l 1,-3.7 c 0,-0.5 0.5,-0.8 0.9,-0.8 0.4,0 0.9,0.3 0.9,0.8 v 0 l 0.8,3 v 0 l 0.8,-3.1 c 0,-0.5 0.5,-0.8 0.9,-0.8 0.4,0 0.7,0.2 0.9,0.8 h 0.1 z"
           id="path160"
           style="fill:#ffffff" />
        <path
           class="cls-4"
           d="m 296.1,334.6 c 0,2.3 -1.3,3.7 -3.3,3.7 -2,0 -2.3,-0.6 -2.8,-1.6 0,-0.2 -0.1,-0.4 -0.1,-0.6 0,-0.3 0.2,-0.6 0.6,-0.6 v 0 c 0.3,0 0.6,0.2 0.7,0.5 0.3,0.7 0.9,1.1 1.6,1.1 1.1,0 1.8,-0.9 1.8,-2.4 0,-1.5 -0.7,-2.4 -1.8,-2.4 -1.1,0 -1.3,0.4 -1.6,1 0,0.3 -0.4,0.5 -0.6,0.5 -0.4,0 -0.7,-0.2 -0.7,-0.6 v 0 c 0,-0.2 0,-0.3 0.1,-0.5 0.5,-1 1.6,-1.7 2.8,-1.6 2.1,0 3.4,1.4 3.4,3.7 v -0.2 z"
           id="path161"
           style="fill:#ffffff" />
        <path
           class="cls-4"
           d="m 286.8,331.9 v 5.6 c 0,0.4 -0.3,0.7 -0.7,0.7 -0.4,0 -0.7,-0.3 -0.7,-0.7 v -5.2 h -2.5 c -0.3,0 -0.6,-0.3 -0.6,-0.6 0,-0.3 0.3,-0.6 0.6,-0.6 h 3.2 c 0.4,0 0.7,0.3 0.7,0.6 v 0 z"
           id="path162"
           style="fill:#ffffff" />
        <path
           class="cls-4"
           d="m 281.5,337.7 c 0,0.4 -0.3,0.7 -0.8,0.7 v 0 c -0.4,0 -0.7,-0.3 -0.7,-0.7 0,-0.4 0.3,-0.7 0.7,-0.7 v 0 c 0.4,0 0.8,0.3 0.8,0.7 z m 0,-6 v 4 c 0,0.4 -0.2,0.8 -0.6,0.8 -0.4,0 -0.8,-0.2 -0.8,-0.6 v -4.2 c 0,-0.4 0.2,-0.8 0.6,-0.8 0.4,0 0.8,0.2 0.8,0.6 z"
           id="path163"
           style="fill:#ffffff" />
        <path
           class="cls-4"
           d="m 279.1,331.7 v 4 c 0,0.4 -0.2,0.7 -0.6,0.7 h -0.1 c -0.4,0 -0.7,-0.2 -0.7,-0.6 v 0 -0.4 0 c -0.3,0.6 -0.9,1.1 -1.6,1 -0.9,0 -1.8,-0.7 -1.8,-1.6 v -3.1 c 0,-0.4 0.3,-0.7 0.7,-0.7 0.4,0 0.7,0.3 0.7,0.7 v 2.4 c 0,0.7 0.3,1.1 1,1.1 0.7,0 1,-0.4 1.1,-0.9 v -2.6 c 0,-0.4 0.3,-0.7 0.7,-0.7 0.4,0 0.7,0.3 0.7,0.7 z"
           id="path164"
           style="fill:#ffffff" />
        <path
           class="cls-4"
           d="m 273.40585,331.59561 v 5.8 c 0,0.4 -0.2,0.7 -0.6,0.7 h -0.1 c -0.4,0 -0.7,-0.3 -0.7,-0.6 v 0 -3.3 0 l -1.9,1.9 c -0.1,0.2 -0.3,0.3 -0.6,0.3 -0.3,0 -0.6,-0.3 -0.6,-0.6 v 0 c 0,-0.2 0,-0.4 0.3,-0.5 l 1.3,-1.3 -1.5,-1.9 c -0.1,-0.1 -0.2,-0.3 -0.2,-0.5 0,-0.3 0.3,-0.6 0.6,-0.6 v 0 c 0.3,0 0.5,0 0.7,0.4 l 1.3,1.8 0.5,-0.4 v -1.1 c 0,-0.4 0.2,-0.7 0.6,-0.7 h 0.1 c 0.4,0 0.7,0.3 0.7,0.6 z"
           id="path165"
           style="fill:#ffffff" />
        <path
           class="cls-4"
           d="m 805.4,243 v 5.7 c 0,0.4 -0.2,0.8 -0.6,0.8 -0.4,0 -0.8,-0.2 -0.8,-0.6 v -2.4 h -3.2 v 2.2 c 0,0.4 -0.3,0.7 -0.7,0.7 -0.4,0 -0.7,-0.3 -0.7,-0.7 v 0 -5.7 c 0,-0.4 0.3,-0.7 0.7,-0.7 0.4,0 0.7,0.3 0.7,0.7 v 0 2.3 H 804 V 243 c 0,-0.4 0.2,-0.8 0.6,-0.8 0.4,0 0.8,0.2 0.8,0.6 z"
           id="path168"
           style="fill:#ffffff" />
        <path
           class="cls-4"
           d="m 798.4,245 c 0.2,1.4 -0.8,2.6 -2.2,2.7 h -0.4 c -1.3,0 -2.4,-0.9 -2.5,-2.2 v -0.2 c 0,-0.3 0.2,-0.6 0.5,-0.6 h 3.1 c 0,-0.7 -0.4,-1.3 -1,-1.3 v 0 c -0.5,0 -1,0.2 -1.2,0.6 0,0.1 -0.3,0.2 -0.5,0.2 -0.3,0 -0.5,-0.2 -0.6,-0.5 v 0 -0.4 c 0.5,-0.7 1.3,-1.1 2.2,-1 1.3,0 2.5,0.9 2.6,2.3 v 0.4 h 0.1 z m -3.6,0.5 c 0,0.6 0.4,1.1 1,1.1 v 0 c 0.6,0 1.1,-0.5 1.1,-1.1 h -2.2 z"
           id="path169"
           style="fill:#ffffff" />
        <path
           class="cls-4"
           d="m 792.7,243 v 5.8 c 0,0.4 -0.2,0.7 -0.6,0.7 v 0 c -0.4,0 -0.7,-0.3 -0.7,-0.6 v 0 -5.9 c 0,-0.4 0.2,-0.7 0.6,-0.7 v 0 c 0.4,0 0.7,0.2 0.7,0.6 v 0 z"
           id="path170"
           style="fill:#ffffff" />
        <path
           class="cls-4"
           d="m 790.2,243 v 5.8 c 0,0.4 -0.3,0.7 -0.7,0.7 -0.4,0 -0.7,-0.3 -0.7,-0.7 v 0 -5.8 c 0,-0.4 0.3,-0.7 0.7,-0.7 0.4,0 0.7,0.3 0.7,0.7 z"
           id="path171"
           style="fill:#ffffff" />
        <path
           class="cls-4"
           d="m 691.6,329.1 c 0,2.3 -1.3,3.6 -3.4,3.6 -2.1,0 -2.2,-0.5 -2.8,-1.5 0,-0.1 0,-0.3 0,-0.5 0,-0.3 0.3,-0.6 0.6,-0.6 v 0 c 0.3,0 0.6,0.2 0.7,0.4 0.3,0.6 0.9,1 1.6,0.9 1.2,0 1.9,-0.9 1.9,-2.4 0,-1.5 -0.7,-2.5 -1.9,-2.5 -1.2,0 -1.6,0.5 -1.7,1.4 v 0 c 0,0.1 1,0.1 1,0.1 0.3,0 0.6,0.2 0.6,0.5 0,0.3 -0.2,0.6 -0.5,0.6 h -1.8 c -0.4,0 -0.7,-0.3 -0.7,-0.6 v 0 c 0,-1.8 1.1,-3.1 2.7,-3.2 h 0.4 c 2.1,0 3.4,1.3 3.4,3.6 v 0.2 z"
           id="path173"
           style="fill:#ffffff" />
        <path
           class="cls-4"
           d="m 684.3,326.2 v 4 c 0,0.4 -0.3,0.7 -0.7,0.7 -0.4,0 -0.7,-0.3 -0.7,-0.7 v 0 -0.3 0 c 0,0.6 -0.5,1 -1.1,1 -0.6,0 -0.3,0 -0.4,-0.1 -0.2,-0.1 -0.2,-0.3 -0.2,-0.5 0,-0.2 0,-0.4 0.2,-0.5 0.2,-0.1 0.4,-0.2 0.6,-0.2 0.7,0 0.9,-0.4 0.9,-1 v -2.3 c 0,-0.4 0.3,-0.7 0.7,-0.7 0.4,0 0.7,0.3 0.7,0.7 v 0 z"
           id="path174"
           style="fill:#ffffff" />
        <path
           class="cls-4"
           d="m 681,327.1 c 0,1 -0.7,1.5 -2,1.6 h -1.3 v 0.4 c 0,0.5 0.3,0.8 0.9,0.8 0.6,0 0.8,-0.2 1,-0.5 0,-0.2 0.3,-0.3 0.6,-0.3 0.3,0 0.6,0.2 0.6,0.5 v 0 0.3 c -0.5,0.7 -1.3,1.1 -2.2,1 -1.3,0 -2.2,-0.7 -2.2,-1.7 v -3 c 0,-0.4 0.2,-0.7 0.6,-0.7 v 0 c 0.3,0 0.7,0.2 0.7,0.6 v 0 0.3 0 c 0.3,-0.6 0.9,-0.9 1.6,-0.9 0.7,0 1.7,0.6 1.8,1.5 v 0 c 0,0.1 -0.2,0.1 -0.2,0.1 z m -3.4,0.4 v 0.4 h 1.1 c 0.5,0 0.8,-0.4 0.8,-0.7 0,-0.3 -0.3,-0.6 -0.8,-0.6 -0.5,0 -1.1,0.4 -1.1,1 v 0 z"
           id="path175"
           style="fill:#ffffff" />
        <path
           class="cls-4"
           d="m 674.9,326.2 v 3.5 h 0.3 c 0.3,0 0.4,0.4 0.3,0.7 0,0.2 -0.2,0.3 -0.3,0.3 h -0.3 v 0.4 c 0,0.7 -0.4,1.4 -1.1,1.5 h -0.4 c -0.8,0 -1.1,-0.2 -1.1,-0.6 0,-0.4 0,-0.3 0.3,-0.4 h 0.3 c 0.4,0 0.6,-0.2 0.6,-0.6 v -0.3 h -0.6 c -0.3,0 -0.4,-0.4 -0.3,-0.7 0,-0.2 0.2,-0.3 0.3,-0.3 h 0.6 v -3.5 c 0,-0.4 0.3,-0.7 0.7,-0.7 0.4,0 0.7,0.3 0.7,0.7 z"
           id="path176"
           style="fill:#ffffff" />
        <path
           class="cls-4"
           d="m 671.3,326.2 v 3.5 h 0.3 c 0.3,0 0.4,0.4 0.3,0.7 0,0.2 -0.2,0.3 -0.3,0.3 h -0.3 v 0.4 c 0,0.7 -0.4,1.4 -1.1,1.5 h -0.4 c -0.8,0 -1.1,-0.2 -1.1,-0.6 0,-0.4 0,-0.3 0.3,-0.4 h 0.3 c 0.4,0 0.6,-0.2 0.6,-0.6 v -0.3 h -0.6 c -0.3,0 -0.4,-0.4 -0.3,-0.7 0,-0.2 0.2,-0.3 0.3,-0.3 h 0.6 v -3.5 c 0,-0.4 0.3,-0.7 0.7,-0.7 0.4,0 0.7,0.3 0.7,0.7 z"
           id="path177"
           style="fill:#ffffff" />
        <path
           class="cls-4"
           d="m 668.2,332.2 c 0,0.4 -0.3,0.8 -0.8,0.8 -0.5,0 -0.8,-0.3 -0.8,-0.8 0,-0.5 0.3,-0.8 0.8,-0.8 0.5,0 0.8,0.3 0.8,0.8 z m -0.1,-6 v 4 c 0,0.4 -0.2,0.7 -0.6,0.7 v 0 c -0.4,0 -0.7,-0.3 -0.7,-0.7 v 0 -4 c 0,-0.4 0.2,-0.7 0.6,-0.7 v 0 c 0.4,0 0.7,0.3 0.7,0.6 v 0 z"
           id="path178"
           style="fill:#ffffff" />
        <path
           class="cls-4"
           d="m 665.3,329.7 h 0.3 c 0.3,0 0.6,0.2 0.6,0.5 0,0.3 -0.2,0.6 -0.5,0.6 h -0.4 v 0.6 c 0,0.4 -0.2,0.8 -0.6,0.8 -0.4,0 -0.8,-0.2 -0.8,-0.6 v -0.8 h -0.5 c -0.3,0 -0.6,-0.2 -0.6,-0.5 0,-0.3 0.2,-0.6 0.5,-0.6 h 0.6 v -2.5 c 0,-0.4 0,-0.5 -0.4,-0.5 v 0 c -0.3,0 -0.5,-0.2 -0.5,-0.5 0,-0.3 0.4,-0.6 1,-0.6 v 0 c 0.7,-0.1 1.3,0.4 1.4,1.1 v 3.1 h -0.1 z"
           id="path179"
           style="fill:#ffffff" />
        <path
           class="cls-4"
           d="m 662.2,332.2 c 0,0.4 -0.3,0.7 -0.7,0.7 v 0 c -0.4,0 -0.8,-0.3 -0.8,-0.7 v 0 c 0,-0.4 0.3,-0.7 0.8,-0.7 v 0 c 0.4,0 0.7,0.3 0.8,0.7 v 0 z m 0,-6 v 4 c 0,0.4 -0.2,0.7 -0.6,0.7 v 0 c -0.4,0 -0.7,-0.3 -0.7,-0.7 v 0 -4 c 0,-0.4 0.2,-0.7 0.6,-0.7 v 0 c 0.4,0 0.7,0.3 0.7,0.7 z"
           id="path180"
           style="fill:#ffffff" />
      </g>
    </g>
  </g>
</svg>
