<?xml version="1.0" encoding="UTF-8" standalone="no"?>
<svg
   version="1.1"
   viewBox="0 0 856.1 953.1"
   id="svg180"
   sodipodi:docname="havenfull.svg"
   inkscape:version="1.4.2 (f4327f4, 2025-05-13)"
   xmlns:inkscape="http://www.inkscape.org/namespaces/inkscape"
   xmlns:sodipodi="http://sodipodi.sourceforge.net/DTD/sodipodi-0.dtd"
   xmlns="http://www.w3.org/2000/svg"
   xmlns:svg="http://www.w3.org/2000/svg">
  <sodipodi:namedview
     id="namedview180"
     pagecolor="#505050"
     bordercolor="#eeeeee"
     borderopacity="1"
     inkscape:showpageshadow="0"
     inkscape:pageopacity="0"
     inkscape:pagecheckerboard="0"
     inkscape:deskcolor="#505050"
     showgrid="false"
     inkscape:zoom="0.84671076"
     inkscape:cx="93.302228"
     inkscape:cy="339.54925"
     inkscape:window-width="1920"
     inkscape:window-height="1009"
     inkscape:window-x="1912"
     inkscape:window-y="-8"
     inkscape:window-maximized="1"
     inkscape:current-layer="g180" />
  <defs
     id="defs1">
    <style
       id="style1">
      .cls-1 {
        fill: none;
        stroke: #fff;
        stroke-miterlimit: 10;
      }

      .cls-2 {
        fill: #3d3d3d;
      }

      .cls-3 {
        fill: #7e7f7e;
      }

      .cls-4 {
        fill: #fff;
      }

      .cls-5 {
        fill: #535353;
      }
    </style>
  </defs>
  <!-- Generator: Adobe Illustrator 28.6.0, SVG Export Plug-In . SVG Version: 1.2.0 Build 709)  -->
  <g
     id="g180"
     transform="rotate(180,451.37556,486.14359)">
    <g
       id="Layer_1"
       transform="translate(46.060593,18.896654)">
      <g
         id="Body_Merge">
        <polygon
           class="cls-3"
           points="786.1,262 803.1,262 809,262 823,262 823,260 809,260 809,230.1 786.1,230.1 "
           id="polygon1" />
        <path
           class="cls-2"
           d="M 825.1,506 V 435.9 H 855 V 299 h -36.9 v -6 h 21 v -30 h -54 v -80 h -145 v -77 h -54 V 34 l -44,-33 h -2 l -70,64 v 42 h -58 v -3 h -34 v 79 h -115 v 61 h -108 v 39 H 1.1 v 107 h 19 v 93 h 41 v 75 h 6 v 63 h -31 v 22 h -4 v 85.9 h 32.4 c 0,0 75.6,0 75.6,0 h 15 V 698 h 8 v 47 h -23 v 38 h 154 v 131 l 52,38 h 103 l 60,-38 v -77 h -54 v -62 h 138 v -48.7 0 -66.3 h -30 v -5 h 31 v -48 h 7 v 37 h 70 v -23 h 26 l 88,-53 h 70 v -62 z m -69,-284 v 71 h 10 v 6 h -27 v -62 h -45 v 15 h -54 v -30 z m -378,3 H 463 v -72.9 h 84.1 v 69 h 47 v 116 h -70 v 16 h -15 v -40 l -24,-23 h -22 v -46 h -62 v 46 h -21 l -24,23 v 11 h -16 v -18 h -46 V 225 Z m -23,227 v 46 h 31 v 62 h -46 v -30 h -23 v -9 h 23 V 410 h -23 v -4 h 23 v -34 h -77 v -5 h 60 v -11 h 17 v -4 h 16 v 91 h 52 v 9 z m 23,181 v 34 h 92 v 31 h 7 v 4 h -22 v 27 h -61 v -31 h -31 v -54 h -16 v -15 h 54 v 4 z m -138,-313 h -6 v 40 h 6 v 12 0 34 h 38 v 4 h -23 v 20 h -77 v -40 h 23 V 283 h 39 z m -85,347 v -7 h -15 v -16 h -39 v -38 h 39 v -54 h -39 v -69 h 77 v -25 h 77 v 63 h 23 v 9 h -23 v 161 h 73 v 7 h -34 v 31 h -62 v -85 h -69 v 23 z m 169,170 v -70 h 104 v 70 z m 216,-177 h -9 l -22,21 v 21 h -14 v -4 h 6 v -65 h -53 v -4 h 54 v -69 h -39 V 452 h -24 v -9 h 70 v -61 h 15 v 15 h 116 V 283 h 54 v 31 h -38 v 107 h 38 v 16 h -62 v -16 h -30 v 23 h -9 v -23 h -76 v 53 h 8 v 8 h 7 v 77 h 6 v 5 h -27 v 91 h 29 z m 157,-101 h -57 v -22 h -39 v 37 h -7 V 564 H 559 v -5 h 1.1 l 10,-11 v -66 h 23 v -22 h 9 v 11 h 30 v -4 h 76 v 31.9 h 62 v -63 h 16 V 506 h -1 z"
           id="path1" />
      </g>
      <g
         id="Bombsite">
        <rect
           class="cls-5"
           x="1"
           y="283"
           width="154"
           height="108"
           id="rect1" />
        <rect
           class="cls-5"
           x="379"
           y="319"
           width="106"
           height="97"
           id="rect2" />
        <rect
           class="cls-5"
           x="743"
           y="299"
           width="112"
           height="96"
           id="rect3" />
        <polygon
           class="cls-3"
           points="469.6,382.5 469.6,344.4 394.6,344.4 394.6,382.5 417.5,382.5 417.5,397.5 446.6,397.5 446.6,382.5 "
           id="polygon3" />
        <polygon
           class="cls-3"
           points="154.5,359.5 93.5,359.5 93.5,374.5 140.6,374.5 140.6,389.5 154.5,389.5 154.5,374.5 154.5,372.4 "
           id="polygon4" />
        <rect
           class="cls-3"
           x="1.5"
           y="344.60001"
           width="45.900002"
           height="44.900002"
           id="rect4" />
        <rect
           class="cls-3"
           x="1.6"
           y="330.39999"
           width="7"
           height="14.2"
           id="rect5" />
        <rect
           class="cls-3"
           x="71.5"
           y="283.29999"
           width="14.1"
           height="14.2"
           id="rect6" />
        <polygon
           class="cls-3"
           points="797,360.5 792.8,343.5 733.2,358.7 737.5,375.7 "
           id="polygon6" />
        <rect
           class="cls-3"
           x="840.5"
           y="299.5"
           width="14.2"
           height="13"
           id="rect7" />
      </g>
      <g
         id="Lines">
        <path
           class="cls-4"
           d="m 777.6,556 7.1,11.8 -11.5,6.9 -7.1,-11.8 11.5,-6.9 m 0.3,-1.4 -13.2,7.9 8.1,13.5 13.2,-7.9 z"
           id="path7" />
        <path
           class="cls-4"
           d="m 670.1,623 v 20 h -6 v -20 h 6 m 1,-1 h -8 v 22 h 8 z"
           id="path8" />
        <path
           class="cls-4"
           d="m 663.1,630 v 13 h -3 v -13 h 3 m 1,-1 h -5 v 15 h 5 z"
           id="path9" />
        <path
           class="cls-4"
           d="m 593.1,642 v 12 h -13 v -12 h 13 m 1,-1 h -15 v 14 h 15 z"
           id="path10" />
        <path
           class="cls-4"
           d="m 531.1,607 v 13 H 512 v -13 h 19.1 m 1,-1 H 511 v 15 h 21.1 z"
           id="path11" />
        <path
           class="cls-4"
           d="m 593.1,660 v 115 h -76 v -15 h 62 V 660 h 14 m 1,-1 h -16 v 100 h -62 v 17 h 78 z"
           id="path12" />
        <path
           class="cls-4"
           d="m 593.1,660 v 115 h -83 v -22.9 h 61.1 V 660 h 21.9 m 1,-1 h -24 v 92.1 h -61 V 776 h 85 v -24.9 0 z"
           id="path13" />
        <path
           class="cls-4"
           d="m 469.1,761 v 13 h -13 v -13 h 13 m 1,-1 h -15 v 15 h 15 z"
           id="path14" />
        <path
           class="cls-4"
           d="m 309.1,699 v 14.1 H 295 V 699 h 14.1 m 1,-1 H 294 v 16.1 h 16.1 z"
           id="path15" />
        <path
           class="cls-4"
           d="m 313.5,699 c 1.4,0 2.5,1.1 2.5,2.5 0,1.4 -1.1,2.5 -2.5,2.5 -1.4,0 -2.5,-1.1 -2.5,-2.5 v 0 c 0,-1.4 1.1,-2.5 2.5,-2.5 m 0,-1 c -1.9,0 -3.5,1.6 -3.5,3.5 0,1.9 1.6,3.5 3.5,3.5 1.9,0 3.5,-1.6 3.5,-3.5 v 0 c 0,-1.9 -1.6,-3.5 -3.5,-3.5 z"
           id="path16" />
        <path
           class="cls-4"
           d="m 346.1,630 v 13 h -13 v -13 h 13 m 1,-1 h -15 v 15 h 15 z"
           id="path17" />
        <path
           class="cls-4"
           d="m 363.1,644 v 7 h -30 v -7 h 30 m 1,-1 h -32 v 9 h 32 z"
           id="path18" />
        <path
           class="cls-4"
           d="m 270.1,591 v 14 H 256 v -14 h 14.1 m 1,-1 H 255 v 16 h 16.1 z"
           id="path19" />
        <path
           class="cls-4"
           d="m 277.1,599 v 6 h -6 v -6 h 6 m 1,-1 h -8 v 8 h 8 z"
           id="path20" />
        <path
           class="cls-4"
           d="m 335.1,512.1 c 2.2,0 4,1.7 4,4 0,2.3 -1.7,4 -4,4 -2.3,0 -4,-1.7 -4,-4 v 0 c 0,-2.2 1.8,-3.9 4,-4 m 0,-1 c -2.8,0 -5,2.2 -5,5 0,2.8 2.2,5 5,5 2.8,0 5,-2.2 5,-5 v 0 c 0,-2.7 -2.2,-5 -4.9,-5 z"
           id="path21" />
        <path
           class="cls-4"
           d="m 339.1,473 v 12 h -14 v -12 h 14 m 1,-1 h -16 v 14 h 16 z"
           id="path22" />
        <path
           class="cls-4"
           d="m 316.1,410 v 14 h -37 v -14 h 37 m 1,-1 h -39 v 16 h 39 z"
           id="path23" />
        <path
           class="cls-4"
           d="m 316.1,407 v 17 h -37 v -17 h 37 m 1,-1 h -39 v 19 h 39 z"
           id="path24" />
        <path
           class="cls-4"
           d="m 309.1,410 v 9 h -23 v -9 h 23 m 1,-1 h -25 v 11 h 25 z"
           id="path25" />
        <path
           class="cls-4"
           d="m 131.1,469 v 13 h -13 v -13 h 13 m 1,-1 h -15 v 15 h 15 z"
           id="path26" />
        <path
           class="cls-4"
           d="m 177.1,645 v 14 h -13 v -14 h 13 m 1,-1 h -15 v 16 h 15 z"
           id="path27" />
        <path
           class="cls-4"
           d="m 185.1,645 v 6 h -7 v -6 h 7 m 1,-1 h -9 v 8 h 9 z"
           id="path28" />
        <polyline
           class="cls-1"
           points="101.5 551.4 101.5 590.5 116 590.5"
           id="polyline28" />
        <path
           class="cls-4"
           d="m 154.1,360 v 14 h -60 v -14 h 60 m 1,-1 h -62 v 16 h 62 z"
           id="path29" />
        <path
           class="cls-4"
           d="m 154.1,375 v 14 h -13 v -14 h 13 m 1,-1 h -15 v 16 h 15 z"
           id="path30" />
        <path
           class="cls-4"
           d="m 85.1,284 v 13.1 h -13 V 284 h 13 m 1,-1 h -15 v 15.1 h 15 z"
           id="path31" />
        <path
           class="cls-4"
           d="m 47.1,345 v 44 h -45 v -44 h 45 m 1,-1 h -47 v 46 h 47 z"
           id="path32" />
        <path
           class="cls-4"
           d="m 8,331 v 13 H 2.1 v -13 h 6 m 1,-1 h -8 v 15 h 8 z"
           id="path33" />
        <path
           class="cls-4"
           d="m 246.1,730 v 13 h -13 v -13 h 13 m 1,-1 h -15 v 15 h 15 z"
           id="path34" />
        <path
           class="cls-4"
           d="m 462.1,547 v 12 h -14 v -12 h 14 m 1,-1 h -16 v 14 h 16 z"
           id="path35" />
        <path
           class="cls-4"
           d="m 369.1,376 v 67 h -13 v -67 h 13 m 1,-1 h -15 v 69 h 15 z"
           id="path36" />
        <path
           class="cls-4"
           d="m 446.1,288 v 1 h -28 v -1 h 28 m 1,-1 h -30 v 3 h 30 z"
           id="path37" />
        <path
           class="cls-4"
           d="m 469.1,345 v 37 h -23 v 15 h -28 v -15 h -23 v -37 h 74 m 1,-1 h -76 v 39 h 23 v 15 h 30 v -15 h 23 z"
           id="path38" />
        <path
           class="cls-4"
           d="m 508.1,430 v 12.1 h -14 V 430 h 14 m 1,-1 h -16 v 14.1 h 16 z"
           id="path39" />
        <path
           class="cls-4"
           d="m 508.2,422 v 7 H 502 v -7 h 6.2 m 1,-1 H 501 v 9 h 8.2 z"
           id="path40" />
        <path
           class="cls-4"
           d="m 531.1,421 v 15 h -14 v -15 h 14 m 1,-1 h -16 v 17 h 16 z"
           id="path41" />
        <path
           class="cls-4"
           d="m 454,607 v 22 H 394.1 V 607 H 454 m 1,-1 h -61.9 v 24 H 455 Z"
           id="path42" />
        <path
           class="cls-4"
           d="m 448.1,614 v 18 H 401 v -18 h 47.1 m 1,-1 H 400 v 20 h 49.1 z"
           id="path43" />
        <path
           class="cls-4"
           d="m 200.1,360 v 29 h -13 v -29 h 13 m 1,-1 h -15 v 31 h 15 z"
           id="path44" />
        <path
           class="cls-4"
           d="m 200.1,345 v 14 h -13 v -14 h 13 m 1,-1 h -15 v 16 h 15 z"
           id="path45" />
        <path
           class="cls-4"
           d="m 170.1,245 v 14.1 H 156 V 245 h 14.1 m 1,-1 H 155 v 16.1 h 16.1 z"
           id="path46" />
        <path
           class="cls-4"
           d="m 586.1,49 v 22 h -5 V 49 h 5 m 1,-1 h -7 v 24 h 7 z"
           id="path47" />
        <path
           class="cls-4"
           d="M 483,52.8 V 73 h -13 v -7.6 l 13,-12.6 m 1,-2.4 -15,14.5 v 9 h 15 z"
           id="path48" />
        <path
           class="cls-4"
           d="m 463.1,244 v 7 h -62 v -7 h 62 m 1,-1 h -64 v 9 h 64 z"
           id="path49" />
        <path
           class="cls-4"
           d="m 607.9,303 v 13 h -13 v -13 h 13 m 1,-1 h -15 v 15 h 15 z"
           id="path50" />
        <path
           class="cls-4"
           d="m 599.8,296 v 6 h -4.9 v -6 h 4.9 m 1,-1 h -6.9 v 8 h 6.9 z"
           id="path51" />
        <path
           class="cls-4"
           d="m 739.1,237 v 13 h -12 v -13 h 12 m 1,-1 h -14 v 15 h 14 z"
           id="path52" />
        <path
           class="cls-4"
           d="m 854.1,300 v 12 h -13 v -12 h 13 m 1,-1 h -15 v 14 h 15 z"
           id="path53" />
        <path
           class="cls-4"
           d="m 854.1,310 v 2 h -13 v -2 h 13 m 1,-1 h -15 v 4 h 15 z"
           id="path54" />
        <path
           class="cls-4"
           d="m 785.1,422 v 13.9 h -15 V 449 h -14 v -27 h 29 m 1,-1 h -31 v 29 h 16 v -13.1 h 15 z"
           id="path55" />
        <path
           class="cls-4"
           d="m 706.1,422 v 11 H 695 v -11 h 11.1 m 1,-1 H 694 v 13 h 13.1 z"
           id="path56" />
        <path
           class="cls-4"
           d="m 796.1,294 v 4 h -29 v -4 h 29 m 1,-1 h -31 v 6 h 31 z"
           id="path57" />
        <path
           class="cls-4"
           d="m 818.1,295 v 2 h -21 v -2 h 21 m 1,-1 h -23 v 4 h 23 z"
           id="path58" />
        <path
           class="cls-4"
           d="m 792.4,344.1 4.1,16 -58.5,14.9 -4.1,-16 58.5,-14.9 m 0.7,-1.2 -60.5,15.4 4.6,17.9 60.5,-15.4 z"
           id="path59" />
        <line
           class="cls-1"
           x1="277.60001"
           y1="525.29999"
           x2="294.89999"
           y2="515.20001"
           id="line59" />
        <line
           class="cls-1"
           x1="317.60001"
           y1="524.09998"
           x2="301.39999"
           y2="533.70001"
           id="line60" />
        <line
           class="cls-1"
           x1="124"
           y1="643.59998"
           x2="140.39999"
           y2="659.70001"
           id="line61" />
      </g>
      <g
         id="Outlines">
        <path
           class="cls-4"
           d="m 809.1,230 v 30 h 14 v 2 h -37 v -32 h 23 m 1,-1 h -25 v 34 h 39.1 v -4 h -14.1 z"
           id="path61" />
        <path
           class="cls-4"
           d="m 542.1,1 44,33 v 72 h 54 v 77 h 145 v 80 h 54 v 30 h -21 v 6 H 855 V 435.9 H 825.1 V 506 h 30 v 62 h -70 l -88,53 h -26 v 23 h -70 v -37 h -7 v 48 h -31 v 5 h 30 v 66.3 0 48.7 h -138 v 62 h 54 v 77 l -60,38 h -103 l -52,-38 V 783 h -154 v -38 h 23 v -47 h -8 v 30.9 H 32.1 V 643 h 4 v -22 h 31 v -63 h -6 v -75 h -41 V 390 H 1.1 V 283 h 154 v -39 h 108 v -61 h 115 v -79 h 34 v 3 h 58 V 65 l 70,-64 h 2 m -248,305 h 46 v 18 h 16 v -11 l 24,-23 h 21 v -46 h 62 v 46 h 22 l 24,23 v 40 h 15 v -16 h 70 V 221 h -47 V 152 H 463 v 72.9 H 294.1 V 306 m 346,-54 h 54 v -15 h 45 v 62 h 27 v -6 h -10 v -71 h -116 v 30 m -116,145 v -15 h -15 v 61 h -70 v 9 h 24 v 108 h 39 v 69 h -54 v 4 h 53 v 65 h -6 v 4 h 14 v -21 l 22,-21 h 9 v -5 h -29 v -91 h 27 v -5 h -6 v -77 h -7 v -8 h -8 v -53 h 76 v 23 h 9 v -23 h 30 v 16 h 62 v -16 h -38 V 314 h 38 v -31 h -54 v 114 h -116 m -346,33 h 77 v -20 h 23 v -4 h -38 v -34 0 -12 h -6 v -40 h 6 v -37 h -39 v 107 h -23 v 40 m 85,-58 h 77 v 34 h -23 v 4 h 23 v 111 h -23 v 9 h 23 v 30 h 46 v -62 h -31 v -46 h 53 v -9 h -52 v -91 h -16 v 4 h -17 v 11 h -60 v 5 m 445,127 v -32 h -76 v 4 h -30 v -11 h -9 v 22 h -23 v 66 l -10,11 H 559 v 5 h 35.1 v 10 h 7 v -37 h 39 v 22 h 57 l 88,-53 h 1 V 435.9 H 770 v 63 h -61.9 m -607,53.1 h 39 v 54 h -39 v 38 h 39 v 16 h 15 v 7 h 8 v -23 h 69 v 85 h 62 v -31 h 34 v -7 h -73 V 530 h 23 v -9 h -23 v -63 h -77 v 25 h -77 v 69 m 246,92 h 16 v 54 h 31 v 31 h 61 v -27 h 22 v -4 h -7 v -31 h -92 V 633 H 401 v -4 h -53.9 v 15 m -23,193 h 104 v -70 h -104 v 70 M 542.4,0 h -2.8 l -0.3,0.3 -70,64 -0.3,0.3 V 106 h -56 v -3 h -36 v 79 H 262 v 61 H 154 v 39 H 0 v 109 h 19 v 93 h 41 v 75 h 6 v 60.9 H 35 v 22 h -4 v 88 h 125.1 v -31 h 5.9 v 44.9 h -23 v 40.1 h 154 v 130.4 l 0.4,0.3 52,38 0.3,0.2 h 103.6 l 0.3,-0.2 60,-38.1 0.5,-0.3 v -78.6 h -54 v -59.8 h 138 v -117 h -29.9 v -2.9 h 31 v -48.1 h 4.9 v 37 h 72.1 v -23 h 25.2 l 0.2,-0.2 87.8,-52.8 h 70.7 v -64 h -30 v -68 h 30 v -139 h -37 v -4 h 21 v -32 h -54 v -80 h -145 v -77 h -54 V 33.5 l -0.4,-0.3 -44.1,-33 z m -78.3,153.1 h 82 v 69 h 47 v 114 h -70 v 16 h -12.9 v -39.4 l -0.3,-0.3 -24,-23 -0.3,-0.3 h -21.4 v -46 h -64 v 46 h -20.4 l -0.3,0.3 -24,23 -0.3,0.3 v 10.4 h -13.9 v -17.9 h -46 v -79 h 169 v -73 h -0.2 z m 177,70 h 114 v 71 h 10 v 4 h -25 v -62 H 693 v 15 h -51.9 v -27.9 0 z m 0,61 H 693 v 29 h -38 v 109.1 h 38 v 13.9 h -59.9 v -16 h -32 v 23 h -7 v -23 h -78 v 55 h 8 v 8 h 7 v 77 h 6 v 3 h -27 v 93.1 h 29 v 2.9 h -8.4 l -0.3,0.3 -22,21 -0.3,0.3 v 20.4 h -12 v -2 h 6 v -67 h -53 v -2 h 54 v -71 h -39 v -108 h -24 v -6.9 h 70 v -61 h 13 v 15 h 118 z m -439,0 h 37 v 35 h -6 v 42.1 h 6 v 45.9 h 38 v 2 h -23 v 20 h -75 v -38 h 23 z m 139,69 h 14 v 91 h 52 v 6.9 h -53 v 48.1 h 31 v 60 h -44 v -30 h -23 v -6.9 h 23 V 409.1 h -23 v -2 h 23 V 371 h -77 v -2.9 h 60 v -11 h 17 z m 430,83.9 h 14 v 68 h -0.2 l -0.2,0.2 -87.8,52.8 h -55.7 v -22 h -41.1 v 37 h -4.9 v -9.9 h -35 v -3 h 0.5 l 0.3,-0.3 10,-11 0.3,-0.3 v -65.4 h 23 v -22 h 6.9 v 11 h 32 v -4 h 73.9 v 32 h 64.1 v -63 0 z m -592,22 h 75 v 63 h 23 v 7 h -23 v 163 h 73 v 5 h -34 v 31 h -60 V 643 H 162 v 23 h -5.9 v -7 h -15 v -16 h -39 v -36 h 39 v -56.1 h -39 V 484 h 77 z m 169,171 H 400 v 2 h -22.9 v 36 h 92 v 31 h 7 v 1.9 h -22 v 27 h -59 V 697 h -31 v -54 h -16 z m -23,138 H 427 v 67.9 H 325.1 v -67.8 0 z"
           id="path62" />
      </g>
      <g
         id="Callouts_copy">
        <path
           class="cls-4"
           d="m 441.39156,355.7 v 16 c 0.1,1.1 -0.7,2.1 -1.8,2.2 h -7.2 c -3.8,0 -6.2,-2 -6.2,-5.1 0,-3.1 1.6,-4.1 3.8,-4.4 v 0 c -2.7,-0.2 -4.8,-2.4 -4.8,-5 0,-2.6 2.7,-5.8 7.1,-5.8 h 6.9 c 1.1,0 2.1,0.7 2.1,1.8 v 0.4 0 z m -7.4,9.7 c -2.3,0 -3.6,1 -3.6,2.7 0,1.7 1.1,2.6 3.1,2.6 h 3.5 v -5.3 h -3.1 z m -0.6,-8.7 c -2.5,0 -3.8,1 -3.8,3 0,2 1.4,2.9 3.9,2.9 h 3.6 v -5.9 z"
           id="path166" />
        <path
           class="cls-4"
           d="m 77.9,344.7 c -3.9,0 -6.9,-1.7 -8.2,-4.6 -0.2,-0.4 -0.3,-0.9 -0.3,-1.4 0,-1 0.8,-1.9 1.8,-1.9 h 0.2 c 0.9,0 1.6,0.5 1.9,1.3 0.8,1.9 2.6,3.1 4.7,3 3.3,0 5.3,-2.7 5.3,-7 0,-4.3 -2.1,-7 -5.3,-7 -3.2,0 -3.9,1.2 -4.6,3.1 -0.3,0.9 -1.1,1.4 -2,1.4 -0.9,0 -1.8,-0.6 -1.9,-1.6 v -0.2 c 0,-0.6 0.2,-1.1 0.4,-1.6 1.4,-2.9 4.4,-4.6 8.2,-4.6 5.9,0 9.6,4 9.6,10.6 0,6.6 -3.7,10.5 -9.8,10.5 z"
           id="path167" />
        <path
           class="cls-4"
           d="m 819.3,332.37156 c 1.1,0 1.8,0.6 2.2,1.9 l 1.1,3.2 h 7.4 l 1.1,-3.2 c 0.4,-1.3 1,-1.9 2.2,-1.9 1.2,0 2.1,0.8 2.1,1.9 v 0 c 0,0.6 0,1 -0.3,1.4 l -5.6,15.2 c -0.5,1.8 -2.4,2.8 -4.2,2.3 -1.1,-0.3 -2,-1.2 -2.3,-2.3 l -5.6,-15.2 c -0.2,-0.4 -0.3,-0.9 -0.3,-1.3 0,-1.1 0.9,-2 2,-2 z m 4.2,8.4 2.7,8.4 v 0 l 2.7,-8.4 h -5.5 v 0 z"
           id="path172" />
      </g>
    </g>
  </g>
</svg>
