<?xml version="1.0" encoding="UTF-8" standalone="no"?>
<svg
   version="1.1"
   viewBox="0 0 856.1 953.1"
   id="svg180"
   sodipodi:docname="haven.svg"
   inkscape:version="1.4.2 (f4327f4, 2025-05-13)"
   xmlns:inkscape="http://www.inkscape.org/namespaces/inkscape"
   xmlns:sodipodi="http://sodipodi.sourceforge.net/DTD/sodipodi-0.dtd"
   xmlns="http://www.w3.org/2000/svg"
   xmlns:svg="http://www.w3.org/2000/svg">
  <sodipodi:namedview
     id="namedview180"
     pagecolor="#505050"
     bordercolor="#eeeeee"
     borderopacity="1"
     inkscape:showpageshadow="0"
     inkscape:pageopacity="0"
     inkscape:pagecheckerboard="0"
     inkscape:deskcolor="#505050"
     showgrid="false"
     inkscape:zoom="0.84671076"
     inkscape:cx="427.53679"
     inkscape:cy="476.54999"
     inkscape:window-width="1920"
     inkscape:window-height="1009"
     inkscape:window-x="1912"
     inkscape:window-y="-8"
     inkscape:window-maximized="1"
     inkscape:current-layer="Layer_1" />
  <defs
     id="defs1">
    <style
       id="style1">
      .cls-1 {
        fill: none;
        stroke: #fff;
        stroke-miterlimit: 10;
      }

      .cls-2 {
        fill: #3d3d3d;
      }

      .cls-3 {
        fill: #7e7f7e;
      }

      .cls-4 {
        fill: #fff;
      }

      .cls-5 {
        fill: #535353;
      }
    </style>
  </defs>
  <!-- Generator: Adobe Illustrator 28.6.0, SVG Export Plug-In . SVG Version: 1.2.0 Build 709)  -->
  <g
     id="g180">
    <g
       id="Layer_1">
      <g
         id="Body_Merge">
        <polygon
           class="cls-3"
           points="809 262 823 262 823 260 809 260 809 230.1 786.1 230.1 786.1 262 803.1 262 809 262"
           id="polygon1" />
        <path
           class="cls-2"
           d="M825.1,506v-70.1h29.9v-136.9h-36.9v-6h21v-30h-54v-80h-145v-77h-54V34L542.1,1h-2l-70,64v42h-58v-3h-34v79h-115v61h-108v39H1.1v107h19v93h41v75h6v63h-31v22h-4v85.9h32.4c0,0,75.6,0,75.6,0h15v-30.9h8v47h-23v38h154v131l52,38h103l60-38v-77h-54v-62h138v-48.7h0v-66.3h-30v-5h31v-48h7v37h70v-23h26l88-53h70v-62h-30ZM756.1,222v71h10v6h-27v-62h-45v15h-54v-30h116ZM378.1,225h84.9v-72.9h84.1v69h47v116h-70v16h-15v-40l-24-23h-22v-46h-62v46h-21l-24,23v11h-16v-18h-46v-81.1h84ZM355.1,452v46h31v62h-46v-30h-23v-9h23v-111h-23v-4h23v-34h-77v-5h60v-11h17v-4h16v91h52v9h-53ZM378.1,633v34h92v31h7v4h-22v27h-61v-31h-31v-54h-16v-15h54v4h-23ZM240.1,320h-6v40h6v12h0v34h38v4h-23v20h-77v-40h23v-107h39v37ZM155.1,667v-7h-15v-16h-39v-38h39v-54h-39v-69h77v-25h77v63h23v9h-23v161h73v7h-34v31h-62v-85h-69v23h-8ZM324.1,837v-70h104v70h-104ZM540.1,660h-9l-22,21v21h-14v-4h6v-65h-53v-4h54v-69h-39v-108h-24v-9h70v-61h15v15h116v-114h54v31h-38v107h38v16h-62v-16h-30v23h-9v-23h-76v53h8v8h7v77h6v5h-27v91h29v5ZM697.1,559h-57v-22h-39v37h-7v-10h-35.1v-5h1.1l10-11v-66h23v-22h9v11h30v-4h76v31.9h62v-63h16v70.1h-1l-88,53Z"
           id="path1" />
      </g>
      <g
         id="Bombsite">
        <rect
           class="cls-5"
           x="1"
           y="283"
           width="154"
           height="108"
           id="rect1" />
        <rect
           class="cls-5"
           x="379"
           y="319"
           width="106"
           height="97"
           id="rect2" />
        <rect
           class="cls-5"
           x="743"
           y="299"
           width="112"
           height="96"
           id="rect3" />
        <polygon
           class="cls-3"
           points="469.6 344.4 394.6 344.4 394.6 382.5 417.5 382.5 417.5 397.5 446.6 397.5 446.6 382.5 469.6 382.5 469.6 344.4"
           id="polygon3" />
        <polygon
           class="cls-3"
           points="93.5 359.5 93.5 374.5 140.6 374.5 140.6 389.5 154.5 389.5 154.5 374.5 154.5 372.4 154.5 359.5 93.5 359.5"
           id="polygon4" />
        <rect
           class="cls-3"
           x="1.5"
           y="344.6"
           width="45.9"
           height="44.9"
           id="rect4" />
        <rect
           class="cls-3"
           x="1.6"
           y="330.4"
           width="7"
           height="14.2"
           id="rect5" />
        <rect
           class="cls-3"
           x="71.5"
           y="283.3"
           width="14.1"
           height="14.2"
           id="rect6" />
        <polygon
           class="cls-3"
           points="792.8 343.5 733.2 358.7 737.5 375.7 797 360.5 792.8 343.5"
           id="polygon6" />
        <rect
           class="cls-3"
           x="840.5"
           y="299.5"
           width="14.2"
           height="13"
           id="rect7" />
      </g>
      <g
         id="Lines">
        <path
           class="cls-4"
           d="M777.6,556l7.1,11.8-11.5,6.9-7.1-11.8,11.5-6.9M777.9,554.6l-13.2,7.9,8.1,13.5,13.2-7.9-8.1-13.5h0Z"
           id="path7" />
        <path
           class="cls-4"
           d="M670.1,623v20h-6v-20h6M671.1,622h-8v22h8v-22Z"
           id="path8" />
        <path
           class="cls-4"
           d="M663.1,630v13h-3v-13h3M664.1,629h-5v15h5v-15Z"
           id="path9" />
        <path
           class="cls-4"
           d="M593.1,642v12h-13v-12h13M594.1,641h-15v14h15v-14Z"
           id="path10" />
        <path
           class="cls-4"
           d="M531.1,607v13h-19.1v-13h19.1M532.1,606h-21.1v15h21.1v-15Z"
           id="path11" />
        <path
           class="cls-4"
           d="M593.1,660v115h-76v-15h62v-100h14M594.1,659h-16v100h-62v17h78v-117Z"
           id="path12" />
        <path
           class="cls-4"
           d="M593.1,660v115h-83v-22.9h61.1v-92.1h21.9M594.1,659h-24v92.1h-61v24.9h85v-24.9h0v-92.1Z"
           id="path13" />
        <path
           class="cls-4"
           d="M469.1,761v13h-13v-13h13M470.1,760h-15v15h15v-15Z"
           id="path14" />
        <path
           class="cls-4"
           d="M309.1,699v14.1h-14.1v-14.1h14.1M310.1,698h-16.1v16.1h16.1v-16.1Z"
           id="path15" />
        <path
           class="cls-4"
           d="M313.5,699c1.4,0,2.5,1.1,2.5,2.5s-1.1,2.5-2.5,2.5-2.5-1.1-2.5-2.5h0c0-1.4,1.1-2.5,2.5-2.5M313.5,698c-1.9,0-3.5,1.6-3.5,3.5s1.6,3.5,3.5,3.5,3.5-1.6,3.5-3.5h0c0-1.9-1.6-3.5-3.5-3.5h0Z"
           id="path16" />
        <path
           class="cls-4"
           d="M346.1,630v13h-13v-13h13M347.1,629h-15v15h15v-15Z"
           id="path17" />
        <path
           class="cls-4"
           d="M363.1,644v7h-30v-7h30M364.1,643h-32v9h32v-9Z"
           id="path18" />
        <path
           class="cls-4"
           d="M270.1,591v14h-14.1v-14h14.1M271.1,590h-16.1v16h16.1v-16Z"
           id="path19" />
        <path
           class="cls-4"
           d="M277.1,599v6h-6v-6h6M278.1,598h-8v8h8v-8Z"
           id="path20" />
        <path
           class="cls-4"
           d="M335.1,512.1c2.2,0,4,1.7,4,4s-1.7,4-4,4-4-1.7-4-4h0c0-2.2,1.8-3.9,4-4M335.1,511.1c-2.8,0-5,2.2-5,5s2.2,5,5,5,5-2.2,5-5h0c0-2.7-2.2-5-4.9-5h-.1Z"
           id="path21" />
        <path
           class="cls-4"
           d="M339.1,473v12h-14v-12h14M340.1,472h-16v14h16v-14Z"
           id="path22" />
        <path
           class="cls-4"
           d="M316.1,410v14h-37v-14h37M317.1,409h-39v16h39v-16Z"
           id="path23" />
        <path
           class="cls-4"
           d="M316.1,407v17h-37v-17h37M317.1,406h-39v19h39v-19Z"
           id="path24" />
        <path
           class="cls-4"
           d="M309.1,410v9h-23v-9h23M310.1,409h-25v11h25v-11Z"
           id="path25" />
        <path
           class="cls-4"
           d="M131.1,469v13h-13v-13h13M132.1,468h-15v15h15v-15Z"
           id="path26" />
        <path
           class="cls-4"
           d="M177.1,645v14h-13v-14h13M178.1,644h-15v16h15v-16Z"
           id="path27" />
        <path
           class="cls-4"
           d="M185.1,645v6h-7v-6h7M186.1,644h-9v8h9v-8Z"
           id="path28" />
        <polyline
           class="cls-1"
           points="101.5 551.4 101.5 590.5 116 590.5"
           id="polyline28" />
        <path
           class="cls-4"
           d="M154.1,360v14h-60v-14h60M155.1,359h-62v16h62v-16Z"
           id="path29" />
        <path
           class="cls-4"
           d="M154.1,375v14h-13v-14h13M155.1,374h-15v16h15v-16Z"
           id="path30" />
        <path
           class="cls-4"
           d="M85.1,284v13.1h-13v-13.1h13M86.1,283h-15v15.1h15v-15.1Z"
           id="path31" />
        <path
           class="cls-4"
           d="M47.1,345v44H2.1v-44h45M48.1,344H1.1v46h47v-46Z"
           id="path32" />
        <path
           class="cls-4"
           d="M8,331v13H2.1v-13h6M9.1,330H1.1v15h8v-15Z"
           id="path33" />
        <path
           class="cls-4"
           d="M246.1,730v13h-13v-13h13M247.1,729h-15v15h15v-15Z"
           id="path34" />
        <path
           class="cls-4"
           d="M462.1,547v12h-14v-12h14M463.1,546h-16v14h16v-14Z"
           id="path35" />
        <path
           class="cls-4"
           d="M369.1,376v67h-13v-67h13M370.1,375h-15v69h15v-69Z"
           id="path36" />
        <path
           class="cls-4"
           d="M446.1,288v1h-28v-1h28M447.1,287h-30v3h30v-3Z"
           id="path37" />
        <path
           class="cls-4"
           d="M469.1,345v37h-23v15h-28v-15h-23v-37h74M470.1,344h-76v39h23v15h30v-15h23v-39Z"
           id="path38" />
        <path
           class="cls-4"
           d="M508.1,430v12.1h-14v-12.1h14M509.1,429h-16v14.1h16v-14.1Z"
           id="path39" />
        <path
           class="cls-4"
           d="M508.2,422v7h-6.2v-7h6.2M509.2,421h-8.2v9h8.2v-9Z"
           id="path40" />
        <path
           class="cls-4"
           d="M531.1,421v15h-14v-15h14M532.1,420h-16v17h16v-17Z"
           id="path41" />
        <path
           class="cls-4"
           d="M454,607v22h-59.9v-22h59.9M455,606h-61.9v24h61.9v-24Z"
           id="path42" />
        <path
           class="cls-4"
           d="M448.1,614v18h-47.1v-18h47.1M449.1,613h-49.1v20h49.1v-20Z"
           id="path43" />
        <path
           class="cls-4"
           d="M200.1,360v29h-13v-29h13M201.1,359h-15v31h15v-31Z"
           id="path44" />
        <path
           class="cls-4"
           d="M200.1,345v14h-13v-14h13M201.1,344h-15v16h15v-16Z"
           id="path45" />
        <path
           class="cls-4"
           d="M170.1,245v14.1h-14.1v-14.1h14.1M171.1,244h-16.1v16.1h16.1v-16.1Z"
           id="path46" />
        <path
           class="cls-4"
           d="M586.1,49v22h-5v-22h5M587.1,48h-7v24h7v-24Z"
           id="path47" />
        <path
           class="cls-4"
           d="M483,52.8v20.2h-13v-7.6l13-12.6M484,50.4l-15,14.5v9h15v-23.5Z"
           id="path48" />
        <path
           class="cls-4"
           d="M463.1,244v7h-62v-7h62M464.1,243h-64v9h64v-9Z"
           id="path49" />
        <path
           class="cls-4"
           d="M607.9,303v13h-13v-13h13M608.9,302h-15v15h15v-15Z"
           id="path50" />
        <path
           class="cls-4"
           d="M599.8,296v6h-4.9v-6h4.9M600.8,295h-6.9v8h6.9v-8Z"
           id="path51" />
        <path
           class="cls-4"
           d="M739.1,237v13h-12v-13h12M740.1,236h-14v15h14v-15Z"
           id="path52" />
        <path
           class="cls-4"
           d="M854.1,300v12h-13v-12h13M855.1,299h-15v14h15v-14Z"
           id="path53" />
        <path
           class="cls-4"
           d="M854.1,310v2h-13v-2h13M855.1,309h-15v4h15v-4Z"
           id="path54" />
        <path
           class="cls-4"
           d="M785.1,422v13.9h-15v13.1h-14v-27h29M786.1,421h-31v29h16v-13.1h15v-15.9Z"
           id="path55" />
        <path
           class="cls-4"
           d="M706.1,422v11h-11.1v-11h11.1M707.1,421h-13.1v13h13.1v-13Z"
           id="path56" />
        <path
           class="cls-4"
           d="M796.1,294v4h-29v-4h29M797.1,293h-31v6h31v-6Z"
           id="path57" />
        <path
           class="cls-4"
           d="M818.1,295v2h-21v-2h21M819.1,294h-23v4h23v-4Z"
           id="path58" />
        <path
           class="cls-4"
           d="M792.4,344.1l4.1,16-58.5,14.9-4.1-16,58.5-14.9M793.1,342.9l-60.5,15.4,4.6,17.9,60.5-15.4-4.6-17.9h0Z"
           id="path59" />
        <line
           class="cls-1"
           x1="277.6"
           y1="525.3"
           x2="294.9"
           y2="515.2"
           id="line59" />
        <line
           class="cls-1"
           x1="317.6"
           y1="524.1"
           x2="301.4"
           y2="533.7"
           id="line60" />
        <line
           class="cls-1"
           x1="124"
           y1="643.6"
           x2="140.4"
           y2="659.7"
           id="line61" />
      </g>
      <g
         id="Outlines">
        <path
           class="cls-4"
           d="M809.1,230v30h14v2h-37v-32h23M810.1,229h-25v34h39.1v-4h-14.1v-30h0Z"
           id="path61" />
        <path
           class="cls-4"
           d="M542.1,1l44,33v72h54v77h145v80h54v30h-21v6h36.9v136.9h-29.9v70.1h30v62h-70l-88,53h-26v23h-70v-37h-7v48h-31v5h30v66.3h0v48.7h-138v62h54v77l-60,38h-103l-52-38v-131h-154v-38h23v-47h-8v30.9H32.1v-85.9h4v-22h31v-63h-6v-75H20.1v-93H1.1v-107h154v-39h108v-61h115v-79h34v3h58v-42L540.1,1h2M294.1,306h46v18h16v-11l24-23h21v-46h62v46h22l24,23v40h15v-16h70v-116h-47v-69h-84.1v72.9h-168.9v81.1M640.1,252h54v-15h45v62h27v-6h-10v-71h-116v30M524.1,397v-15h-15v61h-70v9h24v108h39v69h-54v4h53v65h-6v4h14v-21l22-21h9v-5h-29v-91h27v-5h-6v-77h-7v-8h-8v-53h76v23h9v-23h30v16h62v-16h-38v-107h38v-31h-54v114h-116M178.1,430h77v-20h23v-4h-38v-34h0v-12h-6v-40h6v-37h-39v107h-23v40M263.1,372h77v34h-23v4h23v111h-23v9h23v30h46v-62h-31v-46h53v-9h-52v-91h-16v4h-17v11h-60v5M708.1,499v-32h-76v4h-30v-11h-9v22h-23v66l-10,11h-1.1v5h35.1v10h7v-37h39v22h57l88-53h1v-70.1h-16.1v63h-61.9M101.1,552h39v54h-39v38h39v16h15v7h8v-23h69v85h62v-31h34v-7h-73v-161h23v-9h-23v-63h-77v25h-77v69M347.1,644h16v54h31v31h61v-27h22v-4h-7v-31h-92v-34h22.9v-4h-53.9v15M324.1,837h104v-70h-104v70M542.4,0h-2.8l-.3.3-70,64-.3.3v41.4h-56v-3h-36v79h-115v61h-108v39H0v109h19v93h41v75h6v60.9h-31v22h-4v88h125.1v-31h5.9v44.9h-23v40.1h154v130.4l.4.3,52,38,.3.2h103.6l.3-.2,60-38.1.5-.3v-78.6h-54v-59.8h138v-117h-29.9v-2.9h31v-48.1h4.9v37h72.1v-23h25.2l.2-.2,87.8-52.8h70.7v-64h-30v-68h30v-139h-37v-4h21v-32h-54v-80h-145v-77h-54V33.5l-.4-.3L542.6.2l-.2-.2h0ZM464.1,153.1h82v69h47v114h-70v16h-12.9v-39.4l-.3-.3-24-23-.3-.3h-21.4v-46h-64v46h-20.4l-.3.3-24,23-.3.3v10.4h-13.9v-17.9h-46v-79h169v-73h-.2ZM641.1,223.1h114v71h10v4h-25v-62h-47.1v15h-51.9v-27.9h0ZM641.1,284.1h51.9v29h-38v109.1h38v13.9h-59.9v-16h-32v23h-7v-23h-78v55h8v8h7v77h6v3h-27v93.1h29v2.9h-8.4l-.3.3-22,21-.3.3v20.4h-12v-2h6v-67h-53v-2h54v-71h-39v-108h-24v-6.9h70v-61h13v15h118v-114.1h0ZM202.1,284.1h37v35h-6v42.1h6v45.9h38v2h-23v20h-75v-38h23v-107h0ZM341.1,353.1h14v91h52v6.9h-53v48.1h31v60h-44v-30h-23v-6.9h23v-113.1h-23v-2h23v-36.1h-77v-2.9h60v-11h17v-4h0ZM771.1,437h14v68h-.2l-.2.2-87.8,52.8h-55.7v-22h-41.1v37h-4.9v-9.9h-35v-3h.5l.3-.3,10-11,.3-.3v-65.4h23v-22h6.9v11h32v-4h73.9v32h64.1v-63h0ZM179.1,459h75v63h23v7h-23v163h73v5h-34v31h-60v-85h-71.1v23h-5.9v-7h-15v-16h-39v-36h39v-56.1h-39v-66.9h77v-25h0ZM348.1,630h51.9v2h-22.9v36h92v31h7v1.9h-22v27h-59v-30.9h-31v-54h-16v-13ZM325.1,768h101.9v67.9h-101.9v-67.8h0Z"
           id="path62" />
      </g>
      <g
         id="Callouts_copy">
        <path
           class="cls-4"
           d="M425.2,371.8v-16c-.1-1.1.7-2.1,1.8-2.2h7.2c3.8,0,6.2,2,6.2,5.1s-1.6,4.1-3.8,4.4h0c2.7.2,4.8,2.4,4.8,5s-2.7,5.8-7.1,5.8h-6.9c-1.1,0-2.1-.7-2.1-1.8v-.4h0ZM432.6,362.1c2.3,0,3.6-1,3.6-2.7s-1.1-2.6-3.1-2.6h-3.5v5.3h3.1-.1ZM433.2,370.8c2.5,0,3.8-1,3.8-3s-1.4-2.9-3.9-2.9h-3.6v5.9h3.7Z"
           id="path166" />
        <path
           class="cls-4"
           d="M79.2,323.6c3.9,0,6.9,1.7,8.2,4.6.2.4.3.9.3,1.4,0,1-.8,1.9-1.8,1.9h-.2c-.9,0-1.6-.5-1.9-1.3-.8-1.9-2.6-3.1-4.7-3-3.3,0-5.3,2.7-5.3,7s2.1,7,5.3,7,3.9-1.2,4.6-3.1c.3-.9,1.1-1.4,2-1.4s1.8.6,1.9,1.6v.2c0,.6-.2,1.1-.4,1.6-1.4,2.9-4.4,4.6-8.2,4.6-5.9,0-9.6-4-9.6-10.6s3.7-10.5,9.8-10.5h0Z"
           id="path167" />
        <path
           class="cls-4"
           d="M833.2,353.3c-1.1,0-1.8-.6-2.2-1.9l-1.1-3.2h-7.4l-1.1,3.2c-.4,1.3-1,1.9-2.2,1.9s-2.1-.8-2.1-1.9h0c0-.6,0-1,.3-1.4l5.6-15.2c.5-1.8,2.4-2.8,4.2-2.3,1.1.3,2,1.2,2.3,2.3l5.6,15.2c.2.4.3.9.3,1.3,0,1.1-.9,2-2,2h-.2,0ZM829,344.9l-2.7-8.4h0l-2.7,8.4h5.5,0Z"
           id="path172" />
      </g>
    </g>
  </g>
</svg>
