<?xml version="1.0" encoding="UTF-8"?>
<svg xmlns="http://www.w3.org/2000/svg" version="1.1" viewBox="0 0 853.2 959.9">
  <defs>
    <style>
      .cls-1 {
        stroke: #656569;
      }

      .cls-1, .cls-2, .cls-3, .cls-4, .cls-5, .cls-6, .cls-7 {
        fill: none;
      }

      .cls-2, .cls-3, .cls-4, .cls-5, .cls-6, .cls-7 {
        stroke: #fff;
      }

      .cls-2, .cls-3, .cls-5, .cls-6, .cls-7 {
        stroke-miterlimit: 10;
      }

      .cls-3 {
        stroke-dasharray: 0 0 3.8 2.8;
      }

      .cls-8 {
        fill: #3d3d3d;
      }

      .cls-9 {
        fill: #7e7f7e;
      }

      .cls-10 {
        fill: #fff;
      }

      .cls-4 {
        stroke-miterlimit: 10;
        stroke-width: 1px;
      }

      .cls-5 {
        stroke-dasharray: 0 0 4.2 3.2;
      }

      .cls-6 {
        stroke-dasharray: 0 0 4 3;
      }

      .cls-7 {
        stroke-dasharray: 0 0 3.4 2.5;
      }

      .cls-11 {
        fill: #535353;
      }
    </style>
  </defs>
  <!-- Generator: Adobe Illustrator 28.6.0, SVG Export Plug-In . SVG Version: 1.2.0 Build 709)  -->
  <g>
    <g id="Layer_1">
      <g id="Body_Merge">
        <path class="cls-8" d="M791.5,418.8v-14.9l57-20v-9.6h0v-146.5h-117.9v-11h4v-95.7l-19,6h-7l-16.9-2-53.1-21.9-9.9-11-17,6h-4l-10.1,9h-9l-12-9h-38v-30.6l15-18.3v-8h0V2.8h-129.1v38.3l21,27v28h-28l-9,19v14l-9,9-16,5v3l-1,2-23,14.2v22.9h-56l-17,8.7h-12l-15-10.7h-9v-1h-47.9l-6-5h-4l-10,6h-6l-28-39h-2l-19,10.9v37.8H32.3l-16.9,27.2v74.8h17l37,31v34.3l-37.5,30.7H5.4v136h0v79h120v24h49v-16h80v40h59v58h51.9v76h137v-29h5v41.4h-138v34.7h107v122.3h101v-125.3h52v-32h-77v-38h5v25h267v-26h1v-1h2v-101.7h-3v-2.3h0v-16.1h24v-221h-57,.2ZM592.4,444.8v195h49v11h-58v-104.6h-93v-26.4h-24v-82h27v3h90.1v-101h74.9v52h27v53h-93ZM503.4,338.2v-26.4h33v74.1h-33v-47.6h0ZM699.5,227.8h-106.1v62.3h-9v-73.4h115v11h0ZM452.4,259.8v78.4h-30.9v117.9h-5.1v-122.3h27v-69h-65.6l-44,21.4h-3.5v-26.4h122.1ZM287.5,408.8h-50v-70h-63v-5h177v5h-12v70h-52ZM395.5,408.8v-70h-27v-5h32v122.3h-4.9v-47.2h-.1ZM315.4,308.8v6h-168v24h-26v-81h183v51h11ZM139.4,448.7h148v26.3h107v88.7h32v32h71v76h-26v5h-76v-98.9h-33v-51.1h-223v-78.1h0ZM358.4,691.2v-66.3h-56.4l-8.5,8.3h-6v-24.3h78v68h0v14.3h-7.1ZM778.4,655.8h-88v-16.1h88v16.1ZM690.4,607.8h-62v-54.1h75v54.1h-13Z"/>
      </g>
      <g id="Lines_under_map">
        <rect class="cls-1" x="201.7" y="258.3" width="27.8" height="19.3"/>
        <rect class="cls-1" x="201.7" y="277.6" width="27.8" height="17.7"/>
        <rect class="cls-1" x="201.7" y="295.4" width="27.8" height="18.9"/>
        <path class="cls-1" d="M229.5,258.3l-27.8,19.3"/>
        <path class="cls-1" d="M229.5,277.6l-27.8,17.7"/>
        <path class="cls-1" d="M229.5,295.4l-27.8,18.5"/>
        <path class="cls-1" d="M229.5,277.6l-27.8-19.3"/>
        <path class="cls-1" d="M229.5,295.4l-27.8-17.7"/>
        <path class="cls-1" d="M229.5,313.9l-27.8-18.5"/>
      </g>
      <g id="Bombsite">
        <polygon class="cls-11" points="91.5 462.8 91.5 325.8 119.4 325.8 119.4 340.6 172.5 340.6 174.5 340.6 208.5 340.6 208.5 447.1 137.5 447.1 137.5 462.8 91.5 462.8"/>
        <path class="cls-11" d="M117.4,327.8v14.8h89.1v102.5h-71v15.7h-42.1v-133h24M121.4,323.8h-32v141h50.1v-15.7h71v-110.5h-89.1v-14.8h0Z"/>
        <rect class="cls-11" x="660.5" y="229.6" width="185.9" height="98.2"/>
        <path class="cls-11" d="M844.3,231.6v94.2h-181.9v-94.2h181.9M848.3,227.6h-189.9v102.2h189.9v-102.2h0Z"/>
        <rect class="cls-9" x="180.9" y="378.3" width="7" height="9"/>
        <rect class="cls-9" x="742" y="301.3" width="21" height="10"/>
        <polyline class="cls-9" points="806.8 270.4 820.9 271.3 820 285.5 805.8 284.5 806.8 270.4"/>
        <rect class="cls-9" x="823" y="316.3" width="25.9" height="14"/>
      </g>
      <g id="Hell_lines">
        <polyline class="cls-6" points="419.9 483.4 397.2 483.4 397.2 475"/>
        <line class="cls-2" x1="414.6" y1="456" x2="412.6" y2="456"/>
        <line class="cls-7" x1="410.1" y1="456" x2="405.5" y2="456"/>
        <line class="cls-2" x1="404.2" y1="456" x2="402.2" y2="456"/>
        <line class="cls-2" x1="117.3" y1="407.5" x2="117.3" y2="405.5"/>
        <line class="cls-3" x1="117.3" y1="402.7" x2="117.3" y2="397.5"/>
        <polyline class="cls-2" points="117.3 396.1 117.3 394.1 119.3 394.1"/>
        <line class="cls-5" x1="122.5" y1="394.1" x2="179.9" y2="394.1"/>
        <polyline class="cls-2" points="181.4 394.1 183.4 394.1 183.4 396.1"/>
        <line class="cls-3" x1="183.4" y1="398.9" x2="183.4" y2="404.1"/>
        <line class="cls-2" x1="183.4" y1="405.5" x2="183.4" y2="407.5"/>
      </g>
      <g id="Shapes">
        <rect class="cls-2" x="645" y="444.3" width="14" height="19"/>
        <rect class="cls-2" x="615.1" y="460.3" width="5.9" height="7"/>
        <rect class="cls-2" x="607" y="460.3" width="8" height="7"/>
        <rect class="cls-2" x="591.9" y="444.3" width="15" height="25"/>
        <rect class="cls-2" x="607" y="444.3" width="14" height="16"/>
        <path class="cls-10" d="M779.5,475.8v24h-86v-24h86M780.5,474.8h-88v26h88v-26h0Z"/>
        <path class="cls-10" d="M742.5,392.8v51h-57.1v-51h57.1M743.5,391.8h-59.1v53h59.1v-53h0Z"/>
        <path class="cls-10" d="M731.5,415.8v15h-46.1v-15h46.1M732.5,414.8h-48.1v17h48.1v-17h0Z"/>
        <path class="cls-10" d="M728.5,406.8v8h-43.1v-8h43.1M729.5,405.8h-45.1v10h45.1v-10h0Z"/>
        <rect class="cls-2" x="707" y="341.3" width="73" height="26"/>
        <rect class="cls-2" x="823" y="316.3" width="25.9" height="14"/>
        <rect class="cls-2" x="742" y="301.3" width="21" height="10"/>
        <rect class="cls-2" x="688" y="273.3" width="88" height="28"/>
        <polygon class="cls-2" points="658 296.3 642 296.3 642 340.3 658 340.3 658 296.3"/>
        <rect class="cls-2" x="621" y="650.3" width="12" height="7"/>
        <rect class="cls-2" x="576" y="633.3" width="8" height="8"/>
        <rect class="cls-2" x="570" y="619.3" width="14" height="14"/>
        <rect class="cls-2" x="561.9" y="619.3" width="8" height="6"/>
        <rect class="cls-2" x="558" y="545.7" width="26" height="73.7"/>
        <rect class="cls-2" x="416" y="676.3" width="8" height="6"/>
        <rect class="cls-2" x="312.9" y="654.3" width="14" height="12.9"/>
        <rect class="cls-2" x="289" y="526.3" width="74.1" height="51.1"/>
        <rect class="cls-2" x="192" y="577.3" width="14" height="14.8"/>
        <rect class="cls-2" x="205.9" y="577.3" width="6.1" height="8"/>
        <rect class="cls-2" x="4.9" y="585.3" width="8.1" height="9"/>
        <rect class="cls-2" x="4.9" y="594.3" width="16.1" height="12"/>
        <rect class="cls-2" x="80" y="490.3" width="15" height="14"/>
        <rect class="cls-2" x="51" y="490.3" width="29" height="73"/>
        <rect class="cls-2" x="180.9" y="378.3" width="7" height="9"/>
        <polyline class="cls-2" points="174.9 335.8 174.9 378.3 194.9 378.3 194.9 408.3 106.9 408.3 106.9 378.3 154.9 378.3 154.9 340.3 154.9 338.3 147.2 338.3"/>
        <rect class="cls-2" x="372.9" y="328.3" width="8" height="6"/>
        <rect class="cls-2" x="274" y="434.3" width="13" height="14.9"/>
        <rect class="cls-2" x="488" y="776.3" width="15" height="12"/>
        <rect class="cls-2" x="458.1" y="785.3" width="29.9" height="3"/>
        <rect class="cls-2" x="458.1" y="759.3" width="29.9" height="26"/>
        <rect class="cls-2" x="488" y="759.3" width="15" height="17"/>
        <rect class="cls-2" x="436.9" y="759.3" width="21" height="14.8"/>
        <rect class="cls-2" x="436.9" y="774.3" width="21" height="14"/>
        <rect class="cls-2" x="556.9" y="764.3" width="21.9" height="23.1"/>
        <rect class="cls-2" x="596" y="770.3" width="26" height="17"/>
        <rect class="cls-2" x="578.9" y="770.3" width="17.1" height="17"/>
        <rect class="cls-2" x="578.9" y="755.3" width="15.1" height="15"/>
        <rect class="cls-2" x="593.9" y="756.3" width="19" height="14"/>
        <rect class="cls-2" x="613" y="759.3" width="9" height="11"/>
        <polyline class="cls-2" points="567 763.8 567 758.2 561.9 756.2 559.9 750.3 553 750.3 553 756.7"/>
        <rect class="cls-10" x="552.5" y="690.8" width="1" height="71.3"/>
        <rect class="cls-10" x="506.4" y="691.8" width="1" height="67.2"/>
        <rect class="cls-2" x="252" y="314.3" width="6" height="6"/>
        <polyline class="cls-2" points="330.9 241.7 330.9 253.3 303 253.3 303 190.3 330.9 190.3 330.9 195.9"/>
        <line class="cls-2" x1="330.9" y1="184.9" x2="330.9" y2="189.9"/>
        <line class="cls-2" x1="330.9" y1="260.1" x2="330.9" y2="253"/>
        <rect class="cls-10" x="703" y="606.8" width="97.4" height="1"/>
        <rect class="cls-10" x="715.5" y="582.8" width="133.1" height="1"/>
        <polygon class="cls-10" points="826.1 444.8 825.5 444.8 792.5 444.8 792.5 418.8 791.5 418.8 791.5 444.8 791.5 445.3 791.5 445.8 825.5 445.8 825.5 530.8 780.5 530.8 780.5 500.3 778.5 500.3 778.5 530.8 776.5 530.8 776 530.8 775.5 530.8 775.5 554.8 703.4 554.8 703.4 555.8 776.5 555.8 776.5 555.3 776.5 554.8 776.5 531.8 826.5 531.8 826.5 531.3 826.5 530.8 826.5 444.8 826.1 444.8"/>
        <path class="cls-10" d="M775.5,541.8v13h-13v-13h13M776.5,540.8h-15v15h15v-15h0Z"/>
        <circle class="cls-2" cx="758" cy="551.4" r="3.1"/>
        <circle class="cls-2" cx="771.9" cy="537.4" r="3.1"/>
        <circle class="cls-2" cx="821.9" cy="527.2" r="3.1"/>
        <circle class="cls-2" cx="821.9" cy="520.1" r="3.1"/>
        <circle class="cls-2" cx="594.6" cy="471.9" r="1.7"/>
        <circle class="cls-2" cx="599.1" cy="471.9" r="1.7"/>
        <circle class="cls-2" cx="594.6" cy="476.3" r="1.7"/>
        <circle class="cls-2" cx="642.2" cy="447" r="1.7"/>
        <circle class="cls-2" cx="623.6" cy="447.1" r="1.7"/>
        <circle class="cls-2" cx="623.6" cy="451.6" r="1.7"/>
        <polyline class="cls-2" points="822.9 330.3 790.9 330.3 790.9 367.3 779.8 367.3 694 367.3 694 332.9"/>
        <line class="cls-2" x1="643.9" y1="296.3" x2="627.5" y2="296.3"/>
        <rect class="cls-10" x="593.2" y="247.8" width="255.5" height="1"/>
        <rect class="cls-4" x="806" y="270.7" width="14.2" height="14.2" transform="translate(483.4 1071.3) rotate(-86.3)"/>
        <polyline class="cls-2" points="181 183 181 224.2 243.9 224.2 243.9 182.1"/>
        <line class="cls-2" x1="303" y1="257.9" x2="303" y2="184.9"/>
        <line class="cls-2" x1="358.9" y1="213.8" x2="358.9" y2="184.9"/>
        <polyline class="cls-2" points="408.1 237.3 358.9 237.3 358.9 234.2"/>
        <polyline class="cls-2" points="444 97.1 444 111.4 414 111.4 414 102.2"/>
        <rect class="cls-2" x="426.9" y="95.6" width="17" height="15.8"/>
        <rect class="cls-2" x="540" y="97.5" width="30" height="13.8"/>
        <rect class="cls-2" x="555" y="103.3" width="15" height="8"/>
        <rect class="cls-2" x="555" y="97.5" width="9" height="5.8"/>
        <line class="cls-2" x1="540" y1="110.6" x2="540" y2="156.8"/>
        <line class="cls-2" x1="444" y1="110.5" x2="444" y2="156.8"/>
        <line class="cls-2" x1="358.9" y1="232.8" x2="358.9" y2="238.4"/>
        <rect class="cls-2" x="837" y="626.3" width="12" height="14"/>
        <rect class="cls-2" x="844" y="619.3" width="5" height="7"/>
        <circle class="cls-2" cx="833.2" cy="636.2" r="3.1"/>
        <rect class="cls-2" x="451.9" y="312.3" width="52.1" height="25.3"/>
        <rect class="cls-2" x="481" y="295.3" width="33" height="17"/>
        <rect class="cls-2" x="569" y="426.3" width="15" height="15"/>
        <rect class="cls-2" x="554" y="426.3" width="15" height="15"/>
        <polyline class="cls-2" points="396 455.5 396 541.3 420.9 541.3 420.9 455.5"/>
        <polygon class="cls-10" points="341.3 281.8 344.5 288 344.5 288 345 289 378.7 271.8 435.5 271.8 435.5 311.1 427.2 332.9 428 333.2 436.4 311.3 436.4 311.3 436.4 270.8 435.9 270.8 435.5 270.8 378.4 270.8 378.4 270.8 378.4 270.8 345.5 287.5 342.3 281.3 341.3 281.8"/>
        <rect class="cls-2" x="731" y="167.3" width="4" height="6"/>
        <rect class="cls-2" x="722" y="173.3" width="13" height="16"/>
        <line class="cls-2" x1="721.8" y1="189.3" x2="614.5" y2="189.3"/>
        <polyline class="cls-2" points="599.4 105 602.9 109.8 612.1 106.8 613 102.8 608 97.6"/>
        <polyline class="cls-2" points="613 102.8 614.9 101.4 615.8 97.4 621 107.5 625.5 108.6 630.8 107.8 634.9 105.9 636.8 100.8"/>
        <path class="cls-2" d="M654.8,109.3l9.2,9.4h3.2l2.3-2.1c.3-.2.7,0,.6.3l-1,7.6,3.6,1.8,3.2,1.5,2-1.1,2-2.6,2.2-3.5"/>
        <polyline class="cls-2" points="696 125.2 698.7 131 702.8 133 708.6 133.8 712.3 133 713.9 130.4 713.9 127.1"/>
        <path class="cls-2" d="M711.8,133.1l3.8,2.1,2.1,4.2s2.9,1.3,3,1.4,3.5,1.8,3.5,1.8l2.5-.9,4.1-1.9,4.1-2.9"/>
        <polyline class="cls-2" points="126.8 187.6 141.1 154.4 141.1 151.4 138.8 148.5"/>
        <polyline class="cls-2" points="127.4 166.8 132 166.3 134.9 164.5 136.4 161.6 135.4 156.1 132.2 152.3"/>
        <polyline class="cls-2" points="135.7 157.5 138.7 155 141.1 151.3"/>
        <polyline class="cls-2" points="152.1 149.2 150 151.7 146.8 153.5 143.6 153.5 141.1 152.3"/>
        <polyline class="cls-2" points="15.1 230.2 19.8 227.9 21.4 224.8 21 218.4 20.4 215.9 18.2 214.4"/>
        <line class="cls-2" x1="694" y1="329.8" x2="694" y2="333.4"/>
        <rect class="cls-10" x="289.3" y="552.8" width="73.5" height="1"/>
        <path class="cls-10" d="M258.5,526.8v14h-14v-14h14M259.5,525.8h-16v16h16v-16h0Z"/>
        <path class="cls-10" d="M213.4,553.8v23h-72v-23h72M214.4,552.8h-74v25h74v-25h0Z"/>
        <rect class="cls-10" x="330.5" y="207.8" width="1" height="21"/>
        <line class="cls-2" x1="481" y1="270.8" x2="481" y2="295.3"/>
        <rect class="cls-10" x="359.2" y="211.8" width="12.2" height="1"/>
        <rect class="cls-10" x="359.2" y="233.8" width="12.2" height="1"/>
        <polygon class="cls-10" points="374.5 338.2 374.5 352.8 340.5 352.8 340.5 338.8 339.5 338.8 339.5 352.8 339.5 353.1 339.5 353.8 375.5 353.8 375.5 353.3 375.5 352.8 375.5 338.2 374.5 338.2"/>
        <rect class="cls-10" x="351.2" y="336.8" width="17.4" height="1"/>
      </g>
      <g id="Outlines">
        <path class="cls-10" d="M553.5,2.8v38.3h0v8l-15,18.3v30.6h38l12,9h9l10.1-9h4l17-6,9.9,11,53.1,21.9,16.9,2h7l19-6v95.7h-4v11h118v146.5h0v9.6l-57,20v14.9h57v221h-24v16.1h0v2.3h3v101.7h-2v1h-1v26h-267v-25h-5v38h77v32h-52v125.3h-101v-122.3h-107v-34.7h138v-41.4h-5v29h-137v-76h-51.9v-58h-59v-40h-80v16h-49v-24H5.4v-79h0v-136h26.5l37.5-30.7v-34.3l-37-31H15.4v-74.8l16.9-27.2h95.1v-37.8l19-10.9h2l28,39h6l10-6h4l6,5h47.9v1h9l15,10.7h12l17-8.7h56v-22.9l23-14.2,1-2v-3l16-5,9-9v-14l9-19h28v-28l-21-27V2.8h129.1M584.4,290.2h9v-62.3h106.1v-11h-115v73.4M121.4,338.8h26v-24h168v-6h-10.9v-51H121.4v81M330.4,286.2h3.5l44-21.4h65.6v69h-27v122.3h5.1v-117.9h30.9v-78.4h-122v26.4M503.4,385.8h33v-74.1h-33v74.1M368.4,338.8h27v117.3h4.9v-122.3h-32v5M174.4,338.8h63v70h102v-70h12v-5h-177v5M493.4,440.8v-3h-27v82h24v26.4h93v104.6h58v-11h-49v-195h93v-53h-27v-52h-74.9v101h-90.1M139.4,526.8h223v51.1h33v98.9h76v-5h26v-76h-71v-32h-32v-88.7h-107v-26.3h-148v78.1M628.4,607.8h75v-54.1h-75v54.1M287.4,633.1h6l8.5-8.3h56.4v66.3h7v-14.3h0v-68h-78v24.3M690.4,655.8h88v-16.1h-88v16.1M554.5,1.8h-131.2v39.7l.2.3,20.8,26.7v26.6h-27.6l-.3.6-9,19v.2c-.1,0-.1,13.8-.1,13.8l-8.5,8.5-15.8,4.9-.7.2v3.5l-.8,1.5-22.7,14-.5.3v22.4h-55.4c0,.1-16.8,8.7-16.8,8.7h-11.4l-14.8-10.5-.3-.2h-8.3v-1h-48.6l-5.7-4.8-.3-.2h-4.9c0,.1-9.8,6-9.8,6h-5.2l-27.7-38.6-.3-.4h-3c0,.1-19,11.1-19,11.1l-.5.3v37.3H31.7l-.3.5-16.9,27.2-.2.2v76.1h17.7l36.3,30.4v33.3l-36.8,30.1H4.4v217.1h120v24h51.1v-16h77.9v40h59v58h51.9v76h139.1v-29h2.9v39.3h-138v36.8h107v122.3h103.1v-125.3h52v-34.1h-77v-36h2.9v25h269.1v-26h1v-1h2v-103.8h-3v-2.3h0v-14h24v-223h-57v-13.1l56.2-19.8.7-.2v-11.3h0v-146.5h-117.9v-8.9h4v-98.2l-1.4.4-18.8,5.9h-6.8l-16.7-2-52.8-21.8-9.8-10.8-.5-.5-.7.2-16.8,5.9h-4.2l-.3.3-9.8,8.8h-8.2l-11.7-8.8-.3-.2h-37.3v-29.2l14.7-18,.2-.3V1.6h0l.3.2ZM585.5,217.8h112.9v8.9h-106v62.3h-6.9v-71.3h0ZM122.4,258.8h180.9v51h10.9v4h-168v24h-23.9v-78.9h.1ZM331.4,260.8h119.9v76.3h-30.9v117.9h-3v-120.2h27v-71.1h-67.1c0,.1-43.8,21.4-43.8,21.4h-2.2v-24.3h.1ZM504.4,312.8h30.9v72h-30.9v-72h0ZM369.5,334.9h29.9v120.2h-2.8v-117.3h-27v-2.9h-.1ZM175.4,334.9h174.9v2.9h-12v70h-99.9v-70h-63v-2.9h0ZM584.6,340.8h72.8v52h27v50.9h-93v197h49v9h-55.9v-104.6h-93v-26.4h-24v-79.9h24.9v3h92.2v-101h0ZM140.5,449.8h145.9v26.3h107v88.7h32v32h71v73.9h-26v5h-73.9v-98.9h-33v-51.1h-223v-76h0ZM629.5,554.8h72.9v52h-72.9v-52h0ZM288.5,609.8h75.9v80.3h-4.9v-66.3h-57.9l-.3.3-8.2,8h-4.5v-22.2h-.1ZM691.4,640.8h85.9v14h-85.9v-14h0Z"/>
      </g>
      <g id="Callouts_copy">
        <path class="cls-10" d="M480.6,913.7c0-.2,0-.4.1-.6l2.5-6.8c.3-.7.7-1.1,1.4-1.1s1.2.3,1.5,1.1l2.5,6.8c0,.2.1.4.1.6,0,.5-.4.9-1,.9s-.8-.2-1-.8l-.5-1.5h-3.3l-.5,1.4c-.2.6-.5.9-1,.9s-1-.3-1-.9h.2ZM485.9,910.8l-1.2-3.8h0l-1.2,3.8h2.4Z"/>
        <path class="cls-10" d="M489.8,909h-.4c-.4,0-.7-.3-.7-.7s.3-.7.7-.7h.4v-.8c0-.6.4-1,.9-1s.9.4.9,1v.8h.6c.4,0,.7.3.7.7s-.3.7-.7.7h-.6v3.3c0,.5.2.7.6.7h.1c.5,0,.7.2.7.7s-.5.8-1.3.8h0c-1.2,0-1.9-.6-1.9-1.8v-3.7h0Z"/>
        <path class="cls-10" d="M494.5,909h-.4c-.4,0-.7-.3-.7-.7s.3-.7.7-.7h.4v-.8c0-.6.4-1,.9-1s.9.4.9,1v.8h.6c.4,0,.7.3.7.7s-.3.7-.7.7h-.6v3.3c0,.5.2.7.6.7h.1c.5,0,.7.2.7.7s-.5.8-1.3.8h0c-1.2,0-1.9-.6-1.9-1.8v-3.7h0Z"/>
        <path class="cls-10" d="M498.3,912.5c0-1.2,1-2,2.6-2.1h1.7v-.5c0-.6-.4-1-1.1-1s-.9.2-1.3.7c-.2.2-.4.3-.7.3-.5,0-.8-.3-.8-.7s0-.3.1-.4c.3-.8,1.4-1.3,2.8-1.3s2.9.9,2.9,2.3v3.9c0,.6-.4.9-.9.9s-.9-.3-.9-.8v-.3h0c-.4.7-1.2,1.2-2.1,1.2-1.3,0-2.3-.8-2.3-2.1h0ZM502.6,912v-.5h-1.4c-.7,0-1.1.5-1.1.9s.4.8,1,.8,1.5-.5,1.5-1.3h0Z"/>
        <path class="cls-10" d="M505.4,911c0-2.2,1.3-3.5,3.3-3.5s2.5.7,2.9,1.6c0,.2.1.3.1.5,0,.5-.4.7-.8.7s-.6-.2-.8-.5c-.3-.6-.8-.9-1.3-.9-.9,0-1.5.8-1.5,2.1s.6,2.1,1.5,2.1,1-.3,1.3-.8c.2-.4.5-.5.8-.5s.8.3.8.7,0,.3-.1.5c-.4.9-1.6,1.6-2.9,1.6-2,0-3.4-1.3-3.4-3.5h.1Z"/>
        <path class="cls-10" d="M512.8,913.6v-7.5c0-.6.4-1,.9-1s.9.3.9,1v4.2h0l2.5-2.5c.2-.3.5-.4.7-.4.5,0,.8.3.8.8s0,.5-.3.7l-1.7,1.6,1.9,2.4c.2.3.3.4.3.7,0,.5-.4.8-.9.8s-.6,0-.9-.6l-1.8-2.3-.6.5v1.4c0,.6-.4,1-.9,1s-.9-.3-.9-1h0v.2Z"/>
        <path class="cls-10" d="M519.2,911.1c0-2.2,1.3-3.6,3.3-3.6s3.2,1.3,3.2,3.2-.3.8-.8.8h-3.9c0,1.1.6,1.8,1.5,1.8s1.1-.2,1.6-.8c.2-.2.4-.3.6-.3.4,0,.7.2.7.7s0,.3,0,.5c-.5.8-1.5,1.3-2.8,1.3-2.1,0-3.4-1.3-3.4-3.5h.1ZM523.9,910.3c0-.9-.6-1.5-1.4-1.5s-1.4.6-1.5,1.5h2.9Z"/>
        <path class="cls-10" d="M526.6,913.6v-5.2c0-.6.4-.9.9-.9s.9.3.9.9v.4h0c.2-.8.7-1.3,1.4-1.3s.4,0,.6.2c.2,0,.3.4.3.7s0,.5-.3.7-.4.2-.8.2c-.8,0-1.1.5-1.1,1.3v3c0,.6-.4,1-.9,1s-.9-.3-.9-1h-.1Z"/>
        <path class="cls-10" d="M534,912.8v-.5c0-.5.3-.8.8-.8s.7.2.9.6c.3.7,1,1,1.9,1s1.7-.5,1.7-1.2-.4-1-1.6-1.2l-1-.2c-1.8-.4-2.7-1.2-2.7-2.6s1.5-2.8,3.5-2.8,2.9.7,3.3,1.9v.4c0,.5-.3.8-.8.8s-.7-.2-.9-.6c-.3-.7-.9-1-1.7-1s-1.6.4-1.6,1.1.4.9,1.5,1.1l1,.2c1.9.4,2.8,1.2,2.8,2.6s-1.4,2.9-3.7,2.9-3.1-.8-3.5-1.8h0Z"/>
        <path class="cls-10" d="M542.1,915.9v-7.5c0-.6.4-1,.9-1s.9.3.9,1v.4h0c.4-.8,1.1-1.3,2.1-1.3,1.7,0,2.8,1.3,2.8,3.5s-1,3.5-2.8,3.5-1.8-.5-2.1-1.2h0v2.6c0,.6-.4,1-.9,1s-.9-.3-.9-1h0ZM547,911c0-1.2-.6-2-1.5-2s-1.5.8-1.5,2,.6,2,1.5,2,1.5-.8,1.5-2Z"/>
        <path class="cls-10" d="M549.6,912.5c0-1.2,1-2,2.7-2.1h1.7v-.5c0-.6-.4-1-1.1-1s-.9.2-1.3.7c-.2.2-.4.3-.7.3-.5,0-.8-.3-.8-.7v-.4c.3-.8,1.4-1.3,2.8-1.3s2.9.9,2.9,2.3v3.9c0,.6-.4.9-.9.9s-.8-.3-.9-.8v-.3h0c-.4.7-1.2,1.2-2.1,1.2-1.3,0-2.3-.8-2.3-2.1h0ZM553.9,912v-.5h-1.4c-.7,0-1.1.5-1.1.9s.4.8,1,.8,1.5-.5,1.5-1.3h0Z"/>
        <path class="cls-10" d="M558,913.6l-1.4-4.7v-.6c0-.5.4-.8.9-.8s.8.3.9.8l1,4.4h0l1-4.3c0-.5.5-.8,1-.8s.9.3,1,.8l1.1,4.3h0l1-4.4c0-.5.4-.8.9-.8s.9.3.9.8v.6l-1.4,4.8c-.2.7-.5,1-1.2,1s-1-.3-1.2-1l-1-4h0l-1,4c-.2.7-.5,1-1.2,1s-1-.3-1.2-1h0Z"/>
        <path class="cls-10" d="M567.2,913.6v-5.2c0-.6.3-.9.9-.9s.9.4.9.9v.4h0c.4-.8,1-1.3,2.1-1.3s2.4,1,2.4,2.5v3.5c0,.6-.4,1-.9,1s-.9-.3-.9-1v-3.2c0-.9-.4-1.4-1.2-1.4s-1.4.6-1.4,1.5v3.1c0,.6-.4,1-.9,1s-.9-.3-.9-1h0Z"/>
        <path class="cls-10" d="M439.8,26.6v-7.2c0-.6.4-1,1-1h2.5c2.8,0,4.4,1.6,4.4,4.5s-1.6,4.6-4.4,4.6h-2.5c-.6,0-1-.4-1-1h0ZM443.1,26c1.7,0,2.6-1,2.6-3s-1-3-2.6-3h-1.4v6h1.4Z"/>
        <path class="cls-10" d="M448.5,24.2c0-2.2,1.3-3.6,3.3-3.6s3.2,1.3,3.2,3.2-.3.8-.8.8h-3.9c0,1.1.6,1.8,1.5,1.8s1.1-.2,1.6-.8c.2-.2.4-.3.6-.3.4,0,.7.2.7.7s0,.3-.1.5c-.5.8-1.5,1.3-2.8,1.3-2.1,0-3.4-1.3-3.4-3.5h0ZM453.2,23.5c0-.9-.6-1.5-1.4-1.5s-1.4.6-1.5,1.5h2.9Z"/>
        <path class="cls-10" d="M456.5,26.7v-4.6h-.4c-.4,0-.7-.2-.7-.7s.3-.7.7-.7h.4v-.5c0-1.4.7-1.9,1.9-2,1,0,1.4.3,1.4.8s-.1.4-.4.5h-.4c-.6,0-.8.2-.8.8v.4h.8c.4,0,.7.2.7.7s-.3.7-.7.7h-.7v4.6c0,.6-.4,1-.9,1s-.9-.3-.9-1h0Z"/>
        <path class="cls-10" d="M460.2,24.2c0-2.2,1.3-3.6,3.3-3.6s3.2,1.3,3.2,3.2-.3.8-.8.8h-3.9c0,1.1.6,1.8,1.5,1.8s1.1-.2,1.6-.8c.2-.2.4-.3.6-.3.4,0,.7.2.7.7s0,.3-.1.5c-.5.8-1.5,1.3-2.8,1.3-2.1,0-3.4-1.3-3.4-3.5h0ZM464.9,23.5c0-.9-.6-1.5-1.4-1.5s-1.4.6-1.5,1.5h2.9Z"/>
        <path class="cls-10" d="M467.6,26.7v-5.2c0-.6.3-.9.9-.9s.9.4.9.9v.4h0c.4-.8,1-1.3,2.1-1.3s2.4,1,2.4,2.5v3.5c0,.6-.4,1-.9,1s-.9-.3-.9-1v-3.2c0-.9-.4-1.4-1.2-1.4s-1.4.6-1.4,1.5v3.1c0,.6-.4,1-.9,1s-.9-.3-.9-1h-.1Z"/>
        <path class="cls-10" d="M474.9,24.2c0-2.2,1.1-3.5,2.8-3.5s1.8.5,2.1,1.3h0v-2.7c0-.6.4-1,.9-1s.9.3.9,1v7.5c0,.6-.4.9-.9.9s-.9-.3-.9-.9v-.4h0c-.3.8-1,1.3-2.1,1.3-1.7,0-2.8-1.4-2.8-3.5h0ZM479.8,24.2c0-1.2-.6-2-1.5-2s-1.5.8-1.5,2,.6,2,1.5,2,1.5-.8,1.5-2Z"/>
        <path class="cls-10" d="M482.6,24.2c0-2.2,1.3-3.6,3.3-3.6s3.2,1.3,3.2,3.2-.3.8-.8.8h-3.9c0,1.1.6,1.8,1.5,1.8s1.1-.2,1.6-.8c.2-.2.4-.3.6-.3.4,0,.7.2.7.7s0,.3-.1.5c-.5.8-1.5,1.3-2.8,1.3-2.1,0-3.4-1.3-3.4-3.5h0ZM487.4,23.5c0-.9-.6-1.5-1.4-1.5s-1.4.6-1.5,1.5h2.9Z"/>
        <path class="cls-10" d="M490.1,26.7v-5.2c0-.6.4-.9.9-.9s.9.3.9.9v.4h0c.2-.8.7-1.4,1.4-1.4s.4,0,.6.2c.2.1.3.4.3.7s0,.5-.3.7-.4.2-.8.2c-.8,0-1.1.5-1.1,1.3v3c0,.6-.4,1-.9,1s-.9-.4-.9-1h-.1Z"/>
        <path class="cls-10" d="M497.4,26c0-.2-.1-.3-.1-.5,0-.5.4-.8.8-.8s.6.1.9.6c.3.7,1,1,1.9,1s1.7-.5,1.7-1.2-.4-1-1.6-1.2l-1-.2c-1.8-.4-2.7-1.2-2.7-2.6s1.5-2.8,3.5-2.8,2.9.7,3.4,1.9v.4c0,.5-.3.8-.8.8s-.7-.2-.9-.6c-.3-.7-.9-1-1.7-1s-1.6.4-1.6,1.1.4.9,1.5,1.1l1,.2c1.9.4,2.8,1.2,2.8,2.6s-1.4,2.9-3.7,2.9-3.1-.8-3.5-1.8h.1Z"/>
        <path class="cls-10" d="M505.6,29v-7.4c0-.6.4-1,.9-1s.9.3.9,1v.4h0c.4-.8,1.1-1.3,2.1-1.3,1.7,0,2.8,1.3,2.8,3.5s-1,3.5-2.8,3.5-1.8-.5-2.1-1.2h0v2.6c0,.6-.4,1-.9,1s-.9-.3-.9-1h0ZM510.4,24.2c0-1.2-.6-2-1.5-2s-1.5.8-1.5,2,.6,2,1.5,2,1.5-.8,1.5-2Z"/>
        <path class="cls-10" d="M513,25.6c0-1.2,1-2,2.7-2.1h1.7v-.6c0-.6-.5-1-1.1-1s-.9.2-1.3.7c-.2.2-.4.3-.7.3-.5,0-.8-.3-.8-.7s0-.3,0-.4c.3-.8,1.4-1.3,2.8-1.3s2.9.9,2.9,2.3v3.9c0,.6-.4.9-.9.9s-.8-.3-.9-.8v-.4h0c-.4.7-1.2,1.1-2.1,1.1-1.3,0-2.3-.8-2.3-2.1h0v.2ZM517.4,25.1v-.5h-1.4c-.7.1-1.1.5-1.1.9s.4.8,1,.8,1.5-.5,1.5-1.3h0Z"/>
        <path class="cls-10" d="M521.5,26.7l-1.4-4.7v-.6c0-.5.4-.8.9-.8s.8.3.9.8l1,4.4h0l1-4.3c0-.5.5-.9,1-.9s.9.3,1,.9l1.1,4.3h0l1-4.4c0-.5.4-.8.9-.8s.9.3.9.8v.6l-1.4,4.8c-.2.7-.5,1-1.2,1s-1-.3-1.2-1l-1-4h0l-1,4c-.2.7-.5,1-1.2,1s-1-.3-1.2-1h0Z"/>
        <path class="cls-10" d="M530.7,26.7v-5.2c0-.6.3-.9.9-.9s.9.4.9.9v.4h0c.4-.8,1-1.3,2.1-1.3s2.4,1,2.4,2.5v3.5c0,.6-.4,1-.9,1s-.9-.3-.9-1v-3.2c0-.9-.4-1.4-1.2-1.4s-1.4.6-1.4,1.5v3.1c0,.6-.4,1-.9,1s-.9-.3-.9-1h0Z"/>
        <path class="cls-10" d="M801.1,559.8v-6.1c0-.5.3-.8.8-.8h2.6c1.5,0,2.4.8,2.4,1.9s-.6,1.6-1.5,1.7h0c1,0,1.8.9,1.8,1.9s-1,2.2-2.7,2.2h-2.6c-.5,0-.8-.3-.8-.8h0ZM803.9,556.1c.9,0,1.4-.4,1.4-1s-.4-1-1.2-1h-1.3v2h1.2-.1ZM804.1,559.4c.9,0,1.4-.4,1.4-1.1s-.5-1.1-1.5-1.1h-1.4v2.2h1.5Z"/>
        <path class="cls-10" d="M807.8,557.8c0-1.8,1.1-3,2.8-3s2.7,1.1,2.7,2.7-.2.7-.7.7h-3.3c0,.9.5,1.5,1.3,1.5s1-.2,1.4-.7c.2-.2.3-.2.5-.2.3,0,.6.2.6.6s0,.2,0,.4c-.4.7-1.3,1.1-2.4,1.1-1.8,0-2.9-1.1-2.9-3h.1ZM811.8,557.1c0-.8-.5-1.2-1.2-1.2s-1.2.5-1.2,1.2h2.4Z"/>
        <path class="cls-10" d="M814.1,559.9v-6.3c0-.5.3-.8.8-.8s.8.3.8.8v6.3c0,.5-.3.8-.8.8s-.8-.3-.8-.8Z"/>
        <path class="cls-10" d="M817.2,556h-.3c-.4,0-.6-.2-.6-.6s.2-.6.6-.6h.3v-.6c0-.5.3-.8.8-.8s.8.3.8.8v.6h.5c.4,0,.6.2.6.6s-.2.6-.6.6h-.5v2.8c0,.4,0,.6.5.6h0c.4,0,.6.2.6.6s-.5.7-1.1.7h0c-1,0-1.6-.5-1.6-1.5v-3.1h0Z"/>
        <path class="cls-10" d="M794.7,490.5c0-.2,0-.4,0-.6,0-.5.3-.8.8-.8s.6.2.8.6c.2.5.5.8,1,.8s1-.4,1-1.2v-4.5c0-.5.3-.9.8-.9s.8.3.8.9v4.5c0,1.6-1,2.6-2.7,2.6s-2.1-.5-2.4-1.4h0Z"/>
        <path class="cls-10" d="M800.7,490.1c0-1,.8-1.6,2.2-1.7h1.5v-.5c0-.5-.4-.9-1-.9s-.8.2-1.1.6c-.2.2-.4.3-.6.3-.4,0-.7-.2-.7-.6v-.4c.3-.7,1.2-1.1,2.4-1.1s2.4.8,2.4,1.9v3.3c0,.5-.3.8-.8.8s-.7-.2-.8-.7v-.3h0c-.3.6-1,1-1.8,1s-1.9-.7-1.9-1.8h.2ZM804.4,489.6v-.4h-1.2c-.6.1-.9.4-.9.8s.3.7.9.7,1.2-.5,1.2-1.1h0Z"/>
        <path class="cls-10" d="M807,484.5c0-.5.4-.8.8-.8s.8.4.8.8-.4.8-.8.8-.8-.4-.8-.8ZM807,491v-4.4c0-.5.3-.8.8-.8s.8.3.8.8v4.4c0,.5-.3.8-.8.8s-.8-.3-.8-.8Z"/>
        <path class="cls-10" d="M809.7,491v-6.3c0-.5.3-.8.8-.8s.8.3.8.8v6.3c0,.5-.3.8-.8.8s-.8-.3-.8-.8Z"/>
        <path class="cls-10" d="M724.5,490.7v-6.3c0-.5.3-.8.8-.8s.6.1.8.5l3.3,4.7h0v-4.3c0-.5.3-.8.8-.8s.8.3.8.8v6.4c0,.5-.3.8-.8.8s-.6-.1-.8-.5l-3.4-4.7h0v4.4c0,.5-.3.8-.8.8s-.8-.3-.8-.8h0v-.2Z"/>
        <path class="cls-10" d="M732,488.5c0-1.9,1.1-3,2.8-3s2.7,1.1,2.7,2.7-.2.7-.7.7h-3.3c0,.9.5,1.5,1.3,1.5s1-.2,1.4-.7c.2-.2.3-.2.5-.2.3,0,.6.2.6.6s0,.2,0,.4c-.4.7-1.3,1.1-2.4,1.1-1.8,0-2.9-1.1-2.9-3h.1ZM736,487.9c0-.8-.5-1.2-1.2-1.2s-1.2.5-1.2,1.2h2.4Z"/>
        <path class="cls-10" d="M738.2,490.3v-.3c0-.4.3-.6.6-.6s.5.1.7.4c.3.4.7.6,1.3.6s.9-.2.9-.6-.2-.5-.8-.6l-1-.2c-1.1-.2-1.7-.8-1.7-1.7s1-1.8,2.4-1.8,2.1.5,2.3,1.2v.2c0,.3-.2.5-.6.5s-.4,0-.6-.2c-.3-.4-.6-.6-1.2-.6s-.9.2-.9.6.2.5.8.6l1,.2c1.2.3,1.7.7,1.7,1.6s-1,1.9-2.5,1.9-2.2-.5-2.5-1.1h0Z"/>
        <path class="cls-10" d="M744.4,486.8h-.3c-.4,0-.6-.2-.6-.6s.2-.6.6-.6h.3v-.6c0-.5.3-.8.8-.8s.8.3.8.8v.6h.5c.4,0,.6.2.6.6s-.2.6-.6.6h-.5v2.8c0,.4,0,.6.5.6h0c.4,0,.6.2.6.6s-.5.7-1.1.7h0c-1,0-1.6-.5-1.6-1.5v-3.1h0Z"/>
        <path class="cls-10" d="M694.6,426v-6.2c0-.5.3-.8.8-.8h2.3c1.6,0,2.7,1.1,2.7,2.6s-1.1,2.6-2.8,2.6h-1.5v1.7c0,.5-.3.8-.8.8s-.8-.3-.8-.8h0ZM697.3,423c.9,0,1.5-.5,1.5-1.4s-.5-1.4-1.5-1.4h-1.1v2.8h1.1Z"/>
        <path class="cls-10" d="M701.3,419.4c0-.5.4-.8.8-.8s.8.4.8.8-.4.8-.8.8-.8-.4-.8-.8ZM701.3,426v-4.4c0-.5.3-.8.8-.8s.8.3.8.8v4.4c0,.5-.3.8-.8.8s-.8-.3-.8-.8Z"/>
        <path class="cls-10" d="M703.9,428v-6.3c0-.5.3-.8.8-.8s.8.3.8.8v.3h0c.3-.7,1-1.1,1.8-1.1,1.5,0,2.4,1.1,2.4,3s-.9,3-2.3,3-1.5-.4-1.8-1.1h0v2.2c0,.5-.3.8-.8.8s-.8-.3-.8-.8h-.1ZM708,423.9c0-1-.5-1.7-1.3-1.7s-1.3.7-1.3,1.7.5,1.7,1.3,1.7,1.3-.7,1.3-1.7Z"/>
        <path class="cls-10" d="M710.2,423.9c0-1.9,1.1-3,2.8-3s2.7,1.1,2.7,2.7-.2.7-.7.7h-3.3c0,.9.5,1.5,1.3,1.5s1-.2,1.4-.7c.2-.2.3-.2.5-.2.3,0,.6.2.6.6s0,.2,0,.4c-.4.7-1.3,1.1-2.4,1.1-1.8,0-2.9-1.1-2.9-3h.1ZM714.2,423.2c0-.8-.5-1.2-1.2-1.2s-1.2.5-1.2,1.2h2.4Z"/>
        <path class="cls-10" d="M716.4,425.7v-.3c0-.4.3-.6.6-.6s.5.1.7.4c.3.4.7.6,1.3.6s.9-.2.9-.6-.2-.5-.8-.6l-1-.2c-1.1-.2-1.7-.8-1.7-1.7s1-1.8,2.4-1.8,2.1.5,2.3,1.2v.2c0,.3-.2.5-.6.5s-.4,0-.6-.2c-.3-.4-.6-.6-1.2-.6s-.9.2-.9.6.2.5.8.6l1,.2c1.2.3,1.7.7,1.7,1.6s-1,1.9-2.5,1.9-2.2-.5-2.5-1.1h0Z"/>
        <path class="cls-10" d="M736.2,358.1v-.8h-2.9c-.6,0-1-.4-1-.9s0-.6.3-1.1c.5-1,1.3-2.1,2.2-3.4.5-.8.9-1.1,1.6-1.1s1.3.5,1.3,1.2v4h.4c.4,0,.7.3.7.6s-.2.6-.7.6h-.4v.8c0,.5-.3.8-.8.8s-.8-.3-.8-.8h.1ZM736.2,352.2h0c-1.1,1.6-1.8,2.7-2.5,3.9h2.5v-3.9h0Z"/>
        <path class="cls-10" d="M739.7,355.7c0-.4.3-.7.7-.7h2.2c.4,0,.7.2.7.7s-.3.7-.7.7h-2.2c-.4,0-.7-.2-.7-.7Z"/>
        <path class="cls-10" d="M746.2,358.1v-5.5h0l-1.1.8c-.2.1-.3.1-.4.1-.3,0-.6-.2-.6-.6s0-.4.3-.6l1.5-1.1c.4-.3.6-.3,1-.3.6,0,.9.4.9.9v6.3c0,.5-.3.8-.8.8s-.8-.3-.8-.8h0Z"/>
        <path class="cls-10" d="M749.4,354.9c0-2.5,1.2-4,3.2-4s3.2,1.5,3.2,4-1.2,4.1-3.2,4.1-3.2-1.5-3.2-4.1ZM754.1,354.9c0-1.8-.6-2.7-1.5-2.7s-1.5,1-1.5,2.7.6,2.8,1.5,2.8,1.5-1,1.5-2.8Z"/>
        <path class="cls-10" d="M598.5,321v-.4c0-.4.3-.7.7-.7s.5.1.8.5c.2.6.9.9,1.6.9s1.5-.4,1.5-1-.4-.8-1.3-1l-.8-.2c-1.5-.3-2.3-1-2.3-2.2s1.2-2.4,3-2.4,2.5.6,2.8,1.6v.4c0,.4-.3.6-.7.6s-.6-.1-.8-.5c-.3-.6-.8-.8-1.4-.8s-1.3.4-1.3,1,.4.8,1.3,1l.8.2c1.6.3,2.3,1,2.3,2.2s-1.2,2.5-3.1,2.5-2.6-.6-2.9-1.5h0l-.2-.2Z"/>
        <path class="cls-10" d="M605.2,319.4c0-1.8,1.1-3,2.8-3s2.1.6,2.4,1.4v.4c0,.4-.3.6-.7.6s-.5-.1-.7-.4c-.3-.5-.6-.7-1.1-.7-.8,0-1.3.7-1.3,1.8s.5,1.8,1.3,1.8.9-.3,1.1-.7c.2-.3.4-.5.7-.5s.7.2.7.6v.4c-.3.8-1.3,1.3-2.4,1.3-1.7,0-2.8-1.1-2.8-3h0Z"/>
        <path class="cls-10" d="M611.4,321.6v-4.4c0-.5.3-.8.8-.8s.7.3.7.8v.4h0c.2-.7.6-1.1,1.2-1.1s.4,0,.5.1c.2.1.2.3.2.6s0,.4-.2.6-.4.2-.7.2c-.7,0-1,.4-1,1.1v2.6c0,.5-.3.8-.8.8s-.8-.3-.8-.8h0Z"/>
        <path class="cls-10" d="M615,319.5c0-1.9,1.1-3,2.8-3s2.7,1.1,2.7,2.7-.2.7-.7.7h-3.3c0,.9.5,1.5,1.3,1.5s1-.2,1.4-.7c.2-.2.3-.2.5-.2.3,0,.6.2.6.6s0,.2,0,.4c-.4.7-1.3,1.1-2.4,1.1-1.8,0-2.9-1.1-2.9-3h.1ZM619,318.8c0-.8-.5-1.2-1.2-1.2s-1.2.5-1.2,1.2h2.4Z"/>
        <path class="cls-10" d="M621.1,319.5c0-1.9,1.1-3,2.8-3s2.7,1.1,2.7,2.7-.2.7-.7.7h-3.3c0,.9.5,1.5,1.3,1.5s1-.2,1.4-.7c.2-.2.3-.2.5-.2.3,0,.6.2.6.6s0,.2,0,.4c-.4.7-1.3,1.1-2.4,1.1-1.8,0-2.9-1.1-2.9-3h.1ZM625.1,318.8c0-.8-.5-1.2-1.2-1.2s-1.2.5-1.2,1.2h2.4Z"/>
        <path class="cls-10" d="M627.4,321.6v-4.4c0-.5.3-.8.8-.8s.8.3.8.8v.3h0c.3-.7.9-1.1,1.8-1.1,1.3,0,2,.8,2,2.1v3c0,.5-.3.8-.8.8s-.8-.3-.8-.8v-2.7c0-.8-.3-1.2-1.1-1.2s-1.2.5-1.2,1.3v2.6c0,.5-.3.8-.8.8s-.8-.3-.8-.8h0Z"/>
        <path class="cls-10" d="M701.8,241.6v-6.2c0-.5.3-.8.8-.8h2.4c1.8,0,2.8.9,2.8,2.5s-.5,1.8-1.3,2.2l1.1,1.9c0,.2.2.4.2.6,0,.4-.3.7-.8.7s-.6-.1-.8-.6l-1.3-2.3h-1.4v2.1c0,.5-.3.8-.8.8s-.8-.3-.8-.8h-.1ZM704.8,238.4c.8,0,1.3-.5,1.3-1.2s-.5-1.2-1.3-1.2h-1.4v2.5h1.4Z"/>
        <path class="cls-10" d="M708.4,240.7c0-1.1.8-1.6,2.2-1.7h1.5v-.5c0-.5-.4-.9-1-.9s-.8.2-1.1.6c-.2.2-.4.3-.6.3-.4,0-.7-.2-.7-.6s0-.2,0-.4c.3-.7,1.2-1.1,2.4-1.1s2.4.8,2.4,1.9v3.3c0,.5-.3.8-.8.8s-.7-.2-.8-.7v-.3h0c-.3.6-1,1-1.8,1s-1.9-.7-1.9-1.8h.2ZM712.1,240.2v-.4h-1.2c-.6.1-.9.4-.9.8s.3.7.9.7,1.2-.4,1.2-1.1Z"/>
        <path class="cls-10" d="M715.1,241.7v-3.9h-.3c-.3,0-.6-.2-.6-.6s.2-.6.6-.6h.3v-.4c0-1.1.6-1.6,1.6-1.6s1.2.3,1.2.6,0,.4-.3.4h-.3c-.5,0-.7.2-.7.6v.4h.7c.3,0,.6.2.6.6s-.2.6-.6.6h-.6v3.9c0,.5-.3.8-.8.8s-.8-.3-.8-.8h0Z"/>
        <path class="cls-10" d="M719,237.8h-.3c-.4,0-.6-.2-.6-.6s.2-.6.6-.6h.3v-.6c0-.5.3-.8.8-.8s.8.3.8.8v.6h.5c.4,0,.6.2.6.6s-.2.6-.6.6h-.5v2.8c0,.4,0,.6.5.6h0c.4,0,.6.2.6.6s-.5.7-1.1.7h0c-1,0-1.6-.5-1.6-1.5v-3.1h0Z"/>
        <path class="cls-10" d="M722.2,239.5c0-1.9,1.1-3,2.8-3s2.7,1.1,2.7,2.7-.2.7-.7.7h-3.3c0,.9.5,1.5,1.3,1.5s1-.2,1.4-.7c.2-.2.3-.2.5-.2.3,0,.6.2.6.6s0,.2,0,.4c-.4.7-1.3,1.1-2.4,1.1-1.8,0-2.9-1.1-2.9-3h.1ZM726.2,238.9c0-.8-.5-1.2-1.2-1.2s-1.2.5-1.2,1.2h2.4Z"/>
        <path class="cls-10" d="M728.5,241.7v-4.4c0-.5.3-.8.8-.8s.7.3.7.8v.4h0c.2-.7.6-1.1,1.2-1.1s.4,0,.5.1c.2.1.2.3.2.6s0,.4-.2.6-.4.2-.7.2c-.7,0-1,.4-1,1.1v2.6c0,.5-.3.8-.8.8s-.8-.3-.8-.8h0Z"/>
        <path class="cls-10" d="M732.4,241.3v-.3c0-.4.3-.6.6-.6s.5.1.7.4c.3.4.7.6,1.3.6s.9-.2.9-.6-.2-.5-.8-.6l-1-.2c-1.1-.2-1.7-.8-1.7-1.7s1-1.8,2.4-1.8,2.1.5,2.3,1.2v.2c0,.3-.2.5-.6.5s-.4,0-.6-.2c-.3-.4-.6-.6-1.2-.6s-.9.2-.9.6.2.5.8.6l1,.2c1.2.3,1.7.7,1.7,1.6s-1,1.9-2.5,1.9-2.2-.5-2.5-1.1h0Z"/>
        <path class="cls-10" d="M463.7,327.8v-6.1c0-.5.3-.8.8-.8h2.6c1.5,0,2.4.8,2.4,1.9s-.6,1.6-1.5,1.7h0c1,.1,1.8.9,1.8,1.9s-1,2.2-2.7,2.2h-2.6c-.5,0-.8-.3-.8-.9h0ZM466.5,324.1c.9,0,1.4-.4,1.4-1s-.4-1-1.2-1h-1.3v2h1.2-.1ZM466.8,327.5c.9,0,1.4-.4,1.4-1.1s-.5-1.1-1.5-1.1h-1.4v2.2h1.5Z"/>
        <path class="cls-10" d="M470.4,325.8c0-1.9,1.1-3,2.9-3s2.9,1.1,2.9,3-1.1,3-2.9,3-2.9-1.1-2.9-3ZM474.5,325.8c0-1.1-.5-1.8-1.3-1.8s-1.3.7-1.3,1.8.5,1.8,1.3,1.8,1.3-.6,1.3-1.8Z"/>
        <path class="cls-10" d="M476.9,321.4c0-.5.4-.8.8-.8s.8.4.8.8-.4.8-.8.8-.8-.4-.8-.8ZM477,328v-4.4c0-.5.3-.8.8-.8s.8.3.8.8v4.4c0,.5-.3.8-.8.8s-.8-.3-.8-.8Z"/>
        <path class="cls-10" d="M479.6,328v-6.3c0-.5.3-.8.8-.8s.8.3.8.8v6.3c0,.5-.3.8-.8.8s-.8-.3-.8-.8Z"/>
        <path class="cls-10" d="M482,325.8c0-1.9,1.1-3,2.8-3s2.7,1.1,2.7,2.7-.2.7-.7.7h-3.3c0,.9.5,1.5,1.3,1.5s1-.2,1.4-.7c.2-.2.3-.2.5-.2.3,0,.6.2.6.6s0,.2-.1.4c-.4.7-1.3,1.1-2.4,1.1-1.8,0-2.9-1.1-2.9-3h.1ZM486,325.2c0-.8-.5-1.2-1.2-1.2s-1.2.5-1.2,1.2h2.4Z"/>
        <path class="cls-10" d="M488.3,328v-4.4c0-.5.3-.8.8-.8s.7.3.7.8v.4h0c.1-.7.6-1.1,1.2-1.1s.4,0,.5.1.2.3.2.6,0,.4-.2.6-.4.2-.7.2c-.7,0-1,.4-1,1.1v2.6c0,.5-.3.8-.8.8s-.8-.3-.8-.8h0Z"/>
        <path class="cls-10" d="M555.1,423.2v-6.2c0-.5.3-.8.8-.8h2.3c1.6,0,2.7,1.1,2.7,2.6s-1.1,2.6-2.8,2.6h-1.5v1.7c0,.5-.3.8-.8.8s-.8-.3-.8-.8h0ZM557.8,420.3c.9,0,1.5-.5,1.5-1.4s-.5-1.4-1.5-1.4h-1.1v2.8h1.1Z"/>
        <path class="cls-10" d="M561.2,422.3c0-1,.8-1.6,2.2-1.7h1.5v-.5c0-.5-.4-.9-1-.9s-.8.2-1.1.6c-.2.2-.4.3-.6.3-.4,0-.7-.2-.7-.6v-.4c.3-.7,1.2-1.1,2.4-1.1s2.4.8,2.4,1.9v3.3c0,.5-.3.8-.8.8s-.7-.2-.8-.7v-.3h0c-.3.6-1,1-1.8,1s-1.9-.7-1.9-1.8h.2ZM564.9,421.9v-.4h-1.2c-.6.1-.9.4-.9.8s.3.7.9.7,1.2-.5,1.2-1.1h0Z"/>
        <path class="cls-10" d="M567.5,423.3v-6.3c0-.5.3-.8.8-.8s.8.3.8.8v6.3c0,.5-.3.8-.8.8s-.8-.3-.8-.8Z"/>
        <path class="cls-10" d="M570.1,423.3v-6.3c0-.5.3-.8.8-.8s.8.3.8.8v6.3c0,.5-.3.8-.8.8s-.8-.3-.8-.8Z"/>
        <path class="cls-10" d="M572.5,421.1c0-1.9,1.1-3,2.8-3s2.7,1.1,2.7,2.7-.2.7-.7.7h-3.3c0,.9.5,1.5,1.3,1.5s1-.2,1.4-.7c.2-.2.3-.2.5-.2.3,0,.6.2.6.6s0,.2,0,.4c-.4.7-1.3,1.1-2.4,1.1-1.8,0-2.9-1.1-2.9-3h.1ZM576.5,420.5c0-.8-.5-1.2-1.2-1.2s-1.2.5-1.2,1.2h2.4Z"/>
        <path class="cls-10" d="M579.3,419.4h-.3c-.4,0-.6-.2-.6-.6s.2-.6.6-.6h.3v-.6c0-.5.3-.8.8-.8s.8.3.8.8v.6h.5c.4,0,.6.2.6.6s-.2.6-.6.6h-.5v2.8c0,.4,0,.6.5.6h0c.4,0,.6.2.6.6s-.5.7-1.1.7h0c-1,0-1.6-.5-1.6-1.5v-3.1h0Z"/>
        <path class="cls-10" d="M398.5,500.4v-5.7h-1.6c-.4,0-.7-.2-.7-.7s.3-.7.7-.7h4.8c.4,0,.7.2.7.7s-.3.7-.7.7h-1.6v5.7c0,.5-.3.8-.8.8s-.8-.3-.8-.8Z"/>
        <path class="cls-10" d="M402.4,499.1v-3c0-.5.3-.8.8-.8s.8.3.8.8v2.7c0,.8.4,1.2,1.1,1.2s1.1-.5,1.1-1.3v-2.6c0-.5.3-.8.8-.8s.8.3.8.8v4.4c0,.5-.3.8-.8.8s-.8-.3-.8-.8v-.4h0c-.3.7-.9,1.1-1.7,1.1-1.2,0-2.1-.8-2.1-2.1h0Z"/>
        <path class="cls-10" d="M408.8,500.5v-6.4c0-.5.3-.8.8-.8s.8.3.8.8v2.3h0c.3-.7,1-1.1,1.8-1.1,1.5,0,2.3,1.1,2.3,3s-.9,3-2.3,3-1.5-.4-1.8-1.1h0v.3c0,.5-.3.8-.8.8s-.8-.3-.8-.8h0ZM412.9,498.2c0-1-.5-1.7-1.3-1.7s-1.3.7-1.3,1.7.5,1.7,1.3,1.7,1.3-.7,1.3-1.7Z"/>
        <path class="cls-10" d="M415.1,498.3c0-1.9,1.1-3,2.8-3s2.7,1.1,2.7,2.7-.2.7-.7.7h-3.3c0,.9.5,1.5,1.3,1.5s1-.2,1.4-.7c.2-.2.3-.2.5-.2.3,0,.6.2.6.6s0,.2-.1.4c-.4.7-1.3,1.1-2.4,1.1-1.8,0-2.9-1.1-2.9-3h.1ZM419.1,497.6c0-.8-.5-1.2-1.2-1.2s-1.2.5-1.2,1.2h2.4Z"/>
        <path class="cls-10" d="M367,305.3v-6.3c0-.5.3-.9.8-.9s.8.3.8.9v2.7h0l2.9-3.2c.2-.2.4-.4.7-.4s.8.3.8.8,0,.4-.3.6l-2.1,2.2,2.3,2.8c.2.3.4.5.4.8s-.3.8-.8.8-.6-.1-.8-.5l-2.3-2.8-.8.8v1.6c0,.5-.3.8-.8.8s-.8-.3-.8-.8h0Z"/>
        <path class="cls-10" d="M374.2,298.7c0-.5.4-.8.8-.8s.8.4.8.8-.4.8-.8.8-.8-.4-.8-.8ZM374.2,305.3v-4.4c0-.5.3-.8.8-.8s.8.3.8.8v4.4c0,.5-.3.8-.8.8s-.8-.3-.8-.8Z"/>
        <path class="cls-10" d="M377.2,301.4h-.3c-.4,0-.6-.2-.6-.6s.2-.6.6-.6h.3v-.6c0-.5.3-.8.8-.8s.8.3.8.8v.6h.5c.4,0,.6.2.6.6s-.2.6-.6.6h-.5v2.8c0,.4.1.6.5.6h.1c.4,0,.6.2.6.6s-.5.7-1.1.7h0c-1,0-1.6-.5-1.6-1.5v-3.1h0Z"/>
        <path class="cls-10" d="M380.4,303.1c0-1.8,1.1-3,2.8-3s2.1.6,2.4,1.4v.4c0,.4-.3.6-.7.6s-.5-.1-.7-.4c-.3-.5-.6-.7-1.1-.7-.8,0-1.3.7-1.3,1.8s.5,1.8,1.3,1.8.9-.3,1.1-.7c.2-.3.4-.5.7-.5s.7.2.7.6,0,.2-.1.4c-.3.8-1.3,1.3-2.4,1.3-1.7,0-2.8-1.1-2.8-3h.1Z"/>
        <path class="cls-10" d="M386.7,305.3v-6.4c0-.5.3-.8.8-.8s.8.3.8.8v2.3h0c.3-.7.9-1.1,1.8-1.1,1.3,0,2,.8,2,2.2v3c0,.5-.3.8-.8.8s-.8-.3-.8-.8v-2.7c0-.7-.4-1.2-1.1-1.2s-1.2.5-1.2,1.3v2.6c0,.5-.3.8-.8.8s-.8-.3-.8-.8h.1Z"/>
        <path class="cls-10" d="M392.9,303.1c0-1.9,1.1-3,2.8-3s2.7,1.1,2.7,2.7-.2.7-.7.7h-3.3c0,.9.5,1.5,1.3,1.5s1-.2,1.4-.7c.2-.2.3-.2.5-.2.3,0,.6.2.6.6s0,.2-.1.4c-.4.7-1.3,1.1-2.4,1.1-1.8,0-2.9-1.1-2.9-3h.1ZM396.9,302.5c0-.8-.5-1.2-1.2-1.2s-1.2.5-1.2,1.2h2.4Z"/>
        <path class="cls-10" d="M399.2,305.3v-4.4c0-.5.3-.8.8-.8s.8.3.8.8v.3h0c.3-.7.9-1.1,1.8-1.1,1.3,0,2,.8,2,2.1v3c0,.5-.3.8-.8.8s-.8-.3-.8-.8v-2.7c0-.8-.4-1.2-1.1-1.2s-1.1.5-1.1,1.3v2.6c0,.5-.3.8-.8.8s-.8-.3-.8-.8h0Z"/>
        <path class="cls-10" d="M213,327.9v-6.3c0-.5.3-.9.8-.9s.8.3.8.9v2.4h3.5v-2.4c0-.5.3-.9.8-.9s.8.3.8.9v6.3c0,.5-.3.8-.8.8s-.8-.3-.8-.8v-2.5h-3.5v2.5c0,.5-.3.8-.8.8s-.8-.3-.8-.8Z"/>
        <path class="cls-10" d="M220.6,327c0-1,.8-1.6,2.2-1.7h1.4v-.5c0-.5-.4-.9-1-.9s-.8.2-1.1.6c-.2.2-.4.3-.6.3-.4,0-.7-.2-.7-.6v-.4c.3-.7,1.2-1.1,2.4-1.1s2.4.8,2.4,1.9v3.3c0,.5-.3.8-.8.8s-.7-.2-.8-.7v-.3h0c-.3.6-1,1-1.8,1s-1.9-.7-1.9-1.8h.3ZM224.2,326.6v-.4h-1.2c-.6.1-.9.4-.9.8s.4.7.9.7,1.2-.5,1.2-1.1h0Z"/>
        <path class="cls-10" d="M226.8,328v-6.3c0-.5.3-.8.8-.8s.8.3.8.8v6.3c0,.5-.3.8-.8.8s-.8-.3-.8-.8Z"/>
        <path class="cls-10" d="M229.5,328v-6.3c0-.5.3-.8.8-.8s.8.3.8.8v6.3c0,.5-.3.8-.8.8s-.8-.3-.8-.8Z"/>
        <path class="cls-10" d="M40.1,244.6v-.4c0-.4.3-.7.7-.7s.5.1.8.5c.2.6.9.9,1.6.9s1.5-.4,1.5-1-.4-.8-1.3-1l-.8-.2c-1.5-.3-2.3-1.1-2.3-2.2s1.2-2.4,3-2.4,2.5.6,2.8,1.6v.4c0,.4-.3.6-.7.6s-.6-.1-.8-.5c-.3-.6-.8-.8-1.4-.8s-1.3.4-1.3.9.4.8,1.3,1l.8.2c1.6.3,2.3,1,2.3,2.2s-1.2,2.5-3.1,2.5-2.6-.6-2.9-1.5h-.2Z"/>
        <path class="cls-10" d="M47,245.2v-4.4c0-.5.3-.8.8-.8s.8.3.8.8v.3h0c.3-.7.9-1.1,1.8-1.1,1.3,0,2,.8,2,2.1v3c0,.5-.3.8-.8.8s-.8-.3-.8-.8v-2.7c0-.8-.3-1.2-1.1-1.2s-1.2.5-1.2,1.3v2.6c0,.5-.3.8-.8.8s-.8-.3-.8-.8h0Z"/>
        <path class="cls-10" d="M53.2,243.1c0-1.9,1.1-3,2.8-3s2.8,1.1,2.8,3-1.1,3-2.8,3-2.8-1.1-2.8-3ZM57.3,243.1c0-1.1-.5-1.8-1.3-1.8s-1.3.7-1.3,1.8.5,1.8,1.3,1.8,1.3-.6,1.3-1.8Z"/>
        <path class="cls-10" d="M60.5,245.2l-1.2-4v-.5c0-.4.3-.7.8-.7s.6.2.7.7l.8,3.7h0l.9-3.7c0-.5.4-.7.9-.7s.8.2.9.7l.9,3.7h0l.9-3.7c0-.4.3-.7.7-.7s.7.3.7.7v.5l-1.2,4c-.2.6-.5.8-1,.8s-.9-.2-1-.8l-.9-3.4h0l-.9,3.4c0,.6-.5.8-1,.8s-.8-.2-1-.8h0Z"/>
        <path class="cls-10" d="M68.3,245.2v-4.4c0-.5.3-.8.8-.8s.8.3.8.8v.4h0c.2-.7.9-1.1,1.6-1.1s1.4.4,1.6,1.2h0c.3-.7.9-1.2,1.8-1.2s1.9.8,1.9,1.9v3.2c0,.5-.3.8-.8.8s-.8-.3-.8-.8v-2.8c0-.7-.3-1-.9-1s-1,.4-1,1.1v2.8c0,.5-.3.8-.8.8s-.8-.3-.8-.8v-2.9c0-.6-.3-1-.9-1s-1,.4-1,1.1v2.8c0,.5-.3.8-.8.8s-.8-.3-.8-.8h.1Z"/>
        <path class="cls-10" d="M77.6,244.3c0-1.1.8-1.6,2.2-1.7h1.4v-.5c0-.5-.4-.9-1-.9s-.8.2-1.1.6c-.2.2-.4.3-.6.3-.4,0-.7-.2-.7-.6s0-.2,0-.4c.3-.7,1.2-1.1,2.4-1.1s2.4.8,2.4,1.9v3.3c0,.5-.3.8-.8.8s-.7-.2-.8-.7v-.3h0c-.3.6-1,1-1.8,1s-1.9-.7-1.9-1.8h.3ZM81.3,243.8v-.4h-1.2c-.6.1-.9.4-.9.8s.3.7.9.7,1.2-.4,1.2-1.1Z"/>
        <path class="cls-10" d="M83.8,245.2v-4.4c0-.5.3-.8.8-.8s.8.3.8.8v.3h0c.3-.7.9-1.1,1.8-1.1,1.3,0,2,.8,2,2.1v3c0,.5-.3.8-.8.8s-.8-.3-.8-.8v-2.7c0-.8-.3-1.2-1.1-1.2s-1.2.5-1.2,1.3v2.6c0,.5-.3.8-.8.8s-.8-.3-.8-.8h0Z"/>
        <path class="cls-10" d="M13.7,531v-2.2l-2.4-3.7c-.1-.2-.2-.4-.2-.5,0-.4.3-.8.8-.8s.5,0,.8.5l1.8,2.9h0l1.8-2.9c.2-.3.4-.5.7-.5s.8.3.8.8,0,.4-.2.5l-2.4,3.7v2.2c0,.5-.3.8-.8.8s-.8-.3-.8-.8h.1Z"/>
        <path class="cls-10" d="M17.2,528.8c0-1.8,1.1-3,2.8-3s2.7,1.1,2.7,2.7-.2.7-.7.7h-3.3c0,.9.5,1.5,1.3,1.5s1-.2,1.4-.7c.2-.2.3-.2.5-.2.3,0,.6.2.6.6s0,.2-.1.4c-.4.7-1.3,1.1-2.4,1.1-1.8,0-2.9-1.1-2.9-3h.1ZM21.2,528.2c0-.8-.5-1.2-1.2-1.2s-1.2.5-1.2,1.2h2.4Z"/>
        <path class="cls-10" d="M23.6,531v-6.3c0-.5.3-.8.8-.8s.8.3.8.8v6.3c0,.5-.3.8-.8.8s-.8-.3-.8-.8Z"/>
        <path class="cls-10" d="M26.3,531v-6.3c0-.5.3-.8.8-.8s.8.3.8.8v6.3c0,.5-.3.8-.8.8s-.8-.3-.8-.8Z"/>
        <path class="cls-10" d="M28.7,528.8c0-1.9,1.1-3,2.9-3s2.9,1.1,2.9,3-1.1,3-2.9,3-2.9-1.1-2.9-3ZM32.8,528.8c0-1.1-.5-1.8-1.3-1.8s-1.3.7-1.3,1.8.5,1.8,1.3,1.8,1.3-.7,1.3-1.8Z"/>
        <path class="cls-10" d="M36.1,531l-1.2-4v-.5c0-.4.3-.7.8-.7s.6.2.7.7l.8,3.7h0l.9-3.7c0-.5.4-.7.9-.7s.8.2.9.7l.9,3.7h0l.9-3.7c0-.4.3-.7.7-.7s.7.3.7.7v.5l-1.2,4c-.2.6-.5.8-1,.8s-.9-.2-1-.8l-.9-3.3h0l-.9,3.4c0,.6-.5.8-1,.8s-.8-.2-1-.8h0Z"/>
        <path class="cls-10" d="M602.3,628.9c0,0,0-.3,0-.5l2.1-5.8c.2-.6.6-.9,1.2-.9s1,.3,1.2.9l2.1,5.8v.5c0,.5-.3.8-.8.8s-.7-.2-.8-.7l-.4-1.2h-2.8l-.4,1.2c-.2.5-.4.7-.8.7s-.8-.3-.8-.8h.1ZM606.8,626.5l-1-3.2h0l-1,3.2h2.1,0Z"/>
        <path class="cls-10" d="M612.4,628.9v-6.2c0-.7.4-1,1-1s.9.2,1.1.8l1.9,4.8h0l1.9-4.8c.2-.6.5-.8,1.1-.8s1,.4,1,1v6.2c0,.5-.3.8-.7.8s-.7-.3-.7-.8v-4.6h0l-1.9,4.7c0,.3-.3.5-.7.5s-.6-.2-.7-.5l-1.9-4.7h0v4.6c0,.5-.3.8-.7.8s-.7-.3-.7-.8h0Z"/>
        <path class="cls-10" d="M621.4,627.9c0-1,.8-1.7,2.2-1.7h1.5v-.5c0-.5-.4-.8-1-.8s-.8.2-1.1.6c-.2.2-.4.3-.6.3-.4,0-.7-.2-.7-.6s0-.2,0-.3c.3-.7,1.2-1.1,2.4-1.1s2.4.8,2.4,1.9v3.3c0,.5-.3.8-.8.8s-.7-.2-.8-.7v-.3h0c-.3.6-1,1-1.8,1s-1.9-.7-1.9-1.8h.2ZM625.1,627.4v-.4h-1.2c-.6,0-.9.4-.9.8s.3.7.9.7,1.2-.5,1.2-1.1h0Z"/>
        <path class="cls-10" d="M627.6,622.3c0-.5.4-.8.8-.8s.8.3.8.8-.4.8-.8.8-.8-.4-.8-.8ZM627.7,628.9v-4.3c0-.5.3-.8.8-.8s.8.3.8.8v4.3c0,.5-.3.8-.8.8s-.8-.3-.8-.8Z"/>
        <path class="cls-10" d="M630.3,628.9v-4.4c0-.5.3-.8.8-.8s.8.3.8.8v.3h0c.3-.7.9-1.1,1.8-1.1,1.3,0,2,.8,2,2.2v3c0,.5-.3.8-.8.8s-.8-.3-.8-.8v-2.7c0-.8-.3-1.2-1.1-1.2s-1.2.5-1.2,1.3v2.6c0,.5-.3.8-.8.8s-.8-.3-.8-.8h0Z"/>
        <path class="cls-10" d="M437.5,489v-6.2c0-.7.4-1,1-1s.9.2,1.1.8l1.9,4.8h0l1.9-4.8c.2-.6.5-.8,1.1-.8s1,.4,1,1v6.2c0,.5-.3.8-.7.8s-.7-.3-.7-.8v-4.6h0l-1.9,4.7c-.1.3-.4.5-.7.5s-.6-.2-.7-.5l-1.9-4.7h0v4.6c0,.5-.3.8-.7.8s-.7-.3-.7-.8h0Z"/>
        <path class="cls-10" d="M446.9,482.4c0-.5.4-.8.8-.8s.8.4.8.8-.4.8-.8.8-.8-.4-.8-.8ZM446.9,488.9v-4.4c0-.5.3-.8.8-.8s.8.3.8.8v4.4c0,.5-.3.8-.8.8s-.8-.3-.8-.8Z"/>
        <path class="cls-10" d="M449.3,486.8c0-1.8.9-3,2.4-3s1.5.4,1.8,1.1h0v-2.3c0-.5.3-.8.8-.8s.8.3.8.8v6.4c0,.5-.3.8-.8.8s-.8-.3-.8-.8v-.3h0c-.2.6-.9,1.1-1.8,1.1-1.4,0-2.4-1.1-2.4-3h0ZM453.5,486.8c0-1-.5-1.7-1.3-1.7s-1.3.7-1.3,1.7.5,1.7,1.3,1.7,1.3-.7,1.3-1.7Z"/>
        <path class="cls-10" d="M317.8,680.2c0-2.5,1.4-4,3.7-4s2.6.7,3.1,1.7c0,.2.1.3.1.5,0,.4-.3.7-.7.7s-.6-.2-.8-.5c-.4-.7-1-1-1.7-1-1.3,0-2,1-2,2.6s.8,2.7,2.1,2.7,1.8-.7,1.8-1.6h0c0,0-1.1,0-1.1,0-.4,0-.6-.2-.6-.6s.3-.6.6-.6h1.9c.5,0,.8.3.8.8h0c0,2.1-1.2,3.4-3.4,3.4s-3.7-1.5-3.7-4h0Z"/>
        <path class="cls-10" d="M325.6,682.5c0-1,.8-1.7,2.2-1.7h1.5v-.5c0-.5-.4-.8-1-.8s-.8.2-1.1.6c-.2.2-.4.3-.6.3-.4,0-.7-.2-.7-.6s0-.2,0-.3c.3-.7,1.2-1.1,2.4-1.1s2.4.8,2.4,1.9v3.3c0,.5-.3.8-.8.8s-.7-.2-.8-.7v-.3h0c-.3.6-1,1-1.8,1s-1.9-.7-1.9-1.8h.2ZM329.3,682v-.4h-1.2c-.6,0-.9.4-.9.8s.4.7.9.7,1.2-.5,1.2-1.1h0Z"/>
        <path class="cls-10" d="M331.9,683.4v-4.4c0-.5.3-.8.8-.8s.7.3.7.8v.4h0c.1-.7.6-1.1,1.2-1.1s.4,0,.5.2c.1,0,.2.3.2.6s0,.4-.2.6-.4.2-.7.2c-.7,0-1,.4-1,1.1v2.6c0,.5-.3.8-.8.8s-.8-.3-.8-.8h0v-.2Z"/>
        <path class="cls-10" d="M335.5,682.5c0-1,.8-1.7,2.2-1.7h1.5v-.5c0-.5-.4-.8-1-.8s-.8.2-1.1.6c-.2.2-.4.3-.6.3-.4,0-.7-.2-.7-.6s0-.2,0-.3c.3-.7,1.2-1.1,2.4-1.1s2.4.8,2.4,1.9v3.3c0,.5-.3.8-.8.8s-.7-.2-.8-.7v-.3h0c-.3.6-1,1-1.8,1s-1.9-.7-1.9-1.8h.2ZM339.2,682v-.4h-1.2c-.6,0-.9.4-.9.8s.4.7.9.7,1.2-.5,1.2-1.1h0Z"/>
        <path class="cls-10" d="M341.9,685.2c0-.2-.1-.3-.1-.4,0-.3.2-.6.6-.6s.4,0,.5.2c.4.4.8.6,1.4.6.9,0,1.4-.5,1.4-1.2v-.9h0c-.3.6-.9,1-1.8,1-1.4,0-2.3-1.1-2.3-2.8s.9-2.9,2.4-2.9,1.5.4,1.8,1.1h0v-.3c0-.5.3-.8.8-.8s.8.3.8.8v4.9c0,1.5-1.1,2.4-2.9,2.4s-2-.5-2.4-1.1h-.2ZM345.7,681.2c0-1-.5-1.7-1.3-1.7s-1.3.7-1.3,1.7.5,1.7,1.3,1.7,1.3-.6,1.3-1.7Z"/>
        <path class="cls-10" d="M348.1,681.3c0-1.8,1.1-3,2.8-3s2.7,1.1,2.7,2.7-.2.7-.7.7h-3.3c0,.9.5,1.5,1.3,1.5s1-.2,1.4-.7c.2-.2.3-.2.5-.2.3,0,.6.2.6.6s0,.2-.1.4c-.4.7-1.3,1.1-2.4,1.1-1.8,0-2.9-1.1-2.9-3h.1ZM352.1,680.7c0-.8-.5-1.2-1.2-1.2s-1.2.5-1.2,1.2h2.4Z"/>
        <path class="cls-10" d="M235.3,570.1v-6.1c0-.5.3-.8.8-.8h2.6c1.5,0,2.4.8,2.4,1.9s-.6,1.6-1.5,1.7h0c1.1,0,1.8.9,1.8,1.9s-1,2.2-2.7,2.2h-2.6c-.5,0-.8-.3-.8-.8h0ZM238.1,566.4c.9,0,1.4-.4,1.4-1s-.4-1-1.2-1h-1.3v2h1.2,0ZM238.3,569.8c.9,0,1.4-.4,1.4-1.1s-.5-1.1-1.5-1.1h-1.4v2.2h1.5Z"/>
        <path class="cls-10" d="M244.6,570.3v-6.2c0-.7.4-1,1.1-1s.9.2,1.1.8l1.9,4.8h0l1.9-4.8c.2-.6.6-.8,1.1-.8s1,.4,1,1v6.2c0,.5-.3.8-.7.8s-.7-.3-.7-.8v-4.6h0l-1.9,4.7c-.1.3-.4.5-.7.5s-.6-.2-.7-.5l-1.9-4.7h0v4.6c0,.5-.3.8-.7.8s-.7-.3-.7-.8h-.1Z"/>
        <path class="cls-10" d="M253.6,569.3c0-1,.8-1.7,2.2-1.7h1.5v-.5c0-.5-.4-.8-1-.8s-.8.2-1.1.6c-.2.2-.4.3-.6.3-.4,0-.7-.2-.7-.6s0-.2,0-.3c.3-.7,1.2-1.1,2.4-1.1s2.4.8,2.4,1.9v3.3c0,.5-.3.8-.8.8s-.7-.2-.8-.7v-.3h0c-.3.6-1,1-1.8,1s-1.9-.7-1.9-1.8h.2ZM257.3,568.8v-.4h-1.2c-.6,0-.9.4-.9.8s.4.7.9.7,1.2-.5,1.2-1.1h0Z"/>
        <path class="cls-10" d="M259.8,563.7c0-.5.4-.8.8-.8s.8.4.8.8-.4.8-.8.8-.8-.4-.8-.8ZM259.8,570.3v-4.3c0-.5.3-.8.8-.8s.8.3.8.8v4.3c0,.5-.3.8-.8.8s-.8-.3-.8-.8Z"/>
        <path class="cls-10" d="M262.5,570.3v-4.4c0-.5.3-.8.8-.8s.8.3.8.8v.3h0c.3-.7.9-1.1,1.8-1.1,1.3,0,2,.8,2,2.2v3c0,.5-.3.8-.8.8s-.8-.3-.8-.8v-2.7c0-.8-.4-1.2-1.1-1.2s-1.1.5-1.1,1.3v2.6c0,.5-.3.8-.8.8s-.8-.3-.8-.8h0Z"/>
        <path class="cls-10" d="M560.1,584.8v-6.1c0-.5.3-.8.8-.8h2.6c1.5,0,2.4.8,2.4,1.9s-.6,1.6-1.5,1.7h0c1,0,1.8.9,1.8,1.9s-1,2.2-2.7,2.2h-2.6c-.5,0-.8-.3-.8-.8h0ZM562.8,581.1c.9,0,1.4-.4,1.4-1s-.4-1-1.2-1h-1.3v2h1.2-.1ZM563.1,584.4c.9,0,1.4-.4,1.4-1.1s-.5-1.1-1.5-1.1h-1.4v2.2h1.5Z"/>
        <path class="cls-10" d="M567,584.9v-6.3c0-.5.3-.8.8-.8s.8.3.8.8v6.3c0,.5-.3.8-.8.8s-.8-.3-.8-.8Z"/>
        <path class="cls-10" d="M569.6,583.6v-3c0-.5.3-.8.8-.8s.8.3.8.8v2.7c0,.8.4,1.2,1.1,1.2s1.1-.5,1.1-1.3v-2.6c0-.5.3-.8.8-.8s.8.3.8.8v4.4c0,.5-.3.8-.8.8s-.8-.3-.8-.8v-.3h0c-.3.7-.8,1.1-1.7,1.1s-2.1-.8-2.1-2.2h0Z"/>
        <path class="cls-10" d="M575.8,582.8c0-1.8,1.1-3,2.8-3s2.7,1.1,2.7,2.7-.2.7-.7.7h-3.3c0,.9.5,1.5,1.3,1.5s1-.2,1.4-.7c.2-.2.3-.2.5-.2.3,0,.6.2.6.6s0,.2,0,.4c-.4.7-1.3,1.1-2.4,1.1-1.8,0-2.9-1.1-2.9-3h.1ZM579.8,582.2c0-.8-.5-1.2-1.2-1.2s-1.2.5-1.2,1.2h2.4Z"/>
        <path class="cls-10" d="M336.1,225.8v-6.3c0-.5.3-.9.8-.9s.8.3.8.9v2.4h3.5v-2.4c0-.5.3-.9.8-.9s.8.3.8.9v6.3c0,.5-.3.8-.8.8s-.8-.3-.8-.8v-2.5h-3.5v2.5c0,.5-.3.8-.8.8s-.8-.3-.8-.8Z"/>
        <path class="cls-10" d="M343.9,224.5v-3c0-.5.3-.8.8-.8s.8.3.8.8v2.7c0,.8.4,1.2,1.1,1.2s1.1-.5,1.1-1.3v-2.6c0-.5.3-.8.8-.8s.8.3.8.8v4.4c0,.5-.3.8-.8.8s-.8-.3-.8-.8v-.4h0c-.3.7-.9,1.1-1.7,1.1-1.2,0-2.1-.8-2.1-2.1h0Z"/>
        <path class="cls-10" d="M350.7,221.9h-.3c-.4,0-.6-.2-.6-.6s.2-.6.6-.6h.3v-.6c0-.5.3-.8.8-.8s.8.3.8.8v.6h.5c.4,0,.6.2.6.6s-.2.6-.6.6h-.5v2.8c0,.4.1.6.5.6h.1c.4,0,.6.2.6.6s-.5.7-1.1.7h0c-1,0-1.6-.5-1.6-1.5v-3.1h0Z"/>
        <path class="cls-10" d="M826.2,309.5c0-2.5,1.4-4,3.7-4s2.7.7,3.1,1.6c0,.2,0,.3,0,.5,0,.4-.3.7-.7.7s-.6-.1-.8-.5c-.4-.7-1-1-1.7-1-1.3,0-2,1-2,2.6s.8,2.7,2.1,2.7,1.8-.6,1.8-1.6h0c0-.1-1.1-.1-1.1-.1-.4,0-.7-.2-.7-.6s.3-.6.7-.6h1.9c.5,0,.8.3.8.8h0c0,2.1-1.2,3.4-3.4,3.4s-3.7-1.5-3.7-4h0Z"/>
        <path class="cls-10" d="M834.1,310.5c0-1.9,1.1-3,2.8-3s2.7,1.1,2.7,2.7-.2.7-.7.7h-3.3c0,.9.5,1.5,1.3,1.5s1-.2,1.4-.7c.2-.2.3-.2.5-.2.3,0,.6.2.6.6s0,.2,0,.4c-.4.7-1.3,1.1-2.4,1.1-1.8,0-2.9-1.1-2.9-3h.1ZM838.1,309.9c0-.8-.5-1.2-1.2-1.2s-1.2.5-1.2,1.2h2.4Z"/>
        <path class="cls-10" d="M840.4,312.6v-4.4c0-.5.3-.8.8-.8s.8.3.8.8v.3h0c.3-.7.9-1.1,1.8-1.1,1.3,0,2,.8,2,2.1v3c0,.5-.3.8-.8.8s-.8-.3-.8-.8v-2.7c0-.8-.3-1.2-1.1-1.2s-1.2.5-1.2,1.3v2.6c0,.5-.3.8-.8.8s-.8-.3-.8-.8h0Z"/>
        <path class="cls-10" d="M350.2,375.3c0-2.5,1.4-4,3.7-4s3.7,1.5,3.7,4-1.4,4-3.7,4-3.7-1.5-3.7-4ZM356,375.3c0-1.6-.8-2.7-2.1-2.7s-2.1,1-2.1,2.7.8,2.6,2.1,2.6,2.1-1,2.1-2.6Z"/>
        <path class="cls-10" d="M358.6,378.5v-4.4c0-.5.3-.8.8-.8s.7.3.7.8v.4h0c.1-.7.6-1.1,1.2-1.1s.4,0,.5.1.2.3.2.6,0,.4-.2.6-.4.2-.7.2c-.7,0-1,.4-1,1.1v2.6c0,.5-.3.8-.8.8s-.8-.3-.8-.8h0Z"/>
        <path class="cls-10" d="M362.2,377.5c0-1,.8-1.6,2.2-1.7h1.5v-.5c0-.5-.4-.9-1-.9s-.8.2-1.1.6c-.2.2-.4.3-.6.3-.4,0-.7-.2-.7-.6v-.4c.3-.7,1.2-1.1,2.4-1.1s2.4.8,2.4,1.9v3.3c0,.5-.3.8-.8.8s-.7-.2-.8-.7v-.3h0c-.3.6-1,1-1.8,1s-1.9-.7-1.9-1.8h.2ZM365.9,377.1v-.4h-1.2c-.6.1-.9.4-.9.8s.4.7.9.7,1.2-.5,1.2-1.1h0Z"/>
        <path class="cls-10" d="M368.5,378.5v-4.4c0-.5.3-.8.8-.8s.8.3.8.8v.3h0c.3-.7.9-1.1,1.8-1.1,1.3,0,2,.8,2,2.1v3c0,.5-.3.8-.8.8s-.8-.3-.8-.8v-2.7c0-.8-.4-1.2-1.1-1.2s-1.1.5-1.1,1.3v2.6c0,.5-.3.8-.8.8s-.8-.3-.8-.8h0Z"/>
        <path class="cls-10" d="M375,380.3c0-.1-.1-.3-.1-.4,0-.3.2-.6.6-.6s.4,0,.5.2c.4.4.8.6,1.4.6.9,0,1.4-.5,1.4-1.2v-.9h0c-.3.6-.9,1-1.8,1-1.4,0-2.3-1.1-2.3-2.9s.9-2.9,2.4-2.9,1.5.4,1.8,1.1h0v-.3c0-.5.3-.8.8-.8s.8.3.8.8v4.9c0,1.5-1.1,2.4-2.9,2.4s-2-.5-2.4-1.1h-.2ZM378.8,376.2c0-1-.5-1.7-1.3-1.7s-1.3.7-1.3,1.7.5,1.7,1.3,1.7,1.3-.6,1.3-1.7Z"/>
        <path class="cls-10" d="M381.1,376.3c0-1.9,1.1-3,2.8-3s2.7,1.1,2.7,2.7-.2.7-.7.7h-3.3c0,.9.5,1.5,1.3,1.5s1-.2,1.4-.7c.2-.2.3-.2.5-.2.3,0,.6.2.6.6s0,.2-.1.4c-.4.7-1.3,1.1-2.4,1.1-1.8,0-2.9-1.1-2.9-3h.1ZM385.1,375.7c0-.8-.5-1.2-1.2-1.2s-1.2.5-1.2,1.2h2.4Z"/>
        <path class="cls-10" d="M249.9,429.3v-5.7h-1.6c-.4,0-.7-.2-.7-.7s.3-.7.7-.7h4.8c.4,0,.7.2.7.7s-.3.7-.7.7h-1.6v5.7c0,.5-.3.8-.8.8s-.8-.3-.8-.8h0Z"/>
        <path class="cls-10" d="M253,428.4c0-1,.8-1.6,2.2-1.7h1.4v-.5c0-.5-.4-.9-1-.9s-.8.2-1.1.6c-.2.2-.4.3-.6.3-.4,0-.7-.2-.7-.6v-.4c.3-.7,1.2-1.1,2.4-1.1s2.4.8,2.4,1.9v3.3c0,.5-.3.8-.8.8s-.7-.2-.8-.7v-.3h0c-.3.6-1,1-1.8,1s-1.9-.7-1.9-1.8h.3ZM256.7,427.9v-.4h-1.2c-.6.1-.9.4-.9.8s.4.7.9.7,1.2-.5,1.2-1.1h0Z"/>
        <path class="cls-10" d="M259.3,429.3v-6.3c0-.5.3-.8.8-.8s.8.3.8.8v6.3c0,.5-.3.8-.8.8s-.8-.3-.8-.8Z"/>
        <path class="cls-10" d="M261.9,429.3v-6.3c0-.5.3-.8.8-.8s.8.3.8.8v6.3c0,.5-.3.8-.8.8s-.8-.3-.8-.8Z"/>
        <path class="cls-10" d="M266.9,429.1v-6.1c0-.5.3-.8.8-.8h2.6c1.5,0,2.4.8,2.4,1.9s-.6,1.6-1.5,1.7h0c1,.1,1.8.9,1.8,1.9s-1,2.2-2.7,2.2h-2.6c-.5,0-.8-.3-.8-.9h0ZM269.7,425.5c.9,0,1.4-.4,1.4-1s-.4-1-1.2-1h-1.3v2h1.2-.1ZM269.9,428.8c.9,0,1.4-.4,1.4-1.1s-.5-1.1-1.5-1.1h-1.4v2.2h1.5Z"/>
        <path class="cls-10" d="M273.6,427.1c0-1.9,1.1-3,2.9-3s2.9,1.1,2.9,3-1.1,3-2.9,3-2.9-1.1-2.9-3ZM277.7,427.1c0-1.1-.5-1.8-1.3-1.8s-1.3.7-1.3,1.8.5,1.8,1.3,1.8,1.3-.6,1.3-1.8Z"/>
        <path class="cls-10" d="M279.8,429.5c0-.2,0-.3.2-.5l1.4-1.8-1.3-1.8c-.1-.1-.2-.3-.2-.5,0-.4.3-.7.8-.7s.5.1.7.5l1.1,1.6h0l1-1.6c.2-.3.4-.5.7-.5s.7.3.7.7,0,.4-.2.5l-1.3,1.8,1.3,1.9c.1.2.2.3.2.5,0,.4-.3.7-.8.7s-.5-.1-.6-.4l-1.1-1.7h0l-1.1,1.7c-.2.3-.4.4-.6.4-.4,0-.7-.3-.7-.6h0l-.2-.2Z"/>
        <path class="cls-10" d="M786.4,312.3c0-.4,0-.8.3-1.4l5.6-15.2c.6-1.7,1.6-2.4,3.2-2.4s2.7.7,3.3,2.4l5.6,15.2c.2.5.3.9.3,1.4,0,1.2-.9,2-2.1,2s-1.8-.5-2.2-1.9l-1.1-3.2h-7.4l-1.1,3.2c-.4,1.4-1,1.9-2.2,1.9s-2.2-.8-2.2-2h0ZM798.2,305.9l-2.7-8.4h0l-2.7,8.4h5.5,0Z"/>
        <path class="cls-10" d="M116.4,365.4v-16c0-1.4.8-2.2,2.1-2.2h6.8c3.8,0,6.2,2,6.2,5.1s-1.7,4.1-3.8,4.4h0c2.8.3,4.8,2.3,4.8,5s-2.7,5.9-7.1,5.9h-6.9c-1.3,0-2.1-.8-2.1-2.2h0ZM123.8,355.6c2.3,0,3.6-1,3.6-2.7s-1.2-2.6-3.1-2.6h-3.5v5.3h3.1,0ZM124.4,364.4c2.5,0,3.8-1,3.8-3s-1.4-2.9-3.9-2.9h-3.6v5.9h3.7Z"/>
      </g>
    </g>
  </g>
</svg>