<?xml version="1.0" encoding="UTF-8"?>
<svg xmlns="http://www.w3.org/2000/svg" version="1.1" viewBox="0 0 896.3 794.7">
  <defs>
    <style>
      .cls-1 {
        fill: none;
        stroke: #fff;
        stroke-miterlimit: 10;
      }

      .cls-2 {
        fill: #3d3d3d;
      }

      .cls-3 {
        fill: #7e7f7e;
      }

      .cls-4 {
        fill: #fff;
      }

      .cls-5 {
        fill: #535353;
      }
    </style>
  </defs>
  <!-- Generator: Adobe Illustrator 28.6.0, SVG Export Plug-In . SVG Version: 1.2.0 Build 709)  -->
  <g>
    <g id="Layer_1">
      <g id="Body_Merge">
        <path class="cls-2" d="M881.5,94.3h-204.2V1.3h-204l-27.1,9-14,26.1-11.9,43.9-9,13v21h-234v78H42.3v55h19v89H1.3v115s3.8,27.1,29.8,33h104.2v-29h37v104l37,37v28.9h-37v34.2l179,85h58v49h137v-116h129v-111h-48v-7h189v-160h34l44-44V94.3h-12.8ZM842.3,223.3v-14h7v46h-59v-46h8v14h44ZM757.3,190.3v76h-22v-20h-23v-4h23v-35h-8v-58h-113v-15h121v56h22ZM741.3,505.3h-20v-20h20v20ZM527.3,320.3v50h-15v-86h-22v-7h95v-94h98v23l-7,9v15s17.9,13-4,32v72h-60v-14h-85ZM368.6,177.3h92.7v-85h53v133h15v15h-22v-15h-54v52h15v22h-22v-55h-89v-67h11.3ZM214.3,247.3v-70h110v56h-80v92h-80v-63h-70v-15h120ZM112.3,329.3h-14v-30h14v30ZM61.4,381.3v18h-23v-18h23ZM135.4,381.3v-15h94v15h58v-89h85v-22h29v29h-59v97h30v29h-78v15h-33v-30h0v-22h-75l-14,14v8h-37v-29h0ZM372.3,691.3v-81h-104v-15h11v-111h165.9v34h-58.9v82h0v10h54v7h-31v74h-37ZM418.4,549.3v4h-4v-4h4ZM414.4,579.3h4v4h-4v-4ZM535.5,633.3h-45.2v-212h-52v22.9h-29v-48h203v-45h8v74h70v9h-22v21.2l-11,11.7-14,21.1-6.8,3.1-1.2,8.6-8,7.3-30,9v50l-4,5h-5v5l-9,4v53h-43.8ZM840.2,320.3h-67.8v18h10c2.3,1.3,4,4.2,4,7.5s-1.6,6.1-4,7.5h-10v46h0v11h-8v-57h-31v-45h124v12h-17.2ZM867.2,149.3h-80.9v-15h86v15h-5.1Z"/>
      </g>
      <g id="Bombsite">
        <polygon class="cls-5" points="446.4 329 446.4 270.3 401.2 270.3 401.2 298.3 372.3 298.3 372.3 348.3 401.2 348.3 403.2 348.3 429.9 348.3 446.9 348.3 505.9 348.3 505.9 329 446.4 329"/>
        <rect class="cls-3" x="437.4" y="283.3" width="10" height="21"/>
        <rect class="cls-3" x="857.3" y="148.3" width="15.1" height="15.9"/>
        <path class="cls-5" d="M790.8,149.3h-4.4l-29,41v76h137v-117h-103.6ZM790.3,255.3v-46h8v14h44v-14h7v46h-59Z"/>
        <rect class="cls-3" x="812.3" y="254.2" width="15" height="16"/>
        <rect class="cls-3" x="857.5" y="148.6" width="14.5" height="15.3"/>
        <rect class="cls-5" x="61.3" y="299.3" width="37.1" height="99.3"/>
        <rect class="cls-5" x="96.7" y="328.8" width="15.2" height="69.8"/>
        <rect class="cls-5" x=".6" y="335.4" width="67.8" height="45.9"/>
      </g>
      <g id="Lines">
        <path class="cls-4" d="M685.3,321.3v12h-12.9v-12h12.9M686.3,320.3h-14.9v14h14.9v-14h0Z"/>
        <path class="cls-4" d="M826.3,255.2v14h-13v-14h13M827.3,254.2h-15v16h15v-16h0Z"/>
        <path class="cls-4" d="M871.3,149.2v14h-13.1v-14h13.1M872.3,148.2h-15.1v16h15.1v-16h0Z"/>
        <path class="cls-4" d="M734.3,121.3v13h-13v-13h13M735.3,120.3h-15v15h15v-15h0Z"/>
        <path class="cls-4" d="M677.3,1.3v36.9h-16V1.3h16M678.3.3h-18v38.9h18V.3h0Z"/>
        <path class="cls-4" d="M677.3,25.3v12.9h-16v-12.9h16M678.3,24.3h-18v14.9h18v-14.9h0Z"/>
        <path class="cls-4" d="M446.3,284.3v19h-8v-19h8M447.3,283.3h-10v21h10v-21h0Z"/>
        <path class="cls-4" d="M371.3,299.2v14h-29v-14h29M372.3,298.2h-31v16h31v-16h0Z"/>
        <path class="cls-4" d="M348.3,314.3v6h-6v-6h6M349.3,313.3h-8v8h8v-8h0Z"/>
        <path class="cls-4" d="M512.4,329.3v25h-6v-25h6M513.4,328.3h-8v27h8v-27h0Z"/>
        <path class="cls-4" d="M385.3,471.3v13h-12v-13h12M386.3,470.3h-14v15h14v-15h0Z"/>
        <path class="cls-4" d="M490.4,611.3v21h-14v-21h14M491.4,610.3h-16v23h16v-23h0Z"/>
        <path class="cls-4" d="M268.4,597.3v12h-14v-12h14M269.4,596.3h-16v14h16v-14h0Z"/>
        <path class="cls-4" d="M345.3,663.3v28h-13v-28h13M346.3,662.3h-15v30h15v-30h0Z"/>
        <path class="cls-4" d="M337.3,648.3v13h-5v-13h5M338.3,647.3h-7v15h7v-15h0Z"/>
        <path class="cls-4" d="M261.4,426.3v13h-14v-13h14M262.4,425.3h-16v15h16v-15h0Z"/>
        <path class="cls-4" d="M52.3,399.3v29h-13v-29h13M53.3,398.3h-15v31h15v-31h0Z"/>
        <path class="cls-4" d="M164.3,262.3v14h-13v-14h13M165.3,261.3h-15v16h15v-16h0Z"/>
        <path class="cls-4" d="M228.3,163.3v14h-13v-14h13M229.3,162.3h-15v16h15v-16h0Z"/>
        <rect class="cls-4" x="41.8" y="206.3" width="127.5" height="1"/>
        <polygon class="cls-4" points="112.3 398.3 112.3 329.1 111.3 329.1 111.3 398.3 61.2 398.3 61.2 399.3 111.3 399.3 112.3 399.3 112.3 399.3 112.3 398.3 112.3 398.3"/>
        <polygon class="cls-1" points="236.8 550.3 260.3 540.2 267.3 511.7 256.3 490.3 222.4 482.3 204.3 488.3 186.3 507.1 199.3 537.2 236.8 550.3"/>
        <rect class="cls-4" x="331.3" y="609.6" width="1" height="39.1"/>
        <polyline class="cls-1" points="641.8 1.3 641.8 15.1 661 30.4"/>
        <rect class="cls-4" x="841.3" y="93.7" width="1" height="41.4"/>
        <polygon class="cls-4" points="447.3 328.3 447.3 303.9 446.3 303.9 446.3 328.3 446.3 329.3 447.3 329.3 506.1 329.3 506.1 328.3 447.3 328.3"/>
        <path class="cls-1" d="M447.8,328.8h-1v-24.9h-8.9c-13.4,7.1-23.2,21.4-23.2,37.6,0,23.3,19,42.2,42.5,42.2s42.5-18.9,42.5-42.2-.6-8.9-1.8-12.7h-50.2.1Z"/>
        <polyline class="cls-1" points="665.8 457.2 676.8 490.9 676.8 500.3 666.7 507.8 661.3 507.8 655.8 502.8 655.8 500.3"/>
        <line class="cls-1" x1="676.8" y1="495.7" x2="626.9" y2="506.9"/>
        <polyline class="cls-1" points="741.3 504.8 792.9 504.8 793.8 485.8 757.9 485.8 750.8 483.8 743.8 483.8 740.6 486.5"/>
        <path class="cls-4" d="M689.3,411.3v14h-20v-14h20M690.3,410.3h-22v16h22v-16h0Z"/>
        <line class="cls-1" x1="786.9" y1="148.5" x2="756.6" y2="191.2"/>
        <path class="cls-4" d="M135.4,471.3v13h-14v-13h14M136.4,470.3h-16v15h16v-15h0Z"/>
        <path class="cls-4" d="M120.3,478.3v6h-7v-6h7M121.3,477.3h-9v8h9v-8h0Z"/>
        <path class="cls-4" d="M150.3,262.3v7h-7v-7h7M151.3,261.3h-9v9h9v-9h0Z"/>
        <rect class="cls-4" x="675.3" y="410.7" width="1" height="14.9"/>
      </g>
      <g id="Outlines">
        <path class="cls-4" d="M677.3,1.3v93h217v261l-44,44h-34v160h-189v7h48v111h-129v116h-137v-49h-58l-179-85v-34.2h37v-28.9l-37-37v-104h-37v29H31.1c-26-5.9-29.8-33-29.8-33v-115h60v-89h-19v-55h135v-78h234v-21l9-13,11.9-43.9,14-26.1,27.1-9h204M357.3,244.3h89v55h22v-22h-15v-52h54v15h22v-15h-15V92.3h-53v85h-104v67M786.3,149.3h86v-15h-86v15M614.3,149.3h113v58h8v35h-23v4h23v20h22v-76h-22v-56h-121v15M94.3,262.3h70v63h80v-92h80v-56h-110v70h-120v15M490.3,284.3h22v86h15v-50h85v14h60v-72c22-19,4-32,4-32v-15l7-9v-23h-98v94h-95v7M798.3,223.3v-14h-8v46h59v-46h-7v14h-44M229.3,381.3v-15h-94v44h37v-8l14-14h75v22h0v30h33v-15h78v-29h-30v-97h59v-29h-29v22h-85v89h-58M98.3,329.3h14v-30h-14v30M733.3,353.3h31v57h8v-11h0v-46h10c2.3-1.4,4-4.2,4-7.5s-1.6-6.1-4-7.5h-10v-18h85v-12h-124v45M503.9,396.3h-94.6v48h29v-22.9h52v212h89v-53l9-4v-5h5l4-5v-50l30-9,8-7.3,1.2-8.6,6.8-3.1,14-21.1,11-11.7v-21.2h22v-9h-70v-74h-8v45h-108.4M38.3,399.3h23v-18h-23v18M268.3,610.3h104v81h37v-74h31v-7h-54v-10h0v-82h58.9v-34h-165.9v111h-11v15M721.3,505.3h20v-20h-20v20M414.3,553.3h4v-4h-4v4M414.3,583.3h4v-4h-4v4M678.3.2h-205.3l-27.1,9h-.4c0,.1-.2.5-.2.5l-14,26.1h0v.2l-11.9,43.7-8.9,12.9-.2.3v20.3h-234v78H41.3v57.1h19v86.9H.3v116.2c0,.3,1,7.1,5.3,14.6,3.9,7,11.5,16.1,25.3,19.2h105.4v-29h34.9v103.4l.3.3,36.7,36.7v27.4h-37v35.9l.6.3,179,85h57.4v49h139.1v-116h129v-113.1h-48v-4.9h189v-160h33.4l.3-.3,44-44,.3-.3V93.2h-217V.2h0ZM462.4,93.3h50.9v133h15v12.9h-19.9v-15h-56.1v54.1h15v19.9h-19.9v-55h-89v-64.9h104v-85h0ZM787.4,135.3h83.9v12.9h-83.9v-12.9h0ZM615.4,135.3h118.9v56h22v73.9h-19.9v-20h-23v-1.9h23v-37.1h-8v-58h-113v-12.9h0ZM215.4,178.3h107.9v53.9h-80v92h-77.9v-63h-70v-12.9h120v-70h0ZM586.4,184.3h95.9v21.6l-6.8,8.7-.2.3v15.9l.4.3s6.2,4.6,6.5,11.9c.2,6-3.3,12.2-10.5,18.5l-.4.3v71.4h-57.9v-14h-87.1v50h-12.9v-86h-22v-4.9h95v-94h0ZM843.4,210.3h4.9v43.9h-56.9v-43.9h5.9v14h46.1v-14h0ZM373.4,271.3h26.9v26.9h-59v99.1h30v26.9h-78v15h-30.9v-30h0v-22h-76.5l-.3.3-14,14-.3.3v7.4h-34.9v-41.9h91.9v15h60.1v-89h85v-22h0ZM99.4,300.3h11.9v27.9h-11.9v-27.9h0ZM734.4,309.3h121.9v9.9h-84.9v20.1h10.8c2,1.2,3.2,3.8,3.2,6.5s-1.3,5.2-3.2,6.5h-10.7v57h-5.9v-57h-31v-42.9h-.2ZM613.4,352.3h5.9v74h70v6.9h-22v21.8l-10.7,11.4h0c0,.1-13.8,21-13.8,21l-6.6,3-.5.2v.6l-1.2,8.2-7.5,6.9-29.8,8.9-.8.2v50.4l-3.5,4.3h-5.5v5.3l-8.4,3.8-.6.3v52.6h-86.9v-212h-54.1v22.9h-26.9v-45.9h203v-45h0v.2ZM39.4,382.3h20.9v15.9h-20.9v-15.9h0ZM280.4,485.3h163.8v31.9h-58.9v84.1h0v10h54v4.9h-31v74h-34.9v-81h-104v-12.9h11v-111h0ZM722.3,486.3h17.9v17.9h-17.9v-17.9h0ZM415.4,550.3h1.9v1.9h-1.9v-1.9h0ZM415.4,580.3h1.9v1.9h-1.9v-1.9h0Z"/>
      </g>
      <g id="Callouts_copy">
        <path class="cls-4" d="M431.8,750.9c0-.2,0-.4.1-.6l2.5-6.8c.3-.7.7-1.1,1.4-1.1s1.2.3,1.5,1.1l2.5,6.8c0,.2.1.4.1.6,0,.5-.4.9-1,.9s-.8-.2-1-.8l-.5-1.5h-3.3l-.5,1.4c-.2.6-.5.9-1,.9s-1-.3-1-.9h.2ZM437.1,748l-1.2-3.8h0l-1.2,3.8h2.4Z"/>
        <path class="cls-4" d="M441,746.2h-.4c-.4,0-.7-.3-.7-.7s.3-.7.7-.7h.4v-.8c0-.6.4-1,.9-1s.9.4.9,1v.8h.6c.4,0,.7.3.7.7s-.3.7-.7.7h-.6v3.3c0,.5.2.7.6.7h.1c.5,0,.7.2.7.7s-.5.8-1.3.8h0c-1.2,0-1.9-.6-1.9-1.8v-3.7h0Z"/>
        <path class="cls-4" d="M445.6,746.2h-.4c-.4,0-.7-.3-.7-.7s.3-.7.7-.7h.4v-.8c0-.6.4-1,.9-1s.9.4.9,1v.8h.6c.4,0,.7.3.7.7s-.3.7-.7.7h-.6v3.3c0,.5.2.7.6.7h.1c.5,0,.7.2.7.7s-.5.8-1.3.8h0c-1.2,0-1.9-.6-1.9-1.8v-3.7h0Z"/>
        <path class="cls-4" d="M449.4,749.7c0-1.2,1-2,2.6-2.1h1.7v-.5c0-.6-.4-1-1.1-1s-.9.2-1.3.7c-.2.2-.4.3-.7.3-.5,0-.8-.3-.8-.7s0-.3.1-.4c.3-.8,1.4-1.3,2.8-1.3s2.9.9,2.9,2.3v3.9c0,.6-.4.9-.9.9s-.9-.3-.9-.8v-.3h0c-.4.7-1.2,1.2-2.1,1.2-1.3,0-2.3-.8-2.3-2.1h0ZM453.8,749.2v-.5h-1.4c-.7,0-1.1.5-1.1.9s.4.8,1,.8,1.5-.5,1.5-1.3h0Z"/>
        <path class="cls-4" d="M456.5,748.2c0-2.2,1.3-3.5,3.3-3.5s2.5.7,2.9,1.6c0,.2.1.3.1.5,0,.5-.4.7-.8.7s-.6-.2-.8-.5c-.3-.6-.8-.9-1.3-.9-.9,0-1.5.8-1.5,2.1s.6,2.1,1.5,2.1,1-.3,1.3-.8c.2-.4.5-.5.8-.5s.8.3.8.7,0,.3-.1.5c-.4.9-1.6,1.6-2.9,1.6-2,0-3.4-1.3-3.4-3.5h.1Z"/>
        <path class="cls-4" d="M463.9,750.8v-7.5c0-.6.4-1,.9-1s.9.3.9,1v4.2h0l2.5-2.5c.2-.3.5-.4.7-.4.5,0,.8.3.8.8s0,.5-.4.7l-1.7,1.6,1.9,2.4c.2.3.3.4.3.7,0,.5-.4.8-.9.8s-.6,0-.9-.6l-1.8-2.3-.6.5v1.4c0,.6-.4,1-.9,1s-.9-.3-.9-1h0v.2Z"/>
        <path class="cls-4" d="M470.3,748.3c0-2.2,1.3-3.6,3.3-3.6s3.2,1.3,3.2,3.2-.3.8-.8.8h-3.9c0,1.1.6,1.8,1.5,1.8s1.1-.2,1.6-.8c.2-.2.4-.3.6-.3.4,0,.7.2.7.7s0,.3-.1.5c-.5.8-1.5,1.3-2.8,1.3-2.1,0-3.4-1.3-3.4-3.5h0ZM475,747.5c0-.9-.6-1.5-1.4-1.5s-1.4.6-1.5,1.5h2.9Z"/>
        <path class="cls-4" d="M477.8,750.8v-5.2c0-.6.4-.9.9-.9s.9.3.9.9v.4h0c.2-.8.7-1.3,1.4-1.3s.4,0,.6.2c.2,0,.3.4.3.7s0,.5-.3.7-.4.2-.8.2c-.8,0-1.1.5-1.1,1.3v3c0,.6-.4,1-.9,1s-.9-.3-.9-1h-.1Z"/>
        <path class="cls-4" d="M485.1,750c0-.2-.1-.3-.1-.5,0-.5.4-.8.8-.8s.6.2.9.6c.3.7,1,1,1.9,1s1.7-.5,1.7-1.2-.4-1-1.6-1.2l-1-.2c-1.8-.4-2.7-1.2-2.7-2.6s1.5-2.8,3.5-2.8,2.9.7,3.3,1.9v.4c0,.5-.3.8-.8.8s-.7-.2-.9-.6c-.3-.7-.9-1-1.7-1s-1.6.4-1.6,1.1.4.9,1.5,1.1l1,.2c1.9.4,2.8,1.2,2.8,2.6s-1.4,2.9-3.7,2.9-3.1-.8-3.5-1.8h.2Z"/>
        <path class="cls-4" d="M493.3,753.1v-7.5c0-.6.4-1,.9-1s.9.3.9,1v.4h0c.4-.8,1.1-1.3,2.1-1.3,1.7,0,2.8,1.3,2.8,3.5s-1,3.5-2.8,3.5-1.8-.5-2.1-1.2h0v2.6c0,.6-.4,1-.9,1s-.9-.3-.9-1h0ZM498.1,748.2c0-1.2-.6-2-1.5-2s-1.5.8-1.5,2,.6,2,1.5,2,1.5-.8,1.5-2Z"/>
        <path class="cls-4" d="M500.7,749.7c0-1.2,1-2,2.6-2.1h1.7v-.5c0-.6-.4-1-1.1-1s-.9.2-1.3.7c-.2.2-.4.3-.7.3-.5,0-.8-.3-.8-.7v-.4c.3-.8,1.4-1.3,2.8-1.3s2.9.9,2.9,2.3v3.9c0,.6-.4.9-.9.9s-.9-.3-.9-.8v-.3h0c-.4.7-1.2,1.2-2.1,1.2-1.3,0-2.3-.8-2.3-2.1h0ZM505.1,749.2v-.5h-1.4c-.7,0-1.1.5-1.1.9s.4.8,1,.8,1.5-.5,1.5-1.3h0Z"/>
        <path class="cls-4" d="M509.2,750.8l-1.4-4.7c0-.2-.1-.4-.1-.6,0-.5.4-.8.9-.8s.8.3.9.8l1,4.4h0l1-4.3c.1-.5.5-.8,1.1-.8s.9.3,1,.8l1.1,4.3h0l1-4.4c0-.5.4-.8.9-.8s.9.3.9.8v.6l-1.4,4.8c-.2.7-.5,1-1.2,1s-1-.3-1.2-1l-1-4h0l-1,4c-.2.7-.5,1-1.2,1s-1-.3-1.2-1h0Z"/>
        <path class="cls-4" d="M518.3,750.8v-5.2c0-.6.3-.9.9-.9s.9.4.9.9v.4h0c.4-.8,1-1.3,2.1-1.3s2.4,1,2.4,2.5v3.5c0,.6-.4,1-.9,1s-.9-.3-.9-1v-3.2c0-.9-.4-1.4-1.2-1.4s-1.4.6-1.4,1.5v3.1c0,.6-.4,1-.9,1s-.9-.3-.9-1h0Z"/>
        <path class="cls-4" d="M857.9,116.9v-5.5c0-.5.3-.8.7-.8h2c2.1,0,3.4,1.3,3.4,3.5s-1.2,3.6-3.4,3.6h-2c-.5,0-.7-.3-.7-.8ZM860.4,116.4c1.3,0,2-.8,2-2.3s-.7-2.3-2-2.3h-1v4.6s1,0,1,0Z"/>
        <path class="cls-4" d="M864.8,117v-4c0-.4.3-.7.7-.7s.7.3.7.7v.3h0c0-.7.6-1,1.1-1s.3,0,.4,0c0,0,.2.3.2.5s0,.4-.2.5-.3.2-.6.2c-.7,0-.9.4-.9,1v2.3c0,.5-.3.7-.7.7s-.7-.3-.7-.7h0Z"/>
        <path class="cls-4" d="M868.1,115c0-1.7,1-2.7,2.6-2.7s2.6,1,2.6,2.7-1,2.7-2.6,2.7-2.6-1-2.6-2.7ZM871.8,115c0-1-.5-1.6-1.1-1.6s-1.2.6-1.2,1.6.4,1.6,1.2,1.6,1.1-.6,1.1-1.6Z"/>
        <path class="cls-4" d="M874,118.8v-5.7c0-.5.3-.7.7-.7s.7.2.7.7v.3h0c.3-.6.9-1,1.6-1,1.3,0,2.1,1,2.1,2.7s-.8,2.7-2.1,2.7-1.3-.4-1.6-1h0v2c0,.5-.3.7-.7.7s-.7-.2-.7-.7h0ZM877.7,115c0-.9-.5-1.6-1.2-1.6s-1.2.6-1.2,1.6.5,1.6,1.2,1.6,1.2-.6,1.2-1.6Z"/>
        <path class="cls-4" d="M666.7,169.2v-.4c0-.4.3-.6.7-.6s.5.1.7.4c.2.5.8.8,1.5.8s1.3-.4,1.3-.9-.3-.7-1.2-.9h-.8c-1.4-.4-2.1-1.1-2.1-2.1s1.1-2.1,2.7-2.1,2.3.5,2.6,1.5v.3c0,.4-.2.6-.6.6s-.5-.1-.7-.4c-.2-.5-.7-.8-1.3-.8s-1.2.3-1.2.9.3.7,1.2.9h.7c1.5.4,2.1,1,2.1,2.1s-1.1,2.2-2.8,2.2-2.4-.6-2.7-1.4h-.1Z"/>
        <path class="cls-4" d="M673.4,166.3h-.3c-.3,0-.5-.2-.5-.5s.2-.5.5-.5h.3v-.6c0-.5.3-.7.7-.7s.7.3.7.7v.6h.5c.3,0,.5.2.5.5s-.2.5-.5.5h-.5v2.5c0,.4,0,.5.4.6h0c.3,0,.5.2.5.5s-.4.6-1,.6h0c-1,0-1.4-.5-1.4-1.4v-2.8h0Z"/>
        <path class="cls-4" d="M676.3,168.9c0-.9.7-1.5,2-1.6h1.3v-.4c0-.5-.3-.8-.9-.8s-.7.1-1,.6c-.2.2-.3.3-.6.3s-.6-.2-.6-.6,0-.2,0-.3c.2-.6,1.1-1,2.2-1s2.2.7,2.2,1.8v3c0,.5-.3.7-.7.7s-.7-.2-.7-.6v-.3h0c-.3.6-1,.9-1.6.9-1,0-1.8-.6-1.8-1.6h.2ZM679.6,168.5v-.4h-1.1c-.5.1-.8.4-.8.7s.3.6.8.6,1.1-.4,1.1-1h0Z"/>
        <path class="cls-4" d="M681.9,163.8c0-.4.3-.7.8-.7s.8.3.8.7-.3.7-.8.7-.8-.3-.8-.7ZM682,169.8v-4c0-.5.3-.8.7-.8s.7.3.7.8v4c0,.5-.3.7-.7.7s-.7-.3-.7-.7Z"/>
        <path class="cls-4" d="M684.4,169.8v-4c0-.4.3-.7.7-.7s.7.3.7.7v.3h0c0-.6.6-1,1.1-1s.3,0,.4.1c0,.1.2.3.2.5s0,.4-.2.5-.3.2-.6.2c-.7,0-.9.4-.9,1v2.3c0,.5-.3.7-.7.7s-.7-.3-.7-.7h0Z"/>
        <path class="cls-4" d="M687.9,169.5v-.3c0-.3.2-.6.6-.6s.4.1.6.3c.3.4.6.5,1.1.5s.8-.2.8-.6-.2-.4-.7-.6l-.9-.2c-1-.2-1.5-.7-1.5-1.5s.9-1.6,2.2-1.6,1.9.5,2,1.1v.2c0,.3-.2.5-.5.5s-.4,0-.5-.2c-.2-.3-.5-.6-1-.6s-.8.2-.8.6.2.4.7.6l.9.2c1.1.2,1.6.6,1.6,1.4s-.9,1.7-2.3,1.7-2-.4-2.2-1h0Z"/>
        <path class="cls-4" d="M465.9,312.6v-3.9c0-.5.3-.8.7-.8s.7.3.7.8v3.7c0,.9.5,1.5,1.5,1.5s1.5-.6,1.5-1.5v-3.7c0-.5.3-.8.7-.8s.7.3.7.8v3.9c0,1.5-1.1,2.6-3,2.6s-3-1-3-2.6h.2Z"/>
        <path class="cls-4" d="M472.9,316.3v-5.7c0-.5.3-.7.7-.7s.7.2.7.7v.3h0c.3-.6.9-1,1.6-1,1.3,0,2.1,1,2.1,2.7s-.8,2.7-2.1,2.7-1.4-.4-1.6-1h0v2c0,.5-.3.7-.7.7s-.7-.2-.7-.7h0ZM476.6,312.5c0-1-.5-1.6-1.2-1.6s-1.2.6-1.2,1.6.5,1.5,1.2,1.5,1.2-.6,1.2-1.5Z"/>
        <path class="cls-4" d="M478.8,316.3v-5.7c0-.5.3-.7.7-.7s.7.2.7.7v.3h0c.3-.6.9-1,1.6-1,1.3,0,2.1,1,2.1,2.7s-.8,2.7-2.1,2.7-1.4-.4-1.6-1h0v2c0,.5-.3.7-.7.7s-.7-.2-.7-.7h0ZM482.5,312.5c0-1-.5-1.6-1.2-1.6s-1.2.6-1.2,1.6.5,1.5,1.2,1.5,1.2-.6,1.2-1.5Z"/>
        <path class="cls-4" d="M484.5,312.5c0-1.7,1-2.8,2.5-2.8s2.5,1,2.5,2.4-.2.6-.6.6h-3c0,.8.5,1.3,1.2,1.3s.9-.2,1.2-.6c.1-.2.3-.2.5-.2.3,0,.6.2.6.5s0,.2-.1.4c-.4.6-1.2,1-2.2,1-1.6,0-2.6-1-2.6-2.7h0ZM488.2,312c0-.7-.5-1.1-1.1-1.1s-1.1.5-1.1,1.1h2.2Z"/>
        <path class="cls-4" d="M490.3,314.5v-4c0-.5.3-.7.7-.7s.7.3.7.7v.3h0c.1-.6.6-1,1.1-1s.3,0,.4.1.2.3.2.5,0,.4-.2.5-.3.2-.6.2c-.6,0-.9.4-.9,1v2.3c0,.5-.3.7-.7.7s-.7-.3-.7-.7h0Z"/>
        <path class="cls-4" d="M757.9,534.5v-5.6c0-.5.3-.8.7-.8h2.2c1.6,0,2.5.9,2.5,2.2s-.4,1.6-1.2,2l1,1.8c0,.2.2.3.2.5,0,.4-.3.7-.7.7s-.5,0-.8-.6l-1.2-2.1h-1.2v1.9c0,.5-.3.8-.7.8s-.7-.3-.7-.8h0ZM760.7,531.5c.7,0,1.2-.4,1.2-1.1s-.5-1.1-1.2-1.1h-1.2v2.2h1.3,0Z"/>
        <path class="cls-4" d="M764.2,533.3v-2.7c0-.5.3-.8.7-.8s.7.3.7.8v2.4c0,.7.3,1.1,1,1.1s1-.5,1-1.2v-2.4c0-.5.3-.8.7-.8s.7.3.7.8v4c0,.5-.3.7-.7.7s-.7-.2-.7-.7v-.3h0c-.3.7-.8,1-1.6,1s-1.9-.7-1.9-2h0Z"/>
        <path class="cls-4" d="M770,534.5v-5.8c0-.5.3-.8.7-.8s.7.3.7.8v2.1h0c.3-.6.9-1,1.6-1,1.3,0,2.1,1,2.1,2.7s-.8,2.7-2.1,2.7-1.3-.4-1.6-1h0v.3c0,.5-.3.7-.7.7s-.7-.2-.7-.7h0ZM773.7,532.5c0-1-.4-1.6-1.2-1.6s-1.2.6-1.2,1.6.5,1.5,1.2,1.5,1.2-.6,1.2-1.5Z"/>
        <path class="cls-4" d="M776,534.5v-5.8c0-.5.3-.8.7-.8s.7.3.7.8v2.1h0c.3-.6.9-1,1.6-1,1.3,0,2.1,1,2.1,2.7s-.8,2.7-2.1,2.7-1.3-.4-1.6-1h0v.3c0,.5-.3.7-.7.7s-.7-.2-.7-.7h0ZM779.7,532.5c0-1-.4-1.6-1.2-1.6s-1.2.6-1.2,1.6.5,1.5,1.2,1.5,1.2-.6,1.2-1.5Z"/>
        <path class="cls-4" d="M781.9,534.5v-5.8c0-.5.3-.8.7-.8s.7.3.7.8v5.8c0,.5-.3.7-.7.7s-.7-.2-.7-.7Z"/>
        <path class="cls-4" d="M784.1,532.6c0-1.7,1-2.8,2.5-2.8s2.5,1,2.5,2.4-.2.6-.6.6h-3c0,.8.5,1.3,1.2,1.3s.9-.2,1.2-.6c.2-.2.3-.2.5-.2.3,0,.6.2.6.5v.3c-.3.6-1.2,1-2.2,1-1.6,0-2.6-1-2.6-2.7h0v.2ZM787.8,532c0-.7-.5-1.1-1.1-1.1s-1.1.5-1.1,1.1h2.2,0Z"/>
        <path class="cls-4" d="M553.7,360.3v-.5l1.9-5.2c.2-.6.5-.8,1.1-.8s.9.2,1.1.8l1.9,5.2v.5c0,.4-.3.7-.7.7s-.6-.2-.8-.6l-.4-1.1h-2.5l-.4,1.1c0,.5-.4.7-.8.7s-.8-.3-.8-.7h.4ZM557.7,358.1l-.9-2.9h0l-.9,2.9h1.9,0Z"/>
        <path class="cls-4" d="M562.8,360.1v-5.6c0-.5.3-.8.7-.8s.7.3.7.8v5.1h2.5c.4,0,.7.2.7.6s-.3.6-.7.6h-3.2c-.5,0-.7-.3-.7-.8h0Z"/>
        <path class="cls-4" d="M568.1,354.2c0-.4.3-.7.8-.7s.8.3.8.7-.3.7-.8.7-.8-.3-.8-.7ZM568.2,360.2v-4c0-.5.3-.8.7-.8s.7.3.7.8v4c0,.5-.3.7-.7.7s-.7-.3-.7-.7Z"/>
        <path class="cls-4" d="M570.5,360.2v-4c0-.4.3-.7.7-.7s.7.3.7.7v.3h0c.3-.6.8-1,1.6-1,1.2,0,1.8.7,1.8,2v2.7c0,.5-.3.7-.7.7s-.7-.2-.7-.7v-2.4c0-.7-.3-1.1-1-1.1s-1,.5-1,1.1v2.4c0,.5-.3.7-.7.7s-.7-.2-.7-.7h0Z"/>
        <path class="cls-4" d="M576.3,360.2v-5.8c0-.5.3-.8.7-.8s.7.3.7.8v3.2h0l1.9-1.9c.2-.2.3-.3.6-.3s.6.3.6.6,0,.4-.3.5l-1.3,1.3,1.5,1.9c.2.2.2.3.2.5,0,.4-.3.6-.7.6s-.5-.1-.7-.4l-1.3-1.8-.5.4v1.1c0,.5-.3.7-.7.7s-.7-.2-.7-.7h0Z"/>
        <path class="cls-4" d="M648.9,491.6v-5.6c0-.5.3-.8.7-.8h2.2c1.6,0,2.5.9,2.5,2.2s-.4,1.6-1.2,2l1,1.8c0,.2.2.3.2.5,0,.4-.3.7-.7.7s-.5-.1-.8-.6l-1.2-2.1h-1.2v1.9c0,.5-.3.8-.7.8s-.7-.3-.7-.8h0ZM651.6,488.6c.7,0,1.2-.4,1.2-1.1s-.5-1.1-1.2-1.1h-1.2v2.2h1.3,0Z"/>
        <path class="cls-4" d="M654.9,489.6c0-1.7,1-2.7,2.6-2.7s2.6,1,2.6,2.7-1,2.7-2.6,2.7-2.6-1-2.6-2.7ZM658.7,489.6c0-1-.5-1.6-1.1-1.6s-1.2.6-1.2,1.6.4,1.6,1.2,1.6,1.1-.6,1.1-1.6Z"/>
        <path class="cls-4" d="M660.7,489.6c0-1.7,1-2.7,2.6-2.7s2.6,1,2.6,2.7-1,2.7-2.6,2.7-2.6-1-2.6-2.7ZM664.4,489.6c0-1-.5-1.6-1.1-1.6s-1.2.6-1.2,1.6.4,1.6,1.2,1.6,1.1-.6,1.1-1.6Z"/>
        <path class="cls-4" d="M667,488.1h-.3c-.3,0-.5-.2-.5-.5s.2-.5.5-.5h.3v-.6c0-.5.3-.7.7-.7s.7.3.7.7v.6h.5c.3,0,.5.2.5.5s-.2.5-.5.5h-.5v2.5c0,.4,0,.5.4.5h0c.3,0,.5.2.5.5s-.4.6-1,.6h0c-1,0-1.4-.5-1.4-1.4v-2.8h0Z"/>
        <path class="cls-4" d="M683.6,379.5v-.5l1.9-5.2c.2-.6.5-.8,1.1-.8s.9.2,1.1.8l1.9,5.2v.5c0,.4-.3.7-.7.7s-.6-.2-.8-.6l-.4-1.1h-2.5l-.4,1.1c0,.5-.4.7-.8.7s-.8-.3-.8-.7h.4ZM687.7,377.3l-.9-2.9h0l-.9,2.9h1.9,0Z"/>
        <path class="cls-4" d="M692.8,379.5v-5.6c0-.6.3-1,1-1s.8.2,1,.8l1.8,4.3h0l1.7-4.3c.2-.5.5-.8,1-.8s1,.4,1,1v5.6c0,.4-.2.7-.7.7s-.7-.2-.7-.7v-4.2h0l-1.7,4.3c0,.3-.3.5-.6.5s-.5-.1-.6-.4l-1.7-4.3h0v4.2c0,.4-.2.7-.7.7s-.7-.2-.7-.7h0Z"/>
        <path class="cls-4" d="M701,378.6c0-1,.7-1.5,2-1.6h1.3v-.4c0-.5-.3-.8-.9-.8s-.7.1-1,.5c-.2.2-.3.3-.6.3s-.6-.2-.6-.5v-.3c.2-.6,1.1-1,2.2-1s2.2.7,2.2,1.8v3c0,.5-.3.7-.7.7s-.7-.2-.7-.6v-.3h0c-.3.6-1,.9-1.6.9-1,0-1.8-.6-1.8-1.6h.2ZM704.3,378.2v-.4h-1.1c-.5.1-.8.4-.8.7s.3.6.8.6,1.1-.4,1.1-1h0Z"/>
        <path class="cls-4" d="M706.7,373.5c0-.4.3-.7.8-.7s.8.3.8.7-.3.7-.8.7-.8-.3-.8-.7ZM706.7,379.5v-4c0-.5.3-.8.7-.8s.7.3.7.8v4c0,.5-.3.7-.7.7s-.7-.3-.7-.7Z"/>
        <path class="cls-4" d="M709.1,379.5v-4c0-.4.3-.7.7-.7s.7.3.7.7v.3h0c.3-.6.8-1,1.6-1,1.2,0,1.8.7,1.8,2v2.7c0,.5-.3.7-.7.7s-.7-.2-.7-.7v-2.4c0-.7-.3-1.1-1-1.1s-1,.5-1,1.1v2.4c0,.5-.3.7-.7.7s-.7-.2-.7-.7h0Z"/>
        <path class="cls-4" d="M813.5,361.8v-5.1h-1.5c-.4,0-.7-.2-.7-.6s.3-.6.7-.6h4.4c.4,0,.7.2.7.6s-.3.6-.7.6h-1.5v5.1c0,.5-.3.8-.7.8s-.7-.3-.7-.8h0Z"/>
        <path class="cls-4" d="M817,361.8v-4c0-.5.3-.7.7-.7s.7.3.7.7v.3h0c0-.6.6-1,1.1-1s.3,0,.4.1c0,.1.2.3.2.5s0,.4-.2.5-.3.2-.6.2c-.7,0-.9.4-.9,1v2.3c0,.5-.3.7-.7.7s-.7-.3-.7-.7h0Z"/>
        <path class="cls-4" d="M820.3,359.8c0-1.7,1-2.8,2.5-2.8s2.5,1,2.5,2.4-.2.6-.6.6h-3c0,.8.5,1.3,1.2,1.3s.9-.2,1.2-.6c.2-.2.3-.2.5-.2.3,0,.6.2.6.5v.4c-.3.6-1.2,1-2.2,1-1.6,0-2.6-1-2.6-2.7h-.1ZM823.9,359.3c0-.7-.5-1.1-1.1-1.1s-1.1.5-1.1,1.1h2.2,0Z"/>
        <path class="cls-4" d="M825.8,359.8c0-1.7,1-2.8,2.5-2.8s2.5,1,2.5,2.4-.2.6-.6.6h-3c0,.8.5,1.3,1.2,1.3s.9-.2,1.2-.6c.2-.2.3-.2.5-.2.3,0,.6.2.6.5v.4c-.3.6-1.2,1-2.2,1-1.6,0-2.6-1-2.6-2.7h-.1ZM829.5,359.3c0-.7-.5-1.1-1.1-1.1s-1.1.5-1.1,1.1h2.2,0Z"/>
        <path class="cls-4" d="M506.1,53.5v-7.2c0-.6.4-1,1-1h2.5c2.7,0,4.4,1.6,4.4,4.5s-1.6,4.6-4.4,4.6h-2.5c-.6,0-1-.4-1-1h0ZM509.4,52.9c1.7,0,2.6-1,2.6-3s-1-3-2.6-3h-1.4v6h1.4Z"/>
        <path class="cls-4" d="M514.8,51.1c0-2.2,1.3-3.6,3.3-3.6s3.2,1.3,3.2,3.2-.3.8-.8.8h-3.9c0,1.1.6,1.8,1.5,1.8s1.1-.2,1.6-.8c.2-.2.4-.3.6-.3.4,0,.7.2.7.7s0,.3,0,.5c-.5.8-1.5,1.3-2.8,1.3-2.1,0-3.4-1.3-3.4-3.5h.1ZM519.5,50.4c0-.9-.6-1.5-1.4-1.5s-1.4.6-1.5,1.5h2.9Z"/>
        <path class="cls-4" d="M522.8,53.6v-4.6h-.4c-.4,0-.7-.2-.7-.7s.3-.7.7-.7h.4v-.5c0-1.3.7-1.9,1.9-2,1,0,1.4.3,1.4.8s0,.4-.4.5h-.4c-.6,0-.8.2-.8.8v.4h.8c.4,0,.7.2.7.7s-.3.7-.7.7h-.7v4.6c0,.6-.4,1-.9,1s-.9-.3-.9-1h0Z"/>
        <path class="cls-4" d="M526.4,51.1c0-2.2,1.3-3.6,3.3-3.6s3.2,1.3,3.2,3.2-.3.8-.8.8h-3.9c0,1.1.6,1.8,1.5,1.8s1.1-.2,1.6-.8c.2-.2.4-.3.6-.3.4,0,.7.2.7.7s0,.3,0,.5c-.5.8-1.5,1.3-2.8,1.3-2.1,0-3.4-1.3-3.4-3.5h.1ZM531.2,50.4c0-.9-.6-1.5-1.4-1.5s-1.4.6-1.5,1.5h2.9Z"/>
        <path class="cls-4" d="M533.9,53.6v-5.2c0-.6.3-.9.9-.9s.9.4.9.9v.4h0c.4-.8,1-1.3,2.1-1.3s2.4,1,2.4,2.5v3.5c0,.6-.4,1-.9,1s-.9-.3-.9-1v-3.2c0-.9-.4-1.4-1.2-1.4s-1.4.6-1.4,1.5v3.1c0,.6-.4,1-.9,1s-.9-.3-.9-1h0Z"/>
        <path class="cls-4" d="M541.2,51.1c0-2.2,1.1-3.5,2.8-3.5s1.8.5,2.1,1.3h0v-2.7c0-.6.4-1,.9-1s.9.3.9,1v7.5c0,.6-.4.9-.9.9s-.9-.3-.9-.9v-.4h0c-.3.8-1,1.3-2.1,1.3-1.7,0-2.8-1.3-2.8-3.5h0ZM546.1,51.1c0-1.2-.6-2-1.5-2s-1.5.8-1.5,2,.6,2,1.5,2,1.5-.8,1.5-2Z"/>
        <path class="cls-4" d="M548.9,51.1c0-2.2,1.3-3.6,3.3-3.6s3.2,1.3,3.2,3.2-.3.8-.8.8h-3.9c0,1.1.6,1.8,1.5,1.8s1.1-.2,1.6-.8c.2-.2.4-.3.6-.3.4,0,.7.2.7.7s0,.3,0,.5c-.5.8-1.5,1.3-2.8,1.3-2.1,0-3.4-1.3-3.4-3.5h.1ZM553.6,50.4c0-.9-.6-1.5-1.4-1.5s-1.4.6-1.5,1.5h2.9Z"/>
        <path class="cls-4" d="M556.4,53.6v-5.2c0-.6.4-.9.9-.9s.9.3.9.9v.4h0c.2-.8.7-1.3,1.4-1.3s.4,0,.6.2c.2,0,.3.4.3.7s0,.5-.3.7-.4.2-.8.2c-.8,0-1.1.5-1.1,1.3v3c0,.6-.4,1-.9,1s-.9-.3-.9-1h-.1Z"/>
        <path class="cls-4" d="M563.7,52.9v-.5c0-.5.3-.8.8-.8s.7.2.9.6c.3.7,1,1,1.9,1s1.7-.5,1.7-1.2-.4-1-1.6-1.2l-1-.2c-1.8-.4-2.7-1.2-2.7-2.6s1.5-2.8,3.5-2.8,2.9.7,3.3,1.9v.4c0,.5-.3.8-.8.8s-.7-.2-.9-.6c-.3-.7-.9-1-1.7-1s-1.6.4-1.6,1.1.4.9,1.5,1.1l1,.2c1.9.4,2.8,1.2,2.8,2.6s-1.4,2.9-3.7,2.9-3.1-.8-3.5-1.8h0Z"/>
        <path class="cls-4" d="M571.9,55.9v-7.5c0-.6.4-1,.9-1s.9.3.9,1v.4h0c.4-.8,1.1-1.3,2.1-1.3,1.7,0,2.8,1.3,2.8,3.5s-1,3.5-2.8,3.5-1.8-.5-2.1-1.2h0v2.6c0,.6-.4,1-.9,1s-.9-.3-.9-1h0ZM576.7,51.1c0-1.2-.6-2-1.5-2s-1.5.8-1.5,2,.6,2,1.5,2,1.5-.8,1.5-2Z"/>
        <path class="cls-4" d="M579.3,52.5c0-1.2,1-2,2.7-2.1h1.7v-.5c0-.6-.4-1-1.1-1s-.9.2-1.3.7c-.2.2-.4.3-.7.3-.5,0-.8-.3-.8-.7v-.4c.3-.8,1.4-1.3,2.8-1.3s2.9.9,2.9,2.3v3.9c0,.6-.4.9-.9.9s-.8-.3-.9-.8v-.3h0c-.4.7-1.2,1.2-2.1,1.2-1.3,0-2.3-.8-2.3-2.1h0ZM583.7,52v-.5h-1.4c-.7,0-1.1.5-1.1.9s.4.8,1,.8,1.5-.5,1.5-1.3h0Z"/>
        <path class="cls-4" d="M587.8,53.6l-1.4-4.7v-.6c0-.5.4-.8.9-.8s.8.3.9.8l1,4.4h0l1-4.3c0-.5.5-.8,1-.8s.9.3,1,.8l1.1,4.3h0l1-4.4c0-.5.4-.8.9-.8s.9.3.9.8v.6l-1.4,4.8c-.2.7-.5,1-1.2,1s-1-.3-1.2-1l-1-4h0l-1,4c-.2.7-.5,1-1.2,1s-1-.3-1.2-1h0Z"/>
        <path class="cls-4" d="M596.9,53.6v-5.2c0-.6.3-.9.9-.9s.9.4.9.9v.4h0c.4-.8,1-1.3,2.1-1.3s2.4,1,2.4,2.5v3.5c0,.6-.4,1-.9,1s-.9-.3-.9-1v-3.2c0-.9-.4-1.4-1.2-1.4s-1.4.6-1.4,1.5v3.1c0,.6-.4,1-.9,1s-.9-.3-.9-1h0Z"/>
        <path class="cls-4" d="M192.4,349.5l-1.5-5.3v-.5c0-.4.3-.7.7-.7s.6.2.7.6l1.1,4.6h0l1.2-4.5c.1-.5.4-.7.8-.7s.6.2.8.6l1.2,4.5h0l1.1-4.6c0-.4.3-.6.7-.6s.7.2.7.7v.5l-1.5,5.3c-.1.5-.4.7-.9.7s-.7-.2-.9-.8l-1.2-4.2h0l-1.2,4.2c-.1.5-.4.8-.9.8s-.7-.2-.9-.8h0v.2Z"/>
        <path class="cls-4" d="M199.8,348.7c0-1,.7-1.5,2-1.6h1.3v-.4c0-.5-.3-.8-.9-.8s-.7.1-1,.5c-.2.2-.3.3-.6.3s-.6-.2-.6-.5v-.3c.2-.6,1.1-1,2.2-1s2.2.7,2.2,1.8v3c0,.5-.3.7-.7.7s-.6-.2-.7-.6v-.3h0c-.3.6-.9.9-1.6.9-1,0-1.8-.6-1.8-1.6h.2ZM203.1,348.3v-.4h-1.1c-.5.1-.8.4-.8.7s.3.6.8.6,1.1-.4,1.1-1h0Z"/>
        <path class="cls-4" d="M205.8,346h-.3c-.3,0-.6-.2-.6-.5s.2-.5.6-.5h.3v-.6c0-.5.3-.7.7-.7s.7.3.7.7v.6h.5c.3,0,.6.2.6.5s-.2.5-.6.5h-.5v2.5c0,.4.1.5.4.5h0c.4,0,.5.2.5.5s-.4.6-1,.6h0c-.9,0-1.4-.5-1.4-1.4v-2.8h.1Z"/>
        <path class="cls-4" d="M208.7,347.6c0-1.7,1-2.8,2.5-2.8s2.5,1,2.5,2.4-.2.6-.6.6h-3c0,.8.5,1.3,1.2,1.3s.9-.2,1.2-.6c.1-.2.3-.2.5-.2.3,0,.6.2.6.5s0,.2-.1.4c-.4.6-1.2,1-2.2,1-1.6,0-2.6-1-2.6-2.7h0ZM212.4,347c0-.7-.5-1.1-1.1-1.1s-1.1.5-1.1,1.1h2.2Z"/>
        <path class="cls-4" d="M214.5,349.6v-4c0-.5.3-.7.7-.7s.7.3.7.7v.3h0c.1-.6.6-1,1.1-1s.3,0,.4.1c.1.1.2.3.2.5s0,.4-.2.5-.3.2-.6.2c-.6,0-.9.4-.9,1v2.3c0,.5-.3.7-.7.7s-.7-.3-.7-.7h0Z"/>
        <path class="cls-4" d="M218.5,349.6v-3.5h-.3c-.3,0-.5-.2-.5-.5s.2-.5.5-.5h.3v-.4c0-1,.5-1.5,1.5-1.5s1.1.2,1.1.6-.1.3-.3.4h-.3c-.4,0-.6.2-.6.6v.3h.6c.3,0,.5.2.5.5s-.2.5-.5.5h-.6v3.5c0,.5-.3.7-.7.7s-.7-.2-.7-.7h0Z"/>
        <path class="cls-4" d="M221.2,348.7c0-1,.7-1.5,2-1.6h1.3v-.4c0-.5-.3-.8-.9-.8s-.7.1-1,.5c-.2.2-.3.3-.6.3s-.6-.2-.6-.5v-.3c.2-.6,1.1-1,2.2-1s2.2.7,2.2,1.8v3c0,.5-.3.7-.7.7s-.6-.2-.7-.6v-.3h0c-.3.6-.9.9-1.6.9-1,0-1.8-.6-1.8-1.6h.2ZM224.6,348.3v-.4h-1.1c-.5.1-.8.4-.8.7s.3.6.8.6,1.1-.4,1.1-1h0Z"/>
        <path class="cls-4" d="M226.9,349.6v-5.8c0-.5.3-.8.7-.8s.7.3.7.8v5.8c0,.5-.3.7-.7.7s-.7-.2-.7-.7Z"/>
        <path class="cls-4" d="M229.4,349.6v-5.8c0-.5.3-.8.7-.8s.7.3.7.8v5.8c0,.5-.3.7-.7.7s-.7-.2-.7-.7Z"/>
        <path class="cls-4" d="M12.7,448v-5.5c0-.5.3-.8.7-.8h3.3c.4,0,.7.2.7.6s-.3.6-.7.6h-2.6v1.7h2.5c.4,0,.6.2.6.6s-.2.6-.6.6h-2.5v1.8h2.6c.4,0,.7.2.7.6s-.3.6-.7.6h-3.4c-.5,0-.7-.3-.7-.8h.1Z"/>
        <path class="cls-4" d="M18.4,448.1v-5.8c0-.5.3-.8.7-.8s.7.3.7.8v5.8c0,.5-.3.7-.7.7s-.7-.2-.7-.7Z"/>
        <path class="cls-4" d="M20.8,448.1v-5.8c0-.5.3-.8.7-.8s.7.3.7.8v2.1h0c.3-.6.9-1,1.6-1,1.3,0,2.1,1,2.1,2.7s-.8,2.7-2.1,2.7-1.4-.4-1.6-1h0v.3c0,.5-.3.7-.7.7s-.7-.2-.7-.7h0ZM24.5,446.1c0-1-.4-1.6-1.1-1.6s-1.2.6-1.2,1.6.5,1.5,1.2,1.5,1.1-.6,1.1-1.5Z"/>
        <path class="cls-4" d="M26.5,446.1c0-1.7,1-2.7,2.6-2.7s2.6,1,2.6,2.7-1,2.7-2.6,2.7-2.6-1-2.6-2.7ZM30.3,446.1c0-1-.5-1.6-1.1-1.6s-1.1.6-1.1,1.6.4,1.6,1.1,1.6,1.1-.6,1.1-1.6Z"/>
        <path class="cls-4" d="M33.3,448.1l-1-3.6v-.4c0-.4.3-.6.7-.6s.6.2.7.6l.8,3.4h0l.8-3.3c0-.4.4-.6.8-.6s.7.2.8.6l.8,3.3h0l.8-3.4c0-.4.3-.6.7-.6s.7.2.7.6v.4l-1,3.6c-.2.5-.4.8-.9.8s-.8-.2-.9-.8l-.8-3h0l-.8,3.1c0,.5-.4.8-.9.8s-.8-.2-.9-.8h-.4Z"/>
        <path class="cls-4" d="M135.4,228.4v-5.7c0-.5.3-.8.7-.8s.7.3.7.8v2.2h3.2v-2.2c0-.5.3-.8.7-.8s.7.3.7.8v5.7c0,.5-.3.8-.7.8s-.7-.3-.7-.8v-2.3h-3.2v2.3c0,.5-.3.8-.7.8s-.7-.3-.7-.8Z"/>
        <path class="cls-4" d="M142.3,227.6c0-.9.7-1.5,2-1.6h1.3v-.4c0-.5-.3-.8-.9-.8s-.7.1-1,.6c-.2.2-.3.3-.6.3s-.6-.2-.6-.6,0-.2,0-.3c.2-.6,1.1-1,2.2-1s2.2.7,2.2,1.8v3c0,.5-.3.7-.7.7s-.6-.2-.7-.6v-.3h0c-.3.6-.9.9-1.6.9-1,0-1.8-.6-1.8-1.6h.2ZM145.6,227.1v-.4h-1.1c-.5.1-.8.4-.8.7s.3.6.8.6,1.1-.4,1.1-1h0Z"/>
        <path class="cls-4" d="M148,228.4v-5.8c0-.5.3-.8.7-.8s.7.3.7.8v5.8c0,.5-.3.7-.7.7s-.7-.2-.7-.7Z"/>
        <path class="cls-4" d="M150.4,228.4v-5.8c0-.5.3-.8.7-.8s.7.3.7.8v5.8c0,.5-.3.7-.7.7s-.7-.2-.7-.7Z"/>
        <path class="cls-4" d="M238,651.3c0-2.3,1.3-3.6,3.3-3.6s2.3.6,2.8,1.6.1.4.1.5c0,.4-.3.6-.6.6s-.5-.2-.7-.5c-.3-.7-.9-1.1-1.6-1.1-1.1,0-1.8.9-1.8,2.4s.7,2.4,1.8,2.4,1.3-.3,1.6-1c.1-.3.3-.5.6-.5s.7.3.7.7,0,.3-.1.5c-.4,1-1.5,1.6-2.8,1.6-2.1,0-3.4-1.4-3.4-3.6h0Z"/>
        <path class="cls-4" d="M247.4,654v-5.6c0-.5.3-.8.7-.8s.7.3.7.8v5.2h2.5c.4,0,.7.2.7.6s-.3.6-.7.6h-3.2c-.5,0-.7-.3-.7-.8Z"/>
        <path class="cls-4" d="M252.4,652.2c0-1.7,1-2.7,2.6-2.7s2.6,1,2.6,2.7-1,2.7-2.6,2.7-2.6-1-2.6-2.7ZM256.1,652.2c0-1-.4-1.6-1.1-1.6s-1.1.6-1.1,1.6.4,1.6,1.1,1.6,1.1-.6,1.1-1.6Z"/>
        <path class="cls-4" d="M258.4,654.2v-5.8c0-.5.3-.8.7-.8s.7.3.7.8v2.1h0c.3-.6.9-1,1.6-1,1.3,0,2.1,1,2.1,2.7s-.8,2.7-2.1,2.7-1.4-.4-1.6-1h0v.3c0,.5-.3.7-.7.7s-.7-.2-.7-.7h0ZM262.1,652.2c0-1-.4-1.6-1.1-1.6s-1.2.6-1.2,1.6.5,1.5,1.2,1.5,1.1-.6,1.1-1.5Z"/>
        <path class="cls-4" d="M264.3,654.2v-5.8c0-.5.3-.8.7-.8s.7.3.7.8v2.1h0c.3-.6.9-1,1.6-1,1.3,0,2.1,1,2.1,2.7s-.8,2.7-2.1,2.7-1.4-.4-1.6-1h0v.3c0,.5-.3.7-.7.7s-.7-.2-.7-.7h0ZM268.1,652.2c0-1-.4-1.6-1.1-1.6s-1.2.6-1.2,1.6.5,1.5,1.2,1.5,1.1-.6,1.1-1.5Z"/>
        <path class="cls-4" d="M270.1,656.1c0-.3.2-.5.5-.5h.2c.2,0,.5,0,.7-.5v-.2l-1.6-4.4v-.4c0-.4.3-.7.7-.7s.6.2.7.6l1.1,3.6h0l1.1-3.6c.1-.4.3-.6.7-.6s.7.3.7.6v.4l-1.6,4.4c-.5,1.3-1.1,1.8-2.2,1.8s-1-.2-1-.7h0v.2Z"/>
        <path class="cls-4" d="M171.3,431.4c0-2.3,1.3-3.6,3.3-3.6s2.3.6,2.8,1.6.1.4.1.5c0,.4-.3.6-.6.6s-.5-.1-.7-.5c-.3-.7-.9-1.1-1.6-1.1-1.1,0-1.8.9-1.8,2.4s.7,2.4,1.8,2.4,1.3-.3,1.6-1c.1-.3.3-.5.6-.5s.7.3.7.6,0,.3-.1.5c-.4,1-1.5,1.6-2.8,1.6-2.1,0-3.4-1.4-3.4-3.6h0Z"/>
        <path class="cls-4" d="M180.6,434.3v-5.6c0-.6.4-1,.9-1s.8.2,1,.8l1.8,4.3h0l1.7-4.3c.2-.5.5-.8,1-.8s.9.4.9,1v5.6c0,.4-.2.7-.7.7s-.6-.2-.6-.7v-4.2h0l-1.7,4.3c-.1.3-.3.5-.6.5s-.5-.1-.6-.4l-1.7-4.3h0v4.2c0,.4-.2.7-.6.7s-.7-.2-.7-.7h0Z"/>
        <path class="cls-4" d="M188.8,433.4c0-1,.7-1.5,2-1.6h1.3v-.4c0-.5-.3-.8-.9-.8s-.7.1-1,.5c-.2.2-.3.3-.6.3s-.6-.2-.6-.5v-.3c.2-.6,1.1-1,2.2-1s2.2.7,2.2,1.8v3c0,.5-.3.7-.7.7s-.6-.2-.7-.6v-.3h0c-.3.6-.9.9-1.6.9-1,0-1.8-.6-1.8-1.6h.2ZM192.1,433v-.4h-1.1c-.5.1-.8.4-.8.7s.3.6.8.6,1.1-.4,1.1-1h0Z"/>
        <path class="cls-4" d="M194.4,428.3c0-.4.3-.7.8-.7s.8.3.8.7-.3.7-.8.7-.8-.3-.8-.7ZM194.5,434.3v-4c0-.5.3-.8.7-.8s.7.3.7.8v4c0,.5-.3.7-.7.7s-.7-.3-.7-.7Z"/>
        <path class="cls-4" d="M196.9,434.3v-4c0-.4.3-.7.7-.7s.7.3.7.7v.3h0c.3-.6.8-1,1.6-1,1.2,0,1.8.7,1.8,2v2.7c0,.5-.3.7-.7.7s-.7-.2-.7-.7v-2.4c0-.7-.3-1.1-1-1.1s-1,.5-1,1.1v2.4c0,.5-.3.7-.7.7s-.7-.2-.7-.7h0Z"/>
        <path class="cls-4" d="M327.7,146.7c0-2.3,1.3-3.6,3.4-3.6s2.4.6,2.8,1.5c0,.2.1.3.1.4,0,.4-.3.6-.6.6s-.5-.1-.7-.4c-.4-.6-.9-.9-1.5-.9-1.2,0-1.9.9-1.9,2.4s.7,2.5,1.9,2.5,1.6-.6,1.7-1.5h0c0-.1-1-.1-1-.1-.4,0-.6-.2-.6-.5s.2-.5.6-.5h1.7c.5,0,.7.3.7.8h0c0,1.9-1.1,3.1-3.1,3.1s-3.4-1.4-3.4-3.7h-.1Z"/>
        <path class="cls-4" d="M335.1,149.6v-4c0-.4.3-.7.7-.7s.7.3.7.7v.3h0c.1-.6.6-1,1.1-1s.3,0,.4.1.2.3.2.5,0,.4-.2.5-.3.2-.6.2c-.6,0-.9.4-.9,1v2.3c0,.5-.3.7-.7.7s-.7-.3-.7-.7h0Z"/>
        <path class="cls-4" d="M338.4,148.8c0-.9.7-1.5,2-1.6h1.3v-.4c0-.5-.3-.8-.9-.8s-.7.1-1,.6c-.2.2-.3.3-.6.3s-.6-.2-.6-.6,0-.2,0-.3c.2-.6,1.1-1,2.2-1s2.2.7,2.2,1.8v3c0,.5-.3.7-.7.7s-.6-.2-.7-.6v-.3h0c-.3.6-1,.9-1.6.9-1,0-1.8-.6-1.8-1.6h.2ZM341.8,148.4v-.4h-1.1c-.5.1-.8.4-.8.7s.3.6.8.6,1.1-.4,1.1-1h0Z"/>
        <path class="cls-4" d="M345.2,149.6l-1.4-3.6v-.4c0-.4.3-.6.7-.6s.6.2.7.6l1.1,3.5h0l1.1-3.5c.1-.4.3-.6.7-.6s.7.3.7.6v.4l-1.4,3.7c-.2.5-.5.7-1,.7s-.8-.2-1-.7h-.2Z"/>
        <path class="cls-4" d="M349,147.7c0-1.7,1-2.8,2.5-2.8s2.5,1,2.5,2.4-.2.6-.6.6h-3c0,.8.5,1.3,1.2,1.3s.9-.2,1.2-.6c.1-.2.3-.2.5-.2.3,0,.6.2.6.5s0,.2-.1.4c-.4.6-1.2,1-2.2,1-1.6,0-2.6-1-2.6-2.7h0ZM352.6,147.1c0-.7-.5-1.1-1.1-1.1s-1.1.5-1.1,1.1h2.2Z"/>
        <path class="cls-4" d="M354.8,149.6v-5.8c0-.5.3-.8.7-.8s.7.3.7.8v5.8c0,.5-.3.7-.7.7s-.7-.2-.7-.7Z"/>
        <path class="cls-4" d="M286,262.5c0-2.3,1.3-3.6,3.3-3.6s2.3.6,2.8,1.6.1.4.1.5c0,.4-.3.6-.6.6s-.5-.1-.7-.5c-.3-.7-.9-1.1-1.6-1.1-1.1,0-1.8.9-1.8,2.4s.7,2.4,1.8,2.4,1.3-.3,1.6-1c.1-.3.3-.5.6-.5s.7.3.7.6,0,.3-.1.5c-.4,1-1.5,1.6-2.8,1.6-2.1,0-3.4-1.4-3.4-3.6h.1Z"/>
        <path class="cls-4" d="M295.3,265.2v-5.6c0-.5.3-.8.7-.8s.7.3.7.8v5.1h2.5c.4,0,.7.2.7.6s-.3.6-.7.6h-3.2c-.5,0-.7-.3-.7-.8h0Z"/>
        <path class="cls-4" d="M300.6,259.4c0-.4.3-.7.8-.7s.8.3.8.7-.3.7-.8.7-.8-.3-.8-.7ZM300.6,265.4v-4c0-.5.3-.8.7-.8s.7.3.7.8v4c0,.5-.3.7-.7.7s-.7-.3-.7-.7Z"/>
        <path class="cls-4" d="M303,265.4v-4c0-.4.3-.7.7-.7s.7.3.7.7v.3h0c.3-.6.8-1,1.6-1,1.2,0,1.8.7,1.8,2v2.7c0,.5-.3.7-.7.7s-.7-.2-.7-.7v-2.4c0-.7-.3-1.1-1-1.1s-1,.5-1,1.1v2.4c0,.5-.3.7-.7.7s-.7-.2-.7-.7h0Z"/>
        <path class="cls-4" d="M308.8,265.4v-5.8c0-.5.3-.8.7-.8s.7.3.7.8v3.2h0l1.9-1.9c.2-.2.4-.3.6-.3.4,0,.6.3.6.6s0,.4-.3.5l-1.3,1.3,1.5,1.9c.2.2.2.3.2.5,0,.4-.3.6-.7.6s-.5-.1-.7-.4l-1.3-1.8-.5.4v1.1c0,.5-.3.7-.7.7s-.7-.2-.7-.7h0Z"/>
        <path class="cls-4" d="M386.4,341.6v-16c0-1.4.8-2.2,2.1-2.2h6.8c3.8,0,6.2,2,6.2,5.1s-1.7,4.1-3.8,4.4h0c2.8.3,4.8,2.3,4.8,5s-2.7,5.9-7.1,5.9h-6.9c-1.4,0-2.1-.8-2.1-2.2h0ZM393.8,331.9c2.3,0,3.6-1,3.6-2.7s-1.1-2.6-3.1-2.6h-3.5v5.3h3.1-.1ZM394.4,340.6c2.5,0,3.8-1,3.8-3s-1.4-2.9-3.9-2.9h-3.6v5.9h3.7Z"/>
        <path class="cls-4" d="M827.5,188.6c-1.1,0-1.8-.6-2.2-1.9l-1.1-3.2h-7.4l-1.1,3.2c-.4,1.3-1,1.9-2.2,1.9s-2.1-.8-2.1-2,0-.8.3-1.4l5.6-15.2c.6-1.7,1.6-2.4,3.3-2.4s2.6.8,3.2,2.4l5.6,15.2c.2.5.3,1,.3,1.4,0,1.2-.8,2-2.2,2h0ZM823.3,180.1l-2.7-8.4h0l-2.7,8.4h5.5,0Z"/>
        <path class="cls-4" d="M46.9,357.1c0-6.6,3.8-10.6,9.6-10.6s6.8,1.7,8.2,4.6c.3.5.4,1.1.4,1.6,0,1.1-.8,1.8-1.9,1.8s-1.6-.4-2-1.4c-.9-2.1-2.6-3.1-4.6-3.1-3.2,0-5.3,2.7-5.3,7s2,7,5.3,7,3.8-1,4.7-3c.4-1,1-1.4,1.9-1.4s2,.8,2,1.9,0,.9-.3,1.4c-1.3,2.8-4.3,4.6-8.2,4.6-6.1,0-9.7-4-9.7-10.6h0v.2Z"/>
        <path class="cls-4" d="M214.9,518.9v-5.6c0-.6.4-1,.9-1s.8.2,1,.8l1.8,4.3h0l1.7-4.3c.2-.5.5-.8,1-.8s.9.3.9,1v5.6c0,.4-.2.7-.7.7s-.6-.2-.6-.7v-4.2h0l-1.7,4.3c-.1.3-.3.5-.6.5s-.5,0-.6-.4l-1.7-4.3h0v4.2c0,.4-.2.7-.6.7s-.7-.2-.7-.7h0Z"/>
        <path class="cls-4" d="M223.2,516.9c0-1.7,1-2.7,2.6-2.7s2.6,1,2.6,2.7-1,2.7-2.6,2.7-2.6-1-2.6-2.7ZM227,516.9c0-1-.4-1.6-1.1-1.6s-1.1.6-1.1,1.6.4,1.6,1.1,1.6,1.1-.6,1.1-1.6Z"/>
        <path class="cls-4" d="M229.1,517.6v-2.7c0-.5.3-.8.7-.8s.7.3.7.8v2.4c0,.7.4,1.1,1,1.1s1-.5,1-1.2v-2.4c0-.5.3-.8.7-.8s.7.3.7.8v4c0,.5-.3.7-.7.7s-.7-.2-.7-.7v-.3h0c-.3.7-.8,1-1.6,1s-1.9-.7-1.9-2h.1Z"/>
        <path class="cls-4" d="M234.9,518.9v-4c0-.4.3-.7.7-.7s.7.3.7.7v.3h0c.3-.7.8-1,1.6-1,1.2,0,1.8.7,1.8,2v2.7c0,.5-.3.7-.7.7s-.7-.2-.7-.7v-2.4c0-.7-.3-1.1-1-1.1s-1,.5-1,1.2v2.4c0,.5-.3.7-.7.7s-.7-.2-.7-.7h0Z"/>
        <path class="cls-4" d="M240.5,516.9c0-1.7.8-2.7,2.1-2.7s1.3.4,1.6,1h0v-2.1c0-.5.3-.8.7-.8s.7.3.7.8v5.8c0,.5-.3.7-.7.7s-.7-.2-.7-.7v-.3h0c-.2.6-.8,1-1.6,1-1.3,0-2.1-1-2.1-2.7h0ZM244.3,516.9c0-1-.4-1.6-1.2-1.6s-1.2.6-1.2,1.6.4,1.5,1.2,1.5,1.2-.6,1.2-1.5Z"/>
        <path class="cls-4" d="M401.9,463.7v-5.5c0-.5.3-.8.7-.8h2.3c1.3,0,2.1.7,2.1,1.8s-.6,1.4-1.3,1.5h0c1,.1,1.7.8,1.7,1.7s-.9,2-2.4,2h-2.4c-.5,0-.7-.3-.7-.8h0ZM404.5,460.4c.8,0,1.2-.4,1.2-.9s-.4-.9-1.1-.9h-1.2v1.8h1.1ZM404.7,463.4c.9,0,1.3-.4,1.3-1s-.5-1-1.3-1h-1.2v2h1.3,0Z"/>
        <path class="cls-4" d="M410.3,463.9v-5.6c0-.6.4-1,1-1s.8.2,1,.8l1.8,4.3h0l1.7-4.3c.2-.5.5-.8,1-.8s1,.4,1,1v5.6c0,.4-.2.7-.7.7s-.6-.2-.6-.7v-4.2h0l-1.7,4.3c-.1.3-.3.5-.6.5s-.5-.1-.6-.4l-1.7-4.3h0v4.2c0,.4-.2.7-.6.7s-.7-.2-.7-.7h-.3Z"/>
        <path class="cls-4" d="M418.5,463c0-1,.7-1.5,2-1.6h1.3v-.4c0-.5-.3-.8-.9-.8s-.7.1-1,.5c-.2.2-.3.3-.6.3s-.6-.2-.6-.5v-.3c.2-.6,1.1-1,2.2-1s2.2.7,2.2,1.8v3c0,.5-.3.7-.7.7s-.6-.2-.7-.6v-.3h0c-.3.6-1,.9-1.6.9-1,0-1.8-.6-1.8-1.6h.2ZM421.8,462.6v-.4h-1.1c-.5.1-.8.4-.8.7s.3.6.8.6,1.1-.4,1.1-1h0Z"/>
        <path class="cls-4" d="M424.1,457.9c0-.4.3-.7.8-.7s.8.3.8.7-.3.7-.8.7-.8-.3-.8-.7ZM424.2,463.9v-4c0-.5.3-.8.7-.8s.7.3.7.8v4c0,.5-.3.7-.7.7s-.7-.3-.7-.7Z"/>
        <path class="cls-4" d="M426.6,463.9v-4c0-.4.3-.7.7-.7s.7.3.7.7v.3h0c.3-.6.8-1,1.6-1,1.2,0,1.8.7,1.8,2v2.7c0,.5-.3.7-.7.7s-.7-.2-.7-.7v-2.4c0-.7-.3-1.1-1-1.1s-1,.5-1,1.1v2.4c0,.5-.3.7-.7.7s-.7-.2-.7-.7h0Z"/>
        <path class="cls-4" d="M439.2,567.6v-5.6c0-.5.3-.8.7-.8h2.1c1.5,0,2.4,1,2.4,2.4s-1,2.4-2.5,2.4h-1.3v1.5c0,.5-.3.8-.7.8s-.7-.3-.7-.8h0ZM441.6,564.9c.8,0,1.3-.5,1.3-1.2s-.5-1.2-1.3-1.2h-1v2.5h1Z"/>
        <path class="cls-4" d="M445.2,561.7c0-.4.3-.7.8-.7s.8.3.8.7-.3.7-.8.7-.8-.3-.8-.7ZM445.3,567.7v-4c0-.5.3-.8.7-.8s.7.3.7.8v4c0,.5-.3.7-.7.7s-.7-.3-.7-.7Z"/>
        <path class="cls-4" d="M447.7,567.7v-5.8c0-.5.3-.8.7-.8s.7.3.7.8v5.8c0,.5-.3.7-.7.7s-.7-.2-.7-.7Z"/>
        <path class="cls-4" d="M450.1,567.7v-5.8c0-.5.3-.8.7-.8s.7.3.7.8v5.8c0,.5-.3.7-.7.7s-.7-.2-.7-.7Z"/>
        <path class="cls-4" d="M452.3,566.8c0-1,.7-1.5,2-1.6h1.3v-.4c0-.5-.3-.8-.9-.8s-.7,0-1,.5c-.2.2-.3.3-.6.3s-.6-.2-.6-.5v-.3c.2-.6,1.1-1,2.2-1s2.2.7,2.2,1.8v3c0,.5-.3.7-.7.7s-.6-.2-.7-.6v-.3h0c-.3.6-1,.9-1.6.9-1,0-1.8-.6-1.8-1.6h.2ZM455.6,566.4v-.4h-1.1c-.5,0-.8.4-.8.7s.3.6.8.6,1.1-.4,1.1-1h0Z"/>
        <path class="cls-4" d="M458,567.7v-4c0-.5.3-.7.7-.7s.7.3.7.7v.3h0c.1-.7.6-1,1.1-1s.3,0,.4,0,.2.3.2.5,0,.4-.2.5-.3.2-.6.2c-.6,0-.9.4-.9,1v2.3c0,.5-.3.7-.7.7s-.7-.3-.7-.7h0Z"/>
        <path class="cls-4" d="M461.5,567.4v-.3c0-.3.2-.5.6-.5s.4,0,.6.3c.3.4.6.5,1.1.5s.9-.2.9-.6-.2-.4-.7-.5l-.9-.2c-1-.2-1.5-.7-1.5-1.5s.9-1.7,2.2-1.7,1.9.5,2,1.1v.2c0,.3-.2.5-.5.5s-.4,0-.5-.2c-.2-.3-.5-.6-1-.6s-.8.2-.8.6.2.5.7.6l.9.2c1.1.2,1.6.6,1.6,1.4s-.9,1.7-2.3,1.7-2-.4-2.2-1h-.2Z"/>
        <path class="cls-4" d="M612.5,628.6v-.5l1.9-5.2c.2-.6.5-.8,1.1-.8s.9.2,1.1.8l1.9,5.2v.5c0,.4-.3.7-.7.7s-.6-.2-.8-.7l-.4-1.1h-2.5l-.4,1.1c0,.5-.4.7-.8.7s-.8-.3-.8-.7h.4ZM616.5,626.4l-.9-2.9h0l-.9,2.9h1.9,0Z"/>
        <path class="cls-4" d="M621.6,628.4v-5.6c0-.5.3-.8.7-.8s.7.3.7.8v5.2h2.5c.4,0,.7.2.7.6s-.3.6-.7.6h-3.2c-.5,0-.7-.3-.7-.8Z"/>
        <path class="cls-4" d="M626.7,626.6c0-1.7,1-2.7,2.6-2.7s2.6,1,2.6,2.7-1,2.7-2.6,2.7-2.6-1-2.6-2.7ZM630.4,626.6c0-1-.5-1.6-1.1-1.6s-1.2.6-1.2,1.6.4,1.6,1.2,1.6,1.1-.6,1.1-1.6Z"/>
        <path class="cls-4" d="M632.6,628.6v-5.8c0-.5.3-.8.7-.8s.7.3.7.8v2.1h0c.3-.6.9-1,1.6-1,1.3,0,2.1,1,2.1,2.7s-.8,2.7-2.1,2.7-1.3-.4-1.6-1h0v.3c0,.5-.3.7-.7.7s-.7-.2-.7-.7h0ZM636.4,626.6c0-1-.4-1.6-1.2-1.6s-1.2.6-1.2,1.6.5,1.5,1.2,1.5,1.2-.6,1.2-1.5Z"/>
        <path class="cls-4" d="M638.6,628.6v-5.8c0-.5.3-.8.7-.8s.7.3.7.8v2.1h0c.3-.6.9-1,1.6-1,1.3,0,2.1,1,2.1,2.7s-.8,2.7-2.1,2.7-1.3-.4-1.6-1h0v.3c0,.5-.3.7-.7.7s-.7-.2-.7-.7h0ZM642.3,626.6c0-1-.4-1.6-1.2-1.6s-1.2.6-1.2,1.6.5,1.5,1.2,1.5,1.2-.6,1.2-1.5Z"/>
        <path class="cls-4" d="M644.3,630.5c0-.3.2-.5.5-.5h.2c.2,0,.5,0,.7-.5v-.2l-1.6-4.4v-.4c0-.4.3-.7.7-.7s.6.2.7.6l1.1,3.6h0l1.1-3.6c0-.4.3-.6.7-.6s.7.3.7.6v.4l-1.6,4.4c-.5,1.3-1.1,1.8-2.2,1.8s-1-.2-1-.7h0v.2Z"/>
        <path class="cls-4" d="M779.1,416v-.5l1.9-5.2c.2-.6.5-.8,1.1-.8s.9.2,1.1.8l1.9,5.2v.5c0,.4-.3.7-.7.7s-.6-.2-.8-.6l-.4-1.1h-2.5l-.4,1.1c0,.5-.4.7-.8.7s-.8-.3-.8-.7h.4ZM783.2,413.8l-.9-2.9h0l-.9,2.9h1.9,0Z"/>
        <path class="cls-4" d="M788.2,415.9v-5.5c0-.5.3-.8.7-.8h2c2.1,0,3.4,1.3,3.4,3.5s-1.2,3.5-3.4,3.5h-2c-.5,0-.7-.3-.7-.8h0ZM790.8,415.4c1.3,0,2-.8,2-2.3s-.7-2.3-2-2.3h-1v4.6h1Z"/>
        <path class="cls-4" d="M794.9,414c0-1.7,1-2.7,2.6-2.7s2.6,1,2.6,2.7-1,2.7-2.6,2.7-2.6-1-2.6-2.7ZM798.7,414c0-1-.5-1.6-1.1-1.6s-1.2.6-1.2,1.6.4,1.6,1.2,1.6,1.1-.6,1.1-1.6Z"/>
        <path class="cls-4" d="M800.7,414c0-1.7,1-2.7,2.6-2.7s2.6,1,2.6,2.7-1,2.7-2.6,2.7-2.6-1-2.6-2.7ZM804.4,414c0-1-.5-1.6-1.1-1.6s-1.2.6-1.2,1.6.4,1.6,1.2,1.6,1.1-.6,1.1-1.6Z"/>
        <path class="cls-4" d="M806.6,416v-4c0-.5.3-.7.7-.7s.7.3.7.7v.3h0c0-.6.6-1,1.1-1s.3,0,.4.1c0,.1.2.3.2.5s0,.4-.2.5-.3.2-.6.2c-.7,0-.9.4-.9,1v2.3c0,.5-.3.7-.7.7s-.7-.3-.7-.7h0Z"/>
        <path class="cls-4" d="M279.8,462.6c0-2.3,1.3-3.6,3.3-3.6s2.3.6,2.8,1.6.1.4.1.5c0,.4-.3.6-.6.6s-.5-.1-.7-.5c-.3-.7-.9-1.1-1.6-1.1-1.1,0-1.8.9-1.8,2.4s.7,2.4,1.8,2.4,1.3-.3,1.6-1c.1-.3.3-.5.6-.5s.7.3.7.6,0,.3-.1.5c-.4,1-1.5,1.6-2.8,1.6-2.1,0-3.4-1.4-3.4-3.6h.1Z"/>
        <path class="cls-4" d="M289.1,465.3v-5.5c0-.5.3-.8.7-.8h2c2.1,0,3.4,1.3,3.4,3.5s-1.2,3.5-3.4,3.5h-2c-.5,0-.7-.3-.7-.8h0ZM291.6,464.9c1.3,0,2-.8,2-2.3s-.7-2.3-2-2.3h-1v4.6h1Z"/>
        <path class="cls-4" d="M295.8,463.5c0-1.7,1-2.7,2.6-2.7s2.6,1,2.6,2.7-1,2.7-2.6,2.7-2.6-1-2.6-2.7ZM299.5,463.5c0-1-.5-1.6-1.1-1.6s-1.1.6-1.1,1.6.4,1.6,1.1,1.6,1.1-.6,1.1-1.6Z"/>
        <path class="cls-4" d="M301.5,463.5c0-1.7,1-2.7,2.6-2.7s2.6,1,2.6,2.7-1,2.7-2.6,2.7-2.6-1-2.6-2.7ZM305.3,463.5c0-1-.5-1.6-1.1-1.6s-1.1.6-1.1,1.6.4,1.6,1.1,1.6,1.1-.6,1.1-1.6Z"/>
        <path class="cls-4" d="M307.4,465.5v-4c0-.5.3-.7.7-.7s.7.3.7.7v.3h0c.1-.6.6-1,1.1-1s.3,0,.4.1.2.3.2.5,0,.4-.2.5-.3.2-.6.2c-.6,0-.9.4-.9,1v2.3c0,.5-.3.7-.7.7s-.7-.3-.7-.7h0Z"/>
      </g>
    </g>
  </g>
</svg>