<?xml version="1.0" encoding="UTF-8"?>
<svg xmlns="http://www.w3.org/2000/svg" version="1.1" viewBox="0 0 1016.5 949.3">
  <defs>
    <style>
      .cls-1 {
        fill: #3d3d3d;
      }

      .cls-2 {
        fill: none;
        stroke: #b0adb0;
        stroke-miterlimit: 10;
      }

      .cls-3 {
        fill: #7e7f7e;
      }

      .cls-4 {
        fill: #fff;
      }

      .cls-5 {
        fill: #535353;
      }
    </style>
  </defs>
  <!-- Generator: Adobe Illustrator 28.6.0, SVG Export Plug-In . SVG Version: 1.2.0 Build 709)  -->
  <g>
    <g id="Layer_1">
      <g id="Layer_1-2" data-name="Layer_1">
        <g id="Body">
          <path class="cls-1" d="M959.4,417.1h-73v24h-18v-50h72v-78h-32v-6h48v-101l-131-131h-185.1v-6.8c0-36.1-26.4-65.3-59-65.3s-59,29.3-59,65.3v98.8h-104l-97.1,34h-50.9v30h0v120h-10v-2h8v-38h-8v-64H93.4v55h17v9H42.4v199.6l-40,39.4v27h40v106h-5v78h147v-32h52v108h187l23,23.1v86.9h194v-134h73l87-86.9v-123.1h56v-16h26v16h74l58-83v-48l-55-55h0ZM673.4,435.1v48h-103v52h-34v-96h-64v-46h14l65-32h29v-16h6v72h104v18h-17ZM738.5,301.1l-39.1-20h-27v106h-56v-58.4l-14-28.6v-55l-4-12.1v-11.9h34v-84h10v20h72l6-4h10v41l2.6,2.6h0l19.5,19.5,11-11,13,13-11,11,24,24h9v48h-60ZM714.4,116.1h-43v-2h84v2h-41ZM796.5,105.1l14,21v23l48,48h28v18h-81l-26-26,10-10-19-19v-1h-2v-54s28,0,28,0ZM270.4,389.1v24h40v-182h10v80h-8v38h58v-96h38v20h88v-52h70v-24h8v-60h10v56h28v10h-36v23.4c0,.1-.2.3-.3.5l-22.1,70c-.4,1.3-1.3,2.4-2.5,3h-.2l-99.9,28.7c-.2,0-.3.1-.5.3h-.5v110h-72v28h-118v-78h10,0ZM230.4,277.1v34h-94v-34h94ZM100.4,578.1h-22v-41h22v41ZM240.4,683.1h-103.9v-138h8v-50h-7.8v-62h95.8v22h-16v58h79.1l33.9,24h63v-32h110.1l13.9,6.1v2.9l-13.9,12.9h-36.1v80h-7l-15-16h-70v200h-38v-108h-96.1ZM647.4,743.1h-156.9v73l-22,22h-2l-21-21v-2l11-10v-104h-20v-68h37l43,44h58v10h-2v46h96v26h-12.6l-8.4-16h0ZM789,549.1h-76.5v194.9l-8.1,15.1h-13.9v-72h-74v-34h32v-88h-32v-41h10v11h134v-49l-20-19v-120h74v45h9v49h-24v29.9l115,40.1v18l-78,20h-47.5Z"/>
        </g>
        <g id="Bombsite">
          <polygon class="cls-5" points="941.4 312.3 909.1 312.3 909.1 252.7 903.9 252.7 903.9 238.6 909.3 238.6 886.4 215 886.4 214.4 881.9 214.4 814.4 214.4 814.4 347.1 886.4 347.1 886.4 347.1 941.4 347.1 941.4 312.3"/>
          <rect class="cls-5" x="136.4" y="311.1" width="96" height="122.9"/>
          <polygon class="cls-3" points="876.9 268.6 829.7 268.6 829.7 288.7 829.8 288.7 829.8 304 844.8 304 844.8 288.7 876.9 288.7 876.9 268.6"/>
          <rect class="cls-3" x="152.8" y="310.5" width="17" height="16.1"/>
          <rect class="cls-3" x="210.8" y="360.5" width="26.6" height="19.1"/>
          <rect class="cls-3" x="176" y="418.4" width="14.9" height="15.3"/>
        </g>
        <g id="Lines">
          <path class="cls-4" d="M716.4,501.1v14h-14v-14h14M717.4,500.1h-16v16h16v-16h0Z"/>
          <path class="cls-4" d="M577.4,483.1v51.1h-7v-51h7M578.4,482.1h-9v53h9v-53h0Z"/>
          <path class="cls-4" d="M561.3,535.1v52.9h-15.9v-52.9h15.9M562.3,534.1h-17.9v54.9h17.9v-54.9h0Z"/>
          <line class="cls-2" x1="517.7" y1="532.8" x2="537.2" y2="524.9"/>
          <path class="cls-4" d="M436.5,685.1v15h-14v-15h14M437.5,684.1h-16v17h16v-17h0Z"/>
          <path class="cls-4" d="M456.5,701.1v7h-7v-7h7M457.5,700.1h-9v9h9v-9h0Z"/>
          <path class="cls-4" d="M452.4,875.1v19h-6v-19h6M453.4,874.1h-8v21h8v-21h0Z"/>
          <path class="cls-4" d="M510.4,930.1v17h-64v-17h64M511.4,929.1h-66v19h66v-19h0Z"/>
          <path class="cls-4" d="M640.4,930.1v17h-81v-17h81M641.4,929.1h-83v19h83v-19h0Z"/>
          <path class="cls-4" d="M640.5,878.1v19h-5v-19h5M641.5,877.1h-7v21h7v-21h0Z"/>
          <polyline class="cls-2" points="739.9 726.1 739.9 677.7 711.5 677.7"/>
          <path class="cls-4" d="M800.5,666.2v15.9h-15v-15.9h15M801.5,665.2h-17v17.9h17v-17.9h0Z"/>
          <line class="cls-2" x1="737" y1="570.1" x2="737" y2="647.2"/>
          <path class="cls-4" d="M964.6,494.9l12.9,7.5-18.4,31.9-12.9-7.5,18.4-31.9M964.2,493.5l-19.4,33.7,14.7,8.5,19.4-33.7-14.7-8.5h0Z"/>
          <path class="cls-4" d="M876.4,269.1v19h-32v15h-14v-33.9h46M877.4,268.1h-48v35.9h16v-15h32v-21h0Z"/>
          <path class="cls-4" d="M912.4,239.1v68h-3v-55h-5v-13h8M913.4,238.1h-10v15h5v55h5v-70h0Z"/>
          <rect class="cls-4" x="913.3" y="238.1" width="7.2" height="1"/>
          <path class="cls-4" d="M768.5,106.1v9h-14v-9h14M769.5,105.1h-16v11h16v-11h0Z"/>
          <path class="cls-4" d="M768.5,116.1v6.9h-7v-6.9h7M769.5,115.1h-9v8.9h9v-8.9h0Z"/>
          <path class="cls-4" d="M611.3,171.2v22h-26.9v-22h26.9M612.3,170.2h-28.9v24h28.9v-24h0Z"/>
          <path class="cls-4" d="M740.5,348.1v15h-14v-15h14M741.5,347.1h-16v17h16v-17h0Z"/>
          <polyline class="cls-2" points="633.8 386.4 633.8 408.5 641.1 417.9"/>
          <rect class="cls-4" x="374.1" y="466.1" width="67.4" height="1"/>
          <polygon class="cls-4" points="329.4 474.1 329.4 466.1 328.4 466.1 328.4 475.1 328.6 475.1 329.4 475.1 420.4 475.1 420.4 474.1 329.4 474.1"/>
          <path class="cls-4" d="M521.4,439.1v14h-15v-14h15M522.4,438.1h-17v16h17v-16h0Z"/>
          <path class="cls-4" d="M387.4,239.1v14h-16v-14h16M388.4,238.1h-18v16h18v-16h0Z"/>
          <path class="cls-4" d="M394.4,247.1v6h-6v-6h6M395.4,246.1h-8v8h8v-8h0Z"/>
          <path class="cls-4" d="M260.4,361.1v18h-49v-18h49M261.4,360.1h-51v20h51v-20h0Z"/>
          <path class="cls-4" d="M260.4,361.1v18h-30v-18h30M261.4,360.1h-32v20h32v-20h0Z"/>
          <rect class="cls-4" x="260.4" y="350.6" width="1" height="39.1"/>
          <path class="cls-4" d="M169.4,311.1v15h-16v-15h16M170.4,310.1h-18v17h18v-17h0Z"/>
          <path class="cls-4" d="M88.4,386.1v15h-46v-15h46M89.4,385.1h-48v17h48v-17h0Z"/>
          <path class="cls-4" d="M190.3,419.1v14h-13.9v-14h13.9M191.3,418.1h-15.9v16h15.9v-16h0Z"/>
          <path class="cls-4" d="M41.4,563.2v14h-7v-14h7M42.4,562.2h-9v16h9v-16h0Z"/>
          <path class="cls-4" d="M277.3,467.1v14h-15.9v-14h15.9M278.3,466.1h-17.9v16h17.9v-16h0Z"/>
          <path class="cls-4" d="M297.4,714.1c5.5,0,10,4.5,10,10s-4.5,10-10,10-10-4.5-10-10,4.5-10,10-10M297.4,713.1c-6.1,0-11,4.9-11,11s4.9,11,11,11,11-4.9,11-11-4.9-11-11-11h0Z"/>
          <rect class="cls-4" x="295.4" y="682.4" width="1" height="31.2"/>
          <rect class="cls-4" x="286.4" y="682.4" width="1" height="40.7"/>
          <rect class="cls-4" x="286.4" y="725.1" width="1" height="55"/>
          <path class="cls-4" d="M104.4,706.1v15h-30v-15h30M105.4,705.1h-32v17h32v-17h0Z"/>
          <rect class="cls-4" x="421.5" y="700.8" width="1" height="93.3"/>
          <path class="cls-4" d="M56.4,371.1v14h-14v-14h14M57.4,370.1h-16v16h16v-16h0Z"/>
          <path class="cls-4" d="M64.4,379.1v6h-7v-6h7M65.4,378.1h-9v8h9v-8h0Z"/>
          <path class="cls-4" d="M96.4,722.1v7h-14v-7h14M97.4,721.1h-16v9h16v-9h0Z"/>
        </g>
        <g id="Outlines">
          <path class="cls-4" d="M581.4,3c32.6,0,59,29.3,59,65.3v6.8h185.1l131,131v101h-48v6h32v78h-72v50h18v-24h73l55,55v48l-58,83h-74v-16h-26v16h-56v123.1l-87,86.9h-73v134h-194v-86.9l-23-23.1h-187v-108h-52v32H37.4v-78h5v-106H2.4v-27l40-39.4v-199.6h68v-9h-17v-55h167v64h8v38h-8v2h10v-120h0v-30h50.9l97.1-34h104v-98.8c0-36.1,26.4-65.3,59-65.3M768.4,159.2h2v1l19,19-10,10,26,26h81v-18h-28l-48-48v-23l-14-21h-28v54M671.4,116.1h84v-2h-84v2M408.4,273.1v-20h-38v96h-58v-38h8v-80h-10v182h-40v-24h-10v78h118v-28h72v-110h.5c.1-.1.3-.2.5-.3l99.9-28.7h.2c1.2-.6,2.1-1.7,2.5-3l22.1-70c0-.2.2-.3.3-.5v-23.4h36v-10h-28v-56h-10v60h-8v24h-70v52h-88M616.4,387.2h56v-106h27l39.1,20h59.9v-48h-9l-24-24,11-11-13-13-11,11-19.5-19.5h0l-2.6-2.6v-41h-10l-6,4h-72v-20h-10v84h-34v11.9l4,12.1v55l14,28.6v58.4M136.5,311.1h94v-34h-94v34M472.5,439.1h64v96h34v-52h103v-48h17v-18h-104v-72h-6v16h-29l-65,32h-14v46M626.5,535.1v-11h-10v41h32v88h-32v34h74v72h13.9l8.1-15.1v-194.9h124l78-20v-18l-115-40.1v-29.9h24v-49h-9v-45h-74v120l20,19v49h-134M136.7,495.1h7.8v50h-8v138h200v108h38v-200h70l15,16h7v-80h36.1l13.9-12.9v-2.9l-13.9-6.1h-110.1v32h-63l-33.9-24h-79.1v-58h16v-22h-95.8v62M78.5,578.1h22v-41h-22v41M436.5,701.1h20v104l-11,10v2l21,21h2l22-22v-73h156.9l8.4,16h12.6v-26h-96v-46h2v-10h-58l-43-44h-37v68M581.4,1.9c-33.1,0-60,29.8-60,66.4v97.8h-103.3l-96.9,34h-51.8v32.1h0v77.9h-7.9v-64H92.4v57.1h17v6.9H41.4v200.2L1.7,549.4l-.3.3v28.5h40v103.9h-5v80.1h149.1v-32h49.9v108h187.6l22.4,22.5v87.5h196.1v-134h72.4l.3-.3,87-86.9.3-.3v-122.5h56v-16h23.9v16h75.6l.3-.5,58-83,.2-.3v-48.8l-.3-.3-55-55-.3-.3h-74.5v24h-15.9v-47.9h72v-80.1h-32v-3.9h48v-102.5l-.3-.3-131-131-.3-.3h-184.5v-5.8c0-36.6-26.9-66.4-60-66.4h0ZM769.5,106.2h26.4l13.5,20.3v23.1l.3.3,48,48,.3.3h27.4v15.9h-79.5l-25-24.9,9.3-9.3.7-.7-.7-.7-18.7-18.7v-1.6h-2v-51.9h0ZM575.5,138.2h7.9v56h28v7.9h-36v24.1c0,.2-.2.3-.2.5l-22.1,70c-.3,1-1.1,1.9-2,2.4l-100,28.7c-.2,0-.4.1-.5.2h-1.2v110h-72v28h-115.9v-75.9h7.9v24h42.1v-64h60v-96h35.9v20h90.1v-52h70v-24h8v-60h0ZM633.5,138.2h7.9v20h73.4l.3-.2,5.8-3.8h8.6v40.4l.3.3,1.8,1.8.7.8,19.5,19.5.7.7.7-.7,10.3-10.3,11.5,11.5-10.3,10.3-.7.7.7.7,24,24,.3.3h8.4v45.9h-58.6l-38.8-19.9h-.2c0-.1-28.3-.1-28.3-.1v106h-53.9v-57.8l-14-28.4v-55.1l-4-11.9v-10.7h34v-84h-.1ZM311.5,232.2h7.9v77.9h-7.9v-77.9h0ZM137.5,278.2h91.9v31.9h-91.9v-31.9h0ZM581.5,346.2h3.9v72h104v15.9h-17v48h-103v52h-31.9v-96h-64v-43.9h13.4c0-.1,64.8-32,64.8-32h29.8v-16h0ZM741.5,348.2h71.9v45h9v46.9h-24v31.7l.7.2,114.3,39.8v16.4l-77.1,19.8h-124.9v195.7l-7.7,14.3h-12.2v-72h-74v-31.9h32v-90.1h-32v-38.9h7.9v11h136.1v-50.5l-.3-.3-19.7-18.7v-118.5h0ZM137.7,434.2h93.7v19.9h-16v60.1h79.9l33.6,23.8.3.2h64.4v-32h108.8l13.1,5.8v1.8l-13.3,12.3h-36.7v80h-5.5l-14.7-15.7-.3-.3h-71.5v200h-35.9v-108h-200v-135.9h8v-52.1h-7.8v-59.9h0ZM79.5,538.2h19.9v38.9h-19.9v-38.9h0ZM437.5,634.2h35.5l42.7,43.7.3.3h57.4v7.9h-2v48.1h96v23.9h-10.9l-8.1-15.4-.3-.6h-158.6v73.7l-21.4,21.4h-1.1l-20.4-20.4v-1.1l10.7-9.7.3-.3v-105.5h-20v-65.9h-.1Z"/>
        </g>
        <g id="CAllouts_copy">
          <path class="cls-4" d="M497.8,886.8c0-.2,0-.4.1-.6l2.5-6.8c.3-.7.7-1.1,1.4-1.1s1.2.3,1.5,1.1l2.5,6.8c0,.2.1.4.1.6,0,.5-.4.9-1,.9s-.8-.2-1-.8l-.5-1.5h-3.3l-.5,1.4c-.2.6-.5.9-1,.9s-1-.3-1-.9h.2,0ZM503.1,884l-1.2-3.8h0l-1.2,3.8h2.4Z"/>
          <path class="cls-4" d="M507,882.2h-.4c-.4,0-.7-.3-.7-.7s.3-.7.7-.7h.4v-.8c0-.6.4-1,.9-1s.9.4.9,1v.8h.6c.4,0,.7.3.7.7s-.3.7-.7.7h-.6v3.3c0,.5.2.7.6.7h.1c.5,0,.7.2.7.7s-.5.8-1.3.8h0c-1.2,0-1.9-.6-1.9-1.8v-3.7h0Z"/>
          <path class="cls-4" d="M511.7,882.2h-.4c-.4,0-.7-.3-.7-.7s.3-.7.7-.7h.4v-.8c0-.6.4-1,.9-1s.9.4.9,1v.8h.7c.4,0,.7.3.7.7s-.3.7-.7.7h-.7v3.3c0,.5.2.7.6.7h0c.5,0,.7.2.7.7s-.5.8-1.3.8h0c-1.2,0-1.9-.6-1.9-1.8v-3.7h0Z"/>
          <path class="cls-4" d="M515.5,885.7c0-1.2,1-2,2.7-2.1h1.7v-.5c0-.6-.4-1-1.1-1s-.9.2-1.3.7c-.2.2-.4.3-.7.3-.5,0-.8-.3-.8-.7v-.4c.3-.8,1.4-1.3,2.8-1.3s2.9.9,2.9,2.3v3.9c0,.6-.4.9-.9.9s-.8-.3-.9-.8v-.3h0c-.4.7-1.2,1.2-2.1,1.2-1.3,0-2.3-.8-2.3-2.1h0ZM519.8,885.1v-.5h-1.4c-.7,0-1.1.5-1.1.9s.4.8,1,.8,1.5-.5,1.5-1.3h0Z"/>
          <path class="cls-4" d="M522.6,884.2c0-2.2,1.3-3.5,3.3-3.5s2.5.7,2.9,1.6v.5c0,.5-.4.7-.8.7s-.6-.2-.8-.5c-.3-.6-.8-.9-1.3-.9-.9,0-1.5.8-1.5,2.1s.6,2.1,1.5,2.1,1-.3,1.3-.8c.2-.4.5-.5.8-.5s.8.3.8.7v.5c-.4.9-1.6,1.6-2.9,1.6-2,0-3.3-1.3-3.3-3.5h0Z"/>
          <path class="cls-4" d="M530,886.8v-7.5c0-.6.4-1,.9-1s.9.3.9,1v4.2h0l2.5-2.5c.2-.3.5-.4.7-.4.5,0,.8.3.8.8s0,.5-.3.7l-1.7,1.6,1.9,2.4c.2.3.3.4.3.7,0,.5-.4.8-.9.8s-.6,0-.9-.6l-1.8-2.3-.6.5v1.4c0,.6-.4,1-.9,1s-.9-.3-.9-1h0v.2h0Z"/>
          <path class="cls-4" d="M536.4,884.3c0-2.2,1.3-3.6,3.3-3.6s3.2,1.3,3.2,3.2-.3.8-.8.8h-3.9c0,1.1.6,1.8,1.5,1.8s1.1-.2,1.6-.8c.2-.2.4-.3.6-.3.4,0,.7.2.7.7v.5c-.5.8-1.5,1.3-2.8,1.3-2.1,0-3.4-1.3-3.4-3.5h0,0ZM541.1,883.5c0-.9-.6-1.5-1.4-1.5s-1.4.6-1.5,1.5h2.9Z"/>
          <path class="cls-4" d="M543.8,886.8v-5.2c0-.6.4-.9.9-.9s.9.3.9.9v.4h0c.2-.8.7-1.3,1.4-1.3s.4,0,.6.2c.2,0,.3.4.3.7s0,.5-.3.7-.4.2-.8.2c-.8,0-1.1.5-1.1,1.3v3c0,.6-.4,1-.9,1s-.9-.3-.9-1h-.1Z"/>
          <path class="cls-4" d="M551.2,886v-.5c0-.5.3-.8.8-.8s.7.2.9.6c.3.7,1,1,1.9,1s1.7-.5,1.7-1.2-.4-1-1.6-1.2l-1-.2c-1.8-.4-2.7-1.2-2.7-2.6s1.5-2.8,3.5-2.8,2.9.7,3.3,1.9v.4c0,.5-.3.8-.8.8s-.7-.2-.9-.6c-.3-.7-.9-1-1.7-1s-1.6.4-1.6,1.1.4.9,1.5,1.1l1,.2c1.9.4,2.8,1.2,2.8,2.6s-1.4,2.9-3.7,2.9-3.1-.8-3.5-1.8h0Z"/>
          <path class="cls-4" d="M559.3,889.1v-7.5c0-.6.4-1,.9-1s.9.3.9,1v.4h0c.4-.8,1.1-1.3,2.1-1.3,1.7,0,2.8,1.3,2.8,3.5s-1,3.5-2.8,3.5-1.8-.5-2.1-1.2h0v2.6c0,.6-.4,1-.9,1s-.9-.3-.9-1h0ZM564.2,884.2c0-1.2-.6-2-1.5-2s-1.5.8-1.5,2,.6,2,1.5,2,1.5-.8,1.5-2Z"/>
          <path class="cls-4" d="M566.8,885.7c0-1.2,1-2,2.7-2.1h1.7v-.5c0-.6-.4-1-1.1-1s-.9.2-1.3.7c-.2.2-.4.3-.7.3-.5,0-.8-.3-.8-.7v-.4c.3-.8,1.4-1.3,2.8-1.3s2.9.9,2.9,2.3v3.9c0,.6-.4.9-.9.9s-.8-.3-.9-.8v-.3h0c-.4.7-1.2,1.2-2.1,1.2-1.3,0-2.3-.8-2.3-2.1h0ZM571.2,885.1v-.5h-1.4c-.7,0-1.1.5-1.1.9s.4.8,1,.8,1.5-.5,1.5-1.3h0Z"/>
          <path class="cls-4" d="M575.2,886.8l-1.4-4.7v-.6c0-.5.4-.8.9-.8s.8.3.9.8l1,4.4h0l1-4.3c0-.5.5-.8,1-.8s.9.3,1,.8l1.1,4.3h0l1-4.4c0-.5.4-.8.9-.8s.9.3.9.8v.6l-1.4,4.8c-.2.7-.5,1-1.2,1s-1-.3-1.2-1l-1-4h0l-1,4c-.2.7-.5,1-1.2,1s-1-.3-1.2-1h0Z"/>
          <path class="cls-4" d="M584.4,886.8v-5.2c0-.6.3-.9.9-.9s.9.4.9.9v.4h0c.4-.8,1-1.3,2.1-1.3s2.4,1,2.4,2.5v3.5c0,.6-.4,1-.9,1s-.9-.3-.9-1v-3.2c0-.9-.4-1.4-1.2-1.4s-1.4.6-1.4,1.5v3.1c0,.6-.4,1-.9,1s-.9-.3-.9-1h0Z"/>
          <path class="cls-4" d="M848.1,157.8v-.4c0-.4.3-.6.7-.6s.5.1.7.4c.2.5.8.8,1.5.8s1.3-.4,1.3-.9-.3-.7-1.2-.9h-.8c-1.4-.4-2.1-1.1-2.1-2.1s1.1-2.1,2.7-2.1,2.3.5,2.6,1.5v.3c0,.4-.2.6-.6.6s-.5-.1-.7-.4c-.2-.5-.7-.8-1.3-.8s-1.2.3-1.2.9.3.7,1.2.9h.7c1.5.4,2.1,1,2.1,2.1s-1.1,2.2-2.8,2.2-2.4-.6-2.7-1.4h-.1Z"/>
          <path class="cls-4" d="M854.2,156.4c0-1.7,1-2.8,2.5-2.8s2.5,1,2.5,2.4-.2.6-.6.6h-3c0,.8.5,1.3,1.2,1.3s.9-.2,1.2-.6c.2-.2.3-.2.5-.2.3,0,.6.2.6.5v.4c-.3.6-1.2,1-2.2,1-1.6,0-2.6-1-2.6-2.7h-.1ZM857.9,155.9c0-.7-.5-1.1-1.1-1.1s-1.1.5-1.1,1.1h2.2,0Z"/>
          <path class="cls-4" d="M859.8,156.4c0-1.7,1-2.7,2.6-2.7s1.9.5,2.2,1.2v.4c0,.4-.3.6-.6.6s-.5-.1-.6-.4c-.3-.5-.6-.7-1-.7-.7,0-1.2.6-1.2,1.6s.4,1.6,1.2,1.6.8-.2,1-.6c.2-.3.3-.4.7-.4s.6.2.6.6,0,.2,0,.4c-.3.7-1.2,1.2-2.2,1.2-1.6,0-2.6-1-2.6-2.7h-.1Z"/>
          <path class="cls-4" d="M865.4,158.4v-4c0-.4.3-.7.7-.7s.7.3.7.7v.3h0c0-.6.6-1,1.1-1s.3,0,.4.1c0,.1.2.3.2.5s0,.4-.2.5-.3.2-.6.2c-.7,0-.9.4-.9,1v2.3c0,.5-.3.7-.7.7s-.7-.3-.7-.7h0Z"/>
          <path class="cls-4" d="M868.7,156.4c0-1.7,1-2.8,2.5-2.8s2.5,1,2.5,2.4-.2.6-.6.6h-3c0,.8.5,1.3,1.2,1.3s.9-.2,1.2-.6c.2-.2.3-.2.5-.2.3,0,.6.2.6.5v.4c-.3.6-1.2,1-2.2,1-1.6,0-2.6-1-2.6-2.7h-.1ZM872.3,155.9c0-.7-.5-1.1-1.1-1.1s-1.1.5-1.1,1.1h2.2,0Z"/>
          <path class="cls-4" d="M874.8,154.9h-.3c-.3,0-.5-.2-.5-.5s.2-.5.5-.5h.3v-.6c0-.5.3-.7.7-.7s.7.3.7.7v.6h.5c.3,0,.5.2.5.5s-.2.5-.5.5h-.5v2.5c0,.4,0,.5.4.6h0c.3,0,.5.2.5.5s-.4.6-1,.6h0c-1,0-1.4-.5-1.4-1.4v-2.8h0Z"/>
          <path class="cls-4" d="M75,517.3v-5.5c0-.5.3-.8.7-.8h2.3c1.3,0,2.2.7,2.2,1.8s-.6,1.4-1.3,1.5h0c1,0,1.7.8,1.7,1.8s-.9,2-2.4,2h-2.4c-.5,0-.7-.3-.7-.8h0ZM77.5,514c.8,0,1.2-.3,1.2-.9s-.4-.9-1.1-.9h-1.2v1.8h1.1ZM77.7,517c.8,0,1.3-.4,1.3-1s-.5-1-1.3-1h-1.2v2h1.3-.1Z"/>
          <path class="cls-4" d="M83.3,517.5v-5.6c0-.6.3-1,.9-1s.8.2,1,.8l1.8,4.3h0l1.7-4.3c.2-.5.5-.8,1-.8s.9.4.9,1v5.6c0,.4-.2.7-.7.7s-.7-.2-.7-.7v-4.2h0l-1.7,4.3c0,.3-.3.5-.6.5s-.5,0-.6-.5l-1.7-4.3h0v4.2c0,.4-.2.7-.7.7s-.7-.2-.7-.7h0Z"/>
          <path class="cls-4" d="M91.6,516.6c0-1,.7-1.5,2-1.6h1.3v-.4c0-.5-.3-.8-.9-.8s-.7,0-1,.5c-.2.2-.3.3-.6.3s-.6-.2-.6-.5v-.3c.2-.6,1.1-1,2.2-1s2.2.7,2.2,1.8v3c0,.5-.3.7-.7.7s-.7-.2-.7-.6v-.3h0c-.3.6-.9.9-1.6.9-1,0-1.8-.6-1.8-1.6h.2ZM94.9,516.2v-.4h-1.1c-.5,0-.8.4-.8.7s.3.6.8.6,1.1-.4,1.1-1h0Z"/>
          <path class="cls-4" d="M97.2,511.5c0-.4.3-.7.8-.7s.8.3.8.7-.3.7-.8.7-.8-.3-.8-.7ZM97.3,517.5v-4c0-.5.3-.8.7-.8s.7.3.7.8v4c0,.5-.3.7-.7.7s-.7-.3-.7-.7Z"/>
          <path class="cls-4" d="M99.6,517.5v-4c0-.5.3-.7.7-.7s.7.3.7.7v.3h0c.3-.7.8-1,1.6-1,1.2,0,1.8.7,1.8,2v2.7c0,.5-.3.7-.7.7s-.7-.2-.7-.7v-2.4c0-.7-.3-1.1-1-1.1s-1,.5-1,1.2v2.4c0,.5-.3.7-.7.7s-.7-.2-.7-.7h0Z"/>
          <path class="cls-4" d="M51.7,345.9v-.4c0-.4.3-.6.7-.6s.5.1.7.4c.2.5.8.8,1.5.8s1.3-.4,1.3-.9-.3-.7-1.2-.9h-.8c-1.4-.4-2.1-1.1-2.1-2.1s1.1-2.1,2.7-2.1,2.3.5,2.6,1.5v.3c0,.4-.2.6-.6.6s-.5-.1-.7-.4c-.2-.5-.7-.8-1.3-.8s-1.2.3-1.2.9.3.7,1.2.9h.7c1.5.4,2.1,1,2.1,2.1s-1.1,2.2-2.8,2.2-2.4-.6-2.7-1.4h-.1Z"/>
          <path class="cls-4" d="M57.8,344.5c0-1.7,1-2.7,2.6-2.7s1.9.5,2.2,1.2v.4c0,.4-.3.6-.6.6s-.5-.1-.6-.4c-.3-.5-.6-.7-1-.7-.7,0-1.2.6-1.2,1.6s.4,1.6,1.2,1.6.8-.2,1-.6c.2-.3.3-.4.7-.4s.6.2.6.6v.4c-.3.7-1.2,1.2-2.2,1.2-1.6,0-2.6-1-2.6-2.7h-.1Z"/>
          <path class="cls-4" d="M63.4,346.5v-4c0-.5.3-.7.7-.7s.7.3.7.7v.3h0c0-.6.6-1,1.1-1s.3,0,.4.1.2.3.2.5,0,.4-.2.5-.3.2-.6.2c-.7,0-.9.4-.9,1v2.3c0,.5-.3.7-.7.7s-.7-.3-.7-.7h0Z"/>
          <path class="cls-4" d="M66.7,344.5c0-1.7,1-2.8,2.5-2.8s2.5,1,2.5,2.4-.2.6-.6.6h-3c0,.8.5,1.3,1.2,1.3s.9-.2,1.2-.6c.2-.2.3-.2.5-.2.3,0,.6.2.6.5v.4c-.3.6-1.2,1-2.2,1-1.6,0-2.6-1-2.6-2.7h0ZM70.3,344c0-.7-.5-1.1-1.1-1.1s-1.1.5-1.1,1.1h2.2Z"/>
          <path class="cls-4" d="M72.2,344.5c0-1.7,1-2.8,2.5-2.8s2.5,1,2.5,2.4-.2.6-.6.6h-3c0,.8.5,1.3,1.2,1.3s.9-.2,1.2-.6c.2-.2.3-.2.5-.2.3,0,.6.2.6.5v.4c-.3.6-1.2,1-2.2,1-1.6,0-2.6-1-2.6-2.7h0ZM75.9,344c0-.7-.5-1.1-1.1-1.1s-1.1.5-1.1,1.1h2.2Z"/>
          <path class="cls-4" d="M78,346.5v-4c0-.4.3-.7.7-.7s.7.3.7.7v.3h0c.3-.6.8-1,1.6-1,1.2,0,1.8.7,1.8,2v2.7c0,.5-.3.7-.7.7s-.7-.2-.7-.7v-2.4c0-.7-.3-1.1-1-1.1s-1,.5-1,1.1v2.4c0,.5-.3.7-.7.7s-.7-.2-.7-.7h0Z"/>
          <path class="cls-4" d="M176,265.2v-5.7c0-.5.3-.8.7-.8s.7.3.7.8v2.2h3.2v-2.2c0-.5.3-.8.7-.8s.7.3.7.8v5.7c0,.5-.3.8-.7.8s-.7-.3-.7-.8v-2.3h-3.2v2.3c0,.5-.3.8-.7.8s-.7-.3-.7-.8Z"/>
          <path class="cls-4" d="M182.9,264.4c0-1,.7-1.5,2-1.6h1.3v-.4c0-.5-.3-.8-.9-.8s-.7.1-1,.5c-.2.2-.3.3-.6.3s-.6-.2-.6-.5v-.3c.2-.6,1.1-1,2.2-1s2.2.7,2.2,1.8v3c0,.5-.3.7-.7.7s-.6-.2-.7-.6v-.3h0c-.3.6-.9.9-1.6.9-1,0-1.8-.6-1.8-1.6h.2ZM186.3,263.9v-.4h-1.1c-.5.1-.8.4-.8.7s.3.6.8.6,1.1-.4,1.1-1h0Z"/>
          <path class="cls-4" d="M188.6,265.2v-5.8c0-.5.3-.8.7-.8s.7.3.7.8v5.8c0,.5-.3.7-.7.7s-.7-.2-.7-.7Z"/>
          <path class="cls-4" d="M191,265.2v-5.8c0-.5.3-.8.7-.8s.7.3.7.8v5.8c0,.5-.3.7-.7.7s-.7-.2-.7-.7Z"/>
          <path class="cls-4" d="M704.2,481.5v-.5l1.9-5.2c.2-.6.5-.8,1.1-.8s.9.2,1.1.8l1.9,5.2v.5c0,.4-.3.7-.7.7s-.6-.2-.8-.6l-.4-1.1h-2.5l-.4,1.1c0,.5-.4.7-.8.7s-.8-.3-.8-.7h.4ZM708.2,479.3l-.9-2.9h0l-.9,2.9h1.9,0Z"/>
          <path class="cls-4" d="M711.2,481.5v-4c0-.5.3-.7.7-.7s.7.3.7.7v.3h0c0-.6.6-1,1.1-1s.3,0,.4.1c0,.1.2.3.2.5s0,.4-.2.5-.3.2-.6.2c-.7,0-.9.4-.9,1v2.3c0,.5-.3.7-.7.7s-.7-.3-.7-.7h0Z"/>
          <path class="cls-4" d="M715.2,477.9h-.3c-.3,0-.5-.2-.5-.5s.2-.5.5-.5h.3v-.6c0-.5.3-.7.7-.7s.7.3.7.7v.6h.5c.3,0,.5.2.5.5s-.2.5-.5.5h-.5v2.5c0,.4,0,.5.4.5h0c.3,0,.5.2.5.5s-.4.6-1,.6h0c-1,0-1.4-.5-1.4-1.4v-2.8h0Z"/>
          <path class="cls-4" d="M688.3,328.6v-.5l1.9-5.2c.2-.6.5-.8,1.1-.8s.9.2,1.1.8l1.9,5.2v.5c0,.4-.3.7-.7.7s-.6-.2-.8-.6l-.4-1.1h-2.5l-.4,1.1c0,.5-.4.7-.8.7s-.8-.3-.8-.7h.4ZM692.4,326.4l-.9-2.9h0l-.9,2.9h1.9,0Z"/>
          <path class="cls-4" d="M697.5,328.4v-5.6c0-.5.3-.8.7-.8s.7.3.7.8v5.1h2.5c.4,0,.7.2.7.6s-.3.6-.7.6h-3.2c-.5,0-.7-.3-.7-.8h0Z"/>
          <path class="cls-4" d="M702.7,322.6c0-.4.3-.7.8-.7s.8.3.8.7-.3.7-.8.7-.8-.3-.8-.7ZM702.8,328.6v-4c0-.5.3-.8.7-.8s.7.3.7.8v4c0,.5-.3.7-.7.7s-.7-.3-.7-.7Z"/>
          <path class="cls-4" d="M705.2,328.5v-4c0-.4.3-.7.7-.7s.7.3.7.7v.3h0c.3-.6.8-1,1.6-1,1.2,0,1.8.7,1.8,2v2.7c0,.5-.3.7-.7.7s-.7-.2-.7-.7v-2.4c0-.7-.3-1.1-1-1.1s-1,.5-1,1.1v2.4c0,.5-.3.7-.7.7s-.7-.2-.7-.7h0Z"/>
          <path class="cls-4" d="M711,328.5v-5.8c0-.5.3-.8.7-.8s.7.3.7.8v3.2h0l1.9-1.9c.2-.2.3-.3.6-.3s.6.3.6.6,0,.4-.3.5l-1.3,1.3,1.5,1.9c.2.2.2.3.2.5,0,.4-.3.6-.7.6s-.5-.1-.7-.4l-1.3-1.8-.5.4v1.1c0,.5-.3.7-.7.7s-.7-.2-.7-.7h0Z"/>
          <path class="cls-4" d="M950.4,481.5v-.5l1.9-5.2c.2-.6.5-.8,1.1-.8s.9.2,1.1.8l1.9,5.2v.5c0,.4-.3.7-.7.7s-.6-.2-.8-.6l-.4-1.1h-2.5l-.4,1.1c0,.5-.4.7-.8.7s-.8-.3-.8-.7h.4ZM954.5,479.3l-.9-2.9h0l-.9,2.9h1.9,0Z"/>
          <path class="cls-4" d="M959.5,481.5v-5.6c0-.6.3-1,1-1s.8.2,1,.8l1.8,4.3h0l1.7-4.3c.2-.5.5-.8,1-.8s1,.4,1,1v5.6c0,.4-.2.7-.7.7s-.7-.2-.7-.7v-4.2h0l-1.7,4.3c0,.3-.3.5-.6.5s-.5-.1-.6-.4l-1.7-4.3h0v4.2c0,.4-.2.7-.7.7s-.7-.2-.7-.7h0Z"/>
          <path class="cls-4" d="M967.8,480.6c0-1,.7-1.5,2-1.6h1.3v-.4c0-.5-.3-.8-.9-.8s-.7.1-1,.5c-.2.2-.3.3-.6.3s-.6-.2-.6-.5v-.3c.2-.6,1.1-1,2.2-1s2.2.7,2.2,1.8v3c0,.5-.3.7-.7.7s-.7-.2-.7-.6v-.3h0c-.3.6-1,.9-1.6.9-1,0-1.8-.6-1.8-1.6h.2,0ZM971.1,480.2v-.4h-1.1c-.5.1-.8.4-.8.7s.3.6.8.6,1.1-.4,1.1-1h0Z"/>
          <path class="cls-4" d="M973.4,475.5c0-.4.3-.7.8-.7s.8.3.8.7-.3.7-.8.7-.8-.3-.8-.7ZM973.5,481.5v-4c0-.5.3-.8.7-.8s.7.3.7.8v4c0,.5-.3.7-.7.7s-.7-.3-.7-.7Z"/>
          <path class="cls-4" d="M975.8,481.5v-4c0-.4.3-.7.7-.7s.7.3.7.7v.3h0c.3-.6.8-1,1.6-1,1.2,0,1.8.7,1.8,2v2.7c0,.5-.3.7-.7.7s-.7-.2-.7-.7v-2.4c0-.7-.3-1.1-1-1.1s-1,.5-1,1.1v2.4c0,.5-.3.7-.7.7s-.7-.2-.7-.7h0Z"/>
          <path class="cls-4" d="M533.4,64v-7.2c0-.6.4-1,1-1h2.5c2.8,0,4.4,1.6,4.4,4.5s-1.6,4.6-4.4,4.6h-2.5c-.6,0-1-.4-1-1h0ZM536.7,63.4c1.7,0,2.6-1,2.6-3s-1-3-2.6-3h-1.3v6h1.3Z"/>
          <path class="cls-4" d="M542.1,61.6c0-2.2,1.3-3.6,3.3-3.6s3.2,1.3,3.2,3.2-.3.8-.8.8h-3.9c0,1.1.6,1.8,1.5,1.8s1.1-.2,1.6-.8c.2-.2.4-.3.6-.3.4,0,.7.2.7.7v.5c-.5.8-1.5,1.3-2.8,1.3-2.1,0-3.4-1.3-3.4-3.5h0,0ZM546.9,60.9c0-.9-.6-1.5-1.4-1.5s-1.4.6-1.5,1.5h2.9Z"/>
          <path class="cls-4" d="M550.1,64.2v-4.6h-.4c-.4,0-.7-.2-.7-.7s.3-.7.7-.7h.4v-.5c0-1.3.7-1.9,1.9-2,1,0,1.4.3,1.4.8s0,.4-.4.5h-.4c-.6,0-.8.2-.8.8v.4h.8c.4,0,.7.2.7.7s-.3.7-.7.7h-.7v4.6c0,.6-.4,1-.9,1s-.9-.3-.9-1h0Z"/>
          <path class="cls-4" d="M553.8,61.6c0-2.2,1.3-3.6,3.3-3.6s3.2,1.3,3.2,3.2-.3.8-.8.8h-3.9c0,1.1.6,1.8,1.5,1.8s1.1-.2,1.6-.8c.2-.2.4-.3.6-.3.4,0,.7.2.7.7v.5c-.5.8-1.5,1.3-2.8,1.3-2.1,0-3.4-1.3-3.4-3.5h0,0ZM558.5,60.9c0-.9-.6-1.5-1.4-1.5s-1.4.6-1.5,1.5h2.9Z"/>
          <path class="cls-4" d="M561.2,64.2v-5.2c0-.6.3-.9.9-.9s.9.4.9.9v.4h0c.4-.8,1-1.3,2.1-1.3s2.4,1,2.4,2.5v3.6c0,.6-.4,1-.9,1s-.9-.3-.9-1v-3.2c0-.9-.4-1.4-1.2-1.4s-1.4.6-1.4,1.5v3.1c0,.6-.4,1-.9,1s-.9-.3-.9-1h0Z"/>
          <path class="cls-4" d="M568.5,61.6c0-2.2,1.1-3.5,2.8-3.5s1.8.5,2.1,1.3h0v-2.7c0-.6.4-1,.9-1s.9.3.9,1v7.5c0,.6-.4.9-.9.9s-.9-.3-.9-.9v-.4h0c-.3.8-1,1.3-2.1,1.3-1.7,0-2.8-1.3-2.8-3.5h0ZM573.4,61.6c0-1.2-.6-2-1.5-2s-1.5.8-1.5,2,.6,2,1.5,2,1.5-.8,1.5-2Z"/>
          <path class="cls-4" d="M576.2,61.6c0-2.2,1.3-3.6,3.3-3.6s3.2,1.3,3.2,3.2-.3.8-.8.8h-3.9c0,1.1.6,1.8,1.5,1.8s1.1-.2,1.6-.8c.2-.2.4-.3.6-.3.4,0,.7.2.7.7v.5c-.5.8-1.5,1.3-2.8,1.3-2.1,0-3.4-1.3-3.4-3.5h0,0ZM581,60.9c0-.9-.6-1.5-1.4-1.5s-1.4.6-1.5,1.5h2.9Z"/>
          <path class="cls-4" d="M583.7,64.2v-5.2c0-.6.4-.9.9-.9s.9.3.9.9v.4h0c.2-.8.7-1.3,1.4-1.3s.5,0,.6.2c.2,0,.3.4.3.7s0,.5-.3.7-.4.2-.8.2c-.8,0-1.1.5-1.1,1.3v3c0,.6-.4,1-.9,1s-.9-.3-.9-1h-.1Z"/>
          <path class="cls-4" d="M591,63.4v-.5c0-.5.3-.8.8-.8s.7.2.9.6c.3.7,1,1,1.9,1s1.7-.5,1.7-1.2-.4-1-1.6-1.2l-1-.2c-1.8-.4-2.7-1.2-2.7-2.6s1.5-2.8,3.5-2.8,2.9.7,3.3,1.9v.4c0,.5-.3.8-.8.8s-.7-.2-.9-.6c-.3-.7-.9-1-1.7-1s-1.6.4-1.6,1.1.4.9,1.5,1.1l1,.2c1.9.4,2.8,1.2,2.8,2.6s-1.4,2.9-3.7,2.9-3.1-.8-3.5-1.8h0Z"/>
          <path class="cls-4" d="M599.2,66.4v-7.5c0-.6.4-1,.9-1s.9.3.9,1v.4h0c.4-.8,1.1-1.3,2.1-1.3,1.7,0,2.8,1.3,2.8,3.5s-1,3.5-2.8,3.5-1.8-.5-2.1-1.2h0v2.6c0,.6-.4,1-.9,1s-.9-.3-.9-1h0ZM604.1,61.6c0-1.2-.6-2-1.5-2s-1.5.8-1.5,2,.6,2,1.5,2,1.5-.8,1.5-2Z"/>
          <path class="cls-4" d="M606.7,63c0-1.2,1-2,2.7-2.1h1.7v-.5c0-.6-.4-1-1.1-1s-.9.2-1.3.7c-.2.2-.4.3-.7.3-.5,0-.8-.3-.8-.7v-.4c.3-.8,1.4-1.3,2.8-1.3s2.9.9,2.9,2.3v3.9c0,.6-.4.9-.9.9s-.8-.3-.9-.8v-.3h0c-.4.7-1.2,1.2-2.1,1.2-1.3,0-2.3-.8-2.3-2.1h0ZM611,62.5v-.5h-1.4c-.7,0-1.1.5-1.1.9s.4.8,1,.8,1.5-.5,1.5-1.3h0Z"/>
          <path class="cls-4" d="M615.1,64.2l-1.4-4.7v-.6c0-.5.4-.8.9-.8s.8.3.9.8l1,4.4h0l1-4.3c0-.5.5-.8,1-.8s.9.3,1,.8l1.1,4.3h0l1-4.4c0-.5.4-.8.9-.8s.9.3.9.8v.6l-1.4,4.7c-.2.7-.5,1-1.2,1s-1-.3-1.2-1l-1-4h0l-1,4c-.2.7-.5,1-1.2,1s-1-.3-1.2-1h0Z"/>
          <path class="cls-4" d="M624.3,64.2v-5.2c0-.6.3-.9.9-.9s.9.4.9.9v.4h0c.4-.8,1-1.3,2.1-1.3s2.4,1,2.4,2.5v3.6c0,.6-.4,1-.9,1s-.9-.3-.9-1v-3.2c0-.9-.4-1.4-1.2-1.4s-1.4.6-1.4,1.5v3.1c0,.6-.4,1-.9,1s-.9-.3-.9-1h0Z"/>
          <path class="cls-4" d="M269.7,372.9v-5.7c0-.5.3-.8.7-.8s.7.3.7.8v2.2h3.2v-2.2c0-.5.3-.8.7-.8s.7.3.7.8v5.7c0,.5-.3.8-.7.8s-.7-.3-.7-.8v-2.3h-3.2v2.3c0,.5-.3.8-.7.8s-.7-.3-.7-.8Z"/>
          <path class="cls-4" d="M276.7,371c0-1.7,1-2.8,2.5-2.8s2.5,1,2.5,2.4-.2.6-.6.6h-3c0,.8.5,1.3,1.2,1.3s.9-.2,1.2-.6c.1-.2.3-.2.5-.2.3,0,.6.2.6.5s0,.2-.1.4c-.4.6-1.2,1-2.2,1-1.6,0-2.6-1-2.6-2.7h0ZM280.3,370.4c0-.7-.5-1.1-1.1-1.1s-1.1.5-1.1,1.1h2.2Z"/>
          <path class="cls-4" d="M282.2,372.1c0-1,.7-1.5,2-1.6h1.3v-.4c0-.5-.3-.8-.9-.8s-.7.1-1,.5c-.2.2-.3.3-.6.3s-.6-.2-.6-.5v-.3c.2-.6,1.1-1,2.2-1s2.2.7,2.2,1.8v3c0,.5-.3.7-.7.7s-.6-.2-.7-.6v-.3h0c-.3.6-1,.9-1.6.9-1,0-1.8-.6-1.8-1.6h.2ZM285.6,371.7v-.4h-1.1c-.5.1-.8.4-.8.7s.3.6.8.6,1.1-.4,1.1-1h0Z"/>
          <path class="cls-4" d="M289,373l-1.4-3.6v-.4c0-.4.3-.6.7-.6s.6.2.7.6l1.1,3.5h0l1.1-3.5c.1-.4.3-.6.7-.6s.7.3.7.6v.4l-1.4,3.7c-.2.5-.5.7-1,.7s-.8-.2-1-.7h-.2Z"/>
          <path class="cls-4" d="M292.8,371c0-1.7,1-2.8,2.5-2.8s2.5,1,2.5,2.4-.2.6-.6.6h-3c0,.8.5,1.3,1.2,1.3s.9-.2,1.2-.6c.1-.2.3-.2.5-.2.3,0,.6.2.6.5s0,.2-.1.4c-.4.6-1.2,1-2.2,1-1.6,0-2.6-1-2.6-2.7h0ZM296.5,370.4c0-.7-.5-1.1-1.1-1.1s-1.1.5-1.1,1.1h2.2Z"/>
          <path class="cls-4" d="M298.6,373v-4c0-.4.3-.7.7-.7s.7.3.7.7v.3h0c.3-.6.8-1,1.6-1,1.2,0,1.8.7,1.8,2v2.7c0,.5-.3.7-.7.7s-.7-.2-.7-.7v-2.4c0-.7-.3-1.1-1-1.1s-1,.5-1,1.1v2.4c0,.5-.3.7-.7.7s-.7-.2-.7-.7h0Z"/>
          <path class="cls-4" d="M594.3,214.8l-1.5-5.3v-.5c0-.4.3-.7.7-.7s.6.2.7.6l1,4.6h0l1.2-4.5c0-.5.3-.7.8-.7s.6.2.8.6l1.2,4.6h0l1-4.6c0-.4.3-.6.7-.6s.7.2.7.7v.5l-1.5,5.3c-.2.5-.4.7-.8.7s-.7-.2-.9-.8l-1.2-4.2h0l-1.2,4.2c0,.5-.4.8-.9.8s-.7-.2-.9-.8h.1Z"/>
          <path class="cls-4" d="M601.7,214c0-.9.7-1.5,2-1.6h1.3v-.4c0-.5-.3-.8-.9-.8s-.7.1-1,.6c-.2.2-.3.3-.6.3s-.6-.2-.6-.6,0-.2,0-.3c.2-.6,1.1-1,2.2-1s2.2.7,2.2,1.8v3c0,.5-.3.7-.7.7s-.7-.2-.7-.6v-.3h0c-.3.6-1,.9-1.6.9-1,0-1.8-.6-1.8-1.6h.2,0ZM605,213.6v-.4h-1.1c-.5.1-.8.4-.8.7s.3.6.8.6,1.1-.4,1.1-1h0Z"/>
          <path class="cls-4" d="M607.7,211.3h-.3c-.3,0-.5-.2-.5-.5s.2-.5.5-.5h.3v-.6c0-.5.3-.7.7-.7s.7.3.7.7v.6h.5c.3,0,.5.2.5.5s-.2.5-.5.5h-.5v2.5c0,.4,0,.5.4.6h0c.3,0,.5.2.5.5s-.4.6-1,.6h0c-1,0-1.4-.5-1.4-1.4v-2.8h0Z"/>
          <path class="cls-4" d="M610.6,212.9c0-1.7,1-2.8,2.5-2.8s2.5,1,2.5,2.4-.2.6-.6.6h-3c0,.8.5,1.3,1.2,1.3s.9-.2,1.2-.6c.2-.2.3-.2.5-.2.3,0,.6.2.6.5v.4c-.3.6-1.2,1-2.2,1-1.6,0-2.6-1-2.6-2.7h-.1ZM614.3,212.3c0-.7-.5-1.1-1.1-1.1s-1.1.5-1.1,1.1h2.2,0Z"/>
          <path class="cls-4" d="M616.4,214.9v-4c0-.4.3-.7.7-.7s.7.3.7.7v.3h0c0-.6.6-1,1.1-1s.3,0,.4.1c0,.1.2.3.2.5s0,.4-.2.5-.3.2-.6.2c-.7,0-.9.4-.9,1v2.3c0,.5-.3.7-.7.7s-.7-.3-.7-.7h0Z"/>
          <path class="cls-4" d="M331.4,331.8v-5.1h-1.5c-.4,0-.7-.2-.7-.6s.3-.6.7-.6h4.4c.4,0,.7.2.7.6s-.3.6-.7.6h-1.5v5.1c0,.5-.3.8-.7.8s-.7-.3-.7-.8h0Z"/>
          <path class="cls-4" d="M334.9,330.6v-2.7c0-.5.3-.8.7-.8s.7.3.7.8v2.4c0,.7.4,1.1,1,1.1s1-.5,1-1.1v-2.4c0-.5.3-.8.7-.8s.7.3.7.8v4c0,.5-.3.7-.7.7s-.7-.2-.7-.7v-.3h0c-.3.7-.8,1-1.6,1s-1.9-.7-1.9-2h0Z"/>
          <path class="cls-4" d="M340.7,331.8v-4c0-.4.3-.7.7-.7s.7.3.7.7v.3h0c.3-.6.8-1,1.6-1,1.2,0,1.8.7,1.8,2v2.7c0,.5-.3.7-.7.7s-.7-.2-.7-.7v-2.4c0-.7-.3-1.1-1-1.1s-1,.5-1,1.1v2.4c0,.5-.3.7-.7.7s-.7-.2-.7-.7h0Z"/>
          <path class="cls-4" d="M346.5,331.8v-4c0-.4.3-.7.7-.7s.7.3.7.7v.3h0c.3-.6.8-1,1.6-1,1.2,0,1.8.7,1.8,2v2.7c0,.5-.3.7-.7.7s-.7-.2-.7-.7v-2.4c0-.7-.3-1.1-1-1.1s-1,.5-1,1.1v2.4c0,.5-.3.7-.7.7s-.7-.2-.7-.7h0Z"/>
          <path class="cls-4" d="M352.1,329.8c0-1.7,1-2.8,2.5-2.8s2.5,1,2.5,2.4-.2.6-.6.6h-3c0,.8.5,1.3,1.2,1.3s.9-.2,1.2-.6c.1-.2.3-.2.5-.2.3,0,.6.2.6.5s0,.2-.1.4c-.4.6-1.2,1-2.2,1-1.6,0-2.6-1-2.6-2.7h0ZM355.7,329.3c0-.7-.5-1.1-1.1-1.1s-1.1.5-1.1,1.1h2.2Z"/>
          <path class="cls-4" d="M357.8,331.8v-5.8c0-.5.3-.8.7-.8s.7.3.7.8v5.8c0,.5-.3.7-.7.7s-.7-.2-.7-.7Z"/>
          <path class="cls-4" d="M546.1,616.6v-5.6c0-.6.3-1,1-1s.8.2,1,.8l1.8,4.3h0l1.7-4.3c.2-.5.5-.8,1-.8s1,.3,1,1v5.6c0,.4-.2.7-.7.7s-.7-.2-.7-.7v-4.2h0l-1.7,4.3c0,.3-.3.5-.6.5s-.5,0-.6-.4l-1.7-4.3h0v4.2c0,.4-.2.7-.7.7s-.7-.2-.7-.7h0Z"/>
          <path class="cls-4" d="M554.6,610.5c0-.4.3-.7.8-.7s.8.3.8.7-.3.7-.8.7-.8-.3-.8-.7ZM554.6,616.5v-4c0-.5.3-.8.7-.8s.7.3.7.8v4c0,.5-.3.7-.7.7s-.7-.3-.7-.7Z"/>
          <path class="cls-4" d="M556.8,614.5c0-1.7.8-2.7,2.1-2.7s1.3.4,1.6,1h0v-2.1c0-.5.3-.8.7-.8s.7.3.7.8v5.8c0,.5-.3.7-.7.7s-.7-.2-.7-.7v-.3h0c-.2.6-.8,1-1.6,1-1.3,0-2.1-1-2.1-2.7h0ZM560.6,614.5c0-1-.5-1.6-1.2-1.6s-1.2.6-1.2,1.6.4,1.5,1.2,1.5,1.2-.6,1.2-1.5Z"/>
          <path class="cls-4" d="M740.2,184.5v-5.6c0-.5.3-.8.7-.8h3.3c.4,0,.7.2.7.6s-.3.6-.7.6h-2.6v1.9h2.3c.4,0,.6.2.6.6s-.2.6-.6.6h-2.3v2.1c0,.5-.3.8-.7.8s-.7-.3-.7-.8h0Z"/>
          <path class="cls-4" d="M745.6,184.6v-5.8c0-.5.3-.8.7-.8s.7.3.7.8v5.8c0,.5-.3.7-.7.7s-.7-.2-.7-.7Z"/>
          <path class="cls-4" d="M747.8,182.6c0-1.7,1-2.7,2.6-2.7s2.6,1,2.6,2.7-1,2.7-2.6,2.7-2.6-1-2.6-2.7ZM751.6,182.6c0-1-.5-1.6-1.1-1.6s-1.2.6-1.2,1.6.4,1.6,1.2,1.6,1.1-.6,1.1-1.6Z"/>
          <path class="cls-4" d="M754.5,184.5l-1-3.6v-.4c0-.4.3-.6.7-.6s.6.2.7.6l.8,3.4h0l.8-3.3c0-.4.4-.6.8-.6s.7.2.8.6l.8,3.3h0l.8-3.4c0-.4.3-.6.7-.6s.7.2.7.6,0,.2,0,.4l-1,3.6c-.2.5-.4.8-.9.8s-.8-.2-.9-.8l-.8-3.1h0l-.8,3.1c0,.5-.4.8-.9.8s-.8-.2-.9-.8h-.4,0Z"/>
          <path class="cls-4" d="M761.3,182.6c0-1.7,1-2.8,2.5-2.8s2.5,1,2.5,2.4-.2.6-.6.6h-3c0,.8.5,1.3,1.2,1.3s.9-.2,1.2-.6c.2-.2.3-.2.5-.2.3,0,.6.2.6.5v.4c-.3.6-1.2,1-2.2,1-1.6,0-2.6-1-2.6-2.7h-.1ZM765,182c0-.7-.5-1.1-1.1-1.1s-1.1.5-1.1,1.1h2.2,0Z"/>
          <path class="cls-4" d="M767.1,184.6v-4c0-.4.3-.7.7-.7s.7.3.7.7v.3h0c0-.6.6-1,1.1-1s.3,0,.4.1c0,.1.2.3.2.5s0,.4-.2.5-.3.2-.6.2c-.7,0-.9.4-.9,1v2.3c0,.5-.3.7-.7.7s-.7-.3-.7-.7h0Z"/>
          <path class="cls-4" d="M770.6,184.2v-.3c0-.3.2-.6.6-.6s.4.1.6.3c.3.4.6.5,1.1.5s.8-.2.8-.6-.2-.4-.7-.6l-.9-.2c-1-.2-1.5-.7-1.5-1.5s.9-1.6,2.2-1.6,1.9.5,2,1.1v.2c0,.3-.2.5-.5.5s-.4,0-.5-.2c-.2-.3-.5-.6-1-.6s-.8.2-.8.6.2.4.7.6l.9.2c1.1.2,1.6.6,1.6,1.4s-.9,1.7-2.3,1.7-2-.4-2.2-1h0Z"/>
          <path class="cls-4" d="M549.1,326.5c0-2.3,1.3-3.6,3.3-3.6s2.3.6,2.8,1.6c0,.2.2.4.2.5,0,.4-.3.6-.7.6s-.5-.1-.7-.5c-.3-.7-.9-1.1-1.6-1.1-1.1,0-1.8.9-1.8,2.4s.7,2.4,1.8,2.4,1.3-.3,1.6-1c.2-.3.3-.5.7-.5s.7.3.7.6v.5c-.4,1-1.5,1.6-2.8,1.6-2.1,0-3.4-1.4-3.4-3.6h0Z"/>
          <path class="cls-4" d="M556.2,327.5c0-1.7,1-2.7,2.6-2.7s2.6,1,2.6,2.7-1,2.7-2.6,2.7-2.6-1-2.6-2.7ZM559.9,327.5c0-1-.5-1.6-1.1-1.6s-1.2.6-1.2,1.6.4,1.6,1.2,1.6,1.1-.6,1.1-1.6Z"/>
          <path class="cls-4" d="M562.1,329.4v-4c0-.4.3-.7.7-.7s.7.3.7.7v.3h0c.3-.6.8-1,1.6-1,1.2,0,1.8.7,1.8,2v2.7c0,.5-.3.7-.7.7s-.7-.2-.7-.7v-2.4c0-.7-.3-1.1-1-1.1s-1,.5-1,1.1v2.4c0,.5-.3.7-.7.7s-.7-.2-.7-.7h0Z"/>
          <path class="cls-4" d="M567.8,329.4v-4c0-.4.3-.7.7-.7s.7.3.7.7v.3h0c.3-.6.8-1,1.6-1,1.2,0,1.8.7,1.8,2v2.7c0,.5-.3.7-.7.7s-.7-.2-.7-.7v-2.4c0-.7-.3-1.1-1-1.1s-1,.5-1,1.1v2.4c0,.5-.3.7-.7.7s-.7-.2-.7-.7h0Z"/>
          <path class="cls-4" d="M573.4,327.5c0-1.7,1-2.8,2.5-2.8s2.5,1,2.5,2.4-.2.6-.6.6h-3c0,.8.5,1.3,1.2,1.3s.9-.2,1.2-.6c.2-.2.3-.2.5-.2.3,0,.6.2.6.5v.4c-.3.6-1.2,1-2.2,1-1.6,0-2.6-1-2.6-2.7h-.1ZM577,326.9c0-.7-.5-1.1-1.1-1.1s-1.1.5-1.1,1.1h2.2,0Z"/>
          <path class="cls-4" d="M579,327.5c0-1.7,1-2.7,2.6-2.7s1.9.5,2.2,1.2v.4c0,.4-.3.6-.6.6s-.5-.1-.6-.4c-.3-.5-.6-.7-1-.7-.7,0-1.2.6-1.2,1.6s.4,1.6,1.2,1.6.8-.2,1-.6c.2-.3.3-.4.7-.4s.6.2.6.6v.4c-.3.7-1.2,1.2-2.2,1.2-1.6,0-2.6-1-2.6-2.7h-.1Z"/>
          <path class="cls-4" d="M585,325.9h-.3c-.3,0-.5-.2-.5-.5s.2-.5.5-.5h.3v-.6c0-.5.3-.7.7-.7s.7.3.7.7v.6h.5c.3,0,.5.2.5.5s-.2.5-.5.5h-.5v2.5c0,.4,0,.5.4.5h0c.3,0,.5.2.5.5s-.4.6-1,.6h0c-1,0-1.4-.5-1.4-1.4v-2.8h0Z"/>
          <path class="cls-4" d="M587.9,327.5c0-1.7,1-2.7,2.6-2.7s2.6,1,2.6,2.7-1,2.7-2.6,2.7-2.6-1-2.6-2.7ZM591.6,327.5c0-1-.5-1.6-1.1-1.6s-1.2.6-1.2,1.6.5,1.6,1.2,1.6,1.1-.6,1.1-1.6Z"/>
          <path class="cls-4" d="M593.8,329.4v-4c0-.5.3-.7.7-.7s.7.3.7.7v.3h0c0-.6.6-1,1.1-1s.3,0,.5.1c0,.1.2.3.2.5s0,.4-.2.5-.3.2-.6.2c-.7,0-.9.4-.9,1v2.3c0,.5-.3.7-.7.7s-.7-.3-.7-.7h0Z"/>
          <path class="cls-4" d="M403.4,215.6v-5.6c0-.5.3-.8.7-.8h2.1c1.6,0,2.5.9,2.5,2.2s-.4,1.6-1.2,2l1,1.8c.1.2.2.3.2.5,0,.4-.3.7-.7.7s-.5-.1-.8-.6l-1.2-2.1h-1.2v1.9c0,.5-.3.8-.7.8s-.7-.3-.7-.8h0ZM406.1,212.6c.7,0,1.2-.4,1.2-1.1s-.5-1.1-1.2-1.1h-1.2v2.2h1.3,0Z"/>
          <path class="cls-4" d="M409.4,213.6c0-1.7,1-2.8,2.5-2.8s2.5,1,2.5,2.4-.2.6-.6.6h-3c0,.8.5,1.3,1.2,1.3s.9-.2,1.2-.6c.1-.2.3-.2.5-.2.3,0,.6.2.6.5s0,.2-.1.4c-.4.6-1.2,1-2.2,1-1.6,0-2.6-1-2.6-2.7h0ZM413.1,213c0-.7-.5-1.1-1.1-1.1s-1.1.5-1.1,1.1h2.2Z"/>
          <path class="cls-4" d="M415,213.6c0-1.7,1-2.7,2.6-2.7s1.9.5,2.2,1.2v.4c0,.4-.3.6-.6.6s-.5-.1-.6-.4c-.3-.5-.6-.7-1-.7-.7,0-1.2.6-1.2,1.6s.4,1.6,1.2,1.6.8-.2,1-.6c.2-.3.4-.4.6-.4s.6.2.6.6,0,.2,0,.4c-.3.7-1.2,1.2-2.2,1.2-1.6,0-2.6-1-2.6-2.7h0Z"/>
          <path class="cls-4" d="M420.4,213.6c0-1.7,1-2.7,2.6-2.7s2.6,1,2.6,2.7-1,2.7-2.6,2.7-2.6-1-2.6-2.7ZM424.2,213.6c0-1-.5-1.6-1.1-1.6s-1.1.6-1.1,1.6.4,1.6,1.1,1.6,1.1-.6,1.1-1.6Z"/>
          <path class="cls-4" d="M426.3,215.6v-4c0-.4.3-.7.7-.7s.7.3.7.7v.3h0c.1-.6.6-1,1.1-1s.3,0,.4.1.2.3.2.5,0,.4-.2.5-.3.2-.6.2c-.6,0-.9.4-.9,1v2.3c0,.5-.3.7-.7.7s-.7-.3-.7-.7h0Z"/>
          <path class="cls-4" d="M429.6,213.6c0-1.7.8-2.7,2.1-2.7s1.3.4,1.6,1h0v-2.1c0-.5.3-.8.7-.8s.7.3.7.8v5.8c0,.5-.3.7-.7.7s-.7-.2-.7-.7v-.3h0c-.2.6-.8,1-1.6,1-1.3,0-2.1-1-2.1-2.7h0ZM433.4,213.6c0-.9-.5-1.6-1.2-1.6s-1.2.6-1.2,1.6.4,1.6,1.2,1.6,1.2-.6,1.2-1.6Z"/>
          <path class="cls-4" d="M224.7,489.4v-5.5c0-.5.3-.8.7-.8h2.3c1.3,0,2.1.7,2.1,1.8s-.6,1.4-1.3,1.5h0c1,.1,1.7.8,1.7,1.7s-.9,2-2.4,2h-2.4c-.5,0-.7-.3-.7-.8h0ZM227.2,486c.8,0,1.2-.4,1.2-.9s-.4-.9-1.1-.9h-1.2v1.8h1.1ZM227.4,489c.9,0,1.3-.4,1.3-1s-.5-1-1.3-1h-1.2v2h1.3-.1Z"/>
          <path class="cls-4" d="M233.1,489.4v-5.6c0-.5.3-.8.7-.8s.7.3.7.8v5.1h2.5c.4,0,.7.2.7.6s-.3.6-.7.6h-3.2c-.5,0-.7-.3-.7-.8h0Z"/>
          <path class="cls-4" d="M238.3,483.5c0-.4.3-.7.8-.7s.8.3.8.7-.3.7-.8.7-.8-.3-.8-.7ZM238.4,489.5v-4c0-.5.3-.8.7-.8s.7.3.7.8v4c0,.5-.3.7-.7.7s-.7-.3-.7-.7Z"/>
          <path class="cls-4" d="M240.8,489.5v-4c0-.4.3-.7.7-.7s.7.3.7.7v.3h0c.3-.6.8-1,1.6-1,1.2,0,1.8.7,1.8,2v2.7c0,.5-.3.7-.7.7s-.7-.2-.7-.7v-2.4c0-.7-.3-1.1-1-1.1s-1,.5-1,1.1v2.4c0,.5-.3.7-.7.7s-.7-.2-.7-.7h0Z"/>
          <path class="cls-4" d="M246.6,489.5v-5.8c0-.5.3-.8.7-.8s.7.3.7.8v3.2h0l1.9-1.9c.2-.2.4-.3.6-.3.4,0,.6.3.6.6s0,.4-.3.5l-1.3,1.3,1.5,1.9c.2.2.2.3.2.5,0,.4-.3.6-.7.6s-.5-.1-.7-.4l-1.3-1.8-.4.4v1.1c0,.5-.3.7-.7.7s-.7-.2-.7-.7h-.1Z"/>
          <path class="cls-4" d="M171.5,378.3v-16c0-1.4.8-2.2,2.1-2.2h6.8c3.8,0,6.2,2,6.2,5.1s-1.7,4.1-3.8,4.4h0c2.8.3,4.8,2.3,4.8,5s-2.7,5.9-7.1,5.9h-6.9c-1.4,0-2.1-.8-2.1-2.2h0ZM178.8,368.6c2.3,0,3.6-1,3.6-2.7s-1.1-2.6-3.1-2.6h-3.5v5.3h3.1-.1ZM179.5,377.4c2.5,0,3.8-1,3.8-3s-1.4-2.9-3.9-2.9h-3.6v5.9h3.7Z"/>
          <path class="cls-4" d="M918,280v-5.5c0-.5.3-.8.7-.8h2c2.1,0,3.4,1.3,3.4,3.5s-1.2,3.5-3.4,3.5h-2c-.5,0-.7-.3-.7-.8h0ZM920.5,279.6c1.3,0,2-.8,2-2.3s-.7-2.3-2-2.3h-1v4.6h1Z"/>
          <path class="cls-4" d="M924.8,278.9v-2.7c0-.5.3-.8.7-.8s.7.3.7.8v2.4c0,.7.3,1.1,1,1.1s1-.5,1-1.1v-2.4c0-.5.3-.8.7-.8s.7.3.7.8v4c0,.5-.3.7-.7.7s-.7-.2-.7-.7v-.3h0c-.3.7-.8,1-1.6,1s-1.9-.7-1.9-2h0Z"/>
          <path class="cls-4" d="M930.7,281.8v-.4c0-.3.2-.5.6-.5s.3,0,.5.2c.4.4.8.6,1.2.6.8,0,1.2-.4,1.2-1.1v-.8h0c-.2.6-.8.9-1.6.9-1.3,0-2.1-1-2.1-2.6s.8-2.6,2.2-2.6,1.3.4,1.6,1h0v-.3c0-.5.3-.7.7-.7s.7.2.7.7v4.4c0,1.4-1,2.2-2.7,2.2s-1.9-.4-2.2-1h-.1ZM934.2,278.1c0-.9-.5-1.5-1.2-1.5s-1.2.6-1.2,1.5.4,1.5,1.2,1.5,1.2-.6,1.2-1.5Z"/>
          <path class="cls-4" d="M936.3,278.2c0-1.7,1-2.7,2.6-2.7s2.6,1,2.6,2.7-1,2.7-2.6,2.7-2.6-1-2.6-2.7ZM940.1,278.2c0-1-.5-1.6-1.1-1.6s-1.2.6-1.2,1.6.4,1.6,1.2,1.6,1.1-.6,1.1-1.6Z"/>
          <path class="cls-4" d="M942.2,278.9v-2.7c0-.5.3-.8.7-.8s.7.3.7.8v2.4c0,.7.3,1.1,1,1.1s1-.5,1-1.1v-2.4c0-.5.3-.8.7-.8s.7.3.7.8v4c0,.5-.3.7-.7.7s-.7-.2-.7-.7v-.3h0c-.3.7-.8,1-1.6,1s-1.9-.7-1.9-2h0Z"/>
          <path class="cls-4" d="M948.4,276.6h-.3c-.3,0-.5-.2-.5-.5s.2-.5.5-.5h.3v-.6c0-.5.3-.7.7-.7s.7.3.7.7v.6h.5c.3,0,.5.2.5.5s-.2.5-.5.5h-.5v2.5c0,.4,0,.5.4.5h0c.3,0,.5.2.5.5s-.4.6-1,.6h0c-1,0-1.4-.5-1.4-1.4v-2.8h0Z"/>
          <path class="cls-4" d="M883.4,327.4c-1.1,0-1.8-.6-2.2-1.9l-1.1-3.2h-7.4l-1.1,3.2c-.4,1.3-1,1.9-2.2,1.9s-2.1-.8-2.1-2,0-.8.3-1.4l5.6-15.2c.6-1.7,1.6-2.4,3.3-2.4s2.6.8,3.2,2.4l5.6,15.2c.2.5.3,1,.3,1.4,0,1.2-.8,2-2.2,2h0ZM879.2,318.9l-2.7-8.4h0l-2.7,8.4h5.5,0Z"/>
          <path class="cls-4" d="M76.5,692v-5.6c0-.5.3-.8.7-.8h2.2c1.6,0,2.6.8,2.6,2.2s-.4,1.6-1.2,2l1,1.8c0,.2.2.3.2.5,0,.4-.3.7-.7.7s-.5,0-.8-.6l-1.2-2.1h-1.2v1.9c0,.5-.3.8-.7.8s-.7-.3-.7-.8h-.2ZM79.3,689c.7,0,1.2-.4,1.2-1.1s-.5-1.1-1.2-1.1h-1.2v2.2h1.3-.1Z"/>
          <path class="cls-4" d="M82.6,691.1c0-1,.7-1.5,2-1.6h1.3v-.4c0-.5-.3-.8-.9-.8s-.7,0-1,.5c-.2.2-.3.3-.6.3s-.6-.2-.6-.5v-.3c.2-.6,1.1-1,2.2-1s2.2.7,2.2,1.8v3c0,.5-.3.7-.7.7s-.7-.2-.7-.6v-.3h0c-.3.6-.9.9-1.6.9-1,0-1.8-.6-1.8-1.6h.2ZM85.9,690.7v-.4h-1.1c-.5,0-.8.4-.8.7s.3.6.8.6,1.1-.4,1.1-1h0Z"/>
          <path class="cls-4" d="M88.3,692v-4c0-.5.3-.7.7-.7s.7.2.7.7v.3h0c.2-.6.8-1,1.5-1s1.3.4,1.5,1.1h0c.2-.7.9-1.1,1.6-1.1s1.7.7,1.7,1.8v2.9c0,.5-.3.7-.7.7s-.7-.3-.7-.7v-2.6c0-.6-.3-.9-.8-.9s-.9.4-.9,1v2.5c0,.5-.3.7-.7.7s-.7-.3-.7-.7v-2.6c0-.6-.3-.9-.8-.9s-.9.4-.9,1v2.5c0,.5-.3.7-.7.7s-.7-.3-.7-.7h0Z"/>
          <path class="cls-4" d="M96.9,693.7v-5.7c0-.5.3-.7.7-.7s.7.2.7.7v.3h0c.3-.6.9-1,1.6-1,1.3,0,2.1,1,2.1,2.7s-.8,2.7-2.1,2.7-1.3-.4-1.6-1h0v2c0,.5-.3.7-.7.7s-.7-.2-.7-.7h0ZM100.6,690c0-1-.4-1.6-1.2-1.6s-1.2.6-1.2,1.6.5,1.5,1.2,1.5,1.2-.6,1.2-1.5Z"/>
          <path class="cls-4" d="M613.2,713.5v-5.6c0-.6.3-1,1-1s.8.2,1,.8l1.8,4.3h0l1.7-4.3c.2-.5.5-.8,1-.8s1,.3,1,1v5.6c0,.4-.2.7-.7.7s-.7-.2-.7-.7v-4.2h0l-1.7,4.3c0,.3-.3.5-.6.5s-.5,0-.6-.4l-1.7-4.3h0v4.2c0,.4-.2.7-.7.7s-.7-.2-.7-.7h0Z"/>
          <path class="cls-4" d="M621.4,712.6c0-1,.7-1.5,2-1.6h1.3v-.4c0-.5-.3-.8-.9-.8s-.7,0-1,.5c-.2.2-.3.3-.6.3s-.6-.2-.6-.5v-.3c.2-.6,1.1-1,2.2-1s2.2.7,2.2,1.8v3c0,.5-.3.7-.7.7s-.7-.2-.7-.6v-.3h0c-.3.6-1,.9-1.6.9-1,0-1.8-.6-1.8-1.6h.2,0ZM624.8,712.2v-.4h-1.1c-.5,0-.8.4-.8.7s.3.6.8.6,1.1-.4,1.1-1h0Z"/>
          <path class="cls-4" d="M627.1,713.5v-4c0-.5.3-.7.7-.7s.7.3.7.7v.3h0c0-.7.6-1,1.1-1s.3,0,.4,0c0,0,.2.3.2.5s0,.4-.2.5-.3.2-.6.2c-.7,0-.9.4-.9,1v2.3c0,.5-.3.7-.7.7s-.7-.3-.7-.7h0v.2Z"/>
          <path class="cls-4" d="M630.8,713.5v-5.8c0-.5.3-.8.7-.8s.7.3.7.8v3.2h0l1.9-1.9c.2-.2.3-.3.6-.3s.6.3.6.6,0,.3-.3.5l-1.3,1.3,1.5,1.9c.2.2.2.3.2.5,0,.4-.3.6-.7.6s-.5,0-.7-.4l-1.3-1.8-.5.4v1.1c0,.5-.3.7-.7.7s-.7-.2-.7-.7h0Z"/>
          <path class="cls-4" d="M635.7,711.5c0-1.7,1-2.8,2.5-2.8s2.5,1,2.5,2.4-.2.6-.6.6h-3c0,.8.5,1.3,1.2,1.3s.9-.2,1.2-.6c.2-.2.3-.2.5-.2.3,0,.6.2.6.5v.3c-.3.6-1.2,1-2.2,1-1.6,0-2.6-1-2.6-2.7h0v.2h-.1ZM639.3,711c0-.7-.5-1.1-1.1-1.1s-1.1.5-1.1,1.1h2.2,0Z"/>
          <path class="cls-4" d="M641.8,710h-.3c-.3,0-.5-.2-.5-.5s.2-.5.5-.5h.3v-.6c0-.5.3-.7.7-.7s.7.3.7.7v.6h.5c.3,0,.5.2.5.5s-.2.5-.5.5h-.5v2.5c0,.4,0,.5.4.5h0c.3,0,.5.2.5.5s-.4.6-1,.6h0c-1,0-1.4-.5-1.4-1.4v-2.8h0Z"/>
          <path class="cls-4" d="M385.9,703.4v-.4c0-.4.3-.7.6-.7s.5,0,.7.4c.2.5.8.8,1.5.8s1.3-.4,1.3-.9-.3-.7-1.2-.9l-.8-.2c-1.4-.3-2.1-1-2.1-2s1.1-2.1,2.7-2.1,2.3.5,2.6,1.5v.3c0,.3-.2.6-.6.6s-.5,0-.7-.4c-.2-.5-.7-.8-1.3-.8s-1.2.3-1.2.9.3.7,1.2.9l.7.2c1.5.3,2.1.9,2.1,2s-1.1,2.2-2.8,2.2-2.4-.6-2.7-1.3h0Z"/>
          <path class="cls-4" d="M392.2,704v-5.8c0-.5.3-.7.7-.7s.7.3.7.7v2.1h0c.3-.7.9-1,1.6-1,1.2,0,1.8.8,1.8,2v2.7c0,.5-.3.7-.7.7s-.7-.2-.7-.7v-2.4c0-.7-.3-1.1-1-1.1s-1.1.5-1.1,1.2v2.3c0,.5-.3.7-.7.7s-.7-.2-.7-.7h.1Z"/>
          <path class="cls-4" d="M397.8,702c0-1.7,1-2.7,2.6-2.7s2.6,1,2.6,2.7-1,2.7-2.6,2.7-2.6-1-2.6-2.7ZM401.5,702c0-1-.5-1.6-1.1-1.6s-1.1.6-1.1,1.6.4,1.6,1.1,1.6,1.1-.6,1.1-1.6Z"/>
          <path class="cls-4" d="M403.7,705.7v-5.7c0-.5.3-.7.7-.7s.7.2.7.7v.3h0c.3-.6.9-1,1.6-1,1.3,0,2.1,1,2.1,2.7s-.8,2.7-2.1,2.7-1.4-.4-1.6-1h0v2c0,.5-.3.7-.7.7s-.7-.2-.7-.7h0ZM407.4,702c0-1-.5-1.6-1.2-1.6s-1.2.6-1.2,1.6.5,1.5,1.2,1.5,1.2-.6,1.2-1.5Z"/>
          <path class="cls-4" d="M272.2,802.7c0-2.3,1.3-3.6,3.3-3.6s2.3.6,2.8,1.6.1.4.1.5c0,.4-.3.6-.6.6s-.5-.2-.7-.5c-.3-.7-.9-1.1-1.6-1.1-1.1,0-1.8.9-1.8,2.4s.7,2.4,1.8,2.4,1.3-.3,1.6-1c.1-.3.3-.5.6-.5s.7.3.7.7,0,.3-.1.5c-.4,1-1.5,1.6-2.8,1.6-2.1,0-3.4-1.4-3.4-3.6h.1Z"/>
          <path class="cls-4" d="M279.4,805.5v-5.8c0-.5.3-.8.7-.8s.7.3.7.8v5.8c0,.5-.3.7-.7.7s-.7-.2-.7-.7Z"/>
          <path class="cls-4" d="M281.8,804.3v-2.7c0-.5.3-.8.7-.8s.7.3.7.8v2.4c0,.7.4,1.1,1,1.1s1-.5,1-1.2v-2.4c0-.5.3-.8.7-.8s.7.3.7.8v4c0,.5-.3.7-.7.7s-.7-.2-.7-.7v-.3h0c-.3.7-.8,1-1.6,1s-1.9-.7-1.9-2h0Z"/>
          <path class="cls-4" d="M287.6,805.5v-5.8c0-.5.3-.8.7-.8s.7.3.7.8v2.1h0c.3-.6.9-1,1.6-1,1.3,0,2.1,1,2.1,2.7s-.8,2.7-2.1,2.7-1.4-.4-1.6-1h0v.3c0,.5-.3.7-.7.7s-.7-.2-.7-.7h0ZM291.4,803.5c0-1-.4-1.6-1.1-1.6s-1.2.6-1.2,1.6.5,1.5,1.2,1.5,1.1-.6,1.1-1.5Z"/>
          <path class="cls-4" d="M501,481.3v-5.5c0-.5.3-.8.7-.8h2c2.1,0,3.4,1.3,3.4,3.5s-1.2,3.5-3.4,3.5h-2c-.5,0-.7-.3-.7-.8h0ZM503.5,480.9c1.3,0,2-.8,2-2.3s-.7-2.3-2-2.3h-1v4.6h1Z"/>
          <path class="cls-4" d="M507.7,479.5c0-1.7,1-2.7,2.6-2.7s2.6,1,2.6,2.7-1,2.7-2.6,2.7-2.6-1-2.6-2.7h0ZM511.4,479.5c0-1-.5-1.6-1.1-1.6s-1.1.6-1.1,1.6.4,1.6,1.1,1.6,1.1-.6,1.1-1.6Z"/>
          <path class="cls-4" d="M513.4,479.5c0-1.7,1-2.7,2.6-2.7s2.6,1,2.6,2.7-1,2.7-2.6,2.7-2.6-1-2.6-2.7ZM517.1,479.5c0-1-.5-1.6-1.1-1.6s-1.2.6-1.2,1.6.4,1.6,1.2,1.6,1.1-.6,1.1-1.6Z"/>
          <path class="cls-4" d="M519.3,481.5v-4c0-.5.3-.7.7-.7s.7.3.7.7v.3h0c0-.6.6-1,1.1-1s.3,0,.4.1c0,.1.2.3.2.5s0,.4-.2.5-.3.2-.6.2c-.7,0-.9.4-.9,1v2.3c0,.5-.3.7-.7.7s-.7-.3-.7-.7h0Z"/>
          <path class="cls-4" d="M522.8,481.2v-.3c0-.3.2-.5.6-.5s.4.1.6.3c.3.4.6.5,1.1.5s.8-.2.8-.6-.2-.4-.7-.5l-.9-.2c-1-.2-1.5-.7-1.5-1.5s.9-1.6,2.2-1.6,1.9.5,2,1.1v.2c0,.3-.2.5-.5.5s-.4,0-.5-.2c-.2-.3-.5-.6-1-.6s-.8.2-.8.6.2.5.7.6l.9.2c1.1.2,1.6.6,1.6,1.4s-.9,1.7-2.3,1.7-2-.4-2.2-1h0Z"/>
          <path class="cls-4" d="M729.7,661.9v-5.6c0-.5.3-.8.7-.8h2.2c1.6,0,2.5.9,2.5,2.2s-.4,1.6-1.2,2l1,1.8c0,.2.2.3.2.5,0,.4-.3.7-.7.7s-.5,0-.8-.6l-1.2-2.1h-1.2v1.9c0,.5-.3.8-.7.8s-.7-.3-.7-.8h0ZM732.4,659c.7,0,1.2-.4,1.2-1.1s-.5-1.1-1.2-1.1h-1.2v2.2h1.3,0Z"/>
          <path class="cls-4" d="M735.7,660c0-1.7,1-2.8,2.5-2.8s2.5,1,2.5,2.4-.2.6-.6.6h-3c0,.8.5,1.3,1.2,1.3s.9-.2,1.2-.6c.2-.2.3-.2.5-.2.3,0,.6.2.6.5v.3c-.3.6-1.2,1-2.2,1-1.6,0-2.6-1-2.6-2.7h0v.2h-.1ZM739.4,659.4c0-.7-.5-1.1-1.1-1.1s-1.1.5-1.1,1.1h2.2,0Z"/>
          <path class="cls-4" d="M741.3,661.7v-.3c0-.3.2-.5.6-.5s.4,0,.6.3c.3.4.6.5,1.1.5s.8-.2.8-.6-.2-.4-.7-.5l-.9-.2c-1-.2-1.5-.7-1.5-1.5s.9-1.7,2.2-1.7,1.9.5,2,1.1v.2c0,.3-.2.5-.5.5s-.4,0-.5-.2c-.2-.3-.5-.6-1-.6s-.8.2-.8.6.2.5.7.6l.9.2c1.1.2,1.6.6,1.6,1.4s-.9,1.7-2.3,1.7-2-.4-2.2-1h0Z"/>
          <path class="cls-4" d="M747,658.4h-.3c-.3,0-.5-.2-.5-.5s.2-.5.5-.5h.3v-.6c0-.5.3-.7.7-.7s.7.3.7.7v.6h.5c.3,0,.5.2.5.5s-.2.5-.5.5h-.5v2.5c0,.4,0,.5.4.5h0c.3,0,.5.2.5.5s-.4.6-1,.6h0c-1,0-1.4-.5-1.4-1.4v-2.8h0Z"/>
          <path class="cls-4" d="M749.9,661.1c0-1,.7-1.5,2-1.6h1.3v-.4c0-.5-.3-.8-.9-.8s-.7,0-1,.5c-.2.2-.3.3-.6.3s-.6-.2-.6-.5v-.3c.2-.6,1.1-1,2.2-1s2.2.7,2.2,1.8v3c0,.5-.3.7-.7.7s-.7-.2-.7-.6v-.3h0c-.3.6-1,.9-1.6.9-1,0-1.8-.6-1.8-1.6h.2,0ZM753.3,660.7v-.4h-1.1c-.5,0-.8.4-.8.7s.3.6.8.6,1.1-.4,1.1-1h0Z"/>
          <path class="cls-4" d="M755.6,660.7v-2.7c0-.5.3-.8.7-.8s.7.3.7.8v2.4c0,.7.3,1.1,1,1.1s1-.5,1-1.2v-2.4c0-.5.3-.8.7-.8s.7.3.7.8v4c0,.5-.3.7-.7.7s-.7-.2-.7-.7v-.3h0c-.3.7-.8,1-1.6,1s-1.9-.7-1.9-2h0Z"/>
          <path class="cls-4" d="M761.3,662v-4c0-.5.3-.7.7-.7s.7.3.7.7v.3h0c0-.7.6-1,1.1-1s.3,0,.4,0c0,0,.2.3.2.5s0,.4-.2.5-.3.2-.6.2c-.7,0-.9.4-.9,1v2.3c0,.5-.3.7-.7.7s-.7-.3-.7-.7h0v.2Z"/>
          <path class="cls-4" d="M764.7,661.1c0-1,.7-1.5,2-1.6h1.3v-.4c0-.5-.3-.8-.9-.8s-.7,0-1,.5c-.2.2-.3.3-.6.3s-.6-.2-.6-.5v-.3c.2-.6,1.1-1,2.2-1s2.2.7,2.2,1.8v3c0,.5-.3.7-.7.7s-.7-.2-.7-.6v-.3h0c-.3.6-1,.9-1.6.9-1,0-1.8-.6-1.8-1.6h.2,0ZM768,660.7v-.4h-1.1c-.5,0-.8.4-.8.7s.3.6.8.6,1.1-.4,1.1-1h0Z"/>
          <path class="cls-4" d="M770.3,662v-4c0-.4.3-.7.7-.7s.7.3.7.7v.3h0c.3-.7.8-1,1.6-1,1.2,0,1.8.7,1.8,2v2.7c0,.5-.3.7-.7.7s-.7-.2-.7-.7v-2.4c0-.7-.3-1.1-1-1.1s-1,.5-1,1.2v2.4c0,.5-.3.7-.7.7s-.7-.2-.7-.7h0Z"/>
          <path class="cls-4" d="M776.5,658.4h-.3c-.3,0-.5-.2-.5-.5s.2-.5.5-.5h.3v-.6c0-.5.3-.7.7-.7s.7.3.7.7v.6h.5c.3,0,.5.2.5.5s-.2.5-.5.5h-.5v2.5c0,.4,0,.5.4.5h0c.3,0,.5.2.5.5s-.4.6-1,.6h0c-1,0-1.4-.5-1.4-1.4v-2.8h0Z"/>
        </g>
      </g>
      <g id="Layer_1-3" data-name="Layer_1">
        <g id="Body-2" data-name="Body">
          <path class="cls-1" d="M959.4,417.1h-73v24h-18v-50h72v-78h-32v-6h48v-101l-131-131h-185.1v-6.8c0-36.1-26.4-65.3-59-65.3s-59,29.3-59,65.3v98.8h-104l-97.1,34h-50.9v30h0v120h-10v-2h8v-38h-8v-64H93.4v55h17v9H42.4v199.6l-40,39.4v27h40v106h-5v78h147v-32h52v108h187l23,23.1v86.9h194v-134h73l87-86.9v-123.1h56v-16h26v16h74l58-83v-48l-55-55h0ZM673.4,435.1v48h-103v52h-34v-96h-64v-46h14l65-32h29v-16h6v72h104v18h-17ZM738.5,301.1l-39.1-20h-27v106h-56v-58.4l-14-28.6v-55l-4-12.1v-11.9h34v-84h10v20h72l6-4h10v41l2.6,2.6h0l19.5,19.5,11-11,13,13-11,11,24,24h9v48h-60ZM714.4,116.1h-43v-2h84v2h-41ZM796.5,105.1l14,21v23l48,48h28v18h-81l-26-26,10-10-19-19v-1h-2v-54s28,0,28,0ZM270.4,389.1v24h40v-182h10v80h-8v38h58v-96h38v20h88v-52h70v-24h8v-60h10v56h28v10h-36v23.4c0,.1-.2.3-.3.5l-22.1,70c-.4,1.3-1.3,2.4-2.5,3h-.2l-99.9,28.7c-.2,0-.3.1-.5.3h-.5v110h-72v28h-118v-78h10,0ZM230.4,277.1v34h-94v-34h94ZM100.4,578.1h-22v-41h22v41ZM240.4,683.1h-103.9v-138h8v-50h-7.8v-62h95.8v22h-16v58h79.1l33.9,24h63v-32h110.1l13.9,6.1v2.9l-13.9,12.9h-36.1v80h-7l-15-16h-70v200h-38v-108h-96.1ZM647.4,743.1h-156.9v73l-22,22h-2l-21-21v-2l11-10v-104h-20v-68h37l43,44h58v10h-2v46h96v26h-12.6l-8.4-16h0ZM789,549.1h-76.5v194.9l-8.1,15.1h-13.9v-72h-74v-34h32v-88h-32v-41h10v11h134v-49l-20-19v-120h74v45h9v49h-24v29.9l115,40.1v18l-78,20h-47.5Z"/>
        </g>
        <g id="Bombsite-2" data-name="Bombsite">
          <polygon class="cls-5" points="941.4 312.3 909.1 312.3 909.1 252.7 903.9 252.7 903.9 238.6 909.3 238.6 886.4 215 886.4 214.4 881.9 214.4 814.4 214.4 814.4 347.1 886.4 347.1 886.4 347.1 941.4 347.1 941.4 312.3"/>
          <rect class="cls-5" x="136.4" y="311.1" width="96" height="122.9"/>
          <polygon class="cls-3" points="876.9 268.6 829.7 268.6 829.7 288.7 829.8 288.7 829.8 304 844.8 304 844.8 288.7 876.9 288.7 876.9 268.6"/>
          <g>
            <polygon class="cls-3" points="150.1 322.1 165.5 317.2 172.9 344.8 157.5 349.7 150.1 322.1"/>
            <path class="cls-4" d="M157.1,350.5l-7.7-28.9,16.5-5.2,7.7,28.9-16.5,5.2ZM150.9,322.5l7,26.3,14.2-4.5-7-26.3-14.2,4.5Z"/>
          </g>
          <rect class="cls-3" x="152.8" y="310.5" width="17" height="16.1"/>
          <rect class="cls-3" x="210.8" y="360.5" width="26.6" height="19.1"/>
          <rect class="cls-3" x="176" y="418.4" width="14.9" height="15.3"/>
        </g>
        <g id="Lines-2" data-name="Lines">
          <path class="cls-4" d="M716.4,501.1v14h-14v-14h14M717.4,500.1h-16v16h16v-16h0Z"/>
          <path class="cls-4" d="M577.4,483.1v51.1h-7v-51h7M578.4,482.1h-9v53h9v-53h0Z"/>
          <path class="cls-4" d="M561.3,535.1v52.9h-15.9v-52.9h15.9M562.3,534.1h-17.9v54.9h17.9v-54.9h0Z"/>
          <line class="cls-2" x1="517.7" y1="532.8" x2="537.2" y2="524.9"/>
          <path class="cls-4" d="M436.5,685.1v15h-14v-15h14M437.5,684.1h-16v17h16v-17h0Z"/>
          <path class="cls-4" d="M456.5,701.1v7h-7v-7h7M457.5,700.1h-9v9h9v-9h0Z"/>
          <path class="cls-4" d="M452.4,875.1v19h-6v-19h6M453.4,874.1h-8v21h8v-21h0Z"/>
          <path class="cls-4" d="M510.4,930.1v17h-64v-17h64M511.4,929.1h-66v19h66v-19h0Z"/>
          <path class="cls-4" d="M640.4,930.1v17h-81v-17h81M641.4,929.1h-83v19h83v-19h0Z"/>
          <path class="cls-4" d="M640.5,878.1v19h-5v-19h5M641.5,877.1h-7v21h7v-21h0Z"/>
          <polyline class="cls-2" points="739.9 726.1 739.9 677.7 711.5 677.7"/>
          <path class="cls-4" d="M800.5,666.2v15.9h-15v-15.9h15M801.5,665.2h-17v17.9h17v-17.9h0Z"/>
          <line class="cls-2" x1="737" y1="570.1" x2="737" y2="647.2"/>
          <path class="cls-4" d="M964.6,494.9l12.9,7.5-18.4,31.9-12.9-7.5,18.4-31.9M964.2,493.5l-19.4,33.7,14.7,8.5,19.4-33.7-14.7-8.5h0Z"/>
          <path class="cls-4" d="M876.4,269.1v19h-32v15h-14v-33.9h46M877.4,268.1h-48v35.9h16v-15h32v-21h0Z"/>
          <path class="cls-4" d="M912.4,239.1v68h-3v-55h-5v-13h8M913.4,238.1h-10v15h5v55h5v-70h0Z"/>
          <rect class="cls-4" x="913.3" y="238.1" width="7.2" height="1"/>
          <path class="cls-4" d="M768.5,106.1v9h-14v-9h14M769.5,105.1h-16v11h16v-11h0Z"/>
          <path class="cls-4" d="M768.5,116.1v6.9h-7v-6.9h7M769.5,115.1h-9v8.9h9v-8.9h0Z"/>
          <path class="cls-4" d="M611.3,171.2v22h-26.9v-22h26.9M612.3,170.2h-28.9v24h28.9v-24h0Z"/>
          <path class="cls-4" d="M740.5,348.1v15h-14v-15h14M741.5,347.1h-16v17h16v-17h0Z"/>
          <polyline class="cls-2" points="633.8 386.4 633.8 408.5 641.1 417.9"/>
          <rect class="cls-4" x="374.1" y="466.1" width="67.4" height="1"/>
          <polygon class="cls-4" points="329.4 474.1 329.4 466.1 328.4 466.1 328.4 475.1 328.6 475.1 329.4 475.1 420.4 475.1 420.4 474.1 329.4 474.1"/>
          <path class="cls-4" d="M521.4,439.1v14h-15v-14h15M522.4,438.1h-17v16h17v-16h0Z"/>
          <path class="cls-4" d="M387.4,239.1v14h-16v-14h16M388.4,238.1h-18v16h18v-16h0Z"/>
          <path class="cls-4" d="M394.4,247.1v6h-6v-6h6M395.4,246.1h-8v8h8v-8h0Z"/>
          <path class="cls-4" d="M260.4,361.1v18h-49v-18h49M261.4,360.1h-51v20h51v-20h0Z"/>
          <path class="cls-4" d="M260.4,361.1v18h-30v-18h30M261.4,360.1h-32v20h32v-20h0Z"/>
          <rect class="cls-4" x="260.4" y="350.6" width="1" height="39.1"/>
          <path class="cls-4" d="M169.4,311.1v15h-16v-15h16M170.4,310.1h-18v17h18v-17h0Z"/>
          <path class="cls-4" d="M88.4,386.1v15h-46v-15h46M89.4,385.1h-48v17h48v-17h0Z"/>
          <path class="cls-4" d="M190.3,419.1v14h-13.9v-14h13.9M191.3,418.1h-15.9v16h15.9v-16h0Z"/>
          <path class="cls-4" d="M41.4,563.2v14h-7v-14h7M42.4,562.2h-9v16h9v-16h0Z"/>
          <path class="cls-4" d="M277.3,467.1v14h-15.9v-14h15.9M278.3,466.1h-17.9v16h17.9v-16h0Z"/>
          <path class="cls-4" d="M297.4,714.1c5.5,0,10,4.5,10,10s-4.5,10-10,10-10-4.5-10-10,4.5-10,10-10M297.4,713.1c-6.1,0-11,4.9-11,11s4.9,11,11,11,11-4.9,11-11-4.9-11-11-11h0Z"/>
          <rect class="cls-4" x="295.4" y="682.4" width="1" height="31.2"/>
          <rect class="cls-4" x="286.4" y="682.4" width="1" height="40.7"/>
          <rect class="cls-4" x="286.4" y="725.1" width="1" height="55"/>
          <path class="cls-4" d="M104.4,706.1v15h-30v-15h30M105.4,705.1h-32v17h32v-17h0Z"/>
          <rect class="cls-4" x="421.5" y="700.8" width="1" height="93.3"/>
          <path class="cls-4" d="M56.4,371.1v14h-14v-14h14M57.4,370.1h-16v16h16v-16h0Z"/>
          <path class="cls-4" d="M64.4,379.1v6h-7v-6h7M65.4,378.1h-9v8h9v-8h0Z"/>
          <path class="cls-4" d="M96.4,722.1v7h-14v-7h14M97.4,721.1h-16v9h16v-9h0Z"/>
        </g>
        <g id="Outlines-2" data-name="Outlines">
          <path class="cls-4" d="M581.4,3c32.6,0,59,29.3,59,65.3v6.8h185.1l131,131v101h-48v6h32v78h-72v50h18v-24h73l55,55v48l-58,83h-74v-16h-26v16h-56v123.1l-87,86.9h-73v134h-194v-86.9l-23-23.1h-187v-108h-52v32H37.4v-78h5v-106H2.4v-27l40-39.4v-199.6h68v-9h-17v-55h167v64h8v38h-8v2h10v-120h0v-30h50.9l97.1-34h104v-98.8c0-36.1,26.4-65.3,59-65.3M768.4,159.2h2v1l19,19-10,10,26,26h81v-18h-28l-48-48v-23l-14-21h-28v54M671.4,116.1h84v-2h-84v2M408.4,273.1v-20h-38v96h-58v-38h8v-80h-10v182h-40v-24h-10v78h118v-28h72v-110h.5c.1-.1.3-.2.5-.3l99.9-28.7h.2c1.2-.6,2.1-1.7,2.5-3l22.1-70c0-.2.2-.3.3-.5v-23.4h36v-10h-28v-56h-10v60h-8v24h-70v52h-88M616.4,387.2h56v-106h27l39.1,20h59.9v-48h-9l-24-24,11-11-13-13-11,11-19.5-19.5h0l-2.6-2.6v-41h-10l-6,4h-72v-20h-10v84h-34v11.9l4,12.1v55l14,28.6v58.4M136.5,311.1h94v-34h-94v34M472.5,439.1h64v96h34v-52h103v-48h17v-18h-104v-72h-6v16h-29l-65,32h-14v46M626.5,535.1v-11h-10v41h32v88h-32v34h74v72h13.9l8.1-15.1v-194.9h124l78-20v-18l-115-40.1v-29.9h24v-49h-9v-45h-74v120l20,19v49h-134M136.7,495.1h7.8v50h-8v138h200v108h38v-200h70l15,16h7v-80h36.1l13.9-12.9v-2.9l-13.9-6.1h-110.1v32h-63l-33.9-24h-79.1v-58h16v-22h-95.8v62M78.5,578.1h22v-41h-22v41M436.5,701.1h20v104l-11,10v2l21,21h2l22-22v-73h156.9l8.4,16h12.6v-26h-96v-46h2v-10h-58l-43-44h-37v68M581.4,1.9c-33.1,0-60,29.8-60,66.4v97.8h-103.3l-96.9,34h-51.8v32.1h0v77.9h-7.9v-64H92.4v57.1h17v6.9H41.4v200.2L1.7,549.4l-.3.3v28.5h40v103.9h-5v80.1h149.1v-32h49.9v108h187.6l22.4,22.5v87.5h196.1v-134h72.4l.3-.3,87-86.9.3-.3v-122.5h56v-16h23.9v16h75.6l.3-.5,58-83,.2-.3v-48.8l-.3-.3-55-55-.3-.3h-74.5v24h-15.9v-47.9h72v-80.1h-32v-3.9h48v-102.5l-.3-.3-131-131-.3-.3h-184.5v-5.8c0-36.6-26.9-66.4-60-66.4h0ZM769.5,106.2h26.4l13.5,20.3v23.1l.3.3,48,48,.3.3h27.4v15.9h-79.5l-25-24.9,9.3-9.3.7-.7-.7-.7-18.7-18.7v-1.6h-2v-51.9h0ZM575.5,138.2h7.9v56h28v7.9h-36v24.1c0,.2-.2.3-.2.5l-22.1,70c-.3,1-1.1,1.9-2,2.4l-100,28.7c-.2,0-.4.1-.5.2h-1.2v110h-72v28h-115.9v-75.9h7.9v24h42.1v-64h60v-96h35.9v20h90.1v-52h70v-24h8v-60h0ZM633.5,138.2h7.9v20h73.4l.3-.2,5.8-3.8h8.6v40.4l.3.3,1.8,1.8.7.8,19.5,19.5.7.7.7-.7,10.3-10.3,11.5,11.5-10.3,10.3-.7.7.7.7,24,24,.3.3h8.4v45.9h-58.6l-38.8-19.9h-.2c0-.1-28.3-.1-28.3-.1v106h-53.9v-57.8l-14-28.4v-55.1l-4-11.9v-10.7h34v-84h-.1ZM311.5,232.2h7.9v77.9h-7.9v-77.9h0ZM137.5,278.2h91.9v31.9h-91.9v-31.9h0ZM581.5,346.2h3.9v72h104v15.9h-17v48h-103v52h-31.9v-96h-64v-43.9h13.4c0-.1,64.8-32,64.8-32h29.8v-16h0ZM741.5,348.2h71.9v45h9v46.9h-24v31.7l.7.2,114.3,39.8v16.4l-77.1,19.8h-124.9v195.7l-7.7,14.3h-12.2v-72h-74v-31.9h32v-90.1h-32v-38.9h7.9v11h136.1v-50.5l-.3-.3-19.7-18.7v-118.5h0ZM137.7,434.2h93.7v19.9h-16v60.1h79.9l33.6,23.8.3.2h64.4v-32h108.8l13.1,5.8v1.8l-13.3,12.3h-36.7v80h-5.5l-14.7-15.7-.3-.3h-71.5v200h-35.9v-108h-200v-135.9h8v-52.1h-7.8v-59.9h0ZM79.5,538.2h19.9v38.9h-19.9v-38.9h0ZM437.5,634.2h35.5l42.7,43.7.3.3h57.4v7.9h-2v48.1h96v23.9h-10.9l-8.1-15.4-.3-.6h-158.6v73.7l-21.4,21.4h-1.1l-20.4-20.4v-1.1l10.7-9.7.3-.3v-105.5h-20v-65.9h-.1Z"/>
        </g>
        <g id="CAllouts_copy-2" data-name="CAllouts_copy">
          <path class="cls-4" d="M497.8,886.8c0-.2,0-.4.1-.6l2.5-6.8c.3-.7.7-1.1,1.4-1.1s1.2.3,1.5,1.1l2.5,6.8c0,.2.1.4.1.6,0,.5-.4.9-1,.9s-.8-.2-1-.8l-.5-1.5h-3.3l-.5,1.4c-.2.6-.5.9-1,.9s-1-.3-1-.9h.2,0ZM503.1,884l-1.2-3.8h0l-1.2,3.8h2.4Z"/>
          <path class="cls-4" d="M507,882.2h-.4c-.4,0-.7-.3-.7-.7s.3-.7.7-.7h.4v-.8c0-.6.4-1,.9-1s.9.4.9,1v.8h.6c.4,0,.7.3.7.7s-.3.7-.7.7h-.6v3.3c0,.5.2.7.6.7h.1c.5,0,.7.2.7.7s-.5.8-1.3.8h0c-1.2,0-1.9-.6-1.9-1.8v-3.7h0Z"/>
          <path class="cls-4" d="M511.7,882.2h-.4c-.4,0-.7-.3-.7-.7s.3-.7.7-.7h.4v-.8c0-.6.4-1,.9-1s.9.4.9,1v.8h.7c.4,0,.7.3.7.7s-.3.7-.7.7h-.7v3.3c0,.5.2.7.6.7h0c.5,0,.7.2.7.7s-.5.8-1.3.8h0c-1.2,0-1.9-.6-1.9-1.8v-3.7h0Z"/>
          <path class="cls-4" d="M515.5,885.7c0-1.2,1-2,2.7-2.1h1.7v-.5c0-.6-.4-1-1.1-1s-.9.2-1.3.7c-.2.2-.4.3-.7.3-.5,0-.8-.3-.8-.7v-.4c.3-.8,1.4-1.3,2.8-1.3s2.9.9,2.9,2.3v3.9c0,.6-.4.9-.9.9s-.8-.3-.9-.8v-.3h0c-.4.7-1.2,1.2-2.1,1.2-1.3,0-2.3-.8-2.3-2.1h0ZM519.8,885.1v-.5h-1.4c-.7,0-1.1.5-1.1.9s.4.8,1,.8,1.5-.5,1.5-1.3h0Z"/>
          <path class="cls-4" d="M522.6,884.2c0-2.2,1.3-3.5,3.3-3.5s2.5.7,2.9,1.6v.5c0,.5-.4.7-.8.7s-.6-.2-.8-.5c-.3-.6-.8-.9-1.3-.9-.9,0-1.5.8-1.5,2.1s.6,2.1,1.5,2.1,1-.3,1.3-.8c.2-.4.5-.5.8-.5s.8.3.8.7v.5c-.4.9-1.6,1.6-2.9,1.6-2,0-3.3-1.3-3.3-3.5h0Z"/>
          <path class="cls-4" d="M530,886.8v-7.5c0-.6.4-1,.9-1s.9.3.9,1v4.2h0l2.5-2.5c.2-.3.5-.4.7-.4.5,0,.8.3.8.8s0,.5-.3.7l-1.7,1.6,1.9,2.4c.2.3.3.4.3.7,0,.5-.4.8-.9.8s-.6,0-.9-.6l-1.8-2.3-.6.5v1.4c0,.6-.4,1-.9,1s-.9-.3-.9-1h0v.2h0Z"/>
          <path class="cls-4" d="M536.4,884.3c0-2.2,1.3-3.6,3.3-3.6s3.2,1.3,3.2,3.2-.3.8-.8.8h-3.9c0,1.1.6,1.8,1.5,1.8s1.1-.2,1.6-.8c.2-.2.4-.3.6-.3.4,0,.7.2.7.7v.5c-.5.8-1.5,1.3-2.8,1.3-2.1,0-3.4-1.3-3.4-3.5h0,0ZM541.1,883.5c0-.9-.6-1.5-1.4-1.5s-1.4.6-1.5,1.5h2.9Z"/>
          <path class="cls-4" d="M543.8,886.8v-5.2c0-.6.4-.9.9-.9s.9.3.9.9v.4h0c.2-.8.7-1.3,1.4-1.3s.4,0,.6.2c.2,0,.3.4.3.7s0,.5-.3.7-.4.2-.8.2c-.8,0-1.1.5-1.1,1.3v3c0,.6-.4,1-.9,1s-.9-.3-.9-1h-.1Z"/>
          <path class="cls-4" d="M551.2,886v-.5c0-.5.3-.8.8-.8s.7.2.9.6c.3.7,1,1,1.9,1s1.7-.5,1.7-1.2-.4-1-1.6-1.2l-1-.2c-1.8-.4-2.7-1.2-2.7-2.6s1.5-2.8,3.5-2.8,2.9.7,3.3,1.9v.4c0,.5-.3.8-.8.8s-.7-.2-.9-.6c-.3-.7-.9-1-1.7-1s-1.6.4-1.6,1.1.4.9,1.5,1.1l1,.2c1.9.4,2.8,1.2,2.8,2.6s-1.4,2.9-3.7,2.9-3.1-.8-3.5-1.8h0Z"/>
          <path class="cls-4" d="M559.3,889.1v-7.5c0-.6.4-1,.9-1s.9.3.9,1v.4h0c.4-.8,1.1-1.3,2.1-1.3,1.7,0,2.8,1.3,2.8,3.5s-1,3.5-2.8,3.5-1.8-.5-2.1-1.2h0v2.6c0,.6-.4,1-.9,1s-.9-.3-.9-1h0ZM564.2,884.2c0-1.2-.6-2-1.5-2s-1.5.8-1.5,2,.6,2,1.5,2,1.5-.8,1.5-2Z"/>
          <path class="cls-4" d="M566.8,885.7c0-1.2,1-2,2.7-2.1h1.7v-.5c0-.6-.4-1-1.1-1s-.9.2-1.3.7c-.2.2-.4.3-.7.3-.5,0-.8-.3-.8-.7v-.4c.3-.8,1.4-1.3,2.8-1.3s2.9.9,2.9,2.3v3.9c0,.6-.4.9-.9.9s-.8-.3-.9-.8v-.3h0c-.4.7-1.2,1.2-2.1,1.2-1.3,0-2.3-.8-2.3-2.1h0ZM571.2,885.1v-.5h-1.4c-.7,0-1.1.5-1.1.9s.4.8,1,.8,1.5-.5,1.5-1.3h0Z"/>
          <path class="cls-4" d="M575.2,886.8l-1.4-4.7v-.6c0-.5.4-.8.9-.8s.8.3.9.8l1,4.4h0l1-4.3c0-.5.5-.8,1-.8s.9.3,1,.8l1.1,4.3h0l1-4.4c0-.5.4-.8.9-.8s.9.3.9.8v.6l-1.4,4.8c-.2.7-.5,1-1.2,1s-1-.3-1.2-1l-1-4h0l-1,4c-.2.7-.5,1-1.2,1s-1-.3-1.2-1h0Z"/>
          <path class="cls-4" d="M584.4,886.8v-5.2c0-.6.3-.9.9-.9s.9.4.9.9v.4h0c.4-.8,1-1.3,2.1-1.3s2.4,1,2.4,2.5v3.5c0,.6-.4,1-.9,1s-.9-.3-.9-1v-3.2c0-.9-.4-1.4-1.2-1.4s-1.4.6-1.4,1.5v3.1c0,.6-.4,1-.9,1s-.9-.3-.9-1h0Z"/>
          <path class="cls-4" d="M848.1,157.8v-.4c0-.4.3-.6.7-.6s.5.1.7.4c.2.5.8.8,1.5.8s1.3-.4,1.3-.9-.3-.7-1.2-.9h-.8c-1.4-.4-2.1-1.1-2.1-2.1s1.1-2.1,2.7-2.1,2.3.5,2.6,1.5v.3c0,.4-.2.6-.6.6s-.5-.1-.7-.4c-.2-.5-.7-.8-1.3-.8s-1.2.3-1.2.9.3.7,1.2.9h.7c1.5.4,2.1,1,2.1,2.1s-1.1,2.2-2.8,2.2-2.4-.6-2.7-1.4h-.1Z"/>
          <path class="cls-4" d="M854.2,156.4c0-1.7,1-2.8,2.5-2.8s2.5,1,2.5,2.4-.2.6-.6.6h-3c0,.8.5,1.3,1.2,1.3s.9-.2,1.2-.6c.2-.2.3-.2.5-.2.3,0,.6.2.6.5v.4c-.3.6-1.2,1-2.2,1-1.6,0-2.6-1-2.6-2.7h-.1ZM857.9,155.9c0-.7-.5-1.1-1.1-1.1s-1.1.5-1.1,1.1h2.2,0Z"/>
          <path class="cls-4" d="M859.8,156.4c0-1.7,1-2.7,2.6-2.7s1.9.5,2.2,1.2v.4c0,.4-.3.6-.6.6s-.5-.1-.6-.4c-.3-.5-.6-.7-1-.7-.7,0-1.2.6-1.2,1.6s.4,1.6,1.2,1.6.8-.2,1-.6c.2-.3.3-.4.7-.4s.6.2.6.6,0,.2,0,.4c-.3.7-1.2,1.2-2.2,1.2-1.6,0-2.6-1-2.6-2.7h-.1Z"/>
          <path class="cls-4" d="M865.4,158.4v-4c0-.4.3-.7.7-.7s.7.3.7.7v.3h0c0-.6.6-1,1.1-1s.3,0,.4.1c0,.1.2.3.2.5s0,.4-.2.5-.3.2-.6.2c-.7,0-.9.4-.9,1v2.3c0,.5-.3.7-.7.7s-.7-.3-.7-.7h0Z"/>
          <path class="cls-4" d="M868.7,156.4c0-1.7,1-2.8,2.5-2.8s2.5,1,2.5,2.4-.2.6-.6.6h-3c0,.8.5,1.3,1.2,1.3s.9-.2,1.2-.6c.2-.2.3-.2.5-.2.3,0,.6.2.6.5v.4c-.3.6-1.2,1-2.2,1-1.6,0-2.6-1-2.6-2.7h-.1ZM872.3,155.9c0-.7-.5-1.1-1.1-1.1s-1.1.5-1.1,1.1h2.2,0Z"/>
          <path class="cls-4" d="M874.8,154.9h-.3c-.3,0-.5-.2-.5-.5s.2-.5.5-.5h.3v-.6c0-.5.3-.7.7-.7s.7.3.7.7v.6h.5c.3,0,.5.2.5.5s-.2.5-.5.5h-.5v2.5c0,.4,0,.5.4.6h0c.3,0,.5.2.5.5s-.4.6-1,.6h0c-1,0-1.4-.5-1.4-1.4v-2.8h0Z"/>
          <path class="cls-4" d="M75,517.3v-5.5c0-.5.3-.8.7-.8h2.3c1.3,0,2.2.7,2.2,1.8s-.6,1.4-1.3,1.5h0c1,0,1.7.8,1.7,1.8s-.9,2-2.4,2h-2.4c-.5,0-.7-.3-.7-.8h0ZM77.5,514c.8,0,1.2-.3,1.2-.9s-.4-.9-1.1-.9h-1.2v1.8h1.1ZM77.7,517c.8,0,1.3-.4,1.3-1s-.5-1-1.3-1h-1.2v2h1.3-.1Z"/>
          <path class="cls-4" d="M83.3,517.5v-5.6c0-.6.3-1,.9-1s.8.2,1,.8l1.8,4.3h0l1.7-4.3c.2-.5.5-.8,1-.8s.9.4.9,1v5.6c0,.4-.2.7-.7.7s-.7-.2-.7-.7v-4.2h0l-1.7,4.3c0,.3-.3.5-.6.5s-.5,0-.6-.5l-1.7-4.3h0v4.2c0,.4-.2.7-.7.7s-.7-.2-.7-.7h0Z"/>
          <path class="cls-4" d="M91.6,516.6c0-1,.7-1.5,2-1.6h1.3v-.4c0-.5-.3-.8-.9-.8s-.7,0-1,.5c-.2.2-.3.3-.6.3s-.6-.2-.6-.5v-.3c.2-.6,1.1-1,2.2-1s2.2.7,2.2,1.8v3c0,.5-.3.7-.7.7s-.7-.2-.7-.6v-.3h0c-.3.6-.9.9-1.6.9-1,0-1.8-.6-1.8-1.6h.2ZM94.9,516.2v-.4h-1.1c-.5,0-.8.4-.8.7s.3.6.8.6,1.1-.4,1.1-1h0Z"/>
          <path class="cls-4" d="M97.2,511.5c0-.4.3-.7.8-.7s.8.3.8.7-.3.7-.8.7-.8-.3-.8-.7ZM97.3,517.5v-4c0-.5.3-.8.7-.8s.7.3.7.8v4c0,.5-.3.7-.7.7s-.7-.3-.7-.7Z"/>
          <path class="cls-4" d="M99.6,517.5v-4c0-.5.3-.7.7-.7s.7.3.7.7v.3h0c.3-.7.8-1,1.6-1,1.2,0,1.8.7,1.8,2v2.7c0,.5-.3.7-.7.7s-.7-.2-.7-.7v-2.4c0-.7-.3-1.1-1-1.1s-1,.5-1,1.2v2.4c0,.5-.3.7-.7.7s-.7-.2-.7-.7h0Z"/>
          <path class="cls-4" d="M51.7,345.9v-.4c0-.4.3-.6.7-.6s.5.1.7.4c.2.5.8.8,1.5.8s1.3-.4,1.3-.9-.3-.7-1.2-.9h-.8c-1.4-.4-2.1-1.1-2.1-2.1s1.1-2.1,2.7-2.1,2.3.5,2.6,1.5v.3c0,.4-.2.6-.6.6s-.5-.1-.7-.4c-.2-.5-.7-.8-1.3-.8s-1.2.3-1.2.9.3.7,1.2.9h.7c1.5.4,2.1,1,2.1,2.1s-1.1,2.2-2.8,2.2-2.4-.6-2.7-1.4h-.1Z"/>
          <path class="cls-4" d="M57.8,344.5c0-1.7,1-2.7,2.6-2.7s1.9.5,2.2,1.2v.4c0,.4-.3.6-.6.6s-.5-.1-.6-.4c-.3-.5-.6-.7-1-.7-.7,0-1.2.6-1.2,1.6s.4,1.6,1.2,1.6.8-.2,1-.6c.2-.3.3-.4.7-.4s.6.2.6.6v.4c-.3.7-1.2,1.2-2.2,1.2-1.6,0-2.6-1-2.6-2.7h-.1Z"/>
          <path class="cls-4" d="M63.4,346.5v-4c0-.5.3-.7.7-.7s.7.3.7.7v.3h0c0-.6.6-1,1.1-1s.3,0,.4.1.2.3.2.5,0,.4-.2.5-.3.2-.6.2c-.7,0-.9.4-.9,1v2.3c0,.5-.3.7-.7.7s-.7-.3-.7-.7h0Z"/>
          <path class="cls-4" d="M66.7,344.5c0-1.7,1-2.8,2.5-2.8s2.5,1,2.5,2.4-.2.6-.6.6h-3c0,.8.5,1.3,1.2,1.3s.9-.2,1.2-.6c.2-.2.3-.2.5-.2.3,0,.6.2.6.5v.4c-.3.6-1.2,1-2.2,1-1.6,0-2.6-1-2.6-2.7h0ZM70.3,344c0-.7-.5-1.1-1.1-1.1s-1.1.5-1.1,1.1h2.2Z"/>
          <path class="cls-4" d="M72.2,344.5c0-1.7,1-2.8,2.5-2.8s2.5,1,2.5,2.4-.2.6-.6.6h-3c0,.8.5,1.3,1.2,1.3s.9-.2,1.2-.6c.2-.2.3-.2.5-.2.3,0,.6.2.6.5v.4c-.3.6-1.2,1-2.2,1-1.6,0-2.6-1-2.6-2.7h0ZM75.9,344c0-.7-.5-1.1-1.1-1.1s-1.1.5-1.1,1.1h2.2Z"/>
          <path class="cls-4" d="M78,346.5v-4c0-.4.3-.7.7-.7s.7.3.7.7v.3h0c.3-.6.8-1,1.6-1,1.2,0,1.8.7,1.8,2v2.7c0,.5-.3.7-.7.7s-.7-.2-.7-.7v-2.4c0-.7-.3-1.1-1-1.1s-1,.5-1,1.1v2.4c0,.5-.3.7-.7.7s-.7-.2-.7-.7h0Z"/>
          <path class="cls-4" d="M176,265.2v-5.7c0-.5.3-.8.7-.8s.7.3.7.8v2.2h3.2v-2.2c0-.5.3-.8.7-.8s.7.3.7.8v5.7c0,.5-.3.8-.7.8s-.7-.3-.7-.8v-2.3h-3.2v2.3c0,.5-.3.8-.7.8s-.7-.3-.7-.8Z"/>
          <path class="cls-4" d="M182.9,264.4c0-1,.7-1.5,2-1.6h1.3v-.4c0-.5-.3-.8-.9-.8s-.7.1-1,.5c-.2.2-.3.3-.6.3s-.6-.2-.6-.5v-.3c.2-.6,1.1-1,2.2-1s2.2.7,2.2,1.8v3c0,.5-.3.7-.7.7s-.6-.2-.7-.6v-.3h0c-.3.6-.9.9-1.6.9-1,0-1.8-.6-1.8-1.6h.2ZM186.3,263.9v-.4h-1.1c-.5.1-.8.4-.8.7s.3.6.8.6,1.1-.4,1.1-1h0Z"/>
          <path class="cls-4" d="M188.6,265.2v-5.8c0-.5.3-.8.7-.8s.7.3.7.8v5.8c0,.5-.3.7-.7.7s-.7-.2-.7-.7Z"/>
          <path class="cls-4" d="M191,265.2v-5.8c0-.5.3-.8.7-.8s.7.3.7.8v5.8c0,.5-.3.7-.7.7s-.7-.2-.7-.7Z"/>
          <path class="cls-4" d="M704.2,481.5v-.5l1.9-5.2c.2-.6.5-.8,1.1-.8s.9.2,1.1.8l1.9,5.2v.5c0,.4-.3.7-.7.7s-.6-.2-.8-.6l-.4-1.1h-2.5l-.4,1.1c0,.5-.4.7-.8.7s-.8-.3-.8-.7h.4ZM708.2,479.3l-.9-2.9h0l-.9,2.9h1.9,0Z"/>
          <path class="cls-4" d="M711.2,481.5v-4c0-.5.3-.7.7-.7s.7.3.7.7v.3h0c0-.6.6-1,1.1-1s.3,0,.4.1c0,.1.2.3.2.5s0,.4-.2.5-.3.2-.6.2c-.7,0-.9.4-.9,1v2.3c0,.5-.3.7-.7.7s-.7-.3-.7-.7h0Z"/>
          <path class="cls-4" d="M715.2,477.9h-.3c-.3,0-.5-.2-.5-.5s.2-.5.5-.5h.3v-.6c0-.5.3-.7.7-.7s.7.3.7.7v.6h.5c.3,0,.5.2.5.5s-.2.5-.5.5h-.5v2.5c0,.4,0,.5.4.5h0c.3,0,.5.2.5.5s-.4.6-1,.6h0c-1,0-1.4-.5-1.4-1.4v-2.8h0Z"/>
          <path class="cls-4" d="M688.3,328.6v-.5l1.9-5.2c.2-.6.5-.8,1.1-.8s.9.2,1.1.8l1.9,5.2v.5c0,.4-.3.7-.7.7s-.6-.2-.8-.6l-.4-1.1h-2.5l-.4,1.1c0,.5-.4.7-.8.7s-.8-.3-.8-.7h.4ZM692.4,326.4l-.9-2.9h0l-.9,2.9h1.9,0Z"/>
          <path class="cls-4" d="M697.5,328.4v-5.6c0-.5.3-.8.7-.8s.7.3.7.8v5.1h2.5c.4,0,.7.2.7.6s-.3.6-.7.6h-3.2c-.5,0-.7-.3-.7-.8h0Z"/>
          <path class="cls-4" d="M702.7,322.6c0-.4.3-.7.8-.7s.8.3.8.7-.3.7-.8.7-.8-.3-.8-.7ZM702.8,328.6v-4c0-.5.3-.8.7-.8s.7.3.7.8v4c0,.5-.3.7-.7.7s-.7-.3-.7-.7Z"/>
          <path class="cls-4" d="M705.2,328.5v-4c0-.4.3-.7.7-.7s.7.3.7.7v.3h0c.3-.6.8-1,1.6-1,1.2,0,1.8.7,1.8,2v2.7c0,.5-.3.7-.7.7s-.7-.2-.7-.7v-2.4c0-.7-.3-1.1-1-1.1s-1,.5-1,1.1v2.4c0,.5-.3.7-.7.7s-.7-.2-.7-.7h0Z"/>
          <path class="cls-4" d="M711,328.5v-5.8c0-.5.3-.8.7-.8s.7.3.7.8v3.2h0l1.9-1.9c.2-.2.3-.3.6-.3s.6.3.6.6,0,.4-.3.5l-1.3,1.3,1.5,1.9c.2.2.2.3.2.5,0,.4-.3.6-.7.6s-.5-.1-.7-.4l-1.3-1.8-.5.4v1.1c0,.5-.3.7-.7.7s-.7-.2-.7-.7h0Z"/>
          <path class="cls-4" d="M950.4,481.5v-.5l1.9-5.2c.2-.6.5-.8,1.1-.8s.9.2,1.1.8l1.9,5.2v.5c0,.4-.3.7-.7.7s-.6-.2-.8-.6l-.4-1.1h-2.5l-.4,1.1c0,.5-.4.7-.8.7s-.8-.3-.8-.7h.4ZM954.5,479.3l-.9-2.9h0l-.9,2.9h1.9,0Z"/>
          <path class="cls-4" d="M959.5,481.5v-5.6c0-.6.3-1,1-1s.8.2,1,.8l1.8,4.3h0l1.7-4.3c.2-.5.5-.8,1-.8s1,.4,1,1v5.6c0,.4-.2.7-.7.7s-.7-.2-.7-.7v-4.2h0l-1.7,4.3c0,.3-.3.5-.6.5s-.5-.1-.6-.4l-1.7-4.3h0v4.2c0,.4-.2.7-.7.7s-.7-.2-.7-.7h0Z"/>
          <path class="cls-4" d="M967.8,480.6c0-1,.7-1.5,2-1.6h1.3v-.4c0-.5-.3-.8-.9-.8s-.7.1-1,.5c-.2.2-.3.3-.6.3s-.6-.2-.6-.5v-.3c.2-.6,1.1-1,2.2-1s2.2.7,2.2,1.8v3c0,.5-.3.7-.7.7s-.7-.2-.7-.6v-.3h0c-.3.6-1,.9-1.6.9-1,0-1.8-.6-1.8-1.6h.2,0ZM971.1,480.2v-.4h-1.1c-.5.1-.8.4-.8.7s.3.6.8.6,1.1-.4,1.1-1h0Z"/>
          <path class="cls-4" d="M973.4,475.5c0-.4.3-.7.8-.7s.8.3.8.7-.3.7-.8.7-.8-.3-.8-.7ZM973.5,481.5v-4c0-.5.3-.8.7-.8s.7.3.7.8v4c0,.5-.3.7-.7.7s-.7-.3-.7-.7Z"/>
          <path class="cls-4" d="M975.8,481.5v-4c0-.4.3-.7.7-.7s.7.3.7.7v.3h0c.3-.6.8-1,1.6-1,1.2,0,1.8.7,1.8,2v2.7c0,.5-.3.7-.7.7s-.7-.2-.7-.7v-2.4c0-.7-.3-1.1-1-1.1s-1,.5-1,1.1v2.4c0,.5-.3.7-.7.7s-.7-.2-.7-.7h0Z"/>
          <path class="cls-4" d="M533.4,64v-7.2c0-.6.4-1,1-1h2.5c2.8,0,4.4,1.6,4.4,4.5s-1.6,4.6-4.4,4.6h-2.5c-.6,0-1-.4-1-1h0ZM536.7,63.4c1.7,0,2.6-1,2.6-3s-1-3-2.6-3h-1.3v6h1.3Z"/>
          <path class="cls-4" d="M542.1,61.6c0-2.2,1.3-3.6,3.3-3.6s3.2,1.3,3.2,3.2-.3.8-.8.8h-3.9c0,1.1.6,1.8,1.5,1.8s1.1-.2,1.6-.8c.2-.2.4-.3.6-.3.4,0,.7.2.7.7v.5c-.5.8-1.5,1.3-2.8,1.3-2.1,0-3.4-1.3-3.4-3.5h0,0ZM546.9,60.9c0-.9-.6-1.5-1.4-1.5s-1.4.6-1.5,1.5h2.9Z"/>
          <path class="cls-4" d="M550.1,64.2v-4.6h-.4c-.4,0-.7-.2-.7-.7s.3-.7.7-.7h.4v-.5c0-1.3.7-1.9,1.9-2,1,0,1.4.3,1.4.8s0,.4-.4.5h-.4c-.6,0-.8.2-.8.8v.4h.8c.4,0,.7.2.7.7s-.3.7-.7.7h-.7v4.6c0,.6-.4,1-.9,1s-.9-.3-.9-1h0Z"/>
          <path class="cls-4" d="M553.8,61.6c0-2.2,1.3-3.6,3.3-3.6s3.2,1.3,3.2,3.2-.3.8-.8.8h-3.9c0,1.1.6,1.8,1.5,1.8s1.1-.2,1.6-.8c.2-.2.4-.3.6-.3.4,0,.7.2.7.7v.5c-.5.8-1.5,1.3-2.8,1.3-2.1,0-3.4-1.3-3.4-3.5h0,0ZM558.5,60.9c0-.9-.6-1.5-1.4-1.5s-1.4.6-1.5,1.5h2.9Z"/>
          <path class="cls-4" d="M561.2,64.2v-5.2c0-.6.3-.9.9-.9s.9.4.9.9v.4h0c.4-.8,1-1.3,2.1-1.3s2.4,1,2.4,2.5v3.6c0,.6-.4,1-.9,1s-.9-.3-.9-1v-3.2c0-.9-.4-1.4-1.2-1.4s-1.4.6-1.4,1.5v3.1c0,.6-.4,1-.9,1s-.9-.3-.9-1h0Z"/>
          <path class="cls-4" d="M568.5,61.6c0-2.2,1.1-3.5,2.8-3.5s1.8.5,2.1,1.3h0v-2.7c0-.6.4-1,.9-1s.9.3.9,1v7.5c0,.6-.4.9-.9.9s-.9-.3-.9-.9v-.4h0c-.3.8-1,1.3-2.1,1.3-1.7,0-2.8-1.3-2.8-3.5h0ZM573.4,61.6c0-1.2-.6-2-1.5-2s-1.5.8-1.5,2,.6,2,1.5,2,1.5-.8,1.5-2Z"/>
          <path class="cls-4" d="M576.2,61.6c0-2.2,1.3-3.6,3.3-3.6s3.2,1.3,3.2,3.2-.3.8-.8.8h-3.9c0,1.1.6,1.8,1.5,1.8s1.1-.2,1.6-.8c.2-.2.4-.3.6-.3.4,0,.7.2.7.7v.5c-.5.8-1.5,1.3-2.8,1.3-2.1,0-3.4-1.3-3.4-3.5h0,0ZM581,60.9c0-.9-.6-1.5-1.4-1.5s-1.4.6-1.5,1.5h2.9Z"/>
          <path class="cls-4" d="M583.7,64.2v-5.2c0-.6.4-.9.9-.9s.9.3.9.9v.4h0c.2-.8.7-1.3,1.4-1.3s.5,0,.6.2c.2,0,.3.4.3.7s0,.5-.3.7-.4.2-.8.2c-.8,0-1.1.5-1.1,1.3v3c0,.6-.4,1-.9,1s-.9-.3-.9-1h-.1Z"/>
          <path class="cls-4" d="M591,63.4v-.5c0-.5.3-.8.8-.8s.7.2.9.6c.3.7,1,1,1.9,1s1.7-.5,1.7-1.2-.4-1-1.6-1.2l-1-.2c-1.8-.4-2.7-1.2-2.7-2.6s1.5-2.8,3.5-2.8,2.9.7,3.3,1.9v.4c0,.5-.3.8-.8.8s-.7-.2-.9-.6c-.3-.7-.9-1-1.7-1s-1.6.4-1.6,1.1.4.9,1.5,1.1l1,.2c1.9.4,2.8,1.2,2.8,2.6s-1.4,2.9-3.7,2.9-3.1-.8-3.5-1.8h0Z"/>
          <path class="cls-4" d="M599.2,66.4v-7.5c0-.6.4-1,.9-1s.9.3.9,1v.4h0c.4-.8,1.1-1.3,2.1-1.3,1.7,0,2.8,1.3,2.8,3.5s-1,3.5-2.8,3.5-1.8-.5-2.1-1.2h0v2.6c0,.6-.4,1-.9,1s-.9-.3-.9-1h0ZM604.1,61.6c0-1.2-.6-2-1.5-2s-1.5.8-1.5,2,.6,2,1.5,2,1.5-.8,1.5-2Z"/>
          <path class="cls-4" d="M606.7,63c0-1.2,1-2,2.7-2.1h1.7v-.5c0-.6-.4-1-1.1-1s-.9.2-1.3.7c-.2.2-.4.3-.7.3-.5,0-.8-.3-.8-.7v-.4c.3-.8,1.4-1.3,2.8-1.3s2.9.9,2.9,2.3v3.9c0,.6-.4.9-.9.9s-.8-.3-.9-.8v-.3h0c-.4.7-1.2,1.2-2.1,1.2-1.3,0-2.3-.8-2.3-2.1h0ZM611,62.5v-.5h-1.4c-.7,0-1.1.5-1.1.9s.4.8,1,.8,1.5-.5,1.5-1.3h0Z"/>
          <path class="cls-4" d="M615.1,64.2l-1.4-4.7v-.6c0-.5.4-.8.9-.8s.8.3.9.8l1,4.4h0l1-4.3c0-.5.5-.8,1-.8s.9.3,1,.8l1.1,4.3h0l1-4.4c0-.5.4-.8.9-.8s.9.3.9.8v.6l-1.4,4.7c-.2.7-.5,1-1.2,1s-1-.3-1.2-1l-1-4h0l-1,4c-.2.7-.5,1-1.2,1s-1-.3-1.2-1h0Z"/>
          <path class="cls-4" d="M624.3,64.2v-5.2c0-.6.3-.9.9-.9s.9.4.9.9v.4h0c.4-.8,1-1.3,2.1-1.3s2.4,1,2.4,2.5v3.6c0,.6-.4,1-.9,1s-.9-.3-.9-1v-3.2c0-.9-.4-1.4-1.2-1.4s-1.4.6-1.4,1.5v3.1c0,.6-.4,1-.9,1s-.9-.3-.9-1h0Z"/>
          <path class="cls-4" d="M269.7,372.9v-5.7c0-.5.3-.8.7-.8s.7.3.7.8v2.2h3.2v-2.2c0-.5.3-.8.7-.8s.7.3.7.8v5.7c0,.5-.3.8-.7.8s-.7-.3-.7-.8v-2.3h-3.2v2.3c0,.5-.3.8-.7.8s-.7-.3-.7-.8Z"/>
          <path class="cls-4" d="M276.7,371c0-1.7,1-2.8,2.5-2.8s2.5,1,2.5,2.4-.2.6-.6.6h-3c0,.8.5,1.3,1.2,1.3s.9-.2,1.2-.6c.1-.2.3-.2.5-.2.3,0,.6.2.6.5s0,.2-.1.4c-.4.6-1.2,1-2.2,1-1.6,0-2.6-1-2.6-2.7h0ZM280.3,370.4c0-.7-.5-1.1-1.1-1.1s-1.1.5-1.1,1.1h2.2Z"/>
          <path class="cls-4" d="M282.2,372.1c0-1,.7-1.5,2-1.6h1.3v-.4c0-.5-.3-.8-.9-.8s-.7.1-1,.5c-.2.2-.3.3-.6.3s-.6-.2-.6-.5v-.3c.2-.6,1.1-1,2.2-1s2.2.7,2.2,1.8v3c0,.5-.3.7-.7.7s-.6-.2-.7-.6v-.3h0c-.3.6-1,.9-1.6.9-1,0-1.8-.6-1.8-1.6h.2ZM285.6,371.7v-.4h-1.1c-.5.1-.8.4-.8.7s.3.6.8.6,1.1-.4,1.1-1h0Z"/>
          <path class="cls-4" d="M289,373l-1.4-3.6v-.4c0-.4.3-.6.7-.6s.6.2.7.6l1.1,3.5h0l1.1-3.5c.1-.4.3-.6.7-.6s.7.3.7.6v.4l-1.4,3.7c-.2.5-.5.7-1,.7s-.8-.2-1-.7h-.2Z"/>
          <path class="cls-4" d="M292.8,371c0-1.7,1-2.8,2.5-2.8s2.5,1,2.5,2.4-.2.6-.6.6h-3c0,.8.5,1.3,1.2,1.3s.9-.2,1.2-.6c.1-.2.3-.2.5-.2.3,0,.6.2.6.5s0,.2-.1.4c-.4.6-1.2,1-2.2,1-1.6,0-2.6-1-2.6-2.7h0ZM296.5,370.4c0-.7-.5-1.1-1.1-1.1s-1.1.5-1.1,1.1h2.2Z"/>
          <path class="cls-4" d="M298.6,373v-4c0-.4.3-.7.7-.7s.7.3.7.7v.3h0c.3-.6.8-1,1.6-1,1.2,0,1.8.7,1.8,2v2.7c0,.5-.3.7-.7.7s-.7-.2-.7-.7v-2.4c0-.7-.3-1.1-1-1.1s-1,.5-1,1.1v2.4c0,.5-.3.7-.7.7s-.7-.2-.7-.7h0Z"/>
          <path class="cls-4" d="M594.3,214.8l-1.5-5.3v-.5c0-.4.3-.7.7-.7s.6.2.7.6l1,4.6h0l1.2-4.5c0-.5.3-.7.8-.7s.6.2.8.6l1.2,4.6h0l1-4.6c0-.4.3-.6.7-.6s.7.2.7.7v.5l-1.5,5.3c-.2.5-.4.7-.8.7s-.7-.2-.9-.8l-1.2-4.2h0l-1.2,4.2c0,.5-.4.8-.9.8s-.7-.2-.9-.8h.1Z"/>
          <path class="cls-4" d="M601.7,214c0-.9.7-1.5,2-1.6h1.3v-.4c0-.5-.3-.8-.9-.8s-.7.1-1,.6c-.2.2-.3.3-.6.3s-.6-.2-.6-.6,0-.2,0-.3c.2-.6,1.1-1,2.2-1s2.2.7,2.2,1.8v3c0,.5-.3.7-.7.7s-.7-.2-.7-.6v-.3h0c-.3.6-1,.9-1.6.9-1,0-1.8-.6-1.8-1.6h.2,0ZM605,213.6v-.4h-1.1c-.5.1-.8.4-.8.7s.3.6.8.6,1.1-.4,1.1-1h0Z"/>
          <path class="cls-4" d="M607.7,211.3h-.3c-.3,0-.5-.2-.5-.5s.2-.5.5-.5h.3v-.6c0-.5.3-.7.7-.7s.7.3.7.7v.6h.5c.3,0,.5.2.5.5s-.2.5-.5.5h-.5v2.5c0,.4,0,.5.4.6h0c.3,0,.5.2.5.5s-.4.6-1,.6h0c-1,0-1.4-.5-1.4-1.4v-2.8h0Z"/>
          <path class="cls-4" d="M610.6,212.9c0-1.7,1-2.8,2.5-2.8s2.5,1,2.5,2.4-.2.6-.6.6h-3c0,.8.5,1.3,1.2,1.3s.9-.2,1.2-.6c.2-.2.3-.2.5-.2.3,0,.6.2.6.5v.4c-.3.6-1.2,1-2.2,1-1.6,0-2.6-1-2.6-2.7h-.1ZM614.3,212.3c0-.7-.5-1.1-1.1-1.1s-1.1.5-1.1,1.1h2.2,0Z"/>
          <path class="cls-4" d="M616.4,214.9v-4c0-.4.3-.7.7-.7s.7.3.7.7v.3h0c0-.6.6-1,1.1-1s.3,0,.4.1c0,.1.2.3.2.5s0,.4-.2.5-.3.2-.6.2c-.7,0-.9.4-.9,1v2.3c0,.5-.3.7-.7.7s-.7-.3-.7-.7h0Z"/>
          <path class="cls-4" d="M331.4,331.8v-5.1h-1.5c-.4,0-.7-.2-.7-.6s.3-.6.7-.6h4.4c.4,0,.7.2.7.6s-.3.6-.7.6h-1.5v5.1c0,.5-.3.8-.7.8s-.7-.3-.7-.8h0Z"/>
          <path class="cls-4" d="M334.9,330.6v-2.7c0-.5.3-.8.7-.8s.7.3.7.8v2.4c0,.7.4,1.1,1,1.1s1-.5,1-1.1v-2.4c0-.5.3-.8.7-.8s.7.3.7.8v4c0,.5-.3.7-.7.7s-.7-.2-.7-.7v-.3h0c-.3.7-.8,1-1.6,1s-1.9-.7-1.9-2h0Z"/>
          <path class="cls-4" d="M340.7,331.8v-4c0-.4.3-.7.7-.7s.7.3.7.7v.3h0c.3-.6.8-1,1.6-1,1.2,0,1.8.7,1.8,2v2.7c0,.5-.3.7-.7.7s-.7-.2-.7-.7v-2.4c0-.7-.3-1.1-1-1.1s-1,.5-1,1.1v2.4c0,.5-.3.7-.7.7s-.7-.2-.7-.7h0Z"/>
          <path class="cls-4" d="M346.5,331.8v-4c0-.4.3-.7.7-.7s.7.3.7.7v.3h0c.3-.6.8-1,1.6-1,1.2,0,1.8.7,1.8,2v2.7c0,.5-.3.7-.7.7s-.7-.2-.7-.7v-2.4c0-.7-.3-1.1-1-1.1s-1,.5-1,1.1v2.4c0,.5-.3.7-.7.7s-.7-.2-.7-.7h0Z"/>
          <path class="cls-4" d="M352.1,329.8c0-1.7,1-2.8,2.5-2.8s2.5,1,2.5,2.4-.2.6-.6.6h-3c0,.8.5,1.3,1.2,1.3s.9-.2,1.2-.6c.1-.2.3-.2.5-.2.3,0,.6.2.6.5s0,.2-.1.4c-.4.6-1.2,1-2.2,1-1.6,0-2.6-1-2.6-2.7h0ZM355.7,329.3c0-.7-.5-1.1-1.1-1.1s-1.1.5-1.1,1.1h2.2Z"/>
          <path class="cls-4" d="M357.8,331.8v-5.8c0-.5.3-.8.7-.8s.7.3.7.8v5.8c0,.5-.3.7-.7.7s-.7-.2-.7-.7Z"/>
          <path class="cls-4" d="M546.1,616.6v-5.6c0-.6.3-1,1-1s.8.2,1,.8l1.8,4.3h0l1.7-4.3c.2-.5.5-.8,1-.8s1,.3,1,1v5.6c0,.4-.2.7-.7.7s-.7-.2-.7-.7v-4.2h0l-1.7,4.3c0,.3-.3.5-.6.5s-.5,0-.6-.4l-1.7-4.3h0v4.2c0,.4-.2.7-.7.7s-.7-.2-.7-.7h0Z"/>
          <path class="cls-4" d="M554.6,610.5c0-.4.3-.7.8-.7s.8.3.8.7-.3.7-.8.7-.8-.3-.8-.7ZM554.6,616.5v-4c0-.5.3-.8.7-.8s.7.3.7.8v4c0,.5-.3.7-.7.7s-.7-.3-.7-.7Z"/>
          <path class="cls-4" d="M556.8,614.5c0-1.7.8-2.7,2.1-2.7s1.3.4,1.6,1h0v-2.1c0-.5.3-.8.7-.8s.7.3.7.8v5.8c0,.5-.3.7-.7.7s-.7-.2-.7-.7v-.3h0c-.2.6-.8,1-1.6,1-1.3,0-2.1-1-2.1-2.7h0ZM560.6,614.5c0-1-.5-1.6-1.2-1.6s-1.2.6-1.2,1.6.4,1.5,1.2,1.5,1.2-.6,1.2-1.5Z"/>
          <path class="cls-4" d="M740.2,184.5v-5.6c0-.5.3-.8.7-.8h3.3c.4,0,.7.2.7.6s-.3.6-.7.6h-2.6v1.9h2.3c.4,0,.6.2.6.6s-.2.6-.6.6h-2.3v2.1c0,.5-.3.8-.7.8s-.7-.3-.7-.8h0Z"/>
          <path class="cls-4" d="M745.6,184.6v-5.8c0-.5.3-.8.7-.8s.7.3.7.8v5.8c0,.5-.3.7-.7.7s-.7-.2-.7-.7Z"/>
          <path class="cls-4" d="M747.8,182.6c0-1.7,1-2.7,2.6-2.7s2.6,1,2.6,2.7-1,2.7-2.6,2.7-2.6-1-2.6-2.7ZM751.6,182.6c0-1-.5-1.6-1.1-1.6s-1.2.6-1.2,1.6.4,1.6,1.2,1.6,1.1-.6,1.1-1.6Z"/>
          <path class="cls-4" d="M754.5,184.5l-1-3.6v-.4c0-.4.3-.6.7-.6s.6.2.7.6l.8,3.4h0l.8-3.3c0-.4.4-.6.8-.6s.7.2.8.6l.8,3.3h0l.8-3.4c0-.4.3-.6.7-.6s.7.2.7.6,0,.2,0,.4l-1,3.6c-.2.5-.4.8-.9.8s-.8-.2-.9-.8l-.8-3.1h0l-.8,3.1c0,.5-.4.8-.9.8s-.8-.2-.9-.8h-.4,0Z"/>
          <path class="cls-4" d="M761.3,182.6c0-1.7,1-2.8,2.5-2.8s2.5,1,2.5,2.4-.2.6-.6.6h-3c0,.8.5,1.3,1.2,1.3s.9-.2,1.2-.6c.2-.2.3-.2.5-.2.3,0,.6.2.6.5v.4c-.3.6-1.2,1-2.2,1-1.6,0-2.6-1-2.6-2.7h-.1ZM765,182c0-.7-.5-1.1-1.1-1.1s-1.1.5-1.1,1.1h2.2,0Z"/>
          <path class="cls-4" d="M767.1,184.6v-4c0-.4.3-.7.7-.7s.7.3.7.7v.3h0c0-.6.6-1,1.1-1s.3,0,.4.1c0,.1.2.3.2.5s0,.4-.2.5-.3.2-.6.2c-.7,0-.9.4-.9,1v2.3c0,.5-.3.7-.7.7s-.7-.3-.7-.7h0Z"/>
          <path class="cls-4" d="M770.6,184.2v-.3c0-.3.2-.6.6-.6s.4.1.6.3c.3.4.6.5,1.1.5s.8-.2.8-.6-.2-.4-.7-.6l-.9-.2c-1-.2-1.5-.7-1.5-1.5s.9-1.6,2.2-1.6,1.9.5,2,1.1v.2c0,.3-.2.5-.5.5s-.4,0-.5-.2c-.2-.3-.5-.6-1-.6s-.8.2-.8.6.2.4.7.6l.9.2c1.1.2,1.6.6,1.6,1.4s-.9,1.7-2.3,1.7-2-.4-2.2-1h0Z"/>
          <path class="cls-4" d="M549.1,326.5c0-2.3,1.3-3.6,3.3-3.6s2.3.6,2.8,1.6c0,.2.2.4.2.5,0,.4-.3.6-.7.6s-.5-.1-.7-.5c-.3-.7-.9-1.1-1.6-1.1-1.1,0-1.8.9-1.8,2.4s.7,2.4,1.8,2.4,1.3-.3,1.6-1c.2-.3.3-.5.7-.5s.7.3.7.6v.5c-.4,1-1.5,1.6-2.8,1.6-2.1,0-3.4-1.4-3.4-3.6h0Z"/>
          <path class="cls-4" d="M556.2,327.5c0-1.7,1-2.7,2.6-2.7s2.6,1,2.6,2.7-1,2.7-2.6,2.7-2.6-1-2.6-2.7ZM559.9,327.5c0-1-.5-1.6-1.1-1.6s-1.2.6-1.2,1.6.4,1.6,1.2,1.6,1.1-.6,1.1-1.6Z"/>
          <path class="cls-4" d="M562.1,329.4v-4c0-.4.3-.7.7-.7s.7.3.7.7v.3h0c.3-.6.8-1,1.6-1,1.2,0,1.8.7,1.8,2v2.7c0,.5-.3.7-.7.7s-.7-.2-.7-.7v-2.4c0-.7-.3-1.1-1-1.1s-1,.5-1,1.1v2.4c0,.5-.3.7-.7.7s-.7-.2-.7-.7h0Z"/>
          <path class="cls-4" d="M567.8,329.4v-4c0-.4.3-.7.7-.7s.7.3.7.7v.3h0c.3-.6.8-1,1.6-1,1.2,0,1.8.7,1.8,2v2.7c0,.5-.3.7-.7.7s-.7-.2-.7-.7v-2.4c0-.7-.3-1.1-1-1.1s-1,.5-1,1.1v2.4c0,.5-.3.7-.7.7s-.7-.2-.7-.7h0Z"/>
          <path class="cls-4" d="M573.4,327.5c0-1.7,1-2.8,2.5-2.8s2.5,1,2.5,2.4-.2.6-.6.6h-3c0,.8.5,1.3,1.2,1.3s.9-.2,1.2-.6c.2-.2.3-.2.5-.2.3,0,.6.2.6.5v.4c-.3.6-1.2,1-2.2,1-1.6,0-2.6-1-2.6-2.7h-.1ZM577,326.9c0-.7-.5-1.1-1.1-1.1s-1.1.5-1.1,1.1h2.2,0Z"/>
          <path class="cls-4" d="M579,327.5c0-1.7,1-2.7,2.6-2.7s1.9.5,2.2,1.2v.4c0,.4-.3.6-.6.6s-.5-.1-.6-.4c-.3-.5-.6-.7-1-.7-.7,0-1.2.6-1.2,1.6s.4,1.6,1.2,1.6.8-.2,1-.6c.2-.3.3-.4.7-.4s.6.2.6.6v.4c-.3.7-1.2,1.2-2.2,1.2-1.6,0-2.6-1-2.6-2.7h-.1Z"/>
          <path class="cls-4" d="M585,325.9h-.3c-.3,0-.5-.2-.5-.5s.2-.5.5-.5h.3v-.6c0-.5.3-.7.7-.7s.7.3.7.7v.6h.5c.3,0,.5.2.5.5s-.2.5-.5.5h-.5v2.5c0,.4,0,.5.4.5h0c.3,0,.5.2.5.5s-.4.6-1,.6h0c-1,0-1.4-.5-1.4-1.4v-2.8h0Z"/>
          <path class="cls-4" d="M587.9,327.5c0-1.7,1-2.7,2.6-2.7s2.6,1,2.6,2.7-1,2.7-2.6,2.7-2.6-1-2.6-2.7ZM591.6,327.5c0-1-.5-1.6-1.1-1.6s-1.2.6-1.2,1.6.5,1.6,1.2,1.6,1.1-.6,1.1-1.6Z"/>
          <path class="cls-4" d="M593.8,329.4v-4c0-.5.3-.7.7-.7s.7.3.7.7v.3h0c0-.6.6-1,1.1-1s.3,0,.5.1c0,.1.2.3.2.5s0,.4-.2.5-.3.2-.6.2c-.7,0-.9.4-.9,1v2.3c0,.5-.3.7-.7.7s-.7-.3-.7-.7h0Z"/>
          <path class="cls-4" d="M403.4,215.6v-5.6c0-.5.3-.8.7-.8h2.1c1.6,0,2.5.9,2.5,2.2s-.4,1.6-1.2,2l1,1.8c.1.2.2.3.2.5,0,.4-.3.7-.7.7s-.5-.1-.8-.6l-1.2-2.1h-1.2v1.9c0,.5-.3.8-.7.8s-.7-.3-.7-.8h0ZM406.1,212.6c.7,0,1.2-.4,1.2-1.1s-.5-1.1-1.2-1.1h-1.2v2.2h1.3,0Z"/>
          <path class="cls-4" d="M409.4,213.6c0-1.7,1-2.8,2.5-2.8s2.5,1,2.5,2.4-.2.6-.6.6h-3c0,.8.5,1.3,1.2,1.3s.9-.2,1.2-.6c.1-.2.3-.2.5-.2.3,0,.6.2.6.5s0,.2-.1.4c-.4.6-1.2,1-2.2,1-1.6,0-2.6-1-2.6-2.7h0ZM413.1,213c0-.7-.5-1.1-1.1-1.1s-1.1.5-1.1,1.1h2.2Z"/>
          <path class="cls-4" d="M415,213.6c0-1.7,1-2.7,2.6-2.7s1.9.5,2.2,1.2v.4c0,.4-.3.6-.6.6s-.5-.1-.6-.4c-.3-.5-.6-.7-1-.7-.7,0-1.2.6-1.2,1.6s.4,1.6,1.2,1.6.8-.2,1-.6c.2-.3.4-.4.6-.4s.6.2.6.6,0,.2,0,.4c-.3.7-1.2,1.2-2.2,1.2-1.6,0-2.6-1-2.6-2.7h0Z"/>
          <path class="cls-4" d="M420.4,213.6c0-1.7,1-2.7,2.6-2.7s2.6,1,2.6,2.7-1,2.7-2.6,2.7-2.6-1-2.6-2.7ZM424.2,213.6c0-1-.5-1.6-1.1-1.6s-1.1.6-1.1,1.6.4,1.6,1.1,1.6,1.1-.6,1.1-1.6Z"/>
          <path class="cls-4" d="M426.3,215.6v-4c0-.4.3-.7.7-.7s.7.3.7.7v.3h0c.1-.6.6-1,1.1-1s.3,0,.4.1.2.3.2.5,0,.4-.2.5-.3.2-.6.2c-.6,0-.9.4-.9,1v2.3c0,.5-.3.7-.7.7s-.7-.3-.7-.7h0Z"/>
          <path class="cls-4" d="M429.6,213.6c0-1.7.8-2.7,2.1-2.7s1.3.4,1.6,1h0v-2.1c0-.5.3-.8.7-.8s.7.3.7.8v5.8c0,.5-.3.7-.7.7s-.7-.2-.7-.7v-.3h0c-.2.6-.8,1-1.6,1-1.3,0-2.1-1-2.1-2.7h0ZM433.4,213.6c0-.9-.5-1.6-1.2-1.6s-1.2.6-1.2,1.6.4,1.6,1.2,1.6,1.2-.6,1.2-1.6Z"/>
          <path class="cls-4" d="M224.7,489.4v-5.5c0-.5.3-.8.7-.8h2.3c1.3,0,2.1.7,2.1,1.8s-.6,1.4-1.3,1.5h0c1,.1,1.7.8,1.7,1.7s-.9,2-2.4,2h-2.4c-.5,0-.7-.3-.7-.8h0ZM227.2,486c.8,0,1.2-.4,1.2-.9s-.4-.9-1.1-.9h-1.2v1.8h1.1ZM227.4,489c.9,0,1.3-.4,1.3-1s-.5-1-1.3-1h-1.2v2h1.3-.1Z"/>
          <path class="cls-4" d="M233.1,489.4v-5.6c0-.5.3-.8.7-.8s.7.3.7.8v5.1h2.5c.4,0,.7.2.7.6s-.3.6-.7.6h-3.2c-.5,0-.7-.3-.7-.8h0Z"/>
          <path class="cls-4" d="M238.3,483.5c0-.4.3-.7.8-.7s.8.3.8.7-.3.7-.8.7-.8-.3-.8-.7ZM238.4,489.5v-4c0-.5.3-.8.7-.8s.7.3.7.8v4c0,.5-.3.7-.7.7s-.7-.3-.7-.7Z"/>
          <path class="cls-4" d="M240.8,489.5v-4c0-.4.3-.7.7-.7s.7.3.7.7v.3h0c.3-.6.8-1,1.6-1,1.2,0,1.8.7,1.8,2v2.7c0,.5-.3.7-.7.7s-.7-.2-.7-.7v-2.4c0-.7-.3-1.1-1-1.1s-1,.5-1,1.1v2.4c0,.5-.3.7-.7.7s-.7-.2-.7-.7h0Z"/>
          <path class="cls-4" d="M246.6,489.5v-5.8c0-.5.3-.8.7-.8s.7.3.7.8v3.2h0l1.9-1.9c.2-.2.4-.3.6-.3.4,0,.6.3.6.6s0,.4-.3.5l-1.3,1.3,1.5,1.9c.2.2.2.3.2.5,0,.4-.3.6-.7.6s-.5-.1-.7-.4l-1.3-1.8-.4.4v1.1c0,.5-.3.7-.7.7s-.7-.2-.7-.7h-.1Z"/>
          <path class="cls-4" d="M171.5,378.3v-16c0-1.4.8-2.2,2.1-2.2h6.8c3.8,0,6.2,2,6.2,5.1s-1.7,4.1-3.8,4.4h0c2.8.3,4.8,2.3,4.8,5s-2.7,5.9-7.1,5.9h-6.9c-1.4,0-2.1-.8-2.1-2.2h0ZM178.8,368.6c2.3,0,3.6-1,3.6-2.7s-1.1-2.6-3.1-2.6h-3.5v5.3h3.1-.1ZM179.5,377.4c2.5,0,3.8-1,3.8-3s-1.4-2.9-3.9-2.9h-3.6v5.9h3.7Z"/>
          <path class="cls-4" d="M918,280v-5.5c0-.5.3-.8.7-.8h2c2.1,0,3.4,1.3,3.4,3.5s-1.2,3.5-3.4,3.5h-2c-.5,0-.7-.3-.7-.8h0ZM920.5,279.6c1.3,0,2-.8,2-2.3s-.7-2.3-2-2.3h-1v4.6h1Z"/>
          <path class="cls-4" d="M924.8,278.9v-2.7c0-.5.3-.8.7-.8s.7.3.7.8v2.4c0,.7.3,1.1,1,1.1s1-.5,1-1.1v-2.4c0-.5.3-.8.7-.8s.7.3.7.8v4c0,.5-.3.7-.7.7s-.7-.2-.7-.7v-.3h0c-.3.7-.8,1-1.6,1s-1.9-.7-1.9-2h0Z"/>
          <path class="cls-4" d="M930.7,281.8v-.4c0-.3.2-.5.6-.5s.3,0,.5.2c.4.4.8.6,1.2.6.8,0,1.2-.4,1.2-1.1v-.8h0c-.2.6-.8.9-1.6.9-1.3,0-2.1-1-2.1-2.6s.8-2.6,2.2-2.6,1.3.4,1.6,1h0v-.3c0-.5.3-.7.7-.7s.7.2.7.7v4.4c0,1.4-1,2.2-2.7,2.2s-1.9-.4-2.2-1h-.1ZM934.2,278.1c0-.9-.5-1.5-1.2-1.5s-1.2.6-1.2,1.5.4,1.5,1.2,1.5,1.2-.6,1.2-1.5Z"/>
          <path class="cls-4" d="M936.3,278.2c0-1.7,1-2.7,2.6-2.7s2.6,1,2.6,2.7-1,2.7-2.6,2.7-2.6-1-2.6-2.7ZM940.1,278.2c0-1-.5-1.6-1.1-1.6s-1.2.6-1.2,1.6.4,1.6,1.2,1.6,1.1-.6,1.1-1.6Z"/>
          <path class="cls-4" d="M942.2,278.9v-2.7c0-.5.3-.8.7-.8s.7.3.7.8v2.4c0,.7.3,1.1,1,1.1s1-.5,1-1.1v-2.4c0-.5.3-.8.7-.8s.7.3.7.8v4c0,.5-.3.7-.7.7s-.7-.2-.7-.7v-.3h0c-.3.7-.8,1-1.6,1s-1.9-.7-1.9-2h0Z"/>
          <path class="cls-4" d="M948.4,276.6h-.3c-.3,0-.5-.2-.5-.5s.2-.5.5-.5h.3v-.6c0-.5.3-.7.7-.7s.7.3.7.7v.6h.5c.3,0,.5.2.5.5s-.2.5-.5.5h-.5v2.5c0,.4,0,.5.4.5h0c.3,0,.5.2.5.5s-.4.6-1,.6h0c-1,0-1.4-.5-1.4-1.4v-2.8h0Z"/>
          <path class="cls-4" d="M883.4,327.4c-1.1,0-1.8-.6-2.2-1.9l-1.1-3.2h-7.4l-1.1,3.2c-.4,1.3-1,1.9-2.2,1.9s-2.1-.8-2.1-2,0-.8.3-1.4l5.6-15.2c.6-1.7,1.6-2.4,3.3-2.4s2.6.8,3.2,2.4l5.6,15.2c.2.5.3,1,.3,1.4,0,1.2-.8,2-2.2,2h0ZM879.2,318.9l-2.7-8.4h0l-2.7,8.4h5.5,0Z"/>
          <path class="cls-4" d="M76.5,692v-5.6c0-.5.3-.8.7-.8h2.2c1.6,0,2.6.8,2.6,2.2s-.4,1.6-1.2,2l1,1.8c0,.2.2.3.2.5,0,.4-.3.7-.7.7s-.5,0-.8-.6l-1.2-2.1h-1.2v1.9c0,.5-.3.8-.7.8s-.7-.3-.7-.8h-.2ZM79.3,689c.7,0,1.2-.4,1.2-1.1s-.5-1.1-1.2-1.1h-1.2v2.2h1.3-.1Z"/>
          <path class="cls-4" d="M82.6,691.1c0-1,.7-1.5,2-1.6h1.3v-.4c0-.5-.3-.8-.9-.8s-.7,0-1,.5c-.2.2-.3.3-.6.3s-.6-.2-.6-.5v-.3c.2-.6,1.1-1,2.2-1s2.2.7,2.2,1.8v3c0,.5-.3.7-.7.7s-.7-.2-.7-.6v-.3h0c-.3.6-.9.9-1.6.9-1,0-1.8-.6-1.8-1.6h.2ZM85.9,690.7v-.4h-1.1c-.5,0-.8.4-.8.7s.3.6.8.6,1.1-.4,1.1-1h0Z"/>
          <path class="cls-4" d="M88.3,692v-4c0-.5.3-.7.7-.7s.7.2.7.7v.3h0c.2-.6.8-1,1.5-1s1.3.4,1.5,1.1h0c.2-.7.9-1.1,1.6-1.1s1.7.7,1.7,1.8v2.9c0,.5-.3.7-.7.7s-.7-.3-.7-.7v-2.6c0-.6-.3-.9-.8-.9s-.9.4-.9,1v2.5c0,.5-.3.7-.7.7s-.7-.3-.7-.7v-2.6c0-.6-.3-.9-.8-.9s-.9.4-.9,1v2.5c0,.5-.3.7-.7.7s-.7-.3-.7-.7h0Z"/>
          <path class="cls-4" d="M96.9,693.7v-5.7c0-.5.3-.7.7-.7s.7.2.7.7v.3h0c.3-.6.9-1,1.6-1,1.3,0,2.1,1,2.1,2.7s-.8,2.7-2.1,2.7-1.3-.4-1.6-1h0v2c0,.5-.3.7-.7.7s-.7-.2-.7-.7h0ZM100.6,690c0-1-.4-1.6-1.2-1.6s-1.2.6-1.2,1.6.5,1.5,1.2,1.5,1.2-.6,1.2-1.5Z"/>
          <path class="cls-4" d="M613.2,713.5v-5.6c0-.6.3-1,1-1s.8.2,1,.8l1.8,4.3h0l1.7-4.3c.2-.5.5-.8,1-.8s1,.3,1,1v5.6c0,.4-.2.7-.7.7s-.7-.2-.7-.7v-4.2h0l-1.7,4.3c0,.3-.3.5-.6.5s-.5,0-.6-.4l-1.7-4.3h0v4.2c0,.4-.2.7-.7.7s-.7-.2-.7-.7h0Z"/>
          <path class="cls-4" d="M621.4,712.6c0-1,.7-1.5,2-1.6h1.3v-.4c0-.5-.3-.8-.9-.8s-.7,0-1,.5c-.2.2-.3.3-.6.3s-.6-.2-.6-.5v-.3c.2-.6,1.1-1,2.2-1s2.2.7,2.2,1.8v3c0,.5-.3.7-.7.7s-.7-.2-.7-.6v-.3h0c-.3.6-1,.9-1.6.9-1,0-1.8-.6-1.8-1.6h.2,0ZM624.8,712.2v-.4h-1.1c-.5,0-.8.4-.8.7s.3.6.8.6,1.1-.4,1.1-1h0Z"/>
          <path class="cls-4" d="M627.1,713.5v-4c0-.5.3-.7.7-.7s.7.3.7.7v.3h0c0-.7.6-1,1.1-1s.3,0,.4,0c0,0,.2.3.2.5s0,.4-.2.5-.3.2-.6.2c-.7,0-.9.4-.9,1v2.3c0,.5-.3.7-.7.7s-.7-.3-.7-.7h0v.2Z"/>
          <path class="cls-4" d="M630.8,713.5v-5.8c0-.5.3-.8.7-.8s.7.3.7.8v3.2h0l1.9-1.9c.2-.2.3-.3.6-.3s.6.3.6.6,0,.3-.3.5l-1.3,1.3,1.5,1.9c.2.2.2.3.2.5,0,.4-.3.6-.7.6s-.5,0-.7-.4l-1.3-1.8-.5.4v1.1c0,.5-.3.7-.7.7s-.7-.2-.7-.7h0Z"/>
          <path class="cls-4" d="M635.7,711.5c0-1.7,1-2.8,2.5-2.8s2.5,1,2.5,2.4-.2.6-.6.6h-3c0,.8.5,1.3,1.2,1.3s.9-.2,1.2-.6c.2-.2.3-.2.5-.2.3,0,.6.2.6.5v.3c-.3.6-1.2,1-2.2,1-1.6,0-2.6-1-2.6-2.7h0v.2h-.1ZM639.3,711c0-.7-.5-1.1-1.1-1.1s-1.1.5-1.1,1.1h2.2,0Z"/>
          <path class="cls-4" d="M641.8,710h-.3c-.3,0-.5-.2-.5-.5s.2-.5.5-.5h.3v-.6c0-.5.3-.7.7-.7s.7.3.7.7v.6h.5c.3,0,.5.2.5.5s-.2.5-.5.5h-.5v2.5c0,.4,0,.5.4.5h0c.3,0,.5.2.5.5s-.4.6-1,.6h0c-1,0-1.4-.5-1.4-1.4v-2.8h0Z"/>
          <path class="cls-4" d="M385.9,703.4v-.4c0-.4.3-.7.6-.7s.5,0,.7.4c.2.5.8.8,1.5.8s1.3-.4,1.3-.9-.3-.7-1.2-.9l-.8-.2c-1.4-.3-2.1-1-2.1-2s1.1-2.1,2.7-2.1,2.3.5,2.6,1.5v.3c0,.3-.2.6-.6.6s-.5,0-.7-.4c-.2-.5-.7-.8-1.3-.8s-1.2.3-1.2.9.3.7,1.2.9l.7.2c1.5.3,2.1.9,2.1,2s-1.1,2.2-2.8,2.2-2.4-.6-2.7-1.3h0Z"/>
          <path class="cls-4" d="M392.2,704v-5.8c0-.5.3-.7.7-.7s.7.3.7.7v2.1h0c.3-.7.9-1,1.6-1,1.2,0,1.8.8,1.8,2v2.7c0,.5-.3.7-.7.7s-.7-.2-.7-.7v-2.4c0-.7-.3-1.1-1-1.1s-1.1.5-1.1,1.2v2.3c0,.5-.3.7-.7.7s-.7-.2-.7-.7h.1Z"/>
          <path class="cls-4" d="M397.8,702c0-1.7,1-2.7,2.6-2.7s2.6,1,2.6,2.7-1,2.7-2.6,2.7-2.6-1-2.6-2.7ZM401.5,702c0-1-.5-1.6-1.1-1.6s-1.1.6-1.1,1.6.4,1.6,1.1,1.6,1.1-.6,1.1-1.6Z"/>
          <path class="cls-4" d="M403.7,705.7v-5.7c0-.5.3-.7.7-.7s.7.2.7.7v.3h0c.3-.6.9-1,1.6-1,1.3,0,2.1,1,2.1,2.7s-.8,2.7-2.1,2.7-1.4-.4-1.6-1h0v2c0,.5-.3.7-.7.7s-.7-.2-.7-.7h0ZM407.4,702c0-1-.5-1.6-1.2-1.6s-1.2.6-1.2,1.6.5,1.5,1.2,1.5,1.2-.6,1.2-1.5Z"/>
          <path class="cls-4" d="M272.2,802.7c0-2.3,1.3-3.6,3.3-3.6s2.3.6,2.8,1.6.1.4.1.5c0,.4-.3.6-.6.6s-.5-.2-.7-.5c-.3-.7-.9-1.1-1.6-1.1-1.1,0-1.8.9-1.8,2.4s.7,2.4,1.8,2.4,1.3-.3,1.6-1c.1-.3.3-.5.6-.5s.7.3.7.7,0,.3-.1.5c-.4,1-1.5,1.6-2.8,1.6-2.1,0-3.4-1.4-3.4-3.6h.1Z"/>
          <path class="cls-4" d="M279.4,805.5v-5.8c0-.5.3-.8.7-.8s.7.3.7.8v5.8c0,.5-.3.7-.7.7s-.7-.2-.7-.7Z"/>
          <path class="cls-4" d="M281.8,804.3v-2.7c0-.5.3-.8.7-.8s.7.3.7.8v2.4c0,.7.4,1.1,1,1.1s1-.5,1-1.2v-2.4c0-.5.3-.8.7-.8s.7.3.7.8v4c0,.5-.3.7-.7.7s-.7-.2-.7-.7v-.3h0c-.3.7-.8,1-1.6,1s-1.9-.7-1.9-2h0Z"/>
          <path class="cls-4" d="M287.6,805.5v-5.8c0-.5.3-.8.7-.8s.7.3.7.8v2.1h0c.3-.6.9-1,1.6-1,1.3,0,2.1,1,2.1,2.7s-.8,2.7-2.1,2.7-1.4-.4-1.6-1h0v.3c0,.5-.3.7-.7.7s-.7-.2-.7-.7h0ZM291.4,803.5c0-1-.4-1.6-1.1-1.6s-1.2.6-1.2,1.6.5,1.5,1.2,1.5,1.1-.6,1.1-1.5Z"/>
          <path class="cls-4" d="M501,481.3v-5.5c0-.5.3-.8.7-.8h2c2.1,0,3.4,1.3,3.4,3.5s-1.2,3.5-3.4,3.5h-2c-.5,0-.7-.3-.7-.8h0ZM503.5,480.9c1.3,0,2-.8,2-2.3s-.7-2.3-2-2.3h-1v4.6h1Z"/>
          <path class="cls-4" d="M507.7,479.5c0-1.7,1-2.7,2.6-2.7s2.6,1,2.6,2.7-1,2.7-2.6,2.7-2.6-1-2.6-2.7h0ZM511.4,479.5c0-1-.5-1.6-1.1-1.6s-1.1.6-1.1,1.6.4,1.6,1.1,1.6,1.1-.6,1.1-1.6Z"/>
          <path class="cls-4" d="M513.4,479.5c0-1.7,1-2.7,2.6-2.7s2.6,1,2.6,2.7-1,2.7-2.6,2.7-2.6-1-2.6-2.7ZM517.1,479.5c0-1-.5-1.6-1.1-1.6s-1.2.6-1.2,1.6.4,1.6,1.2,1.6,1.1-.6,1.1-1.6Z"/>
          <path class="cls-4" d="M519.3,481.5v-4c0-.5.3-.7.7-.7s.7.3.7.7v.3h0c0-.6.6-1,1.1-1s.3,0,.4.1c0,.1.2.3.2.5s0,.4-.2.5-.3.2-.6.2c-.7,0-.9.4-.9,1v2.3c0,.5-.3.7-.7.7s-.7-.3-.7-.7h0Z"/>
          <path class="cls-4" d="M522.8,481.2v-.3c0-.3.2-.5.6-.5s.4.1.6.3c.3.4.6.5,1.1.5s.8-.2.8-.6-.2-.4-.7-.5l-.9-.2c-1-.2-1.5-.7-1.5-1.5s.9-1.6,2.2-1.6,1.9.5,2,1.1v.2c0,.3-.2.5-.5.5s-.4,0-.5-.2c-.2-.3-.5-.6-1-.6s-.8.2-.8.6.2.5.7.6l.9.2c1.1.2,1.6.6,1.6,1.4s-.9,1.7-2.3,1.7-2-.4-2.2-1h0Z"/>
          <path class="cls-4" d="M729.7,661.9v-5.6c0-.5.3-.8.7-.8h2.2c1.6,0,2.5.9,2.5,2.2s-.4,1.6-1.2,2l1,1.8c0,.2.2.3.2.5,0,.4-.3.7-.7.7s-.5,0-.8-.6l-1.2-2.1h-1.2v1.9c0,.5-.3.8-.7.8s-.7-.3-.7-.8h0ZM732.4,659c.7,0,1.2-.4,1.2-1.1s-.5-1.1-1.2-1.1h-1.2v2.2h1.3,0Z"/>
          <path class="cls-4" d="M735.7,660c0-1.7,1-2.8,2.5-2.8s2.5,1,2.5,2.4-.2.6-.6.6h-3c0,.8.5,1.3,1.2,1.3s.9-.2,1.2-.6c.2-.2.3-.2.5-.2.3,0,.6.2.6.5v.3c-.3.6-1.2,1-2.2,1-1.6,0-2.6-1-2.6-2.7h0v.2h-.1ZM739.4,659.4c0-.7-.5-1.1-1.1-1.1s-1.1.5-1.1,1.1h2.2,0Z"/>
          <path class="cls-4" d="M741.3,661.7v-.3c0-.3.2-.5.6-.5s.4,0,.6.3c.3.4.6.5,1.1.5s.8-.2.8-.6-.2-.4-.7-.5l-.9-.2c-1-.2-1.5-.7-1.5-1.5s.9-1.7,2.2-1.7,1.9.5,2,1.1v.2c0,.3-.2.5-.5.5s-.4,0-.5-.2c-.2-.3-.5-.6-1-.6s-.8.2-.8.6.2.5.7.6l.9.2c1.1.2,1.6.6,1.6,1.4s-.9,1.7-2.3,1.7-2-.4-2.2-1h0Z"/>
          <path class="cls-4" d="M747,658.4h-.3c-.3,0-.5-.2-.5-.5s.2-.5.5-.5h.3v-.6c0-.5.3-.7.7-.7s.7.3.7.7v.6h.5c.3,0,.5.2.5.5s-.2.5-.5.5h-.5v2.5c0,.4,0,.5.4.5h0c.3,0,.5.2.5.5s-.4.6-1,.6h0c-1,0-1.4-.5-1.4-1.4v-2.8h0Z"/>
          <path class="cls-4" d="M749.9,661.1c0-1,.7-1.5,2-1.6h1.3v-.4c0-.5-.3-.8-.9-.8s-.7,0-1,.5c-.2.2-.3.3-.6.3s-.6-.2-.6-.5v-.3c.2-.6,1.1-1,2.2-1s2.2.7,2.2,1.8v3c0,.5-.3.7-.7.7s-.7-.2-.7-.6v-.3h0c-.3.6-1,.9-1.6.9-1,0-1.8-.6-1.8-1.6h.2,0ZM753.3,660.7v-.4h-1.1c-.5,0-.8.4-.8.7s.3.6.8.6,1.1-.4,1.1-1h0Z"/>
          <path class="cls-4" d="M755.6,660.7v-2.7c0-.5.3-.8.7-.8s.7.3.7.8v2.4c0,.7.3,1.1,1,1.1s1-.5,1-1.2v-2.4c0-.5.3-.8.7-.8s.7.3.7.8v4c0,.5-.3.7-.7.7s-.7-.2-.7-.7v-.3h0c-.3.7-.8,1-1.6,1s-1.9-.7-1.9-2h0Z"/>
          <path class="cls-4" d="M761.3,662v-4c0-.5.3-.7.7-.7s.7.3.7.7v.3h0c0-.7.6-1,1.1-1s.3,0,.4,0c0,0,.2.3.2.5s0,.4-.2.5-.3.2-.6.2c-.7,0-.9.4-.9,1v2.3c0,.5-.3.7-.7.7s-.7-.3-.7-.7h0v.2Z"/>
          <path class="cls-4" d="M764.7,661.1c0-1,.7-1.5,2-1.6h1.3v-.4c0-.5-.3-.8-.9-.8s-.7,0-1,.5c-.2.2-.3.3-.6.3s-.6-.2-.6-.5v-.3c.2-.6,1.1-1,2.2-1s2.2.7,2.2,1.8v3c0,.5-.3.7-.7.7s-.7-.2-.7-.6v-.3h0c-.3.6-1,.9-1.6.9-1,0-1.8-.6-1.8-1.6h.2,0ZM768,660.7v-.4h-1.1c-.5,0-.8.4-.8.7s.3.6.8.6,1.1-.4,1.1-1h0Z"/>
          <path class="cls-4" d="M770.3,662v-4c0-.4.3-.7.7-.7s.7.3.7.7v.3h0c.3-.7.8-1,1.6-1,1.2,0,1.8.7,1.8,2v2.7c0,.5-.3.7-.7.7s-.7-.2-.7-.7v-2.4c0-.7-.3-1.1-1-1.1s-1,.5-1,1.2v2.4c0,.5-.3.7-.7.7s-.7-.2-.7-.7h0Z"/>
          <path class="cls-4" d="M776.5,658.4h-.3c-.3,0-.5-.2-.5-.5s.2-.5.5-.5h.3v-.6c0-.5.3-.7.7-.7s.7.3.7.7v.6h.5c.3,0,.5.2.5.5s-.2.5-.5.5h-.5v2.5c0,.4,0,.5.4.5h0c.3,0,.5.2.5.5s-.4.6-1,.6h0c-1,0-1.4-.5-1.4-1.4v-2.8h0Z"/>
        </g>
      </g>
      <g>
        <rect class="cls-3" x="136.9" y="310.7" width="17.8" height="20.5"/>
        <path class="cls-4" d="M155.2,331.8h-18.8v-21.7h18.8v21.7ZM137.4,330.6h16.7v-19.2h-16.7v19.2Z"/>
      </g>
      <g>
        <circle class="cls-3" cx="158.1" cy="330.1" r="3.5"/>
        <path class="cls-4" d="M158.1,334c-2.2,0-4-1.8-4-4s1.8-4,4-4,4,1.8,4,4-1.8,4-4,4ZM158.1,327.1c-1.6,0-3,1.3-3,3s1.3,3,3,3,3-1.3,3-3-1.3-3-3-3Z"/>
      </g>
    </g>
  </g>
</svg>