<?xml version="1.0" encoding="UTF-8" standalone="no"?>
<svg
   version="1.1"
   viewBox="0 0 948.1 892.1"
   id="svg269"
   sodipodi:docname="split.svg"
   inkscape:version="1.4.2 (f4327f4, 2025-05-13)"
   xmlns:inkscape="http://www.inkscape.org/namespaces/inkscape"
   xmlns:sodipodi="http://sodipodi.sourceforge.net/DTD/sodipodi-0.dtd"
   xmlns="http://www.w3.org/2000/svg"
   xmlns:svg="http://www.w3.org/2000/svg">
  <sodipodi:namedview
     id="namedview269"
     pagecolor="#505050"
     bordercolor="#eeeeee"
     borderopacity="1"
     inkscape:showpageshadow="0"
     inkscape:pageopacity="0"
     inkscape:pagecheckerboard="0"
     inkscape:deskcolor="#505050"
     inkscape:zoom="0.90460713"
     inkscape:cx="367.01015"
     inkscape:cy="418.41368"
     inkscape:window-width="1920"
     inkscape:window-height="1009"
     inkscape:window-x="1912"
     inkscape:window-y="-8"
     inkscape:window-maximized="1"
     inkscape:current-layer="svg269" />
  <defs
     id="defs1">
    <style
       id="style1">
      .cls-1 {
        fill: #003455;
      }

      .cls-2 {
        fill: #3d3d3d;
      }

      .cls-3 {
        fill: #7e7f7e;
      }

      .cls-4 {
        fill: #fff;
      }

      .cls-5 {
        fill: #535353;
      }
    </style>
  </defs>
  <!-- Generator: Adobe Illustrator 28.6.0, SVG Export Plug-In . SVG Version: 1.2.0 Build 709)  -->
  <g
     id="Callouts_copy-4"
     transform="rotate(180,473.84578,445.59653)">
    <path
       class="cls-4"
       d="m 483.2,857.5 c 0,0.2 0,0.4 -0.1,0.6 l -2.5,6.8 c -0.2,0.8 -1.1,1.3 -1.9,1 -0.5,0 -0.9,-0.5 -1,-1 l -2.5,-6.8 c 0,-0.2 -0.1,-0.4 -0.1,-0.6 0,-0.5 0.4,-0.9 0.9,-0.9 h 0.1 c 0.5,0 0.8,0.2 1,0.8 l 0.5,1.4 h 3.3 l 0.5,-1.4 c 0.2,-0.6 0.5,-0.9 1,-0.9 0.5,0 0.9,0.4 0.9,0.8 v 0 0.2 z m -5.3,2.8 1.2,3.8 v 0 l 1.2,-3.8 z"
       id="path161"
       style="fill:#ffffff" />
    <path
       class="cls-4"
       d="m 474,862.1 h 0.3 c 0.4,0 0.7,0.3 0.7,0.7 0,0.4 -0.3,0.7 -0.7,0.7 H 474 v 0.8 c 0,0.5 -0.4,0.9 -0.9,0.9 -0.5,0 -0.9,-0.4 -0.9,-0.9 v 0 -0.8 h -0.7 c -0.4,0 -0.7,-0.3 -0.7,-0.7 0,-0.4 0.3,-0.7 0.7,-0.7 h 0.7 v -3.2 c 0,-0.5 -0.2,-0.7 -0.6,-0.7 h -0.1 c -0.5,0 -0.7,-0.2 -0.7,-0.7 0,-0.5 0.5,-0.8 1.3,-0.8 v 0 c 0.9,0 1.7,0.5 1.9,1.4 v 4.1 0 z"
       id="path162"
       style="fill:#ffffff" />
    <path
       class="cls-4"
       d="m 469.4,862.1 h 0.3 c 0.4,0 0.7,0.3 0.7,0.7 0,0.4 -0.3,0.7 -0.7,0.7 h -0.3 v 0.8 c 0,0.5 -0.4,0.9 -0.9,0.9 -0.5,0 -0.9,-0.4 -0.9,-0.9 v 0 -0.8 h -0.7 c -0.4,0 -0.7,-0.3 -0.7,-0.7 0,-0.4 0.3,-0.7 0.7,-0.7 h 0.7 v -3.2 c 0,-0.5 -0.2,-0.7 -0.6,-0.7 h -0.1 c -0.5,0 -0.7,-0.2 -0.7,-0.7 0,-0.5 0.5,-0.8 1.3,-0.8 v 0 c 0.9,0 1.7,0.5 1.9,1.4 v 4.1 0 z"
       id="path163"
       style="fill:#ffffff" />
    <path
       class="cls-4"
       d="m 465.6,858.6 c 0,1.2 -1,2 -2.7,2.1 h -1.7 v 0.5 c 0,0.6 0.5,1 1.2,1 0.7,0 1,-0.3 1.3,-0.7 0.2,-0.2 0.4,-0.4 0.7,-0.3 0.4,0 0.7,0.3 0.8,0.7 v 0 0.4 c -0.3,0.8 -1.4,1.3 -2.8,1.3 -1.4,0 -2.9,-0.9 -2.9,-2.3 v -3.9 c 0,-0.5 0.3,-0.9 0.8,-0.9 h 0.1 c 0.5,0 0.8,0.3 0.9,0.7 v 0 0.3 0 c 0.4,-0.7 1.2,-1.2 2.1,-1.2 1.2,0 2.2,0.7 2.3,1.9 v 0.4 z m -4.4,0.6 v 0.5 h 1.4 c 0.7,0 1.1,-0.5 1.1,-0.9 0,-0.4 -0.4,-0.8 -1,-0.8 -0.6,0 -1.4,0.4 -1.5,1.2 z"
       id="path164"
       style="fill:#ffffff" />
    <path
       class="cls-4"
       d="m 458.5,860.1 c 0.2,1.8 -1.1,3.4 -2.9,3.5 h -0.5 c -1.2,0 -2.3,-0.6 -2.9,-1.6 v -0.5 c 0,-0.4 0.3,-0.7 0.7,-0.7 v 0 c 0.3,0 0.6,0.2 0.8,0.5 0.2,0.5 0.8,0.9 1.3,0.9 0.9,0 1.5,-0.8 1.5,-2.1 0,-1.3 -0.6,-2.1 -1.5,-2.1 -0.9,0 -1.1,0.3 -1.3,0.8 -0.2,0.4 -0.5,0.6 -0.8,0.6 -0.3,0 -0.8,-0.3 -0.8,-0.7 v 0 c 0,-0.2 0,-0.3 0.1,-0.5 0.6,-1 1.7,-1.6 2.9,-1.6 1.8,0 3.3,1.3 3.4,3 z"
       id="path165"
       style="fill:#ffffff" />
    <path
       class="cls-4"
       d="m 451.1,857.5 v 7.5 c 0,0.5 -0.3,1 -0.8,1 -0.5,0 -1,-0.3 -1,-0.8 v -4.4 0 l -2.5,2.5 c -0.2,0.2 -0.5,0.4 -0.7,0.4 -0.4,0 -0.8,-0.3 -0.8,-0.8 v 0 c 0,-0.3 0.1,-0.5 0.3,-0.7 l 1.7,-1.6 -1.9,-2.4 c -0.2,-0.2 -0.3,-0.4 -0.3,-0.7 0,-0.5 0.3,-0.8 0.8,-0.8 v 0 c 0.4,0 0.6,0 0.9,0.6 l 1.8,2.3 0.6,-0.6 v -1.4 c 0,-0.5 0.3,-1 0.8,-1 0.5,0 1,0.3 1,0.8 v 0.2 h 0.1 z"
       id="path166"
       style="fill:#ffffff" />
    <path
       class="cls-4"
       d="m 444.7,860.1 c 0,2.2 -1.3,3.6 -3.3,3.6 -2,0 -3.1,-1.2 -3.2,-2.9 v -0.3 c 0,-0.4 0.3,-0.8 0.7,-0.8 h 4 c 0,-0.9 -0.5,-1.7 -1.3,-1.7 h -0.2 c -0.6,0 -1.3,0.3 -1.6,0.8 -0.1,0.2 -0.4,0.3 -0.6,0.3 -0.4,0 -0.7,-0.3 -0.7,-0.6 v 0 c 0,-0.2 0,-0.3 0.1,-0.4 0.6,-0.9 1.7,-1.4 2.8,-1.3 2.1,0 3.4,1.3 3.4,3.5 v -0.2 z m -4.7,0.7 c 0,0.8 0.6,1.4 1.3,1.5 v 0 c 0.8,0 1.5,-0.7 1.5,-1.5 h -2.9 z"
       id="path167"
       style="fill:#ffffff" />
    <path
       class="cls-4"
       d="m 437.2,857.5 v 5.2 c 0,0.5 -0.3,0.9 -0.8,0.9 h -0.1 c -0.5,0 -0.9,-0.3 -0.9,-0.8 v 0 -0.5 0 c 0,0.7 -0.7,1.3 -1.4,1.3 -0.7,0 -0.4,0 -0.6,-0.2 -0.2,-0.2 -0.3,-0.4 -0.3,-0.7 0,-0.3 0,-0.5 0.3,-0.7 0.2,-0.2 0.5,-0.3 0.8,-0.2 0.8,0 1.2,-0.5 1.2,-1.3 v -3 c 0,-0.5 0.3,-1 0.8,-1 0.5,0 1,0.3 1,0.8 z"
       id="path168"
       style="fill:#ffffff" />
    <path
       class="cls-4"
       d="m 429.9,858.3 c 0,0.2 0.1,0.3 0,0.5 0,0.4 -0.3,0.8 -0.8,0.8 v 0 c -0.4,0 -0.7,-0.2 -0.9,-0.6 -0.4,-0.7 -1.1,-1.1 -1.9,-1 -1,0 -1.7,0.5 -1.7,1.2 0,0.7 0.4,1 1.6,1.2 l 1,0.2 c 1.8,0.4 2.7,1.2 2.7,2.6 0,1.4 -1.5,2.8 -3.5,2.8 -2,0 -2.9,-0.7 -3.3,-1.9 v -0.4 c 0,-0.4 0.3,-0.8 0.7,-0.8 v 0 c 0.4,0 0.8,0.2 0.9,0.6 0.3,0.7 1,1.1 1.7,1 0.9,0 1.6,-0.4 1.6,-1.1 0,-0.7 -0.4,-0.9 -1.5,-1.1 l -1,-0.2 c -1.9,-0.4 -2.8,-1.2 -2.8,-2.6 0,-1.4 1.4,-2.9 3.7,-2.9 2.3,0 3.1,0.7 3.5,1.7 z"
       id="path169"
       style="fill:#ffffff" />
    <path
       class="cls-4"
       d="m 421.7,855.2 v 7.4 c 0,0.5 -0.2,0.9 -0.7,1 h -0.2 c -0.5,0 -0.9,-0.3 -0.9,-0.8 v -0.6 0 c -0.4,0.8 -1.2,1.3 -2.1,1.3 -1.7,0 -2.8,-1.3 -2.8,-3.5 0,-2.2 1.1,-3.5 2.8,-3.5 1.7,0 1.7,0.4 2.1,1.2 v 0 -2.6 c 0,-0.5 0.3,-1 0.8,-1 0.5,0 1,0.3 1,0.8 v 0.2 0 z m -4.8,4.9 c 0,1.2 0.6,2 1.5,2 0.9,0 1.5,-0.8 1.5,-2 0,-1.2 -0.6,-2 -1.5,-2 -0.9,0 -1.5,0.8 -1.5,2 z"
       id="path170"
       style="fill:#ffffff" />
    <path
       class="cls-4"
       d="m 414.3,858.6 c 0,1.2 -1,2 -2.7,2.1 h -1.7 v 0.5 c 0,0.6 0.4,1 1.1,1 0.7,0 1,-0.3 1.3,-0.7 0.2,-0.2 0.5,-0.3 0.7,-0.3 0.4,0 0.7,0.3 0.8,0.6 v 0 0.4 c -0.3,0.8 -1.4,1.3 -2.8,1.3 -1.4,0 -2.9,-0.9 -2.9,-2.3 v -3.9 c 0,-0.5 0.3,-0.9 0.8,-0.9 h 0.1 c 0.5,0 0.8,0.3 0.9,0.7 v 0 0.3 0 c 0.4,-0.7 1.2,-1.2 2.1,-1.2 1.2,0 2.2,0.7 2.3,1.9 z m -4.4,0.6 v 0.5 h 1.4 c 0.7,0 1.1,-0.5 1.1,-0.9 0,-0.4 -0.4,-0.8 -1,-0.8 -0.7,0 -1.4,0.4 -1.5,1.2 z"
       id="path171"
       style="fill:#ffffff" />
    <path
       class="cls-4"
       d="m 405.8,857.5 1.4,4.8 v 0.6 c 0,0.5 -0.4,0.8 -0.8,0.8 v 0 c -0.5,0 -0.8,-0.3 -0.9,-0.8 l -1,-4.4 v 0 l -1.1,4.3 c -0.1,0.6 -0.7,0.9 -1.2,0.8 -0.4,0 -0.8,-0.4 -0.8,-0.8 l -1.1,-4.3 v 0 l -1,4.4 c 0,0.4 -0.4,0.8 -0.9,0.8 -0.5,0 -0.8,-0.3 -0.9,-0.7 v 0 -0.6 l 1.4,-4.8 c 0,-0.6 0.6,-1 1.2,-1 0.6,0 1.1,0.4 1.2,1 v 0 l 1,4 v 0 l 1,-4 c 0,-0.6 0.6,-1.1 1.2,-1 0.6,0 1.1,0.4 1.2,1 v 0 z"
       id="path172"
       style="fill:#ffffff" />
    <path
       class="cls-4"
       d="m 396.7,857.5 v 5.2 c 0,0.5 -0.3,0.9 -0.8,0.9 h -0.1 c -0.5,0 -0.9,-0.3 -0.9,-0.8 v 0 -0.5 0 c -0.3,0.8 -1.2,1.4 -2.1,1.3 -1.2,0 -2.3,-0.9 -2.4,-2.1 v -4.1 c 0,-0.5 0.3,-1 0.8,-1 0.5,0 1,0.3 1,0.8 v 3.4 c 0,0.9 0.4,1.4 1.2,1.4 0.8,0 1.4,-0.6 1.4,-1.3 v -3.3 c 0,-0.5 0.4,-0.9 0.9,-0.9 0.5,0 0.9,0.4 0.9,0.9 h 0.1 z"
       id="path173"
       style="fill:#ffffff" />
    <path
       class="cls-4"
       d="m 330.6,585.6 v 5.6 c 0,0.5 -0.2,0.9 -0.7,1 h -0.3 c -0.5,0 -0.9,-0.3 -1,-0.8 l -1.7,-4.3 v 0 l -1.8,4.3 c -0.1,0.5 -0.5,0.8 -1,0.8 -0.5,0 -0.9,-0.3 -0.9,-0.8 v -5.8 c 0,-0.4 0.2,-0.7 0.6,-0.7 0.4,0 0.7,0.2 0.7,0.6 v 4.4 0 l 1.7,-4.3 c 0,-0.3 0.3,-0.5 0.6,-0.5 0.3,0 0.6,0.2 0.6,0.5 l 1.7,4.3 v 0 -4.2 c 0,-0.4 0.3,-0.7 0.7,-0.7 0.4,0 0.7,0.3 0.7,0.7 v 0 z"
       id="path179"
       style="fill:#ffffff" />
    <path
       class="cls-4"
       d="m 322.4,586.5 c 0,1 -0.7,1.5 -2,1.6 h -1.3 v 0.4 c 0,0.5 0.3,0.8 0.9,0.8 0.6,0 0.8,-0.2 1,-0.5 0.1,-0.2 0.4,-0.3 0.6,-0.3 0.3,0 0.6,0.2 0.6,0.5 v 0 0.3 c -0.2,0.6 -1.1,1 -2.2,1 -1.1,0 -2.2,-0.7 -2.2,-1.8 v -3 c 0,-0.4 0.2,-0.7 0.6,-0.7 h 0.1 c 0.3,0 0.6,0.2 0.7,0.6 v 0 0.3 0 c 0.3,-0.6 1,-0.9 1.6,-0.9 0.9,0 1.7,0.6 1.7,1.5 v 0 c 0,0 -0.1,0.2 -0.1,0.2 z m -3.4,0.4 v 0.4 h 1.1 c 0.5,0 0.8,-0.3 0.8,-0.7 0,-0.4 -0.3,-0.6 -0.8,-0.6 -0.5,0 -1.1,0.3 -1.1,0.8 v 0 z"
       id="path180"
       style="fill:#ffffff" />
    <path
       class="cls-4"
       d="m 316.7,585.6 v 4 c 0,0.4 -0.2,0.7 -0.6,0.7 H 316 c -0.4,0 -0.7,-0.3 -0.7,-0.6 v 0 -0.4 0 c 0,0.6 -0.5,1 -1.1,1 -0.6,0 -0.6,-0.2 -0.7,-0.5 v 0 c 0,-0.3 0,-0.5 0.2,-0.6 0.2,-0.1 0.4,-0.2 0.6,-0.2 0.6,0 0.9,-0.4 0.9,-1 v -2.3 c 0,-0.4 0.2,-0.8 0.6,-0.8 0.4,0 0.8,0.2 0.8,0.6 v 0.2 h 0.1 z"
       id="path181"
       style="fill:#ffffff" />
    <path
       class="cls-4"
       d="m 313,585.6 v 5.8 c 0,0.4 -0.2,0.8 -0.6,0.8 -0.4,0 -0.8,-0.2 -0.8,-0.6 v -3.4 0 l -1.9,1.9 c -0.1,0.2 -0.3,0.3 -0.6,0.3 -0.3,0 -0.6,-0.3 -0.6,-0.6 v 0 c 0,-0.2 0,-0.4 0.3,-0.5 l 1.3,-1.3 -1.5,-1.9 c -0.1,0 -0.2,-0.3 -0.2,-0.5 0,-0.3 0.3,-0.6 0.6,-0.6 v 0 c 0.3,0 0.5,0 0.7,0.4 l 1.3,1.8 0.5,-0.4 v -1.1 c 0,-0.4 0.2,-0.8 0.6,-0.8 0.4,0 0.8,0.2 0.8,0.6 v 0.2 h 0.1 z"
       id="path182"
       style="fill:#ffffff" />
    <path
       class="cls-4"
       d="m 308.1,587.6 c 0.2,1.4 -0.8,2.6 -2.2,2.7 h -0.3 c -1.3,0 -2.4,-0.9 -2.5,-2.2 v -0.2 c 0,-0.3 0.2,-0.6 0.5,-0.6 h 3.1 c 0,-0.7 -0.4,-1.3 -1,-1.4 h -0.2 c -0.5,0 -1,0.2 -1.2,0.6 -0.1,0 -0.3,0.2 -0.5,0.2 -0.3,0 -0.5,-0.2 -0.6,-0.5 v 0 -0.3 c 0.5,-0.7 1.3,-1.1 2.2,-1 1.3,0 2.5,0.9 2.6,2.3 v 0.4 z m -3.6,0.5 c 0,0.6 0.4,1.1 1,1.1 v 0 c 0.6,0 1.1,-0.5 1.1,-1.1 h -2.2 z"
       id="path183"
       style="fill:#ffffff" />
    <path
       class="cls-4"
       d="m 302,589.1 h 0.3 c 0.3,0 0.5,0.2 0.5,0.5 0,0.3 -0.2,0.5 -0.5,0.5 H 302 v 0.6 c 0,0.4 -0.3,0.7 -0.7,0.7 -0.4,0 -0.7,-0.3 -0.7,-0.7 v 0 -0.6 h -0.5 c -0.3,0 -0.5,-0.2 -0.5,-0.5 0,-0.3 0.2,-0.5 0.5,-0.5 h 0.5 v -2.5 c 0,-0.4 -0.1,-0.5 -0.4,-0.5 v 0 c -0.3,0 -0.5,-0.2 -0.5,-0.5 0,-0.3 0.4,-0.6 1,-0.6 v 0 c 0.7,0 1.3,0.4 1.4,1.1 v 3.1 0 z"
       id="path184"
       style="fill:#ffffff" />
    <path
       class="cls-4"
       d="m 383.3,401.5 v 5.6 c 0,0.5 -0.3,0.9 -0.7,1 h -0.2 c -0.5,0 -0.9,-0.3 -1,-0.8 l -1.8,-4.3 v 0 l -1.7,4.3 c -0.1,0.5 -0.5,0.8 -1,0.8 -0.5,0 -0.9,-0.2 -1,-0.7 v -5.9 c 0,-0.4 0.3,-0.7 0.7,-0.7 0.4,0 0.7,0.3 0.7,0.7 v 4.2 0 l 1.7,-4.3 c 0,-0.3 0.3,-0.5 0.6,-0.5 0.3,0 0.6,0.2 0.6,0.4 l 1.7,4.3 v 0 -4.2 c 0,-0.4 0.2,-0.7 0.6,-0.7 0.4,0 0.7,0.2 0.7,0.6 v 0.2 0 z"
       id="path185"
       style="fill:#ffffff" />
    <path
       class="cls-4"
       d="m 375.1,402.4 c 0,1 -0.7,1.5 -2,1.6 h -1.3 v 0.4 c 0,0.5 0.3,0.8 0.9,0.8 0.6,0 0.8,-0.2 1,-0.6 0.1,-0.2 0.4,-0.3 0.6,-0.3 0.3,0 0.6,0.2 0.6,0.5 v 0 0.3 c -0.2,0.6 -1.1,1 -2.2,1 -1.1,0 -2.2,-0.7 -2.2,-1.8 v -3 c 0,-0.4 0.2,-0.7 0.6,-0.7 h 0.1 c 0.3,0 0.7,0.2 0.7,0.6 v 0 0.3 0 c 0.3,-0.6 0.9,-0.9 1.6,-0.9 0.7,0 1.7,0.6 1.8,1.5 v 0.2 h -0.2 z m -3.4,0.4 v 0.4 h 1.1 c 0.5,0 0.8,-0.3 0.8,-0.7 0,-0.4 -0.3,-0.6 -0.8,-0.6 -0.5,0 -1,0.3 -1.1,0.9 v 0 c 0,0.1 0,0 0,0 z"
       id="path186"
       style="fill:#ffffff" />
    <path
       class="cls-4"
       d="m 369.4,407.5 c 0,0.4 -0.3,0.8 -0.8,0.8 -0.5,0 -0.8,-0.3 -0.8,-0.8 0,-0.5 0.3,-0.8 0.8,-0.8 0.5,0 0.8,0.3 0.8,0.8 z m 0,-6 v 4 c 0,0.4 -0.3,0.7 -0.7,0.7 -0.4,0 -0.7,-0.3 -0.7,-0.7 v 0 -4 c 0,-0.4 0.3,-0.7 0.7,-0.7 0.4,0 0.7,0.3 0.7,0.7 z"
       id="path187"
       style="fill:#ffffff" />
    <path
       class="cls-4"
       d="m 367,401.5 v 5.8 c 0,0.4 -0.2,0.7 -0.6,0.7 h -0.1 c -0.4,0 -0.7,-0.3 -0.7,-0.6 v 0 -5.9 c 0,-0.4 0.2,-0.7 0.6,-0.7 h 0.1 c 0.4,0 0.7,0.3 0.7,0.6 v 0 z"
       id="path188"
       style="fill:#ffffff" />
    <path
       class="cls-4"
       d="m 315.8,356.9 v 5.7 c 0,0.4 -0.2,0.8 -0.6,0.8 -0.4,0 -0.8,-0.2 -0.8,-0.6 v -2.4 h -3.2 v 2.2 c 0,0.4 -0.2,0.8 -0.6,0.8 -0.4,0 -0.8,-0.2 -0.8,-0.6 v -5.9 c 0,-0.4 0.2,-0.8 0.6,-0.8 0.4,0 0.8,0.2 0.8,0.6 v 2.5 h 3.2 v -2.3 c 0,-0.4 0.2,-0.8 0.6,-0.8 0.4,0 0.8,0.2 0.8,0.6 z"
       id="path189"
       style="fill:#ffffff" />
    <path
       class="cls-4"
       d="m 308.8,358.8 c 0.2,1.4 -0.8,2.6 -2.2,2.7 h -0.4 c -1.3,0 -2.4,-0.9 -2.5,-2.2 v -0.2 c 0,-0.3 0.2,-0.6 0.5,-0.6 h 3.1 c 0,-0.7 -0.4,-1.3 -1,-1.3 h -0.2 c -0.5,0 -1,0.2 -1.2,0.6 -0.1,0.1 -0.3,0.2 -0.5,0.2 -0.3,0 -0.5,-0.2 -0.5,-0.5 v 0 -0.3 c 0.5,-0.7 1.3,-1.1 2.2,-1 1.3,0 2.5,0.9 2.6,2.3 v 0.4 h 0.1 z m -3.7,0.6 c 0,0.6 0.4,1.1 1,1.1 v 0 c 0.6,0 1.1,-0.5 1.1,-1.1 H 305 Z"
       id="path190"
       style="fill:#ffffff" />
    <path
       class="cls-4"
       d="m 303.2,357.7 c 0,1 -0.7,1.5 -2,1.6 h -1.3 v 0.4 c 0,0.5 0.3,0.8 0.9,0.8 0.6,0 0.8,-0.2 1,-0.5 0.1,-0.2 0.3,-0.3 0.6,-0.3 0.3,0 0.6,0.2 0.6,0.5 v 0 0.3 c -0.5,0.7 -1.3,1.1 -2.2,1 -1.3,0 -2.2,-0.7 -2.2,-1.8 v -3 c 0,-0.4 0.2,-0.7 0.6,-0.7 h 0.1 c 0.3,0 0.7,0.2 0.7,0.6 v 0 0.3 0 c 0.3,-0.6 0.9,-0.9 1.6,-0.9 0.7,0 1.7,0.6 1.8,1.5 v 0.2 z m -3.3,0.4 v 0.4 h 1.1 c 0.5,0 0.8,-0.4 0.8,-0.7 0,-0.3 -0.3,-0.6 -0.8,-0.6 -0.5,0 -1.1,0.3 -1.1,0.8 v 0 z"
       id="path191"
       style="fill:#ffffff" />
    <path
       class="cls-4"
       d="m 296.4,356.8 1.4,3.7 v 0.4 c 0,0.4 -0.3,0.6 -0.7,0.6 v 0 c -0.3,0 -0.6,-0.2 -0.7,-0.6 l -1.1,-3.5 v 0 l -1.1,3.5 c 0,0.3 -0.3,0.6 -0.7,0.6 -0.4,0 -0.7,-0.2 -0.7,-0.6 v 0 -0.4 l 1.4,-3.7 c 0.1,-0.5 0.5,-0.8 1,-0.7 0.5,0 0.9,0.3 1,0.7 z"
       id="path192"
       style="fill:#ffffff" />
    <path
       class="cls-4"
       d="m 292.7,358.8 c 0.2,1.4 -0.8,2.6 -2.2,2.7 h -0.4 c -1.3,0 -2.4,-0.9 -2.5,-2.2 v -0.2 c 0,-0.3 0.2,-0.6 0.5,-0.6 h 3.1 c 0,-0.7 -0.4,-1.3 -1.1,-1.3 H 290 c -0.5,0 -1,0.2 -1.2,0.6 -0.1,0.1 -0.3,0.2 -0.5,0.2 -0.3,0 -0.5,-0.2 -0.6,-0.5 v 0 -0.3 c 0.5,-0.7 1.3,-1.1 2.2,-1 1.3,0 2.5,0.9 2.6,2.3 v 0.4 h 0.2 z m -3.7,0.6 c 0,0.6 0.4,1.1 1,1.1 v 0 c 0.6,0 1.1,-0.5 1.1,-1.1 h -2.2 z"
       id="path193"
       style="fill:#ffffff" />
    <path
       class="cls-4"
       d="m 286.9,356.8 v 4 c 0,0.4 -0.2,0.7 -0.6,0.7 h -0.1 c -0.4,0 -0.7,-0.2 -0.7,-0.6 v 0 -0.4 0 c -0.3,0.7 -0.9,1.1 -1.6,1 -0.9,0 -1.8,-0.7 -1.8,-1.6 v -3.1 c 0,-0.4 0.3,-0.7 0.7,-0.7 0.4,0 0.7,0.3 0.7,0.7 v 0 2.5 c 0,0.7 0.3,1.1 1,1.1 0.7,0 1,-0.4 1,-1 v -2.6 c 0,-0.4 0.3,-0.7 0.7,-0.7 0.4,0 0.7,0.3 0.7,0.7 z"
       id="path194"
       style="fill:#ffffff" />
    <path
       class="cls-4"
       d="m 485.7,361.2 2,5.3 v 0.4 c 0,0.4 -0.3,0.7 -0.7,0.7 v 0 c -0.4,0 -0.7,-0.2 -0.8,-0.6 l -1.7,-5 v 0 l -1.7,5.1 c 0,0.3 -0.4,0.6 -0.7,0.6 -0.3,0 -0.7,-0.2 -0.7,-0.6 v 0 -0.4 l 2,-5.3 c 0.1,-0.5 0.6,-0.9 1.1,-0.8 0.5,0 0.9,0.3 1,0.8 z"
       id="path195"
       style="fill:#ffffff" />
    <path
       class="cls-4"
       d="m 481.6,363 c 0.2,1.4 -0.8,2.6 -2.2,2.7 H 479 c -1.3,0 -2.4,-0.9 -2.5,-2.2 v -0.2 c 0,-0.3 0.2,-0.6 0.5,-0.6 h 3.1 c 0,-0.7 -0.4,-1.3 -1,-1.3 h -0.2 c -0.5,0 -1,0.2 -1.2,0.6 -0.1,0.1 -0.3,0.2 -0.5,0.2 -0.3,0 -0.5,-0.2 -0.6,-0.5 v 0 -0.3 c 0.5,-0.7 1.3,-1.1 2.2,-1 1.3,0 2.5,0.9 2.6,2.3 v 0.4 h 0.2 z m -3.6,0.6 c 0,0.6 0.4,1.1 1,1.1 v 0 c 0.6,0 1.1,-0.5 1.1,-1.1 h -2.2 z"
       id="path196"
       style="fill:#ffffff" />
    <path
       class="cls-4"
       d="m 475.8,361.1 v 4 c 0,0.4 -0.2,0.7 -0.6,0.7 h -0.1 c -0.4,0 -0.7,-0.2 -0.7,-0.6 v 0 -0.4 0 c -0.3,0.7 -0.9,1.1 -1.6,1 -0.9,0 -1.8,-0.7 -1.8,-1.6 v -3.1 c 0,-0.4 0.3,-0.7 0.7,-0.7 0.4,0 0.7,0.3 0.7,0.7 v 0 2.4 c 0,0.7 0.3,1.1 1,1.1 0.7,0 1,-0.4 1,-1 V 361 c 0,-0.4 0.3,-0.7 0.7,-0.7 0.4,0 0.7,0.3 0.7,0.7 v 0 z"
       id="path197"
       style="fill:#ffffff" />
    <path
       class="cls-4"
       d="m 469.7,364.6 h 0.3 c 0.3,0 0.5,0.2 0.5,0.5 0,0.3 -0.2,0.5 -0.5,0.5 h -0.3 v 0.6 c 0,0.4 -0.3,0.7 -0.7,0.7 -0.4,0 -0.7,-0.3 -0.7,-0.7 v 0 -0.6 h -0.5 c -0.3,0 -0.5,-0.2 -0.5,-0.5 0,-0.3 0.2,-0.5 0.5,-0.5 h 0.5 v -2.5 c 0,-0.4 -0.1,-0.5 -0.4,-0.6 v 0 c -0.3,0 -0.5,-0.2 -0.5,-0.5 0,-0.3 0.4,-0.6 1,-0.6 v 0 c 0.7,0 1.3,0.4 1.4,1.1 v 3.1 0 z"
       id="path198"
       style="fill:#ffffff" />
    <path
       class="cls-4"
       d="m 349.1,291.2 v 0.4 c 0,0.3 -0.2,0.6 -0.6,0.6 v 0 c -0.3,0 -0.6,-0.2 -0.7,-0.4 -0.3,-0.5 -0.9,-0.9 -1.5,-0.8 -0.8,0 -1.3,0.4 -1.3,0.9 0,0.5 0.3,0.7 1.2,0.9 h 0.8 c 1.4,0.4 2.1,1.1 2.1,2.1 0,1 -1.1,2.1 -2.7,2.1 -1.1,0.1 -2.1,-0.5 -2.6,-1.5 v -0.3 c 0,-0.3 0.2,-0.6 0.6,-0.6 v 0 c 0.3,0 0.6,0.2 0.7,0.4 0.2,0.5 0.7,0.8 1.3,0.8 0.6,0 1.2,-0.3 1.2,-0.9 0,-0.6 -0.3,-0.7 -1.2,-0.9 l -0.7,-0.2 c -1.5,-0.3 -2.1,-0.9 -2.1,-2 0,-1.1 1.1,-2.2 2.8,-2.2 1.7,0 2.4,0.6 2.7,1.4 z"
       id="path199"
       style="fill:#ffffff" />
    <path
       class="cls-4"
       d="m 342.4,294.1 h 0.3 c 0.3,0 0.6,0.2 0.6,0.5 0,0.3 -0.2,0.6 -0.5,0.6 h -0.4 v 0.6 c 0,0.4 -0.3,0.7 -0.7,0.7 -0.4,0 -0.7,-0.3 -0.7,-0.7 v 0 -0.6 h -0.5 c -0.3,0 -0.6,-0.2 -0.6,-0.5 0,-0.3 0.2,-0.6 0.5,-0.6 h 0.6 v -2.5 c 0,-0.4 -0.1,-0.5 -0.4,-0.5 v 0 c -0.3,0 -0.5,-0.2 -0.5,-0.5 0,-0.3 0.4,-0.6 1,-0.6 v 0 c 0.7,-0.1 1.3,0.4 1.4,1 v 3.2 0 z"
       id="path200"
       style="fill:#ffffff" />
    <path
       class="cls-4"
       d="m 339.5,291.5 c 0,1 -0.7,1.5 -2,1.6 h -1.3 v 0.4 c 0,0.5 0.3,0.8 0.9,0.8 0.6,0 0.8,-0.2 1,-0.5 0.1,-0.2 0.3,-0.3 0.6,-0.3 0.3,0 0.6,0.2 0.6,0.5 v 0 0.3 c -0.5,0.7 -1.3,1.1 -2.2,1 -1.3,0 -2.2,-0.7 -2.2,-1.7 v -3 c 0,-0.4 0.2,-0.7 0.6,-0.7 h 0.1 c 0.3,0 0.7,0.2 0.7,0.6 v 0 0.3 0 c 0.3,-0.6 0.9,-0.9 1.6,-0.9 0.7,0 1.7,0.6 1.8,1.5 v 0 c 0,0.1 -0.2,0.1 -0.2,0.1 z m -3.4,0.4 v 0.4 h 1.1 c 0.5,0 0.8,-0.4 0.8,-0.7 0,-0.3 -0.3,-0.6 -0.8,-0.6 -0.5,0 -1.1,0.4 -1.1,1 v 0 z"
       id="path201"
       style="fill:#ffffff" />
    <path
       class="cls-4"
       d="m 333.8,296.6 c 0,0.4 -0.3,0.8 -0.7,0.8 -0.4,0 -0.8,-0.3 -0.8,-0.7 0,-0.4 0.3,-0.8 0.7,-0.8 v 0 c 0.4,0 0.7,0.3 0.8,0.7 z m 0,-6 v 4 c 0,0.4 -0.2,0.7 -0.6,0.7 h -0.1 c -0.4,0 -0.7,-0.3 -0.7,-0.6 v 0 -4.1 c 0,-0.4 0.2,-0.7 0.6,-0.7 h 0.1 c 0.4,0 0.7,0.3 0.7,0.6 v 0 z"
       id="path202"
       style="fill:#ffffff" />
    <path
       class="cls-4"
       d="m 331.4,290.6 v 4 c 0,0.4 -0.2,0.7 -0.6,0.7 h -0.1 c -0.4,0 -0.7,-0.3 -0.7,-0.6 v 0 -0.4 0 c 0,0.6 -0.5,1 -1.1,1 -0.6,0 -0.3,0 -0.5,-0.1 -0.1,-0.1 -0.2,-0.3 -0.2,-0.5 0,-0.2 0,-0.4 0.2,-0.5 0.2,-0.1 0.4,-0.2 0.6,-0.2 0.7,0 0.9,-0.4 0.9,-1 v -2.3 c 0,-0.4 0.2,-0.7 0.6,-0.7 h 0.1 c 0.4,0 0.7,0.3 0.7,0.7 h 0.1 z"
       id="path203"
       style="fill:#ffffff" />
    <path
       class="cls-4"
       d="m 327.9,290.9 v 0.3 c 0,0.3 -0.2,0.5 -0.5,0.6 v 0 c -0.2,0 -0.5,-0.1 -0.6,-0.3 -0.3,-0.4 -0.7,-0.6 -1.1,-0.5 -0.5,0 -0.8,0.2 -0.8,0.6 0,0.4 0.2,0.4 0.7,0.5 l 0.9,0.2 c 1,0.2 1.5,0.7 1.5,1.5 0,0.8 -0.9,1.6 -2.2,1.6 -1.3,0 -1.6,-0.3 -2,-1.1 v -0.2 c 0,-0.3 0.2,-0.5 0.4,-0.5 v 0 c 0.2,0 0.4,0 0.5,0.2 0.2,0.3 0.6,0.5 1,0.6 0.5,0 0.8,-0.2 0.8,-0.6 0,-0.4 -0.2,-0.5 -0.7,-0.6 l -0.9,-0.2 c -1.1,-0.2 -1.6,-0.6 -1.6,-1.4 0,-0.8 0.9,-1.7 2.3,-1.7 1.4,0 2,0.4 2.2,1 z"
       id="path204"
       style="fill:#ffffff" />
    <path
       class="cls-4"
       d="m 240.6,409.3 v 5.7 c 0,0.4 -0.2,0.8 -0.6,0.8 -0.4,0 -0.8,-0.2 -0.8,-0.6 v -2.4 H 236 v 2.2 c 0,0.4 -0.3,0.7 -0.7,0.7 -0.4,0 -0.7,-0.3 -0.7,-0.7 v 0 -5.7 c 0,-0.4 0.3,-0.7 0.7,-0.7 0.4,0 0.7,0.3 0.7,0.7 v 2.3 h 3.2 v -2.3 c 0,-0.4 0.2,-0.8 0.6,-0.8 0.4,0 0.8,0.2 0.8,0.6 z"
       id="path205"
       style="fill:#ffffff" />
    <path
       class="cls-4"
       d="m 233.6,411.2 c 0.2,1.4 -0.8,2.6 -2.2,2.7 H 231 c -1.3,0 -2.4,-0.9 -2.5,-2.2 v -0.2 c 0,-0.3 0.2,-0.6 0.5,-0.6 h 3.1 c 0,-0.7 -0.4,-1.3 -1,-1.3 H 231 c -0.5,0 -1,0.2 -1.2,0.6 -0.1,0.1 -0.3,0.2 -0.5,0.2 -0.3,0 -0.5,-0.2 -0.5,-0.5 v 0 c 0,-0.1 0,-0.2 0.1,-0.3 0.5,-0.7 1.3,-1.1 2.2,-1 1.3,0 2.5,0.9 2.6,2.3 v 0.4 h -0.1 z m -3.6,0.6 c 0,0.6 0.4,1.1 1,1.1 v 0 c 0.6,0 1.1,-0.5 1.1,-1.1 h -2.2 v 0 z"
       id="path206"
       style="fill:#ffffff" />
    <path
       class="cls-4"
       d="m 227.9,409.2 v 5.8 c 0,0.4 -0.2,0.7 -0.6,0.7 h -0.1 c -0.4,0 -0.7,-0.3 -0.7,-0.6 v 0 -5.9 c 0,-0.4 0.2,-0.7 0.6,-0.7 h 0.1 c 0.4,0 0.7,0.2 0.7,0.6 v 0 z"
       id="path207"
       style="fill:#ffffff" />
    <path
       class="cls-4"
       d="m 225.4,409.2 v 5.8 c 0,0.4 -0.3,0.7 -0.7,0.7 -0.4,0 -0.7,-0.3 -0.7,-0.7 v -5.8 c 0,-0.4 0.3,-0.7 0.7,-0.7 0.4,0 0.7,0.3 0.7,0.7 z"
       id="path208"
       style="fill:#ffffff" />
    <path
       class="cls-4"
       d="m 133.2,350.21916 v 5.8 c 0,0.4 -0.2,0.7 -0.6,0.7 v 0 c -0.3,0 -0.6,-0.2 -0.7,-0.4 l -3,-4.3 v 0 4 c 0,0.4 -0.2,0.7 -0.6,0.8 -0.4,0 -0.7,-0.2 -0.8,-0.6 v -6 c 0,-0.4 0.2,-0.7 0.6,-0.7 v 0 c 0.3,0 0.6,0.2 0.7,0.4 l 3,4.3 v 0 -4 c 0,-0.4 0.2,-0.7 0.6,-0.8 0.4,0 0.7,0.2 0.8,0.6 z"
       id="path209"
       style="fill:#ffffff" />
    <path
       class="cls-4"
       d="m 126.3,352.11916 c 0.2,1.3 -0.8,2.6 -2.2,2.7 h -0.4 c -1.3,0 -2.4,-0.9 -2.5,-2.2 v -0.2 c 0,-0.3 0.2,-0.6 0.5,-0.6 h 3.1 c 0,-0.7 -0.4,-1.3 -1,-1.3 h -0.2 c -0.5,0 -1,0.2 -1.2,0.6 0,0.1 -0.3,0.2 -0.5,0.2 -0.3,0 -0.5,-0.2 -0.6,-0.5 v 0 c 0,-0.1 0,-0.2 0,-0.3 0.5,-0.7 1.3,-1.1 2.2,-1 1.3,0 2.5,0.9 2.6,2.3 v 0.4 0 z m -3.6,0.6 c 0,0.6 0.4,1.1 1,1.1 v 0 c 0.6,0 1.1,-0.5 1.1,-1.1 h -2.2 v 0 z"
       id="path210"
       style="fill:#ffffff" />
    <path
       class="cls-4"
       d="m 119.8,350.21916 1,3.7 v 0.4 c 0,0.3 -0.3,0.6 -0.6,0.6 v 0 c -0.3,0 -0.6,-0.3 -0.7,-0.6 l -0.8,-3.4 v 0 l -0.8,3.3 c 0,0.4 -0.4,0.7 -0.8,0.7 -0.4,0 -0.7,-0.3 -0.8,-0.7 l -0.8,-3.3 v 0 l -0.8,3.4 c 0,0.3 -0.3,0.6 -0.7,0.6 -0.4,0 -0.6,-0.2 -0.7,-0.6 v 0 -0.4 l 1.1,-3.7 c 0,-0.5 0.5,-0.8 0.9,-0.8 0.4,0 0.9,0.3 0.9,0.7 v 0 l 0.8,3 v 0 l 0.8,-3.1 c 0,-0.5 0.5,-0.8 0.9,-0.7 0.5,0 0.7,0.3 0.9,0.8 h 0.2 z"
       id="path211"
       style="fill:#ffffff" />
    <path
       class="cls-4"
       d="m 110.6,350.31916 v 5.5 c 0,0.4 -0.2,0.7 -0.6,0.8 h -2.4 c -1.3,0 -2.1,-0.7 -2.1,-1.8 0,-1.1 0.6,-1.4 1.3,-1.5 v 0 c -0.9,0 -1.7,-0.8 -1.7,-1.7 0,-0.9 0.9,-2 2.4,-2 h 2.4 c 0.4,0 0.7,0.3 0.7,0.6 v 0 z m -2.5,3.4 c -0.8,0 -1.2,0.3 -1.2,1 0,0.7 0.4,0.9 1.1,0.9 h 1.2 v -1.8 h -1.1 z m -0.2,-3 c -0.9,0 -1.3,0.4 -1.3,1 0,0.6 0.5,1 1.3,1 h 1.2 v -2 z"
       id="path212"
       style="fill:#ffffff" />
    <path
       class="cls-4"
       d="m 104.5,352.21916 c 0,1.4 -1.3,2.5 -2.7,2.5 -1.4,0 -2.5,-1.3 -2.5,-2.7 0,-1.4 1.2,-2.5 2.6,-2.5 1.4,0 2.5,1 2.6,2.3 z m -3.7,0 c 0,1 0.5,1.6 1.1,1.6 0.6,0 1.1,-0.6 1.1,-1.6 0,-1 -0.4,-1.7 -1.1,-1.7 -0.7,0 -1.1,0.6 -1.1,1.7 z"
       id="path213"
       style="fill:#ffffff" />
    <path
       class="cls-4"
       d="m 98.9,350.01916 c 0,0.2 0,0.3 -0.2,0.5 l -1.2,1.7 1.2,1.7 c 0,0.1 0.1,0.3 0.1,0.4 0,0.4 -0.3,0.6 -0.6,0.6 v 0 c -0.3,0 -0.4,0 -0.6,-0.4 l -1,-1.5 v 0 l -1,1.5 c -0.2,0.3 -0.3,0.4 -0.6,0.4 -0.3,0 -0.6,-0.2 -0.7,-0.5 v 0 c 0,-0.2 0,-0.4 0.2,-0.5 l 1.2,-1.6 -1.2,-1.7 c -0.1,-0.1 -0.2,-0.3 -0.2,-0.4 0,-0.3 0.3,-0.6 0.6,-0.6 v 0 c 0.2,0 0.5,0.1 0.6,0.4 l 1,1.5 v 0 l 1,-1.5 c 0.2,-0.3 0.3,-0.4 0.6,-0.4 0.3,0 0.6,0 0.7,0.4 v 0.2 -0.2 z"
       id="path214"
       style="fill:#ffffff" />
    <path
       class="cls-4"
       d="m 481.84368,60.896313 v 7.2 c 0,0.5 -0.3,0.9 -0.8,1 h -2.7 c -2.8,0 -4.4,-1.6 -4.4,-4.5 0,-2.9 1.6,-4.6 4.4,-4.6 h 2.5 c 0.5,0 0.9,0.3 1,0.8 v 0.2 0 z m -3.3,0.6 c -1.7,0 -2.6,1 -2.6,3 0,2 1,3 2.6,3 h 1.3 v -6 z"
       id="path215"
       style="fill:#ffffff" />
    <path
       class="cls-4"
       d="m 473.14368,63.196313 c 0,2.2 -1.3,3.6 -3.3,3.6 -2,0 -3.1,-1.2 -3.2,-2.9 v -0.3 c 0,-0.4 0.3,-0.8 0.7,-0.8 h 4 c 0,-0.9 -0.5,-1.7 -1.3,-1.7 h -0.2 c -0.6,0 -1.3,0.3 -1.6,0.8 -0.1,0.2 -0.4,0.3 -0.6,0.3 -0.4,0 -0.7,-0.3 -0.7,-0.6 v 0 c 0,-0.2 0,-0.3 0.1,-0.4 0.6,-0.9 1.7,-1.4 2.8,-1.3 1.7,0 3.3,1.2 3.4,2.9 v 0.6 -0.2 z m -4.7,0.8 c 0,0.8 0.6,1.4 1.3,1.5 v 0 c 0.8,0 1.5,-0.7 1.5,-1.5 h -2.9 z"
       id="path216"
       style="fill:#ffffff" />
    <path
       class="cls-4"
       d="m 465.24368,60.696313 v 4.6 h 0.3 c 0.4,0 0.6,0.4 0.6,0.8 0,0.4 -0.3,0.6 -0.6,0.6 h -0.3 v 0.5 c 0.2,0.9 -0.5,1.8 -1.4,2 h -0.6 c -1,0 -1.4,-0.3 -1.4,-0.8 0,-0.5 0.1,-0.4 0.4,-0.5 h 0.4 c 0.6,0 0.8,-0.2 0.8,-0.8 v -0.4 h -0.8 c -0.4,0 -0.6,-0.4 -0.6,-0.8 0,-0.4 0.3,-0.6 0.6,-0.6 h 0.7 v -4.6 c 0,-0.5 0.4,-0.9 0.9,-0.9 0.5,0 0.9,0.4 0.9,0.9 z"
       id="path217"
       style="fill:#ffffff" />
    <path
       class="cls-4"
       d="m 461.54368,63.196313 c 0,2.2 -1.3,3.6 -3.3,3.6 -2,0 -3.1,-1.2 -3.2,-2.9 v -0.3 c 0,-0.4 0.2,-0.8 0.6,-0.8 h 4.1 c 0,-0.9 -0.5,-1.7 -1.3,-1.7 h -0.2 c -0.6,0 -1.3,0.3 -1.6,0.8 -0.2,0.2 -0.4,0.3 -0.6,0.3 -0.4,0 -0.7,-0.2 -0.7,-0.6 v 0 c 0,-0.2 0,-0.3 0.1,-0.4 0.6,-0.9 1.7,-1.4 2.8,-1.3 1.7,0 3.3,1.2 3.4,2.9 v 0.6 -0.2 z m -4.7,0.8 c 0,0.8 0.6,1.4 1.3,1.5 v 0 c 0.8,0 1.5,-0.6 1.5,-1.4 h -2.9 0.1 z"
       id="path218"
       style="fill:#ffffff" />
    <path
       class="cls-4"
       d="m 454.04368,60.696313 v 5.2 c 0,0.5 -0.3,0.9 -0.8,0.9 h -0.1 c -0.5,0 -0.9,-0.3 -0.9,-0.8 v 0 -0.5 0 c -0.3,0.8 -1.2,1.4 -2.1,1.3 -1.2,0 -2.3,-0.9 -2.4,-2.1 v -4 c 0,-0.5 0.4,-0.9 0.9,-0.9 0.5,0 0.9,0.4 0.9,0.9 v 0 3.2 c 0,0.9 0.4,1.4 1.2,1.4 0.8,0 1.3,-0.6 1.4,-1.3 v -3.3 c 0,-0.5 0.4,-0.9 0.9,-0.9 0.5,0 0.9,0.4 0.9,0.9 z"
       id="path219"
       style="fill:#ffffff" />
    <path
       class="cls-4"
       d="m 446.84368,63.296313 c 0,2.2 -1.1,3.5 -2.8,3.5 -1.7,0 -1.7,-0.5 -2.1,-1.3 v 0 2.7 c 0,0.5 -0.3,1 -0.8,1 -0.5,0 -1,-0.3 -1,-0.8 v -7.7 c 0,-0.5 0.3,-0.9 0.8,-0.9 h 0.1 c 0.5,0 0.9,0.3 0.9,0.8 v 0 0.5 0 c 0.3,-0.8 1.2,-1.4 2.1,-1.3 1.7,0 2.8,1.3 2.8,3.5 z m -4.9,0 c 0,1.2 0.6,2 1.5,2 0.9,0 1.5,-0.8 1.5,-2 0,-1.2 -0.6,-2 -1.5,-2 -0.9,0 -1.5,0.7 -1.5,2 z"
       id="path220"
       style="fill:#ffffff" />
    <path
       class="cls-4"
       d="m 439.04368,63.196313 c 0,2.2 -1.3,3.6 -3.3,3.6 -2,0 -3.1,-1.2 -3.2,-2.9 v -0.3 c 0,-0.4 0.2,-0.8 0.6,-0.8 h 4.1 c 0,-0.9 -0.5,-1.7 -1.3,-1.7 h -0.2 c -0.6,0 -1.3,0.3 -1.6,0.8 -0.2,0.2 -0.4,0.3 -0.6,0.3 -0.4,0 -0.7,-0.2 -0.7,-0.6 v 0 c 0,-0.2 0,-0.3 0.1,-0.4 0.6,-0.9 1.7,-1.4 2.8,-1.3 1.7,0 3.3,1.2 3.4,2.9 v 0.6 -0.2 z m -4.7,0.8 c 0,0.8 0.6,1.4 1.3,1.5 v 0 c 0.8,0 1.5,-0.6 1.5,-1.4 h -2.9 0.1 z"
       id="path221"
       style="fill:#ffffff" />
    <path
       class="cls-4"
       d="m 431.64368,60.696313 v 5.2 c 0,0.5 -0.3,0.9 -0.8,0.9 h -0.1 c -0.5,0 -0.9,-0.3 -0.9,-0.8 v 0 -0.5 0 c 0,0.7 -0.7,1.3 -1.4,1.4 -0.2,0 -0.4,0 -0.6,-0.2 -0.2,-0.2 -0.3,-0.4 -0.3,-0.7 0,-0.3 0,-0.5 0.3,-0.7 0.2,-0.2 0.5,-0.3 0.8,-0.2 0.8,0 1.1,-0.5 1.1,-1.3 v -3 c 0,-0.5 0.4,-0.9 0.9,-0.9 0.5,0 0.9,0.4 0.9,0.9 h 0.1 z"
       id="path222"
       style="fill:#ffffff" />
    <path
       class="cls-4"
       d="m 474.2654,44.08544 v 0.5 c 0,0.4 -0.3,0.8 -0.8,0.8 v 0 c -0.4,0 -0.7,-0.2 -0.9,-0.6 -0.4,-0.7 -1.1,-1.1 -1.9,-1 -1,0 -1.7,0.5 -1.7,1.2 0,0.7 0.4,1 1.6,1.2 l 1,0.2 c 1.8,0.4 2.7,1.2 2.7,2.6 0,1.4 -1.5,2.8 -3.5,2.8 -2,0 -2.9,-0.7 -3.3,-1.9 v -0.4 c 0,-0.4 0.3,-0.8 0.7,-0.8 v 0 c 0.4,0 0.8,0.2 0.9,0.6 0.3,0.7 1,1.1 1.7,1 1,0 1.6,-0.4 1.6,-1.1 0,-0.7 -0.4,-0.9 -1.5,-1.1 l -1,-0.2 c -1.9,-0.4 -2.8,-1.2 -2.8,-2.6 0,-1.4 1.4,-2.9 3.7,-2.9 2.3,0 3.1,0.7 3.5,1.7 z"
       id="path223"
       style="fill:#ffffff" />
    <path
       class="cls-4"
       d="m 466.1654,40.98544 v 7.5 c 0,0.5 -0.3,1 -0.8,1 -0.5,0 -1,-0.3 -1,-0.8 v -0.6 0 c -0.4,0.8 -1.2,1.3 -2.1,1.3 -1.7,0 -2.8,-1.3 -2.8,-3.5 0,-2.2 1,-3.5 2.8,-3.5 1.8,0 1.7,0.4 2.1,1.2 v 0 -2.6 c 0,-0.5 0.3,-1 0.8,-1 0.5,0 1,0.3 1,0.8 z m -4.9,4.9 c 0,1.2 0.6,2 1.5,2 0.9,0 1.5,-0.8 1.5,-2 0,-1.2 -0.6,-2 -1.5,-2 -0.9,0 -1.5,0.8 -1.5,2 z"
       id="path224"
       style="fill:#ffffff" />
    <path
       class="cls-4"
       d="m 458.6654,44.38544 c 0,1.2 -1,1.9 -2.7,2.1 h -1.7 v 0.6 c 0,0.6 0.4,1 1.1,1 0.7,0 1,-0.3 1.3,-0.7 0.2,-0.2 0.4,-0.3 0.7,-0.3 0.3,0 0.7,0.2 0.8,0.6 v 0 0.4 c -0.3,0.8 -1.4,1.3 -2.8,1.3 -1.4,0 -2.9,-0.9 -2.9,-2.3 v -3.9 c 0,-0.5 0.3,-0.9 0.8,-0.9 h 0.1 c 0.4,0 0.8,0.3 0.9,0.7 v 0 0.3 0 c 0.4,-0.7 1.2,-1.2 2.1,-1.1 1.2,0 2.2,0.7 2.3,1.9 v 0.2 0 z m -4.3,0.6 v 0.5 h 1.4 c 0.7,0 1.1,-0.4 1.1,-0.9 0,-0.5 -0.4,-0.8 -1,-0.8 -0.6,0 -1.4,0.5 -1.5,1.2 z"
       id="path225"
       style="fill:#ffffff" />
    <path
       class="cls-4"
       d="m 450.2654,43.28544 1.4,4.7 v 0.6 c 0,0.4 -0.4,0.8 -0.8,0.8 v 0 c -0.5,0 -0.8,-0.3 -0.9,-0.8 l -1,-4.4 v 0 l -1,4.3 c -0.1,0.6 -0.7,0.9 -1.2,0.8 -0.4,0 -0.8,-0.4 -0.8,-0.8 l -1.1,-4.3 v 0 l -1,4.4 c 0,0.4 -0.4,0.8 -0.8,0.8 -0.4,0 -0.8,-0.3 -0.9,-0.7 v 0 -0.6 l 1.4,-4.8 c 0,-0.6 0.6,-1 1.2,-1 0.6,0 1.1,0.4 1.2,1 v 0 l 1,4 v 0 l 1,-4 c 0,-0.6 0.6,-1.1 1.2,-1 0.6,0 0.9,0.3 1.1,1 z"
       id="path226"
       style="fill:#ffffff" />
    <path
       class="cls-4"
       d="m 441.0654,43.28544 v 5.2 c 0,0.5 -0.3,0.9 -0.7,0.9 h -0.1 c -0.5,0 -0.9,-0.3 -0.9,-0.8 v 0 -0.5 0 c -0.3,0.8 -1.2,1.4 -2.1,1.3 -1.2,0 -2.3,-0.9 -2.4,-2.1 v -4 c 0,-0.5 0.3,-1 0.8,-1 0.5,0 1,0.3 1,0.8 v 3.4 c 0,0.9 0.4,1.4 1.2,1.4 0.8,0 1.4,-0.6 1.4,-1.3 v -3.3 c 0,-0.5 0.3,-1 0.8,-1 0.5,0 1,0.3 1,0.8 z"
       id="path227"
       style="fill:#ffffff" />
    <path
       class="cls-4"
       d="m 790.9,468.3 v 0.5 L 789,474 c -0.2,0.6 -0.8,1 -1.5,0.8 -0.4,-0.1 -0.7,-0.4 -0.8,-0.8 l -1.9,-5.2 v -0.5 c 0,-0.4 0.3,-0.7 0.7,-0.7 v 0 c 0.4,0 0.6,0.2 0.8,0.7 l 0.4,1.1 h 2.5 l 0.4,-1.1 c 0,-0.5 0.4,-0.7 0.8,-0.7 0.4,0 0.7,0.2 0.7,0.6 v 0 c 0,0.1 -0.2,0.1 -0.2,0.1 z m -4.1,2.2 0.9,2.9 v 0 l 0.9,-2.9 z"
       id="path228"
       style="fill:#ffffff" />
    <path
       class="cls-4"
       d="m 781.7,468.3 v 5.6 c 0,0.5 -0.3,0.9 -0.8,1 h -0.2 c -0.5,0 -0.9,-0.3 -1,-0.8 l -1.8,-4.3 v 0 l -1.7,4.3 c 0,0.5 -0.5,0.8 -1,0.8 -0.5,0 -0.9,-0.3 -1,-0.7 v -5.8 c 0,-0.4 0.3,-0.7 0.7,-0.7 0.4,0 0.7,0.3 0.7,0.7 v 4.1 0 l 1.8,-4.3 c 0,-0.3 0.3,-0.5 0.6,-0.5 0.3,0 0.6,0.2 0.6,0.4 l 1.8,4.3 v 0 -4.2 c 0,-0.4 0.2,-0.7 0.6,-0.7 0.4,0 0.7,0.2 0.7,0.6 z"
       id="path229"
       style="fill:#ffffff" />
    <path
       class="cls-4"
       d="m 773.5,469.2 c 0,1 -0.7,1.5 -2,1.6 h -1.3 v 0.4 c 0,0.4 0.3,0.8 0.8,0.8 v 0 c 0.4,0 0.8,-0.2 1,-0.5 0,-0.2 0.3,-0.3 0.6,-0.3 0.3,0 0.6,0.2 0.6,0.5 v 0 0.3 c -0.2,0.6 -1.1,1 -2.2,1 -1.1,0 -2.2,-0.7 -2.2,-1.8 v -3 c 0,-0.4 0.2,-0.7 0.6,-0.7 v 0 c 0.3,0 0.7,0.2 0.7,0.6 v 0 0.3 0 c 0.3,-0.6 0.9,-0.9 1.6,-0.9 0.7,0 1.7,0.6 1.8,1.5 v 0 c 0,0.1 -0.2,0.2 -0.2,0.2 z m -3.4,0.4 v 0.4 h 1.1 c 0.5,0 0.8,-0.4 0.8,-0.7 0,-0.3 -0.3,-0.6 -0.8,-0.6 -0.5,0 -1,0.4 -1.1,0.9 z"
       id="path230"
       style="fill:#ffffff" />
    <path
       class="cls-4"
       d="m 767.9,474.3 c 0,0.4 -0.3,0.8 -0.8,0.8 -0.5,0 -0.8,-0.3 -0.8,-0.8 0,-0.5 0.3,-0.8 0.8,-0.8 0.5,0 0.8,0.3 0.8,0.8 z m 0,-6 v 4 c 0,0.4 -0.3,0.7 -0.7,0.7 -0.4,0 -0.7,-0.3 -0.7,-0.7 v 0 -4 c 0,-0.4 0.3,-0.7 0.7,-0.7 0.4,0 0.7,0.3 0.7,0.7 z"
       id="path231"
       style="fill:#ffffff" />
    <path
       class="cls-4"
       d="m 765.5,468.3 v 4 c 0,0.4 -0.2,0.7 -0.6,0.7 v 0 c -0.4,0 -0.7,-0.3 -0.7,-0.6 v 0 -0.4 0 c -0.3,0.6 -0.9,1.1 -1.6,1 -1,0 -1.8,-0.7 -1.8,-1.6 v -3.1 c 0,-0.4 0.2,-0.8 0.6,-0.8 0.4,0 0.8,0.2 0.8,0.6 v 2.6 c 0,0.7 0.3,1.1 1,1.1 0.7,0 1,-0.4 1,-1 v -2.6 c 0,-0.4 0.2,-0.8 0.6,-0.8 0.4,0 0.8,0.2 0.8,0.6 v 0.2 0 z"
       id="path232"
       style="fill:#ffffff" />
    <path
       class="cls-4"
       d="m 857.1,168.91916 v 5.5 c 0,0.4 -0.2,0.7 -0.6,0.8 h -3.4 c -0.3,0 -0.6,-0.2 -0.7,-0.5 v 0 c 0,-0.4 0.3,-0.7 0.6,-0.7 h 2.6 v -1.7 h -2.5 c -0.3,0 -0.6,-0.2 -0.6,-0.5 v 0 c 0,-0.3 0.2,-0.6 0.5,-0.6 h 2.5 v -1.8 h -2.6 c -0.3,0 -0.6,-0.3 -0.6,-0.6 0,-0.3 0.3,-0.6 0.6,-0.6 h 3.3 c 0.4,0 0.7,0.3 0.7,0.6 v 0 c 0,0.1 0.2,0.1 0.2,0.1 z"
       id="path233"
       style="fill:#ffffff" />
    <path
       class="cls-4"
       d="m 851.5,168.71916 v 5.8 c 0,0.4 -0.3,0.7 -0.7,0.7 -0.4,0 -0.7,-0.3 -0.7,-0.7 v -5.8 c 0,-0.4 0.3,-0.7 0.7,-0.7 0.4,0 0.7,0.3 0.7,0.7 z"
       id="path234"
       style="fill:#ffffff" />
    <path
       class="cls-4"
       d="m 849.1,168.71916 v 5.8 c 0,0.4 -0.2,0.8 -0.6,0.8 -0.4,0 -0.8,-0.2 -0.8,-0.6 v -2.3 0 c -0.3,0.6 -0.9,1 -1.6,1 -1.3,0 -2.1,-1 -2.1,-2.7 0,-1.7 0.8,-2.7 2.1,-2.7 1.3,0 1.3,0.4 1.6,1 v 0 -0.3 c 0,-0.4 0.2,-0.7 0.6,-0.7 v 0 c 0.4,0 0.7,0.2 0.7,0.6 v 0 q 0,0.1 0,0 z m -3.8,2 c 0,1 0.4,1.5 1.2,1.5 0.8,0 1.2,-0.6 1.2,-1.5 0,-0.9 -0.5,-1.6 -1.2,-1.6 -0.7,0 -1.2,0.6 -1.2,1.6 z"
       id="path235"
       style="fill:#ffffff" />
    <path
       class="cls-4"
       d="m 843.3,170.71916 c 0,1.4 -1.3,2.5 -2.7,2.4 -1.4,-0.1 -2.5,-1.3 -2.4,-2.7 0,-1.4 1.2,-2.4 2.6,-2.4 1.4,0 2.5,1 2.6,2.4 v 0.4 0 z m -3.7,0 c 0,1 0.4,1.6 1.1,1.6 0.7,0 1.2,-0.6 1.2,-1.6 0,-1 -0.4,-1.6 -1.2,-1.6 -0.8,0 -1.1,0.6 -1.1,1.6 z"
       id="path236"
       style="fill:#ffffff" />
    <path
       class="cls-4"
       d="m 836.6,168.71916 1,3.6 v 0.4 c 0,0.3 -0.3,0.6 -0.6,0.6 v 0 c -0.3,0 -0.6,-0.3 -0.7,-0.6 l -0.8,-3.4 v 0 l -0.8,3.3 c 0,0.4 -0.5,0.7 -1,0.6 -0.3,0 -0.6,-0.3 -0.6,-0.6 l -0.8,-3.3 v 0 l -0.8,3.4 c 0,0.3 -0.3,0.6 -0.7,0.6 -0.4,0 -0.6,-0.2 -0.7,-0.5 v 0 -0.4 l 1,-3.6 c 0,-0.4 0.5,-0.8 0.9,-0.8 0.4,0 0.9,0.3 0.9,0.7 v 0 l 0.8,3 v 0 l 0.8,-3.1 c 0,-0.5 0.6,-0.8 1.1,-0.7 0.4,0 0.6,0.4 0.7,0.7 h 0.3 z"
       id="path237"
       style="fill:#ffffff" />
    <path
       class="cls-4"
       d="m 868.1,563.6 c 0,2.3 -1.3,3.6 -3.3,3.6 -2,0 -2.3,-0.5 -2.8,-1.6 0,-0.2 0,-0.4 -0.2,-0.5 0,-0.3 0.2,-0.6 0.6,-0.6 v 0 c 0.3,0 0.6,0.2 0.7,0.5 0.3,0.7 0.9,1.1 1.6,1.1 1.1,0 1.8,-0.9 1.8,-2.4 0,-1.5 -0.7,-2.4 -1.8,-2.4 -1.1,0 -1.3,0.4 -1.6,1 0,0.3 -0.4,0.5 -0.7,0.5 -0.3,0 -0.7,-0.2 -0.7,-0.6 v 0 c 0,-0.2 0,-0.3 0,-0.5 0.5,-1 1.7,-1.7 2.8,-1.6 2.1,0 3.4,1.4 3.4,3.7 v -0.2 z"
       id="path238"
       style="fill:#ffffff" />
    <path
       class="cls-4"
       d="m 861.1,561.6 c 0,1 -0.7,1.5 -2,1.6 h -1.3 v 0.4 c 0,0.5 0.3,0.8 0.9,0.8 0.6,0 0.8,-0.2 1,-0.5 0,-0.2 0.3,-0.3 0.6,-0.3 0.3,0 0.6,0.2 0.6,0.5 v 0 0.3 c -0.5,0.7 -1.3,1.1 -2.2,1 -1.3,0 -2.2,-0.7 -2.2,-1.8 v -3 c 0,-0.4 0.2,-0.7 0.6,-0.7 v 0 c 0.4,0 0.7,0.2 0.7,0.6 v 0 0.3 0 c 0.3,-0.6 0.9,-0.9 1.6,-0.9 0.7,0 1.7,0.6 1.8,1.5 v 0 c 0,0 -0.2,0.2 -0.2,0.2 z m -3.4,0.4 v 0.4 h 1.1 c 0.5,0 0.8,-0.3 0.8,-0.7 0,-0.4 -0.3,-0.6 -0.8,-0.6 -0.5,0 -1.1,0.4 -1.1,0.9 z"
       id="path239"
       style="fill:#ffffff" />
    <path
       class="cls-4"
       d="m 855,560.8 v 3.5 h 0.3 c 0.3,0 0.5,0.2 0.5,0.5 v 0 c 0,0.3 -0.2,0.5 -0.5,0.5 H 855 v 0.4 c 0,0.7 -0.4,1.4 -1.1,1.5 h -0.4 c -0.8,0 -1.1,-0.2 -1.1,-0.6 0,-0.4 0,-0.3 0.3,-0.4 h 0.3 c 0.4,0 0.6,-0.2 0.6,-0.6 v -0.3 H 853 c -0.3,0 -0.5,-0.2 -0.5,-0.5 v 0 c 0,-0.3 0.2,-0.5 0.5,-0.5 h 0.6 v -3.5 c 0,-0.4 0.3,-0.7 0.7,-0.7 0.4,0 0.7,0.3 0.7,0.7 z"
       id="path240"
       style="fill:#ffffff" />
    <path
       class="cls-4"
       d="m 852.2,562.7 c 0.2,1.4 -0.8,2.6 -2.2,2.7 h -0.4 c -1.3,0 -2.4,-0.9 -2.5,-2.2 V 563 c 0,-0.3 0.2,-0.6 0.5,-0.6 h 3.1 c 0,-0.7 -0.4,-1.3 -1,-1.3 h -0.2 c -0.5,0 -1,0.2 -1.2,0.6 0,0 -0.3,0.2 -0.5,0.2 -0.3,0 -0.5,-0.2 -0.5,-0.5 v 0 -0.3 c 0.5,-0.7 1.3,-1.1 2.2,-1 1.3,0 2.5,0.9 2.6,2.3 v 0.4 h 0.1 z m -3.7,0.6 c 0,0.6 0.4,1.1 1,1.1 v 0 c 0.6,0 1.1,-0.5 1.1,-1.1 h -2.2 z"
       id="path241"
       style="fill:#ffffff" />
    <path
       class="cls-4"
       d="m 795.1,106.2 v 0.4 c 0,0.3 -0.2,0.6 -0.6,0.6 v 0 c -0.3,0 -0.6,-0.2 -0.7,-0.4 -0.3,-0.5 -0.9,-0.9 -1.5,-0.8 -0.8,0 -1.3,0.4 -1.3,0.9 0,0.5 0.3,0.7 1.2,0.9 h 0.8 c 1.4,0.4 2.1,1.1 2.1,2.1 0,1 -1.1,2.1 -2.7,2.1 -1.1,0 -2.1,-0.5 -2.6,-1.5 v -0.3 c 0,-0.3 0.2,-0.6 0.6,-0.6 v 0 c 0.3,0 0.6,0.2 0.7,0.4 0.2,0.5 0.7,0.8 1.3,0.8 0.6,0 1.2,-0.3 1.2,-0.9 0,-0.6 -0.3,-0.7 -1.2,-0.9 h -0.7 c -1.5,-0.4 -2.1,-1 -2.1,-2.1 0,-1.1 1.1,-2.2 2.8,-2.2 1.7,0 2.3,0.6 2.6,1.4 h 0.1 z"
       id="path242"
       style="fill:#ffffff" />
    <path
       class="cls-4"
       d="m 789,107.5 c 0,1.4 -0.8,2.6 -2.2,2.7 h -0.4 c -0.9,0 -1.8,-0.4 -2.2,-1.2 v -0.4 c 0,-0.3 0.3,-0.6 0.6,-0.6 v 0 c 0.3,0 0.5,0 0.6,0.4 0.2,0.4 0.6,0.7 1,0.7 0.7,0 1.2,-0.6 1.2,-1.6 0,-1 -0.4,-1.6 -1.2,-1.6 -0.8,0 -0.8,0.2 -1,0.6 0,0.3 -0.4,0.4 -0.7,0.4 -0.3,0 -0.6,-0.2 -0.6,-0.5 v 0 -0.4 c 0.4,-0.8 1.3,-1.3 2.2,-1.2 1.4,0 2.5,1 2.6,2.3 v 0.4 z"
       id="path243"
       style="fill:#ffffff" />
    <path
       class="cls-4"
       d="m 783.3,105.6 v 4 c 0,0.4 -0.2,0.7 -0.6,0.8 -0.4,0.1 -0.7,-0.2 -0.8,-0.6 v -0.5 0 c 0,0.6 -0.5,1 -1.1,1 -0.6,0 -0.3,0 -0.5,0 0,0 -0.2,-0.3 -0.2,-0.5 0,-0.2 0,-0.4 0.2,-0.5 0.2,-0.1 0.4,-0.2 0.6,-0.2 0.7,0 0.9,-0.4 0.9,-1 v -2.3 c 0,-0.4 0.2,-0.7 0.6,-0.7 v 0 c 0.4,0 0.7,0.3 0.7,0.7 v 0 z"
       id="path244"
       style="fill:#ffffff" />
    <path
       class="cls-4"
       d="m 780.1,107.5 c 0.2,1.4 -0.8,2.6 -2.2,2.7 h -0.4 c -1.3,0 -2.4,-0.9 -2.5,-2.2 v -0.2 c 0,-0.3 0.2,-0.6 0.5,-0.6 h 3.1 c 0,-0.7 -0.4,-1.3 -1,-1.3 h -0.2 c -0.5,0 -1,0.2 -1.2,0.6 0,0 -0.3,0.2 -0.5,0.2 -0.3,0 -0.5,-0.2 -0.5,-0.5 v 0 -0.3 c 0.5,-0.7 1.3,-1.1 2.2,-1 1.3,0 2.5,0.9 2.6,2.3 v 0.4 h 0.1 z m -3.7,0.6 c 0,0.6 0.4,1.1 1,1.1 v 0 c 0.6,0 1.1,-0.5 1.1,-1.1 h -2.2 z"
       id="path245"
       style="fill:#ffffff" />
    <path
       class="cls-4"
       d="m 774.5,107.5 c 0.2,1.4 -0.8,2.6 -2.2,2.7 h -0.4 c -1.3,0 -2.4,-0.9 -2.5,-2.2 v -0.2 c 0,-0.3 0.2,-0.6 0.5,-0.6 h 3.1 c 0,-0.7 -0.4,-1.3 -1,-1.3 h -0.2 c -0.5,0 -1,0.2 -1.2,0.6 0,0 -0.3,0.2 -0.5,0.2 -0.3,0 -0.5,-0.2 -0.6,-0.5 v 0 -0.3 c 0.5,-0.7 1.3,-1.1 2.2,-1 1.3,0 2.5,0.9 2.6,2.3 v 0.4 h 0.2 z m -3.6,0.6 c 0,0.6 0.4,1.1 1,1.1 v 0 c 0.6,0 1.1,-0.5 1.1,-1.1 h -2.2 z"
       id="path246"
       style="fill:#ffffff" />
    <path
       class="cls-4"
       d="m 768.8,105.6 v 4 c 0,0.4 -0.2,0.7 -0.6,0.7 v 0 c -0.4,0 -0.7,-0.3 -0.7,-0.6 v 0 -0.3 0 c -0.3,0.7 -0.9,1.1 -1.6,1 -1,0 -1.8,-0.7 -1.8,-1.6 v -3.1 c 0,-0.4 0.3,-0.7 0.7,-0.7 0.4,0 0.7,0.3 0.7,0.7 v 0 2.4 c 0,0.7 0.3,1.1 1,1.1 0.7,0 1,-0.4 1,-1 v 0 -2.5 c 0,-0.4 0.2,-0.7 0.6,-0.7 v 0 c 0.4,0 0.7,0.3 0.7,0.7 v 0 z"
       id="path247"
       style="fill:#ffffff" />
    <path
       class="cls-4"
       d="m 763.1,105.9 v 0.3 c 0,0.3 -0.2,0.5 -0.5,0.6 v 0 c -0.2,0 -0.5,0 -0.6,-0.3 -0.3,-0.4 -0.7,-0.6 -1.1,-0.5 -0.5,0 -0.9,0.2 -0.9,0.6 0,0.4 0.2,0.4 0.7,0.5 l 0.9,0.2 c 1,0.2 1.5,0.7 1.5,1.5 0,0.8 -0.9,1.6 -2.2,1.6 -1.3,0 -1.6,-0.3 -2,-1.1 v -0.2 c 0,-0.3 0.2,-0.5 0.5,-0.5 0.3,0 0.4,0 0.5,0.2 0.2,0.4 0.6,0.6 1,0.6 0.4,0 0.8,-0.2 0.8,-0.6 0,-0.4 -0.2,-0.5 -0.7,-0.6 l -0.9,-0.2 c -1.1,-0.2 -1.6,-0.6 -1.6,-1.4 0,-0.8 0.9,-1.7 2.3,-1.7 1.4,0 1.9,0.4 2.2,1.1 v 0 z"
       id="path248"
       style="fill:#ffffff" />
    <path
       class="cls-4"
       d="m 686.3,612.9 v 0.4 c 0,0.3 -0.2,0.6 -0.6,0.7 v 0 c -0.3,0 -0.6,-0.2 -0.7,-0.4 -0.3,-0.5 -0.9,-0.8 -1.5,-0.8 -0.6,0 -1.3,0.4 -1.3,0.9 0,0.5 0.3,0.7 1.2,0.9 l 0.7,0.2 c 1.4,0.3 2.1,1 2.1,2 0,1 -1.1,2.1 -2.7,2.1 -1.1,0 -2.1,-0.5 -2.6,-1.5 v -0.3 c 0,-0.3 0.2,-0.6 0.6,-0.6 v 0 c 0.3,0 0.6,0.2 0.7,0.4 0.2,0.5 0.8,0.8 1.3,0.8 0.5,0 1.2,-0.3 1.2,-0.9 0,-0.6 -0.3,-0.7 -1.2,-0.9 l -0.8,-0.2 c -1.5,-0.3 -2.1,-0.9 -2.1,-2 0,-1.1 1.1,-2.2 2.8,-2.2 1.7,0 2.4,0.6 2.7,1.4 z"
       id="path255"
       style="fill:#ffffff" />
    <path
       class="cls-4"
       d="m 680.2,614.2 c 0.2,1.4 -0.8,2.6 -2.2,2.7 h -0.4 c -1.3,0 -2.4,-0.9 -2.5,-2.2 v -0.2 c 0,-0.3 0.2,-0.6 0.5,-0.6 h 3.1 c 0,-0.7 -0.4,-1.3 -1,-1.3 h -0.2 c -0.5,0 -1,0.2 -1.2,0.6 0,0 -0.3,0.2 -0.5,0.2 -0.3,0 -0.5,-0.2 -0.5,-0.5 v 0 -0.3 c 0.5,-0.7 1.3,-1.1 2.2,-1 1.3,0 2.5,0.9 2.6,2.3 v 0.4 h 0.1 z m -3.7,0.6 c 0,0.6 0.4,1.1 1,1.1 v 0 c 0.6,0 1.1,-0.5 1.1,-1.1 h -2.2 z"
       id="path256"
       style="fill:#ffffff" />
    <path
       class="cls-4"
       d="m 673.6,612.3 1,3.7 v 0.4 c 0,0.3 -0.3,0.6 -0.6,0.6 v 0 c -0.3,0 -0.6,-0.3 -0.7,-0.6 l -0.8,-3.4 v 0 l -0.8,3.3 c 0,0.4 -0.5,0.7 -1,0.6 -0.3,0 -0.6,-0.3 -0.6,-0.6 l -0.8,-3.3 v 0 l -0.8,3.4 c 0,0.3 -0.3,0.6 -0.7,0.6 -0.4,0 -0.6,-0.2 -0.7,-0.5 v 0 -0.4 l 1,-3.6 c 0,-0.5 0.5,-0.8 0.9,-0.8 0.4,0 0.9,0.3 0.9,0.8 v 0 l 0.8,3 v 0 l 0.8,-3 c 0,-0.5 0.5,-0.8 0.9,-0.8 0.4,0 0.8,0.3 0.9,0.8 z"
       id="path257"
       style="fill:#ffffff" />
    <path
       class="cls-4"
       d="m 666.8,614.2 c 0.2,1.4 -0.8,2.6 -2.2,2.7 h -0.3 c -1.3,0 -2.4,-0.9 -2.5,-2.2 v -0.2 c 0,-0.3 0.2,-0.6 0.5,-0.6 h 3.1 c 0,-0.7 -0.4,-1.3 -1,-1.3 h -0.2 c -0.5,0 -1,0.2 -1.2,0.6 0,0 -0.3,0.2 -0.5,0.2 -0.3,0 -0.5,-0.2 -0.6,-0.5 v 0 -0.3 c 0.5,-0.7 1.3,-1.1 2.2,-1 1.3,0 2.5,0.9 2.6,2.3 v 0.4 h 0.1 z m -3.6,0.6 c 0,0.6 0.4,1.1 1,1.1 v 0 c 0.6,0 1.1,-0.5 1.1,-1.1 h -2.2 z"
       id="path258"
       style="fill:#ffffff" />
    <path
       class="cls-4"
       d="m 661.1,612.3 v 4 c 0,0.4 -0.2,0.7 -0.6,0.7 v 0 c -0.4,0 -0.7,-0.3 -0.7,-0.6 v 0 -0.3 0 c 0,0.6 -0.5,1 -1.1,1 -0.6,0 -0.3,0 -0.4,0 -0.2,0 -0.2,-0.3 -0.2,-0.5 0,-0.2 0,-0.4 0.2,-0.5 0.2,-0.1 0.4,-0.2 0.6,-0.2 0.7,0 0.9,-0.4 0.9,-1 v -2.3 c 0,-0.4 0.3,-0.7 0.7,-0.7 0.4,0 0.7,0.3 0.7,0.7 v 0 -0.2 z"
       id="path259"
       style="fill:#ffffff" />
    <path
       class="cls-4"
       d="m 657.6,612.6 v 0.3 c 0,0.3 -0.2,0.5 -0.5,0.6 v 0 c -0.2,0 -0.5,0 -0.6,-0.3 -0.3,-0.4 -0.7,-0.6 -1.1,-0.5 -0.5,0 -0.9,0.2 -0.9,0.6 0,0.4 0.2,0.4 0.7,0.5 l 0.9,0.2 c 1,0.2 1.5,0.7 1.5,1.5 0,0.8 -0.9,1.6 -2.2,1.6 -0.8,0 -1.7,-0.3 -2.1,-1.1 v -0.2 c 0,-0.3 0.2,-0.5 0.5,-0.5 0.3,0 0.4,0 0.5,0.2 0.2,0.3 0.6,0.6 1,0.6 0.4,0 0.8,-0.2 0.8,-0.6 0,-0.4 -0.2,-0.5 -0.7,-0.6 l -0.9,-0.2 c -1.1,-0.2 -1.6,-0.6 -1.6,-1.4 0,-0.8 0.9,-1.7 2.3,-1.7 1.4,0 2,0.4 2.3,1 v 0 z"
       id="path260"
       style="fill:#ffffff" />
    <path
       class="cls-4"
       d="m 644.1,450.5 v 5.6 c 0,0.4 -0.2,0.7 -0.6,0.8 h -2.3 c -1.6,0 -2.5,-0.8 -2.5,-2.2 0,-1.4 0.4,-1.6 1.2,-2 l -1,-1.8 c 0,-0.2 -0.2,-0.3 -0.2,-0.5 0,-0.4 0.3,-0.7 0.7,-0.7 v 0 c 0.3,0 0.5,0.1 0.8,0.6 l 1.1,2.2 h 1.2 v -1.9 c 0,-0.4 0.3,-0.7 0.7,-0.7 0.4,0 0.7,0.3 0.7,0.7 h 0.2 z m -2.8,3 c -0.6,0 -1.1,0.4 -1.2,0.9 v 0.2 c 0,0.6 0.4,1.1 1,1.1 h 1.3 v -2.2 h -1.2 z"
       id="path261"
       style="fill:#ffffff" />
    <path
       class="cls-4"
       d="m 638,451.4 c 0,1 -0.7,1.5 -2,1.6 h -1.3 v 0.4 c 0,0.5 0.3,0.8 0.9,0.8 0.6,0 0.8,-0.2 1,-0.5 0,-0.2 0.3,-0.3 0.6,-0.3 0.3,0 0.6,0.2 0.6,0.5 v 0 0.3 c -0.2,0.6 -1.1,1 -2.2,1 -1.1,0 -2.2,-0.7 -2.2,-1.7 v -3 c 0,-0.4 0.2,-0.7 0.6,-0.7 v 0 c 0.3,0 0.6,0.2 0.7,0.6 v 0 0.3 0 c 0.4,-0.6 1,-0.9 1.6,-0.9 0.9,0 1.7,0.6 1.7,1.5 v 0 z m -3.3,0.4 v 0.4 h 1.1 c 0.5,0 0.8,-0.4 0.8,-0.7 0,-0.3 -0.3,-0.6 -0.8,-0.6 -0.5,0 -1.1,0.4 -1.1,1 v 0 z"
       id="path262"
       style="fill:#ffffff" />
    <path
       class="cls-4"
       d="m 632.3,450.5 v 4 c 0,0.4 -0.3,0.7 -0.7,0.7 -0.4,0 -0.7,-0.3 -0.7,-0.7 v -0.3 0 c -0.2,0.6 -0.8,1 -1.5,1 -0.7,0 -1.3,-0.4 -1.5,-1.1 v 0 c -0.2,0.7 -0.9,1.1 -1.7,1.1 -0.8,0 -1.7,-0.7 -1.7,-1.6 v -3.1 c 0,-0.4 0.2,-0.8 0.6,-0.8 0.4,0 0.8,0.2 0.8,0.6 v 2.8 c 0,0.6 0.3,0.9 0.8,0.9 0.5,0 0.9,-0.4 0.9,-0.9 v 0 -2.6 c 0,-0.4 0.2,-0.7 0.5,-0.7 v 0 c 0.4,0 0.7,0.3 0.7,0.8 v 2.6 c 0,0.4 0.3,0.8 0.7,0.9 v 0 c 0.5,0 0.9,-0.4 0.9,-0.9 v 0 -2.6 c 0,-0.4 0.2,-0.7 0.6,-0.7 v 0 c 0.4,0 0.7,0.3 0.7,0.6 v 0.2 l 0.3,-0.2 z"
       id="path263"
       style="fill:#ffffff" />
    <path
       class="cls-4"
       d="m 623.7,448.7 v 5.7 c 0,0.4 -0.2,0.7 -0.6,0.8 -0.4,0 -0.7,-0.2 -0.8,-0.6 v -0.5 0 c -0.3,0.6 -0.9,1 -1.6,1 -1.3,0 -2.1,-1 -2.1,-2.7 0,-1.7 0.8,-2.7 2.1,-2.7 1.3,0 1.3,0.4 1.6,1 v 0 -2 c 0,-0.4 0.2,-0.7 0.6,-0.7 v 0 c 0.4,0 0.7,0.3 0.7,0.6 v 0 z m -3.7,3.8 c 0,1 0.5,1.6 1.2,1.6 0.7,0 1.2,-0.6 1.2,-1.6 0,-1 -0.5,-1.5 -1.2,-1.5 -0.7,0 -1.2,0.6 -1.2,1.5 z"
       id="path264"
       style="fill:#ffffff" />
    <path
       class="cls-4"
       d="m 443.9,516.7 v 5.6 c 0,0.5 -0.3,0.9 -0.7,1 H 443 c -0.5,0 -0.9,-0.3 -1,-0.8 l -1.8,-4.3 v 0 l -1.7,4.3 c -0.1,0.5 -0.5,0.8 -1,0.8 -0.5,0 -0.9,-0.3 -1,-0.8 v -5.8 c 0,-0.4 0.3,-0.7 0.7,-0.7 0.4,0 0.7,0.3 0.7,0.7 v 4.2 0 l 1.7,-4.3 c 0.1,-0.4 0.5,-0.5 0.8,-0.4 0.2,0 0.4,0.2 0.4,0.4 l 1.7,4.3 v 0 -4.2 c 0,-0.4 0.2,-0.7 0.6,-0.7 0.4,0 0.7,0.2 0.7,0.6 v 0.2 0 z"
       id="path267"
       style="fill:#ffffff" />
    <path
       class="cls-4"
       d="m 435.4,522.7 c 0,0.4 -0.3,0.7 -0.7,0.7 v 0 c -0.4,0 -0.7,-0.3 -0.7,-0.7 0,-0.4 0.3,-0.7 0.7,-0.7 v 0 c 0.4,0 0.7,0.3 0.8,0.7 v 0 z m 0,-6 v 4 c 0,0.4 -0.2,0.7 -0.6,0.7 h -0.1 c -0.4,0 -0.7,-0.3 -0.7,-0.6 v 0 -4.1 c 0,-0.4 0.2,-0.7 0.6,-0.7 h 0.1 c 0.4,0 0.7,0.3 0.7,0.7 z"
       id="path268"
       style="fill:#ffffff" />
    <path
       class="cls-4"
       d="m 433.2,518.7 c 0,1.7 -0.8,2.7 -2.2,2.7 -1.4,0 -1.3,-0.4 -1.6,-1 v 0 2.1 c 0,0.4 -0.2,0.7 -0.6,0.7 h -0.1 c -0.4,0 -0.7,-0.3 -0.7,-0.6 v 0 -5.9 c 0,-0.4 0.2,-0.7 0.6,-0.7 h 0.1 c 0.4,0 0.7,0.2 0.7,0.6 v 0 0.4 0 c 0.3,-0.6 0.9,-1 1.6,-1 1.3,0 2.1,1 2.1,2.7 z m -3.8,0 c 0,1 0.5,1.6 1.2,1.6 0.7,0 1.2,-0.6 1.2,-1.6 0,-1 -0.4,-1.5 -1.2,-1.5 -0.8,0 -1.2,0.6 -1.2,1.5 z"
       id="path269"
       style="fill:#ffffff" />
    <text
       xml:space="preserve"
       style="font-size:10.6667px;font-family:sans-serif;-inkscape-font-specification:sans-serif;text-align:start;letter-spacing:0px;writing-mode:lr-tb;direction:ltr;text-anchor:start;fill:#ffffff"
       x="-666.07764"
       y="-217.69627"
       id="text269"
       transform="scale(-1)"><tspan
         sodipodi:role="line"
         id="tspan269"
         x="-666.07764"
         y="-217.69627"
         style="font-style:normal;font-variant:normal;font-weight:bold;font-stretch:normal;font-family:sans-serif;-inkscape-font-specification:'sans-serif Bold'">Tower A</tspan></text>
    <text
       xml:space="preserve"
       style="font-size:10.6667px;font-family:sans-serif;-inkscape-font-specification:'sans-serif Bold';text-align:start;letter-spacing:0px;writing-mode:lr-tb;direction:ltr;text-anchor:start;fill:#ffffff;font-weight:bold;font-style:normal;font-stretch:normal;font-variant:normal"
       x="-74.660629"
       y="-320.50333"
       id="text270"
       transform="scale(-1)"><tspan
         sodipodi:role="line"
         id="tspan270"
         x="-74.660629"
         y="-320.50333">Pillar</tspan></text>
    <text
       xml:space="preserve"
       style="font-size:10.6667px;font-family:sans-serif;-inkscape-font-specification:'sans-serif Bold';text-align:start;letter-spacing:0px;writing-mode:lr-tb;direction:ltr;text-anchor:start;fill:#ffffff;font-weight:bold;font-style:normal;font-stretch:normal;font-variant:normal"
       x="-57.249771"
       y="-212.44534"
       id="text271"
       transform="scale(-1)"><tspan
         sodipodi:role="line"
         id="tspan271"
         x="-57.249771"
         y="-212.44534">Back Site</tspan></text>
    <text
       xml:space="preserve"
       style="font-style:normal;font-variant:normal;font-weight:bold;font-stretch:normal;font-size:10.6667px;font-family:sans-serif;-inkscape-font-specification:'sans-serif Bold';text-align:start;letter-spacing:0px;writing-mode:lr-tb;direction:ltr;text-anchor:start;fill:#ffffff"
       x="-768.60834"
       y="-283.19431"
       id="text272"
       transform="scale(-1)"><tspan
         sodipodi:role="line"
         id="tspan272"
         x="-768.60834"
         y="-283.19431">Flower</tspan></text>
    <text
       xml:space="preserve"
       style="font-style:normal;font-variant:normal;font-weight:bold;font-stretch:normal;font-size:10.6667px;font-family:sans-serif;-inkscape-font-specification:'sans-serif Bold';text-align:start;letter-spacing:0px;writing-mode:lr-tb;direction:ltr;text-anchor:start;fill:#ffffff"
       x="-755.34283"
       y="-338.46689"
       id="text273"
       transform="scale(-1)"><tspan
         sodipodi:role="line"
         id="tspan273"
         x="-755.34283"
         y="-338.46689">Under</tspan></text>
    <text
       xml:space="preserve"
       style="font-style:normal;font-variant:normal;font-weight:bold;font-stretch:normal;font-size:10.6667px;font-family:sans-serif;-inkscape-font-specification:'sans-serif Bold';text-align:start;letter-spacing:0px;writing-mode:lr-tb;direction:ltr;text-anchor:start;fill:#ffffff"
       x="-111.96963"
       y="-493.23026"
       id="text274"
       transform="scale(-1)"><tspan
         sodipodi:role="line"
         id="tspan274"
         x="-111.96963"
         y="-493.23026">Garage</tspan></text>
  </g>
</svg>
