<?xml version="1.0" encoding="UTF-8" standalone="no"?>
<svg
   version="1.1"
   viewBox="0 0 948.1 892.1"
   id="svg269"
   sodipodi:docname="split.svg"
   inkscape:version="1.4.2 (f4327f4, 2025-05-13)"
   xmlns:inkscape="http://www.inkscape.org/namespaces/inkscape"
   xmlns:sodipodi="http://sodipodi.sourceforge.net/DTD/sodipodi-0.dtd"
   xmlns="http://www.w3.org/2000/svg"
   xmlns:svg="http://www.w3.org/2000/svg">
  <sodipodi:namedview
     id="namedview269"
     pagecolor="#505050"
     bordercolor="#eeeeee"
     borderopacity="1"
     inkscape:showpageshadow="0"
     inkscape:pageopacity="0"
     inkscape:pagecheckerboard="0"
     inkscape:deskcolor="#505050"
     inkscape:zoom="0.90460713"
     inkscape:cx="474.23902"
     inkscape:cy="446.04999"
     inkscape:window-width="1920"
     inkscape:window-height="1009"
     inkscape:window-x="1912"
     inkscape:window-y="-8"
     inkscape:window-maximized="1"
     inkscape:current-layer="Layer_1" />
  <defs
     id="defs1">
    <style
       id="style1">
      .cls-1 {
        fill: #003455;
      }

      .cls-2 {
        fill: #3d3d3d;
      }

      .cls-3 {
        fill: #7e7f7e;
      }

      .cls-4 {
        fill: #fff;
      }

      .cls-5 {
        fill: #535353;
      }
    </style>
  </defs>
  <!-- Generator: Adobe Illustrator 28.6.0, SVG Export Plug-In . SVG Version: 1.2.0 Build 709)  -->
  <g
     id="g269"
     transform="rotate(180,474.05,446)">
    <g
       id="Layer_1">
      <g
         id="Body">
        <rect
           class="cls-1"
           x="461.10001"
           y="762.79999"
           width="42"
           height="128.2"
           id="rect1" />
        <rect
           class="cls-1"
           x="374.10001"
           y="835.70001"
           width="41.299999"
           height="49.200001"
           id="rect2" />
        <rect
           class="cls-1"
           x="397.10001"
           y="873.5"
           width="6"
           height="14.5"
           id="rect3" />
        <rect
           class="cls-1"
           x="410.29999"
           y="740.20001"
           width="29.9"
           height="145.8"
           id="rect4" />
        <rect
           class="cls-1"
           x="374.10001"
           y="784.09998"
           width="111.3"
           height="89.400002"
           id="rect5" />
        <rect
           class="cls-1"
           x="483"
           y="709"
           width="20"
           height="64.300003"
           id="rect6" />
        <rect
           class="cls-1"
           x="490.20001"
           y="732"
           width="182.8"
           height="41"
           id="rect7" />
        <rect
           class="cls-1"
           x="598.09998"
           y="647"
           width="75"
           height="87.699997"
           id="rect8" />
        <rect
           class="cls-1"
           x="667.90002"
           y="647"
           width="196.10001"
           height="50"
           id="rect9" />
        <rect
           class="cls-1"
           x="829.5"
           y="409"
           width="34.599998"
           height="260"
           id="rect10" />
        <rect
           class="cls-1"
           x="809.09998"
           y="536"
           width="102"
           height="55"
           id="rect11" />
        <rect
           class="cls-1"
           x="793.09998"
           y="600.09998"
           width="50"
           height="80.900002"
           id="rect12" />
        <rect
           class="cls-1"
           x="809.09998"
           y="567"
           width="30.9"
           height="41.400002"
           id="rect13" />
        <rect
           class="cls-1"
           x="825.09998"
           y="409"
           width="6.5999999"
           height="129.10001"
           id="rect14" />
        <rect
           class="cls-1"
           x="818"
           y="409"
           width="28.200001"
           height="79"
           id="rect15" />
        <rect
           class="cls-1"
           x="787.5"
           y="442"
           width="50.700001"
           height="46"
           id="rect16" />
        <rect
           class="cls-1"
           x="729"
           y="408"
           width="48"
           height="112"
           id="rect17" />
        <rect
           class="cls-1"
           x="624"
           y="463.89999"
           width="64"
           height="37.099998"
           id="rect18" />
        <rect
           class="cls-1"
           x="600"
           y="340"
           width="66.099998"
           height="136"
           id="rect19" />
        <rect
           class="cls-1"
           x="661.09998"
           y="340"
           width="17"
           height="31"
           id="rect20" />
        <rect
           class="cls-1"
           x="662.70001"
           y="436"
           width="83.400002"
           height="33"
           id="rect21" />
        <rect
           class="cls-1"
           x="761"
           y="217.60001"
           width="32"
           height="280.5"
           id="rect22" />
        <rect
           class="cls-1"
           x="866"
           y="160"
           width="23"
           height="173.2"
           id="rect23" />
        <rect
           class="cls-1"
           x="792.09998"
           y="240"
           width="139.8"
           height="96"
           id="rect24" />
        <rect
           class="cls-1"
           x="882.90002"
           y="196"
           width="64.199997"
           height="33"
           id="rect25" />
        <rect
           class="cls-1"
           x="911"
           y="216.5"
           width="32"
           height="137.3"
           id="rect26" />
        <rect
           class="cls-1"
           x="882.90002"
           y="221.60001"
           width="41.5"
           height="25"
           id="rect27" />
        <rect
           class="cls-1"
           x="928.09998"
           y="349.10001"
           width="19"
           height="31"
           id="rect28" />
        <rect
           class="cls-1"
           x="774.40002"
           y="181.60001"
           width="22.6"
           height="64.199997"
           id="rect29" />
        <rect
           class="cls-1"
           x="765.29999"
           y="160"
           width="111.2"
           height="25"
           id="rect30" />
        <rect
           class="cls-1"
           x="758"
           y="145"
           width="38"
           height="104.4"
           id="rect31" />
        <rect
           class="cls-1"
           x="740.09998"
           y="190"
           width="34.400002"
           height="178"
           id="rect32" />
        <rect
           class="cls-1"
           x="714.09998"
           y="233"
           width="46.599998"
           height="135"
           id="rect33" />
        <rect
           class="cls-1"
           x="701.09998"
           y="233"
           width="23.700001"
           height="35"
           id="rect34" />
        <rect
           class="cls-1"
           x="686.79999"
           y="244"
           width="24.6"
           height="24"
           id="rect35" />
        <rect
           class="cls-1"
           x="609"
           y="187"
           width="89"
           height="97.199997"
           id="rect36" />
        <rect
           class="cls-1"
           x="609"
           y="262.60001"
           width="48.099998"
           height="73.400002"
           id="rect37" />
        <rect
           class="cls-1"
           x="629.29999"
           y="319.39999"
           width="32.799999"
           height="30.4"
           id="rect38" />
        <rect
           class="cls-1"
           x="537.09998"
           y="308"
           width="94.699997"
           height="28"
           id="rect39" />
        <rect
           class="cls-1"
           x="537.09998"
           y="329.79999"
           width="37"
           height="62.299999"
           id="rect40" />
        <rect
           class="cls-1"
           x="453"
           y="365"
           width="93.300003"
           height="27"
           id="rect41" />
        <rect
           class="cls-1"
           x="453"
           y="336"
           width="67"
           height="48.200001"
           id="rect42" />
        <rect
           class="cls-1"
           x="433.10001"
           y="336"
           width="24"
           height="25"
           id="rect43" />
        <rect
           class="cls-1"
           x="409"
           y="396"
           width="70"
           height="225.2"
           id="rect44" />
        <rect
           class="cls-1"
           x="457"
           y="377.79999"
           width="20"
           height="37.299999"
           id="rect45" />
        <rect
           class="cls-1"
           x="476.20001"
           y="407"
           width="11.9"
           height="96"
           id="rect46" />
        <rect
           class="cls-1"
           x="472.5"
           y="485.39999"
           width="11.5"
           height="154.60001"
           id="rect47" />
        <rect
           class="cls-1"
           x="389.10001"
           y="504"
           width="35.400002"
           height="136"
           id="rect48" />
        <rect
           class="cls-1"
           x="401"
           y="612.40002"
           width="77.300003"
           height="27.6"
           id="rect49" />
        <rect
           class="cls-1"
           x="355"
           y="584"
           width="36.5"
           height="32"
           id="rect50" />
        <rect
           class="cls-1"
           x="328"
           y="553"
           width="53"
           height="96"
           id="rect51" />
        <rect
           class="cls-1"
           x="249"
           y="553"
           width="48"
           height="63"
           id="rect52" />
        <rect
           class="cls-1"
           x="249"
           y="604.79999"
           width="48"
           height="59.299999"
           id="rect53" />
        <rect
           class="cls-1"
           x="227.2"
           y="636"
           width="29.1"
           height="28"
           id="rect54" />
        <rect
           class="cls-1"
           x="137"
           y="552"
           width="96"
           height="200"
           id="rect55" />
        <rect
           class="cls-1"
           x="220.10001"
           y="736"
           width="140"
           height="42"
           id="rect56" />
        <rect
           class="cls-1"
           x="225.10001"
           y="689"
           width="57.900002"
           height="54.400002"
           id="rect57" />
        <rect
           class="cls-1"
           x="328"
           y="736"
           width="204.8"
           height="34"
           id="rect58" />
        <rect
           class="cls-1"
           x="378"
           y="758.40002"
           width="96.300003"
           height="51"
           id="rect59" />
        <rect
           class="cls-1"
           x="713"
           y="81"
           width="120"
           height="55"
           id="rect60" />
        <rect
           class="cls-1"
           x="642.09998"
           y="81"
           width="95.300003"
           height="34"
           id="rect61" />
        <rect
           class="cls-1"
           x="642"
           y="104.5"
           width="63"
           height="63.599998"
           id="rect62" />
        <rect
           class="cls-1"
           x="573"
           y="187"
           width="64.199997"
           height="65"
           id="rect63" />
        <rect
           class="cls-1"
           x="512.09998"
           y="136"
           width="168.3"
           height="32"
           id="rect64" />
        <rect
           class="cls-1"
           x="573"
           y="154.89999"
           width="24"
           height="33.200001"
           id="rect65" />
        <rect
           class="cls-1"
           x="417.10001"
           y="1"
           width="78"
           height="166.89999"
           id="rect66" />
        <rect
           class="cls-1"
           x="486.20001"
           y="136.2"
           width="47.299999"
           height="31.799999"
           id="rect67" />
        <rect
           class="cls-1"
           x="417.10001"
           y="150"
           width="52"
           height="94"
           id="rect68" />
        <rect
           class="cls-1"
           x="241.10001"
           y="194"
           width="183.5"
           height="38"
           id="rect69" />
        <rect
           class="cls-1"
           x="353"
           y="209.7"
           width="29"
           height="94.300003"
           id="rect70" />
        <rect
           class="cls-1"
           x="297.10001"
           y="284"
           width="73.099998"
           height="20"
           id="rect71" />
        <rect
           class="cls-1"
           x="297"
           y="292.79999"
           width="32"
           height="99.199997"
           id="rect72" />
        <rect
           class="cls-1"
           x="241.10001"
           y="141"
           width="40"
           height="76.800003"
           id="rect73" />
        <rect
           class="cls-1"
           x="150.10001"
           y="141"
           width="111"
           height="31"
           id="rect74" />
        <rect
           class="cls-1"
           x="150.10001"
           y="159.8"
           width="59"
           height="28.299999"
           id="rect75" />
        <rect
           class="cls-1"
           x="157"
           y="170.3"
           width="28"
           height="85.800003"
           id="rect76" />
        <rect
           class="cls-1"
           x="157"
           y="240"
           width="73"
           height="139.60001"
           id="rect77" />
        <rect
           class="cls-1"
           x="201"
           y="332"
           width="64"
           height="90"
           id="rect78" />
        <rect
           class="cls-1"
           x="259.10001"
           y="332"
           width="50.400002"
           height="54"
           id="rect79" />
        <rect
           class="cls-1"
           x="269.10001"
           y="348.5"
           width="25"
           height="139.5"
           id="rect80" />
        <rect
           class="cls-1"
           x="283.10001"
           y="378"
           width="45.900002"
           height="71.099998"
           id="rect81" />
        <rect
           class="cls-1"
           x="318.89999"
           y="438.79999"
           width="7.9000001"
           height="11"
           id="rect82" />
        <rect
           class="cls-1"
           x="310"
           y="420"
           width="63.299999"
           height="32"
           id="rect83" />
        <rect
           class="cls-1"
           x="345"
           y="388"
           width="55"
           height="64"
           id="rect84" />
        <rect
           class="cls-1"
           x="356.5"
           y="420"
           width="73.300003"
           height="32"
           id="rect85" />
        <rect
           class="cls-1"
           x="1.1"
           y="345"
           width="205.3"
           height="55"
           id="rect86" />
        <rect
           class="cls-1"
           x="1.1"
           y="181"
           width="63"
           height="184.10001"
           id="rect87" />
        <rect
           class="cls-1"
           x="48"
           y="240"
           width="32.099998"
           height="105"
           id="rect88" />
        <rect
           class="cls-1"
           x="32.5"
           y="240"
           width="170.8"
           height="68"
           id="rect89" />
        <rect
           class="cls-1"
           x="34.099998"
           y="464"
           width="71"
           height="104"
           id="rect90" />
        <rect
           class="cls-1"
           x="34"
           y="390.5"
           width="46"
           height="104.4"
           id="rect91" />
        <rect
           class="cls-1"
           x="89.199997"
           y="464"
           width="108.8"
           height="72"
           id="rect92" />
        <rect
           class="cls-1"
           x="162.10001"
           y="496"
           width="31"
           height="61.799999"
           id="rect93" />
        <rect
           class="cls-1"
           x="793.09998"
           y="559"
           width="23.700001"
           height="18"
           id="rect94" />
        <rect
           class="cls-1"
           x="741"
           y="552"
           width="63"
           height="32"
           id="rect95" />
        <rect
           class="cls-1"
           x="741"
           y="568"
           width="32"
           height="64"
           id="rect96" />
        <rect
           class="cls-1"
           x="569"
           y="599.09998"
           width="188"
           height="33"
           id="rect97" />
        <rect
           class="cls-1"
           x="569.09998"
           y="538"
           width="24"
           height="78.199997"
           id="rect98" />
        <rect
           class="cls-1"
           x="418.10001"
           y="552.09998"
           width="160.39999"
           height="32"
           id="rect99" />
        <polygon
           class="cls-1"
           points="418.1,886 403.1,888 397.1,888 397.1,884.9 400.1,872.6 465.7,866.5 471.2,888 471.2,891 461.1,891 436,886 "
           id="polygon99" />
        <path
           class="cls-1"
           d="m 329,452 -35,36 h -8.8 l 6.1,-50.4 c 0,0 32.6,3 33.2,3 0.6,0 14.4,5.9 14.4,5.9 v 5.5 z"
           id="path99" />
        <polygon
           class="cls-1"
           points="470.2,380.2 469.5,354.9 433.1,356.8 433.1,361 453,380.2 "
           id="polygon100" />
        <rect
           class="cls-1"
           x="423"
           y="18.700001"
           width="64.099998"
           height="151.3"
           id="rect100" />
        <polygon
           class="cls-1"
           points="487,168 465,167.9 466.1,190.3 469,193.7 469,191.1 487,170 "
           id="polygon101" />
        <rect
           class="cls-1"
           x="765"
           y="118.1"
           width="25.1"
           height="47.700001"
           id="rect101" />
        <polygon
           class="cls-1"
           points="747,202.8 759.7,198.1 765.6,186 764.1,176.7 758,177.2 747,190 "
           id="polygon102" />
        <polygon
           class="cls-1"
           points="880.7,302.5 943,314.9 941.1,380 928.1,380 866,336 "
           id="polygon103" />
        <path
           class="cls-1"
           d="m 702.1,268 12,24.1 6.3,0.3 -0.5,-33.5 c 0,0 -19,3.2 -18.9,3.4 0.1,0.2 1.1,5.6 1.1,5.6 v 0 z"
           id="path103" />
        <polygon
           class="cls-1"
           points="649.1,335.5 651.4,277.1 689,277.8 688,284.2 662,333.6 "
           id="polygon104" />
        <path
           class="cls-1"
           d="m 678,371 -11.9,23 -9,-0.4 c 0,0 -1.7,-28.9 -1.3,-28.9 0.4,0 17.7,-1.5 17.7,-1.5 l 4.5,4 z"
           id="path104" />
        <path
           class="cls-1"
           d="m 624.1,501 -24,-25 c 0,0 4.9,-8.8 5.3,-8.8 0.4,0 30.5,-3.4 30.7,-2.6 0.2,0.8 -5.4,36.4 -5.4,36.4 z"
           id="path105" />
        <polygon
           class="cls-1"
           points="804.2,480.3 761,487 768.4,520 777,520 809,488 "
           id="polygon105" />
        <rect
           class="cls-1"
           x="295.29999"
           y="568"
           width="5.8000002"
           height="48"
           id="rect105" />
        <rect
           class="cls-1"
           x="299"
           y="553"
           width="37.5"
           height="63"
           id="rect106" />
        <rect
           class="cls-1"
           x="729"
           y="400"
           width="37.900002"
           height="21.4"
           id="rect107" />
        <rect
           class="cls-1"
           x="859.29999"
           y="409"
           width="20.700001"
           height="140.3"
           id="rect108" />
        <polygon
           class="cls-1"
           points="204.5,422 203.8,394.2 167.6,395 168.9,400 171.1,400 193.1,422 "
           id="polygon108" />
      </g>
      <g
         id="Body_merge">
        <path
           class="cls-2"
           d="M 943,349 V 229 h 4 v -33 h -58 v -36 h -93 v -15 h -6 v -9 h 42.9 V 81 h -191 v 55 h -130 v 0.2 h -17 V 1 h -78 v 193 h -136 v -53 h -131 v 47 h 7 v 52 h -93 V 181 H 1 v 219 h 33 v 168 h 71 v -32 h 57 v 16 h -25 v 200 h 83 v 26 h 140 v -8 h 18 v 14 h -4 v 100.9 h 23 v 3.1 h 6 l 15,-2 h 18 l 25,5 h 42 V 773 H 673 V 697 H 864 V 591 h 47 V 536 H 880 V 409 h -62 v 33 H 793 V 336 h 73 l 62,44 h 19 V 349 Z M 729,436 H 666.1 V 394 L 678,371 v -31 h -16 v -6.4 l 26,-49.4 h 10 V 268 h 4 l 12,24.1 V 368 h 47 v 32 H 729 Z M 680.3,168 H 705 v -53 h 8 v 21 h 52 v 9 h -7 v 32.1 L 747,190 h -6.9 v 43 h -39 v 11 h -3 v -57 h -101 v -19 h 83.3 v 0 z M 469,244 v -52.9 l 18,-21 v -2 h 86 v 84 h 36 v 56 h -72 v 57 h -17 v -29 h -86.9 v 25 l 19.9,19.2 v 11.8 h 4 v 4 h -48 v 24 h -9 v -32 h -55 v 32 h -16 v -116 h 53 v -72.2 h 35 V 244 Z M 209,188.1 v -16 h 32 V 232 h 112 v 52.1 h -56 v 48 h -67 v -92 h -45 v -52 z m -52,120 v 37 H 80 v -37 z m 36,228 h 5 v -72 H 80 v -64 h 91 l 22,22 h 72 v -36 h 4 v 102 h 25 l 35,-36 h 80 v 52 h -20 v 80 h -8 v -31 h -82 v 15 h -2 v -15 h -48 v 63 0 20 h -16 v -84 h -40 z m 475,111 h -69.9 v 85 h -95 v -23 h -20 v 27 h -200 v -47 h -50 v -25 h 64 v -48 h 31 v 33 h 53 v -33 h 8 v 24 h 95 v -56 h 85 v 48 h 204 v -48 h 31 v -7 h 5 v 23 h -16 v 47 H 667.9 Z m 150.1,-159 h 7 v 48 h -16 v 23 h -5 v -7 h -63 v 47 h -148 v -61 h -24 v 14 h -85 v -49 h 4 v -96 h -9 v -11 h -1.9 v -4 h 96.9 v -56 h 55.2 v 4 h -29.2 v 136 l 24,25 h 64 v -32 h 41 v 51 h 48 l 31.9,-32 z m -21,-248 v -55 h 69 v 55 z"
           id="path108" />
      </g>
      <g
         id="Bombsite">
        <polygon
           class="cls-5"
           points="216.1,293.6 216.1,239.8 130.1,239.8 97.1,239.8 81,239.8 81,261 97.1,261 97.1,308.5 157.1,308.5 157.1,321 216.1,321 216.1,308.5 "
           id="polygon109" />
        <polygon
           class="cls-5"
           points="943.2,336.7 943.2,332.7 943.2,262 943.2,239.8 943.2,229.3 947.2,229.3 947.2,195.9 890.1,195.9 890.1,195 865.7,195 865.7,195.9 865.7,200.3 865.7,225.6 865.7,229.3 865.7,239.8 839.1,239.8 839.1,336.7 859.7,336.7 865.6,336.7 926.5,380 947.1,380 947.1,348.6 943.2,348.6 "
           id="polygon110" />
        <rect
           class="cls-3"
           x="886.5"
           y="273.39999"
           width="14.2"
           height="30.1"
           id="rect110" />
        <rect
           class="cls-3"
           x="849.5"
           y="239.5"
           width="16"
           height="16"
           id="rect111" />
        <rect
           class="cls-3"
           x="201.39999"
           y="273.5"
           width="15.2"
           height="14.1"
           id="rect112" />
        <rect
           class="cls-3"
           x="113.4"
           y="292.5"
           width="15.2"
           height="16"
           id="rect113" />
      </g>
      <g
         id="Lines">
        <path
           class="cls-4"
           d="m 624,253.1 v 14 h -14 v -14 h 14 m 1,-1 h -16 v 16 h 16 z"
           id="path113" />
        <path
           class="cls-4"
           d="m 623,268 v 8 h -13 v -8 h 13 m 1,-1 h -15 v 10 h 15 z"
           id="path114" />
        <path
           class="cls-4"
           d="m 620,393 v 14 h -20 v -14 h 20 m 1,-1 h -22 v 16 h 22 z"
           id="path115" />
        <path
           class="cls-4"
           d="m 608,385 v 6.1 h -8 v -6 h 8 m 1,-1 h -10 v 8 h 10 z"
           id="path116" />
        <path
           class="cls-4"
           d="m 744.1,297 v 14 h -15 v -14 h 15 m 1,-1 h -17 v 16 h 17 z"
           id="path117" />
        <path
           class="cls-4"
           d="m 865.1,240 v 15 h -15 v -15 h 15 m 1,-1 h -17 v 17 h 17 z"
           id="path118" />
        <path
           class="cls-4"
           d="m 900.1,274 v 29 h -13 v -29 h 13 m 1,-1 h -15 v 31 h 15 z"
           id="path119" />
        <path
           class="cls-4"
           d="M 744.1,400.1 V 431 h -15 v -30.9 h 15 m 1,-1 h -17 V 432 h 17 z"
           id="path120" />
        <path
           class="cls-4"
           d="m 864.1,592 v 24 h -14 v -24 h 14 m 1,-1 h -16 v 26 h 16 z"
           id="path121" />
        <path
           class="cls-4"
           d="m 864.1,592 v 15 h -14 v -15 h 14 m 1,-1 h -16 v 17 h 16 z"
           id="path122" />
        <path
           class="cls-4"
           d="m 864.1,634 v 35 h -7 v -35 h 7 m 1,-1 h -9 v 37 h 9 z"
           id="path123" />
        <path
           class="cls-4"
           d="m 864.1,688 v 8 h -14 v -8 h 14 m 1,-1 h -16 v 10 h 16 z"
           id="path124" />
        <path
           class="cls-4"
           d="m 648,647 v 16 h -30 v -16 h 30 m 1,-1 h -32 v 18 h 32 z"
           id="path125" />
        <path
           class="cls-4"
           d="m 633,647 v 16 h -15 v -16 h 15 m 1,-1 h -17 v 18 h 17 z"
           id="path126" />
        <path
           class="cls-4"
           d="m 233.1,673 v 15 h -16 v -15 h 16 m 1,-1 h -18 v 17 h 18 z"
           id="path127" />
        <path
           class="cls-4"
           d="m 219,738 v 14 h -20 v -14 h 20 m 1,-1 h -22 v 16 h 22 z"
           id="path128" />
        <path
           class="cls-4"
           d="m 166,736.1 v 1.9 h 0.9 l 31.1,3.3 v 10.8 h -61 v -16 h 29 m 1,-1 h -31 v 18 h 63 V 740.3 L 167,737 v -2 0 z"
           id="path129" />
        <path
           class="cls-4"
           d="m 161.1,552 v 56 H 137 v -56 h 24.1 m 1,-1 H 136 v 58 h 26.1 z"
           id="path130" />
        <path
           class="cls-4"
           d="m 168,600 v 8 h -5 v -8 h 5 m 1,-1 h -7 v 10 h 7 z"
           id="path131" />
        <path
           class="cls-4"
           d="m 573.1,367 v 6.1 h -8 V 367 h 8 m 1,-1 h -10 v 8.1 h 10 z"
           id="path132" />
        <path
           class="cls-4"
           d="m 573.1,375 v 16 h -9 v -16 h 9 m 1,-1 h -11 v 18 h 11 z"
           id="path133" />
        <path
           class="cls-4"
           d="m 487.1,453 v 14 h -15 v -14 h 15 m 1,-1 h -17 v 16 h 17 z"
           id="path134" />
        <path
           class="cls-4"
           d="m 484.1,538 v 13 h -30 v -13 h 30 m 1,-1 h -32 v 15 h 32 z"
           id="path135" />
        <path
           class="cls-4"
           d="m 404.1,624.7 v 15.4 h -14.2 v -15.4 h 14.2 m 1,-1 h -16.2 v 17.4 h 16.2 z"
           id="path136" />
        <path
           class="cls-4"
           d="m 408.5,634.4 c 1.3,0 2.3,1 2.3,2.3 0,1.3 -1,2.3 -2.3,2.3 -1.3,0 -2.3,-1 -2.3,-2.3 v 0 c 0,-1.3 1,-2.3 2.3,-2.3 m 0,-1 c -1.8,0 -3.3,1.5 -3.3,3.3 0,1.8 1.5,3.3 3.3,3.3 1.8,0 3.3,-1.5 3.3,-3.3 v 0 c 0,-1.8 -1.5,-3.3 -3.3,-3.3 z"
           id="path137" />
        <path
           class="cls-4"
           d="m 380.1,553 v 14 h -14 v -14 h 14 m 1,-1 h -16 v 16 h 16 z"
           id="path138" />
        <path
           class="cls-4"
           d="m 257,553 v 82.1 h -8 V 553 h 8 m 1,-1 h -10 v 84.1 h 10 z"
           id="path139" />
        <path
           class="cls-4"
           d="m 153,464 v 16 h -15 v -16 h 15 m 1,-1 h -17 v 18 h 17 z"
           id="path140" />
        <path
           class="cls-4"
           d="m 158.8,465.1 c 2.1,0 3.8,1.7 3.8,3.8 0,2.1 -1.7,3.8 -3.8,3.8 -2.1,0 -3.8,-1.7 -3.8,-3.8 v 0 c 0,-2.1 1.7,-3.8 3.8,-3.8 m 0,-1 c -2.7,0 -4.8,2.1 -4.8,4.8 0,2.7 2.1,4.8 4.8,4.8 2.7,0 4.8,-2.1 4.8,-4.8 v 0 c 0,-2.7 -2.1,-4.8 -4.8,-4.8 z"
           id="path141" />
        <path
           class="cls-4"
           d="m 71,565 v 3 H 50 v -3 h 21 m 1,-1 H 49 v 5 h 23 z"
           id="path142" />
        <path
           class="cls-4"
           d="m 49.1,553 v 15 h -15 v -15 h 15 m 1,-1 h -17 v 17 h 17 z"
           id="path143" />
        <path
           class="cls-4"
           d="m 36.5,548.2 c 0.8,0 1.4,0.6 1.4,1.4 0,0.8 -0.6,1.4 -1.4,1.4 -0.8,0 -1.4,-0.6 -1.4,-1.4 v 0 c 0,-0.8 0.6,-1.4 1.4,-1.4 m 0,-1 c -1.3,0 -2.4,1.1 -2.4,2.4 0,1.3 1.1,2.4 2.4,2.4 1.3,0 2.4,-1.1 2.4,-2.4 0,-1.3 0,0 0,0 0,-1.3 -1.1,-2.4 -2.4,-2.4 z"
           id="path144" />
        <path
           class="cls-4"
           d="m 48,449 v 15 H 34 v -15 h 14 m 1,-1 H 33 v 17 h 16 z"
           id="path145" />
        <path
           class="cls-4"
           d="m 33,385 v 15 H 18.1 V 385 H 33 m 1.1,-1 H 17.2 v 17 h 16.9 z"
           id="path146" />
        <path
           class="cls-4"
           d="m 17,364 v 36 H 1 v -36 h 16 m 1,-1 H 0 v 38 h 18 z"
           id="path147" />
        <path
           class="cls-4"
           d="m 17,364 v 20 H 1 v -20 h 16 m 1,-1 H 0 v 22 h 18 z"
           id="path148" />
        <path
           class="cls-4"
           d="m 41,280 v 16 H 1 v -16 h 40 m 1,-1 H 0 v 18 h 42 z"
           id="path149" />
        <path
           class="cls-4"
           d="m 64,181 v 14 H 49 v -14 h 15 m 1,-1 H 48 v 16 h 17 z"
           id="path150" />
        <path
           class="cls-4"
           d="m 64,196 v 8 h -8 v -8 h 8 m 1,-1 H 55 v 10 h 10 z"
           id="path151" />
        <path
           class="cls-4"
           d="m 128,293 v 15 h -14 v -15 h 14 m 1,-1 h -16 v 17 h 16 z"
           id="path152" />
        <path
           class="cls-4"
           d="m 156,345 v 15 H 141.1 V 345 H 156 m 1,-1 h -16.9 v 17 H 157 Z"
           id="path153" />
        <path
           class="cls-4"
           d="m 216.1,274 v 13 h -14 v -13 h 14 m 1,-1 h -16 v 15 h 16 z"
           id="path154" />
        <path
           class="cls-4"
           d="m 256,217 v 14 h -14 v -14 h 14 m 1,-1 h -16 v 16 h 16 z"
           id="path155" />
        <path
           class="cls-4"
           d="m 329.1,376 v 14.9 h -15 V 376 h 15 m 1,-1 h -17 v 16.9 h 17 z"
           id="path156" />
        <polygon
           class="cls-4"
           points="728,232.3 728,311 713.4,311 713.4,312 728,312 729,312 730.4,312 730.4,311 729,311 729,232.3 "
           id="polygon156" />
        <rect
           class="cls-4"
           x="665"
           y="469"
           width="23.4"
           height="1"
           id="rect156" />
        <rect
           class="cls-4"
           x="574"
           y="307.5"
           width="1"
           height="28.799999"
           id="rect157" />
        <rect
           class="cls-4"
           x="536"
           y="364.70001"
           width="1"
           height="27.6"
           id="rect158" />
        <polygon
           class="cls-4"
           points="488.1,503 455,503 455,452 454,452 454,504 455,504 488.1,504 "
           id="polygon158" />
        <rect
           class="cls-4"
           x="773"
           y="551.29999"
           width="1"
           height="33.700001"
           id="rect159" />
        <polygon
           class="cls-4"
           points="232.5,361 233,361 233,349 265.1,349 265.1,387.2 266.1,387.2 266.1,349 266.1,348.5 266.1,348 232.1,348 232.1,348.5 232.1,349 232.1,360 217.1,360 217.1,239.2 216.1,239.2 216.1,360 216.1,361 217.1,361 229,361 229,400 170.4,400 170.4,401 229,401 229.4,401 230,401 230,361 232.1,361 "
           id="polygon159" />
        <path
           class="cls-4"
           d="m 484.1,504 v 7 h -7 v -7 h 7 m 1,-1 h -9 v 9 h 9 z"
           id="path159" />
        <rect
           class="cls-4"
           x="865"
           y="408.39999"
           width="1"
           height="127.6"
           id="rect160" />
      </g>
      <g
         id="Outlines">
        <path
           class="cls-4"
           d="m 495.1,1 v 135.2 h 17 V 136 h 130 V 81 h 191 v 55 h -43 v 9 h 6 v 15 h 93 v 36 h 58 v 33 h -4 v 120 h 4 v 31 h -19 l -62,-44 h -73 v 106 h 25 v -33 h 62 v 127 h 31 v 55 h -47 v 106 h -191 v 76 h -170 v 118 h -42 l -25,-5 h -18 l -15,2 h -6 v -3.1 h -23 V 784 h 4 v -14 h -18 v 8 h -140 v -26 h -83 V 552 h 25 v -16 h -57 v 32 H 34 V 400 H 1 V 181 h 63 v 59 h 93 v -52 h -7 v -47 h 131 v 53 H 417 V 1 h 78 m 102,186 h 101 v 57 h 3 v -11 h 39 v -43 h 6.9 l 11,-12.9 v -32.2 h 7 v -9 h -52 v -21 h -8 v 53 h -108 v 19 M 417,244 V 231.9 H 382 V 304 h -53 v 116 h 16 v -32 h 55 v 32 h 9 v -24 h 48 v -4 h -4 V 380.2 L 433.1,361 V 336 H 520 v 29 h 17 v -57 h 72 v -56 h -36 v -84 h -86 v 2 l -18,21 v 53 h -52 m -232,-4 h 45 v 92 h 67 v -48 h 56 V 231.9 H 241 V 172 h -32 v 16 h -24 v 52 m 612,0 h 69 v -55 h -69 v 55 M 662,340 h 16 v 31 l -11.9,23 v 42 h 63 v -36 h 32 v -32 h -47 v -75.9 l -12,-24.1 h -4 v 16.2 h -10 l -26,49.4 V 340 M 80,345 h 77 V 308 H 80 v 37 m 397,51 h 1.9 v 11 h 9 v 96 h -4 v 49 h 85 v -14 h 24 v 61 h 148 v -47 h 63 v 7 h 5 v -23 h 16 v -48 h -16.1 l -32,32 h -48 v -51 h -41 v 32 h -64 l -24,-25 V 340 H 629 v -4 h -55.1 v 56 H 477 v 4 m -283.9,26 -22,-22 h -91 v 64 h 118 v 72 h -5 v 16 h 40 v 84 h 16 v -20 0 -63 h 48 v 15 h 2 v -15 h 82 v 31 h 8 v -80 h 20 v -52 h -80 l -35,36 h -25 V 386 h -4 v 36 h -72 m 376,210 v -48 h -85 v 56 h -95 v -24 h -8 v 33 h -53 v -33 h -31 v 48 h -64 v 25 h 50 v 47 h 200 v -27 h 20 v 23 h 95 v -85 h 195 v -46.9 h 16 V 577 h -5 v 7 h -31 v 48 h -204 M 496.1,0 H 416 V 193 H 282.1 V 140 H 149 v 49.1 h 7 V 239 H 65.1 V 180 H 0 v 221.1 h 33 v 168 h 73.1 v -32 h 55 V 551 h -25 v 202.1 h 83 v 26 h 142.1 v -8 h 15.9 V 783 h -4 v 103 h 23 v 3 h 7.2 l 14.9,-2 H 436 l 24.9,5 h 43.2 V 774.1 h 170 v -76 h 191 v -106 h 47 V 535 h -31 V 408 H 817 v 33 H 794.1 V 337.1 h 71.6 l 61.8,43.8 0.3,0.2 h 20.3 V 348 h -4 V 230.1 h 4 V 195 h -58 v -36 h -93 v -15 h -6 v -6.9 H 834 V 80 H 641 v 55 H 511 v 0.2 h -14.9 z m 210,116.1 h 5.9 v 21 h 52 v 6.9 h -7 v 32.8 L 746.5,189 H 739 v 43 h -39 v 11 h -1 V 186 H 598 v -16.9 h 108 v -53 0 z m -218,53 H 572 v 84 h 36 V 307 h -72 v 57 h -14.9 v -29 h -89 v 26.5 l 0.3,0.3 19.6,18.9 v 12.4 h 4 v 1.9 h -48 v 24 h -6.9 V 387 H 344 v 32 H 330.1 V 305.1 h 53 V 233 H 416 v 12.1 h 54.1 v -53.7 l 17.8,-20.7 0.2,-0.3 z m -278,4 H 240 V 233 h 112 v 50 h -56 v 48 h -64.9 v -92 h -45 v -49.9 h 24 z m 588,13 H 865 V 239 h -66.9 z m -99,83 h 2.3 l 11.6,23.4 v 76.6 h 47 V 399 h -32 v 36 H 667.2 V 394.3 L 679,371.5 v -0.2 c 0,0 0,-32.3 0,-32.3 h -16 v -5.1 l 25.6,-48.6 H 699 v -16.2 0 z m -618,40 H 156 V 344 H 81.1 Z m 494,28 h 53.1 V 339 H 599 v 137.4 l 0.3,0.3 24,25 0.3,0.3 h 65.5 V 470 H 728 v 51 h 49.5 l 0.3,-0.3 31.6,-31.7 H 824 v 45.9 h -16 v 23 h -2.9 v -7 H 740 v 47 H 594.2 v -61 h -26.1 v 14 H 485.2 V 504 h 4 v -98.1 h -9 v -11 h -1.9 V 393 h 96.9 v -56 0 z m -309,50 h 1.9 v 102 h 26.5 l 0.3,-0.3 34.7,-35.7 H 408 V 503 h -20 v 80 h -5.9 V 552 H 248 v 65.1 0 17.9 h -13.9 v -84 h -40 v -13.9 h 5 V 463 h -118 v -61.9 h 89.5 l 21.7,21.7 0.3,0.3 h 73.5 z m 539,191 h 2.9 v 21 h -16 v 47 H 597 v 85 h -92.9 v -23 H 482 v 27 H 284.1 v -47 h -50 v -23 h 64 v -48 H 327 v 33 h 55.1 v -33 h 5.9 v 24 h 97.1 v -56 H 568 v 48 h 206.1 v -48 h 31 z"
           id="path160" />
      </g>
      <g
         id="Callouts_copy">
        <path
           class="cls-4"
           d="m 167.99156,260.9 v 16 c 0.1,1.1 -0.7,2.1 -1.8,2.2 h -7.2 c -3.8,0 -6.2,-2 -6.2,-5.1 0,-3.1 1.6,-4.1 3.8,-4.4 v 0 c -2.7,-0.2 -4.8,-2.4 -4.8,-5.1 0,-2.7 2.7,-5.9 7.1,-5.9 h 6.9 c 1.1,0 2.1,0.7 2.1,1.8 v 0.4 0 z m -7.3,9.7 c -2.3,0 -3.6,1 -3.6,2.7 0,1.7 1.1,2.6 3.1,2.6 h 3.5 v -5.3 h -3.1 z m -0.6,-8.7 c -2.5,0 -3.8,1 -3.8,3 0,2 1.4,2.9 3.9,2.9 h 3.6 v -5.9 z"
           id="path265" />
        <path
           class="cls-4"
           d="m 898,218.27156 c 1.1,0 1.8,0.6 2.2,1.9 l 1.1,3.2 h 7.4 l 1.1,-3.2 c 0.4,-1.3 1,-1.9 2.2,-1.9 1.2,0 2.1,0.8 2.1,1.9 v 0 c 0,0.6 0,1 -0.3,1.5 l -5.6,15.2 c -0.5,1.8 -2.4,2.8 -4.2,2.3 -1.1,-0.3 -1.9,-1.2 -2.3,-2.3 l -5.6,-15.2 c -0.2,-0.4 -0.3,-0.9 -0.3,-1.4 0,-1.1 0.9,-2 2,-2 z m 4.2,8.4 2.6,8.4 v 0 l 2.7,-8.4 h -5.4 z"
           id="path266" />
      </g>
    </g>
  </g>
</svg>
