<?xml version="1.0" encoding="UTF-8"?>
<svg xmlns="http://www.w3.org/2000/svg" version="1.1" viewBox="0 0 948.1 892.1">
  <defs>
    <style>
      .cls-1 {
        fill: #003455;
      }

      .cls-2 {
        fill: #3d3d3d;
      }

      .cls-3 {
        fill: #7e7f7e;
      }

      .cls-4 {
        fill: #fff;
      }

      .cls-5 {
        fill: #535353;
      }
    </style>
  </defs>
  <!-- Generator: Adobe Illustrator 28.6.0, SVG Export Plug-In . SVG Version: 1.2.0 Build 709)  -->
  <g>
    <g id="Layer_1">
      <g id="Body">
        <rect class="cls-1" x="461.1" y="762.8" width="42" height="128.2"/>
        <rect class="cls-1" x="374.1" y="835.7" width="41.3" height="49.2"/>
        <rect class="cls-1" x="397.1" y="873.5" width="6" height="14.5"/>
        <rect class="cls-1" x="410.3" y="740.2" width="29.9" height="145.8"/>
        <rect class="cls-1" x="374.1" y="784.1" width="111.3" height="89.4"/>
        <rect class="cls-1" x="483" y="709" width="20" height="64.3"/>
        <rect class="cls-1" x="490.2" y="732" width="182.8" height="41"/>
        <rect class="cls-1" x="598.1" y="647" width="75" height="87.7"/>
        <rect class="cls-1" x="667.9" y="647" width="196.1" height="50"/>
        <rect class="cls-1" x="829.5" y="409" width="34.6" height="260"/>
        <rect class="cls-1" x="809.1" y="536" width="102" height="55"/>
        <rect class="cls-1" x="793.1" y="600.1" width="50" height="80.9"/>
        <rect class="cls-1" x="809.1" y="567" width="30.9" height="41.4"/>
        <rect class="cls-1" x="825.1" y="409" width="6.6" height="129.1"/>
        <rect class="cls-1" x="818" y="409" width="28.2" height="79"/>
        <rect class="cls-1" x="787.5" y="442" width="50.7" height="46"/>
        <rect class="cls-1" x="729" y="408" width="48" height="112"/>
        <rect class="cls-1" x="624" y="463.9" width="64" height="37.1"/>
        <rect class="cls-1" x="600" y="340" width="66.1" height="136"/>
        <rect class="cls-1" x="661.1" y="340" width="17" height="31"/>
        <rect class="cls-1" x="662.7" y="436" width="83.4" height="33"/>
        <rect class="cls-1" x="761" y="217.6" width="32" height="280.5"/>
        <rect class="cls-1" x="866" y="160" width="23" height="173.2"/>
        <rect class="cls-1" x="792.1" y="240" width="139.8" height="96"/>
        <rect class="cls-1" x="882.9" y="196" width="64.2" height="33"/>
        <rect class="cls-1" x="911" y="216.5" width="32" height="137.3"/>
        <rect class="cls-1" x="882.9" y="221.6" width="41.5" height="25"/>
        <rect class="cls-1" x="928.1" y="349.1" width="19" height="31"/>
        <rect class="cls-1" x="774.4" y="181.6" width="22.6" height="64.2"/>
        <rect class="cls-1" x="765.3" y="160" width="111.2" height="25"/>
        <rect class="cls-1" x="758" y="145" width="38" height="104.4"/>
        <rect class="cls-1" x="740.1" y="190" width="34.4" height="178"/>
        <rect class="cls-1" x="714.1" y="233" width="46.6" height="135"/>
        <rect class="cls-1" x="701.1" y="233" width="23.7" height="35"/>
        <rect class="cls-1" x="686.8" y="244" width="24.6" height="24"/>
        <rect class="cls-1" x="609" y="187" width="89" height="97.2"/>
        <rect class="cls-1" x="609" y="262.6" width="48.1" height="73.4"/>
        <rect class="cls-1" x="629.3" y="319.4" width="32.8" height="30.4"/>
        <rect class="cls-1" x="537.1" y="308" width="94.7" height="28"/>
        <rect class="cls-1" x="537.1" y="329.8" width="37" height="62.3"/>
        <rect class="cls-1" x="453" y="365" width="93.3" height="27"/>
        <rect class="cls-1" x="453" y="336" width="67" height="48.2"/>
        <rect class="cls-1" x="433.1" y="336" width="24" height="25"/>
        <rect class="cls-1" x="409" y="396" width="70" height="225.2"/>
        <rect class="cls-1" x="457" y="377.8" width="20" height="37.3"/>
        <rect class="cls-1" x="476.2" y="407" width="11.9" height="96"/>
        <rect class="cls-1" x="472.5" y="485.4" width="11.5" height="154.6"/>
        <rect class="cls-1" x="389.1" y="504" width="35.4" height="136"/>
        <rect class="cls-1" x="401" y="612.4" width="77.3" height="27.6"/>
        <rect class="cls-1" x="355" y="584" width="36.5" height="32"/>
        <rect class="cls-1" x="328" y="553" width="53" height="96"/>
        <rect class="cls-1" x="249" y="553" width="48" height="63"/>
        <rect class="cls-1" x="249" y="604.8" width="48" height="59.3"/>
        <rect class="cls-1" x="227.2" y="636" width="29.1" height="28"/>
        <rect class="cls-1" x="137" y="552" width="96" height="200"/>
        <rect class="cls-1" x="220.1" y="736" width="140" height="42"/>
        <rect class="cls-1" x="225.1" y="689" width="57.9" height="54.4"/>
        <rect class="cls-1" x="328" y="736" width="204.8" height="34"/>
        <rect class="cls-1" x="378" y="758.4" width="96.3" height="51"/>
        <rect class="cls-1" x="713" y="81" width="120" height="55"/>
        <rect class="cls-1" x="642.1" y="81" width="95.3" height="34"/>
        <rect class="cls-1" x="642" y="104.5" width="63" height="63.6"/>
        <rect class="cls-1" x="573" y="187" width="64.2" height="65"/>
        <rect class="cls-1" x="512.1" y="136" width="168.3" height="32"/>
        <rect class="cls-1" x="573" y="154.9" width="24" height="33.2"/>
        <rect class="cls-1" x="417.1" y="1" width="78" height="166.9"/>
        <rect class="cls-1" x="486.2" y="136.2" width="47.3" height="31.8"/>
        <rect class="cls-1" x="417.1" y="150" width="52" height="94"/>
        <rect class="cls-1" x="241.1" y="194" width="183.5" height="38"/>
        <rect class="cls-1" x="353" y="209.7" width="29" height="94.3"/>
        <rect class="cls-1" x="297.1" y="284" width="73.1" height="20"/>
        <rect class="cls-1" x="297" y="292.8" width="32" height="99.2"/>
        <rect class="cls-1" x="241.1" y="141" width="40" height="76.8"/>
        <rect class="cls-1" x="150.1" y="141" width="111" height="31"/>
        <rect class="cls-1" x="150.1" y="159.8" width="59" height="28.3"/>
        <rect class="cls-1" x="157" y="170.3" width="28" height="85.8"/>
        <rect class="cls-1" x="157" y="240" width="73" height="139.6"/>
        <rect class="cls-1" x="201" y="332" width="64" height="90"/>
        <rect class="cls-1" x="259.1" y="332" width="50.4" height="54"/>
        <rect class="cls-1" x="269.1" y="348.5" width="25" height="139.5"/>
        <rect class="cls-1" x="283.1" y="378" width="45.9" height="71.1"/>
        <rect class="cls-1" x="318.9" y="438.8" width="7.9" height="11"/>
        <rect class="cls-1" x="310" y="420" width="63.3" height="32"/>
        <rect class="cls-1" x="345" y="388" width="55" height="64"/>
        <rect class="cls-1" x="356.5" y="420" width="73.3" height="32"/>
        <rect class="cls-1" x="1.1" y="345" width="205.3" height="55"/>
        <rect class="cls-1" x="1.1" y="181" width="63" height="184.1"/>
        <rect class="cls-1" x="48" y="240" width="32.1" height="105"/>
        <rect class="cls-1" x="32.5" y="240" width="170.8" height="68"/>
        <rect class="cls-1" x="34.1" y="464" width="71" height="104"/>
        <rect class="cls-1" x="34" y="390.5" width="46" height="104.4"/>
        <rect class="cls-1" x="89.2" y="464" width="108.8" height="72"/>
        <rect class="cls-1" x="162.1" y="496" width="31" height="61.8"/>
        <rect class="cls-1" x="793.1" y="559" width="23.7" height="18"/>
        <rect class="cls-1" x="741" y="552" width="63" height="32"/>
        <rect class="cls-1" x="741" y="568" width="32" height="64"/>
        <rect class="cls-1" x="569" y="599.1" width="188" height="33"/>
        <rect class="cls-1" x="569.1" y="538" width="24" height="78.2"/>
        <rect class="cls-1" x="418.1" y="552.1" width="160.4" height="32"/>
        <polygon class="cls-1" points="461.1 891 436 886 418.1 886 403.1 888 397.1 888 397.1 884.9 400.1 872.6 465.7 866.5 471.2 888 471.2 891 461.1 891"/>
        <path class="cls-1" d="M329,452l-35,36h-8.8l6.1-50.4s32.6,3,33.2,3,14.4,5.9,14.4,5.9v5.5h-9.9Z"/>
        <polygon class="cls-1" points="433.1 361 453 380.2 470.2 380.2 469.5 354.9 433.1 356.8 433.1 361"/>
        <rect class="cls-1" x="423" y="18.7" width="64.1" height="151.3"/>
        <polygon class="cls-1" points="469 191.1 487 170 487 168 465 167.9 466.1 190.3 469 193.7 469 191.1"/>
        <rect class="cls-1" x="765" y="118.1" width="25.1" height="47.7"/>
        <polygon class="cls-1" points="758 177.2 747 190 747 202.8 759.7 198.1 765.6 186 764.1 176.7 758 177.2"/>
        <polygon class="cls-1" points="928.1 380 866 336 880.7 302.5 943 314.9 941.1 380 928.1 380"/>
        <path class="cls-1" d="M702.1,268l12,24.1,6.3.3-.5-33.5s-19,3.2-18.9,3.4,1.1,5.6,1.1,5.6h0Z"/>
        <polygon class="cls-1" points="688 284.2 662 333.6 649.1 335.5 651.4 277.1 689 277.8 688 284.2"/>
        <path class="cls-1" d="M678,371l-11.9,23-9-.4s-1.7-28.9-1.3-28.9,17.7-1.5,17.7-1.5l4.5,4v3.8Z"/>
        <path class="cls-1" d="M624.1,501l-24-25s4.9-8.8,5.3-8.8,30.5-3.4,30.7-2.6-5.4,36.4-5.4,36.4h-6.6Z"/>
        <polygon class="cls-1" points="777 520 809 488 804.2 480.3 761 487 768.4 520 777 520"/>
        <rect class="cls-1" x="295.3" y="568" width="5.8" height="48"/>
        <rect class="cls-1" x="299" y="553" width="37.5" height="63"/>
        <rect class="cls-1" x="729" y="400" width="37.9" height="21.4"/>
        <rect class="cls-1" x="859.3" y="409" width="20.7" height="140.3"/>
        <polygon class="cls-1" points="171.1 400 193.1 422 204.5 422 203.8 394.2 167.6 395 168.9 400 171.1 400"/>
      </g>
      <g id="Body_merge">
        <path class="cls-2" d="M943,349v-120h4v-33h-58v-36h-93v-15h-6v-9h42.9v-55h-191v55h-130v.2h-17V1h-78v193h-136v-53h-131v47h7v52H63.9v-59H1v219h33v168h71v-32h57v16h-25v200h83v26h140v-8h18v14h-4v100.9h23v3.1h6l15-2h18l25,5h42v-118h170v-76h191v-106h47v-55h-31v-127h-62v33h-25v-106h73l62,44h19v-31h-4ZM729,436h-62.9v-42l11.9-23v-31h-16v-6.4l26-49.4h10v-16.2h4l12,24.1v75.9h47v32h-32v36h0ZM680.3,168h24.7v-53h8v21h52v9h-7v32.1l-11,12.9h-6.9v43h-39v11h-3v-57h-101v-19h83.3,0ZM469,244v-52.9l18-21v-2h86v84h36v56h-72v57h-17v-29h-86.9v25l19.9,19.2v11.8h4v4h-48v24h-9v-32h-55v32h-16v-116h53v-72.2h35v12.1h52ZM209,188.1v-16h32v59.9h112v52.1h-56v48h-67v-92h-45v-52h24ZM157,308.1v37h-77v-37h77ZM193,536.1h5v-72h-118v-64h91l22,22h72v-36h4v102h25l35-36h80v52h-20v80h-8v-31h-82v15h-2v-15h-48v63h0v20h-16v-84h-40v-16ZM668,647.1h-69.9v85h-95v-23h-20v27h-200v-47h-50v-25h64v-48h31v33h53v-33h8v24h95v-56h85v48h204v-48h31v-7h5v23h-16v47h-125.2.1ZM818.1,488.1h7v48h-16v23h-5v-7h-63v47h-148v-61h-24v14h-85v-49h4v-96h-9v-11h-1.9v-4h96.9v-56h55.2v4h-29.2v136l24,25h64v-32h41v51h48l31.9-32h9.1ZM797.1,240.1v-55h69v55h-69Z"/>
      </g>
      <g id="Bombsite">
        <polygon class="cls-5" points="216.1 321 216.1 308.5 216.1 293.6 216.1 239.8 130.1 239.8 97.1 239.8 81 239.8 81 261 97.1 261 97.1 308.5 157.1 308.5 157.1 321 216.1 321"/>
        <polygon class="cls-5" points="947.1 348.6 943.2 348.6 943.2 336.7 943.2 332.7 943.2 262 943.2 239.8 943.2 229.3 947.2 229.3 947.2 195.9 890.1 195.9 890.1 195 865.7 195 865.7 195.9 865.7 200.3 865.7 225.6 865.7 229.3 865.7 239.8 839.1 239.8 839.1 336.7 859.7 336.7 865.6 336.7 926.5 380 947.1 380 947.1 348.6"/>
        <rect class="cls-3" x="886.5" y="273.4" width="14.2" height="30.1"/>
        <rect class="cls-3" x="849.5" y="239.5" width="16" height="16"/>
        <rect class="cls-3" x="201.4" y="273.5" width="15.2" height="14.1"/>
        <rect class="cls-3" x="113.4" y="292.5" width="15.2" height="16"/>
      </g>
      <g id="Lines">
        <path class="cls-4" d="M624,253.1v14h-14v-14h14M625,252.1h-16v16h16v-16Z"/>
        <path class="cls-4" d="M623,268v8h-13v-8h13M624,267h-15v10h15v-10Z"/>
        <path class="cls-4" d="M620,393v14h-20v-14h20M621,392h-22v16h22v-16Z"/>
        <path class="cls-4" d="M608,385v6.1h-8v-6h8M609,384.1h-10v8h10v-8Z"/>
        <path class="cls-4" d="M744.1,297v14h-15v-14h15M745.1,296h-17v16h17v-16Z"/>
        <path class="cls-4" d="M865.1,240v15h-15v-15h15M866.1,239h-17v17h17v-17Z"/>
        <path class="cls-4" d="M900.1,274v29h-13v-29h13M901.1,273h-15v31h15v-31Z"/>
        <path class="cls-4" d="M744.1,400.1v30.9h-15v-30.9h15M745.1,399.1h-17v32.9h17v-32.9Z"/>
        <path class="cls-4" d="M864.1,592v24h-14v-24h14M865.1,591h-16v26h16v-26Z"/>
        <path class="cls-4" d="M864.1,592v15h-14v-15h14M865.1,591h-16v17h16v-17Z"/>
        <path class="cls-4" d="M864.1,634v35h-7v-35h7M865.1,633h-9v37h9v-37Z"/>
        <path class="cls-4" d="M864.1,688v8h-14v-8h14M865.1,687h-16v10h16v-10Z"/>
        <path class="cls-4" d="M648,647v16h-30v-16h30M649,646h-32v18h32v-18Z"/>
        <path class="cls-4" d="M633,647v16h-15v-16h15M634,646h-17v18h17v-18Z"/>
        <path class="cls-4" d="M233.1,673v15h-16v-15h16M234.1,672h-18v17h18v-17Z"/>
        <path class="cls-4" d="M219,738v14h-20v-14h20M220,737h-22v16h22v-16Z"/>
        <path class="cls-4" d="M166,736.1v1.9h.9l31.1,3.3v10.8h-61v-16h29M167,735.1h-31v18h63v-12.8l-32-3.3v-2h0Z"/>
        <path class="cls-4" d="M161.1,552v56h-24.1v-56h24.1M162.1,551h-26.1v58h26.1v-58Z"/>
        <path class="cls-4" d="M168,600v8h-5v-8h5M169,599h-7v10h7v-10Z"/>
        <path class="cls-4" d="M573.1,367v6.1h-8v-6.1h8M574.1,366h-10v8.1h10v-8.1Z"/>
        <path class="cls-4" d="M573.1,375v16h-9v-16h9M574.1,374h-11v18h11v-18Z"/>
        <path class="cls-4" d="M487.1,453v14h-15v-14h15M488.1,452h-17v16h17v-16Z"/>
        <path class="cls-4" d="M484.1,538v13h-30v-13h30M485.1,537h-32v15h32v-15Z"/>
        <path class="cls-4" d="M404.1,624.7v15.4h-14.2v-15.4h14.2M405.1,623.7h-16.2v17.4h16.2v-17.4Z"/>
        <path class="cls-4" d="M408.5,634.4c1.3,0,2.3,1,2.3,2.3s-1,2.3-2.3,2.3-2.3-1-2.3-2.3h0c0-1.3,1-2.3,2.3-2.3M408.5,633.4c-1.8,0-3.3,1.5-3.3,3.3s1.5,3.3,3.3,3.3,3.3-1.5,3.3-3.3h0c0-1.8-1.5-3.3-3.3-3.3Z"/>
        <path class="cls-4" d="M380.1,553v14h-14v-14h14M381.1,552h-16v16h16v-16Z"/>
        <path class="cls-4" d="M257,553v82.1h-8v-82.1h8M258,552h-10v84.1h10v-84.1Z"/>
        <path class="cls-4" d="M153,464v16h-15v-16h15M154,463h-17v18h17v-18Z"/>
        <path class="cls-4" d="M158.8,465.1c2.1,0,3.8,1.7,3.8,3.8s-1.7,3.8-3.8,3.8-3.8-1.7-3.8-3.8h0c0-2.1,1.7-3.8,3.8-3.8M158.8,464.1c-2.7,0-4.8,2.1-4.8,4.8s2.1,4.8,4.8,4.8,4.8-2.1,4.8-4.8h0c0-2.7-2.1-4.8-4.8-4.8h0Z"/>
        <path class="cls-4" d="M71,565v3h-21v-3h21M72,564h-23v5h23v-5Z"/>
        <path class="cls-4" d="M49.1,553v15h-15v-15h15M50.1,552h-17v17h17v-17Z"/>
        <path class="cls-4" d="M36.5,548.2c.8,0,1.4.6,1.4,1.4s-.6,1.4-1.4,1.4-1.4-.6-1.4-1.4h0c0-.8.6-1.4,1.4-1.4M36.5,547.2c-1.3,0-2.4,1.1-2.4,2.4s1.1,2.4,2.4,2.4,2.4-1.1,2.4-2.4,0,0,0,0c0-1.3-1.1-2.4-2.4-2.4h0Z"/>
        <path class="cls-4" d="M48,449v15h-14v-15h14M49,448h-16v17h16v-17Z"/>
        <path class="cls-4" d="M33,385v15h-14.9v-15h14.9M34.1,384h-16.9v17h16.9v-17Z"/>
        <path class="cls-4" d="M17,364v36H1v-36h16M18,363H0v38h18v-38Z"/>
        <path class="cls-4" d="M17,364v20H1v-20h16M18,363H0v22h18v-22Z"/>
        <path class="cls-4" d="M41,280v16H1v-16h40M42,279H0v18h42v-18Z"/>
        <path class="cls-4" d="M64,181v14h-15v-14h15M65,180h-17v16h17v-16Z"/>
        <path class="cls-4" d="M64,196v8h-8v-8h8M65,195h-10v10h10v-10Z"/>
        <path class="cls-4" d="M128,293v15h-14v-15h14M129,292h-16v17h16v-17Z"/>
        <path class="cls-4" d="M156,345v15h-14.9v-15h14.9M157,344h-16.9v17h16.9v-17Z"/>
        <path class="cls-4" d="M216.1,274v13h-14v-13h14M217.1,273h-16v15h16v-15Z"/>
        <path class="cls-4" d="M256,217v14h-14v-14h14M257,216h-16v16h16v-16Z"/>
        <path class="cls-4" d="M329.1,376v14.9h-15v-14.9h15M330.1,375h-17v16.9h17v-16.9Z"/>
        <polygon class="cls-4" points="729 311 729 232.3 728 232.3 728 311 713.4 311 713.4 312 728 312 729 312 730.4 312 730.4 311 729 311"/>
        <rect class="cls-4" x="665" y="469" width="23.4" height="1"/>
        <rect class="cls-4" x="574" y="307.5" width="1" height="28.8"/>
        <rect class="cls-4" x="536" y="364.7" width="1" height="27.6"/>
        <polygon class="cls-4" points="455 504 488.1 504 488.1 503 455 503 455 452 454 452 454 504 455 504 455 504"/>
        <rect class="cls-4" x="773" y="551.3" width="1" height="33.7"/>
        <polygon class="cls-4" points="230 361 232.1 361 232.5 361 233 361 233 349 265.1 349 265.1 387.2 266.1 387.2 266.1 349 266.1 348.5 266.1 348 232.1 348 232.1 348.5 232.1 349 232.1 360 217.1 360 217.1 239.2 216.1 239.2 216.1 360 216.1 361 217.1 361 229 361 229 400 170.4 400 170.4 401 229 401 229.4 401 230 401 230 361"/>
        <path class="cls-4" d="M484.1,504v7h-7v-7h7M485.1,503h-9v9h9v-9Z"/>
        <rect class="cls-4" x="865" y="408.4" width="1" height="127.6"/>
      </g>
      <g id="Outlines">
        <path class="cls-4" d="M495.1,1v135.2h17v-.2h130v-55h191v55h-43v9h6v15h93v36h58v33h-4v120h4v31h-19l-62-44h-73v106h25v-33h62v127h31v55h-47v106h-191v76h-170v118h-42l-25-5h-18l-15,2h-6v-3.1h-23v-100.9h4v-14h-18v8h-140v-26h-83v-200h25v-16h-57v32H34v-168H1v-219h63v59h93v-52h-7v-47h131v53h136V1h78M597,187h101v57h3v-11h39v-43h6.9l11-12.9v-32.2h7v-9h-52v-21h-8v53h-108v19M417,244v-12.1h-35v72.1h-53v116h16v-32h55v32h9v-24h48v-4h-4v-11.8l-19.9-19.2v-25h86.9v29h17v-57h72v-56h-36v-84h-86v2l-18,21v53h-52M185,240h45v92h67v-48h56v-52.1h-112v-59.9h-32v16h-24v52M797,240h69v-55h-69v55M662,340h16v31l-11.9,23v42h63v-36h32v-32h-47v-75.9l-12-24.1h-4v16.2h-10l-26,49.4v6.4M80,345h77v-37h-77v37M477,396h1.9v11h9v96h-4v49h85v-14h24v61h148v-47h63v7h5v-23h16v-48h-16.1l-32,32h-48v-51h-41v32h-64l-24-25v-136h29.2v-4h-55.1v56h-96.9v4M193.1,422l-22-22h-91v64h118v72h-5v16h40v84h16v-20h0v-63h48v15h2v-15h82v31h8v-80h20v-52h-80l-35,36h-25v-102h-4v36h-72M569.1,632v-48h-85v56h-95v-24h-8v33h-53v-33h-31v48h-64v25h50v47h200v-27h20v23h95v-85h195v-46.9h16v-23.1h-5v7h-31v48h-204M496.1,0h-80.1v193h-133.9v-53h-133.1v49.1h7v49.9h-90.9v-59H0v221.1h33v168h73.1v-32h55v13.9h-25v202.1h83v26h142.1v-8h15.9v11.9h-4v103h23v3h7.2l14.9-2h17.8l24.9,5h43.2v-117.9h170v-76h191v-106h47v-57.1h-31v-127h-64.1v33h-22.9v-103.9h71.6l61.8,43.8.3.2h20.3v-33.1h-4v-117.9h4v-35.1h-58v-36h-93v-15h-6v-6.9h42.9v-57.1h-193v55h-130v.2h-14.9V0h0ZM706.1,116.1h5.9v21h52v6.9h-7v32.8l-10.5,12.2h-7.5v43h-39v11h-1v-57h-101v-16.9h108v-53h0ZM488.1,169.1h83.9v84h36v53.9h-72v57h-14.9v-29h-89v26.5l.3.3,19.6,18.9v12.4h4v1.9h-48v24h-6.9v-32h-57.1v32h-13.9v-113.9h53v-72.1h32.9v12.1h54.1v-53.7l17.8-20.7.2-.3v-1.3h0ZM210.1,173.1h29.9v59.9h112v50h-56v48h-64.9v-92h-45v-49.9h24v-16h0ZM798.1,186.1h66.9v52.9h-66.9v-52.9h0ZM699.1,269.1h2.3l11.6,23.4v76.6h47v29.9h-32v36h-60.8v-40.7l11.8-22.8v-.2c0,0,0-32.3,0-32.3h-16v-5.1l25.6-48.6h10.4v-16.2h0ZM81.1,309.1h74.9v34.9h-74.9v-34.9h0ZM575.1,337.1h53.1v1.9h-29.2v137.4l.3.3,24,25,.3.3h65.5v-32h38.9v51h49.5l.3-.3,31.6-31.7h14.6v45.9h-16v23h-2.9v-7h-65.1v47h-145.8v-61h-26.1v14h-82.9v-46.9h4v-98.1h-9v-11h-1.9v-1.9h96.9v-56h0ZM266.1,387.1h1.9v102h26.5l.3-.3,34.7-35.7h78.5v49.9h-20v80h-5.9v-31h-134.1v65.1h0v17.9h-13.9v-84h-40v-13.9h5v-74.1h-118v-61.9h89.5l21.7,21.7.3.3h73.5v-36h0ZM805.1,578.1h2.9v21h-16v47h-195v85h-92.9v-23h-22.1v27h-197.9v-47h-50v-23h64v-48h28.9v33h55.1v-33h5.9v24h97.1v-56h82.9v48h206.1v-48h31v-7h0Z"/>
      </g>
      <g id="Callouts_copy">
        <path class="cls-4" d="M390.5,862.6c0-.2,0-.4.1-.6l2.5-6.8c.2-.8,1.1-1.3,1.9-1,.5,0,.9.5,1,1l2.5,6.8c0,.2.1.4.1.6,0,.5-.4.9-.9.9h-.1c-.5,0-.8-.2-1-.8l-.5-1.4h-3.3l-.5,1.4c-.2.6-.5.9-1,.9s-.9-.4-.9-.8h0v-.2ZM395.8,859.8l-1.2-3.8h0l-1.2,3.8h2.4Z"/>
        <path class="cls-4" d="M399.7,858h-.3c-.4,0-.7-.3-.7-.7s.3-.7.7-.7h.3v-.8c0-.5.4-.9.9-.9s.9.4.9.9h0v.8h.7c.4,0,.7.3.7.7s-.3.7-.7.7h-.7v3.2c0,.5.2.7.6.7h.1c.5,0,.7.2.7.7s-.5.8-1.3.8h0c-.9,0-1.7-.5-1.9-1.4v-4.1h0Z"/>
        <path class="cls-4" d="M404.3,858h-.3c-.4,0-.7-.3-.7-.7s.3-.7.7-.7h.3v-.8c0-.5.4-.9.9-.9s.9.4.9.9h0v.8h.7c.4,0,.7.3.7.7s-.3.7-.7.7h-.7v3.2c0,.5.2.7.6.7h.1c.5,0,.7.2.7.7s-.5.8-1.3.8h0c-.9,0-1.7-.5-1.9-1.4v-4.1h0Z"/>
        <path class="cls-4" d="M408.1,861.5c0-1.2,1-2,2.7-2.1h1.7v-.5c0-.6-.5-1-1.2-1s-1,.3-1.3.7c-.2.2-.4.4-.7.3-.4,0-.7-.3-.8-.7h0v-.4c.3-.8,1.4-1.3,2.8-1.3s2.9.9,2.9,2.3v3.9c0,.5-.3.9-.8.9h-.1c-.5,0-.8-.3-.9-.7h0v-.3h0c-.4.7-1.2,1.2-2.1,1.2-1.2,0-2.2-.7-2.3-1.9v-.4ZM412.5,860.9v-.5h-1.4c-.7,0-1.1.5-1.1.9s.4.8,1,.8,1.4-.4,1.5-1.2h0Z"/>
        <path class="cls-4" d="M415.2,860c-.2-1.8,1.1-3.4,2.9-3.5h.5c1.2,0,2.3.6,2.9,1.6v.5c0,.4-.3.7-.7.7h0c-.3,0-.6-.2-.8-.5-.2-.5-.8-.9-1.3-.9-.9,0-1.5.8-1.5,2.1s.6,2.1,1.5,2.1,1.1-.3,1.3-.8c.2-.4.5-.6.8-.6s.8.3.8.7h0c0,.2,0,.3-.1.5-.6,1-1.7,1.6-2.9,1.6-1.8,0-3.3-1.3-3.4-3v-.5h0Z"/>
        <path class="cls-4" d="M422.6,862.6v-7.5c0-.5.3-1,.8-1s1,.3,1,.8v4.4h0l2.5-2.5c.2-.2.5-.4.7-.4.4,0,.8.3.8.8h0c0,.3-.1.5-.3.7l-1.7,1.6,1.9,2.4c.2.2.3.4.3.7,0,.5-.3.8-.8.8h0c-.4,0-.6,0-.9-.6l-1.8-2.3-.6.6v1.4c0,.5-.3,1-.8,1s-1-.3-1-.8v-.2h-.1Z"/>
        <path class="cls-4" d="M429,860c0-2.2,1.3-3.6,3.3-3.6s3.1,1.2,3.2,2.9v.3c0,.4-.3.8-.7.8h-4c0,.9.5,1.7,1.3,1.7h.2c.6,0,1.3-.3,1.6-.8.1-.2.4-.3.6-.3.4,0,.7.3.7.6h0c0,.2,0,.3-.1.4-.6.9-1.7,1.4-2.8,1.3-2.1,0-3.4-1.3-3.4-3.5v.2ZM433.7,859.3c0-.8-.6-1.4-1.3-1.5h0c-.8,0-1.5.7-1.5,1.5h2.9-.1Z"/>
        <path class="cls-4" d="M436.5,862.6v-5.2c0-.5.3-.9.8-.9h.1c.5,0,.9.3.9.8h0v.5h0c0-.7.7-1.3,1.4-1.3s.4,0,.6.2.3.4.3.7,0,.5-.3.7c-.2.2-.5.3-.8.2-.8,0-1.2.5-1.2,1.3v3c0,.5-.3,1-.8,1s-1-.3-1-.8v-.2h0Z"/>
        <path class="cls-4" d="M443.8,861.8c0-.2-.1-.3,0-.5,0-.4.3-.8.8-.8h0c.4,0,.7.2.9.6.4.7,1.1,1.1,1.9,1,1,0,1.7-.5,1.7-1.2s-.4-1-1.6-1.2l-1-.2c-1.8-.4-2.7-1.2-2.7-2.6s1.5-2.8,3.5-2.8,2.9.7,3.3,1.9v.4c0,.4-.3.8-.7.8h0c-.4,0-.8-.2-.9-.6-.3-.7-1-1.1-1.7-1-.9,0-1.6.4-1.6,1.1s.4.9,1.5,1.1l1,.2c1.9.4,2.8,1.2,2.8,2.6s-1.4,2.9-3.7,2.9-3.1-.7-3.5-1.7h0Z"/>
        <path class="cls-4" d="M452,864.9v-7.4c0-.5.2-.9.7-1h.2c.5,0,.9.3.9.8v.6h0c.4-.8,1.2-1.3,2.1-1.3,1.7,0,2.8,1.3,2.8,3.5s-1.1,3.5-2.8,3.5-1.7-.4-2.1-1.2h0v2.6c0,.5-.3,1-.8,1s-1-.3-1-.8v-.2h0ZM456.8,860c0-1.2-.6-2-1.5-2s-1.5.8-1.5,2,.6,2,1.5,2,1.5-.8,1.5-2Z"/>
        <path class="cls-4" d="M459.4,861.5c0-1.2,1-2,2.7-2.1h1.7v-.5c0-.6-.4-1-1.1-1s-1,.3-1.3.7c-.2.2-.5.3-.7.3-.4,0-.7-.3-.8-.6h0v-.4c.3-.8,1.4-1.3,2.8-1.3s2.9.9,2.9,2.3v3.9c0,.5-.3.9-.8.9h-.1c-.5,0-.8-.3-.9-.7h0v-.3h0c-.4.7-1.2,1.2-2.1,1.2-1.2,0-2.2-.7-2.3-1.9v-.5ZM463.8,860.9v-.5h-1.4c-.7,0-1.1.5-1.1.9s.4.8,1,.8c.7,0,1.4-.4,1.5-1.2h0Z"/>
        <path class="cls-4" d="M467.9,862.6l-1.4-4.8v-.6c0-.5.4-.8.8-.8h0c.5,0,.8.3.9.8l1,4.4h0l1.1-4.3c.1-.6.7-.9,1.2-.8.4,0,.8.4.8.8l1.1,4.3h0l1-4.4c0-.4.4-.8.9-.8s.8.3.9.7h0v.6l-1.4,4.8c0,.6-.6,1-1.2,1s-1.1-.4-1.2-1h0l-1-4h0l-1,4c0,.6-.6,1.1-1.2,1-.6,0-1.1-.4-1.2-1h0Z"/>
        <path class="cls-4" d="M477,862.6v-5.2c0-.5.3-.9.8-.9h.1c.5,0,.9.3.9.8h0v.5h0c.3-.8,1.2-1.4,2.1-1.3,1.2,0,2.3.9,2.4,2.1v4.1c0,.5-.3,1-.8,1s-1-.3-1-.8v-3.4c0-.9-.4-1.4-1.2-1.4s-1.4.6-1.4,1.3v3.3c0,.5-.4.9-.9.9s-.9-.4-.9-.9h-.1Z"/>
        <path class="cls-4" d="M81.6,506.1v-5.5c0-.4.2-.7.6-.8h2.4c1.3,0,2.1.7,2.1,1.8s-.6,1.4-1.3,1.5h0c.9,0,1.7.8,1.7,1.7s-.9,2-2.4,2h-2.3c-.4,0-.7-.2-.8-.6h0q0-.1,0-.1ZM84.1,502.8c.8,0,1.2-.3,1.2-.9s-.4-.9-1.1-.9h-1.2v1.8h1.1ZM84.4,505.8c.9,0,1.3-.4,1.3-1s-.5-1-1.3-1h-1.2v2h1.3-.1Z"/>
        <path class="cls-4" d="M90,506.3v-5.6c0-.5.3-.9.7-1h.3c.5,0,.9.3,1,.8l1.8,4.3h0l1.8-4.3c0-.5.5-.8,1-.8s.9.3,1,.8v5.8c0,.4-.3.7-.7.7s-.7-.3-.7-.7v-4.2h0l-1.7,4.3c0,.3-.3.5-.6.5s-.6-.2-.6-.5l-1.7-4.3h0v4.2c0,.4-.3.7-.7.7s-.7-.3-.7-.7h-.2Z"/>
        <path class="cls-4" d="M98.2,505.4c0-1,.7-1.5,2-1.6h1.3v-.4c0-.5-.3-.8-.9-.8s-.8.2-1,.5c0,.2-.4.3-.6.3-.3,0-.6-.2-.6-.5h0v-.3c.2-.6,1.1-1,2.2-1s2.2.7,2.2,1.8v3c0,.4-.2.7-.6.7h0c-.3,0-.6-.2-.7-.6h0v-.3h0c-.3.6-.9.9-1.6.9s-1.7-.6-1.8-1.5h0l.2-.2ZM101.5,505v-.4h-1.1c-.5,0-.8.4-.8.7s.3.6.8.6,1.1-.3,1.1-.8h0Z"/>
        <path class="cls-4" d="M103.9,500.3c0-.4.3-.8.7-.8s.8.3.8.7-.3.8-.7.8h0c-.4,0-.7-.3-.8-.7h0ZM103.9,506.3v-4c0-.4.3-.7.7-.7s.7.3.7.7h0v4c0,.4-.3.7-.7.7s-.7-.3-.7-.7Z"/>
        <path class="cls-4" d="M106.3,506.3v-4c0-.4.2-.7.6-.7h0c.4,0,.7.2.7.6h0v.4h0c.3-.6.9-1.1,1.6-1,1,0,1.8.7,1.8,1.6v3.1c0,.4-.2.7-.6.7h0c-.4,0-.7-.3-.7-.6h0v-2.5c0-.7-.3-1.1-1-1.1s-1,.4-1,1v2.6c0,.4-.3.7-.7.7s-.7-.3-.7-.7h0Z"/>
        <path class="cls-4" d="M299.6,591.4v-5.6c0-.5.2-.9.7-1h.3c.5,0,.9.3,1,.8l1.7,4.3h0l1.8-4.3c.1-.5.5-.8,1-.8s.9.3.9.8v5.8c0,.4-.2.7-.6.7s-.7-.2-.7-.6v-4.4h0l-1.7,4.3c0,.3-.3.5-.6.5s-.6-.2-.6-.5l-1.7-4.3h0v4.2c0,.4-.3.7-.7.7s-.7-.3-.7-.7h0Z"/>
        <path class="cls-4" d="M307.8,590.5c0-1,.7-1.5,2-1.6h1.3v-.4c0-.5-.3-.8-.9-.8s-.8.2-1,.5c-.1.2-.4.3-.6.3-.3,0-.6-.2-.6-.5h0v-.3c.2-.6,1.1-1,2.2-1s2.2.7,2.2,1.8v3c0,.4-.2.7-.6.7h-.1c-.3,0-.6-.2-.7-.6h0v-.3h0c-.3.6-1,.9-1.6.9-.9,0-1.7-.6-1.7-1.5h0c0,0,.1-.2.1-.2ZM311.2,590.1v-.4h-1.1c-.5,0-.8.3-.8.7s.3.6.8.6,1.1-.3,1.1-.8h0Z"/>
        <path class="cls-4" d="M313.5,591.4v-4c0-.4.2-.7.6-.7h.1c.4,0,.7.3.7.6h0v.4h0c0-.6.5-1,1.1-1s.6.2.7.5h0c0,.3,0,.5-.2.6s-.4.2-.6.2c-.6,0-.9.4-.9,1v2.3c0,.4-.2.8-.6.8s-.8-.2-.8-.6v-.2h-.1Z"/>
        <path class="cls-4" d="M317.2,591.4v-5.8c0-.4.2-.8.6-.8s.8.2.8.6v3.4h0l1.9-1.9c.1-.2.3-.3.6-.3s.6.3.6.6h0c0,.2,0,.4-.3.5l-1.3,1.3,1.5,1.9c.1,0,.2.3.2.5,0,.3-.3.6-.6.6h0c-.3,0-.5,0-.7-.4l-1.3-1.8-.5.4v1.1c0,.4-.2.8-.6.8s-.8-.2-.8-.6v-.2h-.1Z"/>
        <path class="cls-4" d="M322.1,589.4c-.2-1.4.8-2.6,2.2-2.7h.3c1.3,0,2.4.9,2.5,2.2v.2c0,.3-.2.6-.5.6h-3.1c0,.7.4,1.3,1,1.4h.2c.5,0,1-.2,1.2-.6.1,0,.3-.2.5-.2.3,0,.5.2.6.5h0v.3c-.5.7-1.3,1.1-2.2,1-1.3,0-2.5-.9-2.6-2.3v-.4h-.1ZM325.7,588.9c0-.6-.4-1.1-1-1.1h0c-.6,0-1.1.5-1.1,1.1h2.2-.1Z"/>
        <path class="cls-4" d="M328.2,587.9h-.3c-.3,0-.5-.2-.5-.5s.2-.5.5-.5h.3v-.6c0-.4.3-.7.7-.7s.7.3.7.7h0v.6h.5c.3,0,.5.2.5.5s-.2.5-.5.5h-.5v2.5c0,.4.1.5.4.5h0c.3,0,.5.2.5.5s-.4.6-1,.6h0c-.7,0-1.3-.4-1.4-1.1v-3.1h0Z"/>
        <path class="cls-4" d="M365.6,407.4v-5.6c0-.5.3-.9.7-1h.2c.5,0,.9.3,1,.8l1.8,4.3h0l1.7-4.3c.1-.5.5-.8,1-.8s.9.2,1,.7v5.9c0,.4-.3.7-.7.7s-.7-.3-.7-.7v-4.2h0l-1.7,4.3c0,.3-.3.5-.6.5s-.6-.2-.6-.4l-1.7-4.3h0v4.2c0,.4-.2.7-.6.7s-.7-.2-.7-.6v-.2h0Z"/>
        <path class="cls-4" d="M373.8,406.5c0-1,.7-1.5,2-1.6h1.3v-.4c0-.5-.3-.8-.9-.8s-.8.2-1,.6c-.1.2-.4.3-.6.3-.3,0-.6-.2-.6-.5h0v-.3c.2-.6,1.1-1,2.2-1s2.2.7,2.2,1.8v3c0,.4-.2.7-.6.7h-.1c-.3,0-.7-.2-.7-.6h0v-.3h0c-.3.6-.9.9-1.6.9s-1.7-.6-1.8-1.5v-.2h.2ZM377.2,406.1v-.4h-1.1c-.5,0-.8.3-.8.7s.3.6.8.6,1-.3,1.1-.9h0c0-.1,0,0,0,0Z"/>
        <path class="cls-4" d="M379.5,401.4c0-.4.3-.8.8-.8s.8.3.8.8-.3.8-.8.8-.8-.3-.8-.8ZM379.5,407.4v-4c0-.4.3-.7.7-.7s.7.3.7.7h0v4c0,.4-.3.7-.7.7s-.7-.3-.7-.7h0Z"/>
        <path class="cls-4" d="M381.9,407.4v-5.8c0-.4.2-.7.6-.7h.1c.4,0,.7.3.7.6h0v5.9c0,.4-.2.7-.6.7h-.1c-.4,0-.7-.3-.7-.6h0Z"/>
        <path class="cls-4" d="M282.1,362.5v-5.7c0-.4.2-.8.6-.8s.8.2.8.6v2.4h3.2v-2.2c0-.4.2-.8.6-.8s.8.2.8.6v5.9c0,.4-.2.8-.6.8s-.8-.2-.8-.6v-2.5h-3.2v2.3c0,.4-.2.8-.6.8s-.8-.2-.8-.6v-.2Z"/>
        <path class="cls-4" d="M289.1,360.6c-.2-1.4.8-2.6,2.2-2.7h.4c1.3,0,2.4.9,2.5,2.2v.2c0,.3-.2.6-.5.6h-3.1c0,.7.4,1.3,1,1.3h.2c.5,0,1-.2,1.2-.6.1-.1.3-.2.5-.2.3,0,.5.2.5.5h0v.3c-.5.7-1.3,1.1-2.2,1-1.3,0-2.5-.9-2.6-2.3v-.4h-.1ZM292.8,360c0-.6-.4-1.1-1-1.1h0c-.6,0-1.1.5-1.1,1.1h2.2-.1Z"/>
        <path class="cls-4" d="M294.7,361.7c0-1,.7-1.5,2-1.6h1.3v-.4c0-.5-.3-.8-.9-.8s-.8.2-1,.5c-.1.2-.3.3-.6.3s-.6-.2-.6-.5h0v-.3c.5-.7,1.3-1.1,2.2-1,1.3,0,2.2.7,2.2,1.8v3c0,.4-.2.7-.6.7h-.1c-.3,0-.7-.2-.7-.6h0v-.3h0c-.3.6-.9.9-1.6.9s-1.7-.6-1.8-1.5v-.2h.2ZM298,361.3v-.4h-1.1c-.5,0-.8.4-.8.7s.3.6.8.6,1.1-.3,1.1-.8h0Z"/>
        <path class="cls-4" d="M301.5,362.6l-1.4-3.7v-.4c0-.4.3-.6.7-.6h0c.3,0,.6.2.7.6l1.1,3.5h0l1.1-3.5c0-.3.3-.6.7-.6s.7.2.7.6h0v.4l-1.4,3.7c-.1.5-.5.8-1,.7-.5,0-.9-.3-1-.7h-.2Z"/>
        <path class="cls-4" d="M305.2,360.6c-.2-1.4.8-2.6,2.2-2.7h.4c1.3,0,2.4.9,2.5,2.2v.2c0,.3-.2.6-.5.6h-3.1c0,.7.4,1.3,1.1,1.3h.1c.5,0,1-.2,1.2-.6.1-.1.3-.2.5-.2.3,0,.5.2.6.5h0v.3c-.5.7-1.3,1.1-2.2,1-1.3,0-2.5-.9-2.6-2.3v-.4h-.2ZM308.9,360c0-.6-.4-1.1-1-1.1h0c-.6,0-1.1.5-1.1,1.1h2.2-.1Z"/>
        <path class="cls-4" d="M311,362.6v-4c0-.4.2-.7.6-.7h.1c.4,0,.7.2.7.6h0v.4h0c.3-.7.9-1.1,1.6-1,.9,0,1.8.7,1.8,1.6v3.1c0,.4-.3.7-.7.7s-.7-.3-.7-.7h0v-2.5c0-.7-.3-1.1-1-1.1s-1,.4-1,1v2.6c0,.4-.3.7-.7.7s-.7-.3-.7-.7h0Z"/>
        <path class="cls-4" d="M469.3,366.8l-2-5.3v-.4c0-.4.3-.7.7-.7h0c.4,0,.7.2.8.6l1.7,5h0l1.7-5.1c0-.3.4-.6.7-.6s.7.2.7.6h0v.4l-2,5.3c-.1.5-.6.9-1.1.8-.5,0-.9-.3-1-.8l-.2.2Z"/>
        <path class="cls-4" d="M473.4,365c-.2-1.4.8-2.6,2.2-2.7h.4c1.3,0,2.4.9,2.5,2.2v.2c0,.3-.2.6-.5.6h-3.1c0,.7.4,1.3,1,1.3h.2c.5,0,1-.2,1.2-.6.1-.1.3-.2.5-.2.3,0,.5.2.6.5h0v.3c-.5.7-1.3,1.1-2.2,1-1.3,0-2.5-.9-2.6-2.3v-.4h-.2ZM477,364.4c0-.6-.4-1.1-1-1.1h0c-.6,0-1.1.5-1.1,1.1h2.2-.1Z"/>
        <path class="cls-4" d="M479.2,366.9v-4c0-.4.2-.7.6-.7h.1c.4,0,.7.2.7.6h0v.4h0c.3-.7.9-1.1,1.6-1,.9,0,1.8.7,1.8,1.6v3.1c0,.4-.3.7-.7.7s-.7-.3-.7-.7h0v-2.4c0-.7-.3-1.1-1-1.1s-1,.4-1,1v2.6c0,.4-.3.7-.7.7s-.7-.3-.7-.7h0Z"/>
        <path class="cls-4" d="M485.3,363.4h-.3c-.3,0-.5-.2-.5-.5s.2-.5.5-.5h.3v-.6c0-.4.3-.7.7-.7s.7.3.7.7h0v.6h.5c.3,0,.5.2.5.5s-.2.5-.5.5h-.5v2.5c0,.4.1.5.4.6h0c.3,0,.5.2.5.5s-.4.6-1,.6h0c-.7,0-1.3-.4-1.4-1.1v-3.1h0Z"/>
        <path class="cls-4" d="M323.3,295.8v-.4c0-.3.2-.6.6-.6h0c.3,0,.6.2.7.4.3.5.9.9,1.5.8.8,0,1.3-.4,1.3-.9s-.3-.7-1.2-.9h-.8c-1.4-.4-2.1-1.1-2.1-2.1s1.1-2.1,2.7-2.1c1.1-.1,2.1.5,2.6,1.5v.3c0,.3-.2.6-.6.6h0c-.3,0-.6-.2-.7-.4-.2-.5-.7-.8-1.3-.8s-1.2.3-1.2.9.3.7,1.2.9l.7.2c1.5.3,2.1.9,2.1,2s-1.1,2.2-2.8,2.2-2.4-.6-2.7-1.4v-.2Z"/>
        <path class="cls-4" d="M330,292.9h-.3c-.3,0-.6-.2-.6-.5s.2-.6.5-.6h.4v-.6c0-.4.3-.7.7-.7s.7.3.7.7h0v.6h.5c.3,0,.6.2.6.5s-.2.6-.5.6h-.6v2.5c0,.4.1.5.4.5h0c.3,0,.5.2.5.5s-.4.6-1,.6h0c-.7.1-1.3-.4-1.4-1v-3.2h0Z"/>
        <path class="cls-4" d="M332.9,295.5c0-1,.7-1.5,2-1.6h1.3v-.4c0-.5-.3-.8-.9-.8s-.8.2-1,.5c-.1.2-.3.3-.6.3s-.6-.2-.6-.5h0v-.3c.5-.7,1.3-1.1,2.2-1,1.3,0,2.2.7,2.2,1.7v3c0,.4-.2.7-.6.7h-.1c-.3,0-.7-.2-.7-.6h0v-.3h0c-.3.6-.9.9-1.6.9s-1.7-.6-1.8-1.5h0c0-.1.2-.1.2-.1ZM336.3,295.1v-.4h-1.1c-.5,0-.8.4-.8.7s.3.6.8.6,1.1-.4,1.1-1h0Z"/>
        <path class="cls-4" d="M338.6,290.4c0-.4.3-.8.7-.8s.8.3.8.7-.3.8-.7.8h0c-.4,0-.7-.3-.8-.7h0ZM338.6,296.4v-4c0-.4.2-.7.6-.7h.1c.4,0,.7.3.7.6h0v4.1c0,.4-.2.7-.6.7h-.1c-.4,0-.7-.3-.7-.6h0Z"/>
        <path class="cls-4" d="M341,296.4v-4c0-.4.2-.7.6-.7h.1c.4,0,.7.3.7.6h0v.4h0c0-.6.5-1,1.1-1s.3,0,.5.1c.1.1.2.3.2.5s0,.4-.2.5-.4.2-.6.2c-.7,0-.9.4-.9,1v2.3c0,.4-.2.7-.6.7h-.1c-.4,0-.7-.3-.7-.7h-.1Z"/>
        <path class="cls-4" d="M344.5,296.1v-.3c0-.3.2-.5.5-.6h0c.2,0,.5.1.6.3.3.4.7.6,1.1.5.5,0,.8-.2.8-.6s-.2-.4-.7-.5l-.9-.2c-1-.2-1.5-.7-1.5-1.5s.9-1.6,2.2-1.6,1.6.3,2,1.1v.2c0,.3-.2.5-.4.5h0c-.2,0-.4,0-.5-.2-.2-.3-.6-.5-1-.6-.5,0-.8.2-.8.6s.2.5.7.6l.9.2c1.1.2,1.6.6,1.6,1.4s-.9,1.7-2.3,1.7-2-.4-2.2-1h-.1Z"/>
        <path class="cls-4" d="M224,415v-5.7c0-.4.2-.8.6-.8s.8.2.8.6v2.4h3.2v-2.2c0-.4.3-.7.7-.7s.7.3.7.7h0v5.7c0,.4-.3.7-.7.7s-.7-.3-.7-.7v-2.3h-3.2v2.3c0,.4-.2.8-.6.8s-.8-.2-.8-.6v-.2Z"/>
        <path class="cls-4" d="M231,413.1c-.2-1.4.8-2.6,2.2-2.7h.4c1.3,0,2.4.9,2.5,2.2v.2c0,.3-.2.6-.5.6h-3.1c0,.7.4,1.3,1,1.3h.1c.5,0,1-.2,1.2-.6.1-.1.3-.2.5-.2.3,0,.5.2.5.5h0c0,.1,0,.2-.1.3-.5.7-1.3,1.1-2.2,1-1.3,0-2.5-.9-2.6-2.3v-.4h.1ZM234.6,412.5c0-.6-.4-1.1-1-1.1h0c-.6,0-1.1.5-1.1,1.1h2.2,0Z"/>
        <path class="cls-4" d="M236.7,415.1v-5.8c0-.4.2-.7.6-.7h.1c.4,0,.7.3.7.6h0v5.9c0,.4-.2.7-.6.7h-.1c-.4,0-.7-.2-.7-.6h0Z"/>
        <path class="cls-4" d="M239.2,415.1v-5.8c0-.4.3-.7.7-.7s.7.3.7.7v5.8c0,.4-.3.7-.7.7s-.7-.3-.7-.7Z"/>
        <path class="cls-4" d="M94.3,355.9v-5.8c0-.4.2-.7.6-.7h0c.3,0,.6.2.7.4l3,4.3h0v-4c0-.4.2-.7.6-.8.4,0,.7.2.8.6v6c0,.4-.2.7-.6.7h0c-.3,0-.6-.2-.7-.4l-3-4.3h0v4c0,.4-.2.7-.6.8-.4,0-.7-.2-.8-.6v-.2h0Z"/>
        <path class="cls-4" d="M101.2,354c-.2-1.3.8-2.6,2.2-2.7h.4c1.3,0,2.4.9,2.5,2.2v.2c0,.3-.2.6-.5.6h-3.1c0,.7.4,1.3,1,1.3h.2c.5,0,1-.2,1.2-.6,0-.1.3-.2.5-.2.3,0,.5.2.6.5h0c0,.1,0,.2,0,.3-.5.7-1.3,1.1-2.2,1-1.3,0-2.5-.9-2.6-2.3v-.4h0ZM104.8,353.4c0-.6-.4-1.1-1-1.1h0c-.6,0-1.1.5-1.1,1.1h2.2,0Z"/>
        <path class="cls-4" d="M107.7,355.9l-1-3.7v-.4c0-.3.3-.6.6-.6h0c.3,0,.6.3.7.6l.8,3.4h0l.8-3.3c0-.4.4-.7.8-.7s.7.3.8.7l.8,3.3h0l.8-3.4c0-.3.3-.6.7-.6s.6.2.7.6h0v.4l-1.1,3.7c0,.5-.5.8-.9.8s-.9-.3-.9-.7h0l-.8-3h0l-.8,3.1c0,.5-.5.8-.9.7-.5,0-.7-.3-.9-.8h-.2Z"/>
        <path class="cls-4" d="M116.9,355.8v-5.5c0-.4.2-.7.6-.8h2.4c1.3,0,2.1.7,2.1,1.8s-.6,1.4-1.3,1.5h0c.9,0,1.7.8,1.7,1.7s-.9,2-2.4,2h-2.4c-.4,0-.7-.3-.7-.6h0ZM119.4,352.4c.8,0,1.2-.3,1.2-1s-.4-.9-1.1-.9h-1.2v1.8h1.1ZM119.6,355.4c.9,0,1.3-.4,1.3-1s-.5-1-1.3-1h-1.2v2h1.2Z"/>
        <path class="cls-4" d="M123,353.9c0-1.4,1.3-2.5,2.7-2.5s2.5,1.3,2.5,2.7-1.2,2.5-2.6,2.5-2.5-1-2.6-2.3v-.4h0ZM126.7,353.9c0-1-.5-1.6-1.1-1.6s-1.1.6-1.1,1.6.4,1.7,1.1,1.7,1.1-.6,1.1-1.7Z"/>
        <path class="cls-4" d="M128.6,356.1c0-.2,0-.3.2-.5l1.2-1.7-1.2-1.7c0-.1-.1-.3-.1-.4,0-.4.3-.6.6-.6h0c.3,0,.4,0,.6.4l1,1.5h0l1-1.5c.2-.3.3-.4.6-.4s.6.2.7.5h0c0,.2,0,.4-.2.5l-1.2,1.6,1.2,1.7c.1.1.2.3.2.4,0,.3-.3.6-.6.6h0c-.2,0-.5-.1-.6-.4l-1-1.5h0l-1,1.5c-.2.3-.3.4-.6.4s-.6,0-.7-.4v-.2.2Z"/>
        <path class="cls-4" d="M406.4,41.1v-7.2c0-.5.3-.9.8-1h2.7c2.8,0,4.4,1.6,4.4,4.5s-1.6,4.6-4.4,4.6h-2.5c-.5,0-.9-.3-1-.8v-.2h0ZM409.7,40.5c1.7,0,2.6-1,2.6-3s-1-3-2.6-3h-1.3v6h1.3Z"/>
        <path class="cls-4" d="M415.1,38.8c0-2.2,1.3-3.6,3.3-3.6s3.1,1.2,3.2,2.9v.3c0,.4-.3.8-.7.8h-4c0,.9.5,1.7,1.3,1.7h.2c.6,0,1.3-.3,1.6-.8.1-.2.4-.3.6-.3.4,0,.7.3.7.6h0c0,.2,0,.3-.1.4-.6.9-1.7,1.4-2.8,1.3-1.7,0-3.3-1.2-3.4-2.9v-.6.2ZM419.8,38c0-.8-.6-1.4-1.3-1.5h0c-.8,0-1.5.7-1.5,1.5h2.9-.1Z"/>
        <path class="cls-4" d="M423,41.3v-4.6h-.3c-.4,0-.6-.4-.6-.8s.3-.6.6-.6h.3v-.5c-.2-.9.5-1.8,1.4-2h.6c1,0,1.4.3,1.4.8s-.1.4-.4.5h-.4c-.6,0-.8.2-.8.8v.4h.8c.4,0,.6.4.6.8s-.3.6-.6.6h-.7v4.6c0,.5-.4.9-.9.9s-.9-.4-.9-.9h-.1Z"/>
        <path class="cls-4" d="M426.7,38.8c0-2.2,1.3-3.6,3.3-3.6s3.1,1.2,3.2,2.9v.3c0,.4-.2.8-.6.8h-4.1c0,.9.5,1.7,1.3,1.7h.2c.6,0,1.3-.3,1.6-.8.2-.2.4-.3.6-.3.4,0,.7.2.7.6h0c0,.2,0,.3-.1.4-.6.9-1.7,1.4-2.8,1.3-1.7,0-3.3-1.2-3.4-2.9v-.6.2ZM431.4,38c0-.8-.6-1.4-1.3-1.5h0c-.8,0-1.5.6-1.5,1.4h2.9-.1Z"/>
        <path class="cls-4" d="M434.2,41.3v-5.2c0-.5.3-.9.8-.9h.1c.5,0,.9.3.9.8h0v.5h0c.3-.8,1.2-1.4,2.1-1.3,1.2,0,2.3.9,2.4,2.1v4c0,.5-.4.9-.9.9s-.9-.4-.9-.9h0v-3.2c0-.9-.4-1.4-1.2-1.4s-1.3.6-1.4,1.3v3.3c0,.5-.4.9-.9.9s-.9-.4-.9-.9h-.1Z"/>
        <path class="cls-4" d="M441.4,38.7c0-2.2,1.1-3.5,2.8-3.5s1.7.5,2.1,1.3h0v-2.7c0-.5.3-1,.8-1s1,.3,1,.8v7.7c0,.5-.3.9-.8.9h-.1c-.5,0-.9-.3-.9-.8h0v-.5h0c-.3.8-1.2,1.4-2.1,1.3-1.7,0-2.8-1.3-2.8-3.5ZM446.3,38.7c0-1.2-.6-2-1.5-2s-1.5.8-1.5,2,.6,2,1.5,2,1.5-.7,1.5-2h0Z"/>
        <path class="cls-4" d="M449.2,38.8c0-2.2,1.3-3.6,3.3-3.6s3.1,1.2,3.2,2.9v.3c0,.4-.2.8-.6.8h-4.1c0,.9.5,1.7,1.3,1.7h.2c.6,0,1.3-.3,1.6-.8.2-.2.4-.3.6-.3.4,0,.7.2.7.6h0c0,.2,0,.3-.1.4-.6.9-1.7,1.4-2.8,1.3-1.7,0-3.3-1.2-3.4-2.9v-.6.2ZM453.9,38c0-.8-.6-1.4-1.3-1.5h0c-.8,0-1.5.6-1.5,1.4h2.9-.1Z"/>
        <path class="cls-4" d="M456.6,41.3v-5.2c0-.5.3-.9.8-.9h.1c.5,0,.9.3.9.8h0v.5h0c0-.7.7-1.3,1.4-1.4.2,0,.4,0,.6.2s.3.4.3.7,0,.5-.3.7c-.2.2-.5.3-.8.2-.8,0-1.1.5-1.1,1.3v3c0,.5-.4.9-.9.9s-.9-.4-.9-.9h-.1Z"/>
        <path class="cls-4" d="M464,40.5v-.5c0-.4.3-.8.8-.8h0c.4,0,.7.2.9.6.4.7,1.1,1.1,1.9,1,1,0,1.7-.5,1.7-1.2s-.4-1-1.6-1.2l-1-.2c-1.8-.4-2.7-1.2-2.7-2.6s1.5-2.8,3.5-2.8,2.9.7,3.3,1.9v.4c0,.4-.3.8-.7.8h0c-.4,0-.8-.2-.9-.6-.3-.7-1-1.1-1.7-1-1,0-1.6.4-1.6,1.1s.4.9,1.5,1.1l1,.2c1.9.4,2.8,1.2,2.8,2.6s-1.4,2.9-3.7,2.9-3.1-.7-3.5-1.7h0Z"/>
        <path class="cls-4" d="M472.1,43.6v-7.5c0-.5.3-1,.8-1s1,.3,1,.8v.6h0c.4-.8,1.2-1.3,2.1-1.3,1.7,0,2.8,1.3,2.8,3.5s-1,3.5-2.8,3.5-1.7-.4-2.1-1.2h0v2.6c0,.5-.3,1-.8,1s-1-.3-1-.8v-.2h0ZM477,38.7c0-1.2-.6-2-1.5-2s-1.5.8-1.5,2,.6,2,1.5,2,1.5-.8,1.5-2h0Z"/>
        <path class="cls-4" d="M479.6,40.2c0-1.2,1-1.9,2.7-2.1h1.7v-.6c0-.6-.4-1-1.1-1s-1,.3-1.3.7c-.2.2-.4.3-.7.3s-.7-.2-.8-.6h0v-.4c.3-.8,1.4-1.3,2.8-1.3s2.9.9,2.9,2.3v3.9c0,.5-.3.9-.8.9h-.1c-.4,0-.8-.3-.9-.7h0v-.3h0c-.4.7-1.2,1.2-2.1,1.1-1.2,0-2.2-.7-2.3-1.9v-.2h0ZM483.9,39.6v-.5h-1.4c-.7,0-1.1.4-1.1.9s.4.8,1,.8,1.4-.5,1.5-1.2h0Z"/>
        <path class="cls-4" d="M488,41.3l-1.4-4.7v-.6c0-.4.4-.8.8-.8h0c.5,0,.8.3.9.8l1,4.4h0l1-4.3c.1-.6.7-.9,1.2-.8.4,0,.8.4.8.8l1.1,4.3h0l1-4.4c0-.4.4-.8.8-.8s.8.3.9.7h0v.6l-1.4,4.8c0,.6-.6,1-1.2,1s-1.1-.4-1.2-1h0l-1-4h0l-1,4c0,.6-.6,1.1-1.2,1-.6,0-.9-.3-1.1-1h0Z"/>
        <path class="cls-4" d="M497.2,41.3v-5.2c0-.5.3-.9.7-.9h.1c.5,0,.9.3.9.8h0v.5h0c.3-.8,1.2-1.4,2.1-1.3,1.2,0,2.3.9,2.4,2.1v4c0,.5-.3,1-.8,1s-1-.3-1-.8v-3.4c0-.9-.4-1.4-1.2-1.4s-1.4.6-1.4,1.3v3.3c0,.5-.3,1-.8,1s-1-.3-1-.8v-.2h0Z"/>
        <path class="cls-4" d="M761,474.2v-.5l1.9-5.2c.2-.6.8-1,1.5-.8.4.1.7.4.8.8l1.9,5.2v.5c0,.4-.3.7-.7.7h0c-.4,0-.6-.2-.8-.7l-.4-1.1h-2.5l-.4,1.1c0,.5-.4.7-.8.7s-.7-.2-.7-.6h0c0-.1.2-.1.2-.1ZM765.1,472l-.9-2.9h0l-.9,2.9h1.8Z"/>
        <path class="cls-4" d="M770.2,474.2v-5.6c0-.5.3-.9.8-1h.2c.5,0,.9.3,1,.8l1.8,4.3h0l1.7-4.3c0-.5.5-.8,1-.8s.9.3,1,.7v5.8c0,.4-.3.7-.7.7s-.7-.3-.7-.7v-4.1h0l-1.8,4.3c0,.3-.3.5-.6.5s-.6-.2-.6-.4l-1.8-4.3h0v4.2c0,.4-.2.7-.6.7s-.7-.2-.7-.6v-.2h0Z"/>
        <path class="cls-4" d="M778.4,473.3c0-1,.7-1.5,2-1.6h1.3v-.4c0-.4-.3-.8-.8-.8h0c-.4,0-.8.2-1,.5,0,.2-.3.3-.6.3s-.6-.2-.6-.5h0v-.3c.2-.6,1.1-1,2.2-1s2.2.7,2.2,1.8v3c0,.4-.2.7-.6.7h0c-.3,0-.7-.2-.7-.6h0v-.3h0c-.3.6-.9.9-1.6.9s-1.7-.6-1.8-1.5h0c0-.1.2-.2.2-.2ZM781.8,472.9v-.4h-1.1c-.5,0-.8.4-.8.7s.3.6.8.6,1-.4,1.1-.9h0Z"/>
        <path class="cls-4" d="M784,468.2c0-.4.3-.8.8-.8s.8.3.8.8-.3.8-.8.8-.8-.3-.8-.8ZM784,474.2v-4c0-.4.3-.7.7-.7s.7.3.7.7h0v4c0,.4-.3.7-.7.7s-.7-.3-.7-.7h0Z"/>
        <path class="cls-4" d="M786.4,474.2v-4c0-.4.2-.7.6-.7h0c.4,0,.7.3.7.6h0v.4h0c.3-.6.9-1.1,1.6-1,1,0,1.8.7,1.8,1.6v3.1c0,.4-.2.8-.6.8s-.8-.2-.8-.6v-2.6c0-.7-.3-1.1-1-1.1s-1,.4-1,1v2.6c0,.4-.2.8-.6.8s-.8-.2-.8-.6v-.2h0Z"/>
        <path class="cls-4" d="M830.1,174.3v-5.5c0-.4.2-.7.6-.8h3.4c.3,0,.6.2.7.5h0c0,.4-.3.7-.6.7h-2.6v1.7h2.5c.3,0,.6.2.6.5h0c0,.3-.2.6-.5.6h-2.5v1.8h2.6c.3,0,.6.3.6.6s-.3.6-.6.6h-3.3c-.4,0-.7-.3-.7-.6h0c0-.1-.2-.1-.2-.1Z"/>
        <path class="cls-4" d="M835.7,174.5v-5.8c0-.4.3-.7.7-.7s.7.3.7.7v5.8c0,.4-.3.7-.7.7s-.7-.3-.7-.7h0Z"/>
        <path class="cls-4" d="M838.1,174.5v-5.8c0-.4.2-.8.6-.8s.8.2.8.6v2.3h0c.3-.6.9-1,1.6-1,1.3,0,2.1,1,2.1,2.7s-.8,2.7-2.1,2.7-1.3-.4-1.6-1h0v.3c0,.4-.2.7-.6.7h0c-.4,0-.7-.2-.7-.6h0q0-.1,0,0ZM841.9,172.5c0-1-.4-1.5-1.2-1.5s-1.2.6-1.2,1.5.5,1.6,1.2,1.6,1.2-.6,1.2-1.6Z"/>
        <path class="cls-4" d="M843.9,172.5c0-1.4,1.3-2.5,2.7-2.4s2.5,1.3,2.4,2.7c0,1.4-1.2,2.4-2.6,2.4s-2.5-1-2.6-2.4v-.4h0ZM847.6,172.5c0-1-.4-1.6-1.1-1.6s-1.2.6-1.2,1.6.4,1.6,1.2,1.6,1.1-.6,1.1-1.6Z"/>
        <path class="cls-4" d="M850.6,174.5l-1-3.6v-.4c0-.3.3-.6.6-.6h0c.3,0,.6.3.7.6l.8,3.4h0l.8-3.3c0-.4.5-.7,1-.6.3,0,.6.3.6.6l.8,3.3h0l.8-3.4c0-.3.3-.6.7-.6s.6.2.7.5h0v.4l-1,3.6c0,.4-.5.8-.9.8s-.9-.3-.9-.7h0l-.8-3h0l-.8,3.1c0,.5-.6.8-1.1.7-.4,0-.6-.4-.7-.7h-.3Z"/>
        <path class="cls-4" d="M847.1,563.5c0-2.3,1.3-3.6,3.3-3.6s2.3.5,2.8,1.6c0,.2,0,.4.2.5,0,.3-.2.6-.6.6h0c-.3,0-.6-.2-.7-.5-.3-.7-.9-1.1-1.6-1.1-1.1,0-1.8.9-1.8,2.4s.7,2.4,1.8,2.4,1.3-.4,1.6-1c0-.3.4-.5.7-.5s.7.2.7.6h0c0,.2,0,.3,0,.5-.5,1-1.7,1.7-2.8,1.6-2.1,0-3.4-1.4-3.4-3.7v.2Z"/>
        <path class="cls-4" d="M854.1,565.5c0-1,.7-1.5,2-1.6h1.3v-.4c0-.5-.3-.8-.9-.8s-.8.2-1,.5c0,.2-.3.3-.6.3s-.6-.2-.6-.5h0v-.3c.5-.7,1.3-1.1,2.2-1,1.3,0,2.2.7,2.2,1.8v3c0,.4-.2.7-.6.7h0c-.4,0-.7-.2-.7-.6h0v-.3h0c-.3.6-.9.9-1.6.9s-1.7-.6-1.8-1.5h0c0,0,.2-.2.2-.2ZM857.5,565.1v-.4h-1.1c-.5,0-.8.3-.8.7s.3.6.8.6,1.1-.4,1.1-.9h0Z"/>
        <path class="cls-4" d="M860.2,566.3v-3.5h-.3c-.3,0-.5-.2-.5-.5h0c0-.3.2-.5.5-.5h.3v-.4c0-.7.4-1.4,1.1-1.5h.4c.8,0,1.1.2,1.1.6s0,.3-.3.4h-.3c-.4,0-.6.2-.6.6v.3h.6c.3,0,.5.2.5.5h0c0,.3-.2.5-.5.5h-.6v3.5c0,.4-.3.7-.7.7s-.7-.3-.7-.7h0Z"/>
        <path class="cls-4" d="M863,564.4c-.2-1.4.8-2.6,2.2-2.7h.4c1.3,0,2.4.9,2.5,2.2v.2c0,.3-.2.6-.5.6h-3.1c0,.7.4,1.3,1,1.3h.2c.5,0,1-.2,1.2-.6,0,0,.3-.2.5-.2.3,0,.5.2.5.5h0v.3c-.5.7-1.3,1.1-2.2,1-1.3,0-2.5-.9-2.6-2.3v-.4h-.1ZM866.7,563.8c0-.6-.4-1.1-1-1.1h0c-.6,0-1.1.5-1.1,1.1h2.2-.1Z"/>
        <path class="cls-4" d="M758.5,110.5v-.4c0-.3.2-.6.6-.6h0c.3,0,.6.2.7.4.3.5.9.9,1.5.8.8,0,1.3-.4,1.3-.9s-.3-.7-1.2-.9h-.8c-1.4-.4-2.1-1.1-2.1-2.1s1.1-2.1,2.7-2.1c1.1,0,2.1.5,2.6,1.5v.3c0,.3-.2.6-.6.6h0c-.3,0-.6-.2-.7-.4-.2-.5-.7-.8-1.3-.8s-1.2.3-1.2.9.3.7,1.2.9h.7c1.5.4,2.1,1,2.1,2.1s-1.1,2.2-2.8,2.2-2.3-.6-2.6-1.4h-.1Z"/>
        <path class="cls-4" d="M764.6,109.2c0-1.4.8-2.6,2.2-2.7h.4c.9,0,1.8.4,2.2,1.2v.4c0,.3-.3.6-.6.6h0c-.3,0-.5,0-.6-.4-.2-.4-.6-.7-1-.7-.7,0-1.2.6-1.2,1.6s.4,1.6,1.2,1.6.8-.2,1-.6c0-.3.4-.4.7-.4s.6.2.6.5h0v.4c-.4.8-1.3,1.3-2.2,1.2-1.4,0-2.5-1-2.6-2.3v-.4h-.1Z"/>
        <path class="cls-4" d="M770.3,111.1v-4c0-.4.2-.7.6-.8s.7.2.8.6v.5h0c0-.6.5-1,1.1-1s.3,0,.5,0c0,0,.2.3.2.5s0,.4-.2.5-.4.2-.6.2c-.7,0-.9.4-.9,1v2.3c0,.4-.2.7-.6.7h0c-.4,0-.7-.3-.7-.7h0Z"/>
        <path class="cls-4" d="M773.5,109.2c-.2-1.4.8-2.6,2.2-2.7h.4c1.3,0,2.4.9,2.5,2.2v.2c0,.3-.2.6-.5.6h-3.1c0,.7.4,1.3,1,1.3h.2c.5,0,1-.2,1.2-.6,0,0,.3-.2.5-.2.3,0,.5.2.5.5h0v.3c-.5.7-1.3,1.1-2.2,1-1.3,0-2.5-.9-2.6-2.3v-.4h-.1ZM777.2,108.6c0-.6-.4-1.1-1-1.1h0c-.6,0-1.1.5-1.1,1.1h2.2-.1Z"/>
        <path class="cls-4" d="M779.1,109.2c-.2-1.4.8-2.6,2.2-2.7h.4c1.3,0,2.4.9,2.5,2.2v.2c0,.3-.2.6-.5.6h-3.1c0,.7.4,1.3,1,1.3h.2c.5,0,1-.2,1.2-.6,0,0,.3-.2.5-.2.3,0,.5.2.6.5h0v.3c-.5.7-1.3,1.1-2.2,1-1.3,0-2.5-.9-2.6-2.3v-.4h-.2ZM782.7,108.6c0-.6-.4-1.1-1-1.1h0c-.6,0-1.1.5-1.1,1.1h2.2-.1Z"/>
        <path class="cls-4" d="M784.8,111.1v-4c0-.4.2-.7.6-.7h0c.4,0,.7.3.7.6h0v.3h0c.3-.7.9-1.1,1.6-1,1,0,1.8.7,1.8,1.6v3.1c0,.4-.3.7-.7.7s-.7-.3-.7-.7h0v-2.4c0-.7-.3-1.1-1-1.1s-1,.4-1,1h0v2.5c0,.4-.2.7-.6.7h0c-.4,0-.7-.3-.7-.7h0Z"/>
        <path class="cls-4" d="M790.5,110.8v-.3c0-.3.2-.5.5-.6h0c.2,0,.5,0,.6.3.3.4.7.6,1.1.5.5,0,.9-.2.9-.6s-.2-.4-.7-.5l-.9-.2c-1-.2-1.5-.7-1.5-1.5s.9-1.6,2.2-1.6,1.6.3,2,1.1v.2c0,.3-.2.5-.5.5s-.4,0-.5-.2c-.2-.4-.6-.6-1-.6s-.8.2-.8.6.2.5.7.6l.9.2c1.1.2,1.6.6,1.6,1.4s-.9,1.7-2.3,1.7-1.9-.4-2.2-1.1h0Z"/>
        <path class="cls-4" d="M631,226.8v-5.7c0-.4.3-.7.7-.7s.7.3.7.7h0v2.2h3.2v-2.2c0-.4.3-.7.7-.7s.7.3.7.7h0v5.7c0,.4-.3.7-.7.7s-.7-.3-.7-.7h0v-2.3h-3.2v2.3c0,.4-.3.7-.7.7s-.7-.3-.7-.7h0Z"/>
        <path class="cls-4" d="M638,224.9c-.2-1.4.8-2.6,2.2-2.7h.4c1.3,0,2.4.9,2.5,2.2v.2c0,.3-.2.6-.5.6h-3.1c0,.7.4,1.3,1,1.3h.2c.5,0,1-.2,1.2-.6,0-.1.3-.2.5-.2.3,0,.5.2.6.5h0v.4c-.5.7-1.3,1.1-2.2,1-1.3,0-2.5-.9-2.6-2.3v-.4h-.2ZM641.7,224.3c0-.6-.4-1.1-1-1.1h0c-.6,0-1.1.5-1.2,1.1h2.3,0Z"/>
        <path class="cls-4" d="M643.6,226c0-1,.7-1.5,2-1.6h1.3v-.4c0-.5-.3-.8-.9-.8s-.8.2-1,.5c0,.2-.4.3-.6.3-.3,0-.6-.2-.6-.5h0v-.3c.2-.6,1.1-1,2.2-1s2.2.7,2.2,1.8v3c0,.4-.2.7-.6.7h0c-.3,0-.7-.2-.7-.6h0v-.3h0c-.3.6-1,.9-1.6.9-.9,0-1.7-.6-1.7-1.5h0c0-.1,0-.2,0-.2ZM646.9,225.5v-.4h-1.1c-.5,0-.8.4-.8.7s.3.6.8.6,1.1-.3,1.1-.8h0Z"/>
        <path class="cls-4" d="M650.4,226.8l-1.4-3.6v-.4c0-.4.3-.6.7-.6h0c.3,0,.6.2.7.6l1,3.5h0l1.1-3.5c0-.4.5-.6.8-.5.3,0,.5.3.5.6v.4l-1.3,3.7c0,.4-.5.7-1,.7s-.9-.3-1-.7v-.2Z"/>
        <path class="cls-4" d="M654.2,224.9c-.2-1.4.8-2.6,2.2-2.7h.4c1.3,0,2.4.9,2.5,2.2v.2c0,.3-.2.6-.5.6h-3.1c0,.7.4,1.3,1,1.3h0c.5,0,1-.2,1.2-.6,0-.1.3-.2.5-.2.3,0,.5.2.6.5h0v.4c-.5.7-1.3,1.1-2.2,1-1.3,0-2.5-.9-2.6-2.3v-.4h-.1ZM657.8,224.3c0-.6-.4-1.1-1-1.1h0c-.6,0-1.1.5-1.1,1.1h2.2-.1Z"/>
        <path class="cls-4" d="M659.9,226.8v-4c0-.4.2-.7.6-.7h0c.4,0,.7.2.7.6h0v.4h0c.3-.6.9-1.1,1.6-1,1,0,1.8.7,1.8,1.6v3.1c0,.4-.2.7-.6.7h0c-.4,0-.7-.3-.7-.6h0v-2.5c0-.7-.3-1.1-1-1.1s-1,.4-1,1v2.6c0,.4-.2.8-.6.8s-.8-.2-.8-.6v-.2h0Z"/>
        <path class="cls-4" d="M652.9,617.5v-.4c0-.3.2-.6.6-.7h0c.3,0,.6.2.7.4.3.5.9.8,1.5.8s1.3-.4,1.3-.9-.3-.7-1.2-.9l-.7-.2c-1.4-.3-2.1-1-2.1-2s1.1-2.1,2.7-2.1c1.1,0,2.1.5,2.6,1.5v.3c0,.3-.2.6-.6.6h0c-.3,0-.6-.2-.7-.4-.2-.5-.8-.8-1.3-.8s-1.2.3-1.2.9.3.7,1.2.9l.8.2c1.5.3,2.1.9,2.1,2s-1.1,2.2-2.8,2.2-2.4-.6-2.7-1.4h-.2Z"/>
        <path class="cls-4" d="M659,616.2c-.2-1.4.8-2.6,2.2-2.7h.4c1.3,0,2.4.9,2.5,2.2v.2c0,.3-.2.6-.5.6h-3.1c0,.7.4,1.3,1,1.3h.2c.5,0,1-.2,1.2-.6,0,0,.3-.2.5-.2.3,0,.5.2.5.5h0v.3c-.5.7-1.3,1.1-2.2,1-1.3,0-2.5-.9-2.6-2.3v-.4h-.1ZM662.7,615.6c0-.6-.4-1.1-1-1.1h0c-.6,0-1.1.5-1.1,1.1h2.2-.1Z"/>
        <path class="cls-4" d="M665.6,618.1l-1-3.7v-.4c0-.3.3-.6.6-.6h0c.3,0,.6.3.7.6l.8,3.4h0l.8-3.3c0-.4.5-.7,1-.6.3,0,.6.3.6.6l.8,3.3h0l.8-3.4c0-.3.3-.6.7-.6s.6.2.7.5h0v.4l-1,3.6c0,.5-.5.8-.9.8s-.9-.3-.9-.8h0l-.8-3h0l-.8,3c0,.5-.5.8-.9.8s-.8-.3-.9-.8l-.3.2Z"/>
        <path class="cls-4" d="M672.4,616.2c-.2-1.4.8-2.6,2.2-2.7h.3c1.3,0,2.4.9,2.5,2.2v.2c0,.3-.2.6-.5.6h-3.1c0,.7.4,1.3,1,1.3h.2c.5,0,1-.2,1.2-.6,0,0,.3-.2.5-.2.3,0,.5.2.6.5h0v.3c-.5.7-1.3,1.1-2.2,1-1.3,0-2.5-.9-2.6-2.3v-.4h-.1ZM676,615.6c0-.6-.4-1.1-1-1.1h0c-.6,0-1.1.5-1.1,1.1h2.2-.1Z"/>
        <path class="cls-4" d="M678.1,618.1v-4c0-.4.2-.7.6-.7h0c.4,0,.7.3.7.6h0v.3h0c0-.6.5-1,1.1-1s.3,0,.4,0c.2,0,.2.3.2.5s0,.4-.2.5-.4.2-.6.2c-.7,0-.9.4-.9,1v2.3c0,.4-.3.7-.7.7s-.7-.3-.7-.7h0v.2Z"/>
        <path class="cls-4" d="M681.6,617.8v-.3c0-.3.2-.5.5-.6h0c.2,0,.5,0,.6.3.3.4.7.6,1.1.5.5,0,.9-.2.9-.6s-.2-.4-.7-.5l-.9-.2c-1-.2-1.5-.7-1.5-1.5s.9-1.6,2.2-1.6c.8,0,1.7.3,2.1,1.1v.2c0,.3-.2.5-.5.5s-.4,0-.5-.2c-.2-.3-.6-.6-1-.6s-.8.2-.8.6.2.5.7.6l.9.2c1.1.2,1.6.6,1.6,1.4s-.9,1.7-2.3,1.7-2-.4-2.3-1h0Z"/>
        <path class="cls-4" d="M618.6,454.4v-5.6c0-.4.2-.7.6-.8h2.3c1.6,0,2.5.8,2.5,2.2s-.4,1.6-1.2,2l1,1.8c0,.2.2.3.2.5,0,.4-.3.7-.7.7h0c-.3,0-.5-.1-.8-.6l-1.1-2.2h-1.2v1.9c0,.4-.3.7-.7.7s-.7-.3-.7-.7h-.2ZM621.4,451.4c.6,0,1.1-.4,1.2-.9v-.2c0-.6-.4-1.1-1-1.1h-1.3v2.2h1.2-.1Z"/>
        <path class="cls-4" d="M624.7,453.5c0-1,.7-1.5,2-1.6h1.3v-.4c0-.5-.3-.8-.9-.8s-.8.2-1,.5c0,.2-.3.3-.6.3s-.6-.2-.6-.5h0v-.3c.2-.6,1.1-1,2.2-1s2.2.7,2.2,1.7v3c0,.4-.2.7-.6.7h0c-.3,0-.6-.2-.7-.6h0v-.3h0c-.4.6-1,.9-1.6.9-.9,0-1.7-.6-1.7-1.5h0ZM628,453.1v-.4h-1.1c-.5,0-.8.4-.8.7s.3.6.8.6,1.1-.4,1.1-1h0Z"/>
        <path class="cls-4" d="M630.4,454.4v-4c0-.4.3-.7.7-.7s.7.3.7.7v.3h0c.2-.6.8-1,1.5-1s1.3.4,1.5,1.1h0c.2-.7.9-1.1,1.7-1.1s1.7.7,1.7,1.6v3.1c0,.4-.2.8-.6.8s-.8-.2-.8-.6v-2.8c0-.6-.3-.9-.8-.9s-.9.4-.9.9h0v2.6c0,.4-.2.7-.5.7h0c-.4,0-.7-.3-.7-.8v-2.6c0-.4-.3-.8-.7-.9h0c-.5,0-.9.4-.9.9h0v2.6c0,.4-.2.7-.6.7h0c-.4,0-.7-.3-.7-.6v-.2l-.3.2Z"/>
        <path class="cls-4" d="M639,456.2v-5.7c0-.4.2-.7.6-.8.4,0,.7.2.8.6v.5h0c.3-.6.9-1,1.6-1,1.3,0,2.1,1,2.1,2.7s-.8,2.7-2.1,2.7-1.3-.4-1.6-1h0v2c0,.4-.2.7-.6.7h0c-.4,0-.7-.3-.7-.6h0ZM642.7,452.4c0-1-.5-1.6-1.2-1.6s-1.2.6-1.2,1.6.5,1.5,1.2,1.5,1.2-.6,1.2-1.5Z"/>
        <path class="cls-4" d="M151.8,276.8v-16c-.1-1.1.7-2.1,1.8-2.2h7.2c3.8,0,6.2,2,6.2,5.1s-1.6,4.1-3.8,4.4h0c2.7.2,4.8,2.4,4.8,5.1s-2.7,5.9-7.1,5.9h-6.9c-1.1,0-2.1-.7-2.1-1.8v-.4h0ZM159.1,267.1c2.3,0,3.6-1,3.6-2.7s-1.1-2.6-3.1-2.6h-3.5v5.3h3.1-.1ZM159.7,275.8c2.5,0,3.8-1,3.8-3s-1.4-2.9-3.9-2.9h-3.6v5.9h3.7Z"/>
        <path class="cls-4" d="M911.9,239.3c-1.1,0-1.8-.6-2.2-1.9l-1.1-3.2h-7.4l-1.1,3.2c-.4,1.3-1,1.9-2.2,1.9s-2.1-.8-2.1-1.9h0c0-.6,0-1,.3-1.5l5.6-15.2c.5-1.8,2.4-2.8,4.2-2.3,1.1.3,1.9,1.2,2.3,2.3l5.6,15.2c.2.4.3.9.3,1.4,0,1.1-.9,2-2,2h-.2,0ZM907.7,230.9l-2.6-8.4h0l-2.7,8.4h5.4-.1Z"/>
        <path class="cls-4" d="M428,522.7v-5.6c0-.5.3-.9.7-1h.2c.5,0,.9.3,1,.8l1.8,4.3h0l1.7-4.3c.1-.5.5-.8,1-.8s.9.3,1,.8v5.8c0,.4-.3.7-.7.7s-.7-.3-.7-.7v-4.2h0l-1.7,4.3c-.1.4-.5.5-.8.4-.2,0-.4-.2-.4-.4l-1.7-4.3h0v4.2c0,.4-.2.7-.6.7s-.7-.2-.7-.6v-.2h0Z"/>
        <path class="cls-4" d="M436.5,516.7c0-.4.3-.7.7-.7h0c.4,0,.7.3.7.7s-.3.7-.7.7h0c-.4,0-.7-.3-.8-.7h0ZM436.5,522.7v-4c0-.4.2-.7.6-.7h.1c.4,0,.7.3.7.6h0v4.1c0,.4-.2.7-.6.7h-.1c-.4,0-.7-.3-.7-.7h0Z"/>
        <path class="cls-4" d="M438.7,520.7c0-1.7.8-2.7,2.2-2.7s1.3.4,1.6,1h0v-2.1c0-.4.2-.7.6-.7h.1c.4,0,.7.3.7.6h0v5.9c0,.4-.2.7-.6.7h-.1c-.4,0-.7-.2-.7-.6h0v-.4h0c-.3.6-.9,1-1.6,1-1.3,0-2.1-1-2.1-2.7h-.1ZM442.5,520.7c0-1-.5-1.6-1.2-1.6s-1.2.6-1.2,1.6.4,1.5,1.2,1.5,1.2-.6,1.2-1.5h0Z"/>
      </g>
    </g>
  </g>
</svg>