<?xml version="1.0" encoding="UTF-8" standalone="no"?>
<svg
   version="1.1"
   viewBox="0 0 948.1 892.1"
   id="svg269"
   sodipodi:docname="split.svg"
   inkscape:version="1.4.2 (f4327f4, 2025-05-13)"
   xmlns:inkscape="http://www.inkscape.org/namespaces/inkscape"
   xmlns:sodipodi="http://sodipodi.sourceforge.net/DTD/sodipodi-0.dtd"
   xmlns="http://www.w3.org/2000/svg"
   xmlns:svg="http://www.w3.org/2000/svg">
  <sodipodi:namedview
     id="namedview269"
     pagecolor="#505050"
     bordercolor="#eeeeee"
     borderopacity="1"
     inkscape:showpageshadow="0"
     inkscape:pageopacity="0"
     inkscape:pagecheckerboard="0"
     inkscape:deskcolor="#505050"
     inkscape:zoom="0.90460713"
     inkscape:cx="474.23902"
     inkscape:cy="446.04999"
     inkscape:window-width="1920"
     inkscape:window-height="1009"
     inkscape:window-x="1912"
     inkscape:window-y="-8"
     inkscape:window-maximized="1"
     inkscape:current-layer="svg269" />
  <defs
     id="defs1">
    <style
       id="style1">
      .cls-1 {
        fill: #003455;
      }

      .cls-2 {
        fill: #3d3d3d;
      }

      .cls-3 {
        fill: #7e7f7e;
      }

      .cls-4 {
        fill: #fff;
      }

      .cls-5 {
        fill: #535353;
      }
    </style>
  </defs>
  <!-- Generator: Adobe Illustrator 28.6.0, SVG Export Plug-In . SVG Version: 1.2.0 Build 709)  -->
  <g
     id="Callouts_copy-4"
     transform="translate(0.40844176,0.8069348)">
    <path
       class="cls-4"
       d="m 390.5,862.6 c 0,-0.2 0,-0.4 0.1,-0.6 l 2.5,-6.8 c 0.2,-0.8 1.1,-1.3 1.9,-1 0.5,0 0.9,0.5 1,1 l 2.5,6.8 c 0,0.2 0.1,0.4 0.1,0.6 0,0.5 -0.4,0.9 -0.9,0.9 h -0.1 c -0.5,0 -0.8,-0.2 -1,-0.8 l -0.5,-1.4 h -3.3 l -0.5,1.4 c -0.2,0.6 -0.5,0.9 -1,0.9 -0.5,0 -0.9,-0.4 -0.9,-0.8 v 0 -0.2 z m 5.3,-2.8 -1.2,-3.8 v 0 l -1.2,3.8 z"
       id="path161"
       style="fill:#ffffff" />
    <path
       class="cls-4"
       d="m 399.7,858 h -0.3 c -0.4,0 -0.7,-0.3 -0.7,-0.7 0,-0.4 0.3,-0.7 0.7,-0.7 h 0.3 v -0.8 c 0,-0.5 0.4,-0.9 0.9,-0.9 0.5,0 0.9,0.4 0.9,0.9 v 0 0.8 h 0.7 c 0.4,0 0.7,0.3 0.7,0.7 0,0.4 -0.3,0.7 -0.7,0.7 h -0.7 v 3.2 c 0,0.5 0.2,0.7 0.6,0.7 h 0.1 c 0.5,0 0.7,0.2 0.7,0.7 0,0.5 -0.5,0.8 -1.3,0.8 v 0 c -0.9,0 -1.7,-0.5 -1.9,-1.4 v -4.1 0 z"
       id="path162"
       style="fill:#ffffff" />
    <path
       class="cls-4"
       d="M 404.3,858 H 404 c -0.4,0 -0.7,-0.3 -0.7,-0.7 0,-0.4 0.3,-0.7 0.7,-0.7 h 0.3 v -0.8 c 0,-0.5 0.4,-0.9 0.9,-0.9 0.5,0 0.9,0.4 0.9,0.9 v 0 0.8 h 0.7 c 0.4,0 0.7,0.3 0.7,0.7 0,0.4 -0.3,0.7 -0.7,0.7 h -0.7 v 3.2 c 0,0.5 0.2,0.7 0.6,0.7 h 0.1 c 0.5,0 0.7,0.2 0.7,0.7 0,0.5 -0.5,0.8 -1.3,0.8 v 0 c -0.9,0 -1.7,-0.5 -1.9,-1.4 v -4.1 0 z"
       id="path163"
       style="fill:#ffffff" />
    <path
       class="cls-4"
       d="m 408.1,861.5 c 0,-1.2 1,-2 2.7,-2.1 h 1.7 v -0.5 c 0,-0.6 -0.5,-1 -1.2,-1 -0.7,0 -1,0.3 -1.3,0.7 -0.2,0.2 -0.4,0.4 -0.7,0.3 -0.4,0 -0.7,-0.3 -0.8,-0.7 v 0 -0.4 c 0.3,-0.8 1.4,-1.3 2.8,-1.3 1.4,0 2.9,0.9 2.9,2.3 v 3.9 c 0,0.5 -0.3,0.9 -0.8,0.9 h -0.1 c -0.5,0 -0.8,-0.3 -0.9,-0.7 v 0 -0.3 0 c -0.4,0.7 -1.2,1.2 -2.1,1.2 -1.2,0 -2.2,-0.7 -2.3,-1.9 v -0.4 z m 4.4,-0.6 v -0.5 h -1.4 c -0.7,0 -1.1,0.5 -1.1,0.9 0,0.4 0.4,0.8 1,0.8 0.6,0 1.4,-0.4 1.5,-1.2 z"
       id="path164"
       style="fill:#ffffff" />
    <path
       class="cls-4"
       d="m 415.2,860 c -0.2,-1.8 1.1,-3.4 2.9,-3.5 h 0.5 c 1.2,0 2.3,0.6 2.9,1.6 v 0.5 c 0,0.4 -0.3,0.7 -0.7,0.7 v 0 c -0.3,0 -0.6,-0.2 -0.8,-0.5 -0.2,-0.5 -0.8,-0.9 -1.3,-0.9 -0.9,0 -1.5,0.8 -1.5,2.1 0,1.3 0.6,2.1 1.5,2.1 0.9,0 1.1,-0.3 1.3,-0.8 0.2,-0.4 0.5,-0.6 0.8,-0.6 0.3,0 0.8,0.3 0.8,0.7 v 0 c 0,0.2 0,0.3 -0.1,0.5 -0.6,1 -1.7,1.6 -2.9,1.6 -1.8,0 -3.3,-1.3 -3.4,-3 z"
       id="path165"
       style="fill:#ffffff" />
    <path
       class="cls-4"
       d="m 422.6,862.6 v -7.5 c 0,-0.5 0.3,-1 0.8,-1 0.5,0 1,0.3 1,0.8 v 4.4 0 l 2.5,-2.5 c 0.2,-0.2 0.5,-0.4 0.7,-0.4 0.4,0 0.8,0.3 0.8,0.8 v 0 c 0,0.3 -0.1,0.5 -0.3,0.7 l -1.7,1.6 1.9,2.4 c 0.2,0.2 0.3,0.4 0.3,0.7 0,0.5 -0.3,0.8 -0.8,0.8 v 0 c -0.4,0 -0.6,0 -0.9,-0.6 l -1.8,-2.3 -0.6,0.6 v 1.4 c 0,0.5 -0.3,1 -0.8,1 -0.5,0 -1,-0.3 -1,-0.8 v -0.2 h -0.1 z"
       id="path166"
       style="fill:#ffffff" />
    <path
       class="cls-4"
       d="m 429,860 c 0,-2.2 1.3,-3.6 3.3,-3.6 2,0 3.1,1.2 3.2,2.9 v 0.3 c 0,0.4 -0.3,0.8 -0.7,0.8 h -4 c 0,0.9 0.5,1.7 1.3,1.7 h 0.2 c 0.6,0 1.3,-0.3 1.6,-0.8 0.1,-0.2 0.4,-0.3 0.6,-0.3 0.4,0 0.7,0.3 0.7,0.6 v 0 c 0,0.2 0,0.3 -0.1,0.4 -0.6,0.9 -1.7,1.4 -2.8,1.3 -2.1,0 -3.4,-1.3 -3.4,-3.5 v 0.2 z m 4.7,-0.7 c 0,-0.8 -0.6,-1.4 -1.3,-1.5 v 0 c -0.8,0 -1.5,0.7 -1.5,1.5 h 2.9 z"
       id="path167"
       style="fill:#ffffff" />
    <path
       class="cls-4"
       d="m 436.5,862.6 v -5.2 c 0,-0.5 0.3,-0.9 0.8,-0.9 h 0.1 c 0.5,0 0.9,0.3 0.9,0.8 v 0 0.5 0 c 0,-0.7 0.7,-1.3 1.4,-1.3 0.7,0 0.4,0 0.6,0.2 0.2,0.2 0.3,0.4 0.3,0.7 0,0.3 0,0.5 -0.3,0.7 -0.2,0.2 -0.5,0.3 -0.8,0.2 -0.8,0 -1.2,0.5 -1.2,1.3 v 3 c 0,0.5 -0.3,1 -0.8,1 -0.5,0 -1,-0.3 -1,-0.8 z"
       id="path168"
       style="fill:#ffffff" />
    <path
       class="cls-4"
       d="m 443.8,861.8 c 0,-0.2 -0.1,-0.3 0,-0.5 0,-0.4 0.3,-0.8 0.8,-0.8 v 0 c 0.4,0 0.7,0.2 0.9,0.6 0.4,0.7 1.1,1.1 1.9,1 1,0 1.7,-0.5 1.7,-1.2 0,-0.7 -0.4,-1 -1.6,-1.2 l -1,-0.2 c -1.8,-0.4 -2.7,-1.2 -2.7,-2.6 0,-1.4 1.5,-2.8 3.5,-2.8 2,0 2.9,0.7 3.3,1.9 v 0.4 c 0,0.4 -0.3,0.8 -0.7,0.8 v 0 c -0.4,0 -0.8,-0.2 -0.9,-0.6 -0.3,-0.7 -1,-1.1 -1.7,-1 -0.9,0 -1.6,0.4 -1.6,1.1 0,0.7 0.4,0.9 1.5,1.1 l 1,0.2 c 1.9,0.4 2.8,1.2 2.8,2.6 0,1.4 -1.4,2.9 -3.7,2.9 -2.3,0 -3.1,-0.7 -3.5,-1.7 z"
       id="path169"
       style="fill:#ffffff" />
    <path
       class="cls-4"
       d="m 452,864.9 v -7.4 c 0,-0.5 0.2,-0.9 0.7,-1 h 0.2 c 0.5,0 0.9,0.3 0.9,0.8 v 0.6 0 c 0.4,-0.8 1.2,-1.3 2.1,-1.3 1.7,0 2.8,1.3 2.8,3.5 0,2.2 -1.1,3.5 -2.8,3.5 -1.7,0 -1.7,-0.4 -2.1,-1.2 v 0 2.6 c 0,0.5 -0.3,1 -0.8,1 -0.5,0 -1,-0.3 -1,-0.8 v -0.2 0 z m 4.8,-4.9 c 0,-1.2 -0.6,-2 -1.5,-2 -0.9,0 -1.5,0.8 -1.5,2 0,1.2 0.6,2 1.5,2 0.9,0 1.5,-0.8 1.5,-2 z"
       id="path170"
       style="fill:#ffffff" />
    <path
       class="cls-4"
       d="m 459.4,861.5 c 0,-1.2 1,-2 2.7,-2.1 h 1.7 v -0.5 c 0,-0.6 -0.4,-1 -1.1,-1 -0.7,0 -1,0.3 -1.3,0.7 -0.2,0.2 -0.5,0.3 -0.7,0.3 -0.4,0 -0.7,-0.3 -0.8,-0.6 v 0 -0.4 c 0.3,-0.8 1.4,-1.3 2.8,-1.3 1.4,0 2.9,0.9 2.9,2.3 v 3.9 c 0,0.5 -0.3,0.9 -0.8,0.9 h -0.1 c -0.5,0 -0.8,-0.3 -0.9,-0.7 v 0 -0.3 0 c -0.4,0.7 -1.2,1.2 -2.1,1.2 -1.2,0 -2.2,-0.7 -2.3,-1.9 z m 4.4,-0.6 v -0.5 h -1.4 c -0.7,0 -1.1,0.5 -1.1,0.9 0,0.4 0.4,0.8 1,0.8 0.7,0 1.4,-0.4 1.5,-1.2 z"
       id="path171"
       style="fill:#ffffff" />
    <path
       class="cls-4"
       d="m 467.9,862.6 -1.4,-4.8 v -0.6 c 0,-0.5 0.4,-0.8 0.8,-0.8 v 0 c 0.5,0 0.8,0.3 0.9,0.8 l 1,4.4 v 0 l 1.1,-4.3 c 0.1,-0.6 0.7,-0.9 1.2,-0.8 0.4,0 0.8,0.4 0.8,0.8 l 1.1,4.3 v 0 l 1,-4.4 c 0,-0.4 0.4,-0.8 0.9,-0.8 0.5,0 0.8,0.3 0.9,0.7 v 0 0.6 l -1.4,4.8 c 0,0.6 -0.6,1 -1.2,1 -0.6,0 -1.1,-0.4 -1.2,-1 v 0 l -1,-4 v 0 l -1,4 c 0,0.6 -0.6,1.1 -1.2,1 -0.6,0 -1.1,-0.4 -1.2,-1 v 0 z"
       id="path172"
       style="fill:#ffffff" />
    <path
       class="cls-4"
       d="m 477,862.6 v -5.2 c 0,-0.5 0.3,-0.9 0.8,-0.9 h 0.1 c 0.5,0 0.9,0.3 0.9,0.8 v 0 0.5 0 c 0.3,-0.8 1.2,-1.4 2.1,-1.3 1.2,0 2.3,0.9 2.4,2.1 v 4.1 c 0,0.5 -0.3,1 -0.8,1 -0.5,0 -1,-0.3 -1,-0.8 v -3.4 c 0,-0.9 -0.4,-1.4 -1.2,-1.4 -0.8,0 -1.4,0.6 -1.4,1.3 v 3.3 c 0,0.5 -0.4,0.9 -0.9,0.9 -0.5,0 -0.9,-0.4 -0.9,-0.9 H 477 Z"
       id="path173"
       style="fill:#ffffff" />
    <path
       class="cls-4"
       d="m 81.6,506.1 v -5.5 c 0,-0.4 0.2,-0.7 0.6,-0.8 h 2.4 c 1.3,0 2.1,0.7 2.1,1.8 0,1.1 -0.6,1.4 -1.3,1.5 v 0 c 0.9,0 1.7,0.8 1.7,1.7 0,0.9 -0.9,2 -2.4,2 h -2.3 c -0.4,0 -0.7,-0.2 -0.8,-0.6 v 0 q 0,-0.1 0,-0.1 z m 2.5,-3.3 c 0.8,0 1.2,-0.3 1.2,-0.9 0,-0.6 -0.4,-0.9 -1.1,-0.9 H 83 v 1.8 z m 0.3,3 c 0.9,0 1.3,-0.4 1.3,-1 0,-0.6 -0.5,-1 -1.3,-1 h -1.2 v 2 h 1.3 z"
       id="path174"
       style="fill:#ffffff" />
    <path
       class="cls-4"
       d="m 90,506.3 v -5.6 c 0,-0.5 0.3,-0.9 0.7,-1 H 91 c 0.5,0 0.9,0.3 1,0.8 l 1.8,4.3 v 0 l 1.8,-4.3 c 0,-0.5 0.5,-0.8 1,-0.8 0.5,0 0.9,0.3 1,0.8 v 5.8 c 0,0.4 -0.3,0.7 -0.7,0.7 -0.4,0 -0.7,-0.3 -0.7,-0.7 v -4.2 0 l -1.7,4.3 c 0,0.3 -0.3,0.5 -0.6,0.5 -0.3,0 -0.6,-0.2 -0.6,-0.5 l -1.7,-4.3 v 0 4.2 c 0,0.4 -0.3,0.7 -0.7,0.7 -0.4,0 -0.7,-0.3 -0.7,-0.7 z"
       id="path175"
       style="fill:#ffffff" />
    <path
       class="cls-4"
       d="m 98.2,505.4 c 0,-1 0.7,-1.5 2,-1.6 h 1.3 v -0.4 c 0,-0.5 -0.3,-0.8 -0.9,-0.8 -0.6,0 -0.8,0.2 -1,0.5 0,0.2 -0.4,0.3 -0.6,0.3 -0.3,0 -0.6,-0.2 -0.6,-0.5 v 0 -0.3 c 0.2,-0.6 1.1,-1 2.2,-1 1.1,0 2.2,0.7 2.2,1.8 v 3 c 0,0.4 -0.2,0.7 -0.6,0.7 v 0 c -0.3,0 -0.6,-0.2 -0.7,-0.6 v 0 -0.3 0 c -0.3,0.6 -0.9,0.9 -1.6,0.9 -0.7,0 -1.7,-0.6 -1.8,-1.5 v 0 l 0.2,-0.2 z m 3.3,-0.4 v -0.4 h -1.1 c -0.5,0 -0.8,0.4 -0.8,0.7 0,0.3 0.3,0.6 0.8,0.6 0.5,0 1.1,-0.3 1.1,-0.8 v 0 z"
       id="path176"
       style="fill:#ffffff" />
    <path
       class="cls-4"
       d="m 103.9,500.3 c 0,-0.4 0.3,-0.8 0.7,-0.8 0.4,0 0.8,0.3 0.8,0.7 0,0.4 -0.3,0.8 -0.7,0.8 v 0 c -0.4,0 -0.7,-0.3 -0.8,-0.7 z m 0,6 v -4 c 0,-0.4 0.3,-0.7 0.7,-0.7 0.4,0 0.7,0.3 0.7,0.7 v 0 4 c 0,0.4 -0.3,0.7 -0.7,0.7 -0.4,0 -0.7,-0.3 -0.7,-0.7 z"
       id="path177"
       style="fill:#ffffff" />
    <path
       class="cls-4"
       d="m 106.3,506.3 v -4 c 0,-0.4 0.2,-0.7 0.6,-0.7 v 0 c 0.4,0 0.7,0.2 0.7,0.6 v 0 0.4 0 c 0.3,-0.6 0.9,-1.1 1.6,-1 1,0 1.8,0.7 1.8,1.6 v 3.1 c 0,0.4 -0.2,0.7 -0.6,0.7 v 0 c -0.4,0 -0.7,-0.3 -0.7,-0.6 v 0 -2.5 c 0,-0.7 -0.3,-1.1 -1,-1.1 -0.7,0 -1,0.4 -1,1 v 2.6 c 0,0.4 -0.3,0.7 -0.7,0.7 -0.4,0 -0.7,-0.3 -0.7,-0.7 v 0 z"
       id="path178"
       style="fill:#ffffff" />
    <path
       class="cls-4"
       d="m 299.6,591.4 v -5.6 c 0,-0.5 0.2,-0.9 0.7,-1 h 0.3 c 0.5,0 0.9,0.3 1,0.8 l 1.7,4.3 v 0 l 1.8,-4.3 c 0.1,-0.5 0.5,-0.8 1,-0.8 0.5,0 0.9,0.3 0.9,0.8 v 5.8 c 0,0.4 -0.2,0.7 -0.6,0.7 -0.4,0 -0.7,-0.2 -0.7,-0.6 v -4.4 0 l -1.7,4.3 c 0,0.3 -0.3,0.5 -0.6,0.5 -0.3,0 -0.6,-0.2 -0.6,-0.5 l -1.7,-4.3 v 0 4.2 c 0,0.4 -0.3,0.7 -0.7,0.7 -0.4,0 -0.7,-0.3 -0.7,-0.7 v 0 z"
       id="path179"
       style="fill:#ffffff" />
    <path
       class="cls-4"
       d="m 307.8,590.5 c 0,-1 0.7,-1.5 2,-1.6 h 1.3 v -0.4 c 0,-0.5 -0.3,-0.8 -0.9,-0.8 -0.6,0 -0.8,0.2 -1,0.5 -0.1,0.2 -0.4,0.3 -0.6,0.3 -0.3,0 -0.6,-0.2 -0.6,-0.5 v 0 -0.3 c 0.2,-0.6 1.1,-1 2.2,-1 1.1,0 2.2,0.7 2.2,1.8 v 3 c 0,0.4 -0.2,0.7 -0.6,0.7 h -0.1 c -0.3,0 -0.6,-0.2 -0.7,-0.6 v 0 -0.3 0 c -0.3,0.6 -1,0.9 -1.6,0.9 -0.9,0 -1.7,-0.6 -1.7,-1.5 v 0 c 0,0 0.1,-0.2 0.1,-0.2 z m 3.4,-0.4 v -0.4 h -1.1 c -0.5,0 -0.8,0.3 -0.8,0.7 0,0.4 0.3,0.6 0.8,0.6 0.5,0 1.1,-0.3 1.1,-0.8 v 0 z"
       id="path180"
       style="fill:#ffffff" />
    <path
       class="cls-4"
       d="m 313.5,591.4 v -4 c 0,-0.4 0.2,-0.7 0.6,-0.7 h 0.1 c 0.4,0 0.7,0.3 0.7,0.6 v 0 0.4 0 c 0,-0.6 0.5,-1 1.1,-1 0.6,0 0.6,0.2 0.7,0.5 v 0 c 0,0.3 0,0.5 -0.2,0.6 -0.2,0.1 -0.4,0.2 -0.6,0.2 -0.6,0 -0.9,0.4 -0.9,1 v 2.3 c 0,0.4 -0.2,0.8 -0.6,0.8 -0.4,0 -0.8,-0.2 -0.8,-0.6 v -0.2 h -0.1 z"
       id="path181"
       style="fill:#ffffff" />
    <path
       class="cls-4"
       d="m 317.2,591.4 v -5.8 c 0,-0.4 0.2,-0.8 0.6,-0.8 0.4,0 0.8,0.2 0.8,0.6 v 3.4 0 l 1.9,-1.9 c 0.1,-0.2 0.3,-0.3 0.6,-0.3 0.3,0 0.6,0.3 0.6,0.6 v 0 c 0,0.2 0,0.4 -0.3,0.5 l -1.3,1.3 1.5,1.9 c 0.1,0 0.2,0.3 0.2,0.5 0,0.3 -0.3,0.6 -0.6,0.6 v 0 c -0.3,0 -0.5,0 -0.7,-0.4 l -1.3,-1.8 -0.5,0.4 v 1.1 c 0,0.4 -0.2,0.8 -0.6,0.8 -0.4,0 -0.8,-0.2 -0.8,-0.6 v -0.2 h -0.1 z"
       id="path182"
       style="fill:#ffffff" />
    <path
       class="cls-4"
       d="m 322.1,589.4 c -0.2,-1.4 0.8,-2.6 2.2,-2.7 h 0.3 c 1.3,0 2.4,0.9 2.5,2.2 v 0.2 c 0,0.3 -0.2,0.6 -0.5,0.6 h -3.1 c 0,0.7 0.4,1.3 1,1.4 h 0.2 c 0.5,0 1,-0.2 1.2,-0.6 0.1,0 0.3,-0.2 0.5,-0.2 0.3,0 0.5,0.2 0.6,0.5 v 0 0.3 c -0.5,0.7 -1.3,1.1 -2.2,1 -1.3,0 -2.5,-0.9 -2.6,-2.3 v -0.4 z m 3.6,-0.5 c 0,-0.6 -0.4,-1.1 -1,-1.1 v 0 c -0.6,0 -1.1,0.5 -1.1,1.1 h 2.2 z"
       id="path183"
       style="fill:#ffffff" />
    <path
       class="cls-4"
       d="m 328.2,587.9 h -0.3 c -0.3,0 -0.5,-0.2 -0.5,-0.5 0,-0.3 0.2,-0.5 0.5,-0.5 h 0.3 v -0.6 c 0,-0.4 0.3,-0.7 0.7,-0.7 0.4,0 0.7,0.3 0.7,0.7 v 0 0.6 h 0.5 c 0.3,0 0.5,0.2 0.5,0.5 0,0.3 -0.2,0.5 -0.5,0.5 h -0.5 v 2.5 c 0,0.4 0.1,0.5 0.4,0.5 v 0 c 0.3,0 0.5,0.2 0.5,0.5 0,0.3 -0.4,0.6 -1,0.6 v 0 c -0.7,0 -1.3,-0.4 -1.4,-1.1 v -3.1 0 z"
       id="path184"
       style="fill:#ffffff" />
    <path
       class="cls-4"
       d="m 365.6,407.4 v -5.6 c 0,-0.5 0.3,-0.9 0.7,-1 h 0.2 c 0.5,0 0.9,0.3 1,0.8 l 1.8,4.3 v 0 l 1.7,-4.3 c 0.1,-0.5 0.5,-0.8 1,-0.8 0.5,0 0.9,0.2 1,0.7 v 5.9 c 0,0.4 -0.3,0.7 -0.7,0.7 -0.4,0 -0.7,-0.3 -0.7,-0.7 v -4.2 0 l -1.7,4.3 c 0,0.3 -0.3,0.5 -0.6,0.5 -0.3,0 -0.6,-0.2 -0.6,-0.4 l -1.7,-4.3 v 0 4.2 c 0,0.4 -0.2,0.7 -0.6,0.7 -0.4,0 -0.7,-0.2 -0.7,-0.6 v -0.2 0 z"
       id="path185"
       style="fill:#ffffff" />
    <path
       class="cls-4"
       d="m 373.8,406.5 c 0,-1 0.7,-1.5 2,-1.6 h 1.3 v -0.4 c 0,-0.5 -0.3,-0.8 -0.9,-0.8 -0.6,0 -0.8,0.2 -1,0.6 -0.1,0.2 -0.4,0.3 -0.6,0.3 -0.3,0 -0.6,-0.2 -0.6,-0.5 v 0 -0.3 c 0.2,-0.6 1.1,-1 2.2,-1 1.1,0 2.2,0.7 2.2,1.8 v 3 c 0,0.4 -0.2,0.7 -0.6,0.7 h -0.1 c -0.3,0 -0.7,-0.2 -0.7,-0.6 v 0 -0.3 0 c -0.3,0.6 -0.9,0.9 -1.6,0.9 -0.7,0 -1.7,-0.6 -1.8,-1.5 v -0.2 h 0.2 z m 3.4,-0.4 v -0.4 h -1.1 c -0.5,0 -0.8,0.3 -0.8,0.7 0,0.4 0.3,0.6 0.8,0.6 0.5,0 1,-0.3 1.1,-0.9 v 0 c 0,-0.1 0,0 0,0 z"
       id="path186"
       style="fill:#ffffff" />
    <path
       class="cls-4"
       d="m 379.5,401.4 c 0,-0.4 0.3,-0.8 0.8,-0.8 0.5,0 0.8,0.3 0.8,0.8 0,0.5 -0.3,0.8 -0.8,0.8 -0.5,0 -0.8,-0.3 -0.8,-0.8 z m 0,6 v -4 c 0,-0.4 0.3,-0.7 0.7,-0.7 0.4,0 0.7,0.3 0.7,0.7 v 0 4 c 0,0.4 -0.3,0.7 -0.7,0.7 -0.4,0 -0.7,-0.3 -0.7,-0.7 z"
       id="path187"
       style="fill:#ffffff" />
    <path
       class="cls-4"
       d="m 381.9,407.4 v -5.8 c 0,-0.4 0.2,-0.7 0.6,-0.7 h 0.1 c 0.4,0 0.7,0.3 0.7,0.6 v 0 5.9 c 0,0.4 -0.2,0.7 -0.6,0.7 h -0.1 c -0.4,0 -0.7,-0.3 -0.7,-0.6 v 0 z"
       id="path188"
       style="fill:#ffffff" />
    <path
       class="cls-4"
       d="m 282.1,362.5 v -5.7 c 0,-0.4 0.2,-0.8 0.6,-0.8 0.4,0 0.8,0.2 0.8,0.6 v 2.4 h 3.2 v -2.2 c 0,-0.4 0.2,-0.8 0.6,-0.8 0.4,0 0.8,0.2 0.8,0.6 v 5.9 c 0,0.4 -0.2,0.8 -0.6,0.8 -0.4,0 -0.8,-0.2 -0.8,-0.6 v -2.5 h -3.2 v 2.3 c 0,0.4 -0.2,0.8 -0.6,0.8 -0.4,0 -0.8,-0.2 -0.8,-0.6 z"
       id="path189"
       style="fill:#ffffff" />
    <path
       class="cls-4"
       d="m 289.1,360.6 c -0.2,-1.4 0.8,-2.6 2.2,-2.7 h 0.4 c 1.3,0 2.4,0.9 2.5,2.2 v 0.2 c 0,0.3 -0.2,0.6 -0.5,0.6 h -3.1 c 0,0.7 0.4,1.3 1,1.3 h 0.2 c 0.5,0 1,-0.2 1.2,-0.6 0.1,-0.1 0.3,-0.2 0.5,-0.2 0.3,0 0.5,0.2 0.5,0.5 v 0 0.3 c -0.5,0.7 -1.3,1.1 -2.2,1 -1.3,0 -2.5,-0.9 -2.6,-2.3 v -0.4 h -0.1 z m 3.7,-0.6 c 0,-0.6 -0.4,-1.1 -1,-1.1 v 0 c -0.6,0 -1.1,0.5 -1.1,1.1 h 2.2 z"
       id="path190"
       style="fill:#ffffff" />
    <path
       class="cls-4"
       d="m 294.7,361.7 c 0,-1 0.7,-1.5 2,-1.6 h 1.3 v -0.4 c 0,-0.5 -0.3,-0.8 -0.9,-0.8 -0.6,0 -0.8,0.2 -1,0.5 -0.1,0.2 -0.3,0.3 -0.6,0.3 -0.3,0 -0.6,-0.2 -0.6,-0.5 v 0 -0.3 c 0.5,-0.7 1.3,-1.1 2.2,-1 1.3,0 2.2,0.7 2.2,1.8 v 3 c 0,0.4 -0.2,0.7 -0.6,0.7 h -0.1 c -0.3,0 -0.7,-0.2 -0.7,-0.6 v 0 -0.3 0 c -0.3,0.6 -0.9,0.9 -1.6,0.9 -0.7,0 -1.7,-0.6 -1.8,-1.5 v -0.2 z m 3.3,-0.4 v -0.4 h -1.1 c -0.5,0 -0.8,0.4 -0.8,0.7 0,0.3 0.3,0.6 0.8,0.6 0.5,0 1.1,-0.3 1.1,-0.8 v 0 z"
       id="path191"
       style="fill:#ffffff" />
    <path
       class="cls-4"
       d="m 301.5,362.6 -1.4,-3.7 v -0.4 c 0,-0.4 0.3,-0.6 0.7,-0.6 v 0 c 0.3,0 0.6,0.2 0.7,0.6 l 1.1,3.5 v 0 l 1.1,-3.5 c 0,-0.3 0.3,-0.6 0.7,-0.6 0.4,0 0.7,0.2 0.7,0.6 v 0 0.4 l -1.4,3.7 c -0.1,0.5 -0.5,0.8 -1,0.7 -0.5,0 -0.9,-0.3 -1,-0.7 z"
       id="path192"
       style="fill:#ffffff" />
    <path
       class="cls-4"
       d="m 305.2,360.6 c -0.2,-1.4 0.8,-2.6 2.2,-2.7 h 0.4 c 1.3,0 2.4,0.9 2.5,2.2 v 0.2 c 0,0.3 -0.2,0.6 -0.5,0.6 h -3.1 c 0,0.7 0.4,1.3 1.1,1.3 h 0.1 c 0.5,0 1,-0.2 1.2,-0.6 0.1,-0.1 0.3,-0.2 0.5,-0.2 0.3,0 0.5,0.2 0.6,0.5 v 0 0.3 c -0.5,0.7 -1.3,1.1 -2.2,1 -1.3,0 -2.5,-0.9 -2.6,-2.3 v -0.4 h -0.2 z m 3.7,-0.6 c 0,-0.6 -0.4,-1.1 -1,-1.1 v 0 c -0.6,0 -1.1,0.5 -1.1,1.1 h 2.2 z"
       id="path193"
       style="fill:#ffffff" />
    <path
       class="cls-4"
       d="m 311,362.6 v -4 c 0,-0.4 0.2,-0.7 0.6,-0.7 h 0.1 c 0.4,0 0.7,0.2 0.7,0.6 v 0 0.4 0 c 0.3,-0.7 0.9,-1.1 1.6,-1 0.9,0 1.8,0.7 1.8,1.6 v 3.1 c 0,0.4 -0.3,0.7 -0.7,0.7 -0.4,0 -0.7,-0.3 -0.7,-0.7 v 0 -2.5 c 0,-0.7 -0.3,-1.1 -1,-1.1 -0.7,0 -1,0.4 -1,1 v 2.6 c 0,0.4 -0.3,0.7 -0.7,0.7 -0.4,0 -0.7,-0.3 -0.7,-0.7 z"
       id="path194"
       style="fill:#ffffff" />
    <path
       class="cls-4"
       d="m 469.3,366.8 -2,-5.3 v -0.4 c 0,-0.4 0.3,-0.7 0.7,-0.7 v 0 c 0.4,0 0.7,0.2 0.8,0.6 l 1.7,5 v 0 l 1.7,-5.1 c 0,-0.3 0.4,-0.6 0.7,-0.6 0.3,0 0.7,0.2 0.7,0.6 v 0 0.4 l -2,5.3 c -0.1,0.5 -0.6,0.9 -1.1,0.8 -0.5,0 -0.9,-0.3 -1,-0.8 z"
       id="path195"
       style="fill:#ffffff" />
    <path
       class="cls-4"
       d="m 473.4,365 c -0.2,-1.4 0.8,-2.6 2.2,-2.7 h 0.4 c 1.3,0 2.4,0.9 2.5,2.2 v 0.2 c 0,0.3 -0.2,0.6 -0.5,0.6 h -3.1 c 0,0.7 0.4,1.3 1,1.3 h 0.2 c 0.5,0 1,-0.2 1.2,-0.6 0.1,-0.1 0.3,-0.2 0.5,-0.2 0.3,0 0.5,0.2 0.6,0.5 v 0 0.3 c -0.5,0.7 -1.3,1.1 -2.2,1 -1.3,0 -2.5,-0.9 -2.6,-2.3 v -0.4 h -0.2 z m 3.6,-0.6 c 0,-0.6 -0.4,-1.1 -1,-1.1 v 0 c -0.6,0 -1.1,0.5 -1.1,1.1 h 2.2 z"
       id="path196"
       style="fill:#ffffff" />
    <path
       class="cls-4"
       d="m 479.2,366.9 v -4 c 0,-0.4 0.2,-0.7 0.6,-0.7 h 0.1 c 0.4,0 0.7,0.2 0.7,0.6 v 0 0.4 0 c 0.3,-0.7 0.9,-1.1 1.6,-1 0.9,0 1.8,0.7 1.8,1.6 v 3.1 c 0,0.4 -0.3,0.7 -0.7,0.7 -0.4,0 -0.7,-0.3 -0.7,-0.7 v 0 -2.4 c 0,-0.7 -0.3,-1.1 -1,-1.1 -0.7,0 -1,0.4 -1,1 v 2.6 c 0,0.4 -0.3,0.7 -0.7,0.7 -0.4,0 -0.7,-0.3 -0.7,-0.7 v 0 z"
       id="path197"
       style="fill:#ffffff" />
    <path
       class="cls-4"
       d="M 485.3,363.4 H 485 c -0.3,0 -0.5,-0.2 -0.5,-0.5 0,-0.3 0.2,-0.5 0.5,-0.5 h 0.3 v -0.6 c 0,-0.4 0.3,-0.7 0.7,-0.7 0.4,0 0.7,0.3 0.7,0.7 v 0 0.6 h 0.5 c 0.3,0 0.5,0.2 0.5,0.5 0,0.3 -0.2,0.5 -0.5,0.5 h -0.5 v 2.5 c 0,0.4 0.1,0.5 0.4,0.6 v 0 c 0.3,0 0.5,0.2 0.5,0.5 0,0.3 -0.4,0.6 -1,0.6 v 0 c -0.7,0 -1.3,-0.4 -1.4,-1.1 v -3.1 0 z"
       id="path198"
       style="fill:#ffffff" />
    <path
       class="cls-4"
       d="m 323.3,295.8 v -0.4 c 0,-0.3 0.2,-0.6 0.6,-0.6 v 0 c 0.3,0 0.6,0.2 0.7,0.4 0.3,0.5 0.9,0.9 1.5,0.8 0.8,0 1.3,-0.4 1.3,-0.9 0,-0.5 -0.3,-0.7 -1.2,-0.9 h -0.8 c -1.4,-0.4 -2.1,-1.1 -2.1,-2.1 0,-1 1.1,-2.1 2.7,-2.1 1.1,-0.1 2.1,0.5 2.6,1.5 v 0.3 c 0,0.3 -0.2,0.6 -0.6,0.6 v 0 c -0.3,0 -0.6,-0.2 -0.7,-0.4 -0.2,-0.5 -0.7,-0.8 -1.3,-0.8 -0.6,0 -1.2,0.3 -1.2,0.9 0,0.6 0.3,0.7 1.2,0.9 l 0.7,0.2 c 1.5,0.3 2.1,0.9 2.1,2 0,1.1 -1.1,2.2 -2.8,2.2 -1.7,0 -2.4,-0.6 -2.7,-1.4 z"
       id="path199"
       style="fill:#ffffff" />
    <path
       class="cls-4"
       d="m 330,292.9 h -0.3 c -0.3,0 -0.6,-0.2 -0.6,-0.5 0,-0.3 0.2,-0.6 0.5,-0.6 h 0.4 v -0.6 c 0,-0.4 0.3,-0.7 0.7,-0.7 0.4,0 0.7,0.3 0.7,0.7 v 0 0.6 h 0.5 c 0.3,0 0.6,0.2 0.6,0.5 0,0.3 -0.2,0.6 -0.5,0.6 h -0.6 v 2.5 c 0,0.4 0.1,0.5 0.4,0.5 v 0 c 0.3,0 0.5,0.2 0.5,0.5 0,0.3 -0.4,0.6 -1,0.6 v 0 c -0.7,0.1 -1.3,-0.4 -1.4,-1 v -3.2 0 z"
       id="path200"
       style="fill:#ffffff" />
    <path
       class="cls-4"
       d="m 332.9,295.5 c 0,-1 0.7,-1.5 2,-1.6 h 1.3 v -0.4 c 0,-0.5 -0.3,-0.8 -0.9,-0.8 -0.6,0 -0.8,0.2 -1,0.5 -0.1,0.2 -0.3,0.3 -0.6,0.3 -0.3,0 -0.6,-0.2 -0.6,-0.5 v 0 -0.3 c 0.5,-0.7 1.3,-1.1 2.2,-1 1.3,0 2.2,0.7 2.2,1.7 v 3 c 0,0.4 -0.2,0.7 -0.6,0.7 h -0.1 c -0.3,0 -0.7,-0.2 -0.7,-0.6 v 0 -0.3 0 c -0.3,0.6 -0.9,0.9 -1.6,0.9 -0.7,0 -1.7,-0.6 -1.8,-1.5 v 0 c 0,-0.1 0.2,-0.1 0.2,-0.1 z m 3.4,-0.4 v -0.4 h -1.1 c -0.5,0 -0.8,0.4 -0.8,0.7 0,0.3 0.3,0.6 0.8,0.6 0.5,0 1.1,-0.4 1.1,-1 v 0 z"
       id="path201"
       style="fill:#ffffff" />
    <path
       class="cls-4"
       d="m 338.6,290.4 c 0,-0.4 0.3,-0.8 0.7,-0.8 0.4,0 0.8,0.3 0.8,0.7 0,0.4 -0.3,0.8 -0.7,0.8 v 0 c -0.4,0 -0.7,-0.3 -0.8,-0.7 z m 0,6 v -4 c 0,-0.4 0.2,-0.7 0.6,-0.7 h 0.1 c 0.4,0 0.7,0.3 0.7,0.6 v 0 4.1 c 0,0.4 -0.2,0.7 -0.6,0.7 h -0.1 c -0.4,0 -0.7,-0.3 -0.7,-0.6 v 0 z"
       id="path202"
       style="fill:#ffffff" />
    <path
       class="cls-4"
       d="m 341,296.4 v -4 c 0,-0.4 0.2,-0.7 0.6,-0.7 h 0.1 c 0.4,0 0.7,0.3 0.7,0.6 v 0 0.4 0 c 0,-0.6 0.5,-1 1.1,-1 0.6,0 0.3,0 0.5,0.1 0.1,0.1 0.2,0.3 0.2,0.5 0,0.2 0,0.4 -0.2,0.5 -0.2,0.1 -0.4,0.2 -0.6,0.2 -0.7,0 -0.9,0.4 -0.9,1 v 2.3 c 0,0.4 -0.2,0.7 -0.6,0.7 h -0.1 c -0.4,0 -0.7,-0.3 -0.7,-0.7 H 341 Z"
       id="path203"
       style="fill:#ffffff" />
    <path
       class="cls-4"
       d="m 344.5,296.1 v -0.3 c 0,-0.3 0.2,-0.5 0.5,-0.6 v 0 c 0.2,0 0.5,0.1 0.6,0.3 0.3,0.4 0.7,0.6 1.1,0.5 0.5,0 0.8,-0.2 0.8,-0.6 0,-0.4 -0.2,-0.4 -0.7,-0.5 l -0.9,-0.2 c -1,-0.2 -1.5,-0.7 -1.5,-1.5 0,-0.8 0.9,-1.6 2.2,-1.6 1.3,0 1.6,0.3 2,1.1 v 0.2 c 0,0.3 -0.2,0.5 -0.4,0.5 v 0 c -0.2,0 -0.4,0 -0.5,-0.2 -0.2,-0.3 -0.6,-0.5 -1,-0.6 -0.5,0 -0.8,0.2 -0.8,0.6 0,0.4 0.2,0.5 0.7,0.6 l 0.9,0.2 c 1.1,0.2 1.6,0.6 1.6,1.4 0,0.8 -0.9,1.7 -2.3,1.7 -1.4,0 -2,-0.4 -2.2,-1 z"
       id="path204"
       style="fill:#ffffff" />
    <path
       class="cls-4"
       d="m 224,415 v -5.7 c 0,-0.4 0.2,-0.8 0.6,-0.8 0.4,0 0.8,0.2 0.8,0.6 v 2.4 h 3.2 v -2.2 c 0,-0.4 0.3,-0.7 0.7,-0.7 0.4,0 0.7,0.3 0.7,0.7 v 0 5.7 c 0,0.4 -0.3,0.7 -0.7,0.7 -0.4,0 -0.7,-0.3 -0.7,-0.7 v -2.3 h -3.2 v 2.3 c 0,0.4 -0.2,0.8 -0.6,0.8 -0.4,0 -0.8,-0.2 -0.8,-0.6 z"
       id="path205"
       style="fill:#ffffff" />
    <path
       class="cls-4"
       d="m 231,413.1 c -0.2,-1.4 0.8,-2.6 2.2,-2.7 h 0.4 c 1.3,0 2.4,0.9 2.5,2.2 v 0.2 c 0,0.3 -0.2,0.6 -0.5,0.6 h -3.1 c 0,0.7 0.4,1.3 1,1.3 h 0.1 c 0.5,0 1,-0.2 1.2,-0.6 0.1,-0.1 0.3,-0.2 0.5,-0.2 0.3,0 0.5,0.2 0.5,0.5 v 0 c 0,0.1 0,0.2 -0.1,0.3 -0.5,0.7 -1.3,1.1 -2.2,1 -1.3,0 -2.5,-0.9 -2.6,-2.3 V 413 h 0.1 z m 3.6,-0.6 c 0,-0.6 -0.4,-1.1 -1,-1.1 v 0 c -0.6,0 -1.1,0.5 -1.1,1.1 h 2.2 v 0 z"
       id="path206"
       style="fill:#ffffff" />
    <path
       class="cls-4"
       d="m 236.7,415.1 v -5.8 c 0,-0.4 0.2,-0.7 0.6,-0.7 h 0.1 c 0.4,0 0.7,0.3 0.7,0.6 v 0 5.9 c 0,0.4 -0.2,0.7 -0.6,0.7 h -0.1 c -0.4,0 -0.7,-0.2 -0.7,-0.6 v 0 z"
       id="path207"
       style="fill:#ffffff" />
    <path
       class="cls-4"
       d="m 239.2,415.1 v -5.8 c 0,-0.4 0.3,-0.7 0.7,-0.7 0.4,0 0.7,0.3 0.7,0.7 v 5.8 c 0,0.4 -0.3,0.7 -0.7,0.7 -0.4,0 -0.7,-0.3 -0.7,-0.7 z"
       id="path208"
       style="fill:#ffffff" />
    <path
       class="cls-4"
       d="m 94.3,355.9 v -5.8 c 0,-0.4 0.2,-0.7 0.6,-0.7 v 0 c 0.3,0 0.6,0.2 0.7,0.4 l 3,4.3 v 0 -4 c 0,-0.4 0.2,-0.7 0.6,-0.8 0.4,0 0.7,0.2 0.8,0.6 v 6 c 0,0.4 -0.2,0.7 -0.6,0.7 v 0 c -0.3,0 -0.6,-0.2 -0.7,-0.4 l -3,-4.3 v 0 4 c 0,0.4 -0.2,0.7 -0.6,0.8 -0.4,0 -0.7,-0.2 -0.8,-0.6 z"
       id="path209"
       style="fill:#ffffff" />
    <path
       class="cls-4"
       d="m 101.2,354 c -0.2,-1.3 0.8,-2.6 2.2,-2.7 h 0.4 c 1.3,0 2.4,0.9 2.5,2.2 v 0.2 c 0,0.3 -0.2,0.6 -0.5,0.6 h -3.1 c 0,0.7 0.4,1.3 1,1.3 h 0.2 c 0.5,0 1,-0.2 1.2,-0.6 0,-0.1 0.3,-0.2 0.5,-0.2 0.3,0 0.5,0.2 0.6,0.5 v 0 c 0,0.1 0,0.2 0,0.3 -0.5,0.7 -1.3,1.1 -2.2,1 -1.3,0 -2.5,-0.9 -2.6,-2.3 v -0.4 0 z m 3.6,-0.6 c 0,-0.6 -0.4,-1.1 -1,-1.1 v 0 c -0.6,0 -1.1,0.5 -1.1,1.1 h 2.2 v 0 z"
       id="path210"
       style="fill:#ffffff" />
    <path
       class="cls-4"
       d="m 107.7,355.9 -1,-3.7 v -0.4 c 0,-0.3 0.3,-0.6 0.6,-0.6 v 0 c 0.3,0 0.6,0.3 0.7,0.6 l 0.8,3.4 v 0 l 0.8,-3.3 c 0,-0.4 0.4,-0.7 0.8,-0.7 0.4,0 0.7,0.3 0.8,0.7 l 0.8,3.3 v 0 l 0.8,-3.4 c 0,-0.3 0.3,-0.6 0.7,-0.6 0.4,0 0.6,0.2 0.7,0.6 v 0 0.4 l -1.1,3.7 c 0,0.5 -0.5,0.8 -0.9,0.8 -0.4,0 -0.9,-0.3 -0.9,-0.7 v 0 l -0.8,-3 v 0 l -0.8,3.1 c 0,0.5 -0.5,0.8 -0.9,0.7 -0.5,0 -0.7,-0.3 -0.9,-0.8 h -0.2 z"
       id="path211"
       style="fill:#ffffff" />
    <path
       class="cls-4"
       d="m 116.9,355.8 v -5.5 c 0,-0.4 0.2,-0.7 0.6,-0.8 h 2.4 c 1.3,0 2.1,0.7 2.1,1.8 0,1.1 -0.6,1.4 -1.3,1.5 v 0 c 0.9,0 1.7,0.8 1.7,1.7 0,0.9 -0.9,2 -2.4,2 h -2.4 c -0.4,0 -0.7,-0.3 -0.7,-0.6 v 0 z m 2.5,-3.4 c 0.8,0 1.2,-0.3 1.2,-1 0,-0.7 -0.4,-0.9 -1.1,-0.9 h -1.2 v 1.8 h 1.1 z m 0.2,3 c 0.9,0 1.3,-0.4 1.3,-1 0,-0.6 -0.5,-1 -1.3,-1 h -1.2 v 2 z"
       id="path212"
       style="fill:#ffffff" />
    <path
       class="cls-4"
       d="m 123,353.9 c 0,-1.4 1.3,-2.5 2.7,-2.5 1.4,0 2.5,1.3 2.5,2.7 0,1.4 -1.2,2.5 -2.6,2.5 -1.4,0 -2.5,-1 -2.6,-2.3 z m 3.7,0 c 0,-1 -0.5,-1.6 -1.1,-1.6 -0.6,0 -1.1,0.6 -1.1,1.6 0,1 0.4,1.7 1.1,1.7 0.7,0 1.1,-0.6 1.1,-1.7 z"
       id="path213"
       style="fill:#ffffff" />
    <path
       class="cls-4"
       d="m 128.6,356.1 c 0,-0.2 0,-0.3 0.2,-0.5 l 1.2,-1.7 -1.2,-1.7 c 0,-0.1 -0.1,-0.3 -0.1,-0.4 0,-0.4 0.3,-0.6 0.6,-0.6 v 0 c 0.3,0 0.4,0 0.6,0.4 l 1,1.5 v 0 l 1,-1.5 c 0.2,-0.3 0.3,-0.4 0.6,-0.4 0.3,0 0.6,0.2 0.7,0.5 v 0 c 0,0.2 0,0.4 -0.2,0.5 l -1.2,1.6 1.2,1.7 c 0.1,0.1 0.2,0.3 0.2,0.4 0,0.3 -0.3,0.6 -0.6,0.6 v 0 c -0.2,0 -0.5,-0.1 -0.6,-0.4 l -1,-1.5 v 0 l -1,1.5 c -0.2,0.3 -0.3,0.4 -0.6,0.4 -0.3,0 -0.6,0 -0.7,-0.4 v -0.2 0.2 z"
       id="path214"
       style="fill:#ffffff" />
    <path
       class="cls-4"
       d="m 406.4,41.1 v -7.2 c 0,-0.5 0.3,-0.9 0.8,-1 h 2.7 c 2.8,0 4.4,1.6 4.4,4.5 0,2.9 -1.6,4.6 -4.4,4.6 h -2.5 c -0.5,0 -0.9,-0.3 -1,-0.8 V 41 41 Z m 3.3,-0.6 c 1.7,0 2.6,-1 2.6,-3 0,-2 -1,-3 -2.6,-3 h -1.3 v 6 z"
       id="path215"
       style="fill:#ffffff" />
    <path
       class="cls-4"
       d="m 415.1,38.8 c 0,-2.2 1.3,-3.6 3.3,-3.6 2,0 3.1,1.2 3.2,2.9 v 0.3 c 0,0.4 -0.3,0.8 -0.7,0.8 h -4 c 0,0.9 0.5,1.7 1.3,1.7 h 0.2 c 0.6,0 1.3,-0.3 1.6,-0.8 0.1,-0.2 0.4,-0.3 0.6,-0.3 0.4,0 0.7,0.3 0.7,0.6 v 0 c 0,0.2 0,0.3 -0.1,0.4 -0.6,0.9 -1.7,1.4 -2.8,1.3 -1.7,0 -3.3,-1.2 -3.4,-2.9 v -0.6 0.2 z m 4.7,-0.8 c 0,-0.8 -0.6,-1.4 -1.3,-1.5 v 0 c -0.8,0 -1.5,0.7 -1.5,1.5 h 2.9 z"
       id="path216"
       style="fill:#ffffff" />
    <path
       class="cls-4"
       d="m 423,41.3 v -4.6 h -0.3 c -0.4,0 -0.6,-0.4 -0.6,-0.8 0,-0.4 0.3,-0.6 0.6,-0.6 h 0.3 v -0.5 c -0.2,-0.9 0.5,-1.8 1.4,-2 h 0.6 c 1,0 1.4,0.3 1.4,0.8 0,0.5 -0.1,0.4 -0.4,0.5 h -0.4 c -0.6,0 -0.8,0.2 -0.8,0.8 v 0.4 h 0.8 c 0.4,0 0.6,0.4 0.6,0.8 0,0.4 -0.3,0.6 -0.6,0.6 h -0.7 v 4.6 c 0,0.5 -0.4,0.9 -0.9,0.9 -0.5,0 -0.9,-0.4 -0.9,-0.9 z"
       id="path217"
       style="fill:#ffffff" />
    <path
       class="cls-4"
       d="m 426.7,38.8 c 0,-2.2 1.3,-3.6 3.3,-3.6 2,0 3.1,1.2 3.2,2.9 v 0.3 c 0,0.4 -0.2,0.8 -0.6,0.8 h -4.1 c 0,0.9 0.5,1.7 1.3,1.7 h 0.2 c 0.6,0 1.3,-0.3 1.6,-0.8 0.2,-0.2 0.4,-0.3 0.6,-0.3 0.4,0 0.7,0.2 0.7,0.6 v 0 c 0,0.2 0,0.3 -0.1,0.4 -0.6,0.9 -1.7,1.4 -2.8,1.3 -1.7,0 -3.3,-1.2 -3.4,-2.9 v -0.6 0.2 z m 4.7,-0.8 c 0,-0.8 -0.6,-1.4 -1.3,-1.5 v 0 c -0.8,0 -1.5,0.6 -1.5,1.4 h 2.9 -0.1 z"
       id="path218"
       style="fill:#ffffff" />
    <path
       class="cls-4"
       d="m 434.2,41.3 v -5.2 c 0,-0.5 0.3,-0.9 0.8,-0.9 h 0.1 c 0.5,0 0.9,0.3 0.9,0.8 v 0 0.5 0 c 0.3,-0.8 1.2,-1.4 2.1,-1.3 1.2,0 2.3,0.9 2.4,2.1 v 4 c 0,0.5 -0.4,0.9 -0.9,0.9 -0.5,0 -0.9,-0.4 -0.9,-0.9 v 0 -3.2 c 0,-0.9 -0.4,-1.4 -1.2,-1.4 -0.8,0 -1.3,0.6 -1.4,1.3 v 3.3 c 0,0.5 -0.4,0.9 -0.9,0.9 -0.5,0 -0.9,-0.4 -0.9,-0.9 z"
       id="path219"
       style="fill:#ffffff" />
    <path
       class="cls-4"
       d="m 441.4,38.7 c 0,-2.2 1.1,-3.5 2.8,-3.5 1.7,0 1.7,0.5 2.1,1.3 v 0 -2.7 c 0,-0.5 0.3,-1 0.8,-1 0.5,0 1,0.3 1,0.8 v 7.7 c 0,0.5 -0.3,0.9 -0.8,0.9 h -0.1 c -0.5,0 -0.9,-0.3 -0.9,-0.8 v 0 -0.5 0 c -0.3,0.8 -1.2,1.4 -2.1,1.3 -1.7,0 -2.8,-1.3 -2.8,-3.5 z m 4.9,0 c 0,-1.2 -0.6,-2 -1.5,-2 -0.9,0 -1.5,0.8 -1.5,2 0,1.2 0.6,2 1.5,2 0.9,0 1.5,-0.7 1.5,-2 z"
       id="path220"
       style="fill:#ffffff" />
    <path
       class="cls-4"
       d="m 449.2,38.8 c 0,-2.2 1.3,-3.6 3.3,-3.6 2,0 3.1,1.2 3.2,2.9 v 0.3 c 0,0.4 -0.2,0.8 -0.6,0.8 H 451 c 0,0.9 0.5,1.7 1.3,1.7 h 0.2 c 0.6,0 1.3,-0.3 1.6,-0.8 0.2,-0.2 0.4,-0.3 0.6,-0.3 0.4,0 0.7,0.2 0.7,0.6 v 0 c 0,0.2 0,0.3 -0.1,0.4 -0.6,0.9 -1.7,1.4 -2.8,1.3 -1.7,0 -3.3,-1.2 -3.4,-2.9 v -0.6 0.2 z m 4.7,-0.8 c 0,-0.8 -0.6,-1.4 -1.3,-1.5 v 0 c -0.8,0 -1.5,0.6 -1.5,1.4 h 2.9 -0.1 z"
       id="path221"
       style="fill:#ffffff" />
    <path
       class="cls-4"
       d="m 456.6,41.3 v -5.2 c 0,-0.5 0.3,-0.9 0.8,-0.9 h 0.1 c 0.5,0 0.9,0.3 0.9,0.8 v 0 0.5 0 c 0,-0.7 0.7,-1.3 1.4,-1.4 0.2,0 0.4,0 0.6,0.2 0.2,0.2 0.3,0.4 0.3,0.7 0,0.3 0,0.5 -0.3,0.7 -0.2,0.2 -0.5,0.3 -0.8,0.2 -0.8,0 -1.1,0.5 -1.1,1.3 v 3 c 0,0.5 -0.4,0.9 -0.9,0.9 -0.5,0 -0.9,-0.4 -0.9,-0.9 h -0.1 z"
       id="path222"
       style="fill:#ffffff" />
    <path
       class="cls-4"
       d="M 464,40.5 V 40 c 0,-0.4 0.3,-0.8 0.8,-0.8 v 0 c 0.4,0 0.7,0.2 0.9,0.6 0.4,0.7 1.1,1.1 1.9,1 1,0 1.7,-0.5 1.7,-1.2 0,-0.7 -0.4,-1 -1.6,-1.2 l -1,-0.2 C 464.9,37.8 464,37 464,35.6 c 0,-1.4 1.5,-2.8 3.5,-2.8 2,0 2.9,0.7 3.3,1.9 v 0.4 c 0,0.4 -0.3,0.8 -0.7,0.8 v 0 c -0.4,0 -0.8,-0.2 -0.9,-0.6 -0.3,-0.7 -1,-1.1 -1.7,-1 -1,0 -1.6,0.4 -1.6,1.1 0,0.7 0.4,0.9 1.5,1.1 l 1,0.2 c 1.9,0.4 2.8,1.2 2.8,2.6 0,1.4 -1.4,2.9 -3.7,2.9 -2.3,0 -3.1,-0.7 -3.5,-1.7 z"
       id="path223"
       style="fill:#ffffff" />
    <path
       class="cls-4"
       d="m 472.1,43.6 v -7.5 c 0,-0.5 0.3,-1 0.8,-1 0.5,0 1,0.3 1,0.8 v 0.6 0 c 0.4,-0.8 1.2,-1.3 2.1,-1.3 1.7,0 2.8,1.3 2.8,3.5 0,2.2 -1,3.5 -2.8,3.5 -1.8,0 -1.7,-0.4 -2.1,-1.2 v 0 2.6 c 0,0.5 -0.3,1 -0.8,1 -0.5,0 -1,-0.3 -1,-0.8 z m 4.9,-4.9 c 0,-1.2 -0.6,-2 -1.5,-2 -0.9,0 -1.5,0.8 -1.5,2 0,1.2 0.6,2 1.5,2 0.9,0 1.5,-0.8 1.5,-2 z"
       id="path224"
       style="fill:#ffffff" />
    <path
       class="cls-4"
       d="m 479.6,40.2 c 0,-1.2 1,-1.9 2.7,-2.1 h 1.7 v -0.6 c 0,-0.6 -0.4,-1 -1.1,-1 -0.7,0 -1,0.3 -1.3,0.7 -0.2,0.2 -0.4,0.3 -0.7,0.3 -0.3,0 -0.7,-0.2 -0.8,-0.6 v 0 -0.4 c 0.3,-0.8 1.4,-1.3 2.8,-1.3 1.4,0 2.9,0.9 2.9,2.3 v 3.9 c 0,0.5 -0.3,0.9 -0.8,0.9 h -0.1 c -0.4,0 -0.8,-0.3 -0.9,-0.7 v 0 -0.3 0 c -0.4,0.7 -1.2,1.2 -2.1,1.1 -1.2,0 -2.2,-0.7 -2.3,-1.9 v -0.2 0 z m 4.3,-0.6 v -0.5 h -1.4 c -0.7,0 -1.1,0.4 -1.1,0.9 0,0.5 0.4,0.8 1,0.8 0.6,0 1.4,-0.5 1.5,-1.2 z"
       id="path225"
       style="fill:#ffffff" />
    <path
       class="cls-4"
       d="m 488,41.3 -1.4,-4.7 V 36 c 0,-0.4 0.4,-0.8 0.8,-0.8 v 0 c 0.5,0 0.8,0.3 0.9,0.8 l 1,4.4 v 0 l 1,-4.3 c 0.1,-0.6 0.7,-0.9 1.2,-0.8 0.4,0 0.8,0.4 0.8,0.8 l 1.1,4.3 v 0 l 1,-4.4 c 0,-0.4 0.4,-0.8 0.8,-0.8 0.4,0 0.8,0.3 0.9,0.7 v 0 0.6 l -1.4,4.8 c 0,0.6 -0.6,1 -1.2,1 -0.6,0 -1.1,-0.4 -1.2,-1 v 0 l -1,-4 v 0 l -1,4 c 0,0.6 -0.6,1.1 -1.2,1 -0.6,0 -0.9,-0.3 -1.1,-1 z"
       id="path226"
       style="fill:#ffffff" />
    <path
       class="cls-4"
       d="m 497.2,41.3 v -5.2 c 0,-0.5 0.3,-0.9 0.7,-0.9 h 0.1 c 0.5,0 0.9,0.3 0.9,0.8 v 0 0.5 0 c 0.3,-0.8 1.2,-1.4 2.1,-1.3 1.2,0 2.3,0.9 2.4,2.1 v 4 c 0,0.5 -0.3,1 -0.8,1 -0.5,0 -1,-0.3 -1,-0.8 v -3.4 c 0,-0.9 -0.4,-1.4 -1.2,-1.4 -0.8,0 -1.4,0.6 -1.4,1.3 v 3.3 c 0,0.5 -0.3,1 -0.8,1 -0.5,0 -1,-0.3 -1,-0.8 z"
       id="path227"
       style="fill:#ffffff" />
    <path
       class="cls-4"
       d="m 761,474.2 v -0.5 l 1.9,-5.2 c 0.2,-0.6 0.8,-1 1.5,-0.8 0.4,0.1 0.7,0.4 0.8,0.8 l 1.9,5.2 v 0.5 c 0,0.4 -0.3,0.7 -0.7,0.7 v 0 c -0.4,0 -0.6,-0.2 -0.8,-0.7 l -0.4,-1.1 h -2.5 l -0.4,1.1 c 0,0.5 -0.4,0.7 -0.8,0.7 -0.4,0 -0.7,-0.2 -0.7,-0.6 v 0 c 0,-0.1 0.2,-0.1 0.2,-0.1 z m 4.1,-2.2 -0.9,-2.9 v 0 l -0.9,2.9 z"
       id="path228"
       style="fill:#ffffff" />
    <path
       class="cls-4"
       d="m 770.2,474.2 v -5.6 c 0,-0.5 0.3,-0.9 0.8,-1 h 0.2 c 0.5,0 0.9,0.3 1,0.8 l 1.8,4.3 v 0 l 1.7,-4.3 c 0,-0.5 0.5,-0.8 1,-0.8 0.5,0 0.9,0.3 1,0.7 v 5.8 c 0,0.4 -0.3,0.7 -0.7,0.7 -0.4,0 -0.7,-0.3 -0.7,-0.7 v -4.1 0 l -1.8,4.3 c 0,0.3 -0.3,0.5 -0.6,0.5 -0.3,0 -0.6,-0.2 -0.6,-0.4 l -1.8,-4.3 v 0 4.2 c 0,0.4 -0.2,0.7 -0.6,0.7 -0.4,0 -0.7,-0.2 -0.7,-0.6 z"
       id="path229"
       style="fill:#ffffff" />
    <path
       class="cls-4"
       d="m 778.4,473.3 c 0,-1 0.7,-1.5 2,-1.6 h 1.3 v -0.4 c 0,-0.4 -0.3,-0.8 -0.8,-0.8 v 0 c -0.4,0 -0.8,0.2 -1,0.5 0,0.2 -0.3,0.3 -0.6,0.3 -0.3,0 -0.6,-0.2 -0.6,-0.5 v 0 -0.3 c 0.2,-0.6 1.1,-1 2.2,-1 1.1,0 2.2,0.7 2.2,1.8 v 3 c 0,0.4 -0.2,0.7 -0.6,0.7 v 0 c -0.3,0 -0.7,-0.2 -0.7,-0.6 v 0 -0.3 0 c -0.3,0.6 -0.9,0.9 -1.6,0.9 -0.7,0 -1.7,-0.6 -1.8,-1.5 v 0 c 0,-0.1 0.2,-0.2 0.2,-0.2 z m 3.4,-0.4 v -0.4 h -1.1 c -0.5,0 -0.8,0.4 -0.8,0.7 0,0.3 0.3,0.6 0.8,0.6 0.5,0 1,-0.4 1.1,-0.9 z"
       id="path230"
       style="fill:#ffffff" />
    <path
       class="cls-4"
       d="m 784,468.2 c 0,-0.4 0.3,-0.8 0.8,-0.8 0.5,0 0.8,0.3 0.8,0.8 0,0.5 -0.3,0.8 -0.8,0.8 -0.5,0 -0.8,-0.3 -0.8,-0.8 z m 0,6 v -4 c 0,-0.4 0.3,-0.7 0.7,-0.7 0.4,0 0.7,0.3 0.7,0.7 v 0 4 c 0,0.4 -0.3,0.7 -0.7,0.7 -0.4,0 -0.7,-0.3 -0.7,-0.7 z"
       id="path231"
       style="fill:#ffffff" />
    <path
       class="cls-4"
       d="m 786.4,474.2 v -4 c 0,-0.4 0.2,-0.7 0.6,-0.7 v 0 c 0.4,0 0.7,0.3 0.7,0.6 v 0 0.4 0 c 0.3,-0.6 0.9,-1.1 1.6,-1 1,0 1.8,0.7 1.8,1.6 v 3.1 c 0,0.4 -0.2,0.8 -0.6,0.8 -0.4,0 -0.8,-0.2 -0.8,-0.6 v -2.6 c 0,-0.7 -0.3,-1.1 -1,-1.1 -0.7,0 -1,0.4 -1,1 v 2.6 c 0,0.4 -0.2,0.8 -0.6,0.8 -0.4,0 -0.8,-0.2 -0.8,-0.6 v -0.2 0 z"
       id="path232"
       style="fill:#ffffff" />
    <path
       class="cls-4"
       d="m 830.1,174.3 v -5.5 c 0,-0.4 0.2,-0.7 0.6,-0.8 h 3.4 c 0.3,0 0.6,0.2 0.7,0.5 v 0 c 0,0.4 -0.3,0.7 -0.6,0.7 h -2.6 v 1.7 h 2.5 c 0.3,0 0.6,0.2 0.6,0.5 v 0 c 0,0.3 -0.2,0.6 -0.5,0.6 h -2.5 v 1.8 h 2.6 c 0.3,0 0.6,0.3 0.6,0.6 0,0.3 -0.3,0.6 -0.6,0.6 H 831 c -0.4,0 -0.7,-0.3 -0.7,-0.6 v 0 c 0,-0.1 -0.2,-0.1 -0.2,-0.1 z"
       id="path233"
       style="fill:#ffffff" />
    <path
       class="cls-4"
       d="m 835.7,174.5 v -5.8 c 0,-0.4 0.3,-0.7 0.7,-0.7 0.4,0 0.7,0.3 0.7,0.7 v 5.8 c 0,0.4 -0.3,0.7 -0.7,0.7 -0.4,0 -0.7,-0.3 -0.7,-0.7 z"
       id="path234"
       style="fill:#ffffff" />
    <path
       class="cls-4"
       d="m 838.1,174.5 v -5.8 c 0,-0.4 0.2,-0.8 0.6,-0.8 0.4,0 0.8,0.2 0.8,0.6 v 2.3 0 c 0.3,-0.6 0.9,-1 1.6,-1 1.3,0 2.1,1 2.1,2.7 0,1.7 -0.8,2.7 -2.1,2.7 -1.3,0 -1.3,-0.4 -1.6,-1 v 0 0.3 c 0,0.4 -0.2,0.7 -0.6,0.7 v 0 c -0.4,0 -0.7,-0.2 -0.7,-0.6 v 0 q 0,-0.1 0,0 z m 3.8,-2 c 0,-1 -0.4,-1.5 -1.2,-1.5 -0.8,0 -1.2,0.6 -1.2,1.5 0,0.9 0.5,1.6 1.2,1.6 0.7,0 1.2,-0.6 1.2,-1.6 z"
       id="path235"
       style="fill:#ffffff" />
    <path
       class="cls-4"
       d="m 843.9,172.5 c 0,-1.4 1.3,-2.5 2.7,-2.4 1.4,0.1 2.5,1.3 2.4,2.7 0,1.4 -1.2,2.4 -2.6,2.4 -1.4,0 -2.5,-1 -2.6,-2.4 v -0.4 0 z m 3.7,0 c 0,-1 -0.4,-1.6 -1.1,-1.6 -0.7,0 -1.2,0.6 -1.2,1.6 0,1 0.4,1.6 1.2,1.6 0.8,0 1.1,-0.6 1.1,-1.6 z"
       id="path236"
       style="fill:#ffffff" />
    <path
       class="cls-4"
       d="m 850.6,174.5 -1,-3.6 v -0.4 c 0,-0.3 0.3,-0.6 0.6,-0.6 v 0 c 0.3,0 0.6,0.3 0.7,0.6 l 0.8,3.4 v 0 l 0.8,-3.3 c 0,-0.4 0.5,-0.7 1,-0.6 0.3,0 0.6,0.3 0.6,0.6 l 0.8,3.3 v 0 l 0.8,-3.4 c 0,-0.3 0.3,-0.6 0.7,-0.6 0.4,0 0.6,0.2 0.7,0.5 v 0 0.4 l -1,3.6 c 0,0.4 -0.5,0.8 -0.9,0.8 -0.4,0 -0.9,-0.3 -0.9,-0.7 v 0 l -0.8,-3 v 0 l -0.8,3.1 c 0,0.5 -0.6,0.8 -1.1,0.7 -0.4,0 -0.6,-0.4 -0.7,-0.7 h -0.3 z"
       id="path237"
       style="fill:#ffffff" />
    <path
       class="cls-4"
       d="m 847.1,563.5 c 0,-2.3 1.3,-3.6 3.3,-3.6 2,0 2.3,0.5 2.8,1.6 0,0.2 0,0.4 0.2,0.5 0,0.3 -0.2,0.6 -0.6,0.6 v 0 c -0.3,0 -0.6,-0.2 -0.7,-0.5 -0.3,-0.7 -0.9,-1.1 -1.6,-1.1 -1.1,0 -1.8,0.9 -1.8,2.4 0,1.5 0.7,2.4 1.8,2.4 1.1,0 1.3,-0.4 1.6,-1 0,-0.3 0.4,-0.5 0.7,-0.5 0.3,0 0.7,0.2 0.7,0.6 v 0 c 0,0.2 0,0.3 0,0.5 -0.5,1 -1.7,1.7 -2.8,1.6 -2.1,0 -3.4,-1.4 -3.4,-3.7 v 0.2 z"
       id="path238"
       style="fill:#ffffff" />
    <path
       class="cls-4"
       d="m 854.1,565.5 c 0,-1 0.7,-1.5 2,-1.6 h 1.3 v -0.4 c 0,-0.5 -0.3,-0.8 -0.9,-0.8 -0.6,0 -0.8,0.2 -1,0.5 0,0.2 -0.3,0.3 -0.6,0.3 -0.3,0 -0.6,-0.2 -0.6,-0.5 v 0 -0.3 c 0.5,-0.7 1.3,-1.1 2.2,-1 1.3,0 2.2,0.7 2.2,1.8 v 3 c 0,0.4 -0.2,0.7 -0.6,0.7 v 0 c -0.4,0 -0.7,-0.2 -0.7,-0.6 v 0 -0.3 0 c -0.3,0.6 -0.9,0.9 -1.6,0.9 -0.7,0 -1.7,-0.6 -1.8,-1.5 v 0 c 0,0 0.2,-0.2 0.2,-0.2 z m 3.4,-0.4 v -0.4 h -1.1 c -0.5,0 -0.8,0.3 -0.8,0.7 0,0.4 0.3,0.6 0.8,0.6 0.5,0 1.1,-0.4 1.1,-0.9 z"
       id="path239"
       style="fill:#ffffff" />
    <path
       class="cls-4"
       d="m 860.2,566.3 v -3.5 h -0.3 c -0.3,0 -0.5,-0.2 -0.5,-0.5 v 0 c 0,-0.3 0.2,-0.5 0.5,-0.5 h 0.3 v -0.4 c 0,-0.7 0.4,-1.4 1.1,-1.5 h 0.4 c 0.8,0 1.1,0.2 1.1,0.6 0,0.4 0,0.3 -0.3,0.4 h -0.3 c -0.4,0 -0.6,0.2 -0.6,0.6 v 0.3 h 0.6 c 0.3,0 0.5,0.2 0.5,0.5 v 0 c 0,0.3 -0.2,0.5 -0.5,0.5 h -0.6 v 3.5 c 0,0.4 -0.3,0.7 -0.7,0.7 -0.4,0 -0.7,-0.3 -0.7,-0.7 z"
       id="path240"
       style="fill:#ffffff" />
    <path
       class="cls-4"
       d="m 863,564.4 c -0.2,-1.4 0.8,-2.6 2.2,-2.7 h 0.4 c 1.3,0 2.4,0.9 2.5,2.2 v 0.2 c 0,0.3 -0.2,0.6 -0.5,0.6 h -3.1 c 0,0.7 0.4,1.3 1,1.3 h 0.2 c 0.5,0 1,-0.2 1.2,-0.6 0,0 0.3,-0.2 0.5,-0.2 0.3,0 0.5,0.2 0.5,0.5 v 0 0.3 c -0.5,0.7 -1.3,1.1 -2.2,1 -1.3,0 -2.5,-0.9 -2.6,-2.3 v -0.4 H 863 Z m 3.7,-0.6 c 0,-0.6 -0.4,-1.1 -1,-1.1 v 0 c -0.6,0 -1.1,0.5 -1.1,1.1 h 2.2 z"
       id="path241"
       style="fill:#ffffff" />
    <path
       class="cls-4"
       d="m 758.5,110.5 v -0.4 c 0,-0.3 0.2,-0.6 0.6,-0.6 v 0 c 0.3,0 0.6,0.2 0.7,0.4 0.3,0.5 0.9,0.9 1.5,0.8 0.8,0 1.3,-0.4 1.3,-0.9 0,-0.5 -0.3,-0.7 -1.2,-0.9 h -0.8 c -1.4,-0.4 -2.1,-1.1 -2.1,-2.1 0,-1 1.1,-2.1 2.7,-2.1 1.1,0 2.1,0.5 2.6,1.5 v 0.3 c 0,0.3 -0.2,0.6 -0.6,0.6 v 0 c -0.3,0 -0.6,-0.2 -0.7,-0.4 -0.2,-0.5 -0.7,-0.8 -1.3,-0.8 -0.6,0 -1.2,0.3 -1.2,0.9 0,0.6 0.3,0.7 1.2,0.9 h 0.7 c 1.5,0.4 2.1,1 2.1,2.1 0,1.1 -1.1,2.2 -2.8,2.2 -1.7,0 -2.3,-0.6 -2.6,-1.4 h -0.1 z"
       id="path242"
       style="fill:#ffffff" />
    <path
       class="cls-4"
       d="m 764.6,109.2 c 0,-1.4 0.8,-2.6 2.2,-2.7 h 0.4 c 0.9,0 1.8,0.4 2.2,1.2 v 0.4 c 0,0.3 -0.3,0.6 -0.6,0.6 v 0 c -0.3,0 -0.5,0 -0.6,-0.4 -0.2,-0.4 -0.6,-0.7 -1,-0.7 -0.7,0 -1.2,0.6 -1.2,1.6 0,1 0.4,1.6 1.2,1.6 0.8,0 0.8,-0.2 1,-0.6 0,-0.3 0.4,-0.4 0.7,-0.4 0.3,0 0.6,0.2 0.6,0.5 v 0 0.4 c -0.4,0.8 -1.3,1.3 -2.2,1.2 -1.4,0 -2.5,-1 -2.6,-2.3 v -0.4 z"
       id="path243"
       style="fill:#ffffff" />
    <path
       class="cls-4"
       d="m 770.3,111.1 v -4 c 0,-0.4 0.2,-0.7 0.6,-0.8 0.4,-0.1 0.7,0.2 0.8,0.6 v 0.5 0 c 0,-0.6 0.5,-1 1.1,-1 0.6,0 0.3,0 0.5,0 0,0 0.2,0.3 0.2,0.5 0,0.2 0,0.4 -0.2,0.5 -0.2,0.1 -0.4,0.2 -0.6,0.2 -0.7,0 -0.9,0.4 -0.9,1 v 2.3 c 0,0.4 -0.2,0.7 -0.6,0.7 v 0 c -0.4,0 -0.7,-0.3 -0.7,-0.7 v 0 z"
       id="path244"
       style="fill:#ffffff" />
    <path
       class="cls-4"
       d="m 773.5,109.2 c -0.2,-1.4 0.8,-2.6 2.2,-2.7 h 0.4 c 1.3,0 2.4,0.9 2.5,2.2 v 0.2 c 0,0.3 -0.2,0.6 -0.5,0.6 H 775 c 0,0.7 0.4,1.3 1,1.3 h 0.2 c 0.5,0 1,-0.2 1.2,-0.6 0,0 0.3,-0.2 0.5,-0.2 0.3,0 0.5,0.2 0.5,0.5 v 0 0.3 c -0.5,0.7 -1.3,1.1 -2.2,1 -1.3,0 -2.5,-0.9 -2.6,-2.3 v -0.4 h -0.1 z m 3.7,-0.6 c 0,-0.6 -0.4,-1.1 -1,-1.1 v 0 c -0.6,0 -1.1,0.5 -1.1,1.1 h 2.2 z"
       id="path245"
       style="fill:#ffffff" />
    <path
       class="cls-4"
       d="m 779.1,109.2 c -0.2,-1.4 0.8,-2.6 2.2,-2.7 h 0.4 c 1.3,0 2.4,0.9 2.5,2.2 v 0.2 c 0,0.3 -0.2,0.6 -0.5,0.6 h -3.1 c 0,0.7 0.4,1.3 1,1.3 h 0.2 c 0.5,0 1,-0.2 1.2,-0.6 0,0 0.3,-0.2 0.5,-0.2 0.3,0 0.5,0.2 0.6,0.5 v 0 0.3 c -0.5,0.7 -1.3,1.1 -2.2,1 -1.3,0 -2.5,-0.9 -2.6,-2.3 v -0.4 h -0.2 z m 3.6,-0.6 c 0,-0.6 -0.4,-1.1 -1,-1.1 v 0 c -0.6,0 -1.1,0.5 -1.1,1.1 h 2.2 z"
       id="path246"
       style="fill:#ffffff" />
    <path
       class="cls-4"
       d="m 784.8,111.1 v -4 c 0,-0.4 0.2,-0.7 0.6,-0.7 v 0 c 0.4,0 0.7,0.3 0.7,0.6 v 0 0.3 0 c 0.3,-0.7 0.9,-1.1 1.6,-1 1,0 1.8,0.7 1.8,1.6 v 3.1 c 0,0.4 -0.3,0.7 -0.7,0.7 -0.4,0 -0.7,-0.3 -0.7,-0.7 v 0 -2.4 c 0,-0.7 -0.3,-1.1 -1,-1.1 -0.7,0 -1,0.4 -1,1 v 0 2.5 c 0,0.4 -0.2,0.7 -0.6,0.7 v 0 c -0.4,0 -0.7,-0.3 -0.7,-0.7 v 0 z"
       id="path247"
       style="fill:#ffffff" />
    <path
       class="cls-4"
       d="m 790.5,110.8 v -0.3 c 0,-0.3 0.2,-0.5 0.5,-0.6 v 0 c 0.2,0 0.5,0 0.6,0.3 0.3,0.4 0.7,0.6 1.1,0.5 0.5,0 0.9,-0.2 0.9,-0.6 0,-0.4 -0.2,-0.4 -0.7,-0.5 l -0.9,-0.2 c -1,-0.2 -1.5,-0.7 -1.5,-1.5 0,-0.8 0.9,-1.6 2.2,-1.6 1.3,0 1.6,0.3 2,1.1 v 0.2 c 0,0.3 -0.2,0.5 -0.5,0.5 -0.3,0 -0.4,0 -0.5,-0.2 -0.2,-0.4 -0.6,-0.6 -1,-0.6 -0.4,0 -0.8,0.2 -0.8,0.6 0,0.4 0.2,0.5 0.7,0.6 l 0.9,0.2 c 1.1,0.2 1.6,0.6 1.6,1.4 0,0.8 -0.9,1.7 -2.3,1.7 -1.4,0 -1.9,-0.4 -2.2,-1.1 v 0 z"
       id="path248"
       style="fill:#ffffff" />
    <path
       class="cls-4"
       d="m 631,226.8 v -5.7 c 0,-0.4 0.3,-0.7 0.7,-0.7 0.4,0 0.7,0.3 0.7,0.7 v 0 2.2 h 3.2 v -2.2 c 0,-0.4 0.3,-0.7 0.7,-0.7 0.4,0 0.7,0.3 0.7,0.7 v 0 5.7 c 0,0.4 -0.3,0.7 -0.7,0.7 -0.4,0 -0.7,-0.3 -0.7,-0.7 v 0 -2.3 h -3.2 v 2.3 c 0,0.4 -0.3,0.7 -0.7,0.7 -0.4,0 -0.7,-0.3 -0.7,-0.7 z"
       id="path249"
       style="fill:#ffffff" />
    <path
       class="cls-4"
       d="m 638,224.9 c -0.2,-1.4 0.8,-2.6 2.2,-2.7 h 0.4 c 1.3,0 2.4,0.9 2.5,2.2 v 0.2 c 0,0.3 -0.2,0.6 -0.5,0.6 h -3.1 c 0,0.7 0.4,1.3 1,1.3 h 0.2 c 0.5,0 1,-0.2 1.2,-0.6 0,-0.1 0.3,-0.2 0.5,-0.2 0.3,0 0.5,0.2 0.6,0.5 v 0 0.4 c -0.5,0.7 -1.3,1.1 -2.2,1 -1.3,0 -2.5,-0.9 -2.6,-2.3 v -0.4 z m 3.7,-0.6 c 0,-0.6 -0.4,-1.1 -1,-1.1 v 0 c -0.6,0 -1.1,0.5 -1.2,1.1 h 2.3 v 0 z"
       id="path250"
       style="fill:#ffffff" />
    <path
       class="cls-4"
       d="m 643.6,226 c 0,-1 0.7,-1.5 2,-1.6 h 1.3 V 224 c 0,-0.5 -0.3,-0.8 -0.9,-0.8 -0.6,0 -0.8,0.2 -1,0.5 0,0.2 -0.4,0.3 -0.6,0.3 -0.3,0 -0.6,-0.2 -0.6,-0.5 v 0 -0.3 c 0.2,-0.6 1.1,-1 2.2,-1 1.1,0 2.2,0.7 2.2,1.8 v 3 c 0,0.4 -0.2,0.7 -0.6,0.7 v 0 c -0.3,0 -0.7,-0.2 -0.7,-0.6 v 0 -0.3 0 c -0.3,0.6 -1,0.9 -1.6,0.9 -0.9,0 -1.7,-0.6 -1.7,-1.5 v 0 c 0,-0.1 0,-0.2 0,-0.2 z m 3.3,-0.5 v -0.4 h -1.1 c -0.5,0 -0.8,0.4 -0.8,0.7 0,0.3 0.3,0.6 0.8,0.6 0.5,0 1.1,-0.3 1.1,-0.8 v 0 z"
       id="path251"
       style="fill:#ffffff" />
    <path
       class="cls-4"
       d="m 650.4,226.8 -1.4,-3.6 v -0.4 c 0,-0.4 0.3,-0.6 0.7,-0.6 v 0 c 0.3,0 0.6,0.2 0.7,0.6 l 1,3.5 v 0 l 1.1,-3.5 c 0,-0.4 0.5,-0.6 0.8,-0.5 0.3,0 0.5,0.3 0.5,0.6 v 0.4 l -1.3,3.7 c 0,0.4 -0.5,0.7 -1,0.7 -0.5,0 -0.9,-0.3 -1,-0.7 v -0.2 z"
       id="path252"
       style="fill:#ffffff" />
    <path
       class="cls-4"
       d="m 654.2,224.9 c -0.2,-1.4 0.8,-2.6 2.2,-2.7 h 0.4 c 1.3,0 2.4,0.9 2.5,2.2 v 0.2 c 0,0.3 -0.2,0.6 -0.5,0.6 h -3.1 c 0,0.7 0.4,1.3 1,1.3 v 0 c 0.5,0 1,-0.2 1.2,-0.6 0,-0.1 0.3,-0.2 0.5,-0.2 0.3,0 0.5,0.2 0.6,0.5 v 0 0.4 c -0.5,0.7 -1.3,1.1 -2.2,1 -1.3,0 -2.5,-0.9 -2.6,-2.3 v -0.4 h -0.1 z m 3.6,-0.6 c 0,-0.6 -0.4,-1.1 -1,-1.1 v 0 c -0.6,0 -1.1,0.5 -1.1,1.1 h 2.2 z"
       id="path253"
       style="fill:#ffffff" />
    <path
       class="cls-4"
       d="m 659.9,226.8 v -4 c 0,-0.4 0.2,-0.7 0.6,-0.7 v 0 c 0.4,0 0.7,0.2 0.7,0.6 v 0 0.4 0 c 0.3,-0.6 0.9,-1.1 1.6,-1 1,0 1.8,0.7 1.8,1.6 v 3.1 c 0,0.4 -0.2,0.7 -0.6,0.7 v 0 c -0.4,0 -0.7,-0.3 -0.7,-0.6 v 0 -2.5 c 0,-0.7 -0.3,-1.1 -1,-1.1 -0.7,0 -1,0.4 -1,1 v 2.6 c 0,0.4 -0.2,0.8 -0.6,0.8 -0.4,0 -0.8,-0.2 -0.8,-0.6 v -0.2 0 z"
       id="path254"
       style="fill:#ffffff" />
    <path
       class="cls-4"
       d="m 652.9,617.5 v -0.4 c 0,-0.3 0.2,-0.6 0.6,-0.7 v 0 c 0.3,0 0.6,0.2 0.7,0.4 0.3,0.5 0.9,0.8 1.5,0.8 0.6,0 1.3,-0.4 1.3,-0.9 0,-0.5 -0.3,-0.7 -1.2,-0.9 l -0.7,-0.2 c -1.4,-0.3 -2.1,-1 -2.1,-2 0,-1 1.1,-2.1 2.7,-2.1 1.1,0 2.1,0.5 2.6,1.5 v 0.3 c 0,0.3 -0.2,0.6 -0.6,0.6 v 0 c -0.3,0 -0.6,-0.2 -0.7,-0.4 -0.2,-0.5 -0.8,-0.8 -1.3,-0.8 -0.5,0 -1.2,0.3 -1.2,0.9 0,0.6 0.3,0.7 1.2,0.9 l 0.8,0.2 c 1.5,0.3 2.1,0.9 2.1,2 0,1.1 -1.1,2.2 -2.8,2.2 -1.7,0 -2.4,-0.6 -2.7,-1.4 z"
       id="path255"
       style="fill:#ffffff" />
    <path
       class="cls-4"
       d="m 659,616.2 c -0.2,-1.4 0.8,-2.6 2.2,-2.7 h 0.4 c 1.3,0 2.4,0.9 2.5,2.2 v 0.2 c 0,0.3 -0.2,0.6 -0.5,0.6 h -3.1 c 0,0.7 0.4,1.3 1,1.3 h 0.2 c 0.5,0 1,-0.2 1.2,-0.6 0,0 0.3,-0.2 0.5,-0.2 0.3,0 0.5,0.2 0.5,0.5 v 0 0.3 c -0.5,0.7 -1.3,1.1 -2.2,1 -1.3,0 -2.5,-0.9 -2.6,-2.3 v -0.4 H 659 Z m 3.7,-0.6 c 0,-0.6 -0.4,-1.1 -1,-1.1 v 0 c -0.6,0 -1.1,0.5 -1.1,1.1 h 2.2 z"
       id="path256"
       style="fill:#ffffff" />
    <path
       class="cls-4"
       d="m 665.6,618.1 -1,-3.7 V 614 c 0,-0.3 0.3,-0.6 0.6,-0.6 v 0 c 0.3,0 0.6,0.3 0.7,0.6 l 0.8,3.4 v 0 l 0.8,-3.3 c 0,-0.4 0.5,-0.7 1,-0.6 0.3,0 0.6,0.3 0.6,0.6 l 0.8,3.3 v 0 l 0.8,-3.4 c 0,-0.3 0.3,-0.6 0.7,-0.6 0.4,0 0.6,0.2 0.7,0.5 v 0 0.4 l -1,3.6 c 0,0.5 -0.5,0.8 -0.9,0.8 -0.4,0 -0.9,-0.3 -0.9,-0.8 v 0 l -0.8,-3 v 0 l -0.8,3 c 0,0.5 -0.5,0.8 -0.9,0.8 -0.4,0 -0.8,-0.3 -0.9,-0.8 z"
       id="path257"
       style="fill:#ffffff" />
    <path
       class="cls-4"
       d="m 672.4,616.2 c -0.2,-1.4 0.8,-2.6 2.2,-2.7 h 0.3 c 1.3,0 2.4,0.9 2.5,2.2 v 0.2 c 0,0.3 -0.2,0.6 -0.5,0.6 h -3.1 c 0,0.7 0.4,1.3 1,1.3 h 0.2 c 0.5,0 1,-0.2 1.2,-0.6 0,0 0.3,-0.2 0.5,-0.2 0.3,0 0.5,0.2 0.6,0.5 v 0 0.3 c -0.5,0.7 -1.3,1.1 -2.2,1 -1.3,0 -2.5,-0.9 -2.6,-2.3 v -0.4 h -0.1 z m 3.6,-0.6 c 0,-0.6 -0.4,-1.1 -1,-1.1 v 0 c -0.6,0 -1.1,0.5 -1.1,1.1 h 2.2 z"
       id="path258"
       style="fill:#ffffff" />
    <path
       class="cls-4"
       d="m 678.1,618.1 v -4 c 0,-0.4 0.2,-0.7 0.6,-0.7 v 0 c 0.4,0 0.7,0.3 0.7,0.6 v 0 0.3 0 c 0,-0.6 0.5,-1 1.1,-1 0.6,0 0.3,0 0.4,0 0.2,0 0.2,0.3 0.2,0.5 0,0.2 0,0.4 -0.2,0.5 -0.2,0.1 -0.4,0.2 -0.6,0.2 -0.7,0 -0.9,0.4 -0.9,1 v 2.3 c 0,0.4 -0.3,0.7 -0.7,0.7 -0.4,0 -0.7,-0.3 -0.7,-0.7 v 0 0.2 z"
       id="path259"
       style="fill:#ffffff" />
    <path
       class="cls-4"
       d="m 681.6,617.8 v -0.3 c 0,-0.3 0.2,-0.5 0.5,-0.6 v 0 c 0.2,0 0.5,0 0.6,0.3 0.3,0.4 0.7,0.6 1.1,0.5 0.5,0 0.9,-0.2 0.9,-0.6 0,-0.4 -0.2,-0.4 -0.7,-0.5 l -0.9,-0.2 c -1,-0.2 -1.5,-0.7 -1.5,-1.5 0,-0.8 0.9,-1.6 2.2,-1.6 0.8,0 1.7,0.3 2.1,1.1 v 0.2 c 0,0.3 -0.2,0.5 -0.5,0.5 -0.3,0 -0.4,0 -0.5,-0.2 -0.2,-0.3 -0.6,-0.6 -1,-0.6 -0.4,0 -0.8,0.2 -0.8,0.6 0,0.4 0.2,0.5 0.7,0.6 l 0.9,0.2 c 1.1,0.2 1.6,0.6 1.6,1.4 0,0.8 -0.9,1.7 -2.3,1.7 -1.4,0 -2,-0.4 -2.3,-1 v 0 z"
       id="path260"
       style="fill:#ffffff" />
    <path
       class="cls-4"
       d="m 618.6,454.4 v -5.6 c 0,-0.4 0.2,-0.7 0.6,-0.8 h 2.3 c 1.6,0 2.5,0.8 2.5,2.2 0,1.4 -0.4,1.6 -1.2,2 l 1,1.8 c 0,0.2 0.2,0.3 0.2,0.5 0,0.4 -0.3,0.7 -0.7,0.7 v 0 c -0.3,0 -0.5,-0.1 -0.8,-0.6 l -1.1,-2.2 h -1.2 v 1.9 c 0,0.4 -0.3,0.7 -0.7,0.7 -0.4,0 -0.7,-0.3 -0.7,-0.7 h -0.2 z m 2.8,-3 c 0.6,0 1.1,-0.4 1.2,-0.9 v -0.2 c 0,-0.6 -0.4,-1.1 -1,-1.1 h -1.3 v 2.2 h 1.2 z"
       id="path261"
       style="fill:#ffffff" />
    <path
       class="cls-4"
       d="m 624.7,453.5 c 0,-1 0.7,-1.5 2,-1.6 h 1.3 v -0.4 c 0,-0.5 -0.3,-0.8 -0.9,-0.8 -0.6,0 -0.8,0.2 -1,0.5 0,0.2 -0.3,0.3 -0.6,0.3 -0.3,0 -0.6,-0.2 -0.6,-0.5 v 0 -0.3 c 0.2,-0.6 1.1,-1 2.2,-1 1.1,0 2.2,0.7 2.2,1.7 v 3 c 0,0.4 -0.2,0.7 -0.6,0.7 v 0 c -0.3,0 -0.6,-0.2 -0.7,-0.6 v 0 -0.3 0 c -0.4,0.6 -1,0.9 -1.6,0.9 -0.9,0 -1.7,-0.6 -1.7,-1.5 v 0 z m 3.3,-0.4 v -0.4 h -1.1 c -0.5,0 -0.8,0.4 -0.8,0.7 0,0.3 0.3,0.6 0.8,0.6 0.5,0 1.1,-0.4 1.1,-1 v 0 z"
       id="path262"
       style="fill:#ffffff" />
    <path
       class="cls-4"
       d="m 630.4,454.4 v -4 c 0,-0.4 0.3,-0.7 0.7,-0.7 0.4,0 0.7,0.3 0.7,0.7 v 0.3 0 c 0.2,-0.6 0.8,-1 1.5,-1 0.7,0 1.3,0.4 1.5,1.1 v 0 c 0.2,-0.7 0.9,-1.1 1.7,-1.1 0.8,0 1.7,0.7 1.7,1.6 v 3.1 c 0,0.4 -0.2,0.8 -0.6,0.8 -0.4,0 -0.8,-0.2 -0.8,-0.6 v -2.8 c 0,-0.6 -0.3,-0.9 -0.8,-0.9 -0.5,0 -0.9,0.4 -0.9,0.9 v 0 2.6 c 0,0.4 -0.2,0.7 -0.5,0.7 v 0 c -0.4,0 -0.7,-0.3 -0.7,-0.8 v -2.6 c 0,-0.4 -0.3,-0.8 -0.7,-0.9 v 0 c -0.5,0 -0.9,0.4 -0.9,0.9 v 0 2.6 c 0,0.4 -0.2,0.7 -0.6,0.7 v 0 c -0.4,0 -0.7,-0.3 -0.7,-0.6 v -0.2 l -0.3,0.2 z"
       id="path263"
       style="fill:#ffffff" />
    <path
       class="cls-4"
       d="m 639,456.2 v -5.7 c 0,-0.4 0.2,-0.7 0.6,-0.8 0.4,0 0.7,0.2 0.8,0.6 v 0.5 0 c 0.3,-0.6 0.9,-1 1.6,-1 1.3,0 2.1,1 2.1,2.7 0,1.7 -0.8,2.7 -2.1,2.7 -1.3,0 -1.3,-0.4 -1.6,-1 v 0 2 c 0,0.4 -0.2,0.7 -0.6,0.7 v 0 c -0.4,0 -0.7,-0.3 -0.7,-0.6 v 0 z m 3.7,-3.8 c 0,-1 -0.5,-1.6 -1.2,-1.6 -0.7,0 -1.2,0.6 -1.2,1.6 0,1 0.5,1.5 1.2,1.5 0.7,0 1.2,-0.6 1.2,-1.5 z"
       id="path264"
       style="fill:#ffffff" />
    <path
       class="cls-4"
       d="m 151.8,276.8 v -16 c -0.1,-1.1 0.7,-2.1 1.8,-2.2 h 7.2 c 3.8,0 6.2,2 6.2,5.1 0,3.1 -1.6,4.1 -3.8,4.4 v 0 c 2.7,0.2 4.8,2.4 4.8,5.1 0,2.7 -2.7,5.9 -7.1,5.9 H 154 c -1.1,0 -2.1,-0.7 -2.1,-1.8 v -0.4 0 z m 7.3,-9.7 c 2.3,0 3.6,-1 3.6,-2.7 0,-1.7 -1.1,-2.6 -3.1,-2.6 h -3.5 v 5.3 h 3.1 z m 0.6,8.7 c 2.5,0 3.8,-1 3.8,-3 0,-2 -1.4,-2.9 -3.9,-2.9 H 156 v 5.9 z"
       id="path265-8"
       style="fill:#ffffff" />
    <path
       class="cls-4"
       d="m 911.9,239.3 c -1.1,0 -1.8,-0.6 -2.2,-1.9 l -1.1,-3.2 h -7.4 l -1.1,3.2 c -0.4,1.3 -1,1.9 -2.2,1.9 -1.2,0 -2.1,-0.8 -2.1,-1.9 v 0 c 0,-0.6 0,-1 0.3,-1.5 l 5.6,-15.2 c 0.5,-1.8 2.4,-2.8 4.2,-2.3 1.1,0.3 1.9,1.2 2.3,2.3 l 5.6,15.2 c 0.2,0.4 0.3,0.9 0.3,1.4 0,1.1 -0.9,2 -2,2 z m -4.2,-8.4 -2.6,-8.4 v 0 l -2.7,8.4 h 5.4 z"
       id="path266-8"
       style="fill:#ffffff" />
    <path
       class="cls-4"
       d="m 428,522.7 v -5.6 c 0,-0.5 0.3,-0.9 0.7,-1 h 0.2 c 0.5,0 0.9,0.3 1,0.8 l 1.8,4.3 v 0 l 1.7,-4.3 c 0.1,-0.5 0.5,-0.8 1,-0.8 0.5,0 0.9,0.3 1,0.8 v 5.8 c 0,0.4 -0.3,0.7 -0.7,0.7 -0.4,0 -0.7,-0.3 -0.7,-0.7 v -4.2 0 l -1.7,4.3 c -0.1,0.4 -0.5,0.5 -0.8,0.4 -0.2,0 -0.4,-0.2 -0.4,-0.4 l -1.7,-4.3 v 0 4.2 c 0,0.4 -0.2,0.7 -0.6,0.7 -0.4,0 -0.7,-0.2 -0.7,-0.6 v -0.2 0 z"
       id="path267"
       style="fill:#ffffff" />
    <path
       class="cls-4"
       d="m 436.5,516.7 c 0,-0.4 0.3,-0.7 0.7,-0.7 v 0 c 0.4,0 0.7,0.3 0.7,0.7 0,0.4 -0.3,0.7 -0.7,0.7 v 0 c -0.4,0 -0.7,-0.3 -0.8,-0.7 v 0 z m 0,6 v -4 c 0,-0.4 0.2,-0.7 0.6,-0.7 h 0.1 c 0.4,0 0.7,0.3 0.7,0.6 v 0 4.1 c 0,0.4 -0.2,0.7 -0.6,0.7 h -0.1 c -0.4,0 -0.7,-0.3 -0.7,-0.7 z"
       id="path268"
       style="fill:#ffffff" />
    <path
       class="cls-4"
       d="m 438.7,520.7 c 0,-1.7 0.8,-2.7 2.2,-2.7 1.4,0 1.3,0.4 1.6,1 v 0 -2.1 c 0,-0.4 0.2,-0.7 0.6,-0.7 h 0.1 c 0.4,0 0.7,0.3 0.7,0.6 v 0 5.9 c 0,0.4 -0.2,0.7 -0.6,0.7 h -0.1 c -0.4,0 -0.7,-0.2 -0.7,-0.6 v 0 -0.4 0 c -0.3,0.6 -0.9,1 -1.6,1 -1.3,0 -2.1,-1 -2.1,-2.7 z m 3.8,0 c 0,-1 -0.5,-1.6 -1.2,-1.6 -0.7,0 -1.2,0.6 -1.2,1.6 0,1 0.4,1.5 1.2,1.5 0.8,0 1.2,-0.6 1.2,-1.5 z"
       id="path269"
       style="fill:#ffffff" />
  </g>
</svg>
