<?xml version="1.0" encoding="UTF-8"?>
<svg xmlns="http://www.w3.org/2000/svg" version="1.1" viewBox="0 0 972.7 1012.6">
  <defs>
    <style>
      .cls-1 {
        fill: none;
        stroke: #fff;
        stroke-miterlimit: 10;
      }

      .cls-2 {
        fill: #3d3d3d;
      }

      .cls-3 {
        fill: #7e7f7e;
      }

      .cls-4 {
        fill: #fff;
      }

      .cls-5 {
        fill: #535353;
      }
    </style>
  </defs>
  <!-- Generator: Adobe Illustrator 28.6.0, SVG Export Plug-In . SVG Version: 1.2.0 Build 709)  -->
  <g>
    <g id="Layer_1">
      <g id="Body_Merge">
        <path class="cls-2" d="M958.6,414.4h-32v-32h32v-96h-64v4h-32v-12h-5.9l-18.1-18v-6.1h-12v-32h36v-34c-2.1-23.5-28-30-28-30h-187l-9-9.1V32.4h-92.9l-43-9.2-30.1-10.9-34-3-12.1,11h-23.9l-32,6.8-3,7.1-3.1,6.1-4.9,5-2.1,1.1-27,25-11.9,28.1v107h32v48H121.6c-22.8,5.5-27,29-27,29v51h24v16H14.6v96h32v64H14.6v63.9h40v32.1h-29v80h149v-32h32v80h58l6-6,11,11-11,11.1v32l19,19h27.9v-3h129.1v210h144v-83l128-127.1h0v-64h-32v-64h128v-119.3h0v-40.7h32v19l13,13h99v-128h0ZM894.6,355.5v122.9h-181c-8.3-3.7-11.1-10.9-11.1-10.9v-10.1c4.2-9.1,11.1-11,11.1-11h149v-100h32v9.1h0ZM718.6,606.4v-36h-80v4h-64v-32h16v-96h-57l-23-23.2v-10h0v-30.7h-8v-32h8v-32h144v228h64v-4h32v64h-32ZM510.6,542.4v-56h32v24h-16v96h16v24h-32v-88h0ZM770.6,222.4v32h-4v64h-16v64h-32v-24h-16v-16h16v-56l-32-32h-72v-32h156ZM382.6,142.3h32v32.1h127.9v-32.1h32.1v128.1h-160v16h-32v-144.1h0ZM318.6,286.4v64h136v32h-72v54h2v10h-98.9l-31.1-31v-129h64ZM166.6,334.4h56v166h-16v-150h-40v-16h0ZM142.6,414.4v64h-8v-16h-48v16h-8v-64h64ZM174.6,606.4h-72v-32.1h42v-16.9l-5-16,28.9-14,7.1,14.9h159.1v-64h48v96h65v32h-129v97l-10.9,10-11.1-11,6-6v-90h-128.1ZM638.5,766.4v32l-47.2,48h-62.8v11h-18v-100h0v-23h-128v-64h197l27-30v-34h32v160h0Z"/>
      </g>
      <g id="Bombsite">
        <rect class="cls-5" x="110.6" y="407.2" width="64" height="87.1"/>
        <rect class="cls-5" x="14.5" y="382.4" width="160" height="64"/>
        <rect class="cls-5" x="797.9" y="318.4" width="64.6" height="60"/>
        <rect class="cls-5" x="750.6" y="326.3" width="112" height="120.8"/>
        <rect class="cls-3" x="79" y="414.8" width="63.1" height="46.7"/>
        <rect class="cls-3" x="140.5" y="445.9" width="17.4" height="16"/>
        <rect class="cls-3" x="157.9" y="445.9" width="8.4" height="8"/>
        <rect class="cls-3" x="801.2" y="397.6" width="37.6" height="15.1" transform="translate(-58.7 658.9) rotate(-42.4)"/>
        <rect class="cls-3" x="135.3" y="445.9" width="6.4" height="31.6"/>
        <rect class="cls-3" x="79.4" y="445.9" width="6.2" height="31.7"/>
      </g>
      <g id="Lines">
        <path class="cls-4" d="M828.8,386.9l9.5,10.4-27.1,24.8-9.5-10.4,27.1-24.8M828.8,385.5l-28.6,26.1,10.8,11.9,28.6-26.1-10.8-11.9h0Z"/>
        <path class="cls-4" d="M741.6,431.4v15h-14v-15h14M742.6,430.4h-16v17h16v-17h0Z"/>
        <path class="cls-4" d="M797.5,311.4v14h-47v-7h16v-7h31M798.5,310.4h-32.9v7h-16v9h49v-16h0Z"/>
        <polyline class="cls-1" points="715 477.9 701.8 491.2 690 479.4 703 466.3"/>
        <path class="cls-4" d="M958.6,414.4v15h-15v-15h15M959.6,413.4h-17v17h17v-17h0Z"/>
        <path class="cls-4" d="M958.6,430.4v7h-7v-7h7M959.6,429.4h-9v9h9v-9h0Z"/>
        <path class="cls-4" d="M741.6,606.3v15h-14v-15h14M742.6,605.3h-16v17h16v-17h0Z"/>
        <path class="cls-4" d="M445.5,783.4v15h-14v-15h14M446.5,782.4h-16v17h16v-17h0Z"/>
        <path class="cls-4" d="M405.5,647.4v7h-14v-7h14M406.5,646.4h-16v9h16v-9h0Z"/>
        <path class="cls-4" d="M413.5,655.4v15h-30v-15h30M414.5,654.4h-32v17h32v-17h0Z"/>
        <path class="cls-4" d="M283.6,475.5c1,0,1.9.8,1.9,1.9v34.2c0,1-.8,1.9-1.9,1.9h-10.2c-1,0-1.9-.8-1.9-1.9v-34.2c0-1,.8-1.9,1.9-1.9h10.2M283.6,474.5h-10.2c-1.6,0-2.9,1.3-2.9,2.9v34.2c0,1.6,1.3,2.9,2.9,2.9h10.2c1.6,0,2.9-1.3,2.9-2.9v-34.2c0-1.6-1.3-2.9-2.9-2.9h0Z"/>
        <path class="cls-4" d="M261.7,633.4c1,0,1.9.8,1.9,1.9v38.3c0,1-.8,1.9-1.9,1.9h-10.2c-1,0-1.9-.8-1.9-1.9v-38.3c0-1,.8-1.9,1.9-1.9h10.2M261.7,632.4h-10.2c-1.6,0-2.9,1.3-2.9,2.9v38.3c0,1.6,1.3,2.9,2.9,2.9h10.2c1.6,0,2.9-1.3,2.9-2.9v-38.3c0-1.6-1.3-2.9-2.9-2.9h0Z"/>
        <path class="cls-4" d="M117.6,606.4v15h-14v-15h14M118.6,605.4h-16v17h16v-17h0Z"/>
        <path class="cls-4" d="M157.5,446.4v14.9h-15v-14.9h15M158.5,445.4h-17v16.9h17v-16.9h0Z"/>
        <path class="cls-4" d="M165.6,446.4v7h-7v-7h7M166.6,445.4h-9v9h9v-9h0Z"/>
        <path class="cls-4" d="M206.6,391.3v14.1h-15.1v-14.1h15.1M207.6,390.3h-17.1v16.1h17.1v-16.1h0Z"/>
        <path class="cls-4" d="M197.6,311.4v7h-7v-7h7M198.6,310.4h-9v9h9v-9h0Z"/>
        <path class="cls-4" d="M211.6,319.4v15h-36v-15h36M212.6,318.4h-38v17h38v-17h0Z"/>
        <path class="cls-4" d="M397.6,286.4v31h-14v-31h14M398.6,285.4h-16v33h16v-33h0Z"/>
        <path class="cls-4" d="M653.6,303.4v15h-14v-15h14M654.6,302.4h-16v17h16v-17h0Z"/>
        <path class="cls-4" d="M765.6,199.4v23h-14v-23h14M766.6,198.4h-16v25h16v-25h0Z"/>
        <polyline class="cls-1" points="650.3 157.7 638.6 169.4 627.5 158.3 639 146.8"/>
        <path class="cls-4" d="M510.6,583.4v14h-15v-14h15M511.6,582.4h-17v16h17v-16h0Z"/>
        <path class="cls-4" d="M445.5,382.4v14.9h-63v-14.9h63M446.5,381.4h-65v16.9h65v-16.9h0Z"/>
        <path class="cls-4" d="M450.2,468.4l9.5,9.5-21.7,21.7-9.5-9.5,21.7-21.7M450.2,467l-23.1,23.1,10.9,10.9,23.1-23.1-10.9-10.9h0Z"/>
        <path class="cls-4" d="M444,474.6l9.5,9.5-9.5,9.5-9.5-9.5,9.5-9.5M444,473.2l-10.9,10.9,10.9,10.9,10.9-10.9-10.9-10.9h0Z"/>
        <rect class="cls-4" x="414.4" y="285.4" width="160.1" height="1"/>
        <rect class="cls-4" x="462.6" y="285.7" width="1" height="2.7"/>
        <rect class="cls-4" x="463.1" y="287.4" width="31.5" height="1"/>
        <rect class="cls-4" x="493.6" y="285.9" width="1" height="2"/>
        <rect class="cls-4" x="166.3" y="445.4" width="40.7" height="1"/>
        <rect class="cls-4" x="510.6" y="445.4" width="23.2" height="1"/>
        <rect class="cls-4" x="654.4" y="413.4" width="16.1" height="1"/>
        <rect class="cls-4" x="669.6" y="349.4" width="1" height="64.5"/>
        <rect class="cls-4" x="670.1" y="349.4" width="32.6" height="1"/>
        <polyline class="cls-1" points="832 254 832 263.4 854.1 284.9 863 284.9"/>
        <polyline class="cls-1" points="470.1 1009.5 470.1 1002.9 452.9 1002.9"/>
        <path class="cls-4" d="M500.6,1003.4v5.1h-14v-5.1h14M501.6,1002.4h-16v7.1h16v-7.1h0Z"/>
        <rect class="cls-4" x="470.2" y="1003.4" width="15.8" height="1"/>
        <path class="cls-4" d="M550.6,1003.4v5h-14v-5h14M551.6,1002.4h-16v7h16v-7h0Z"/>
        <polyline class="cls-1" points="567.1 1008.9 567.1 1002.9 584.2 1002.9"/>
        <rect class="cls-4" x="551" y="1003.4" width="15.9" height="1"/>
        <path class="cls-1" d="M446.2,1001s9-1.5,8.9,7.8"/>
        <path class="cls-1" d="M591.1,1000.8s-9.1-1.2-9.1,7.8"/>
        <rect class="cls-4" x="157.5" y="444.4" width="49.2" height="1.1"/>
        <rect class="cls-4" x="14.3" y="381.4" width="96.2" height="1"/>
        <path class="cls-4" d="M69.6,350.4v15h-14v-15h14M70.6,349.4h-16v17h16v-17h0Z"/>
        <path class="cls-4" d="M189.6,303.4v15h-14v-15h14M190.6,302.4h-16v17h16v-17h0Z"/>
        <path class="cls-4" d="M85.6,671.4v15h-14v-15h14M86.6,670.4h-16v17h16v-17h0Z"/>
        <path class="cls-4" d="M421.6,559.4v15h-14v-15h14M422.6,558.4h-16v17h16v-17h0Z"/>
      </g>
      <g id="Outlines">
        <path class="cls-4" d="M438.6,9.4l34,3,30.1,10.9,43,9.2h92.9v116.9l9,9.1h187s25.8,6.5,28,30v34h-36v32h12v6l18.1,18h5.9v12h32v-4h64v96h-32v32h32v128h-99l-13-13v-19h-32v40.7h0v119.3h-128v64h32v64l-128,127.1v83h-144v-210h-129.1v3h-27.9l-19-19v-32l11-11.1-11-11-6,6h-58v-80h-32v32H25.6v-80h29v-32.1H14.6v-63.9h32v-64H14.6v-96h104v-16h-24v-51s4.2-23.5,27-29h229v-48h-32v-107l11.9-28.1,27-25,2.1-1.1,4.9-5,3.1-6.1,3-7.1,32-6.8h23.9l12.1-11M414.5,174.4v-32.1h-32v144.1h32v-16h160v-128.1h-32.1v32.1h-127.9M614.5,254.4h72l32,32v56h-16v16h16v24h32v-64h16v-64h4v-32h-156v32M285.6,446.4h98.9v-10h-2v-54h72v-32h-136v-64h-64v129l31,31M502.5,382.4h8v30.7h0v10l23,23.2h57v96h-16v32h64v-4h80v36h32v-64h-32v4h-64v-228h-144v32h-8v32M166.5,350.4h40v150h16v-166h-56v16M713.5,478.3h181v-132h-32v100h-149s-6.9,1.9-11.1,11v10.1s2.8,7.1,11.1,10.9M78.5,478.3h8v-16h48v16h8v-64h-64v64M175.5,542.3l-7.1-14.9-28.9,14,5,16v16.9h-42v32.1h200v90l-6,6,11.1,11,10.9-10v-97h129v-32h-65v-96h-48v64h-159.1M510.5,630.3h32v-24h-16v-96h16v-24h-32v144M382.5,734.3h128v23h0v100h18v-11h62.8l47.2-48v-192h-32v34l-27,30h-197v64M438.2,8.3l-.3.3-11.8,10.7h-23.7l-32,6.8h-.5c0,.1-.2.6-.2.6l-3,7-3,5.9-4.6,4.7-2,1h-.1v.2c-.1,0-27.1,25-27.1,25l-.2.2v.2l-12,28.1v108.4h32v45.9H121.3c-23.2,5.6-27.7,29.6-27.8,29.9h0v52.2h24v13.9H13.5v98.1h32v61.9H13.5v66h40v30h-29v82.1h151.1v-32h29.9v80h59.5l.3-.3,5.3-5.3,9.5,9.5-10.3,10.3-.3.3v32.9l.3.3,19,19,.3.3h29.4v-3h127v210h146.1v-83.6l127.7-126.8.3-.3v-65.5h-32v-61.9h128v-160h29.9v18.3l.3.3,13,13,.3.3h100.5v-130.1h-32v-29.9h32v-98.1h-66.1v4h-29.9v-12h-6.5l-17.5-17.3v-6.7h-12v-29.9h36v-35.2c-.9-9.9-6.2-18.4-15.2-24.6-6.8-4.6-13.2-6.3-13.5-6.3h-186.8l-8.4-8.5V31.3h-93.8l-42.8-9.1-30-10.8h-.2l-34-3h-.7ZM543.5,143.4h30v126h-160v16h-29.9v-142h29.9v32.1h130v-32.1h0ZM615.6,223.4h153.9v29.9h-4v64h-16v64h-29.9v-24h-16v-13.9h16v-57.4l-.3-.3-32-32-.3-.3h-71.4v-29.9h0ZM255.6,287.4h61.9v64h136v29.9h-72v56.1h2v7.9h-97.5l-30.4-30.4v-127.5h0ZM511.6,319.4h141.9v228h66.1v-4h29.9v61.9h-29.9v-36h-82.1v4h-61.9v-29.9h16v-98.1h-57.6l-22.4-22.6v-10.6h0v-30.8h-8v-29.9h8v-32h0ZM167.6,335.4h53.9v163.9h-13.9v-150h-40v-13.9h0ZM863.6,347.4h29.9v129.9h-179.7c-7-3.2-9.8-9-10.2-10v-9.7c3.6-7.7,9.3-9.9,10.2-10.2h149.9v-100h0ZM79.6,415.4h61.9v61.9h-5.9v-16h-50.1v16h-5.9v-61.9h0ZM335.6,479.4h45.9v96h65v29.9h-129v97.6l-9.9,9-9.6-9.5,5.2-5.3.3-.3v-91.5H103.6v-30h42v-18.3l-4.7-15.1,27.1-13.1,6.6,14,.3.6h160.8v-64h-.1ZM511.6,487.4h29.9v21.9h-16v98.1h16v21.9h-29.9v-141.9h0ZM607.6,607.4h29.9v190.5l-46.5,47.4h-63.4v11h-15.9v-100h0v-23h-128v-61.9h196.4l.3-.3,27-30,.3-.3v-33.3h0Z"/>
      </g>
      <g id="Callouts_copy">
        <path class="cls-4" d="M470.6,958.7c0-.2,0-.4.1-.6l2.5-6.8c.3-.7.7-1.1,1.4-1.1s1.2.3,1.5,1.1l2.5,6.8c0,.2.1.4.1.6,0,.5-.4.9-1,.9s-.8-.2-1-.8l-.5-1.5h-3.3l-.5,1.4c-.2.6-.5.9-1,.9s-1-.3-1-.9h.2ZM475.9,955.8l-1.2-3.8h0l-1.2,3.8h2.4Z"/>
        <path class="cls-4" d="M479.8,954.1h-.4c-.4,0-.7-.3-.7-.7s.3-.7.7-.7h.4v-.8c0-.6.4-1,.9-1s.9.4.9,1v.8h.6c.4,0,.7.3.7.7s-.3.7-.7.7h-.6v3.3c0,.5.2.7.6.7h.1c.5,0,.7.2.7.7s-.5.8-1.3.8h0c-1.2,0-1.9-.6-1.9-1.8v-3.7h0Z"/>
        <path class="cls-4" d="M484.4,954.1h-.4c-.4,0-.7-.3-.7-.7s.3-.7.7-.7h.4v-.8c0-.6.4-1,.9-1s.9.4.9,1v.8h.6c.4,0,.7.3.7.7s-.3.7-.7.7h-.6v3.3c0,.5.2.7.6.7h.1c.5,0,.7.2.7.7s-.5.8-1.3.8h0c-1.2,0-1.9-.6-1.9-1.8v-3.7h0Z"/>
        <path class="cls-4" d="M488.2,957.5c0-1.2,1-2,2.6-2.1h1.7v-.5c0-.6-.4-1-1.1-1s-.9.2-1.3.7c-.2.2-.4.3-.7.3-.5,0-.8-.3-.8-.7v-.4c.3-.8,1.4-1.3,2.8-1.3s2.9.9,2.9,2.3v3.9c0,.6-.4.9-.9.9s-.9-.3-.9-.8v-.3h0c-.4.7-1.2,1.2-2.1,1.2-1.3,0-2.3-.8-2.3-2.1h0ZM492.6,957v-.5h-1.4c-.7,0-1.1.5-1.1.9s.4.8,1,.8,1.5-.5,1.5-1.3h0Z"/>
        <path class="cls-4" d="M495.3,956.1c0-2.2,1.3-3.5,3.3-3.5s2.5.7,2.9,1.6c0,.2.1.3.1.5,0,.5-.4.7-.8.7s-.6-.2-.8-.5c-.3-.6-.8-.9-1.3-.9-.9,0-1.5.8-1.5,2.1s.6,2.1,1.5,2.1,1-.3,1.3-.8c.2-.4.5-.5.8-.5s.8.3.8.7,0,.3-.1.5c-.4.9-1.6,1.6-2.9,1.6-2,0-3.4-1.3-3.4-3.5h.1Z"/>
        <path class="cls-4" d="M502.7,958.7v-7.5c0-.6.4-1,.9-1s.9.3.9,1v4.2h0l2.5-2.5c.2-.3.5-.4.7-.4.5,0,.8.3.8.8s0,.5-.4.7l-1.7,1.6,1.9,2.4c.2.3.3.4.3.7,0,.5-.4.8-.9.8s-.6,0-.9-.6l-1.8-2.3-.6.5v1.4c0,.6-.4,1-.9,1s-.9-.3-.9-1h0v.2Z"/>
        <path class="cls-4" d="M509.1,956.1c0-2.2,1.3-3.6,3.3-3.6s3.2,1.3,3.2,3.2-.3.8-.8.8h-3.9c0,1.1.6,1.8,1.5,1.8s1.1-.2,1.6-.8c.2-.2.4-.3.6-.3.4,0,.7.2.7.7s0,.3,0,.5c-.5.8-1.5,1.3-2.8,1.3-2.1,0-3.4-1.3-3.4-3.5h0ZM513.8,955.4c0-.9-.6-1.5-1.4-1.5s-1.4.6-1.5,1.5h2.9Z"/>
        <path class="cls-4" d="M516.6,958.7v-5.2c0-.6.4-.9.9-.9s.9.3.9.9v.4h0c.2-.8.7-1.3,1.4-1.3s.4,0,.6.2c.2,0,.3.4.3.7s0,.5-.3.7-.4.2-.8.2c-.8,0-1.1.5-1.1,1.3v3c0,.6-.4,1-.9,1s-.9-.3-.9-1h-.1Z"/>
        <path class="cls-4" d="M523.9,957.9v-.5c0-.5.3-.8.8-.8s.7.2.9.6c.3.7,1,1,1.9,1s1.7-.5,1.7-1.2-.4-1-1.6-1.2l-1-.2c-1.8-.4-2.7-1.2-2.7-2.6s1.5-2.8,3.5-2.8,2.9.7,3.3,1.9v.4c0,.5-.3.8-.8.8s-.7-.2-.9-.6c-.3-.7-.9-1-1.7-1s-1.6.4-1.6,1.1.4.9,1.5,1.1l1,.2c1.9.4,2.8,1.2,2.8,2.6s-1.4,2.9-3.7,2.9-3.1-.8-3.5-1.8h0Z"/>
        <path class="cls-4" d="M532.1,961v-7.5c0-.6.4-1,.9-1s.9.3.9,1v.4h0c.4-.8,1.1-1.3,2.1-1.3,1.7,0,2.8,1.3,2.8,3.5s-1,3.5-2.8,3.5-1.8-.5-2.1-1.2h0v2.6c0,.6-.4,1-.9,1s-.9-.3-.9-1h0ZM536.9,956.1c0-1.2-.6-2-1.5-2s-1.5.8-1.5,2,.6,2,1.5,2,1.5-.8,1.5-2Z"/>
        <path class="cls-4" d="M539.5,957.5c0-1.2,1-2,2.7-2.1h1.7v-.5c0-.6-.4-1-1.1-1s-.9.2-1.3.7c-.2.2-.4.3-.7.3-.5,0-.8-.3-.8-.7v-.4c.3-.8,1.4-1.3,2.8-1.3s2.9.9,2.9,2.3v3.9c0,.6-.4.9-.9.9s-.8-.3-.9-.8v-.3h0c-.4.7-1.2,1.2-2.1,1.2-1.3,0-2.3-.8-2.3-2.1h0ZM543.9,957v-.5h-1.4c-.7,0-1.1.5-1.1.9s.4.8,1,.8,1.5-.5,1.5-1.3h0Z"/>
        <path class="cls-4" d="M548,958.7l-1.4-4.7v-.6c0-.5.4-.8.9-.8s.8.3.9.8l1,4.4h0l1-4.3c0-.5.5-.8,1-.8s.9.3,1,.8l1.1,4.3h0l1-4.4c0-.5.4-.8.9-.8s.9.3.9.8v.6l-1.4,4.8c-.2.7-.5,1-1.2,1s-1-.3-1.2-1l-1-4h0l-1,4c-.2.7-.5,1-1.2,1s-1-.3-1.2-1h0Z"/>
        <path class="cls-4" d="M557.1,958.7v-5.2c0-.6.3-.9.9-.9s.9.4.9.9v.4h0c.4-.8,1-1.3,2.1-1.3s2.4,1,2.4,2.5v3.5c0,.6-.4,1-.9,1s-.9-.3-.9-1v-3.2c0-.9-.4-1.4-1.2-1.4s-1.4.6-1.4,1.5v3.1c0,.6-.4,1-.9,1s-.9-.3-.9-1h0Z"/>
        <path class="cls-4" d="M690.6,194.1v-.5l1.9-5.2c.2-.6.5-.8,1.1-.8s.9.2,1.1.8l1.9,5.2v.5c0,.4-.3.7-.7.7s-.6-.2-.8-.6l-.4-1.1h-2.5l-.4,1.1c0,.5-.4.7-.8.7s-.8-.3-.8-.7h.4ZM694.7,191.9l-.9-2.9h0l-.9,2.9h1.9,0Z"/>
        <path class="cls-4" d="M697.7,194.1v-5.8c0-.5.3-.8.7-.8s.7.3.7.8v5.8c0,.5-.3.7-.7.7s-.7-.2-.7-.7Z"/>
        <path class="cls-4" d="M700.1,194.1v-5.8c0-.5.3-.8.7-.8s.7.3.7.8v5.8c0,.5-.3.7-.7.7s-.7-.2-.7-.7Z"/>
        <path class="cls-4" d="M702.3,192.1c0-1.7,1-2.8,2.5-2.8s2.5,1,2.5,2.4-.2.6-.6.6h-3c0,.8.5,1.3,1.2,1.3s.9-.2,1.2-.6c.2-.2.3-.2.5-.2.3,0,.6.2.6.5v.4c-.3.6-1.2,1-2.2,1-1.6,0-2.6-1-2.6-2.7h-.1ZM705.9,191.6c0-.7-.5-1.1-1.1-1.1s-1.1.5-1.1,1.1h2.2,0Z"/>
        <path class="cls-4" d="M707.9,196c0-.3.2-.5.5-.5h.2c.2,0,.5-.1.7-.5v-.2l-1.6-4.4v-.4c0-.4.3-.7.7-.7s.6.2.7.6l1.1,3.6h0l1.1-3.6c0-.4.3-.6.7-.6s.7.3.7.6v.4l-1.6,4.4c-.5,1.4-1.1,1.9-2.2,1.9s-1-.2-1-.7h0Z"/>
        <path class="cls-4" d="M321.7,766.2v-5.5c0-.5.3-.8.7-.8h2.3c1.3,0,2.1.7,2.1,1.8s-.6,1.4-1.3,1.5h0c1,0,1.7.8,1.7,1.7s-.9,2-2.4,2h-2.4c-.5,0-.7-.3-.7-.8h0ZM324.3,762.9c.8,0,1.2-.3,1.2-.9s-.4-.9-1.1-.9h-1.2v1.8h1.1ZM324.5,765.9c.9,0,1.3-.4,1.3-1s-.5-1-1.3-1h-1.2v2h1.3,0Z"/>
        <path class="cls-4" d="M330.1,766.2v-5.6c0-.5.3-.8.7-.8s.7.3.7.8v5.2h2.5c.4,0,.7.2.7.6s-.3.6-.7.6h-3.2c-.5,0-.7-.3-.7-.8Z"/>
        <path class="cls-4" d="M335.1,764.4c0-1.7,1-2.7,2.6-2.7s2.6,1,2.6,2.7-1,2.7-2.6,2.7-2.6-1-2.6-2.7ZM338.9,764.4c0-1-.5-1.6-1.1-1.6s-1.1.6-1.1,1.6.4,1.6,1.1,1.6,1.1-.6,1.1-1.6Z"/>
        <path class="cls-4" d="M341.1,766.4v-5.8c0-.5.3-.8.7-.8s.7.3.7.8v2.1h0c.3-.6.9-1,1.6-1,1.3,0,2.1,1,2.1,2.7s-.8,2.7-2.1,2.7-1.4-.4-1.6-1h0v.3c0,.5-.3.7-.7.7s-.7-.2-.7-.7h0ZM344.8,764.4c0-1-.4-1.6-1.1-1.6s-1.2.6-1.2,1.6.5,1.5,1.2,1.5,1.1-.6,1.1-1.5Z"/>
        <path class="cls-4" d="M347.1,766.4v-5.8c0-.5.3-.8.7-.8s.7.3.7.8v2.1h0c.3-.6.9-1,1.6-1,1.3,0,2.1,1,2.1,2.7s-.8,2.7-2.1,2.7-1.4-.4-1.6-1h0v.3c0,.5-.3.7-.7.7s-.7-.2-.7-.7h0ZM350.8,764.4c0-1-.4-1.6-1.1-1.6s-1.2.6-1.2,1.6.5,1.5,1.2,1.5,1.1-.6,1.1-1.5Z"/>
        <path class="cls-4" d="M352.8,768.2c0-.3.2-.5.5-.5h.2c.2,0,.5,0,.7-.5v-.2l-1.6-4.4v-.4c0-.4.3-.7.7-.7s.6.2.7.6l1.1,3.6h0l1.1-3.6c.1-.4.3-.6.7-.6s.7.3.7.6v.4l-1.6,4.4c-.5,1.3-1.1,1.8-2.2,1.8s-1-.2-1-.7h0v.2Z"/>
        <path class="cls-4" d="M443.6,454.7v-5.6c0-.6.4-1,1-1s.8.2,1,.8l1.8,4.3h0l1.7-4.3c.2-.5.5-.8,1-.8s1,.4,1,1v5.6c0,.4-.2.7-.7.7s-.6-.2-.6-.7v-4.2h0l-1.7,4.3c-.1.3-.3.5-.6.5s-.5-.1-.6-.4l-1.7-4.3h0v4.2c0,.4-.2.7-.6.7s-.7-.2-.7-.7h-.3Z"/>
        <path class="cls-4" d="M452,448.7c0-.4.3-.7.8-.7s.8.3.8.7-.3.7-.8.7-.8-.3-.8-.7ZM452.1,454.7v-4c0-.5.3-.8.7-.8s.7.3.7.8v4c0,.5-.3.7-.7.7s-.7-.3-.7-.7Z"/>
        <path class="cls-4" d="M454.3,452.7c0-1.7.8-2.7,2.1-2.7s1.3.4,1.6,1h0v-2.1c0-.5.3-.8.7-.8s.7.3.7.8v5.8c0,.5-.3.7-.7.7s-.7-.2-.7-.7v-.3h0c-.2.6-.8,1-1.6,1-1.3,0-2.1-1-2.1-2.7h0ZM458.1,452.7c0-1-.5-1.6-1.2-1.6s-1.2.6-1.2,1.6.4,1.5,1.2,1.5,1.2-.6,1.2-1.5Z"/>
        <path class="cls-4" d="M541.1,561.7v-5.2h-1.5c-.4,0-.7-.2-.7-.6s.3-.6.7-.6h4.4c.4,0,.7.2.7.6s-.3.6-.7.6h-1.5v5.2c0,.5-.3.8-.7.8s-.7-.3-.7-.8h0Z"/>
        <path class="cls-4" d="M545.1,555.8c0-.4.3-.7.8-.7s.8.3.8.7-.3.7-.8.7-.8-.3-.8-.7ZM545.1,561.7v-4c0-.5.3-.8.7-.8s.7.3.7.8v4c0,.5-.3.7-.7.7s-.7-.3-.7-.7Z"/>
        <path class="cls-4" d="M547.5,561.7v-5.8c0-.5.3-.8.7-.8s.7.3.7.8v5.8c0,.5-.3.7-.7.7s-.7-.2-.7-.7Z"/>
        <path class="cls-4" d="M549.7,559.8c0-1.7,1-2.8,2.5-2.8s2.5,1,2.5,2.4-.2.6-.6.6h-3c0,.8.5,1.3,1.2,1.3s.9-.2,1.2-.6c.2-.2.3-.2.5-.2.3,0,.6.2.6.5v.3c-.3.6-1.2,1-2.2,1-1.6,0-2.6-1-2.6-2.7h0v.2ZM553.4,559.2c0-.7-.5-1.1-1.1-1.1s-1.1.5-1.1,1.1h2.2,0Z"/>
        <path class="cls-4" d="M555.4,561.5v-.3c0-.3.2-.5.6-.5s.4,0,.6.3c.3.4.6.5,1.1.5s.8-.2.8-.6-.2-.4-.7-.5l-.9-.2c-1-.2-1.5-.7-1.5-1.5s.9-1.7,2.2-1.7,1.9.5,2,1.1v.2c0,.3-.2.5-.5.5s-.4,0-.5-.2c-.2-.3-.5-.6-1-.6s-.8.2-.8.6.2.5.7.6l.9.2c1.1.2,1.6.6,1.6,1.4s-.9,1.7-2.3,1.7-2-.4-2.2-1h0Z"/>
        <path class="cls-4" d="M734.9,644.8v-.5l1.9-5.2c.2-.6.5-.8,1.1-.8s.9.2,1.1.8l1.9,5.2v.5c0,.4-.3.7-.7.7s-.6-.2-.8-.7l-.4-1.1h-2.5l-.4,1.1c0,.5-.4.7-.8.7s-.8-.3-.8-.7h.4ZM739,642.6l-.9-2.9h0l-.9,2.9h1.9,0Z"/>
        <path class="cls-4" d="M744,644.6v-5.6c0-.5.3-.8.7-.8s.7.3.7.8v5.2h2.5c.4,0,.7.2.7.6s-.3.6-.7.6h-3.2c-.5,0-.7-.3-.7-.8Z"/>
        <path class="cls-4" d="M749.1,642.8c0-1.7,1-2.7,2.6-2.7s2.6,1,2.6,2.7-1,2.7-2.6,2.7-2.6-1-2.6-2.7ZM752.8,642.8c0-1-.5-1.6-1.1-1.6s-1.2.6-1.2,1.6.4,1.6,1.2,1.6,1.1-.6,1.1-1.6Z"/>
        <path class="cls-4" d="M755,644.8v-5.8c0-.5.3-.8.7-.8s.7.3.7.8v2.1h0c.3-.6.9-1,1.6-1,1.3,0,2.1,1,2.1,2.7s-.8,2.7-2.1,2.7-1.3-.4-1.6-1h0v.3c0,.5-.3.7-.7.7s-.7-.2-.7-.7h0ZM758.8,642.8c0-1-.4-1.6-1.2-1.6s-1.2.6-1.2,1.6.5,1.5,1.2,1.5,1.2-.6,1.2-1.5Z"/>
        <path class="cls-4" d="M761,644.8v-5.8c0-.5.3-.8.7-.8s.7.3.7.8v2.1h0c.3-.6.9-1,1.6-1,1.3,0,2.1,1,2.1,2.7s-.8,2.7-2.1,2.7-1.3-.4-1.6-1h0v.3c0,.5-.3.7-.7.7s-.7-.2-.7-.7h0ZM764.8,642.8c0-1-.4-1.6-1.2-1.6s-1.2.6-1.2,1.6.5,1.5,1.2,1.5,1.2-.6,1.2-1.5Z"/>
        <path class="cls-4" d="M766.8,646.7c0-.3.2-.5.5-.5h.2c.2,0,.5,0,.7-.5v-.2l-1.6-4.4v-.4c0-.4.3-.7.7-.7s.6.2.7.6l1.1,3.6h0l1.1-3.6c0-.4.3-.6.7-.6s.7.3.7.6v.4l-1.6,4.4c-.5,1.3-1.1,1.8-2.2,1.8s-1-.2-1-.7h0v.2Z"/>
        <path class="cls-4" d="M431.2,82.8v-7.2c0-.6.4-1,1-1h2.5c2.8,0,4.4,1.6,4.4,4.5s-1.6,4.6-4.4,4.6h-2.5c-.6,0-1-.4-1-1h0ZM434.5,82.2c1.7,0,2.6-1,2.6-3s-1-3-2.6-3h-1.4v6h1.4Z"/>
        <path class="cls-4" d="M439.9,80.4c0-2.2,1.3-3.6,3.3-3.6s3.2,1.3,3.2,3.2-.3.8-.8.8h-3.9c0,1.1.6,1.8,1.5,1.8s1.1-.2,1.6-.8c.2-.2.4-.3.6-.3.4,0,.7.2.7.7s0,.3-.1.4c-.5.8-1.5,1.3-2.8,1.3-2.1,0-3.4-1.3-3.4-3.5h0ZM444.7,79.7c0-.9-.6-1.5-1.4-1.5s-1.4.6-1.5,1.5h2.9Z"/>
        <path class="cls-4" d="M447.9,82.9v-4.6h-.4c-.4,0-.7-.2-.7-.7s.3-.7.7-.7h.4v-.5c0-1.3.7-1.9,1.9-2,1,0,1.4.3,1.4.8s-.1.4-.4.5h-.4c-.6,0-.8.2-.8.8v.4h.8c.4,0,.7.2.7.7s-.3.7-.7.7h-.7v4.6c0,.6-.4,1-.9,1s-.9-.3-.9-1h0Z"/>
        <path class="cls-4" d="M451.6,80.4c0-2.2,1.3-3.6,3.3-3.6s3.2,1.3,3.2,3.2-.3.8-.8.8h-3.9c0,1.1.6,1.8,1.5,1.8s1.1-.2,1.6-.8c.2-.2.4-.3.6-.3.4,0,.7.2.7.7s0,.3-.1.4c-.5.8-1.5,1.3-2.8,1.3-2.1,0-3.4-1.3-3.4-3.5h0ZM456.3,79.7c0-.9-.6-1.5-1.4-1.5s-1.4.6-1.5,1.5h2.9Z"/>
        <path class="cls-4" d="M459,82.9v-5.2c0-.6.3-.9.9-.9s.9.4.9.9v.4h0c.4-.8,1-1.3,2.1-1.3s2.4.9,2.4,2.6v3.6c0,.6-.4,1-.9,1s-.9-.3-.9-1v-3.2c0-.9-.4-1.4-1.2-1.4s-1.4.6-1.4,1.5v3.1c0,.6-.4,1-.9,1s-.9-.3-.9-1h-.1Z"/>
        <path class="cls-4" d="M466.3,80.3c0-2.2,1.1-3.5,2.8-3.5s1.8.5,2.1,1.3h0v-2.7c0-.6.4-1,.9-1s.9.3.9,1v7.5c0,.6-.4.9-.9.9s-.9-.3-.9-.9v-.4h0c-.3.8-1,1.3-2.1,1.3-1.7,0-2.8-1.3-2.8-3.5h0ZM471.2,80.4c0-1.2-.6-2-1.5-2s-1.5.8-1.5,2,.6,2,1.5,2,1.5-.8,1.5-2Z"/>
        <path class="cls-4" d="M474,80.4c0-2.2,1.3-3.6,3.3-3.6s3.2,1.3,3.2,3.2-.3.8-.8.8h-3.9c0,1.1.6,1.8,1.5,1.8s1.1-.2,1.6-.8c.2-.2.4-.3.6-.3.4,0,.7.2.7.7s0,.3-.1.4c-.5.8-1.5,1.3-2.8,1.3-2.1,0-3.4-1.3-3.4-3.5h0ZM478.8,79.7c0-.9-.6-1.5-1.4-1.5s-1.4.6-1.5,1.5h2.9Z"/>
        <path class="cls-4" d="M481.5,82.9v-5.2c0-.6.4-.9.9-.9s.9.3.9.9v.4h0c.2-.8.7-1.3,1.4-1.3s.4,0,.6.2c.2,0,.3.4.3.7s0,.5-.3.7-.4.2-.8.2c-.8,0-1.1.5-1.1,1.3v3c0,.6-.4,1-.9,1s-.9-.3-.9-1h-.1Z"/>
        <path class="cls-4" d="M488.8,82.2c0-.2-.1-.3-.1-.5,0-.5.4-.8.8-.8s.6.2.9.6c.3.7,1,1,1.9,1s1.7-.5,1.7-1.2-.4-.9-1.6-1.2l-1-.2c-1.8-.4-2.7-1.2-2.7-2.6s1.5-2.8,3.5-2.8,2.9.7,3.4,1.9v.4c0,.5-.3.8-.8.8s-.7-.2-.9-.6c-.3-.7-.9-1-1.7-1s-1.6.4-1.6,1.1.4.9,1.5,1.1l1,.2c1.9.4,2.8,1.2,2.8,2.6s-1.4,2.9-3.7,2.9-3.1-.8-3.5-1.8h.1Z"/>
        <path class="cls-4" d="M497,85.2v-7.4c0-.6.4-.9.9-.9s.9.3.9,1v.4h0c.4-.8,1.1-1.3,2.1-1.3,1.7,0,2.8,1.3,2.8,3.5s-1,3.5-2.8,3.5-1.8-.5-2.1-1.2h0v2.6c0,.6-.4,1-.9,1s-.9-.3-.9-1h0v-.2ZM501.8,80.4c0-1.2-.6-2-1.5-2s-1.5.8-1.5,2,.6,2,1.5,2,1.5-.8,1.5-2Z"/>
        <path class="cls-4" d="M504.4,81.8c0-1.2,1-2,2.6-2.1h1.7v-.5c0-.6-.4-1-1.1-1s-.9.2-1.3.7c-.2.2-.4.3-.7.3-.5,0-.8-.3-.8-.7s0-.3.1-.4c.3-.8,1.4-1.3,2.8-1.3s2.9.9,2.9,2.3v3.9c0,.6-.4.9-.9.9s-.9-.3-.9-.8v-.3h0c-.4.7-1.2,1.2-2.1,1.2-1.3,0-2.3-.8-2.3-2.1h0ZM508.8,81.3v-.5h-1.4c-.7,0-1.1.4-1.1.9s.4.8,1,.8,1.5-.5,1.5-1.3h0Z"/>
        <path class="cls-4" d="M512.9,82.9l-1.4-4.7c0-.2-.1-.4-.1-.6,0-.5.4-.8.9-.8s.8.3.9.8l1,4.4h0l1-4.3c0-.6.5-.8,1-.8s.9.3,1,.8l1.1,4.3h0l1-4.4c0-.5.4-.8.9-.8s.9.3.9.8v.6l-1.4,4.8c-.2.7-.5,1-1.2,1s-1-.3-1.2-1l-1-4h0l-1,4c-.2.7-.5,1-1.2,1s-1-.3-1.2-1h0Z"/>
        <path class="cls-4" d="M522.1,82.9v-5.2c0-.6.3-.9.9-.9s.9.4.9.9v.4h0c.4-.8,1-1.3,2.1-1.3s2.4.9,2.4,2.6v3.6c0,.6-.4,1-.9,1s-.9-.3-.9-1v-3.2c0-.9-.4-1.4-1.2-1.4s-1.4.6-1.4,1.5v3.1c0,.6-.4,1-.9,1s-.9-.3-.9-1h0Z"/>
        <path class="cls-4" d="M391.1,633.9v-5.5c0-.5.3-.8.7-.8h2.3c1.3,0,2.1.7,2.1,1.8s-.6,1.4-1.3,1.5h0c1,0,1.7.8,1.7,1.7s-.9,2-2.4,2h-2.4c-.5,0-.7-.3-.7-.8h0ZM393.7,630.6c.8,0,1.2-.3,1.2-.9s-.4-.9-1.1-.9h-1.2v1.8h1.1ZM393.9,633.6c.9,0,1.3-.4,1.3-1s-.5-1-1.3-1h-1.2v2h1.3,0Z"/>
        <path class="cls-4" d="M397.2,632.1c0-1.7,1-2.7,2.6-2.7s2.6,1,2.6,2.7-1,2.7-2.6,2.7-2.6-1-2.6-2.7ZM401,632.1c0-1-.5-1.6-1.1-1.6s-1.1.6-1.1,1.6.4,1.6,1.1,1.6,1.1-.6,1.1-1.6Z"/>
        <path class="cls-4" d="M403.5,630.5h-.3c-.3,0-.5-.2-.5-.5s.2-.5.5-.5h.3v-.6c0-.5.3-.7.7-.7s.7.3.7.7v.6h.5c.3,0,.5.2.5.5s-.2.5-.5.5h-.5v2.5c0,.4.1.5.4.5h0c.4,0,.5.2.5.5s-.4.6-1,.6h0c-1,0-1.4-.5-1.4-1.4v-2.8h0Z"/>
        <path class="cls-4" d="M407.1,630.5h-.3c-.3,0-.5-.2-.5-.5s.2-.5.5-.5h.3v-.6c0-.5.3-.7.7-.7s.7.3.7.7v.6h.5c.3,0,.5.2.5.5s-.2.5-.5.5h-.5v2.5c0,.4.1.5.4.5h0c.4,0,.5.2.5.5s-.4.6-1,.6h0c-1,0-1.4-.5-1.4-1.4v-2.8h0Z"/>
        <path class="cls-4" d="M410,632.1c0-1.7,1-2.7,2.6-2.7s2.6,1,2.6,2.7-1,2.7-2.6,2.7-2.6-1-2.6-2.7ZM413.7,632.1c0-1-.5-1.6-1.1-1.6s-1.1.6-1.1,1.6.4,1.6,1.1,1.6,1.1-.6,1.1-1.6Z"/>
        <path class="cls-4" d="M415.9,634.1v-4c0-.5.3-.7.7-.7s.7.2.7.7v.3h0c.2-.6.8-1,1.5-1s1.3.4,1.5,1.1h0c.2-.7.9-1.1,1.6-1.1s1.7.7,1.7,1.8v2.9c0,.5-.3.7-.7.7s-.7-.3-.7-.7v-2.6c0-.6-.3-.9-.9-.9s-.9.4-.9,1v2.5c0,.5-.3.7-.7.7s-.7-.3-.7-.7v-2.6c0-.6-.3-.9-.8-.9s-.9.4-.9,1v2.5c0,.5-.3.7-.7.7s-.7-.3-.7-.7h0Z"/>
        <path class="cls-4" d="M426.6,634.1v-5.6c0-.6.4-1,1-1s.8.2,1,.8l1.8,4.3h0l1.7-4.3c.2-.5.5-.8,1-.8s1,.3,1,1v5.6c0,.4-.2.7-.7.7s-.6-.2-.6-.7v-4.2h0l-1.7,4.3c-.1.3-.3.5-.6.5s-.5,0-.6-.4l-1.7-4.3h0v4.2c0,.4-.2.7-.6.7s-.7-.2-.7-.7h-.3Z"/>
        <path class="cls-4" d="M435.1,628.1c0-.4.3-.7.8-.7s.8.3.8.7-.3.7-.8.7-.8-.3-.8-.7ZM435.2,634.1v-4c0-.5.3-.8.7-.8s.7.3.7.8v4c0,.5-.3.7-.7.7s-.7-.3-.7-.7Z"/>
        <path class="cls-4" d="M437.4,632.1c0-1.7.8-2.7,2.1-2.7s1.3.4,1.6,1h0v-2.1c0-.5.3-.8.7-.8s.7.3.7.8v5.8c0,.5-.3.7-.7.7s-.7-.2-.7-.7v-.3h0c-.2.6-.8,1-1.6,1-1.3,0-2.1-1-2.1-2.7h0ZM441.1,632.1c0-1-.5-1.6-1.2-1.6s-1.2.6-1.2,1.6.4,1.5,1.2,1.5,1.2-.6,1.2-1.5Z"/>
        <path class="cls-4" d="M158.1,631.6v-5.5c0-.5.3-.8.7-.8h2.3c1.3,0,2.1.7,2.1,1.8s-.6,1.4-1.3,1.5h0c1,0,1.7.8,1.7,1.7s-.9,2-2.4,2h-2.4c-.5,0-.7-.3-.7-.8h0ZM160.6,628.3c.8,0,1.2-.3,1.2-.9s-.4-.9-1.1-.9h-1.2v1.8h1.1ZM160.9,631.3c.9,0,1.3-.4,1.3-1s-.5-1-1.3-1h-1.2v2h1.3-.1Z"/>
        <path class="cls-4" d="M166.5,631.8v-5.6c0-.6.4-1,.9-1s.8.2,1,.8l1.8,4.3h0l1.7-4.3c.2-.5.5-.8,1-.8s.9.3.9,1v5.6c0,.4-.2.7-.7.7s-.6-.2-.6-.7v-4.2h0l-1.7,4.3c-.1.3-.3.5-.6.5s-.5,0-.6-.4l-1.7-4.3h0v4.2c0,.4-.2.7-.6.7s-.7-.2-.7-.7h0Z"/>
        <path class="cls-4" d="M174.7,630.9c0-1,.7-1.5,2-1.6h1.3v-.4c0-.5-.3-.8-.9-.8s-.7,0-1,.5c-.2.2-.3.3-.6.3s-.6-.2-.6-.5v-.3c.2-.6,1.1-1,2.2-1s2.2.7,2.2,1.8v3c0,.5-.3.7-.7.7s-.6-.2-.7-.6v-.3h0c-.3.6-.9.9-1.6.9-1,0-1.8-.6-1.8-1.6h.2ZM178.1,630.5v-.4h-1.1c-.5,0-.8.4-.8.7s.3.6.8.6,1.1-.4,1.1-1h0Z"/>
        <path class="cls-4" d="M180.3,625.8c0-.4.3-.7.8-.7s.8.3.8.7-.3.7-.8.7-.8-.3-.8-.7ZM180.4,631.7v-4c0-.5.3-.8.7-.8s.7.3.7.8v4c0,.5-.3.7-.7.7s-.7-.3-.7-.7Z"/>
        <path class="cls-4" d="M182.8,631.7v-4c0-.4.3-.7.7-.7s.7.3.7.7v.3h0c.3-.7.8-1,1.6-1,1.2,0,1.8.7,1.8,2v2.7c0,.5-.3.7-.7.7s-.7-.2-.7-.7v-2.4c0-.7-.3-1.1-1-1.1s-1,.5-1,1.2v2.4c0,.5-.3.7-.7.7s-.7-.2-.7-.7h0Z"/>
        <path class="cls-4" d="M623.1,284.8v-.5l1.9-5.2c.2-.6.5-.8,1.1-.8s.9.2,1.1.8l1.9,5.2v.5c0,.4-.3.7-.7.7s-.6-.2-.8-.6l-.4-1.1h-2.5l-.4,1.1c0,.5-.4.7-.8.7s-.8-.3-.8-.7h.4ZM627.2,282.6l-.9-2.9h0l-.9,2.9h1.9,0Z"/>
        <path class="cls-4" d="M632.2,284.6v-5.6c0-.5.3-.8.7-.8s.7.3.7.8v5.1h2.5c.4,0,.7.2.7.6s-.3.6-.7.6h-3.2c-.5,0-.7-.3-.7-.8h0Z"/>
        <path class="cls-4" d="M637.5,278.7c0-.4.3-.7.8-.7s.8.3.8.7-.3.7-.8.7-.8-.3-.8-.7ZM637.6,284.7v-4c0-.5.3-.8.7-.8s.7.3.7.8v4c0,.5-.3.7-.7.7s-.7-.3-.7-.7Z"/>
        <path class="cls-4" d="M640,284.7v-4c0-.4.3-.7.7-.7s.7.3.7.7v.3h0c.3-.6.8-1,1.6-1,1.2,0,1.8.7,1.8,2v2.7c0,.5-.3.7-.7.7s-.7-.2-.7-.7v-2.4c0-.7-.3-1.1-1-1.1s-1,.5-1,1.1v2.4c0,.5-.3.7-.7.7s-.7-.2-.7-.7h0Z"/>
        <path class="cls-4" d="M645.8,284.7v-5.8c0-.5.3-.8.7-.8s.7.3.7.8v3.2h0l1.9-1.9c.2-.2.3-.3.6-.3s.6.3.6.6,0,.4-.3.5l-1.3,1.3,1.5,1.9c.2.2.2.3.2.5,0,.4-.3.6-.7.6s-.5-.1-.7-.4l-1.3-1.8-.5.4v1.1c0,.5-.3.7-.7.7s-.7-.2-.7-.7h0Z"/>
        <path class="cls-4" d="M265.1,530v-5.6c0-.6.4-1,1-1s.8.2,1,.8l1.8,4.3h0l1.7-4.3c.2-.5.5-.8,1-.8s1,.3,1,1v5.6c0,.4-.2.7-.7.7s-.6-.2-.6-.7v-4.2h0l-1.7,4.3c-.1.3-.3.5-.6.5s-.5,0-.6-.4l-1.7-4.3h0v4.2c0,.4-.2.7-.6.7s-.7-.2-.7-.7h-.3Z"/>
        <path class="cls-4" d="M273.3,529.1c0-1,.7-1.5,2-1.6h1.3v-.4c0-.5-.3-.8-.9-.8s-.7,0-1,.5c-.2.2-.3.3-.6.3s-.6-.2-.6-.5v-.3c.2-.6,1.1-1,2.2-1s2.2.7,2.2,1.8v3c0,.5-.3.7-.7.7s-.6-.2-.7-.6v-.3h0c-.3.6-1,.9-1.6.9-1,0-1.8-.6-1.8-1.6h.2ZM276.7,528.7v-.4h-1.1c-.5,0-.8.4-.8.7s.3.6.8.6,1.1-.4,1.1-1h0Z"/>
        <path class="cls-4" d="M279,530v-4c0-.5.3-.7.7-.7s.7.3.7.7v.3h0c.1-.7.6-1,1.1-1s.3,0,.4,0,.2.3.2.5,0,.4-.2.5-.3.2-.6.2c-.6,0-.9.4-.9,1v2.3c0,.5-.3.7-.7.7s-.7-.3-.7-.7h0Z"/>
        <path class="cls-4" d="M282.6,530v-5.8c0-.5.3-.8.7-.8s.7.3.7.8v3.2h0l1.9-1.9c.2-.2.4-.3.6-.3.4,0,.6.3.6.6s0,.3-.3.5l-1.3,1.3,1.5,1.9c.2.2.2.3.2.5,0,.4-.3.6-.7.6s-.5,0-.7-.4l-1.3-1.8-.5.4v1.1c0,.5-.3.7-.7.7s-.7-.2-.7-.7h0Z"/>
        <path class="cls-4" d="M287.6,528c0-1.7,1-2.8,2.5-2.8s2.5,1,2.5,2.4-.2.6-.6.6h-3c0,.8.5,1.3,1.2,1.3s.9-.2,1.2-.6c.1-.2.3-.2.5-.2.3,0,.6.2.6.5s0,.2-.1.3c-.4.6-1.2,1-2.2,1-1.6,0-2.6-1-2.6-2.7h0v.2ZM291.2,527.5c0-.7-.5-1.1-1.1-1.1s-1.1.5-1.1,1.1h2.2Z"/>
        <path class="cls-4" d="M293.7,526.5h-.3c-.3,0-.5-.2-.5-.5s.2-.5.5-.5h.3v-.6c0-.5.3-.7.7-.7s.7.3.7.7v.6h.5c.3,0,.5.2.5.5s-.2.5-.5.5h-.5v2.5c0,.4.1.5.4.5h0c.4,0,.5.2.5.5s-.4.6-1,.6h0c-1,0-1.4-.5-1.4-1.4v-2.8h0Z"/>
        <path class="cls-4" d="M38.3,422.6v-16c0-1.4.8-2.2,2.1-2.2h6.8c3.8,0,6.2,2,6.2,5.1s-1.7,4.1-3.8,4.4h0c2.8.3,4.8,2.3,4.8,5s-2.7,5.9-7.1,5.9h-6.9c-1.3,0-2.1-.8-2.1-2.2h0ZM45.7,412.9c2.3,0,3.6-1,3.6-2.7s-1.2-2.6-3.1-2.6h-3.5v5.3h3.1,0ZM46.3,421.6c2.5,0,3.8-1,3.8-3s-1.4-2.9-3.9-2.9h-3.6v5.9h3.7Z"/>
        <path class="cls-4" d="M774.7,438.6c-1.1,0-1.8-.6-2.2-1.9l-1.1-3.2h-7.4l-1.1,3.2c-.4,1.3-1,1.9-2.2,1.9s-2.1-.8-2.1-2,0-.8.3-1.4l5.6-15.2c.6-1.7,1.6-2.4,3.3-2.4s2.6.8,3.2,2.4l5.6,15.2c.2.5.3,1,.3,1.4,0,1.2-.8,2-2.2,2h0ZM770.6,430.2l-2.7-8.4h0l-2.7,8.4h5.5,0Z"/>
        <path class="cls-4" d="M123.5,298.5v-5.5c0-.5.3-.8.7-.8h2.3c1.3,0,2.2.7,2.2,1.8s-.6,1.4-1.3,1.5h0c1,.1,1.7.8,1.7,1.7s-.9,2-2.4,2h-2.4c-.5,0-.7-.3-.7-.8h0ZM126.1,295.1c.8,0,1.2-.4,1.2-.9s-.4-.9-1.1-.9h-1.2v1.8h1.1ZM126.3,298.1c.8,0,1.3-.4,1.3-1s-.5-1-1.3-1h-1.2v2h1.3-.1Z"/>
        <path class="cls-4" d="M129.6,296.6c0-1.7,1-2.7,2.6-2.7s2.6,1,2.6,2.7-1,2.7-2.6,2.7-2.6-1-2.6-2.7ZM133.4,296.6c0-1-.4-1.6-1.1-1.6s-1.1.6-1.1,1.6.4,1.6,1.1,1.6,1.1-.6,1.1-1.6Z"/>
        <path class="cls-4" d="M135.6,298.6v-5.8c0-.5.3-.8.7-.8s.7.3.7.8v2.1h0c.3-.6.9-1,1.6-1,1.3,0,2.1,1,2.1,2.7s-.8,2.7-2.1,2.7-1.4-.4-1.6-1h0v.3c0,.5-.3.7-.7.7s-.7-.2-.7-.7h0ZM139.3,296.6c0-1-.4-1.6-1.1-1.6s-1.2.6-1.2,1.6.5,1.5,1.2,1.5,1.1-.6,1.1-1.5Z"/>
        <path class="cls-4" d="M141.3,297.7c0-1,.7-1.5,2-1.6h1.3v-.4c0-.5-.3-.8-.9-.8s-.7.1-1,.5c-.2.2-.3.3-.6.3s-.6-.2-.6-.5v-.3c.2-.6,1.1-1,2.2-1s2.2.7,2.2,1.8v3c0,.5-.3.7-.7.7s-.6-.2-.7-.6v-.3h0c-.3.6-.9.9-1.6.9-1,0-1.8-.6-1.8-1.6h.2ZM144.7,297.3v-.4h-1.1c-.5.1-.8.4-.8.7s.3.6.8.6,1.1-.4,1.1-1h0Z"/>
        <path class="cls-4" d="M440.6,323v-5.1h-1.5c-.4,0-.7-.2-.7-.6s.3-.6.7-.6h4.4c.4,0,.7.2.7.6s-.3.6-.7.6h-1.5v5.1c0,.5-.3.8-.7.8s-.7-.3-.7-.8h0Z"/>
        <path class="cls-4" d="M443.5,321c0-1.7,1-2.7,2.6-2.7s2.6,1,2.6,2.7-1,2.7-2.6,2.7-2.6-1-2.6-2.7ZM447.3,321c0-1-.5-1.6-1.1-1.6s-1.1.6-1.1,1.6.4,1.6,1.1,1.6,1.1-.6,1.1-1.6Z"/>
        <path class="cls-4" d="M449.4,324.8v-5.7c0-.5.3-.7.7-.7s.7.2.7.7v.3h0c.3-.6.9-1,1.6-1,1.3,0,2.1,1,2.1,2.7s-.8,2.7-2.1,2.7-1.4-.4-1.6-1h0v2c0,.5-.3.7-.7.7s-.7-.2-.7-.7h0ZM453.2,321.1c0-1-.5-1.6-1.2-1.6s-1.2.6-1.2,1.6.5,1.5,1.2,1.5,1.2-.6,1.2-1.5Z"/>
        <path class="cls-4" d="M457.4,323v-4c0-.5.3-.7.7-.7s.7.2.7.7v.3h0c.2-.6.8-1,1.5-1s1.3.4,1.5,1.1h0c.2-.7.9-1.1,1.6-1.1s1.7.7,1.7,1.8v2.9c0,.5-.3.7-.7.7s-.7-.3-.7-.7v-2.6c0-.6-.3-.9-.9-.9s-.9.4-.9,1v2.5c0,.5-.3.7-.7.7s-.7-.3-.7-.7v-2.6c0-.6-.3-.9-.8-.9s-.9.4-.9,1v2.5c0,.5-.3.7-.7.7s-.7-.3-.7-.7h0Z"/>
        <path class="cls-4" d="M466,317.1c0-.4.3-.7.8-.7s.8.3.8.7-.3.7-.8.7-.8-.3-.8-.7ZM466,323v-4c0-.5.3-.8.7-.8s.7.3.7.8v4c0,.5-.3.7-.7.7s-.7-.3-.7-.7Z"/>
        <path class="cls-4" d="M468.2,321c0-1.7.8-2.7,2.1-2.7s1.3.4,1.6,1h0v-2.1c0-.5.3-.8.7-.8s.7.3.7.8v5.8c0,.5-.3.7-.7.7s-.7-.2-.7-.7v-.3h0c-.2.6-.8,1-1.6,1-1.3,0-2.1-1-2.1-2.7h0ZM472,321c0-1-.5-1.6-1.2-1.6s-1.2.6-1.2,1.6.4,1.5,1.2,1.5,1.2-.6,1.2-1.5Z"/>
        <path class="cls-4" d="M726.9,513.8v-.5l1.9-5.2c.2-.6.5-.8,1.1-.8s.9.2,1.1.8l1.9,5.2v.5c0,.4-.3.7-.7.7s-.6-.2-.8-.7l-.4-1.1h-2.5l-.4,1.1c0,.5-.4.7-.8.7s-.8-.3-.8-.7h.4ZM731,511.5l-.9-2.9h0l-.9,2.9h1.9,0Z"/>
        <path class="cls-4" d="M736,513.8v-5.6c0-.6.3-1,1-1s.8.2,1,.8l1.8,4.3h0l1.7-4.3c.2-.5.5-.8,1-.8s1,.4,1,1v5.6c0,.4-.2.7-.7.7s-.7-.2-.7-.7v-4.2h0l-1.7,4.3c0,.3-.3.5-.6.5s-.5,0-.6-.4l-1.7-4.3h0v4.2c0,.4-.2.7-.7.7s-.7-.2-.7-.7h0Z"/>
        <path class="cls-4" d="M744.2,512.8c0-1,.7-1.5,2-1.6h1.3v-.4c0-.5-.3-.8-.9-.8s-.7.1-1,.5c-.2.2-.3.3-.6.3s-.6-.2-.6-.5v-.3c.2-.6,1.1-1,2.2-1s2.2.7,2.2,1.8v3c0,.5-.3.7-.7.7s-.7-.2-.7-.6v-.3h0c-.3.6-1,.9-1.6.9-1,0-1.8-.6-1.8-1.6h.2ZM747.6,512.4v-.4h-1.1c-.5,0-.8.4-.8.7s.3.6.8.6,1.1-.4,1.1-1h0Z"/>
        <path class="cls-4" d="M749.9,507.7c0-.4.3-.7.8-.7s.8.3.8.7-.3.7-.8.7-.8-.3-.8-.7ZM749.9,513.7v-4c0-.5.3-.8.7-.8s.7.3.7.8v4c0,.5-.3.7-.7.7s-.7-.3-.7-.7Z"/>
        <path class="cls-4" d="M752.3,513.7v-4c0-.4.3-.7.7-.7s.7.3.7.7v.3h0c.3-.6.8-1,1.6-1,1.2,0,1.8.7,1.8,2v2.7c0,.5-.3.7-.7.7s-.7-.2-.7-.7v-2.4c0-.7-.3-1.1-1-1.1s-1,.5-1,1.1v2.4c0,.5-.3.7-.7.7s-.7-.2-.7-.7h0Z"/>
        <path class="cls-4" d="M900.5,506.2v-5.5c0-.5.3-.8.7-.8h3.3c.4,0,.7.2.7.6s-.3.6-.7.6h-2.6v1.7h2.5c.4,0,.6.2.6.6s-.2.6-.6.6h-2.5v1.8h2.6c.4,0,.7.2.7.6s-.3.6-.7.6h-3.3c-.5,0-.7-.3-.7-.8h0Z"/>
        <path class="cls-4" d="M906.2,506.4v-5.8c0-.5.3-.8.7-.8s.7.3.7.8v5.8c0,.5-.3.7-.7.7s-.7-.2-.7-.7Z"/>
        <path class="cls-4" d="M908.6,506.4v-5.8c0-.5.3-.8.7-.8s.7.3.7.8v2.1h0c.3-.6.9-1,1.6-1,1.3,0,2.1,1,2.1,2.7s-.8,2.7-2.1,2.7-1.3-.4-1.6-1h0v.3c0,.5-.3.7-.7.7s-.7-.2-.7-.7h0ZM912.3,504.4c0-1-.4-1.6-1.2-1.6s-1.2.6-1.2,1.6.5,1.5,1.2,1.5,1.2-.6,1.2-1.5Z"/>
        <path class="cls-4" d="M914.3,504.4c0-1.7,1-2.7,2.6-2.7s2.6,1,2.6,2.7-1,2.7-2.6,2.7-2.6-1-2.6-2.7ZM918.1,504.4c0-1-.5-1.6-1.1-1.6s-1.2.6-1.2,1.6.4,1.6,1.2,1.6,1.1-.6,1.1-1.6Z"/>
        <path class="cls-4" d="M921.1,506.4l-1-3.6v-.4c0-.4.3-.6.7-.6s.6.2.7.6l.8,3.4h0l.8-3.3c0-.4.4-.6.8-.6s.7.2.8.6l.8,3.3h0l.8-3.4c0-.4.3-.6.7-.6s.7.2.7.6v.4l-1,3.6c-.2.5-.4.8-.9.8s-.8-.2-.9-.8l-.8-3h0l-.8,3.1c0,.5-.4.8-.9.8s-.8-.2-.9-.8h-.4Z"/>
      </g>
    </g>
  </g>
</svg>